<svg width="1226" height="612" viewBox="0 0 1226 612" fill="none" xmlns="http://www.w3.org/2000/svg">
<rect width="1226" height="612" rx="56" fill="#F6F7F9"/>
<rect x="20" y="20" width="589" height="282" rx="56" fill="white"/>
<path d="M59.834 268.328C58.4577 268.328 57.25 268.009 56.2109 267.371C55.1719 266.733 54.3607 265.849 53.7773 264.719C53.2031 263.589 52.916 262.285 52.916 260.809C52.916 259.314 53.2031 258.001 53.7773 256.871C54.3607 255.732 55.1719 254.843 56.2109 254.205C57.25 253.558 58.4577 253.234 59.834 253.234C61.2103 253.234 62.4134 253.558 63.4434 254.205C64.4824 254.843 65.2891 255.732 65.8633 256.871C66.4466 258.001 66.7383 259.314 66.7383 260.809C66.7383 262.285 66.4466 263.589 65.8633 264.719C65.2891 265.849 64.4824 266.733 63.4434 267.371C62.4134 268.009 61.2103 268.328 59.834 268.328ZM59.834 265.84C61.0736 265.84 62.0488 265.384 62.7598 264.473C63.4707 263.561 63.8262 262.34 63.8262 260.809C63.8262 259.259 63.4661 258.024 62.7461 257.104C62.0352 256.183 61.0645 255.723 59.834 255.723C58.6035 255.723 57.6283 256.183 56.9082 257.104C56.1973 258.015 55.8418 259.25 55.8418 260.809C55.8418 262.349 56.1973 263.575 56.9082 264.486C57.6191 265.389 58.5944 265.84 59.834 265.84ZM67.3945 268L73.3418 260.658L67.4629 253.562H70.8398L75.6523 259.551H76.6914V253.562H79.5762V259.551H80.6016L85.3867 253.562H88.791L82.9258 260.658L88.8594 268H85.4004L80.5742 262.066H79.5762V268H76.6914V262.066H75.6934L70.8535 268H67.3945ZM103.488 268H100.617V257.924H100.59L93.5215 268H90.8145V253.562H93.6855V263.639H93.7129L100.768 253.562H103.488V268ZM105.43 272.402V265.416H106.66C107.079 265.033 107.421 264.582 107.686 264.062C107.95 263.534 108.164 262.868 108.328 262.066C108.492 261.264 108.629 260.248 108.738 259.018L109.217 253.562H119.525V265.416H121.863V272.402H119.033V268H108.301V272.402H105.43ZM109.805 265.416H116.709V256.119H111.773L111.486 259.018C111.359 260.476 111.172 261.738 110.926 262.805C110.689 263.871 110.315 264.742 109.805 265.416ZM128.248 268.232C126.808 268.232 125.614 267.868 124.666 267.139C123.718 266.4 123.244 265.311 123.244 263.871C123.244 262.777 123.513 261.939 124.051 261.355C124.598 260.763 125.304 260.339 126.17 260.084C127.045 259.829 127.97 259.642 128.945 259.523C129.848 259.414 130.563 259.323 131.092 259.25C131.62 259.177 131.994 259.068 132.213 258.922C132.441 258.776 132.555 258.525 132.555 258.17V258.047C132.555 257.345 132.299 256.771 131.789 256.324C131.279 255.868 130.563 255.641 129.643 255.641C128.722 255.641 127.97 255.864 127.387 256.311C126.803 256.748 126.484 257.299 126.43 257.965H123.6C123.663 256.589 124.242 255.463 125.336 254.588C126.43 253.713 127.879 253.275 129.684 253.275C131.461 253.275 132.86 253.713 133.881 254.588C134.902 255.463 135.412 256.634 135.412 258.102V268H132.568V265.949H132.514C132.213 266.533 131.734 267.061 131.078 267.535C130.431 268 129.488 268.232 128.248 268.232ZM128.836 265.908C130.112 265.908 131.051 265.58 131.652 264.924C132.263 264.258 132.568 263.484 132.568 262.6V260.904C132.377 261.059 131.944 261.201 131.27 261.328C130.595 261.447 129.875 261.561 129.109 261.67C128.316 261.788 127.619 262.012 127.018 262.34C126.416 262.668 126.115 263.197 126.115 263.926C126.115 264.546 126.357 265.033 126.84 265.389C127.332 265.735 127.997 265.908 128.836 265.908ZM144.832 268.328C143.401 268.328 142.171 268.005 141.141 267.357C140.12 266.71 139.331 265.822 138.775 264.691C138.229 263.552 137.955 262.258 137.955 260.809C137.955 259.341 138.242 258.038 138.816 256.898C139.391 255.759 140.184 254.866 141.195 254.219C142.207 253.562 143.369 253.234 144.682 253.234C146.049 253.234 147.234 253.553 148.236 254.191C149.248 254.829 150.032 255.718 150.588 256.857C151.144 257.988 151.422 259.296 151.422 260.781V261.561H140.799C140.854 262.864 141.227 263.917 141.92 264.719C142.622 265.521 143.606 265.922 144.873 265.922C145.821 265.922 146.6 265.708 147.211 265.279C147.822 264.851 148.227 264.295 148.428 263.611H151.203C151.03 264.541 150.643 265.361 150.041 266.072C149.449 266.783 148.701 267.339 147.799 267.74C146.906 268.132 145.917 268.328 144.832 268.328ZM140.826 259.373H148.605C148.487 258.225 148.081 257.318 147.389 256.652C146.696 255.978 145.803 255.641 144.709 255.641C143.615 255.641 142.722 255.978 142.029 256.652C141.346 257.318 140.945 258.225 140.826 259.373ZM153.924 268V253.562H158.258L161.525 261.342C161.762 261.943 161.977 262.531 162.168 263.105C162.359 263.671 162.551 264.217 162.742 264.746C162.924 264.217 163.111 263.671 163.303 263.105C163.494 262.531 163.708 261.943 163.945 261.342L167.186 253.562H171.52V268H168.662V261.342C168.662 260.33 168.667 259.451 168.676 258.703C168.685 257.947 168.694 257.199 168.703 256.461C168.411 257.227 168.115 258.006 167.814 258.799C167.523 259.583 167.195 260.426 166.83 261.328L163.959 268H161.484L158.6 261.328C158.235 260.453 157.902 259.633 157.602 258.867C157.31 258.092 157.023 257.336 156.74 256.598C156.749 257.309 156.758 258.033 156.768 258.771C156.777 259.501 156.781 260.357 156.781 261.342V268H153.924ZM177.672 258.389H181.459C183.127 258.389 184.471 258.826 185.492 259.701C186.513 260.576 187.023 261.725 187.023 263.146C187.023 264.596 186.513 265.767 185.492 266.66C184.471 267.553 183.127 268 181.459 268H174.787V253.562H177.672V258.389ZM177.672 260.904V265.471H181.35C182.225 265.471 182.913 265.261 183.414 264.842C183.924 264.423 184.18 263.857 184.18 263.146C184.18 262.454 183.924 261.907 183.414 261.506C182.913 261.105 182.225 260.904 181.35 260.904H177.672ZM188.281 268V253.562H191.166V268H188.281ZM207.094 268H204.223V257.924H204.195L197.127 268H194.42V253.562H197.291V263.639H197.318L204.373 253.562H207.094V268ZM200.75 251.566C199.975 251.566 199.273 251.393 198.645 251.047C198.016 250.691 197.514 250.217 197.141 249.625C196.776 249.023 196.594 248.349 196.594 247.602H198.576C198.576 248.221 198.777 248.727 199.178 249.119C199.588 249.511 200.112 249.707 200.75 249.707C201.388 249.707 201.912 249.511 202.322 249.119C202.732 248.727 202.938 248.221 202.938 247.602H204.92C204.92 248.349 204.733 249.023 204.359 249.625C203.995 250.217 203.498 250.691 202.869 251.047C202.24 251.393 201.534 251.566 200.75 251.566ZM217.033 273.715V253.562H219.863V255.641H219.904C220.36 254.848 220.984 254.255 221.777 253.863C222.57 253.471 223.436 253.275 224.375 253.275C225.615 253.275 226.704 253.594 227.643 254.232C228.581 254.861 229.311 255.741 229.83 256.871C230.359 257.992 230.623 259.296 230.623 260.781C230.623 262.267 230.363 263.575 229.844 264.705C229.324 265.826 228.595 266.706 227.656 267.344C226.717 267.973 225.619 268.287 224.361 268.287C223.423 268.287 222.575 268.082 221.818 267.672C221.062 267.262 220.442 266.646 219.959 265.826H219.918V273.715H217.033ZM223.773 265.799C224.94 265.799 225.883 265.37 226.604 264.514C227.333 263.657 227.697 262.413 227.697 260.781C227.697 259.15 227.333 257.906 226.604 257.049C225.883 256.183 224.94 255.75 223.773 255.75C222.543 255.75 221.559 256.21 220.82 257.131C220.091 258.042 219.727 259.259 219.727 260.781C219.727 262.294 220.091 263.511 220.82 264.432C221.559 265.343 222.543 265.799 223.773 265.799ZM239.373 268.328C237.997 268.328 236.789 268.009 235.75 267.371C234.711 266.733 233.9 265.849 233.316 264.719C232.742 263.589 232.455 262.285 232.455 260.809C232.455 259.314 232.742 258.001 233.316 256.871C233.9 255.732 234.711 254.843 235.75 254.205C236.789 253.558 237.997 253.234 239.373 253.234C240.749 253.234 241.952 253.558 242.982 254.205C244.021 254.843 244.828 255.732 245.402 256.871C245.986 258.001 246.277 259.314 246.277 260.809C246.277 262.285 245.986 263.589 245.402 264.719C244.828 265.849 244.021 266.733 242.982 267.371C241.952 268.009 240.749 268.328 239.373 268.328ZM239.373 265.84C240.613 265.84 241.588 265.384 242.299 264.473C243.01 263.561 243.365 262.34 243.365 260.809C243.365 259.259 243.005 258.024 242.285 257.104C241.574 256.183 240.604 255.723 239.373 255.723C238.143 255.723 237.167 256.183 236.447 257.104C235.736 258.015 235.381 259.25 235.381 260.809C235.381 262.349 235.736 263.575 236.447 264.486C237.158 265.389 238.133 265.84 239.373 265.84ZM255.014 268.328C253.637 268.328 252.43 268.009 251.391 267.371C250.361 266.733 249.559 265.849 248.984 264.719C248.41 263.579 248.123 262.276 248.123 260.809C248.123 259.323 248.41 258.01 248.984 256.871C249.568 255.732 250.374 254.843 251.404 254.205C252.434 253.558 253.637 253.234 255.014 253.234C256.162 253.234 257.188 253.462 258.09 253.918C259.001 254.365 259.74 254.984 260.305 255.777C260.87 256.57 261.212 257.477 261.33 258.498H258.459C258.313 257.687 257.949 257.021 257.365 256.502C256.782 255.982 256.003 255.723 255.027 255.723C253.779 255.723 252.803 256.183 252.102 257.104C251.4 258.024 251.049 259.259 251.049 260.809C251.049 262.34 251.4 263.561 252.102 264.473C252.803 265.384 253.779 265.84 255.027 265.84C256.021 265.84 256.786 265.589 257.324 265.088C257.862 264.577 258.227 263.898 258.418 263.051H261.33C261.221 264.053 260.883 264.956 260.318 265.758C259.753 266.551 259.015 267.18 258.104 267.645C257.192 268.1 256.162 268.328 255.014 268.328ZM267.359 268V256.078H262.383V253.562H275.207V256.078H270.244V268H267.359ZM283.957 268V247.629H291.709C293.887 247.629 295.615 248.199 296.891 249.338C298.167 250.477 298.805 252.022 298.805 253.973C298.805 255.395 298.44 256.607 297.711 257.609C296.982 258.603 295.984 259.327 294.717 259.783L299.119 268H295.701L291.641 260.289C291.595 260.289 291.549 260.289 291.504 260.289H286.992V268H283.957ZM286.992 257.705H291.586C292.898 257.705 293.928 257.372 294.676 256.707C295.432 256.033 295.811 255.121 295.811 253.973C295.811 252.824 295.432 251.917 294.676 251.252C293.919 250.587 292.885 250.254 291.572 250.254H286.992V257.705ZM307.172 268.328C305.741 268.328 304.51 268.005 303.48 267.357C302.46 266.71 301.671 265.822 301.115 264.691C300.568 263.552 300.295 262.258 300.295 260.809C300.295 259.341 300.582 258.038 301.156 256.898C301.73 255.759 302.523 254.866 303.535 254.219C304.547 253.562 305.709 253.234 307.021 253.234C308.389 253.234 309.574 253.553 310.576 254.191C311.588 254.829 312.372 255.718 312.928 256.857C313.484 257.988 313.762 259.296 313.762 260.781V261.561H303.139C303.193 262.864 303.567 263.917 304.26 264.719C304.962 265.521 305.946 265.922 307.213 265.922C308.161 265.922 308.94 265.708 309.551 265.279C310.161 264.851 310.567 264.295 310.768 263.611H313.543C313.37 264.541 312.982 265.361 312.381 266.072C311.788 266.783 311.041 267.339 310.139 267.74C309.245 268.132 308.257 268.328 307.172 268.328ZM303.166 259.373H310.945C310.827 258.225 310.421 257.318 309.729 256.652C309.036 255.978 308.143 255.641 307.049 255.641C305.955 255.641 305.062 255.978 304.369 256.652C303.686 257.318 303.285 258.225 303.166 259.373ZM323.223 253.562V255.941H320.297V264.186C320.297 264.723 320.406 265.097 320.625 265.307C320.844 265.516 321.24 265.621 321.814 265.621H323.223V268H321.404C318.734 268 317.398 266.852 317.398 264.555V255.941H314.855V253.562H317.398V249.625H320.297V253.562H323.223ZM331.426 268.328C329.995 268.328 328.764 268.005 327.734 267.357C326.714 266.71 325.925 265.822 325.369 264.691C324.822 263.552 324.549 262.258 324.549 260.809C324.549 259.341 324.836 258.038 325.41 256.898C325.984 255.759 326.777 254.866 327.789 254.219C328.801 253.562 329.963 253.234 331.275 253.234C332.643 253.234 333.827 253.553 334.83 254.191C335.842 254.829 336.626 255.718 337.182 256.857C337.738 257.988 338.016 259.296 338.016 260.781V261.561H327.393C327.447 262.864 327.821 263.917 328.514 264.719C329.215 265.521 330.2 265.922 331.467 265.922C332.415 265.922 333.194 265.708 333.805 265.279C334.415 264.851 334.821 264.295 335.021 263.611H337.797C337.624 264.541 337.236 265.361 336.635 266.072C336.042 266.783 335.295 267.339 334.393 267.74C333.499 268.132 332.51 268.328 331.426 268.328ZM327.42 259.373H335.199C335.081 258.225 334.675 257.318 333.982 256.652C333.29 255.978 332.396 255.641 331.303 255.641C330.209 255.641 329.316 255.978 328.623 256.652C327.939 257.318 327.538 258.225 327.42 259.373ZM343.402 259.688V268H340.518V253.562H343.348V255.736C344.332 254.096 345.786 253.275 347.709 253.275C348.702 253.275 349.591 253.494 350.375 253.932C351.168 254.36 351.792 254.998 352.248 255.846C352.704 256.693 352.932 257.746 352.932 259.004V268H350.047V259.359C350.047 258.202 349.769 257.331 349.213 256.748C348.657 256.156 347.882 255.859 346.889 255.859C345.904 255.859 345.075 256.165 344.4 256.775C343.735 257.377 343.402 258.348 343.402 259.688ZM363.145 253.562V255.941H360.219V264.186C360.219 264.723 360.328 265.097 360.547 265.307C360.766 265.516 361.162 265.621 361.736 265.621H363.145V268H361.326C358.656 268 357.32 266.852 357.32 264.555V255.941H354.777V253.562H357.32V249.625H360.219V253.562H363.145ZM365.428 268V253.562H368.312V268H365.428ZM366.863 251.074C366.353 251.074 365.92 250.906 365.564 250.568C365.218 250.222 365.045 249.803 365.045 249.311C365.045 248.809 365.218 248.39 365.564 248.053C365.92 247.706 366.353 247.533 366.863 247.533C367.374 247.533 367.807 247.706 368.162 248.053C368.518 248.39 368.695 248.809 368.695 249.311C368.695 249.803 368.518 250.222 368.162 250.568C367.807 250.906 367.374 251.074 366.863 251.074ZM377.787 268.328C376.411 268.328 375.203 268.009 374.164 267.371C373.125 266.733 372.314 265.849 371.73 264.719C371.156 263.589 370.869 262.285 370.869 260.809C370.869 259.314 371.156 258.001 371.73 256.871C372.314 255.732 373.125 254.843 374.164 254.205C375.203 253.558 376.411 253.234 377.787 253.234C379.163 253.234 380.367 253.558 381.396 254.205C382.436 254.843 383.242 255.732 383.816 256.871C384.4 258.001 384.691 259.314 384.691 260.809C384.691 262.285 384.4 263.589 383.816 264.719C383.242 265.849 382.436 266.733 381.396 267.371C380.367 268.009 379.163 268.328 377.787 268.328ZM377.787 265.84C379.027 265.84 380.002 265.384 380.713 264.473C381.424 263.561 381.779 262.34 381.779 260.809C381.779 259.259 381.419 258.024 380.699 257.104C379.988 256.183 379.018 255.723 377.787 255.723C376.557 255.723 375.581 256.183 374.861 257.104C374.15 258.015 373.795 259.25 373.795 260.809C373.795 262.349 374.15 263.575 374.861 264.486C375.572 265.389 376.548 265.84 377.787 265.84ZM390.133 259.688V268H387.248V253.562H390.078V255.736C391.062 254.096 392.516 253.275 394.439 253.275C395.433 253.275 396.322 253.494 397.105 253.932C397.898 254.36 398.523 254.998 398.979 255.846C399.434 256.693 399.662 257.746 399.662 259.004V268H396.777V259.359C396.777 258.202 396.499 257.331 395.943 256.748C395.387 256.156 394.613 255.859 393.619 255.859C392.635 255.859 391.805 256.165 391.131 256.775C390.465 257.377 390.133 258.348 390.133 259.688Z" fill="#96A2B1"/>
<path d="M59.8125 195V172.93L113.133 127.324C119.578 121.66 124.917 116.419 129.148 111.602C133.38 106.719 135.496 100.859 135.496 94.0234C135.496 87.0573 133.38 81.5234 129.148 77.4219C124.917 73.2552 119.22 71.1719 112.059 71.1719C104.246 71.1719 98.0937 73.6784 93.6016 78.6914C89.1094 83.7044 86.8633 90.638 86.8633 99.4922H59.2266C59.2266 88.9453 61.375 79.7656 65.6719 71.9531C70.0339 64.0755 76.1536 57.9883 84.0312 53.6914C91.9089 49.3294 101.251 47.1484 112.059 47.1484C122.02 47.1484 130.874 49.0365 138.621 52.8125C146.368 56.5234 152.423 61.7643 156.785 68.5352C161.212 75.306 163.426 83.2812 163.426 92.4609C163.426 99.2318 162.156 105.417 159.617 111.016C157.078 116.615 153.4 122.051 148.582 127.324C143.829 132.533 138.068 138.034 131.297 143.828L100.437 170.684V170.879H164.109V195H59.8125ZM229.203 197.344C211.039 197.344 196.944 191.094 186.918 178.594C176.892 166.094 171.879 148.548 171.879 125.957C171.879 110.007 174.092 96.1393 178.52 84.3555C183.012 72.5065 189.587 63.3594 198.246 56.9141C206.97 50.4036 217.68 47.1484 230.375 47.1484C240.076 47.1484 248.572 48.9714 255.863 52.6172C263.22 56.263 269.112 61.2435 273.539 67.5586C277.966 73.8737 280.603 81.0352 281.449 89.043H253.324C252.283 83.3789 249.743 78.8542 245.707 75.4687C241.671 72.0833 236.462 70.3906 230.082 70.3906C219.665 70.3906 211.951 74.5573 206.937 82.8906C201.99 91.224 199.516 102.194 199.516 115.801H199.711C203.292 110.267 208.077 106.035 214.066 103.105C220.056 100.176 226.827 98.7109 234.379 98.7109C243.754 98.7109 252.087 100.827 259.379 105.059C266.736 109.225 272.497 114.987 276.664 122.344C280.896 129.635 283.012 137.969 283.012 147.344C283.012 157.24 280.701 165.964 276.078 173.516C271.521 181.003 265.173 186.862 257.035 191.094C248.962 195.26 239.685 197.344 229.203 197.344ZM229.008 173.711C233.826 173.711 238.155 172.572 241.996 170.293C245.837 167.949 248.865 164.792 251.078 160.82C253.357 156.849 254.496 152.357 254.496 147.344C254.496 139.922 252.087 133.737 247.27 128.789C242.452 123.776 236.462 121.27 229.301 121.27C224.483 121.27 220.121 122.441 216.215 124.785C212.374 127.064 209.314 130.189 207.035 134.16C204.822 138.066 203.715 142.493 203.715 147.441C203.715 152.389 204.822 156.849 207.035 160.82C209.249 164.792 212.276 167.949 216.117 170.293C219.958 172.572 224.255 173.711 229.008 173.711ZM424.473 197.344C417.832 197.344 411.973 195.846 406.895 192.852C401.816 189.857 397.845 185.658 394.98 180.254C392.116 174.85 390.684 168.6 390.684 161.504V158.574C390.684 151.413 392.116 145.163 394.98 139.824C397.845 134.421 401.816 130.221 406.895 127.227C411.973 124.167 417.832 122.637 424.473 122.637C431.048 122.637 436.875 124.167 441.953 127.227C447.031 130.221 451.003 134.421 453.867 139.824C456.797 145.163 458.262 151.413 458.262 158.574V161.504C458.262 168.6 456.797 174.85 453.867 180.254C451.003 185.658 447.031 189.857 441.953 192.852C436.875 195.846 431.048 197.344 424.473 197.344ZM329.355 121.855C322.78 121.855 316.953 120.358 311.875 117.363C306.797 114.368 302.826 110.169 299.961 104.766C297.096 99.362 295.664 93.112 295.664 86.0156V83.0859C295.664 75.9245 297.096 69.6745 299.961 64.3359C302.826 58.9323 306.797 54.7331 311.875 51.7383C316.953 48.6784 322.78 47.1484 329.355 47.1484C335.996 47.1484 341.855 48.6784 346.934 51.7383C352.012 54.7331 355.983 58.9323 358.848 64.3359C361.712 69.6745 363.145 75.9245 363.145 83.0859V86.0156C363.145 93.112 361.712 99.362 358.848 104.766C355.983 110.169 352.012 114.368 346.934 117.363C341.855 120.358 335.996 121.855 329.355 121.855ZM316.172 195L416.172 49.4922H437.461L337.461 195H316.172ZM329.355 103.984C333.327 103.984 336.484 102.487 338.828 99.4922C341.237 96.4323 342.441 91.9401 342.441 86.0156V83.0859C342.441 77.0964 341.237 72.5716 338.828 69.5117C336.484 66.4518 333.327 64.9219 329.355 64.9219C325.449 64.9219 322.292 66.4518 319.883 69.5117C317.539 72.5716 316.367 77.0964 316.367 83.0859V86.0156C316.367 91.9401 317.539 96.4323 319.883 99.4922C322.292 102.487 325.449 103.984 329.355 103.984ZM424.473 179.473C428.379 179.473 431.504 177.975 433.848 174.98C436.256 171.921 437.461 167.428 437.461 161.504V158.574C437.461 152.585 436.256 148.06 433.848 145C431.504 141.94 428.379 140.41 424.473 140.41C420.501 140.41 417.344 141.94 415 145C412.656 148.06 411.484 152.585 411.484 158.574V161.504C411.484 167.428 412.656 171.921 415 174.98C417.344 177.975 420.501 179.473 424.473 179.473Z" fill="#96A2B1"/>
<rect x="617" y="20" width="589" height="282" rx="56" fill="white"/>
<path d="M657.205 270.328C655.829 270.328 654.621 270.009 653.582 269.371C652.552 268.733 651.75 267.849 651.176 266.719C650.602 265.579 650.314 264.276 650.314 262.809C650.314 261.323 650.602 260.01 651.176 258.871C651.759 257.732 652.566 256.843 653.596 256.205C654.626 255.558 655.829 255.234 657.205 255.234C658.354 255.234 659.379 255.462 660.281 255.918C661.193 256.365 661.931 256.984 662.496 257.777C663.061 258.57 663.403 259.477 663.521 260.498H660.65C660.505 259.687 660.14 259.021 659.557 258.502C658.973 257.982 658.194 257.723 657.219 257.723C655.97 257.723 654.995 258.183 654.293 259.104C653.591 260.024 653.24 261.259 653.24 262.809C653.24 264.34 653.591 265.561 654.293 266.473C654.995 267.384 655.97 267.84 657.219 267.84C658.212 267.84 658.978 267.589 659.516 267.088C660.053 266.577 660.418 265.898 660.609 265.051H663.521C663.412 266.053 663.075 266.956 662.51 267.758C661.945 268.551 661.206 269.18 660.295 269.645C659.383 270.1 658.354 270.328 657.205 270.328ZM665.982 275.715V255.562H668.812V257.641H668.854C669.309 256.848 669.934 256.255 670.727 255.863C671.52 255.471 672.385 255.275 673.324 255.275C674.564 255.275 675.653 255.594 676.592 256.232C677.531 256.861 678.26 257.741 678.779 258.871C679.308 259.992 679.572 261.296 679.572 262.781C679.572 264.267 679.312 265.575 678.793 266.705C678.273 267.826 677.544 268.706 676.605 269.344C675.667 269.973 674.568 270.287 673.311 270.287C672.372 270.287 671.524 270.082 670.768 269.672C670.011 269.262 669.391 268.646 668.908 267.826H668.867V275.715H665.982ZM672.723 267.799C673.889 267.799 674.833 267.37 675.553 266.514C676.282 265.657 676.646 264.413 676.646 262.781C676.646 261.15 676.282 259.906 675.553 259.049C674.833 258.183 673.889 257.75 672.723 257.75C671.492 257.75 670.508 258.21 669.77 259.131C669.04 260.042 668.676 261.259 668.676 262.781C668.676 264.294 669.04 265.511 669.77 266.432C670.508 267.343 671.492 267.799 672.723 267.799ZM688.281 270.328C686.85 270.328 685.62 270.005 684.59 269.357C683.569 268.71 682.781 267.822 682.225 266.691C681.678 265.552 681.404 264.258 681.404 262.809C681.404 261.341 681.691 260.038 682.266 258.898C682.84 257.759 683.633 256.866 684.645 256.219C685.656 255.562 686.818 255.234 688.131 255.234C689.498 255.234 690.683 255.553 691.686 256.191C692.697 256.829 693.481 257.718 694.037 258.857C694.593 259.988 694.871 261.296 694.871 262.781V263.561H684.248C684.303 264.864 684.676 265.917 685.369 266.719C686.071 267.521 687.055 267.922 688.322 267.922C689.27 267.922 690.049 267.708 690.66 267.279C691.271 266.851 691.676 266.295 691.877 265.611H694.652C694.479 266.541 694.092 267.361 693.49 268.072C692.898 268.783 692.15 269.339 691.248 269.74C690.355 270.132 689.366 270.328 688.281 270.328ZM684.275 261.373H692.055C691.936 260.225 691.531 259.318 690.838 258.652C690.145 257.978 689.252 257.641 688.158 257.641C687.064 257.641 686.171 257.978 685.479 258.652C684.795 259.318 684.394 260.225 684.275 261.373ZM696.047 274.402V267.416H697.277C697.697 267.033 698.038 266.582 698.303 266.062C698.567 265.534 698.781 264.868 698.945 264.066C699.109 263.264 699.246 262.248 699.355 261.018L699.834 255.562H710.143V267.416H712.48V274.402H709.65V270H698.918V274.402H696.047ZM700.422 267.416H707.326V258.119H702.391L702.104 261.018C701.976 262.476 701.789 263.738 701.543 264.805C701.306 265.871 700.932 266.742 700.422 267.416ZM717.348 255.562V261.482H724.252V255.562H727.137V270H724.252V264.066H717.348V270H714.463V255.562H717.348ZM736.57 270.328C735.139 270.328 733.909 270.005 732.879 269.357C731.858 268.71 731.07 267.822 730.514 266.691C729.967 265.552 729.693 264.258 729.693 262.809C729.693 261.341 729.98 260.038 730.555 258.898C731.129 257.759 731.922 256.866 732.934 256.219C733.945 255.562 735.107 255.234 736.42 255.234C737.787 255.234 738.972 255.553 739.975 256.191C740.986 256.829 741.77 257.718 742.326 258.857C742.882 259.988 743.16 261.296 743.16 262.781V263.561H732.537C732.592 264.864 732.965 265.917 733.658 266.719C734.36 267.521 735.344 267.922 736.611 267.922C737.559 267.922 738.339 267.708 738.949 267.279C739.56 266.851 739.965 266.295 740.166 265.611H742.941C742.768 266.541 742.381 267.361 741.779 268.072C741.187 268.783 740.439 269.339 739.537 269.74C738.644 270.132 737.655 270.328 736.57 270.328ZM732.564 261.373H740.344C740.225 260.225 739.82 259.318 739.127 258.652C738.434 257.978 737.541 257.641 736.447 257.641C735.354 257.641 734.46 257.978 733.768 258.652C733.084 259.318 732.683 260.225 732.564 261.373ZM751.828 270.328C750.397 270.328 749.167 270.005 748.137 269.357C747.116 268.71 746.327 267.822 745.771 266.691C745.225 265.552 744.951 264.258 744.951 262.809C744.951 261.341 745.238 260.038 745.812 258.898C746.387 257.759 747.18 256.866 748.191 256.219C749.203 255.562 750.365 255.234 751.678 255.234C753.045 255.234 754.23 255.553 755.232 256.191C756.244 256.829 757.028 257.718 757.584 258.857C758.14 259.988 758.418 261.296 758.418 262.781V263.561H747.795C747.85 264.864 748.223 265.917 748.916 266.719C749.618 267.521 750.602 267.922 751.869 267.922C752.817 267.922 753.596 267.708 754.207 267.279C754.818 266.851 755.223 266.295 755.424 265.611H758.199C758.026 266.541 757.639 267.361 757.037 268.072C756.445 268.783 755.697 269.339 754.795 269.74C753.902 270.132 752.913 270.328 751.828 270.328ZM747.822 261.373H755.602C755.483 260.225 755.077 259.318 754.385 258.652C753.692 257.978 752.799 257.641 751.705 257.641C750.611 257.641 749.718 257.978 749.025 258.652C748.342 259.318 747.941 260.225 747.822 261.373ZM767.592 270V255.562H773.717C775.439 255.562 776.802 255.886 777.805 256.533C778.807 257.18 779.309 258.133 779.309 259.391C779.309 260.238 779.067 260.917 778.584 261.428C778.11 261.929 777.445 262.257 776.588 262.412C777.527 262.531 778.306 262.882 778.926 263.465C779.555 264.039 779.869 264.855 779.869 265.912C779.869 267.152 779.423 268.145 778.529 268.893C777.636 269.631 776.36 270 774.701 270H767.592ZM770.326 267.539H774.633C775.389 267.539 775.973 267.38 776.383 267.061C776.793 266.742 776.998 266.286 776.998 265.693C776.998 265.037 776.793 264.531 776.383 264.176C775.973 263.82 775.389 263.643 774.633 263.643H770.326V267.539ZM770.326 261.551H773.84C774.678 261.551 775.326 261.391 775.781 261.072C776.237 260.744 776.465 260.284 776.465 259.691C776.465 259.145 776.223 258.725 775.74 258.434C775.266 258.133 774.592 257.982 773.717 257.982H770.326V261.551ZM782.412 275.715V255.562H785.242V257.641H785.283C785.739 256.848 786.363 256.255 787.156 255.863C787.949 255.471 788.815 255.275 789.754 255.275C790.993 255.275 792.083 255.594 793.021 256.232C793.96 256.861 794.689 257.741 795.209 258.871C795.738 259.992 796.002 261.296 796.002 262.781C796.002 264.267 795.742 265.575 795.223 266.705C794.703 267.826 793.974 268.706 793.035 269.344C792.096 269.973 790.998 270.287 789.74 270.287C788.801 270.287 787.954 270.082 787.197 269.672C786.441 269.262 785.821 268.646 785.338 267.826H785.297V275.715H782.412ZM789.152 267.799C790.319 267.799 791.262 267.37 791.982 266.514C792.712 265.657 793.076 264.413 793.076 262.781C793.076 261.15 792.712 259.906 791.982 259.049C791.262 258.183 790.319 257.75 789.152 257.75C787.922 257.75 786.938 258.21 786.199 259.131C785.47 260.042 785.105 261.259 785.105 262.781C785.105 264.294 785.47 265.511 786.199 266.432C786.938 267.343 787.922 267.799 789.152 267.799ZM804.711 270.328C803.28 270.328 802.049 270.005 801.02 269.357C799.999 268.71 799.21 267.822 798.654 266.691C798.107 265.552 797.834 264.258 797.834 262.809C797.834 261.341 798.121 260.038 798.695 258.898C799.27 257.759 800.062 256.866 801.074 256.219C802.086 255.562 803.248 255.234 804.561 255.234C805.928 255.234 807.113 255.553 808.115 256.191C809.127 256.829 809.911 257.718 810.467 258.857C811.023 259.988 811.301 261.296 811.301 262.781V263.561H800.678C800.732 264.864 801.106 265.917 801.799 266.719C802.501 267.521 803.485 267.922 804.752 267.922C805.7 267.922 806.479 267.708 807.09 267.279C807.701 266.851 808.106 266.295 808.307 265.611H811.082C810.909 266.541 810.521 267.361 809.92 268.072C809.327 268.783 808.58 269.339 807.678 269.74C806.785 270.132 805.796 270.328 804.711 270.328ZM800.705 261.373H808.484C808.366 260.225 807.96 259.318 807.268 258.652C806.575 257.978 805.682 257.641 804.588 257.641C803.494 257.641 802.601 257.978 801.908 258.652C801.225 259.318 800.824 260.225 800.705 261.373ZM813.803 270V255.562H818.137L821.404 263.342C821.641 263.943 821.855 264.531 822.047 265.105C822.238 265.671 822.43 266.217 822.621 266.746C822.803 266.217 822.99 265.671 823.182 265.105C823.373 264.531 823.587 263.943 823.824 263.342L827.064 255.562H831.398V270H828.541V263.342C828.541 262.33 828.546 261.451 828.555 260.703C828.564 259.947 828.573 259.199 828.582 258.461C828.29 259.227 827.994 260.006 827.693 260.799C827.402 261.583 827.074 262.426 826.709 263.328L823.838 270H821.363L818.479 263.328C818.114 262.453 817.781 261.633 817.48 260.867C817.189 260.092 816.902 259.336 816.619 258.598C816.628 259.309 816.637 260.033 816.646 260.771C816.656 261.501 816.66 262.357 816.66 263.342V270H813.803ZM846.355 270H843.525V264.805H839.93L836.566 270H833.312L837.018 264.408C836.042 264.08 835.29 263.565 834.762 262.863C834.242 262.161 833.982 261.291 833.982 260.252C833.982 258.757 834.479 257.604 835.473 256.793C836.475 255.973 837.883 255.562 839.697 255.562H846.355V270ZM843.525 262.535V257.982H840.012C838.909 257.982 838.102 258.165 837.592 258.529C837.081 258.894 836.826 259.473 836.826 260.266C836.826 261.068 837.09 261.646 837.619 262.002C838.148 262.357 838.973 262.535 840.094 262.535H843.525ZM856.295 270V255.562H862.42C864.143 255.562 865.505 255.886 866.508 256.533C867.51 257.18 868.012 258.133 868.012 259.391C868.012 260.238 867.77 260.917 867.287 261.428C866.813 261.929 866.148 262.257 865.291 262.412C866.23 262.531 867.009 262.882 867.629 263.465C868.258 264.039 868.572 264.855 868.572 265.912C868.572 267.152 868.126 268.145 867.232 268.893C866.339 269.631 865.063 270 863.404 270H856.295ZM859.029 267.539H863.336C864.092 267.539 864.676 267.38 865.086 267.061C865.496 266.742 865.701 266.286 865.701 265.693C865.701 265.037 865.496 264.531 865.086 264.176C864.676 263.82 864.092 263.643 863.336 263.643H859.029V267.539ZM859.029 261.551H862.543C863.382 261.551 864.029 261.391 864.484 261.072C864.94 260.744 865.168 260.284 865.168 259.691C865.168 259.145 864.926 258.725 864.443 258.434C863.969 258.133 863.295 257.982 862.42 257.982H859.029V261.551ZM874 260.389H877.787C879.455 260.389 880.799 260.826 881.82 261.701C882.841 262.576 883.352 263.725 883.352 265.146C883.352 266.596 882.841 267.767 881.82 268.66C880.799 269.553 879.455 270 877.787 270H871.115V255.562H874V260.389ZM874 262.904V267.471H877.678C878.553 267.471 879.241 267.261 879.742 266.842C880.253 266.423 880.508 265.857 880.508 265.146C880.508 264.454 880.253 263.907 879.742 263.506C879.241 263.105 878.553 262.904 877.678 262.904H874ZM884.609 270V255.562H887.494V270H884.609ZM903.271 255.562V270H900.387V258.146H893.633V270H890.748V255.562H903.271ZM912.732 270.328C911.356 270.328 910.148 270.009 909.109 269.371C908.07 268.733 907.259 267.849 906.676 266.719C906.102 265.589 905.814 264.285 905.814 262.809C905.814 261.314 906.102 260.001 906.676 258.871C907.259 257.732 908.07 256.843 909.109 256.205C910.148 255.558 911.356 255.234 912.732 255.234C914.109 255.234 915.312 255.558 916.342 256.205C917.381 256.843 918.188 257.732 918.762 258.871C919.345 260.001 919.637 261.314 919.637 262.809C919.637 264.285 919.345 265.589 918.762 266.719C918.188 267.849 917.381 268.733 916.342 269.371C915.312 270.009 914.109 270.328 912.732 270.328ZM912.732 267.84C913.972 267.84 914.947 267.384 915.658 266.473C916.369 265.561 916.725 264.34 916.725 262.809C916.725 261.259 916.365 260.024 915.645 259.104C914.934 258.183 913.963 257.723 912.732 257.723C911.502 257.723 910.527 258.183 909.807 259.104C909.096 260.015 908.74 261.25 908.74 262.809C908.74 264.349 909.096 265.575 909.807 266.486C910.518 267.389 911.493 267.84 912.732 267.84ZM920.785 270V267.457H921.359C921.934 267.457 922.385 267.325 922.713 267.061C923.041 266.796 923.283 266.277 923.438 265.502C923.592 264.718 923.702 263.547 923.766 261.988L924.039 255.562H934.771V270H931.887V258.092H926.801L926.568 262.809C926.441 265.324 926.035 267.152 925.352 268.291C924.668 269.43 923.501 270 921.852 270H920.785ZM940.91 255.562V261.482H947.814V255.562H950.699V270H947.814V264.066H940.91V270H938.025V255.562H940.91ZM960.133 270.328C958.702 270.328 957.471 270.005 956.441 269.357C955.421 268.71 954.632 267.822 954.076 266.691C953.529 265.552 953.256 264.258 953.256 262.809C953.256 261.341 953.543 260.038 954.117 258.898C954.691 257.759 955.484 256.866 956.496 256.219C957.508 255.562 958.67 255.234 959.982 255.234C961.35 255.234 962.535 255.553 963.537 256.191C964.549 256.829 965.333 257.718 965.889 258.857C966.445 259.988 966.723 261.296 966.723 262.781V263.561H956.1C956.154 264.864 956.528 265.917 957.221 266.719C957.923 267.521 958.907 267.922 960.174 267.922C961.122 267.922 961.901 267.708 962.512 267.279C963.122 266.851 963.528 266.295 963.729 265.611H966.504C966.331 266.541 965.943 267.361 965.342 268.072C964.749 268.783 964.002 269.339 963.1 269.74C962.206 270.132 961.217 270.328 960.133 270.328ZM956.127 261.373H963.906C963.788 260.225 963.382 259.318 962.689 258.652C961.997 257.978 961.104 257.641 960.01 257.641C958.916 257.641 958.023 257.978 957.33 258.652C956.646 259.318 956.245 260.225 956.127 261.373ZM972.109 255.562V261.482H979.014V255.562H981.898V270H979.014V264.066H972.109V270H969.225V255.562H972.109ZM997.84 270H994.969V259.924H994.941L987.873 270H985.166V255.562H988.037V265.639H988.064L995.119 255.562H997.84V270ZM1012.8 270H1009.97V264.805H1006.37L1003.01 270H999.754L1003.46 264.408C1002.48 264.08 1001.73 263.565 1001.2 262.863C1000.68 262.161 1000.42 261.291 1000.42 260.252C1000.42 258.757 1000.92 257.604 1001.91 256.793C1002.92 255.973 1004.32 255.562 1006.14 255.562H1012.8V270ZM1009.97 262.535V257.982H1006.45C1005.35 257.982 1004.54 258.165 1004.03 258.529C1003.52 258.894 1003.27 259.473 1003.27 260.266C1003.27 261.068 1003.53 261.646 1004.06 262.002C1004.59 262.357 1005.41 262.535 1006.54 262.535H1009.97ZM1027.79 270.219C1026.61 270.219 1025.58 270.018 1024.72 269.617C1023.86 269.207 1023.2 268.66 1022.72 267.977C1022.26 267.284 1022.02 266.505 1022.01 265.639H1024.86C1024.87 266.331 1025.15 266.878 1025.68 267.279C1026.21 267.671 1026.91 267.867 1027.75 267.867C1028.62 267.867 1029.32 267.676 1029.86 267.293C1030.41 266.901 1030.68 266.395 1030.68 265.775C1030.68 265.137 1030.4 264.618 1029.83 264.217C1029.27 263.807 1028.49 263.602 1027.51 263.602H1026.39V261.564H1027.51C1028.34 261.564 1029.01 261.378 1029.52 261.004C1030.04 260.63 1030.3 260.138 1030.3 259.527C1030.3 258.926 1030.06 258.443 1029.6 258.078C1029.14 257.714 1028.54 257.531 1027.78 257.531C1027.02 257.531 1026.37 257.718 1025.85 258.092C1025.34 258.456 1025.08 258.962 1025.07 259.609H1022.33C1022.34 258.762 1022.58 258.01 1023.05 257.354C1023.52 256.697 1024.17 256.182 1024.98 255.809C1025.8 255.435 1026.74 255.248 1027.79 255.248C1028.83 255.248 1029.75 255.43 1030.53 255.795C1031.32 256.15 1031.94 256.633 1032.38 257.244C1032.82 257.846 1033.04 258.525 1033.04 259.281C1033.04 260.092 1032.79 260.785 1032.27 261.359C1031.76 261.924 1031.06 262.294 1030.19 262.467V262.494C1031.26 262.631 1032.1 263.018 1032.69 263.656C1033.28 264.294 1033.58 265.06 1033.58 265.953C1033.58 266.773 1033.33 267.507 1032.83 268.154C1032.33 268.792 1031.65 269.298 1030.78 269.672C1029.91 270.036 1028.92 270.219 1027.79 270.219ZM1040.46 270.232C1039.01 270.232 1037.82 269.868 1036.87 269.139C1035.93 268.4 1035.45 267.311 1035.45 265.871C1035.45 264.777 1035.72 263.939 1036.26 263.355C1036.8 262.763 1037.51 262.339 1038.38 262.084C1039.25 261.829 1040.18 261.642 1041.15 261.523C1042.05 261.414 1042.77 261.323 1043.3 261.25C1043.83 261.177 1044.2 261.068 1044.42 260.922C1044.65 260.776 1044.76 260.525 1044.76 260.17V260.047C1044.76 259.345 1044.51 258.771 1044 258.324C1043.49 257.868 1042.77 257.641 1041.85 257.641C1040.93 257.641 1040.18 257.864 1039.59 258.311C1039.01 258.748 1038.69 259.299 1038.64 259.965H1035.81C1035.87 258.589 1036.45 257.463 1037.54 256.588C1038.64 255.713 1040.09 255.275 1041.89 255.275C1043.67 255.275 1045.07 255.713 1046.09 256.588C1047.11 257.463 1047.62 258.634 1047.62 260.102V270H1044.78V267.949H1044.72C1044.42 268.533 1043.94 269.061 1043.29 269.535C1042.64 270 1041.69 270.232 1040.46 270.232ZM1041.04 267.908C1042.32 267.908 1043.26 267.58 1043.86 266.924C1044.47 266.258 1044.78 265.484 1044.78 264.6V262.904C1044.58 263.059 1044.15 263.201 1043.48 263.328C1042.8 263.447 1042.08 263.561 1041.32 263.67C1040.52 263.788 1039.83 264.012 1039.22 264.34C1038.62 264.668 1038.32 265.197 1038.32 265.926C1038.32 266.546 1038.56 267.033 1039.05 267.389C1039.54 267.735 1040.2 267.908 1041.04 267.908ZM1049.55 274.402V267.416H1050.78C1051.2 267.033 1051.54 266.582 1051.8 266.062C1052.07 265.534 1052.28 264.868 1052.45 264.066C1052.61 263.264 1052.75 262.248 1052.86 261.018L1053.33 255.562H1063.64V267.416H1065.98V274.402H1063.15V270H1052.42V274.402H1049.55ZM1053.92 267.416H1060.83V258.119H1055.89L1055.6 261.018C1055.48 262.476 1055.29 263.738 1055.04 264.805C1054.81 265.871 1054.43 266.742 1053.92 267.416ZM1072.37 270.232C1070.93 270.232 1069.73 269.868 1068.78 269.139C1067.84 268.4 1067.36 267.311 1067.36 265.871C1067.36 264.777 1067.63 263.939 1068.17 263.355C1068.71 262.763 1069.42 262.339 1070.29 262.084C1071.16 261.829 1072.09 261.642 1073.06 261.523C1073.96 261.414 1074.68 261.323 1075.21 261.25C1075.74 261.177 1076.11 261.068 1076.33 260.922C1076.56 260.776 1076.67 260.525 1076.67 260.17V260.047C1076.67 259.345 1076.42 258.771 1075.91 258.324C1075.4 257.868 1074.68 257.641 1073.76 257.641C1072.84 257.641 1072.09 257.864 1071.5 258.311C1070.92 258.748 1070.6 259.299 1070.55 259.965H1067.72C1067.78 258.589 1068.36 257.463 1069.45 256.588C1070.55 255.713 1072 255.275 1073.8 255.275C1075.58 255.275 1076.98 255.713 1078 256.588C1079.02 257.463 1079.53 258.634 1079.53 260.102V270H1076.69V267.949H1076.63C1076.33 268.533 1075.85 269.061 1075.2 269.535C1074.55 270 1073.6 270.232 1072.37 270.232ZM1072.95 267.908C1074.23 267.908 1075.17 267.58 1075.77 266.924C1076.38 266.258 1076.69 265.484 1076.69 264.6V262.904C1076.49 263.059 1076.06 263.201 1075.39 263.328C1074.71 263.447 1073.99 263.561 1073.23 263.67C1072.43 263.788 1071.74 264.012 1071.13 264.34C1070.53 264.668 1070.23 265.197 1070.23 265.926C1070.23 266.546 1070.47 267.033 1070.96 267.389C1071.45 267.735 1072.11 267.908 1072.95 267.908ZM1088.89 265.734C1087 265.734 1085.5 265.265 1084.41 264.326C1083.33 263.387 1082.78 261.979 1082.78 260.102V255.562H1085.67V260.047C1085.67 261.132 1085.96 261.92 1086.56 262.412C1087.15 262.904 1087.93 263.15 1088.89 263.15C1089.49 263.15 1090.05 263.114 1090.58 263.041C1091.1 262.968 1091.62 262.863 1092.13 262.727V255.562H1095.02V270H1092.13V265.324C1091.64 265.452 1091.13 265.552 1090.59 265.625C1090.05 265.698 1089.49 265.734 1088.89 265.734ZM1110.96 270H1108.09V259.924H1108.06L1100.99 270H1098.29V255.562H1101.16V265.639H1101.19L1108.24 255.562H1110.96V270Z" fill="#96A2B1"/>
<path d="M663.355 195L724.391 74.6875V74.4922H653.395V49.4922H754.664V74.1992L693.824 195H663.355Z" fill="#96A2B1"/>
<path d="M746.451 157.439C747.24 152.589 748.467 147.636 750.133 142.581C751.827 137.526 753.829 132.661 756.137 127.986C758.446 123.282 760.944 119.074 763.632 115.363H769.198C766.364 119.688 763.793 124.232 761.484 128.994C759.205 133.757 757.262 138.564 755.655 143.414C754.077 148.235 752.908 152.91 752.149 157.439C750.074 169.945 751.258 183.094 755.699 196.886H750.133C747.824 190.779 746.349 184.38 745.706 177.689C745.063 170.968 745.311 164.218 746.451 157.439ZM790.28 185.052C785.634 185.052 781.573 184.044 778.096 182.028C774.619 179.982 771.901 177.148 769.943 173.525C768.015 169.872 767.051 165.665 767.051 160.902C767.051 156.11 768.015 151.902 769.943 148.279C771.901 144.627 774.619 141.778 778.096 139.732C781.573 137.687 785.634 136.664 790.28 136.664C794.342 136.664 797.95 137.453 801.106 139.031C804.291 140.58 806.833 142.742 808.732 145.518C810.661 148.265 811.756 151.435 812.019 155.029H799.528C799.178 152.662 798.213 150.748 796.635 149.287C795.087 147.826 793.027 147.096 790.455 147.096C787.212 147.096 784.67 148.338 782.829 150.821C780.988 153.305 780.068 156.665 780.068 160.902C780.068 165.11 780.988 168.455 782.829 170.939C784.67 173.393 787.212 174.621 790.455 174.621C793.056 174.621 795.101 173.89 796.592 172.429C798.082 170.968 799.031 169.025 799.44 166.6H812.019C811.844 170.165 810.807 173.335 808.908 176.111C807.008 178.887 804.452 181.078 801.237 182.685C798.053 184.263 794.4 185.052 790.28 185.052ZM840.07 185.052C835.395 185.052 831.319 184.015 827.842 181.94C824.394 179.865 821.706 177.017 819.777 173.393C817.878 169.741 816.928 165.577 816.928 160.902C816.928 156.198 817.893 152.019 819.821 148.367C821.779 144.714 824.467 141.851 827.886 139.776C831.304 137.702 835.22 136.664 839.632 136.664C844.19 136.664 848.164 137.687 851.553 139.732C854.972 141.749 857.631 144.568 859.53 148.192C861.459 151.786 862.423 155.935 862.423 160.639V164.102H829.507C829.624 167.52 830.632 170.252 832.532 172.298C834.431 174.343 837.075 175.366 840.465 175.366C842.977 175.366 845.067 174.825 846.732 173.744C848.427 172.663 849.566 171.231 850.151 169.449H861.941C861.386 172.517 860.085 175.22 858.04 177.557C855.995 179.895 853.423 181.735 850.326 183.08C847.229 184.394 843.81 185.052 840.07 185.052ZM829.595 155.862H850.239C849.917 152.969 848.836 150.69 846.995 149.024C845.184 147.33 842.817 146.482 839.895 146.482C837.002 146.482 834.65 147.33 832.838 149.024C831.027 150.69 829.946 152.969 829.595 155.862ZM869.348 184V137.716H882.278V155.905H885.872L900.072 137.716H915.325L897.793 160.288L915.5 184H900.116L887.23 166.687H882.278V184H869.348ZM925.888 184.789C923.842 184.789 922.089 184.073 920.628 182.641C919.196 181.18 918.481 179.413 918.481 177.338C918.481 175.293 919.196 173.539 920.628 172.078C922.089 170.617 923.842 169.887 925.888 169.887C927.962 169.887 929.716 170.617 931.147 172.078C932.608 173.539 933.339 175.293 933.339 177.338C933.339 179.413 932.608 181.18 931.147 182.641C929.716 184.073 927.962 184.789 925.888 184.789ZM933.733 196.886C942.762 183.065 948.299 169.902 950.344 157.396C951.484 150.617 951.776 143.531 951.221 136.139C950.695 128.746 949.366 121.806 947.233 115.32H952.843C954.274 119.06 955.37 123.282 956.13 127.986C956.89 132.661 957.269 137.526 957.269 142.581C957.269 147.636 956.875 152.574 956.086 157.396C954.947 164.204 952.945 170.968 950.081 177.689C947.247 184.38 943.668 190.779 939.343 196.886H933.733Z" fill="#96A2B1"/>
<rect x="20" y="310" width="589" height="282" rx="56" fill="white"/>
<path d="M60.2461 560.328C58.8698 560.328 57.6621 560.009 56.623 559.371C55.584 558.733 54.7728 557.849 54.1895 556.719C53.6152 555.589 53.3281 554.285 53.3281 552.809C53.3281 551.314 53.6152 550.001 54.1895 548.871C54.7728 547.732 55.584 546.843 56.623 546.205C57.6621 545.558 58.8698 545.234 60.2461 545.234C61.6224 545.234 62.8255 545.558 63.8555 546.205C64.8945 546.843 65.7012 547.732 66.2754 548.871C66.8587 550.001 67.1504 551.314 67.1504 552.809C67.1504 554.285 66.8587 555.589 66.2754 556.719C65.7012 557.849 64.8945 558.733 63.8555 559.371C62.8255 560.009 61.6224 560.328 60.2461 560.328ZM60.2461 557.84C61.4857 557.84 62.4609 557.384 63.1719 556.473C63.8828 555.561 64.2383 554.34 64.2383 552.809C64.2383 551.259 63.8783 550.024 63.1582 549.104C62.4473 548.183 61.4766 547.723 60.2461 547.723C59.0156 547.723 58.0404 548.183 57.3203 549.104C56.6094 550.015 56.2539 551.25 56.2539 552.809C56.2539 554.349 56.6094 555.575 57.3203 556.486C58.0312 557.389 59.0065 557.84 60.2461 557.84ZM69.707 560V545.562H72.5918V557.416H79.3457V545.562H82.2305V560H69.707ZM81.2461 564.375V560H80.1797V557.348H84.1582L84.1035 564.375H81.2461ZM92.3887 560.328C90.9577 560.328 89.7272 560.005 88.6973 559.357C87.6764 558.71 86.888 557.822 86.332 556.691C85.7852 555.552 85.5117 554.258 85.5117 552.809C85.5117 551.341 85.7988 550.038 86.373 548.898C86.9473 547.759 87.7402 546.866 88.752 546.219C89.7637 545.562 90.9258 545.234 92.2383 545.234C93.6055 545.234 94.7904 545.553 95.793 546.191C96.8047 546.829 97.5885 547.718 98.1445 548.857C98.7005 549.988 98.9785 551.296 98.9785 552.781V553.561H88.3555C88.4102 554.864 88.7839 555.917 89.4766 556.719C90.1784 557.521 91.1628 557.922 92.4297 557.922C93.3776 557.922 94.1569 557.708 94.7676 557.279C95.3783 556.851 95.7839 556.295 95.9844 555.611H98.7598C98.5866 556.541 98.1992 557.361 97.5977 558.072C97.0052 558.783 96.2578 559.339 95.3555 559.74C94.4622 560.132 93.4733 560.328 92.3887 560.328ZM88.3828 551.373H96.1621C96.0436 550.225 95.638 549.318 94.9453 548.652C94.2526 547.978 93.3594 547.641 92.2656 547.641C91.1719 547.641 90.2786 547.978 89.5859 548.652C88.9023 549.318 88.5013 550.225 88.3828 551.373ZM104.365 545.562V551.482H111.27V545.562H114.154V560H111.27V554.066H104.365V560H101.48V545.562H104.365ZM117.422 560V545.562H120.307V551.605H121.729L126.896 545.562H130.451L124.531 552.562L130.533 560H126.965L122.262 554.189H120.307V560H117.422ZM136.48 560.232C135.04 560.232 133.846 559.868 132.898 559.139C131.951 558.4 131.477 557.311 131.477 555.871C131.477 554.777 131.745 553.939 132.283 553.355C132.83 552.763 133.536 552.339 134.402 552.084C135.277 551.829 136.202 551.642 137.178 551.523C138.08 551.414 138.796 551.323 139.324 551.25C139.853 551.177 140.227 551.068 140.445 550.922C140.673 550.776 140.787 550.525 140.787 550.17V550.047C140.787 549.345 140.532 548.771 140.021 548.324C139.511 547.868 138.796 547.641 137.875 547.641C136.954 547.641 136.202 547.864 135.619 548.311C135.036 548.748 134.717 549.299 134.662 549.965H131.832C131.896 548.589 132.475 547.463 133.568 546.588C134.662 545.713 136.111 545.275 137.916 545.275C139.693 545.275 141.092 545.713 142.113 546.588C143.134 547.463 143.645 548.634 143.645 550.102V560H140.801V557.949H140.746C140.445 558.533 139.967 559.061 139.311 559.535C138.663 560 137.72 560.232 136.48 560.232ZM137.068 557.908C138.344 557.908 139.283 557.58 139.885 556.924C140.495 556.258 140.801 555.484 140.801 554.6V552.904C140.609 553.059 140.176 553.201 139.502 553.328C138.827 553.447 138.107 553.561 137.342 553.67C136.549 553.788 135.852 554.012 135.25 554.34C134.648 554.668 134.348 555.197 134.348 555.926C134.348 556.546 134.589 557.033 135.072 557.389C135.564 557.735 136.23 557.908 137.068 557.908ZM160.092 565.209V560.328C158.679 560.31 157.426 559.982 156.332 559.344C155.247 558.697 154.395 557.812 153.775 556.691C153.165 555.561 152.859 554.262 152.859 552.795C152.859 551.327 153.165 550.029 153.775 548.898C154.395 547.768 155.247 546.88 156.332 546.232C157.426 545.585 158.679 545.253 160.092 545.234V539.629H162.99V545.234C164.403 545.253 165.652 545.585 166.736 546.232C167.83 546.88 168.682 547.768 169.293 548.898C169.913 550.029 170.223 551.327 170.223 552.795C170.223 554.262 169.913 555.561 169.293 556.691C168.682 557.812 167.83 558.697 166.736 559.344C165.652 559.982 164.403 560.31 162.99 560.328V565.209H160.092ZM162.99 557.812C164.303 557.812 165.351 557.361 166.135 556.459C166.919 555.548 167.311 554.331 167.311 552.809C167.311 551.277 166.919 550.051 166.135 549.131C165.351 548.21 164.303 547.75 162.99 547.75V557.812ZM160.092 557.812V547.75C158.779 547.75 157.736 548.21 156.961 549.131C156.186 550.051 155.799 551.277 155.799 552.809C155.799 554.331 156.186 555.548 156.961 556.459C157.736 557.361 158.779 557.812 160.092 557.812ZM172.41 565.715V563.281H173.969C174.424 563.281 174.794 563.149 175.076 562.885C175.368 562.63 175.623 562.206 175.842 561.613L176.498 559.904L170.92 545.562H174.01L176.895 553.479C177.086 554.016 177.273 554.559 177.455 555.105C177.637 555.643 177.815 556.181 177.988 556.719C178.161 556.181 178.339 555.643 178.521 555.105C178.713 554.559 178.904 554.016 179.096 553.479L181.939 545.562H184.988L178.426 562.529C177.615 564.653 176.22 565.715 174.242 565.715H172.41ZM189.842 545.562V551.482H196.746V545.562H199.631V560H196.746V554.066H189.842V560H186.957V545.562H189.842ZM202.898 560V545.562H205.783V551.605H207.205L212.373 545.562H215.928L210.008 552.562L216.01 560H212.441L207.738 554.189H205.783V560H202.898ZM217.555 560V545.562H220.439V557.416H227.193V545.562H230.078V560H217.555ZM229.094 564.375V560H228.027V557.348H232.006L231.951 564.375H229.094ZM246.744 560H243.873V549.924H243.846L236.777 560H234.07V545.562H236.941V555.639H236.969L244.023 545.562H246.744V560ZM262.686 560H259.814V549.924H259.787L252.719 560H250.012V545.562H252.883V555.639H252.91L259.965 545.562H262.686V560ZM285.148 545.562V560H282.264V548.146H275.51V560H272.625V545.562H285.148ZM294.609 560.328C293.233 560.328 292.025 560.009 290.986 559.371C289.947 558.733 289.136 557.849 288.553 556.719C287.979 555.589 287.691 554.285 287.691 552.809C287.691 551.314 287.979 550.001 288.553 548.871C289.136 547.732 289.947 546.843 290.986 546.205C292.025 545.558 293.233 545.234 294.609 545.234C295.986 545.234 297.189 545.558 298.219 546.205C299.258 546.843 300.064 547.732 300.639 548.871C301.222 550.001 301.514 551.314 301.514 552.809C301.514 554.285 301.222 555.589 300.639 556.719C300.064 557.849 299.258 558.733 298.219 559.371C297.189 560.009 295.986 560.328 294.609 560.328ZM294.609 557.84C295.849 557.84 296.824 557.384 297.535 556.473C298.246 555.561 298.602 554.34 298.602 552.809C298.602 551.259 298.242 550.024 297.521 549.104C296.811 548.183 295.84 547.723 294.609 547.723C293.379 547.723 292.404 548.183 291.684 549.104C290.973 550.015 290.617 551.25 290.617 552.809C290.617 554.349 290.973 555.575 291.684 556.486C292.395 557.389 293.37 557.84 294.609 557.84ZM302.662 560V557.457H303.236C303.811 557.457 304.262 557.325 304.59 557.061C304.918 556.796 305.16 556.277 305.314 555.502C305.469 554.718 305.579 553.547 305.643 551.988L305.916 545.562H316.648V560H313.764V548.092H308.678L308.445 552.809C308.318 555.324 307.912 557.152 307.229 558.291C306.545 559.43 305.378 560 303.729 560H302.662ZM322.787 550.389H326.574C328.242 550.389 329.587 550.826 330.607 551.701C331.628 552.576 332.139 553.725 332.139 555.146C332.139 556.596 331.628 557.767 330.607 558.66C329.587 559.553 328.242 560 326.574 560H319.902V545.562H322.787V550.389ZM322.787 552.904V557.471H326.465C327.34 557.471 328.028 557.261 328.529 556.842C329.04 556.423 329.295 555.857 329.295 555.146C329.295 554.454 329.04 553.907 328.529 553.506C328.028 553.105 327.34 552.904 326.465 552.904H322.787ZM339.754 560.219C338.569 560.219 337.544 560.018 336.678 559.617C335.821 559.207 335.156 558.66 334.682 557.977C334.217 557.284 333.98 556.505 333.971 555.639H336.814C336.833 556.331 337.106 556.878 337.635 557.279C338.173 557.671 338.865 557.867 339.713 557.867C340.579 557.867 341.281 557.676 341.818 557.293C342.365 556.901 342.639 556.395 342.639 555.775C342.639 555.137 342.356 554.618 341.791 554.217C341.226 553.807 340.451 553.602 339.467 553.602H338.346V551.564H339.467C340.296 551.564 340.966 551.378 341.477 551.004C341.996 550.63 342.256 550.138 342.256 549.527C342.256 548.926 342.023 548.443 341.559 548.078C341.103 547.714 340.497 547.531 339.74 547.531C338.975 547.531 338.332 547.718 337.812 548.092C337.302 548.456 337.042 548.962 337.033 549.609H334.285C334.294 548.762 334.536 548.01 335.01 547.354C335.484 546.697 336.126 546.182 336.938 545.809C337.758 545.435 338.697 545.248 339.754 545.248C340.793 545.248 341.704 545.43 342.488 545.795C343.281 546.15 343.896 546.633 344.334 547.244C344.781 547.846 345.004 548.525 345.004 549.281C345.004 550.092 344.744 550.785 344.225 551.359C343.714 551.924 343.021 552.294 342.146 552.467V552.494C343.222 552.631 344.056 553.018 344.648 553.656C345.241 554.294 345.537 555.06 345.537 555.953C345.537 556.773 345.286 557.507 344.785 558.154C344.293 558.792 343.609 559.298 342.734 559.672C341.868 560.036 340.875 560.219 339.754 560.219ZM354.219 560.328C352.842 560.328 351.635 560.009 350.596 559.371C349.557 558.733 348.745 557.849 348.162 556.719C347.588 555.589 347.301 554.285 347.301 552.809C347.301 551.314 347.588 550.001 348.162 548.871C348.745 547.732 349.557 546.843 350.596 546.205C351.635 545.558 352.842 545.234 354.219 545.234C355.595 545.234 356.798 545.558 357.828 546.205C358.867 546.843 359.674 547.732 360.248 548.871C360.831 550.001 361.123 551.314 361.123 552.809C361.123 554.285 360.831 555.589 360.248 556.719C359.674 557.849 358.867 558.733 357.828 559.371C356.798 560.009 355.595 560.328 354.219 560.328ZM354.219 557.84C355.458 557.84 356.434 557.384 357.145 556.473C357.855 555.561 358.211 554.34 358.211 552.809C358.211 551.259 357.851 550.024 357.131 549.104C356.42 548.183 355.449 547.723 354.219 547.723C352.988 547.723 352.013 548.183 351.293 549.104C350.582 550.015 350.227 551.25 350.227 552.809C350.227 554.349 350.582 555.575 351.293 556.486C352.004 557.389 352.979 557.84 354.219 557.84ZM363.68 560V545.562H369.805C371.527 545.562 372.89 545.886 373.893 546.533C374.895 547.18 375.396 548.133 375.396 549.391C375.396 550.238 375.155 550.917 374.672 551.428C374.198 551.929 373.533 552.257 372.676 552.412C373.615 552.531 374.394 552.882 375.014 553.465C375.643 554.039 375.957 554.855 375.957 555.912C375.957 557.152 375.51 558.145 374.617 558.893C373.724 559.631 372.448 560 370.789 560H363.68ZM366.414 557.539H370.721C371.477 557.539 372.061 557.38 372.471 557.061C372.881 556.742 373.086 556.286 373.086 555.693C373.086 555.037 372.881 554.531 372.471 554.176C372.061 553.82 371.477 553.643 370.721 553.643H366.414V557.539ZM366.414 551.551H369.928C370.766 551.551 371.413 551.391 371.869 551.072C372.325 550.744 372.553 550.284 372.553 549.691C372.553 549.145 372.311 548.725 371.828 548.434C371.354 548.133 370.68 547.982 369.805 547.982H366.414V551.551ZM382.902 560.232C381.462 560.232 380.268 559.868 379.32 559.139C378.372 558.4 377.898 557.311 377.898 555.871C377.898 554.777 378.167 553.939 378.705 553.355C379.252 552.763 379.958 552.339 380.824 552.084C381.699 551.829 382.624 551.642 383.6 551.523C384.502 551.414 385.217 551.323 385.746 551.25C386.275 551.177 386.648 551.068 386.867 550.922C387.095 550.776 387.209 550.525 387.209 550.17V550.047C387.209 549.345 386.954 548.771 386.443 548.324C385.933 547.868 385.217 547.641 384.297 547.641C383.376 547.641 382.624 547.864 382.041 548.311C381.458 548.748 381.139 549.299 381.084 549.965H378.254C378.318 548.589 378.896 547.463 379.99 546.588C381.084 545.713 382.533 545.275 384.338 545.275C386.115 545.275 387.514 545.713 388.535 546.588C389.556 547.463 390.066 548.634 390.066 550.102V560H387.223V557.949H387.168C386.867 558.533 386.389 559.061 385.732 559.535C385.085 560 384.142 560.232 382.902 560.232ZM383.49 557.908C384.766 557.908 385.705 557.58 386.307 556.924C386.917 556.258 387.223 555.484 387.223 554.6V552.904C387.031 553.059 386.598 553.201 385.924 553.328C385.249 553.447 384.529 553.561 383.764 553.67C382.971 553.788 382.273 554.012 381.672 554.34C381.07 554.668 380.77 555.197 380.77 555.926C380.77 556.546 381.011 557.033 381.494 557.389C381.986 557.735 382.652 557.908 383.49 557.908ZM396.889 560V548.078H391.912V545.562H404.736V548.078H399.773V560H396.889ZM412.529 560.328C411.098 560.328 409.868 560.005 408.838 559.357C407.817 558.71 407.029 557.822 406.473 556.691C405.926 555.552 405.652 554.258 405.652 552.809C405.652 551.341 405.939 550.038 406.514 548.898C407.088 547.759 407.881 546.866 408.893 546.219C409.904 545.562 411.066 545.234 412.379 545.234C413.746 545.234 414.931 545.553 415.934 546.191C416.945 546.829 417.729 547.718 418.285 548.857C418.841 549.988 419.119 551.296 419.119 552.781V553.561H408.496C408.551 554.864 408.924 555.917 409.617 556.719C410.319 557.521 411.303 557.922 412.57 557.922C413.518 557.922 414.298 557.708 414.908 557.279C415.519 556.851 415.924 556.295 416.125 555.611H418.9C418.727 556.541 418.34 557.361 417.738 558.072C417.146 558.783 416.398 559.339 415.496 559.74C414.603 560.132 413.614 560.328 412.529 560.328ZM408.523 551.373H416.303C416.184 550.225 415.779 549.318 415.086 548.652C414.393 547.978 413.5 547.641 412.406 547.641C411.312 547.641 410.419 547.978 409.727 548.652C409.043 549.318 408.642 550.225 408.523 551.373ZM420.213 560V557.457H420.787C421.361 557.457 421.812 557.325 422.141 557.061C422.469 556.796 422.71 556.277 422.865 555.502C423.02 554.718 423.13 553.547 423.193 551.988L423.467 545.562H434.199V560H431.314V548.092H426.229L425.996 552.809C425.868 555.324 425.463 557.152 424.779 558.291C424.096 559.43 422.929 560 421.279 560H420.213ZM449.143 560H446.312V554.805H442.717L439.354 560H436.1L439.805 554.408C438.829 554.08 438.077 553.565 437.549 552.863C437.029 552.161 436.77 551.291 436.77 550.252C436.77 548.757 437.266 547.604 438.26 546.793C439.262 545.973 440.671 545.562 442.484 545.562H449.143V560ZM446.312 552.535V547.982H442.799C441.696 547.982 440.889 548.165 440.379 548.529C439.868 548.894 439.613 549.473 439.613 550.266C439.613 551.068 439.878 551.646 440.406 552.002C440.935 552.357 441.76 552.535 442.881 552.535H446.312ZM452.41 560V545.562H456.744L460.012 553.342C460.249 553.943 460.463 554.531 460.654 555.105C460.846 555.671 461.037 556.217 461.229 556.746C461.411 556.217 461.598 555.671 461.789 555.105C461.98 554.531 462.195 553.943 462.432 553.342L465.672 545.562H470.006V560H467.148V553.342C467.148 552.33 467.153 551.451 467.162 550.703C467.171 549.947 467.18 549.199 467.189 548.461C466.898 549.227 466.602 550.006 466.301 550.799C466.009 551.583 465.681 552.426 465.316 553.328L462.445 560H459.971L457.086 553.328C456.721 552.453 456.389 551.633 456.088 550.867C455.796 550.092 455.509 549.336 455.227 548.598C455.236 549.309 455.245 550.033 455.254 550.771C455.263 551.501 455.268 552.357 455.268 553.342V560H452.41ZM485.947 560H483.076V549.924H483.049L475.98 560H473.273V545.562H476.145V555.639H476.172L483.227 545.562H485.947V560Z" fill="#96A2B1"/>
<path d="M57.6641 453.652V430.41L121.727 339.492H158.543V430.312H177.586V453.652H158.543V485H130.32V453.652H57.6641ZM130.32 430.312V368.203H130.125L86.668 430.117V430.312H130.32ZM195.023 486.758C190.466 486.758 186.56 485.163 183.305 481.973C180.115 478.717 178.52 474.779 178.52 470.156C178.52 465.599 180.115 461.693 183.305 458.437C186.56 455.182 190.466 453.555 195.023 453.555C199.646 453.555 203.552 455.182 206.742 458.437C209.997 461.693 211.625 465.599 211.625 470.156C211.625 474.779 209.997 478.717 206.742 481.973C203.552 485.163 199.646 486.758 195.023 486.758ZM221.934 485L282.969 364.687V364.492H211.973V339.492H313.242V364.199L252.402 485H221.934Z" fill="#96A2B1"/>
<path d="M297.451 452.439C298.24 447.589 299.467 442.636 301.133 437.581C302.827 432.526 304.829 427.661 307.137 422.986C309.446 418.282 311.944 414.074 314.632 410.363H320.198C317.364 414.688 314.793 419.232 312.484 423.994C310.205 428.757 308.262 433.564 306.655 438.414C305.077 443.235 303.908 447.91 303.149 452.439C301.074 464.945 302.258 478.094 306.699 491.886H301.133C298.824 485.779 297.349 479.38 296.706 472.689C296.063 465.968 296.311 459.218 297.451 452.439ZM364.553 479H351.843V451.125H351.755L331.199 479H320.067V432.716H332.777V460.504H332.865L353.246 432.716H364.553V479ZM391.333 479.701C387.155 479.701 383.59 479 380.639 477.597C377.688 476.166 375.423 474.266 373.845 471.9C372.297 469.533 371.522 466.903 371.522 464.01H384.014C384.043 465.734 384.715 467.108 386.03 468.13C387.374 469.153 389.112 469.664 391.245 469.664C393.349 469.664 395.059 469.197 396.373 468.262C397.718 467.298 398.39 466.056 398.39 464.536C398.39 462.988 397.674 461.717 396.242 460.723C394.81 459.73 392.882 459.233 390.457 459.233H386.687V451.475H390.457C392.59 451.475 394.314 451.008 395.628 450.073C396.972 449.138 397.645 447.896 397.645 446.347C397.645 444.886 397.06 443.703 395.891 442.797C394.752 441.891 393.247 441.438 391.377 441.438C389.419 441.438 387.798 441.906 386.512 442.841C385.255 443.747 384.613 444.974 384.583 446.523H372.443C372.472 443.688 373.276 441.161 374.853 438.94C376.46 436.69 378.681 434.937 381.515 433.681C384.35 432.395 387.651 431.752 391.421 431.752C395.015 431.752 398.185 432.337 400.932 433.505C403.708 434.645 405.87 436.223 407.418 438.239C408.967 440.226 409.741 442.49 409.741 445.032C409.741 447.691 408.836 449.897 407.024 451.651C405.212 453.375 402.875 454.412 400.011 454.762V454.85C403.751 455.23 406.586 456.428 408.514 458.444C410.472 460.46 411.451 462.885 411.451 465.72C411.451 468.408 410.589 470.819 408.865 472.952C407.17 475.055 404.803 476.706 401.764 477.904C398.755 479.102 395.278 479.701 391.333 479.701ZM459.663 479.964C455.017 479.964 450.912 479.088 447.347 477.334C443.782 475.581 440.948 473.127 438.844 469.971C436.74 466.815 435.571 463.134 435.338 458.926H448.048C448.223 461.994 449.407 464.522 451.598 466.509C453.79 468.496 456.507 469.489 459.751 469.489C463.14 469.489 465.887 468.364 467.99 466.114C470.094 463.835 471.146 460.913 471.146 457.348C471.146 453.754 470.109 450.803 468.034 448.495C465.96 446.187 463.286 445.032 460.014 445.032C457.15 445.032 454.696 445.646 452.65 446.873C450.634 448.071 449.261 449.751 448.53 451.914H436.214L438.23 413.694H480.043V424.608H450.152L448.969 440.036H449.056C452.387 436.588 456.814 434.864 462.336 434.864C466.281 434.864 469.875 435.828 473.118 437.757C476.391 439.685 478.992 442.33 480.92 445.69C482.878 449.021 483.857 452.79 483.857 456.998C483.857 461.468 482.849 465.442 480.832 468.919C478.845 472.367 476.04 475.07 472.417 477.028C468.794 478.985 464.543 479.964 459.663 479.964ZM483.418 491.886C492.447 478.065 497.984 464.902 500.03 452.396C501.169 445.617 501.461 438.531 500.906 431.139C500.38 423.746 499.051 416.806 496.918 410.32H502.528C503.96 414.06 505.055 418.282 505.815 422.986C506.575 427.661 506.955 432.526 506.955 437.581C506.955 442.636 506.56 447.574 505.771 452.396C504.632 459.204 502.63 465.968 499.767 472.689C496.932 479.38 493.353 485.779 489.028 491.886H483.418Z" fill="#96A2B1"/>
<rect x="617" y="310" width="589" height="282" rx="56" fill="white"/>
<path d="M657.262 560.328C655.885 560.328 654.678 560.009 653.639 559.371C652.6 558.733 651.788 557.849 651.205 556.719C650.631 555.589 650.344 554.285 650.344 552.809C650.344 551.314 650.631 550.001 651.205 548.871C651.788 547.732 652.6 546.843 653.639 546.205C654.678 545.558 655.885 545.234 657.262 545.234C658.638 545.234 659.841 545.558 660.871 546.205C661.91 546.843 662.717 547.732 663.291 548.871C663.874 550.001 664.166 551.314 664.166 552.809C664.166 554.285 663.874 555.589 663.291 556.719C662.717 557.849 661.91 558.733 660.871 559.371C659.841 560.009 658.638 560.328 657.262 560.328ZM657.262 557.84C658.501 557.84 659.477 557.384 660.188 556.473C660.898 555.561 661.254 554.34 661.254 552.809C661.254 551.259 660.894 550.024 660.174 549.104C659.463 548.183 658.492 547.723 657.262 547.723C656.031 547.723 655.056 548.183 654.336 549.104C653.625 550.015 653.27 551.25 653.27 552.809C653.27 554.349 653.625 555.575 654.336 556.486C655.047 557.389 656.022 557.84 657.262 557.84ZM666.723 545.562H669.607V557.416H674.898V545.562H677.742V557.416H683.02V545.562H685.918V560H666.723V545.562ZM701.846 560H698.975V549.924H698.947L691.879 560H689.172V545.562H692.043V555.639H692.07L699.125 545.562H701.846V560ZM716.83 539.041L718.061 540.859C717.377 541.497 716.543 541.871 715.559 541.98C714.574 542.09 713.353 542.163 711.895 542.199C710.254 542.254 709.037 542.769 708.244 543.744C707.46 544.719 706.986 546.182 706.822 548.133H707.014C707.506 547.185 708.194 546.479 709.078 546.014C709.971 545.54 710.969 545.303 712.072 545.303C713.294 545.303 714.383 545.585 715.34 546.15C716.306 546.706 717.062 547.527 717.609 548.611C718.165 549.696 718.443 551.022 718.443 552.59C718.443 554.176 718.156 555.548 717.582 556.705C717.008 557.863 716.197 558.756 715.148 559.385C714.1 560.005 712.87 560.314 711.457 560.314C709.324 560.314 707.615 559.59 706.33 558.141C705.045 556.682 704.402 554.545 704.402 551.729V550.225C704.421 543.261 706.895 539.729 711.826 539.629C712.1 539.62 712.364 539.615 712.619 539.615C712.874 539.615 713.12 539.615 713.357 539.615C714.15 539.624 714.834 539.606 715.408 539.561C715.982 539.506 716.456 539.333 716.83 539.041ZM711.471 557.867C712.719 557.858 713.704 557.384 714.424 556.445C715.144 555.507 715.504 554.235 715.504 552.631C715.504 551.072 715.139 549.869 714.41 549.021C713.69 548.165 712.692 547.736 711.416 547.736C710.176 547.736 709.192 548.165 708.463 549.021C707.743 549.869 707.374 551.072 707.355 552.631C707.355 554.217 707.72 555.484 708.449 556.432C709.178 557.38 710.186 557.858 711.471 557.867ZM727.207 560.328C725.831 560.328 724.623 560.009 723.584 559.371C722.545 558.733 721.734 557.849 721.15 556.719C720.576 555.589 720.289 554.285 720.289 552.809C720.289 551.314 720.576 550.001 721.15 548.871C721.734 547.732 722.545 546.843 723.584 546.205C724.623 545.558 725.831 545.234 727.207 545.234C728.583 545.234 729.786 545.558 730.816 546.205C731.855 546.843 732.662 547.732 733.236 548.871C733.82 550.001 734.111 551.314 734.111 552.809C734.111 554.285 733.82 555.589 733.236 556.719C732.662 557.849 731.855 558.733 730.816 559.371C729.786 560.009 728.583 560.328 727.207 560.328ZM727.207 557.84C728.447 557.84 729.422 557.384 730.133 556.473C730.844 555.561 731.199 554.34 731.199 552.809C731.199 551.259 730.839 550.024 730.119 549.104C729.408 548.183 728.438 547.723 727.207 547.723C725.977 547.723 725.001 548.183 724.281 549.104C723.57 550.015 723.215 551.25 723.215 552.809C723.215 554.349 723.57 555.575 724.281 556.486C724.992 557.389 725.967 557.84 727.207 557.84ZM736.668 560V545.562H739.553V551.605H740.975L746.143 545.562H749.697L743.777 552.562L749.779 560H746.211L741.508 554.189H739.553V560H736.668ZM764.176 560.328C762.799 560.328 761.592 560.009 760.553 559.371C759.523 558.733 758.721 557.849 758.146 556.719C757.572 555.579 757.285 554.276 757.285 552.809C757.285 551.323 757.572 550.01 758.146 548.871C758.73 547.732 759.536 546.843 760.566 546.205C761.596 545.558 762.799 545.234 764.176 545.234C765.324 545.234 766.35 545.462 767.252 545.918C768.163 546.365 768.902 546.984 769.467 547.777C770.032 548.57 770.374 549.477 770.492 550.498H767.621C767.475 549.687 767.111 549.021 766.527 548.502C765.944 547.982 765.165 547.723 764.189 547.723C762.941 547.723 761.965 548.183 761.264 549.104C760.562 550.024 760.211 551.259 760.211 552.809C760.211 554.34 760.562 555.561 761.264 556.473C761.965 557.384 762.941 557.84 764.189 557.84C765.183 557.84 765.949 557.589 766.486 557.088C767.024 556.577 767.389 555.898 767.58 555.051H770.492C770.383 556.053 770.046 556.956 769.48 557.758C768.915 558.551 768.177 559.18 767.266 559.645C766.354 560.1 765.324 560.328 764.176 560.328ZM779.16 560.328C777.784 560.328 776.576 560.009 775.537 559.371C774.498 558.733 773.687 557.849 773.104 556.719C772.529 555.589 772.242 554.285 772.242 552.809C772.242 551.314 772.529 550.001 773.104 548.871C773.687 547.732 774.498 546.843 775.537 546.205C776.576 545.558 777.784 545.234 779.16 545.234C780.536 545.234 781.74 545.558 782.77 546.205C783.809 546.843 784.615 547.732 785.189 548.871C785.773 550.001 786.064 551.314 786.064 552.809C786.064 554.285 785.773 555.589 785.189 556.719C784.615 557.849 783.809 558.733 782.77 559.371C781.74 560.009 780.536 560.328 779.16 560.328ZM779.16 557.84C780.4 557.84 781.375 557.384 782.086 556.473C782.797 555.561 783.152 554.34 783.152 552.809C783.152 551.259 782.792 550.024 782.072 549.104C781.361 548.183 780.391 547.723 779.16 547.723C777.93 547.723 776.954 548.183 776.234 549.104C775.523 550.015 775.168 551.25 775.168 552.809C775.168 554.349 775.523 555.575 776.234 556.486C776.945 557.389 777.921 557.84 779.16 557.84ZM788.621 560V545.562H794.746C796.469 545.562 797.831 545.886 798.834 546.533C799.837 547.18 800.338 548.133 800.338 549.391C800.338 550.238 800.096 550.917 799.613 551.428C799.139 551.929 798.474 552.257 797.617 552.412C798.556 552.531 799.335 552.882 799.955 553.465C800.584 554.039 800.898 554.855 800.898 555.912C800.898 557.152 800.452 558.145 799.559 558.893C798.665 559.631 797.389 560 795.73 560H788.621ZM791.355 557.539H795.662C796.419 557.539 797.002 557.38 797.412 557.061C797.822 556.742 798.027 556.286 798.027 555.693C798.027 555.037 797.822 554.531 797.412 554.176C797.002 553.82 796.419 553.643 795.662 553.643H791.355V557.539ZM791.355 551.551H794.869C795.708 551.551 796.355 551.391 796.811 551.072C797.266 550.744 797.494 550.284 797.494 549.691C797.494 549.145 797.253 548.725 796.77 548.434C796.296 548.133 795.621 547.982 794.746 547.982H791.355V551.551ZM809.607 560.328C808.176 560.328 806.946 560.005 805.916 559.357C804.895 558.71 804.107 557.822 803.551 556.691C803.004 555.552 802.73 554.258 802.73 552.809C802.73 551.341 803.018 550.038 803.592 548.898C804.166 547.759 804.959 546.866 805.971 546.219C806.982 545.562 808.145 545.234 809.457 545.234C810.824 545.234 812.009 545.553 813.012 546.191C814.023 546.829 814.807 547.718 815.363 548.857C815.919 549.988 816.197 551.296 816.197 552.781V553.561H805.574C805.629 554.864 806.003 555.917 806.695 556.719C807.397 557.521 808.382 557.922 809.648 557.922C810.596 557.922 811.376 557.708 811.986 557.279C812.597 556.851 813.003 556.295 813.203 555.611H815.979C815.805 556.541 815.418 557.361 814.816 558.072C814.224 558.783 813.477 559.339 812.574 559.74C811.681 560.132 810.692 560.328 809.607 560.328ZM805.602 551.373H813.381C813.262 550.225 812.857 549.318 812.164 548.652C811.471 547.978 810.578 547.641 809.484 547.641C808.391 547.641 807.497 547.978 806.805 548.652C806.121 549.318 805.72 550.225 805.602 551.373ZM818.699 565.715V545.562H821.529V547.641H821.57C822.026 546.848 822.65 546.255 823.443 545.863C824.236 545.471 825.102 545.275 826.041 545.275C827.281 545.275 828.37 545.594 829.309 546.232C830.247 546.861 830.977 547.741 831.496 548.871C832.025 549.992 832.289 551.296 832.289 552.781C832.289 554.267 832.029 555.575 831.51 556.705C830.99 557.826 830.261 558.706 829.322 559.344C828.383 559.973 827.285 560.287 826.027 560.287C825.089 560.287 824.241 560.082 823.484 559.672C822.728 559.262 822.108 558.646 821.625 557.826H821.584V565.715H818.699ZM825.439 557.799C826.606 557.799 827.549 557.37 828.27 556.514C828.999 555.657 829.363 554.413 829.363 552.781C829.363 551.15 828.999 549.906 828.27 549.049C827.549 548.183 826.606 547.75 825.439 547.75C824.209 547.75 823.225 548.21 822.486 549.131C821.757 550.042 821.393 551.259 821.393 552.781C821.393 554.294 821.757 555.511 822.486 556.432C823.225 557.343 824.209 557.799 825.439 557.799ZM834.832 545.562H837.717V557.416H843.008V545.562H845.852V557.416H851.129V545.562H854.027V560H834.832V545.562ZM861.684 560.232C860.243 560.232 859.049 559.868 858.102 559.139C857.154 558.4 856.68 557.311 856.68 555.871C856.68 554.777 856.949 553.939 857.486 553.355C858.033 552.763 858.74 552.339 859.605 552.084C860.48 551.829 861.406 551.642 862.381 551.523C863.283 551.414 863.999 551.323 864.527 551.25C865.056 551.177 865.43 551.068 865.648 550.922C865.876 550.776 865.99 550.525 865.99 550.17V550.047C865.99 549.345 865.735 548.771 865.225 548.324C864.714 547.868 863.999 547.641 863.078 547.641C862.158 547.641 861.406 547.864 860.822 548.311C860.239 548.748 859.92 549.299 859.865 549.965H857.035C857.099 548.589 857.678 547.463 858.771 546.588C859.865 545.713 861.314 545.275 863.119 545.275C864.896 545.275 866.296 545.713 867.316 546.588C868.337 547.463 868.848 548.634 868.848 550.102V560H866.004V557.949H865.949C865.648 558.533 865.17 559.061 864.514 559.535C863.867 560 862.923 560.232 861.684 560.232ZM862.271 557.908C863.548 557.908 864.486 557.58 865.088 556.924C865.699 556.258 866.004 555.484 866.004 554.6V552.904C865.812 553.059 865.38 553.201 864.705 553.328C864.031 553.447 863.311 553.561 862.545 553.67C861.752 553.788 861.055 554.012 860.453 554.34C859.852 554.668 859.551 555.197 859.551 555.926C859.551 556.546 859.792 557.033 860.275 557.389C860.768 557.735 861.433 557.908 862.271 557.908ZM872.102 560V545.562H874.986V551.482H878.213C878.377 550.234 878.76 549.145 879.361 548.215C879.972 547.276 880.76 546.547 881.727 546.027C882.693 545.499 883.796 545.234 885.035 545.234C886.411 545.234 887.619 545.558 888.658 546.205C889.697 546.843 890.504 547.732 891.078 548.871C891.652 550.001 891.939 551.314 891.939 552.809C891.939 554.285 891.652 555.589 891.078 556.719C890.504 557.849 889.697 558.733 888.658 559.371C887.619 560.009 886.411 560.328 885.035 560.328C883.796 560.328 882.688 560.068 881.713 559.549C880.747 559.02 879.958 558.286 879.348 557.348C878.746 556.409 878.363 555.315 878.199 554.066H874.986V560H872.102ZM885.035 557.84C886.275 557.84 887.25 557.384 887.961 556.473C888.672 555.561 889.027 554.34 889.027 552.809C889.027 551.259 888.667 550.024 887.947 549.104C887.236 548.183 886.266 547.723 885.035 547.723C883.805 547.723 882.829 548.183 882.109 549.104C881.398 550.015 881.043 551.25 881.043 552.809C881.043 554.349 881.398 555.575 882.109 556.486C882.82 557.389 883.796 557.84 885.035 557.84ZM898.064 560V548.078H893.088V545.562H905.912V548.078H900.949V560H898.064ZM926.953 545.562V560H924.068V548.146H917.314V560H914.43V545.562H926.953ZM936.414 560.328C935.038 560.328 933.83 560.009 932.791 559.371C931.752 558.733 930.941 557.849 930.357 556.719C929.783 555.589 929.496 554.285 929.496 552.809C929.496 551.314 929.783 550.001 930.357 548.871C930.941 547.732 931.752 546.843 932.791 546.205C933.83 545.558 935.038 545.234 936.414 545.234C937.79 545.234 938.993 545.558 940.023 546.205C941.062 546.843 941.869 547.732 942.443 548.871C943.027 550.001 943.318 551.314 943.318 552.809C943.318 554.285 943.027 555.589 942.443 556.719C941.869 557.849 941.062 558.733 940.023 559.371C938.993 560.009 937.79 560.328 936.414 560.328ZM936.414 557.84C937.654 557.84 938.629 557.384 939.34 556.473C940.051 555.561 940.406 554.34 940.406 552.809C940.406 551.259 940.046 550.024 939.326 549.104C938.615 548.183 937.645 547.723 936.414 547.723C935.184 547.723 934.208 548.183 933.488 549.104C932.777 550.015 932.422 551.25 932.422 552.809C932.422 554.349 932.777 555.575 933.488 556.486C934.199 557.389 935.174 557.84 936.414 557.84ZM944.467 560V557.457H945.041C945.615 557.457 946.066 557.325 946.395 557.061C946.723 556.796 946.964 556.277 947.119 555.502C947.274 554.718 947.383 553.547 947.447 551.988L947.721 545.562H958.453V560H955.568V548.092H950.482L950.25 552.809C950.122 555.324 949.717 557.152 949.033 558.291C948.35 559.43 947.183 560 945.533 560H944.467ZM964.592 550.389H968.379C970.047 550.389 971.391 550.826 972.412 551.701C973.433 552.576 973.943 553.725 973.943 555.146C973.943 556.596 973.433 557.767 972.412 558.66C971.391 559.553 970.047 560 968.379 560H961.707V545.562H964.592V550.389ZM964.592 552.904V557.471H968.27C969.145 557.471 969.833 557.261 970.334 556.842C970.844 556.423 971.1 555.857 971.1 555.146C971.1 554.454 970.844 553.907 970.334 553.506C969.833 553.105 969.145 552.904 968.27 552.904H964.592ZM981.559 560.219C980.374 560.219 979.348 560.018 978.482 559.617C977.626 559.207 976.96 558.66 976.486 557.977C976.021 557.284 975.785 556.505 975.775 555.639H978.619C978.637 556.331 978.911 556.878 979.439 557.279C979.977 557.671 980.67 557.867 981.518 557.867C982.383 557.867 983.085 557.676 983.623 557.293C984.17 556.901 984.443 556.395 984.443 555.775C984.443 555.137 984.161 554.618 983.596 554.217C983.031 553.807 982.256 553.602 981.271 553.602H980.15V551.564H981.271C982.101 551.564 982.771 551.378 983.281 551.004C983.801 550.63 984.061 550.138 984.061 549.527C984.061 548.926 983.828 548.443 983.363 548.078C982.908 547.714 982.301 547.531 981.545 547.531C980.779 547.531 980.137 547.718 979.617 548.092C979.107 548.456 978.847 548.962 978.838 549.609H976.09C976.099 548.762 976.34 548.01 976.814 547.354C977.288 546.697 977.931 546.182 978.742 545.809C979.562 545.435 980.501 545.248 981.559 545.248C982.598 545.248 983.509 545.43 984.293 545.795C985.086 546.15 985.701 546.633 986.139 547.244C986.585 547.846 986.809 548.525 986.809 549.281C986.809 550.092 986.549 550.785 986.029 551.359C985.519 551.924 984.826 552.294 983.951 552.467V552.494C985.027 552.631 985.861 553.018 986.453 553.656C987.046 554.294 987.342 555.06 987.342 555.953C987.342 556.773 987.091 557.507 986.59 558.154C986.098 558.792 985.414 559.298 984.539 559.672C983.673 560.036 982.68 560.219 981.559 560.219ZM996.023 560.328C994.647 560.328 993.439 560.009 992.4 559.371C991.361 558.733 990.55 557.849 989.967 556.719C989.393 555.589 989.105 554.285 989.105 552.809C989.105 551.314 989.393 550.001 989.967 548.871C990.55 547.732 991.361 546.843 992.4 546.205C993.439 545.558 994.647 545.234 996.023 545.234C997.4 545.234 998.603 545.558 999.633 546.205C1000.67 546.843 1001.48 547.732 1002.05 548.871C1002.64 550.001 1002.93 551.314 1002.93 552.809C1002.93 554.285 1002.64 555.589 1002.05 556.719C1001.48 557.849 1000.67 558.733 999.633 559.371C998.603 560.009 997.4 560.328 996.023 560.328ZM996.023 557.84C997.263 557.84 998.238 557.384 998.949 556.473C999.66 555.561 1000.02 554.34 1000.02 552.809C1000.02 551.259 999.656 550.024 998.936 549.104C998.225 548.183 997.254 547.723 996.023 547.723C994.793 547.723 993.818 548.183 993.098 549.104C992.387 550.015 992.031 551.25 992.031 552.809C992.031 554.349 992.387 555.575 993.098 556.486C993.809 557.389 994.784 557.84 996.023 557.84ZM1005.48 560V545.562H1011.61C1013.33 545.562 1014.69 545.886 1015.7 546.533C1016.7 547.18 1017.2 548.133 1017.2 549.391C1017.2 550.238 1016.96 550.917 1016.48 551.428C1016 551.929 1015.34 552.257 1014.48 552.412C1015.42 552.531 1016.2 552.882 1016.82 553.465C1017.45 554.039 1017.76 554.855 1017.76 555.912C1017.76 557.152 1017.32 558.145 1016.42 558.893C1015.53 559.631 1014.25 560 1012.59 560H1005.48ZM1008.22 557.539H1012.53C1013.28 557.539 1013.87 557.38 1014.28 557.061C1014.69 556.742 1014.89 556.286 1014.89 555.693C1014.89 555.037 1014.69 554.531 1014.28 554.176C1013.87 553.82 1013.28 553.643 1012.53 553.643H1008.22V557.539ZM1008.22 551.551H1011.73C1012.57 551.551 1013.22 551.391 1013.67 551.072C1014.13 550.744 1014.36 550.284 1014.36 549.691C1014.36 549.145 1014.12 548.725 1013.63 548.434C1013.16 548.133 1012.48 547.982 1011.61 547.982H1008.22V551.551ZM1024.71 560.232C1023.27 560.232 1022.07 559.868 1021.12 559.139C1020.18 558.4 1019.7 557.311 1019.7 555.871C1019.7 554.777 1019.97 553.939 1020.51 553.355C1021.06 552.763 1021.76 552.339 1022.63 552.084C1023.5 551.829 1024.43 551.642 1025.4 551.523C1026.31 551.414 1027.02 551.323 1027.55 551.25C1028.08 551.177 1028.45 551.068 1028.67 550.922C1028.9 550.776 1029.01 550.525 1029.01 550.17V550.047C1029.01 549.345 1028.76 548.771 1028.25 548.324C1027.74 547.868 1027.02 547.641 1026.1 547.641C1025.18 547.641 1024.43 547.864 1023.85 548.311C1023.26 548.748 1022.94 549.299 1022.89 549.965H1020.06C1020.12 548.589 1020.7 547.463 1021.79 546.588C1022.89 545.713 1024.34 545.275 1026.14 545.275C1027.92 545.275 1029.32 545.713 1030.34 546.588C1031.36 547.463 1031.87 548.634 1031.87 550.102V560H1029.03V557.949H1028.97C1028.67 558.533 1028.19 559.061 1027.54 559.535C1026.89 560 1025.95 560.232 1024.71 560.232ZM1025.29 557.908C1026.57 557.908 1027.51 557.58 1028.11 556.924C1028.72 556.258 1029.03 555.484 1029.03 554.6V552.904C1028.84 553.059 1028.4 553.201 1027.73 553.328C1027.05 553.447 1026.33 553.561 1025.57 553.67C1024.78 553.788 1024.08 554.012 1023.48 554.34C1022.88 554.668 1022.57 555.197 1022.57 555.926C1022.57 556.546 1022.82 557.033 1023.3 557.389C1023.79 557.735 1024.46 557.908 1025.29 557.908ZM1038.69 560V548.078H1033.72V545.562H1046.54V548.078H1041.58V560H1038.69ZM1054.33 560.328C1052.9 560.328 1051.67 560.005 1050.64 559.357C1049.62 558.71 1048.83 557.822 1048.28 556.691C1047.73 555.552 1047.46 554.258 1047.46 552.809C1047.46 551.341 1047.74 550.038 1048.32 548.898C1048.89 547.759 1049.69 546.866 1050.7 546.219C1051.71 545.562 1052.87 545.234 1054.18 545.234C1055.55 545.234 1056.74 545.553 1057.74 546.191C1058.75 546.829 1059.53 547.718 1060.09 548.857C1060.65 549.988 1060.92 551.296 1060.92 552.781V553.561H1050.3C1050.36 554.864 1050.73 555.917 1051.42 556.719C1052.12 557.521 1053.11 557.922 1054.38 557.922C1055.32 557.922 1056.1 557.708 1056.71 557.279C1057.32 556.851 1057.73 556.295 1057.93 555.611H1060.71C1060.53 556.541 1060.14 557.361 1059.54 558.072C1058.95 558.783 1058.2 559.339 1057.3 559.74C1056.41 560.132 1055.42 560.328 1054.33 560.328ZM1050.33 551.373H1058.11C1057.99 550.225 1057.58 549.318 1056.89 548.652C1056.2 547.978 1055.3 547.641 1054.21 547.641C1053.12 547.641 1052.22 547.978 1051.53 548.652C1050.85 549.318 1050.45 550.225 1050.33 551.373ZM1062.02 560V557.457H1062.59C1063.17 557.457 1063.62 557.325 1063.95 557.061C1064.27 556.796 1064.51 556.277 1064.67 555.502C1064.82 554.718 1064.93 553.547 1065 551.988L1065.27 545.562H1076V560H1073.12V548.092H1068.03L1067.8 552.809C1067.67 555.324 1067.27 557.152 1066.58 558.291C1065.9 559.43 1064.73 560 1063.08 560H1062.02ZM1091.93 560H1089.06V549.924H1089.03L1081.96 560H1079.26V545.562H1082.13V555.639H1082.16L1089.21 545.562H1091.93V560Z" fill="#96A2B1"/>
<path d="M714.039 487.344C701.799 487.344 691.285 484.316 682.496 478.262C673.707 472.142 666.936 463.483 662.184 452.285C657.496 441.022 655.152 427.708 655.152 412.344C655.152 396.914 657.496 383.568 662.184 372.305C666.936 361.042 673.707 352.383 682.496 346.328C691.285 340.208 701.799 337.148 714.039 337.148C726.214 337.148 736.695 340.208 745.484 346.328C754.273 352.383 761.044 361.042 765.797 372.305C770.549 383.568 772.926 396.914 772.926 412.344C772.926 427.773 770.549 441.087 765.797 452.285C761.044 463.483 754.273 472.142 745.484 478.262C736.695 484.316 726.214 487.344 714.039 487.344ZM714.039 463.32C723.479 463.32 730.934 458.796 736.402 449.746C741.871 440.632 744.605 428.164 744.605 412.344C744.605 396.458 741.871 383.958 736.402 374.844C730.934 365.729 723.479 361.172 714.039 361.172C704.534 361.172 697.047 365.729 691.578 374.844C686.174 383.958 683.473 396.458 683.473 412.344C683.473 428.164 686.174 440.632 691.578 449.746C697.047 458.796 704.534 463.32 714.039 463.32ZM914.387 487.344C907.746 487.344 901.887 485.846 896.809 482.852C891.73 479.857 887.759 475.658 884.895 470.254C882.03 464.85 880.598 458.6 880.598 451.504V448.574C880.598 441.413 882.03 435.163 884.895 429.824C887.759 424.421 891.73 420.221 896.809 417.227C901.887 414.167 907.746 412.637 914.387 412.637C920.962 412.637 926.789 414.167 931.867 417.227C936.945 420.221 940.917 424.421 943.781 429.824C946.711 435.163 948.176 441.413 948.176 448.574V451.504C948.176 458.6 946.711 464.85 943.781 470.254C940.917 475.658 936.945 479.857 931.867 482.852C926.789 485.846 920.962 487.344 914.387 487.344ZM819.27 411.855C812.694 411.855 806.867 410.358 801.789 407.363C796.711 404.368 792.74 400.169 789.875 394.766C787.01 389.362 785.578 383.112 785.578 376.016V373.086C785.578 365.924 787.01 359.674 789.875 354.336C792.74 348.932 796.711 344.733 801.789 341.738C806.867 338.678 812.694 337.148 819.27 337.148C825.91 337.148 831.77 338.678 836.848 341.738C841.926 344.733 845.897 348.932 848.762 354.336C851.626 359.674 853.059 365.924 853.059 373.086V376.016C853.059 383.112 851.626 389.362 848.762 394.766C845.897 400.169 841.926 404.368 836.848 407.363C831.77 410.358 825.91 411.855 819.27 411.855ZM806.086 485L906.086 339.492H927.375L827.375 485H806.086ZM819.27 393.984C823.241 393.984 826.398 392.487 828.742 389.492C831.151 386.432 832.355 381.94 832.355 376.016V373.086C832.355 367.096 831.151 362.572 828.742 359.512C826.398 356.452 823.241 354.922 819.27 354.922C815.363 354.922 812.206 356.452 809.797 359.512C807.453 362.572 806.281 367.096 806.281 373.086V376.016C806.281 381.94 807.453 386.432 809.797 389.492C812.206 392.487 815.363 393.984 819.27 393.984ZM914.387 469.473C918.293 469.473 921.418 467.975 923.762 464.98C926.171 461.921 927.375 457.428 927.375 451.504V448.574C927.375 442.585 926.171 438.06 923.762 435C921.418 431.94 918.293 430.41 914.387 430.41C910.415 430.41 907.258 431.94 904.914 435C902.57 438.06 901.398 442.585 901.398 448.574V451.504C901.398 457.428 902.57 461.921 904.914 464.98C907.258 467.975 910.415 469.473 914.387 469.473Z" fill="#96A2B1"/>
</svg>
