<svg width="1000" height="1523" viewBox="0 0 1000 1523" fill="none" xmlns="http://www.w3.org/2000/svg">
<rect width="1000" height="1523" fill="#EBECF0"/>
<path d="M410.534 119.645C406.846 119.645 403.588 118.794 400.759 117.093C397.93 115.392 395.71 112.993 394.099 109.896C392.487 106.799 391.682 103.173 391.682 99.0195C391.682 94.8301 392.487 91.1867 394.099 88.0894C395.71 84.992 397.93 82.5929 400.759 80.8921C403.588 79.1912 406.846 78.3408 410.534 78.3408C413.542 78.3408 416.263 78.9316 418.698 80.1133C421.133 81.2949 423.138 82.96 424.714 85.1084C426.307 87.2568 427.328 89.7902 427.775 92.7085H420.551C420.014 90.1662 418.859 88.1968 417.087 86.8003C415.314 85.4038 413.148 84.7056 410.588 84.7056C408.153 84.7056 406.049 85.2964 404.277 86.478C402.522 87.6597 401.171 89.3247 400.222 91.4731C399.291 93.6216 398.825 96.137 398.825 99.0195C398.825 101.884 399.291 104.391 400.222 106.539C401.171 108.67 402.522 110.326 404.277 111.507C406.031 112.689 408.135 113.28 410.588 113.28C413.13 113.28 415.288 112.59 417.06 111.212C418.833 109.833 420.005 107.873 420.578 105.331H427.775C427.328 108.249 426.307 110.782 424.714 112.931C423.138 115.061 421.133 116.717 418.698 117.899C416.263 119.063 413.542 119.645 410.534 119.645ZM432.609 119V90.6406H444.882C448.391 90.6406 451.167 91.2583 453.208 92.4937C455.266 93.729 456.296 95.6089 456.296 98.1333C456.296 101.535 454.425 103.522 450.683 104.095C452.796 104.31 454.434 105.017 455.598 106.217C456.779 107.398 457.37 108.983 457.37 110.97C457.37 113.441 456.475 115.401 454.685 116.852C452.912 118.284 450.289 119 446.816 119H432.609ZM438.974 113.548H446.574C449.403 113.548 450.817 112.447 450.817 110.245C450.817 107.846 449.403 106.646 446.574 106.646H438.974V113.548ZM438.974 102.323H445.124C446.592 102.323 447.729 102.036 448.535 101.463C449.34 100.873 449.743 100.049 449.743 98.9927C449.743 98.008 449.313 97.2471 448.454 96.71C447.613 96.1549 446.422 95.8774 444.882 95.8774H438.974V102.323ZM488.066 119H481.352V100.55H481.298L468.032 119H461.989V90.6406H468.703V109.037H468.757L481.916 90.6406H488.066V119ZM501.145 119V96.3877H491.503V90.6406H517.526V96.3877H507.939V119H501.145ZM533.291 110.836C529.208 110.836 526.049 109.914 523.811 108.07C521.59 106.226 520.48 103.442 520.48 99.7178V90.6406H527.248V99.5029C527.248 101.454 527.776 102.86 528.833 103.719C529.889 104.561 531.375 104.981 533.291 104.981C534.239 104.981 535.161 104.928 536.057 104.82C536.952 104.695 537.847 104.525 538.742 104.31V90.6406H545.51V119H538.742V110.191C537.883 110.388 536.988 110.549 536.057 110.675C535.144 110.782 534.222 110.836 533.291 110.836ZM564.04 119.645C561.211 119.645 558.758 119.009 556.682 117.738C554.605 116.467 553.002 114.721 551.875 112.501C550.764 110.263 550.209 107.712 550.209 104.847C550.209 101.965 550.782 99.4134 551.928 97.1934C553.092 94.9554 554.694 93.2008 556.735 91.9297C558.776 90.6406 561.122 89.9961 563.771 89.9961C566.493 89.9961 568.874 90.6227 570.915 91.876C572.956 93.1292 574.541 94.8659 575.668 97.0859C576.796 99.2881 577.36 101.839 577.36 104.74V106.593H556.843C556.932 108.902 557.613 110.764 558.884 112.179C560.155 113.593 561.927 114.3 564.201 114.3C565.902 114.3 567.307 113.933 568.417 113.199C569.528 112.447 570.279 111.463 570.673 110.245H577.011C576.653 112.089 575.865 113.718 574.648 115.133C573.448 116.547 571.936 117.657 570.109 118.463C568.283 119.251 566.26 119.645 564.04 119.645ZM556.896 101.92H570.861C570.646 99.8968 569.912 98.3034 568.659 97.1396C567.424 95.958 565.83 95.3672 563.879 95.3672C561.91 95.3672 560.307 95.958 559.072 97.1396C557.854 98.3034 557.129 99.8968 556.896 101.92ZM581.979 130.226V90.6406H588.64V94.5884H588.72C589.615 93.0845 590.815 91.9565 592.319 91.2046C593.823 90.4526 595.488 90.0767 597.314 90.0767C599.749 90.0767 601.879 90.7033 603.706 91.9565C605.55 93.1919 606.982 94.9196 608.002 97.1396C609.041 99.3418 609.56 101.893 609.56 104.793C609.56 107.748 609.05 110.335 608.029 112.555C607.027 114.757 605.603 116.476 603.759 117.711C601.915 118.946 599.758 119.564 597.287 119.564C595.425 119.564 593.769 119.161 592.319 118.355C590.887 117.55 589.723 116.341 588.828 114.73H588.747V130.226H581.979ZM595.703 113.897C597.797 113.897 599.489 113.119 600.778 111.561C602.067 109.986 602.712 107.73 602.712 104.793C602.712 101.875 602.067 99.6283 600.778 98.0527C599.489 96.4772 597.797 95.6895 595.703 95.6895C593.483 95.6895 591.701 96.522 590.358 98.187C589.034 99.8341 588.371 102.036 588.371 104.793C588.371 107.551 589.034 109.762 590.358 111.427C591.701 113.074 593.483 113.897 595.703 113.897Z" fill="#2A2A2E"/>
<rect x="88" y="189" width="819" height="362" rx="32" fill="white"/>
<path d="M127.469 271V236.078H140.078C143.578 236.078 146.328 236.914 148.328 238.586C150.328 240.258 151.328 242.516 151.328 245.359C151.328 247.359 150.828 248.969 149.828 250.188C148.828 251.406 147.438 252.312 145.656 252.906V252.953C147.641 253.281 149.32 254.117 150.695 255.461C152.07 256.789 152.758 258.703 152.758 261.203C152.758 264.188 151.727 266.57 149.664 268.352C147.602 270.117 144.469 271 140.266 271H127.469ZM131.688 267.25H140.266C142.906 267.25 144.93 266.758 146.336 265.773C147.758 264.773 148.469 263.305 148.469 261.367C148.469 259.43 147.781 257.906 146.406 256.797C145.031 255.672 143.062 255.109 140.5 255.109H131.688V267.25ZM131.688 251.406H140.242C142.414 251.406 144.109 250.891 145.328 249.859C146.547 248.812 147.156 247.398 147.156 245.617C147.156 243.836 146.547 242.43 145.328 241.398C144.109 240.352 142.414 239.828 140.242 239.828H131.688V251.406ZM157.609 280.797V246.25H161.5V249.906H161.547C162.344 248.516 163.445 247.484 164.852 246.812C166.258 246.125 167.766 245.781 169.375 245.781C171.531 245.781 173.414 246.32 175.023 247.398C176.633 248.477 177.883 249.984 178.773 251.922C179.664 253.844 180.109 256.078 180.109 258.625C180.109 261.156 179.664 263.391 178.773 265.328C177.883 267.25 176.633 268.758 175.023 269.852C173.414 270.93 171.531 271.469 169.375 271.469C167.766 271.469 166.297 271.125 164.969 270.438C163.641 269.734 162.531 268.672 161.641 267.25H161.594V280.797H157.609ZM168.766 267.883C170.906 267.883 172.656 267.102 174.016 265.539C175.391 263.961 176.078 261.656 176.078 258.625C176.078 255.594 175.391 253.289 174.016 251.711C172.656 250.133 170.906 249.344 168.766 249.344C166.469 249.344 164.641 250.195 163.281 251.898C161.938 253.586 161.266 255.828 161.266 258.625C161.266 261.422 161.938 263.664 163.281 265.352C164.641 267.039 166.469 267.883 168.766 267.883ZM194.969 271.562C192.547 271.562 190.477 271.008 188.758 269.898C187.055 268.789 185.75 267.266 184.844 265.328C183.938 263.375 183.484 261.156 183.484 258.672C183.484 256.156 183.961 253.922 184.914 251.969C185.867 250.016 187.188 248.484 188.875 247.375C190.562 246.25 192.5 245.688 194.688 245.688C196.984 245.688 198.977 246.234 200.664 247.328C202.352 248.422 203.648 249.945 204.555 251.898C205.477 253.852 205.938 256.109 205.938 258.672V259.773H187.422C187.516 262.195 188.211 264.164 189.508 265.68C190.805 267.195 192.625 267.953 194.969 267.953C196.734 267.953 198.172 267.547 199.281 266.734C200.406 265.922 201.156 264.875 201.531 263.594H205.516C205.203 265.172 204.555 266.562 203.57 267.766C202.586 268.953 201.352 269.883 199.867 270.555C198.398 271.227 196.766 271.562 194.969 271.562ZM187.469 256.352H201.953C201.734 254.18 200.977 252.453 199.68 251.172C198.383 249.891 196.719 249.25 194.688 249.25C192.656 249.25 191 249.891 189.719 251.172C188.438 252.453 187.688 254.18 187.469 256.352ZM210.484 271V246.25H216.461L222.883 260.875C223.305 261.844 223.688 262.758 224.031 263.617C224.375 264.461 224.711 265.305 225.039 266.148C225.383 265.305 225.719 264.461 226.047 263.617C226.391 262.758 226.773 261.844 227.195 260.875L233.57 246.25H239.547V271H235.562V258.484C235.562 256.719 235.57 255.258 235.586 254.102C235.602 252.945 235.617 251.789 235.633 250.633C235.133 251.836 234.625 253.062 234.109 254.312C233.609 255.547 233.023 256.922 232.352 258.438L226.773 271H223.258L217.633 258.438C216.977 256.984 216.398 255.656 215.898 254.453C215.398 253.234 214.898 252.047 214.398 250.891C214.414 252 214.43 253.117 214.445 254.242C214.461 255.367 214.469 256.781 214.469 258.484V271H210.484ZM264.625 271H260.641V261.695H253.844C253.766 261.695 253.68 261.695 253.586 261.695L247.633 271H243.039L249.508 261.133C245.977 260.055 244.211 257.695 244.211 254.055C244.211 251.539 245.031 249.609 246.672 248.266C248.312 246.922 250.648 246.25 253.68 246.25H264.625V271ZM260.641 258.32V249.766H254.008C251.977 249.766 250.484 250.109 249.531 250.797C248.594 251.484 248.125 252.57 248.125 254.055C248.125 255.539 248.609 256.625 249.578 257.312C250.547 257.984 252.078 258.32 254.172 258.32H260.641ZM282.531 271V246.25H292.844C295.656 246.25 297.891 246.82 299.547 247.961C301.203 249.102 302.031 250.727 302.031 252.836C302.031 254.305 301.625 255.461 300.812 256.305C300 257.133 298.922 257.695 297.578 257.992C298.5 258.133 299.375 258.438 300.203 258.906C301.031 259.359 301.703 260.008 302.219 260.852C302.75 261.68 303.016 262.727 303.016 263.992C303.016 266.07 302.258 267.758 300.742 269.055C299.227 270.352 297.141 271 294.484 271H282.531ZM286.328 267.297H294.484C295.906 267.297 296.992 267 297.742 266.406C298.508 265.797 298.891 264.945 298.891 263.852C298.891 262.617 298.508 261.672 297.742 261.016C296.992 260.344 295.906 260.008 294.484 260.008H286.328V267.297ZM286.328 256.586H293.031C294.625 256.586 295.852 256.289 296.711 255.695C297.57 255.086 298 254.227 298 253.117C298 252.102 297.555 251.32 296.664 250.773C295.773 250.227 294.5 249.953 292.844 249.953H286.328V256.586ZM311.688 254.688H318.859C320.688 254.688 322.297 255.031 323.688 255.719C325.078 256.406 326.164 257.359 326.945 258.578C327.742 259.781 328.141 261.172 328.141 262.75C328.141 264.359 327.742 265.789 326.945 267.039C326.164 268.273 325.078 269.242 323.688 269.945C322.297 270.648 320.688 271 318.859 271H307.703V246.25H311.688V254.688ZM311.688 258.438V267.25H318.719C320.391 267.25 321.711 266.844 322.68 266.031C323.664 265.219 324.156 264.125 324.156 262.75C324.156 261.422 323.664 260.375 322.68 259.609C321.711 258.828 320.391 258.438 318.719 258.438H311.688ZM330.531 271V246.25H334.516V271H330.531ZM361 246.25V271H357.016V250H344.406V271H340.422V246.25H361ZM377.125 271.562C374.844 271.562 372.836 271.016 371.102 269.922C369.383 268.812 368.039 267.289 367.07 265.352C366.117 263.414 365.641 261.188 365.641 258.672C365.641 256.141 366.117 253.898 367.07 251.945C368.039 249.992 369.383 248.461 371.102 247.352C372.836 246.242 374.844 245.688 377.125 245.688C379.422 245.688 381.43 246.242 383.148 247.352C384.867 248.461 386.203 249.992 387.156 251.945C388.125 253.898 388.609 256.141 388.609 258.672C388.609 261.188 388.125 263.414 387.156 265.352C386.203 267.289 384.867 268.812 383.148 269.922C381.43 271.016 379.422 271.562 377.125 271.562ZM377.125 267.953C379.469 267.953 381.297 267.109 382.609 265.422C383.922 263.719 384.578 261.469 384.578 258.672C384.578 255.844 383.914 253.578 382.586 251.875C381.273 250.156 379.453 249.297 377.125 249.297C374.797 249.297 372.969 250.148 371.641 251.852C370.328 253.555 369.672 255.828 369.672 258.672C369.672 261.484 370.328 263.734 371.641 265.422C372.953 267.109 374.781 267.953 377.125 267.953ZM390.648 271V267.25H391.586C392.383 267.25 393.039 267.133 393.555 266.898C394.086 266.648 394.508 266.18 394.82 265.492C395.148 264.789 395.398 263.773 395.57 262.445C395.758 261.102 395.898 259.328 395.992 257.125L396.461 246.25H413.898V271H409.914V250H400.258L399.836 258.625C399.695 261.484 399.383 263.828 398.898 265.656C398.414 267.469 397.625 268.812 396.531 269.688C395.453 270.562 393.945 271 392.008 271H390.648ZM423.812 246.25V256.75H436.562V246.25H440.547V271H436.562V260.5H423.812V271H419.828V246.25H423.812ZM456.672 271.562C454.25 271.562 452.18 271.008 450.461 269.898C448.758 268.789 447.453 267.266 446.547 265.328C445.641 263.375 445.188 261.156 445.188 258.672C445.188 256.156 445.664 253.922 446.617 251.969C447.57 250.016 448.891 248.484 450.578 247.375C452.266 246.25 454.203 245.688 456.391 245.688C458.688 245.688 460.68 246.234 462.367 247.328C464.055 248.422 465.352 249.945 466.258 251.898C467.18 253.852 467.641 256.109 467.641 258.672V259.773H449.125C449.219 262.195 449.914 264.164 451.211 265.68C452.508 267.195 454.328 267.953 456.672 267.953C458.438 267.953 459.875 267.547 460.984 266.734C462.109 265.922 462.859 264.875 463.234 263.594H467.219C466.906 265.172 466.258 266.562 465.273 267.766C464.289 268.953 463.055 269.883 461.57 270.555C460.102 271.227 458.469 271.562 456.672 271.562ZM449.172 256.352H463.656C463.438 254.18 462.68 252.453 461.383 251.172C460.086 249.891 458.422 249.25 456.391 249.25C454.359 249.25 452.703 249.891 451.422 251.172C450.141 252.453 449.391 254.18 449.172 256.352ZM476.172 246.25V256.75H488.922V246.25H492.906V271H488.922V260.5H476.172V271H472.188V246.25H476.172ZM519.531 271H515.547V252.555H515.477L502.797 271H498.812V246.25H502.797V264.719H502.867L515.547 246.25H519.531V271ZM544.609 271H540.625V261.695H533.828C533.75 261.695 533.664 261.695 533.57 261.695L527.617 271H523.023L529.492 261.133C525.961 260.055 524.195 257.695 524.195 254.055C524.195 251.539 525.016 249.609 526.656 248.266C528.297 246.922 530.633 246.25 533.664 246.25H544.609V271ZM540.625 258.32V249.766H533.992C531.961 249.766 530.469 250.109 529.516 250.797C528.578 251.484 528.109 252.57 528.109 254.055C528.109 255.539 528.594 256.625 529.562 257.312C530.531 257.984 532.062 258.32 534.156 258.32H540.625Z" fill="#43475A"/>
<path d="M132.343 503V479.405L189.347 430.648C196.237 424.593 201.945 418.99 206.469 413.839C210.993 408.619 213.255 402.355 213.255 395.047C213.255 387.599 210.993 381.683 206.469 377.298C201.945 372.844 195.855 370.616 188.198 370.616C179.846 370.616 173.269 373.296 168.466 378.656C163.664 384.015 161.262 391.428 161.262 400.893H131.716C131.716 389.618 134.013 379.804 138.607 371.452C143.27 363.03 149.813 356.522 158.235 351.928C166.656 347.265 176.644 344.933 188.198 344.933C198.847 344.933 208.313 346.952 216.596 350.989C224.879 354.956 231.352 360.559 236.015 367.798C240.748 375.036 243.115 383.562 243.115 393.376C243.115 400.615 241.757 407.227 239.043 413.213C236.328 419.199 232.396 425.011 227.245 430.648C222.164 436.217 216.004 442.098 208.766 448.293L175.774 477.004V477.212H243.845V503H132.343ZM311.14 505.506C299.446 505.506 289.145 503.661 280.236 499.972C271.397 496.214 264.506 491.028 259.564 484.416C254.623 477.734 252.152 470.009 252.152 461.239C252.152 450.729 255.562 441.959 262.383 434.929C269.274 427.899 278.287 423.619 289.424 422.087C279.679 420.487 271.884 416.624 266.037 410.499C260.26 404.374 257.372 396.578 257.372 387.112C257.372 378.899 259.634 371.626 264.158 365.292C268.752 358.888 275.086 353.912 283.159 350.362C291.303 346.743 300.63 344.933 311.14 344.933C321.858 344.933 331.255 346.708 339.329 350.258C347.402 353.808 353.701 358.749 358.226 365.083C362.75 371.417 365.012 378.76 365.012 387.112C365.012 396.578 362.123 404.374 356.346 410.499C350.569 416.624 342.809 420.487 333.064 422.087C344.201 423.619 353.179 427.899 360 434.929C366.891 441.959 370.336 450.729 370.336 461.239C370.336 470.009 367.831 477.734 362.819 484.416C357.878 491.028 350.952 496.214 342.043 499.972C333.204 503.661 322.902 505.506 311.14 505.506ZM311.14 482.119C319.144 482.119 325.617 479.996 330.559 475.751C335.57 471.435 338.076 465.867 338.076 459.046C338.076 452.086 335.535 446.344 330.454 441.82C325.443 437.295 319.005 435.033 311.14 435.033C303.344 435.033 296.906 437.295 291.825 441.82C286.814 446.344 284.308 452.086 284.308 459.046C284.308 465.937 286.779 471.505 291.721 475.751C296.662 479.996 303.135 482.119 311.14 482.119ZM311.14 411.229C318.1 411.229 323.703 409.315 327.949 405.487C332.194 401.589 334.317 396.404 334.317 389.931C334.317 383.597 332.194 378.516 327.949 374.688C323.772 370.79 318.169 368.842 311.14 368.842C304.179 368.842 298.576 370.79 294.331 374.688C290.155 378.516 288.066 383.597 288.066 389.931C288.066 396.335 290.189 401.485 294.435 405.383C298.681 409.281 304.249 411.229 311.14 411.229Z" fill="#FB2C4B"/>
<path d="M633.484 271H607.469V236.078H611.687V267.25H629.266V236.078H633.484V271ZM632.664 278.5V271H630.93V267.25H636.648V278.5H632.664ZM650.312 271.562C647.891 271.562 645.82 271.008 644.102 269.898C642.398 268.789 641.094 267.266 640.187 265.328C639.281 263.375 638.828 261.156 638.828 258.672C638.828 256.156 639.305 253.922 640.258 251.969C641.211 250.016 642.531 248.484 644.219 247.375C645.906 246.25 647.844 245.687 650.031 245.687C652.328 245.687 654.32 246.234 656.008 247.328C657.695 248.422 658.992 249.945 659.898 251.898C660.82 253.852 661.281 256.109 661.281 258.672V259.773H642.766C642.859 262.195 643.555 264.164 644.852 265.68C646.148 267.195 647.969 267.953 650.312 267.953C652.078 267.953 653.516 267.547 654.625 266.734C655.75 265.922 656.5 264.875 656.875 263.594H660.859C660.547 265.172 659.898 266.562 658.914 267.766C657.93 268.953 656.695 269.883 655.211 270.555C653.742 271.227 652.109 271.562 650.312 271.562ZM642.812 256.352H657.297C657.078 254.18 656.32 252.453 655.023 251.172C653.727 249.891 652.062 249.25 650.031 249.25C648 249.25 646.344 249.891 645.062 251.172C643.781 252.453 643.031 254.18 642.812 256.352ZM663.227 271V267.25H664.164C664.961 267.25 665.617 267.133 666.133 266.898C666.664 266.648 667.086 266.18 667.398 265.492C667.727 264.789 667.977 263.773 668.148 262.445C668.336 261.102 668.477 259.328 668.57 257.125L669.039 246.25H686.477V271H682.492V250H672.836L672.414 258.625C672.273 261.484 671.961 263.828 671.477 265.656C670.992 267.469 670.203 268.812 669.109 269.687C668.031 270.562 666.523 271 664.586 271H663.227ZM696.391 254.687H703.562C705.391 254.687 707 255.031 708.391 255.719C709.781 256.406 710.867 257.359 711.648 258.578C712.445 259.781 712.844 261.172 712.844 262.75C712.844 264.359 712.445 265.789 711.648 267.039C710.867 268.273 709.781 269.242 708.391 269.945C707 270.648 705.391 271 703.562 271H692.406V246.25H696.391V254.687ZM696.391 258.437V267.25H703.422C705.094 267.25 706.414 266.844 707.383 266.031C708.367 265.219 708.859 264.125 708.859 262.75C708.859 261.422 708.367 260.375 707.383 259.609C706.414 258.828 705.094 258.437 703.422 258.437H696.391ZM719.805 271.398C718.992 271.398 718.297 271.117 717.719 270.555C717.156 269.977 716.875 269.281 716.875 268.469C716.875 267.641 717.156 266.945 717.719 266.383C718.297 265.82 718.992 265.539 719.805 265.539C720.633 265.539 721.328 265.82 721.891 266.383C722.453 266.945 722.734 267.641 722.734 268.469C722.734 269.281 722.453 269.977 721.891 270.555C721.328 271.117 720.633 271.398 719.805 271.398ZM719.805 253.023C718.992 253.023 718.297 252.742 717.719 252.18C717.156 251.602 716.875 250.906 716.875 250.094C716.875 249.266 717.156 248.57 717.719 248.008C718.297 247.445 718.992 247.164 719.805 247.164C720.633 247.164 721.328 247.445 721.891 248.008C722.453 248.57 722.734 249.266 722.734 250.094C722.734 250.906 722.453 251.602 721.891 252.18C721.328 252.742 720.633 253.023 719.805 253.023ZM751 236.078V271H746.922V240.437H746.898L738.203 246.203V241.891L746.922 236.078H751ZM769.187 271.562C766.609 271.562 764.375 270.828 762.484 269.359C760.609 267.875 759.156 265.789 758.125 263.102C757.094 260.414 756.578 257.234 756.578 253.562C756.578 249.875 757.094 246.687 758.125 244C759.156 241.297 760.609 239.211 762.484 237.742C764.375 236.258 766.609 235.516 769.187 235.516C771.766 235.516 774 236.258 775.891 237.742C777.781 239.211 779.234 241.297 780.25 244C781.281 246.687 781.797 249.875 781.797 253.562C781.797 257.234 781.281 260.414 780.25 263.102C779.234 265.789 777.781 267.875 775.891 269.359C774 270.828 771.766 271.562 769.187 271.562ZM769.187 267.812C771.859 267.812 773.961 266.547 775.492 264.016C777.039 261.469 777.812 257.984 777.812 253.562C777.812 249.109 777.039 245.617 775.492 243.086C773.961 240.539 771.859 239.266 769.187 239.266C766.516 239.266 764.406 240.539 762.859 243.086C761.328 245.617 760.562 249.109 760.562 253.562C760.562 257.984 761.328 261.469 762.859 264.016C764.406 266.547 766.516 267.812 769.187 267.812ZM809.078 271.562C806.797 271.562 804.789 271.016 803.055 269.922C801.336 268.812 799.992 267.289 799.023 265.352C798.07 263.414 797.594 261.187 797.594 258.672C797.594 256.141 798.07 253.898 799.023 251.945C799.992 249.992 801.336 248.461 803.055 247.352C804.789 246.242 806.797 245.687 809.078 245.687C810.953 245.687 812.633 246.062 814.117 246.812C815.602 247.547 816.812 248.562 817.75 249.859C818.703 251.156 819.289 252.641 819.508 254.312H815.477C815.18 252.859 814.492 251.664 813.414 250.727C812.352 249.773 810.906 249.297 809.078 249.297C806.75 249.297 804.922 250.148 803.594 251.852C802.281 253.555 801.625 255.828 801.625 258.672C801.625 261.484 802.281 263.734 803.594 265.422C804.906 267.109 806.734 267.953 809.078 267.953C810.937 267.953 812.359 267.5 813.344 266.594C814.328 265.672 815.016 264.453 815.406 262.937H819.508C819.289 264.562 818.703 266.031 817.75 267.344C816.812 268.641 815.594 269.672 814.094 270.437C812.609 271.187 810.937 271.562 809.078 271.562ZM834.203 271.562C831.781 271.562 829.711 271.008 827.992 269.898C826.289 268.789 824.984 267.266 824.078 265.328C823.172 263.375 822.719 261.156 822.719 258.672C822.719 256.156 823.195 253.922 824.148 251.969C825.102 250.016 826.422 248.484 828.109 247.375C829.797 246.25 831.734 245.687 833.922 245.687C836.219 245.687 838.211 246.234 839.898 247.328C841.586 248.422 842.883 249.945 843.789 251.898C844.711 253.852 845.172 256.109 845.172 258.672V259.773H826.656C826.75 262.195 827.445 264.164 828.742 265.68C830.039 267.195 831.859 267.953 834.203 267.953C835.969 267.953 837.406 267.547 838.516 266.734C839.641 265.922 840.391 264.875 840.766 263.594H844.75C844.437 265.172 843.789 266.562 842.805 267.766C841.82 268.953 840.586 269.883 839.102 270.555C837.633 271.227 836 271.562 834.203 271.562ZM826.703 256.352H841.187C840.969 254.18 840.211 252.453 838.914 251.172C837.617 249.891 835.953 249.25 833.922 249.25C831.891 249.25 830.234 249.891 828.953 251.172C827.672 252.453 826.922 254.18 826.703 256.352ZM849.719 271V246.25H853.703V256.937H856.375L865.867 246.25H870.953L860.406 258.203L871.094 271H866.031L857.406 260.687H853.703V271H849.719Z" fill="#96A2B1"/>
<path d="M408.133 503.75C405.091 503.75 402.414 503.021 400.102 501.562C397.81 500.083 396.018 498.052 394.727 495.469C393.456 492.885 392.82 489.917 392.82 486.562C392.82 483.187 393.456 480.198 394.727 477.594C396.018 474.99 397.81 472.948 400.102 471.469C402.414 469.99 405.091 469.25 408.133 469.25C410.633 469.25 412.872 469.75 414.852 470.75C416.831 471.729 418.445 473.083 419.695 474.812C420.966 476.542 421.747 478.521 422.039 480.75H416.664C416.268 478.812 415.352 477.219 413.914 475.969C412.497 474.698 410.57 474.062 408.133 474.062C405.029 474.062 402.591 475.198 400.82 477.469C399.07 479.74 398.195 482.771 398.195 486.562C398.195 490.312 399.07 493.312 400.82 495.562C402.57 497.812 405.008 498.937 408.133 498.937C410.612 498.937 412.508 498.333 413.82 497.125C415.133 495.896 416.049 494.271 416.57 492.25H422.039C421.747 494.417 420.966 496.375 419.695 498.125C418.445 499.854 416.82 501.229 414.82 502.25C412.841 503.25 410.612 503.75 408.133 503.75ZM441.633 503.75C438.404 503.75 435.643 503.01 433.352 501.531C431.081 500.052 429.341 498.021 428.133 495.437C426.924 492.833 426.32 489.875 426.32 486.562C426.32 483.208 426.956 480.229 428.227 477.625C429.497 475.021 431.258 472.979 433.508 471.5C435.758 470 438.341 469.25 441.258 469.25C444.32 469.25 446.977 469.979 449.227 471.437C451.477 472.896 453.206 474.927 454.414 477.531C455.643 480.135 456.258 483.146 456.258 486.562V488.031H431.57C431.695 491.26 432.622 493.885 434.352 495.906C436.081 497.927 438.508 498.937 441.633 498.937C443.987 498.937 445.904 498.396 447.383 497.312C448.883 496.229 449.883 494.833 450.383 493.125H455.695C455.279 495.229 454.414 497.083 453.102 498.687C451.789 500.271 450.143 501.51 448.164 502.406C446.206 503.302 444.029 503.75 441.633 503.75ZM431.633 483.469H450.945C450.654 480.573 449.643 478.271 447.914 476.562C446.185 474.854 443.966 474 441.258 474C438.549 474 436.341 474.854 434.633 476.562C432.924 478.271 431.924 480.573 431.633 483.469ZM462.32 503V470H467.633V484.25H471.195L483.852 470H490.633L476.57 485.937L490.82 503H484.07L472.57 489.25H467.633V503H462.32Z" fill="#96A2B1"/>
<rect x="88" y="591" width="819" height="362" rx="32" fill="white"/>
<path d="M154.516 638.078V673H150.297V641.828H131.688V673H127.469V638.078H154.516ZM160.938 682.797V648.25H164.828V651.906H164.875C165.672 650.516 166.773 649.484 168.18 648.812C169.586 648.125 171.094 647.781 172.703 647.781C174.859 647.781 176.742 648.32 178.352 649.398C179.961 650.477 181.211 651.984 182.102 653.922C182.992 655.844 183.438 658.078 183.438 660.625C183.438 663.156 182.992 665.391 182.102 667.328C181.211 669.25 179.961 670.758 178.352 671.852C176.742 672.93 174.859 673.469 172.703 673.469C171.094 673.469 169.625 673.125 168.297 672.438C166.969 671.734 165.859 670.672 164.969 669.25H164.922V682.797H160.938ZM172.094 669.883C174.234 669.883 175.984 669.102 177.344 667.539C178.719 665.961 179.406 663.656 179.406 660.625C179.406 657.594 178.719 655.289 177.344 653.711C175.984 652.133 174.234 651.344 172.094 651.344C169.797 651.344 167.969 652.195 166.609 653.898C165.266 655.586 164.594 657.828 164.594 660.625C164.594 663.422 165.266 665.664 166.609 667.352C167.969 669.039 169.797 669.883 172.094 669.883ZM198.297 673.562C196.016 673.562 194.008 673.016 192.273 671.922C190.555 670.812 189.211 669.289 188.242 667.352C187.289 665.414 186.812 663.188 186.812 660.672C186.812 658.141 187.289 655.898 188.242 653.945C189.211 651.992 190.555 650.461 192.273 649.352C194.008 648.242 196.016 647.688 198.297 647.688C200.594 647.688 202.602 648.242 204.32 649.352C206.039 650.461 207.375 651.992 208.328 653.945C209.297 655.898 209.781 658.141 209.781 660.672C209.781 663.188 209.297 665.414 208.328 667.352C207.375 669.289 206.039 670.812 204.32 671.922C202.602 673.016 200.594 673.562 198.297 673.562ZM198.297 669.953C200.641 669.953 202.469 669.109 203.781 667.422C205.094 665.719 205.75 663.469 205.75 660.672C205.75 657.844 205.086 655.578 203.758 653.875C202.445 652.156 200.625 651.297 198.297 651.297C195.969 651.297 194.141 652.148 192.812 653.852C191.5 655.555 190.844 657.828 190.844 660.672C190.844 663.484 191.5 665.734 192.812 667.422C194.125 669.109 195.953 669.953 198.297 669.953ZM214.422 673V648.25H218.406V669.25H231.016V648.25H235V673H214.422ZM234.18 680.5V673H232.445V669.25H238.164V680.5H234.18ZM251.828 673.562C249.406 673.562 247.336 673.008 245.617 671.898C243.914 670.789 242.609 669.266 241.703 667.328C240.797 665.375 240.344 663.156 240.344 660.672C240.344 658.156 240.82 655.922 241.773 653.969C242.727 652.016 244.047 650.484 245.734 649.375C247.422 648.25 249.359 647.688 251.547 647.688C253.844 647.688 255.836 648.234 257.523 649.328C259.211 650.422 260.508 651.945 261.414 653.898C262.336 655.852 262.797 658.109 262.797 660.672V661.773H244.281C244.375 664.195 245.07 666.164 246.367 667.68C247.664 669.195 249.484 669.953 251.828 669.953C253.594 669.953 255.031 669.547 256.141 668.734C257.266 667.922 258.016 666.875 258.391 665.594H262.375C262.062 667.172 261.414 668.562 260.43 669.766C259.445 670.953 258.211 671.883 256.727 672.555C255.258 673.227 253.625 673.562 251.828 673.562ZM244.328 658.352H258.812C258.594 656.18 257.836 654.453 256.539 653.172C255.242 651.891 253.578 651.25 251.547 651.25C249.516 651.25 247.859 651.891 246.578 653.172C245.297 654.453 244.547 656.18 244.328 658.352ZM271.328 648.25V658.75H284.078V648.25H288.062V673H284.078V662.5H271.328V673H267.344V648.25H271.328ZM300.016 673V651.859H291.367V648.25H312.602V651.859H304V673H300.016ZM338.125 673.562C335.844 673.562 333.836 673.016 332.102 671.922C330.383 670.812 329.039 669.289 328.07 667.352C327.117 665.414 326.641 663.188 326.641 660.672C326.641 658.141 327.117 655.898 328.07 653.945C329.039 651.992 330.383 650.461 332.102 649.352C333.836 648.242 335.844 647.688 338.125 647.688C340.422 647.688 342.43 648.242 344.148 649.352C345.867 650.461 347.203 651.992 348.156 653.945C349.125 655.898 349.609 658.141 349.609 660.672C349.609 663.188 349.125 665.414 348.156 667.352C347.203 669.289 345.867 670.812 344.148 671.922C342.43 673.016 340.422 673.562 338.125 673.562ZM338.125 669.953C340.469 669.953 342.297 669.109 343.609 667.422C344.922 665.719 345.578 663.469 345.578 660.672C345.578 657.844 344.914 655.578 343.586 653.875C342.273 652.156 340.453 651.297 338.125 651.297C335.797 651.297 333.969 652.148 332.641 653.852C331.328 655.555 330.672 657.828 330.672 660.672C330.672 663.484 331.328 665.734 332.641 667.422C333.953 669.109 335.781 669.953 338.125 669.953ZM354.25 648.25H358.234V669.25H368.148V648.25H372.133V669.25H382.047V648.25H386.031V673H354.25V648.25ZM412.656 673H408.672V654.555H408.602L395.922 673H391.938V648.25H395.922V666.719H395.992L408.672 648.25H412.656V673ZM437.969 637L440.031 639.438C439.234 640.219 438.312 640.766 437.266 641.078C436.219 641.375 435.031 641.562 433.703 641.641C432.391 641.703 430.922 641.766 429.297 641.828C426.578 641.938 424.547 642.883 423.203 644.664C421.875 646.445 421.078 649.031 420.812 652.422H421.141C422.016 650.781 423.234 649.578 424.797 648.812C426.375 648.031 428.062 647.641 429.859 647.641C431.906 647.641 433.742 648.117 435.367 649.07C437.008 650.023 438.305 651.438 439.258 653.312C440.211 655.188 440.688 657.5 440.688 660.25C440.688 662.984 440.203 665.352 439.234 667.352C438.266 669.336 436.906 670.867 435.156 671.945C433.422 673.023 431.391 673.562 429.062 673.562C425.531 673.562 422.688 672.312 420.531 669.812C418.375 667.312 417.297 663.641 417.297 658.797V656.031C417.328 644.266 421.312 638.281 429.25 638.078C429.75 638.062 430.234 638.055 430.703 638.055C431.172 638.055 431.617 638.055 432.039 638.055C433.383 638.07 434.539 638.039 435.508 637.961C436.492 637.867 437.312 637.547 437.969 637ZM429.062 669.953C431.422 669.938 433.273 669.055 434.617 667.305C435.977 665.555 436.656 663.203 436.656 660.25C436.656 657.391 435.977 655.18 434.617 653.617C433.258 652.039 431.375 651.25 428.969 651.25C426.641 651.25 424.797 652.039 423.438 653.617C422.078 655.18 421.375 657.391 421.328 660.25C421.328 663.172 422.016 665.516 423.391 667.281C424.766 669.047 426.656 669.938 429.062 669.953ZM455.547 673.562C453.266 673.562 451.258 673.016 449.523 671.922C447.805 670.812 446.461 669.289 445.492 667.352C444.539 665.414 444.062 663.188 444.062 660.672C444.062 658.141 444.539 655.898 445.492 653.945C446.461 651.992 447.805 650.461 449.523 649.352C451.258 648.242 453.266 647.688 455.547 647.688C457.844 647.688 459.852 648.242 461.57 649.352C463.289 650.461 464.625 651.992 465.578 653.945C466.547 655.898 467.031 658.141 467.031 660.672C467.031 663.188 466.547 665.414 465.578 667.352C464.625 669.289 463.289 670.812 461.57 671.922C459.852 673.016 457.844 673.562 455.547 673.562ZM455.547 669.953C457.891 669.953 459.719 669.109 461.031 667.422C462.344 665.719 463 663.469 463 660.672C463 657.844 462.336 655.578 461.008 653.875C459.695 652.156 457.875 651.297 455.547 651.297C453.219 651.297 451.391 652.148 450.062 653.852C448.75 655.555 448.094 657.828 448.094 660.672C448.094 663.484 448.75 665.734 450.062 667.422C451.375 669.109 453.203 669.953 455.547 669.953ZM471.672 673V648.25H475.656V658.938H478.328L487.82 648.25H492.906L482.359 660.203L493.047 673H487.984L479.359 662.688H475.656V673H471.672Z" fill="#43475A"/>
<path d="M130.046 871.486V846.638L198.534 749.439H237.894V846.534H258.253V871.486H237.894V905H207.722V871.486H130.046ZM207.722 846.534V780.134H207.513L161.053 846.325V846.534H207.722Z" fill="#FB2C4B"/>
<path d="M621.578 673H595.562V638.078H599.781V669.25H617.359V638.078H621.578V673ZM620.758 680.5V673H619.023V669.25H624.742V680.5H620.758ZM638.406 673.562C635.984 673.562 633.914 673.008 632.195 671.898C630.492 670.789 629.187 669.266 628.281 667.328C627.375 665.375 626.922 663.156 626.922 660.672C626.922 658.156 627.398 655.922 628.352 653.969C629.305 652.016 630.625 650.484 632.312 649.375C634 648.25 635.937 647.687 638.125 647.687C640.422 647.687 642.414 648.234 644.102 649.328C645.789 650.422 647.086 651.945 647.992 653.898C648.914 655.852 649.375 658.109 649.375 660.672V661.773H630.859C630.953 664.195 631.648 666.164 632.945 667.68C634.242 669.195 636.062 669.953 638.406 669.953C640.172 669.953 641.609 669.547 642.719 668.734C643.844 667.922 644.594 666.875 644.969 665.594H648.953C648.641 667.172 647.992 668.562 647.008 669.766C646.023 670.953 644.789 671.883 643.305 672.555C641.836 673.227 640.203 673.562 638.406 673.562ZM630.906 658.352H645.391C645.172 656.18 644.414 654.453 643.117 653.172C641.82 651.891 640.156 651.25 638.125 651.25C636.094 651.25 634.437 651.891 633.156 653.172C631.875 654.453 631.125 656.18 630.906 658.352ZM651.32 673V669.25H652.258C653.055 669.25 653.711 669.133 654.227 668.898C654.758 668.648 655.18 668.18 655.492 667.492C655.82 666.789 656.07 665.773 656.242 664.445C656.43 663.102 656.57 661.328 656.664 659.125L657.133 648.25H674.57V673H670.586V652H660.93L660.508 660.625C660.367 663.484 660.055 665.828 659.57 667.656C659.086 669.469 658.297 670.812 657.203 671.687C656.125 672.562 654.617 673 652.68 673H651.32ZM684.484 656.687H691.656C693.484 656.687 695.094 657.031 696.484 657.719C697.875 658.406 698.961 659.359 699.742 660.578C700.539 661.781 700.937 663.172 700.937 664.75C700.937 666.359 700.539 667.789 699.742 669.039C698.961 670.273 697.875 671.242 696.484 671.945C695.094 672.648 693.484 673 691.656 673H680.5V648.25H684.484V656.687ZM684.484 660.437V669.25H691.516C693.187 669.25 694.508 668.844 695.477 668.031C696.461 667.219 696.953 666.125 696.953 664.75C696.953 663.422 696.461 662.375 695.477 661.609C694.508 660.828 693.187 660.437 691.516 660.437H684.484ZM707.898 673.398C707.086 673.398 706.391 673.117 705.812 672.555C705.25 671.977 704.969 671.281 704.969 670.469C704.969 669.641 705.25 668.945 705.812 668.383C706.391 667.82 707.086 667.539 707.898 667.539C708.727 667.539 709.422 667.82 709.984 668.383C710.547 668.945 710.828 669.641 710.828 670.469C710.828 671.281 710.547 671.977 709.984 672.555C709.422 673.117 708.727 673.398 707.898 673.398ZM707.898 655.023C707.086 655.023 706.391 654.742 705.812 654.18C705.25 653.602 704.969 652.906 704.969 652.094C704.969 651.266 705.25 650.57 705.812 650.008C706.391 649.445 707.086 649.164 707.898 649.164C708.727 649.164 709.422 649.445 709.984 650.008C710.547 650.57 710.828 651.266 710.828 652.094C710.828 652.906 710.547 653.602 709.984 654.18C709.422 654.742 708.727 655.023 707.898 655.023ZM727.164 673V669.461L739.586 658.117C741.07 656.758 742.273 655.562 743.195 654.531C744.133 653.5 744.82 652.492 745.258 651.508C745.695 650.523 745.914 649.437 745.914 648.25C745.914 646.094 745.273 644.391 743.992 643.141C742.727 641.891 740.984 641.266 738.766 641.266C736.375 641.266 734.523 642 733.211 643.469C731.898 644.922 731.242 646.891 731.242 649.375H727.305C727.305 647.047 727.773 644.992 728.711 643.211C729.664 641.43 731 640.039 732.719 639.039C734.437 638.023 736.445 637.516 738.742 637.516C740.93 637.516 742.859 637.969 744.531 638.875C746.203 639.766 747.516 641.008 748.469 642.602C749.422 644.18 749.898 646.008 749.898 648.086C749.898 650.336 749.273 652.406 748.023 654.297C746.789 656.187 744.891 658.297 742.328 660.625L732.883 669.203V669.25H750.109V673H727.164ZM767.078 648.25H771.062V669.25H780.977V648.25H784.961V669.25H794.875V648.25H798.859V673H767.078V648.25ZM812.312 673.375C809.859 673.375 807.805 672.742 806.148 671.477C804.508 670.211 803.687 668.344 803.687 665.875C803.687 664.453 803.961 663.297 804.508 662.406C805.07 661.516 805.812 660.82 806.734 660.32C807.672 659.805 808.727 659.414 809.898 659.148C811.086 658.883 812.297 658.672 813.531 658.516C815.109 658.297 816.352 658.133 817.258 658.023C818.164 657.914 818.805 657.734 819.18 657.484C819.57 657.234 819.766 656.797 819.766 656.172V655.937C819.766 654.594 819.281 653.484 818.312 652.609C817.359 651.734 816.016 651.297 814.281 651.297C812.562 651.297 811.148 651.719 810.039 652.562C808.945 653.391 808.352 654.422 808.258 655.656H804.203C804.281 654.141 804.75 652.797 805.609 651.625C806.469 650.437 807.641 649.5 809.125 648.812C810.609 648.125 812.328 647.781 814.281 647.781C817.172 647.781 819.461 648.531 821.148 650.031C822.852 651.516 823.703 653.484 823.703 655.937V673H819.766V669.484H819.672C819.375 670.078 818.937 670.68 818.359 671.289C817.781 671.883 817 672.383 816.016 672.789C815.047 673.18 813.812 673.375 812.312 673.375ZM812.875 669.812C814.5 669.812 815.82 669.523 816.836 668.945C817.852 668.352 818.594 667.586 819.062 666.648C819.531 665.711 819.766 664.703 819.766 663.625V660.531C819.469 660.812 818.68 661.07 817.398 661.305C816.117 661.523 814.766 661.734 813.344 661.937C812.391 662.062 811.484 662.281 810.625 662.594C809.781 662.891 809.094 663.32 808.562 663.883C808.031 664.43 807.766 665.172 807.766 666.109C807.766 667.266 808.219 668.172 809.125 668.828C810.047 669.484 811.297 669.812 812.875 669.812ZM845.734 648.25V652H833.594V673H829.609V648.25H845.734ZM856.656 673.375C854.203 673.375 852.148 672.742 850.492 671.477C848.852 670.211 848.031 668.344 848.031 665.875C848.031 664.453 848.305 663.297 848.852 662.406C849.414 661.516 850.156 660.82 851.078 660.32C852.016 659.805 853.07 659.414 854.242 659.148C855.43 658.883 856.641 658.672 857.875 658.516C859.453 658.297 860.695 658.133 861.602 658.023C862.508 657.914 863.148 657.734 863.523 657.484C863.914 657.234 864.109 656.797 864.109 656.172V655.937C864.109 654.594 863.625 653.484 862.656 652.609C861.703 651.734 860.359 651.297 858.625 651.297C856.906 651.297 855.492 651.719 854.383 652.562C853.289 653.391 852.695 654.422 852.602 655.656H848.547C848.625 654.141 849.094 652.797 849.953 651.625C850.812 650.437 851.984 649.5 853.469 648.812C854.953 648.125 856.672 647.781 858.625 647.781C861.516 647.781 863.805 648.531 865.492 650.031C867.195 651.516 868.047 653.484 868.047 655.937V673H864.109V669.484H864.016C863.719 670.078 863.281 670.68 862.703 671.289C862.125 671.883 861.344 672.383 860.359 672.789C859.391 673.18 858.156 673.375 856.656 673.375ZM857.219 669.812C858.844 669.812 860.164 669.523 861.18 668.945C862.195 668.352 862.937 667.586 863.406 666.648C863.875 665.711 864.109 664.703 864.109 663.625V660.531C863.812 660.812 863.023 661.07 861.742 661.305C860.461 661.523 859.109 661.734 857.687 661.937C856.734 662.062 855.828 662.281 854.969 662.594C854.125 662.891 853.437 663.32 852.906 663.883C852.375 664.43 852.109 665.172 852.109 666.109C852.109 667.266 852.562 668.172 853.469 668.828C854.391 669.484 855.641 669.812 857.219 669.812Z" fill="#96A2B1"/>
<path d="M280.537 868.82H285.85V896.82H299.068V868.82H304.381V896.82H317.6V868.82H322.912V901.82H280.537V868.82ZM338.93 902.32C335.659 902.32 332.919 901.477 330.711 899.789C328.523 898.102 327.43 895.612 327.43 892.32C327.43 890.424 327.794 888.883 328.523 887.695C329.273 886.508 330.263 885.581 331.492 884.914C332.742 884.227 334.148 883.706 335.711 883.352C337.294 882.997 338.909 882.716 340.555 882.508C342.659 882.216 344.315 881.997 345.523 881.852C346.732 881.706 347.586 881.466 348.086 881.133C348.607 880.799 348.867 880.216 348.867 879.383V879.07C348.867 877.279 348.221 875.799 346.93 874.633C345.659 873.466 343.867 872.883 341.555 872.883C339.263 872.883 337.378 873.445 335.898 874.57C334.44 875.674 333.648 877.049 333.523 878.695H328.117C328.221 876.674 328.846 874.883 329.992 873.32C331.138 871.737 332.7 870.487 334.68 869.57C336.659 868.654 338.95 868.195 341.555 868.195C345.409 868.195 348.461 869.195 350.711 871.195C352.982 873.174 354.117 875.799 354.117 879.07V901.82H348.867V897.133H348.742C348.346 897.924 347.763 898.727 346.992 899.539C346.221 900.331 345.18 900.997 343.867 901.539C342.575 902.06 340.93 902.32 338.93 902.32ZM339.68 897.57C341.846 897.57 343.607 897.185 344.961 896.414C346.315 895.622 347.305 894.602 347.93 893.352C348.555 892.102 348.867 890.758 348.867 889.32V885.195C348.471 885.57 347.419 885.914 345.711 886.227C344.003 886.518 342.2 886.799 340.305 887.07C339.034 887.237 337.825 887.529 336.68 887.945C335.555 888.341 334.638 888.914 333.93 889.664C333.221 890.393 332.867 891.383 332.867 892.633C332.867 894.174 333.471 895.383 334.68 896.258C335.909 897.133 337.575 897.57 339.68 897.57ZM381.572 868.82V873.82H365.385V901.82H360.072V868.82H381.572ZM394.215 902.32C390.944 902.32 388.204 901.477 385.996 899.789C383.808 898.102 382.715 895.612 382.715 892.32C382.715 890.424 383.079 888.883 383.808 887.695C384.558 886.508 385.548 885.581 386.777 884.914C388.027 884.227 389.433 883.706 390.996 883.352C392.579 882.997 394.194 882.716 395.84 882.508C397.944 882.216 399.6 881.997 400.808 881.852C402.017 881.706 402.871 881.466 403.371 881.133C403.892 880.799 404.152 880.216 404.152 879.383V879.07C404.152 877.279 403.506 875.799 402.215 874.633C400.944 873.466 399.152 872.883 396.84 872.883C394.548 872.883 392.663 873.445 391.183 874.57C389.725 875.674 388.933 877.049 388.808 878.695H383.402C383.506 876.674 384.131 874.883 385.277 873.32C386.423 871.737 387.985 870.487 389.965 869.57C391.944 868.654 394.235 868.195 396.84 868.195C400.694 868.195 403.746 869.195 405.996 871.195C408.267 873.174 409.402 875.799 409.402 879.07V901.82H404.152V897.133H404.027C403.631 897.924 403.048 898.727 402.277 899.539C401.506 900.331 400.465 900.997 399.152 901.539C397.86 902.06 396.215 902.32 394.215 902.32ZM394.965 897.57C397.131 897.57 398.892 897.185 400.246 896.414C401.6 895.622 402.59 894.602 403.215 893.352C403.84 892.102 404.152 890.758 404.152 889.32V885.195C403.756 885.57 402.704 885.914 400.996 886.227C399.288 886.518 397.485 886.799 395.59 887.07C394.319 887.237 393.11 887.529 391.965 887.945C390.84 888.341 389.923 888.914 389.215 889.664C388.506 890.393 388.152 891.383 388.152 892.633C388.152 894.174 388.756 895.383 389.965 896.258C391.194 897.133 392.86 897.57 394.965 897.57Z" fill="#96A2B1"/>
<rect x="88" y="993" width="819" height="362" rx="32" fill="white"/>
<path d="M141.977 1075.56C138.898 1075.56 136.164 1074.79 133.773 1073.24C131.383 1071.7 129.508 1069.57 128.148 1066.87C126.789 1064.15 126.109 1061.05 126.109 1057.56C126.109 1054.05 126.789 1050.94 128.148 1048.23C129.508 1045.52 131.383 1043.38 133.773 1041.84C136.164 1040.29 138.898 1039.52 141.977 1039.52C145.07 1039.52 147.805 1040.29 150.18 1041.84C152.57 1043.38 154.445 1045.52 155.805 1048.23C157.164 1050.94 157.844 1054.05 157.844 1057.56C157.844 1061.05 157.164 1064.15 155.805 1066.87C154.445 1069.57 152.57 1071.7 150.18 1073.24C147.805 1074.79 145.07 1075.56 141.977 1075.56ZM141.977 1071.62C144.086 1071.62 146.023 1071.09 147.789 1070.01C149.555 1068.91 150.969 1067.32 152.031 1065.23C153.094 1063.13 153.625 1060.58 153.625 1057.56C153.625 1054.53 153.094 1051.97 152.031 1049.88C150.969 1047.77 149.555 1046.17 147.789 1045.09C146.023 1044 144.086 1043.45 141.977 1043.45C139.867 1043.45 137.93 1044 136.164 1045.09C134.398 1046.17 132.984 1047.77 131.922 1049.88C130.859 1051.97 130.328 1054.53 130.328 1057.56C130.328 1060.58 130.859 1063.13 131.922 1065.23C132.984 1067.32 134.398 1068.91 136.164 1070.01C137.93 1071.09 139.867 1071.62 141.977 1071.62ZM162.906 1075V1050.25H166.891V1071.25H179.5V1050.25H183.484V1075H162.906ZM182.664 1082.5V1075H180.93V1071.25H186.648V1082.5H182.664ZM200.312 1075.56C197.891 1075.56 195.82 1075.01 194.102 1073.9C192.398 1072.79 191.094 1071.27 190.188 1069.33C189.281 1067.38 188.828 1065.16 188.828 1062.67C188.828 1060.16 189.305 1057.92 190.258 1055.97C191.211 1054.02 192.531 1052.48 194.219 1051.38C195.906 1050.25 197.844 1049.69 200.031 1049.69C202.328 1049.69 204.32 1050.23 206.008 1051.33C207.695 1052.42 208.992 1053.95 209.898 1055.9C210.82 1057.85 211.281 1060.11 211.281 1062.67V1063.77H192.766C192.859 1066.2 193.555 1068.16 194.852 1069.68C196.148 1071.2 197.969 1071.95 200.312 1071.95C202.078 1071.95 203.516 1071.55 204.625 1070.73C205.75 1069.92 206.5 1068.88 206.875 1067.59H210.859C210.547 1069.17 209.898 1070.56 208.914 1071.77C207.93 1072.95 206.695 1073.88 205.211 1074.55C203.742 1075.23 202.109 1075.56 200.312 1075.56ZM192.812 1060.35H207.297C207.078 1058.18 206.32 1056.45 205.023 1055.17C203.727 1053.89 202.062 1053.25 200.031 1053.25C198 1053.25 196.344 1053.89 195.062 1055.17C193.781 1056.45 193.031 1058.18 192.812 1060.35ZM219.812 1050.25V1060.75H232.562V1050.25H236.547V1075H232.562V1064.5H219.812V1075H215.828V1050.25H219.812ZM242.453 1075V1050.25H246.438V1060.94H249.109L258.602 1050.25H263.688L253.141 1062.2L263.828 1075H258.766L250.141 1064.69H246.438V1075H242.453ZM274.234 1075.38C271.781 1075.38 269.727 1074.74 268.07 1073.48C266.43 1072.21 265.609 1070.34 265.609 1067.88C265.609 1066.45 265.883 1065.3 266.43 1064.41C266.992 1063.52 267.734 1062.82 268.656 1062.32C269.594 1061.8 270.648 1061.41 271.82 1061.15C273.008 1060.88 274.219 1060.67 275.453 1060.52C277.031 1060.3 278.273 1060.13 279.18 1060.02C280.086 1059.91 280.727 1059.73 281.102 1059.48C281.492 1059.23 281.688 1058.8 281.688 1058.17V1057.94C281.688 1056.59 281.203 1055.48 280.234 1054.61C279.281 1053.73 277.938 1053.3 276.203 1053.3C274.484 1053.3 273.07 1053.72 271.961 1054.56C270.867 1055.39 270.273 1056.42 270.18 1057.66H266.125C266.203 1056.14 266.672 1054.8 267.531 1053.62C268.391 1052.44 269.562 1051.5 271.047 1050.81C272.531 1050.12 274.25 1049.78 276.203 1049.78C279.094 1049.78 281.383 1050.53 283.07 1052.03C284.773 1053.52 285.625 1055.48 285.625 1057.94V1075H281.688V1071.48H281.594C281.297 1072.08 280.859 1072.68 280.281 1073.29C279.703 1073.88 278.922 1074.38 277.938 1074.79C276.969 1075.18 275.734 1075.38 274.234 1075.38ZM274.797 1071.81C276.422 1071.81 277.742 1071.52 278.758 1070.95C279.773 1070.35 280.516 1069.59 280.984 1068.65C281.453 1067.71 281.688 1066.7 281.688 1065.62V1062.53C281.391 1062.81 280.602 1063.07 279.32 1063.3C278.039 1063.52 276.688 1063.73 275.266 1063.94C274.312 1064.06 273.406 1064.28 272.547 1064.59C271.703 1064.89 271.016 1065.32 270.484 1065.88C269.953 1066.43 269.688 1067.17 269.688 1068.11C269.688 1069.27 270.141 1070.17 271.047 1070.83C271.969 1071.48 273.219 1071.81 274.797 1071.81ZM313.75 1075.56C311.469 1075.56 309.461 1075.02 307.727 1073.92C306.008 1072.81 304.664 1071.29 303.695 1069.35C302.742 1067.41 302.266 1065.19 302.266 1062.67C302.266 1060.14 302.742 1057.9 303.695 1055.95C304.664 1053.99 306.008 1052.46 307.727 1051.35C309.461 1050.24 311.469 1049.69 313.75 1049.69C316.047 1049.69 318.055 1050.24 319.773 1051.35C321.492 1052.46 322.828 1053.99 323.781 1055.95C324.75 1057.9 325.234 1060.14 325.234 1062.67C325.234 1065.19 324.75 1067.41 323.781 1069.35C322.828 1071.29 321.492 1072.81 319.773 1073.92C318.055 1075.02 316.047 1075.56 313.75 1075.56ZM313.75 1071.95C316.094 1071.95 317.922 1071.11 319.234 1069.42C320.547 1067.72 321.203 1065.47 321.203 1062.67C321.203 1059.84 320.539 1057.58 319.211 1055.88C317.898 1054.16 316.078 1053.3 313.75 1053.3C311.422 1053.3 309.594 1054.15 308.266 1055.85C306.953 1057.55 306.297 1059.83 306.297 1062.67C306.297 1065.48 306.953 1067.73 308.266 1069.42C309.578 1071.11 311.406 1071.95 313.75 1071.95ZM335.922 1075V1053.86H327.273V1050.25H348.508V1053.86H339.906V1075H335.922ZM374.781 1040.08V1075H370.703V1044.44H370.68L361.984 1050.2V1045.89L370.703 1040.08H374.781ZM390.789 1082.5V1071.25H392.945C393.664 1070.5 394.258 1069.7 394.727 1068.84C395.195 1067.98 395.578 1066.85 395.875 1065.46C396.188 1064.07 396.445 1062.22 396.648 1059.91L397.539 1050.25H414.18V1071.25H418.164V1082.5H414.18V1075H394.773V1082.5H390.789ZM397.539 1071.25H410.195V1054H401.172L400.586 1059.91C400.336 1062.45 399.992 1064.68 399.555 1066.59C399.133 1068.49 398.461 1070.05 397.539 1071.25ZM431.875 1075.56C429.594 1075.56 427.586 1075.02 425.852 1073.92C424.133 1072.81 422.789 1071.29 421.82 1069.35C420.867 1067.41 420.391 1065.19 420.391 1062.67C420.391 1060.14 420.867 1057.9 421.82 1055.95C422.789 1053.99 424.133 1052.46 425.852 1051.35C427.586 1050.24 429.594 1049.69 431.875 1049.69C434.172 1049.69 436.18 1050.24 437.898 1051.35C439.617 1052.46 440.953 1053.99 441.906 1055.95C442.875 1057.9 443.359 1060.14 443.359 1062.67C443.359 1065.19 442.875 1067.41 441.906 1069.35C440.953 1071.29 439.617 1072.81 437.898 1073.92C436.18 1075.02 434.172 1075.56 431.875 1075.56ZM431.875 1071.95C434.219 1071.95 436.047 1071.11 437.359 1069.42C438.672 1067.72 439.328 1065.47 439.328 1062.67C439.328 1059.84 438.664 1057.58 437.336 1055.88C436.023 1054.16 434.203 1053.3 431.875 1053.3C429.547 1053.3 427.719 1054.15 426.391 1055.85C425.078 1057.55 424.422 1059.83 424.422 1062.67C424.422 1065.48 425.078 1067.73 426.391 1069.42C427.703 1071.11 429.531 1071.95 431.875 1071.95ZM470.945 1075.47C468.711 1075.47 466.703 1075.01 464.922 1074.09C463.141 1073.15 461.719 1071.88 460.656 1070.29C459.594 1068.7 459.016 1066.89 458.922 1064.88H463.141C463.328 1066.86 464.141 1068.5 465.578 1069.8C467.031 1071.08 468.82 1071.72 470.945 1071.72C472.461 1071.72 473.781 1071.37 474.906 1070.66C476.047 1069.96 476.938 1069 477.578 1067.78C478.219 1066.55 478.539 1065.14 478.539 1063.56C478.539 1061.98 478.234 1060.59 477.625 1059.37C477.016 1058.15 476.164 1057.2 475.07 1056.51C473.977 1055.8 472.703 1055.45 471.25 1055.45C469.328 1055.45 467.68 1055.84 466.305 1056.62C464.93 1057.39 463.969 1058.52 463.422 1060H459.367L460.539 1040.08H480.695V1043.83H464.359L463.516 1055.15H463.562C465.734 1052.82 468.469 1051.66 471.766 1051.66C473.906 1051.66 475.789 1052.16 477.414 1053.18C479.055 1054.2 480.328 1055.59 481.234 1057.38C482.156 1059.16 482.617 1061.2 482.617 1063.52C482.617 1065.86 482.125 1067.93 481.141 1069.73C480.172 1071.52 478.812 1072.93 477.062 1073.95C475.312 1074.96 473.273 1075.47 470.945 1075.47Z" fill="#43475A"/>
<path d="M190.6 1309.51C177.723 1309.51 166.865 1307.07 158.026 1302.2C149.256 1297.33 142.609 1290.82 138.085 1282.67C133.63 1274.53 131.403 1265.52 131.403 1255.63H162.097C162.097 1264.68 164.568 1271.75 169.51 1276.83C174.521 1281.91 181.447 1284.45 190.286 1284.45C198.569 1284.45 205.286 1282.36 210.436 1278.18C215.656 1273.94 218.267 1268.34 218.267 1261.38C218.267 1254.76 215.448 1249.47 209.81 1245.51C204.242 1241.47 196.864 1239.45 187.676 1239.45H173.791V1215.96H187.676C196.098 1215.96 202.78 1214.15 207.722 1210.53C212.733 1206.84 215.239 1201.87 215.239 1195.6C215.239 1188.92 212.907 1183.56 208.244 1179.52C203.65 1175.49 197.664 1173.47 190.286 1173.47C182.63 1173.47 176.47 1175.7 171.807 1180.15C167.144 1184.6 164.812 1190.59 164.812 1198.11H134.535C134.535 1188.64 136.797 1180.22 141.321 1172.84C145.915 1165.39 152.388 1159.55 160.74 1155.3C169.093 1151.06 178.941 1148.93 190.286 1148.93C200.936 1148.93 210.367 1150.81 218.58 1154.57C226.862 1158.26 233.335 1163.38 237.999 1169.92C242.732 1176.39 245.098 1183.87 245.098 1192.37C245.098 1201.13 242.349 1208.48 236.85 1214.39C231.352 1220.31 224.217 1224.17 215.448 1225.98V1226.3C226.306 1227.69 234.762 1231.86 240.818 1238.82C246.873 1245.78 249.901 1253.89 249.901 1263.15C249.901 1272.13 247.36 1280.1 242.279 1287.06C237.268 1294.02 230.308 1299.52 221.399 1303.55C212.49 1307.52 202.223 1309.51 190.6 1309.51ZM272.928 1308.88C268.056 1308.88 263.88 1307.17 260.4 1303.76C256.989 1300.28 255.284 1296.07 255.284 1291.13C255.284 1286.26 256.989 1282.08 260.4 1278.6C263.88 1275.12 268.056 1273.38 272.928 1273.38C277.87 1273.38 282.046 1275.12 285.456 1278.6C288.936 1282.08 290.677 1286.26 290.677 1291.13C290.677 1296.07 288.936 1300.28 285.456 1303.76C282.046 1307.17 277.87 1308.88 272.928 1308.88ZM298.878 1273.49V1248.64L367.367 1151.44H406.727V1248.53H427.086V1273.49H406.727V1307H376.555V1273.49H298.878ZM376.555 1248.53V1182.13H376.346L329.886 1248.33V1248.53H376.555Z" fill="#FB2C4B"/>
<path d="M700.562 1075H674.547V1040.08H678.766V1071.25H696.344V1040.08H700.562V1075ZM699.742 1082.5V1075H698.008V1071.25H703.727V1082.5H699.742ZM717.391 1075.56C714.969 1075.56 712.898 1075.01 711.18 1073.9C709.477 1072.79 708.172 1071.27 707.266 1069.33C706.359 1067.37 705.906 1065.16 705.906 1062.67C705.906 1060.16 706.383 1057.92 707.336 1055.97C708.289 1054.02 709.609 1052.48 711.297 1051.37C712.984 1050.25 714.922 1049.69 717.109 1049.69C719.406 1049.69 721.398 1050.23 723.086 1051.33C724.773 1052.42 726.07 1053.95 726.977 1055.9C727.898 1057.85 728.359 1060.11 728.359 1062.67V1063.77H709.844C709.937 1066.2 710.633 1068.16 711.93 1069.68C713.227 1071.2 715.047 1071.95 717.391 1071.95C719.156 1071.95 720.594 1071.55 721.703 1070.73C722.828 1069.92 723.578 1068.87 723.953 1067.59H727.937C727.625 1069.17 726.977 1070.56 725.992 1071.77C725.008 1072.95 723.773 1073.88 722.289 1074.55C720.82 1075.23 719.187 1075.56 717.391 1075.56ZM709.891 1060.35H724.375C724.156 1058.18 723.398 1056.45 722.102 1055.17C720.805 1053.89 719.141 1053.25 717.109 1053.25C715.078 1053.25 713.422 1053.89 712.141 1055.17C710.859 1056.45 710.109 1058.18 709.891 1060.35ZM730.305 1075V1071.25H731.242C732.039 1071.25 732.695 1071.13 733.211 1070.9C733.742 1070.65 734.164 1070.18 734.477 1069.49C734.805 1068.79 735.055 1067.77 735.227 1066.45C735.414 1065.1 735.555 1063.33 735.648 1061.12L736.117 1050.25H753.555V1075H749.57V1054H739.914L739.492 1062.62C739.352 1065.48 739.039 1067.83 738.555 1069.66C738.07 1071.47 737.281 1072.81 736.187 1073.69C735.109 1074.56 733.602 1075 731.664 1075H730.305ZM763.469 1058.69H770.641C772.469 1058.69 774.078 1059.03 775.469 1059.72C776.859 1060.41 777.945 1061.36 778.727 1062.58C779.523 1063.78 779.922 1065.17 779.922 1066.75C779.922 1068.36 779.523 1069.79 778.727 1071.04C777.945 1072.27 776.859 1073.24 775.469 1073.95C774.078 1074.65 772.469 1075 770.641 1075H759.484V1050.25H763.469V1058.69ZM763.469 1062.44V1071.25H770.5C772.172 1071.25 773.492 1070.84 774.461 1070.03C775.445 1069.22 775.937 1068.12 775.937 1066.75C775.937 1065.42 775.445 1064.37 774.461 1063.61C773.492 1062.83 772.172 1062.44 770.5 1062.44H763.469ZM786.883 1075.4C786.07 1075.4 785.375 1075.12 784.797 1074.55C784.234 1073.98 783.953 1073.28 783.953 1072.47C783.953 1071.64 784.234 1070.95 784.797 1070.38C785.375 1069.82 786.07 1069.54 786.883 1069.54C787.711 1069.54 788.406 1069.82 788.969 1070.38C789.531 1070.95 789.812 1071.64 789.812 1072.47C789.812 1073.28 789.531 1073.98 788.969 1074.55C788.406 1075.12 787.711 1075.4 786.883 1075.4ZM786.883 1057.02C786.07 1057.02 785.375 1056.74 784.797 1056.18C784.234 1055.6 783.953 1054.91 783.953 1054.09C783.953 1053.27 784.234 1052.57 784.797 1052.01C785.375 1051.45 786.07 1051.16 786.883 1051.16C787.711 1051.16 788.406 1051.45 788.969 1052.01C789.531 1052.57 789.812 1053.27 789.812 1054.09C789.812 1054.91 789.531 1055.6 788.969 1056.18C788.406 1056.74 787.711 1057.02 786.883 1057.02ZM805.375 1066.56V1063.09L822.086 1040.08H827.242V1062.81H832.586V1066.56H827.242V1075H823.211V1066.56H805.375ZM823.211 1062.81V1044.81H823.164L810.156 1062.77V1062.81H823.211ZM837.508 1075.4C836.695 1075.4 836 1075.12 835.422 1074.55C834.859 1073.98 834.578 1073.28 834.578 1072.47C834.578 1071.64 834.859 1070.95 835.422 1070.38C836 1069.82 836.695 1069.54 837.508 1069.54C838.336 1069.54 839.031 1069.82 839.594 1070.38C840.156 1070.95 840.437 1071.64 840.437 1072.47C840.437 1073.28 840.156 1073.98 839.594 1074.55C839.031 1075.12 838.336 1075.4 837.508 1075.4ZM856.281 1075.56C853.703 1075.56 851.469 1074.83 849.578 1073.36C847.703 1071.87 846.25 1069.79 845.219 1067.1C844.187 1064.41 843.672 1061.23 843.672 1057.56C843.672 1053.87 844.187 1050.69 845.219 1048C846.25 1045.3 847.703 1043.21 849.578 1041.74C851.469 1040.26 853.703 1039.52 856.281 1039.52C858.859 1039.52 861.094 1040.26 862.984 1041.74C864.875 1043.21 866.328 1045.3 867.344 1048C868.375 1050.69 868.891 1053.87 868.891 1057.56C868.891 1061.23 868.375 1064.41 867.344 1067.1C866.328 1069.79 864.875 1071.87 862.984 1073.36C861.094 1074.83 858.859 1075.56 856.281 1075.56ZM856.281 1071.81C858.953 1071.81 861.055 1070.55 862.586 1068.02C864.133 1065.47 864.906 1061.98 864.906 1057.56C864.906 1053.11 864.133 1049.62 862.586 1047.09C861.055 1044.54 858.953 1043.27 856.281 1043.27C853.609 1043.27 851.5 1044.54 849.953 1047.09C848.422 1049.62 847.656 1053.11 847.656 1057.56C847.656 1061.98 848.422 1065.47 849.953 1068.02C851.5 1070.55 853.609 1071.81 856.281 1071.81Z" fill="#96A2B1"/>
<path d="M479.162 1305.82H473.85V1281.23H473.756L456.85 1305.82H451.537V1272.82H456.85V1297.45H456.943L473.85 1272.82H479.162V1305.82ZM498.1 1306.32C495.558 1306.32 493.329 1305.88 491.412 1305.01C489.516 1304.11 488.037 1302.9 486.975 1301.38C485.933 1299.86 485.391 1298.14 485.35 1296.23H490.631C490.693 1297.98 491.402 1299.35 492.756 1300.35C494.11 1301.35 495.86 1301.85 498.006 1301.85C500.235 1301.85 502.037 1301.36 503.412 1300.38C504.808 1299.38 505.506 1298.09 505.506 1296.51C505.506 1294.86 504.787 1293.53 503.35 1292.51C501.912 1291.47 499.943 1290.95 497.443 1290.95H494.943V1286.73H497.443C499.527 1286.73 501.214 1286.26 502.506 1285.32C503.798 1284.36 504.443 1283.1 504.443 1281.54C504.443 1280.02 503.86 1278.8 502.693 1277.88C501.527 1276.95 499.975 1276.48 498.037 1276.48C496.12 1276.48 494.506 1276.95 493.193 1277.88C491.902 1278.82 491.235 1280.12 491.193 1281.79H486.1C486.141 1279.89 486.683 1278.22 487.725 1276.76C488.766 1275.3 490.183 1274.16 491.975 1273.35C493.787 1272.52 495.818 1272.1 498.068 1272.1C500.36 1272.1 502.36 1272.51 504.068 1273.32C505.798 1274.13 507.141 1275.23 508.1 1276.6C509.079 1277.98 509.568 1279.5 509.568 1281.16C509.568 1283 509.006 1284.58 507.881 1285.91C506.756 1287.25 505.204 1288.15 503.225 1288.63V1288.7C505.579 1289.03 507.423 1289.93 508.756 1291.41C510.11 1292.87 510.787 1294.63 510.787 1296.7C510.787 1298.53 510.235 1300.17 509.131 1301.63C508.048 1303.09 506.548 1304.24 504.631 1305.07C502.714 1305.9 500.537 1306.32 498.1 1306.32ZM547.443 1306.45C544.464 1306.45 541.787 1305.83 539.412 1304.6C537.037 1303.35 535.141 1301.66 533.725 1299.54C532.308 1297.41 531.537 1295.01 531.412 1292.32H537.037C537.287 1294.97 538.37 1297.15 540.287 1298.88C542.225 1300.59 544.61 1301.45 547.443 1301.45C549.464 1301.45 551.225 1300.98 552.725 1300.04C554.245 1299.1 555.433 1297.82 556.287 1296.2C557.141 1294.55 557.568 1292.67 557.568 1290.57C557.568 1288.47 557.162 1286.6 556.35 1284.98C555.537 1283.35 554.402 1282.08 552.943 1281.16C551.485 1280.23 549.787 1279.76 547.85 1279.76C545.287 1279.76 543.089 1280.28 541.256 1281.32C539.423 1282.34 538.141 1283.84 537.412 1285.82H532.006L533.568 1259.26H560.443V1264.26H538.662L537.537 1279.35H537.6C540.495 1276.25 544.141 1274.7 548.537 1274.7C551.391 1274.7 553.902 1275.37 556.068 1276.73C558.256 1278.08 559.954 1279.95 561.162 1282.32C562.391 1284.7 563.006 1287.42 563.006 1290.51C563.006 1293.63 562.35 1296.39 561.037 1298.79C559.745 1301.18 557.933 1303.06 555.6 1304.41C553.266 1305.77 550.548 1306.45 547.443 1306.45Z" fill="#96A2B1"/>
</svg>
