<svg width="355" height="354" viewBox="0 0 355 354" fill="none" xmlns="http://www.w3.org/2000/svg">
<rect width="354.5" height="354" rx="24" fill="white"/>
<path d="M40.6133 248L77.2344 175.812V175.695H34.6367V160.695H95.3984V175.52L58.8945 248H40.6133Z" fill="#43475A"/>
<path d="M38.6914 287.281C37.5117 287.281 36.4766 287.008 35.5859 286.461C34.7031 285.914 34.0156 285.156 33.5234 284.188C33.0312 283.211 32.7852 282.094 32.7852 280.836C32.7852 279.562 33.0312 278.438 33.5234 277.461C34.0234 276.484 34.7148 275.723 35.5977 275.176C36.4805 274.621 37.5117 274.344 38.6914 274.344C39.6758 274.344 40.5547 274.539 41.3281 274.93C42.1094 275.312 42.7422 275.844 43.2266 276.523C43.7109 277.203 44.0039 277.98 44.1055 278.855H41.6445C41.5195 278.16 41.207 277.59 40.707 277.145C40.207 276.699 39.5391 276.477 38.7031 276.477C37.6328 276.477 36.7969 276.871 36.1953 277.66C35.5938 278.449 35.293 279.508 35.293 280.836C35.293 282.148 35.5938 283.195 36.1953 283.977C36.7969 284.758 37.6328 285.148 38.7031 285.148C39.5547 285.148 40.2109 284.934 40.6719 284.504C41.1328 284.066 41.4453 283.484 41.6094 282.758H44.1055C44.0117 283.617 43.7227 284.391 43.2383 285.078C42.7539 285.758 42.1211 286.297 41.3398 286.695C40.5586 287.086 39.6758 287.281 38.6914 287.281ZM46.2148 291.898V274.625H48.6406V276.406H48.6758C49.0664 275.727 49.6016 275.219 50.2812 274.883C50.9609 274.547 51.7031 274.379 52.5078 274.379C53.5703 274.379 54.5039 274.652 55.3086 275.199C56.1133 275.738 56.7383 276.492 57.1836 277.461C57.6367 278.422 57.8633 279.539 57.8633 280.812C57.8633 282.086 57.6406 283.207 57.1953 284.176C56.75 285.137 56.125 285.891 55.3203 286.438C54.5156 286.977 53.5742 287.246 52.4961 287.246C51.6914 287.246 50.9648 287.07 50.3164 286.719C49.668 286.367 49.1367 285.84 48.7227 285.137H48.6875V291.898H46.2148ZM51.9922 285.113C52.9922 285.113 53.8008 284.746 54.418 284.012C55.043 283.277 55.3555 282.211 55.3555 280.812C55.3555 279.414 55.043 278.348 54.418 277.613C53.8008 276.871 52.9922 276.5 51.9922 276.5C50.9375 276.5 50.0938 276.895 49.4609 277.684C48.8359 278.465 48.5234 279.508 48.5234 280.812C48.5234 282.109 48.8359 283.152 49.4609 283.941C50.0938 284.723 50.9375 285.113 51.9922 285.113ZM65.3281 287.281C64.1016 287.281 63.0469 287.004 62.1641 286.449C61.2891 285.895 60.6133 285.133 60.1367 284.164C59.668 283.188 59.4336 282.078 59.4336 280.836C59.4336 279.578 59.6797 278.461 60.1719 277.484C60.6641 276.508 61.3438 275.742 62.2109 275.188C63.0781 274.625 64.0742 274.344 65.1992 274.344C66.3711 274.344 67.3867 274.617 68.2461 275.164C69.1133 275.711 69.7852 276.473 70.2617 277.449C70.7383 278.418 70.9766 279.539 70.9766 280.812V281.48H61.8711C61.918 282.598 62.2383 283.5 62.832 284.188C63.4336 284.875 64.2773 285.219 65.3633 285.219C66.1758 285.219 66.8438 285.035 67.3672 284.668C67.8906 284.301 68.2383 283.824 68.4102 283.238H70.7891C70.6406 284.035 70.3086 284.738 69.793 285.348C69.2852 285.957 68.6445 286.434 67.8711 286.777C67.1055 287.113 66.2578 287.281 65.3281 287.281ZM61.8945 279.605H68.5625C68.4609 278.621 68.1133 277.844 67.5195 277.273C66.9258 276.695 66.1602 276.406 65.2227 276.406C64.2852 276.406 63.5195 276.695 62.9258 277.273C62.3398 277.844 61.9961 278.621 61.8945 279.605ZM71.9844 290.773V284.785H73.0391C73.3984 284.457 73.6914 284.07 73.918 283.625C74.1445 283.172 74.3281 282.602 74.4688 281.914C74.6094 281.227 74.7266 280.355 74.8203 279.301L75.2305 274.625H84.0664V284.785H86.0703V290.773H83.6445V287H74.4453V290.773H71.9844ZM75.7344 284.785H81.6523V276.816H77.4219L77.1758 279.301C77.0664 280.551 76.9062 281.633 76.6953 282.547C76.4922 283.461 76.1719 284.207 75.7344 284.785ZM90.2422 274.625V279.699H96.1602V274.625H98.6328V287H96.1602V281.914H90.2422V287H87.7695V274.625H90.2422ZM106.719 287.281C105.492 287.281 104.438 287.004 103.555 286.449C102.68 285.895 102.004 285.133 101.527 284.164C101.059 283.188 100.824 282.078 100.824 280.836C100.824 279.578 101.07 278.461 101.562 277.484C102.055 276.508 102.734 275.742 103.602 275.188C104.469 274.625 105.465 274.344 106.59 274.344C107.762 274.344 108.777 274.617 109.637 275.164C110.504 275.711 111.176 276.473 111.652 277.449C112.129 278.418 112.367 279.539 112.367 280.812V281.48H103.262C103.309 282.598 103.629 283.5 104.223 284.188C104.824 284.875 105.668 285.219 106.754 285.219C107.566 285.219 108.234 285.035 108.758 284.668C109.281 284.301 109.629 283.824 109.801 283.238H112.18C112.031 284.035 111.699 284.738 111.184 285.348C110.676 285.957 110.035 286.434 109.262 286.777C108.496 287.113 107.648 287.281 106.719 287.281ZM103.285 279.605H109.953C109.852 278.621 109.504 277.844 108.91 277.273C108.316 276.695 107.551 276.406 106.613 276.406C105.676 276.406 104.91 276.695 104.316 277.273C103.73 277.844 103.387 278.621 103.285 279.605ZM119.797 287.281C118.57 287.281 117.516 287.004 116.633 286.449C115.758 285.895 115.082 285.133 114.605 284.164C114.137 283.188 113.902 282.078 113.902 280.836C113.902 279.578 114.148 278.461 114.641 277.484C115.133 276.508 115.812 275.742 116.68 275.188C117.547 274.625 118.543 274.344 119.668 274.344C120.84 274.344 121.855 274.617 122.715 275.164C123.582 275.711 124.254 276.473 124.73 277.449C125.207 278.418 125.445 279.539 125.445 280.812V281.48H116.34C116.387 282.598 116.707 283.5 117.301 284.188C117.902 284.875 118.746 285.219 119.832 285.219C120.645 285.219 121.312 285.035 121.836 284.668C122.359 284.301 122.707 283.824 122.879 283.238H125.258C125.109 284.035 124.777 284.738 124.262 285.348C123.754 285.957 123.113 286.434 122.34 286.777C121.574 287.113 120.727 287.281 119.797 287.281ZM116.363 279.605H123.031C122.93 278.621 122.582 277.844 121.988 277.273C121.395 276.695 120.629 276.406 119.691 276.406C118.754 276.406 117.988 276.695 117.395 277.273C116.809 277.844 116.465 278.621 116.363 279.605ZM133.309 287V274.625H138.559C140.035 274.625 141.203 274.902 142.062 275.457C142.922 276.012 143.352 276.828 143.352 277.906C143.352 278.633 143.145 279.215 142.73 279.652C142.324 280.082 141.754 280.363 141.02 280.496C141.824 280.598 142.492 280.898 143.023 281.398C143.562 281.891 143.832 282.59 143.832 283.496C143.832 284.559 143.449 285.41 142.684 286.051C141.918 286.684 140.824 287 139.402 287H133.309ZM135.652 284.891H139.344C139.992 284.891 140.492 284.754 140.844 284.48C141.195 284.207 141.371 283.816 141.371 283.309C141.371 282.746 141.195 282.312 140.844 282.008C140.492 281.703 139.992 281.551 139.344 281.551H135.652V284.891ZM135.652 279.758H138.664C139.383 279.758 139.938 279.621 140.328 279.348C140.719 279.066 140.914 278.672 140.914 278.164C140.914 277.695 140.707 277.336 140.293 277.086C139.887 276.828 139.309 276.699 138.559 276.699H135.652V279.758ZM146.012 291.898V274.625H148.438V276.406H148.473C148.863 275.727 149.398 275.219 150.078 274.883C150.758 274.547 151.5 274.379 152.305 274.379C153.367 274.379 154.301 274.652 155.105 275.199C155.91 275.738 156.535 276.492 156.98 277.461C157.434 278.422 157.66 279.539 157.66 280.812C157.66 282.086 157.438 283.207 156.992 284.176C156.547 285.137 155.922 285.891 155.117 286.438C154.312 286.977 153.371 287.246 152.293 287.246C151.488 287.246 150.762 287.07 150.113 286.719C149.465 286.367 148.934 285.84 148.52 285.137H148.484V291.898H146.012ZM151.789 285.113C152.789 285.113 153.598 284.746 154.215 284.012C154.84 283.277 155.152 282.211 155.152 280.812C155.152 279.414 154.84 278.348 154.215 277.613C153.598 276.871 152.789 276.5 151.789 276.5C150.734 276.5 149.891 276.895 149.258 277.684C148.633 278.465 148.32 279.508 148.32 280.812C148.32 282.109 148.633 283.152 149.258 283.941C149.891 284.723 150.734 285.113 151.789 285.113ZM165.125 287.281C163.898 287.281 162.844 287.004 161.961 286.449C161.086 285.895 160.41 285.133 159.934 284.164C159.465 283.188 159.23 282.078 159.23 280.836C159.23 279.578 159.477 278.461 159.969 277.484C160.461 276.508 161.141 275.742 162.008 275.188C162.875 274.625 163.871 274.344 164.996 274.344C166.168 274.344 167.184 274.617 168.043 275.164C168.91 275.711 169.582 276.473 170.059 277.449C170.535 278.418 170.773 279.539 170.773 280.812V281.48H161.668C161.715 282.598 162.035 283.5 162.629 284.188C163.23 284.875 164.074 285.219 165.16 285.219C165.973 285.219 166.641 285.035 167.164 284.668C167.688 284.301 168.035 283.824 168.207 283.238H170.586C170.438 284.035 170.105 284.738 169.59 285.348C169.082 285.957 168.441 286.434 167.668 286.777C166.902 287.113 166.055 287.281 165.125 287.281ZM161.691 279.605H168.359C168.258 278.621 167.91 277.844 167.316 277.273C166.723 276.695 165.957 276.406 165.02 276.406C164.082 276.406 163.316 276.695 162.723 277.273C162.137 277.844 161.793 278.621 161.691 279.605ZM172.918 287V274.625H176.633L179.434 281.293C179.637 281.809 179.82 282.312 179.984 282.805C180.148 283.289 180.312 283.758 180.477 284.211C180.633 283.758 180.793 283.289 180.957 282.805C181.121 282.312 181.305 281.809 181.508 281.293L184.285 274.625H188V287H185.551V281.293C185.551 280.426 185.555 279.672 185.562 279.031C185.57 278.383 185.578 277.742 185.586 277.109C185.336 277.766 185.082 278.434 184.824 279.113C184.574 279.785 184.293 280.508 183.98 281.281L181.52 287H179.398L176.926 281.281C176.613 280.531 176.328 279.828 176.07 279.172C175.82 278.508 175.574 277.859 175.332 277.227C175.34 277.836 175.348 278.457 175.355 279.09C175.363 279.715 175.367 280.449 175.367 281.293V287H172.918ZM200.82 287H198.395V282.547H195.312L192.43 287H189.641L192.816 282.207C191.98 281.926 191.336 281.484 190.883 280.883C190.438 280.281 190.215 279.535 190.215 278.645C190.215 277.363 190.641 276.375 191.492 275.68C192.352 274.977 193.559 274.625 195.113 274.625H200.82V287ZM198.395 280.602V276.699H195.383C194.438 276.699 193.746 276.855 193.309 277.168C192.871 277.48 192.652 277.977 192.652 278.656C192.652 279.344 192.879 279.84 193.332 280.145C193.785 280.449 194.492 280.602 195.453 280.602H198.395ZM33.3945 316V303.625H38.6445C40.1211 303.625 41.2891 303.902 42.1484 304.457C43.0078 305.012 43.4375 305.828 43.4375 306.906C43.4375 307.633 43.2305 308.215 42.8164 308.652C42.4102 309.082 41.8398 309.363 41.1055 309.496C41.9102 309.598 42.5781 309.898 43.1094 310.398C43.6484 310.891 43.918 311.59 43.918 312.496C43.918 313.559 43.5352 314.41 42.7695 315.051C42.0039 315.684 40.9102 316 39.4883 316H33.3945ZM35.7383 313.891H39.4297C40.0781 313.891 40.5781 313.754 40.9297 313.48C41.2812 313.207 41.457 312.816 41.457 312.309C41.457 311.746 41.2812 311.312 40.9297 311.008C40.5781 310.703 40.0781 310.551 39.4297 310.551H35.7383V313.891ZM35.7383 308.758H38.75C39.4688 308.758 40.0234 308.621 40.4141 308.348C40.8047 308.066 41 307.672 41 307.164C41 306.695 40.793 306.336 40.3789 306.086C39.9727 305.828 39.3945 305.699 38.6445 305.699H35.7383V308.758ZM48.5703 307.762H51.8164C53.2461 307.762 54.3984 308.137 55.2734 308.887C56.1484 309.637 56.5859 310.621 56.5859 311.84C56.5859 313.082 56.1484 314.086 55.2734 314.852C54.3984 315.617 53.2461 316 51.8164 316H46.0977V303.625H48.5703V307.762ZM48.5703 309.918V313.832H51.7227C52.4727 313.832 53.0625 313.652 53.4922 313.293C53.9297 312.934 54.1484 312.449 54.1484 311.84C54.1484 311.246 53.9297 310.777 53.4922 310.434C53.0625 310.09 52.4727 309.918 51.7227 309.918H48.5703ZM57.6641 316V303.625H60.1367V316H57.6641ZM73.6602 303.625V316H71.1875V305.84H65.3984V316H62.9258V303.625H73.6602ZM81.7695 316.281C80.5898 316.281 79.5547 316.008 78.6641 315.461C77.7734 314.914 77.0781 314.156 76.5781 313.188C76.0859 312.219 75.8398 311.102 75.8398 309.836C75.8398 308.555 76.0859 307.43 76.5781 306.461C77.0781 305.484 77.7734 304.723 78.6641 304.176C79.5547 303.621 80.5898 303.344 81.7695 303.344C82.9492 303.344 83.9805 303.621 84.8633 304.176C85.7539 304.723 86.4453 305.484 86.9375 306.461C87.4375 307.43 87.6875 308.555 87.6875 309.836C87.6875 311.102 87.4375 312.219 86.9375 313.188C86.4453 314.156 85.7539 314.914 84.8633 315.461C83.9805 316.008 82.9492 316.281 81.7695 316.281ZM81.7695 314.148C82.832 314.148 83.668 313.758 84.2773 312.977C84.8867 312.195 85.1914 311.148 85.1914 309.836C85.1914 308.508 84.8828 307.449 84.2656 306.66C83.6562 305.871 82.8242 305.477 81.7695 305.477C80.7148 305.477 79.8789 305.871 79.2617 306.66C78.6523 307.441 78.3477 308.5 78.3477 309.836C78.3477 311.156 78.6523 312.207 79.2617 312.988C79.8711 313.762 80.707 314.148 81.7695 314.148ZM88.6719 316V313.82H89.1641C89.6562 313.82 90.043 313.707 90.3242 313.48C90.6055 313.254 90.8125 312.809 90.9453 312.145C91.0781 311.473 91.1719 310.469 91.2266 309.133L91.4609 303.625H100.66V316H98.1875V305.793H93.8281L93.6289 309.836C93.5195 311.992 93.1719 313.559 92.5859 314.535C92 315.512 91 316 89.5859 316H88.6719ZM105.922 303.625V308.699H111.84V303.625H114.312V316H111.84V310.914H105.922V316H103.449V303.625H105.922ZM122.398 316.281C121.172 316.281 120.117 316.004 119.234 315.449C118.359 314.895 117.684 314.133 117.207 313.164C116.738 312.188 116.504 311.078 116.504 309.836C116.504 308.578 116.75 307.461 117.242 306.484C117.734 305.508 118.414 304.742 119.281 304.188C120.148 303.625 121.145 303.344 122.27 303.344C123.441 303.344 124.457 303.617 125.316 304.164C126.184 304.711 126.855 305.473 127.332 306.449C127.809 307.418 128.047 308.539 128.047 309.812V310.48H118.941C118.988 311.598 119.309 312.5 119.902 313.188C120.504 313.875 121.348 314.219 122.434 314.219C123.246 314.219 123.914 314.035 124.438 313.668C124.961 313.301 125.309 312.824 125.48 312.238H127.859C127.711 313.035 127.379 313.738 126.863 314.348C126.355 314.957 125.715 315.434 124.941 315.777C124.176 316.113 123.328 316.281 122.398 316.281ZM118.965 308.605H125.633C125.531 307.621 125.184 306.844 124.59 306.273C123.996 305.695 123.23 305.406 122.293 305.406C121.355 305.406 120.59 305.695 119.996 306.273C119.41 306.844 119.066 307.621 118.965 308.605ZM132.664 303.625V308.699H138.582V303.625H141.055V316H138.582V310.914H132.664V316H130.191V303.625H132.664ZM154.719 316H152.258V307.363H152.234L146.176 316H143.855V303.625H146.316V312.262H146.34L152.387 303.625H154.719V316ZM167.539 316H165.113V311.547H162.031L159.148 316H156.359L159.535 311.207C158.699 310.926 158.055 310.484 157.602 309.883C157.156 309.281 156.934 308.535 156.934 307.645C156.934 306.363 157.359 305.375 158.211 304.68C159.07 303.977 160.277 303.625 161.832 303.625H167.539V316ZM165.113 309.602V305.699H162.102C161.156 305.699 160.465 305.855 160.027 306.168C159.59 306.48 159.371 306.977 159.371 307.656C159.371 308.344 159.598 308.84 160.051 309.145C160.504 309.449 161.211 309.602 162.172 309.602H165.113ZM180.395 316.188C179.379 316.188 178.5 316.016 177.758 315.672C177.023 315.32 176.453 314.852 176.047 314.266C175.648 313.672 175.445 313.004 175.438 312.262H177.875C177.891 312.855 178.125 313.324 178.578 313.668C179.039 314.004 179.633 314.172 180.359 314.172C181.102 314.172 181.703 314.008 182.164 313.68C182.633 313.344 182.867 312.91 182.867 312.379C182.867 311.832 182.625 311.387 182.141 311.043C181.656 310.691 180.992 310.516 180.148 310.516H179.188V308.77H180.148C180.859 308.77 181.434 308.609 181.871 308.289C182.316 307.969 182.539 307.547 182.539 307.023C182.539 306.508 182.34 306.094 181.941 305.781C181.551 305.469 181.031 305.312 180.383 305.312C179.727 305.312 179.176 305.473 178.73 305.793C178.293 306.105 178.07 306.539 178.062 307.094H175.707C175.715 306.367 175.922 305.723 176.328 305.16C176.734 304.598 177.285 304.156 177.98 303.836C178.684 303.516 179.488 303.355 180.395 303.355C181.285 303.355 182.066 303.512 182.738 303.824C183.418 304.129 183.945 304.543 184.32 305.066C184.703 305.582 184.895 306.164 184.895 306.812C184.895 307.508 184.672 308.102 184.227 308.594C183.789 309.078 183.195 309.395 182.445 309.543V309.566C183.367 309.684 184.082 310.016 184.59 310.562C185.098 311.109 185.352 311.766 185.352 312.531C185.352 313.234 185.137 313.863 184.707 314.418C184.285 314.965 183.699 315.398 182.949 315.719C182.207 316.031 181.355 316.188 180.395 316.188ZM191.246 316.199C190.012 316.199 188.988 315.887 188.176 315.262C187.363 314.629 186.957 313.695 186.957 312.461C186.957 311.523 187.188 310.805 187.648 310.305C188.117 309.797 188.723 309.434 189.465 309.215C190.215 308.996 191.008 308.836 191.844 308.734C192.617 308.641 193.23 308.562 193.684 308.5C194.137 308.438 194.457 308.344 194.645 308.219C194.84 308.094 194.938 307.879 194.938 307.574V307.469C194.938 306.867 194.719 306.375 194.281 305.992C193.844 305.602 193.23 305.406 192.441 305.406C191.652 305.406 191.008 305.598 190.508 305.98C190.008 306.355 189.734 306.828 189.688 307.398H187.262C187.316 306.219 187.812 305.254 188.75 304.504C189.688 303.754 190.93 303.379 192.477 303.379C194 303.379 195.199 303.754 196.074 304.504C196.949 305.254 197.387 306.258 197.387 307.516V316H194.949V314.242H194.902C194.645 314.742 194.234 315.195 193.672 315.602C193.117 316 192.309 316.199 191.246 316.199ZM191.75 314.207C192.844 314.207 193.648 313.926 194.164 313.363C194.688 312.793 194.949 312.129 194.949 311.371V309.918C194.785 310.051 194.414 310.172 193.836 310.281C193.258 310.383 192.641 310.48 191.984 310.574C191.305 310.676 190.707 310.867 190.191 311.148C189.676 311.43 189.418 311.883 189.418 312.508C189.418 313.039 189.625 313.457 190.039 313.762C190.461 314.059 191.031 314.207 191.75 314.207ZM199.039 319.773V313.785H200.094C200.453 313.457 200.746 313.07 200.973 312.625C201.199 312.172 201.383 311.602 201.523 310.914C201.664 310.227 201.781 309.355 201.875 308.301L202.285 303.625H211.121V313.785H213.125V319.773H210.699V316H201.5V319.773H199.039ZM202.789 313.785H208.707V305.816H204.477L204.23 308.301C204.121 309.551 203.961 310.633 203.75 311.547C203.547 312.461 203.227 313.207 202.789 313.785ZM218.598 316.199C217.363 316.199 216.34 315.887 215.527 315.262C214.715 314.629 214.309 313.695 214.309 312.461C214.309 311.523 214.539 310.805 215 310.305C215.469 309.797 216.074 309.434 216.816 309.215C217.566 308.996 218.359 308.836 219.195 308.734C219.969 308.641 220.582 308.562 221.035 308.5C221.488 308.438 221.809 308.344 221.996 308.219C222.191 308.094 222.289 307.879 222.289 307.574V307.469C222.289 306.867 222.07 306.375 221.633 305.992C221.195 305.602 220.582 305.406 219.793 305.406C219.004 305.406 218.359 305.598 217.859 305.98C217.359 306.355 217.086 306.828 217.039 307.398H214.613C214.668 306.219 215.164 305.254 216.102 304.504C217.039 303.754 218.281 303.379 219.828 303.379C221.352 303.379 222.551 303.754 223.426 304.504C224.301 305.254 224.738 306.258 224.738 307.516V316H222.301V314.242H222.254C221.996 314.742 221.586 315.195 221.023 315.602C220.469 316 219.66 316.199 218.598 316.199ZM219.102 314.207C220.195 314.207 221 313.926 221.516 313.363C222.039 312.793 222.301 312.129 222.301 311.371V309.918C222.137 310.051 221.766 310.172 221.188 310.281C220.609 310.383 219.992 310.48 219.336 310.574C218.656 310.676 218.059 310.867 217.543 311.148C217.027 311.43 216.77 311.883 216.77 312.508C216.77 313.039 216.977 313.457 217.391 313.762C217.812 314.059 218.383 314.207 219.102 314.207ZM232.766 312.344C231.141 312.344 229.859 311.941 228.922 311.137C227.992 310.332 227.527 309.125 227.527 307.516V303.625H230V307.469C230 308.398 230.254 309.074 230.762 309.496C231.27 309.918 231.938 310.129 232.766 310.129C233.273 310.129 233.754 310.098 234.207 310.035C234.66 309.973 235.105 309.883 235.543 309.766V303.625H238.016V316H235.543V311.992C235.121 312.102 234.68 312.188 234.219 312.25C233.758 312.312 233.273 312.344 232.766 312.344ZM251.68 316H249.219V307.363H249.195L243.137 316H240.816V303.625H243.277V312.262H243.301L249.348 303.625H251.68V316Z" fill="#43475A"/>
<path d="M86.4854 227.401C86.9072 224.808 87.5635 222.159 88.4541 219.456C89.3604 216.753 90.4307 214.151 91.665 211.651C92.8994 209.136 94.2354 206.886 95.6729 204.901H98.6494C97.1338 207.214 95.7588 209.644 94.5244 212.19C93.3057 214.737 92.2666 217.308 91.4072 219.901C90.5635 222.479 89.9385 224.979 89.5322 227.401C88.4229 234.089 89.0557 241.12 91.4307 248.495H88.4541C87.2197 245.229 86.4307 241.808 86.0869 238.229C85.7432 234.636 85.876 231.026 86.4854 227.401ZM109.923 242.167C107.438 242.167 105.267 241.628 103.407 240.55C101.548 239.456 100.095 237.94 99.0479 236.003C98.0166 234.05 97.501 231.8 97.501 229.253C97.501 226.69 98.0166 224.44 99.0479 222.503C100.095 220.55 101.548 219.026 103.407 217.933C105.267 216.839 107.438 216.292 109.923 216.292C112.095 216.292 114.024 216.714 115.712 217.558C117.415 218.386 118.774 219.542 119.79 221.026C120.821 222.495 121.407 224.19 121.548 226.112H114.868C114.681 224.847 114.165 223.823 113.321 223.042C112.493 222.261 111.392 221.87 110.017 221.87C108.282 221.87 106.923 222.534 105.938 223.862C104.954 225.19 104.462 226.987 104.462 229.253C104.462 231.503 104.954 233.292 105.938 234.62C106.923 235.933 108.282 236.589 110.017 236.589C111.407 236.589 112.501 236.198 113.298 235.417C114.095 234.636 114.603 233.597 114.821 232.3H121.548C121.454 234.206 120.899 235.901 119.884 237.386C118.868 238.87 117.501 240.042 115.782 240.901C114.079 241.745 112.126 242.167 109.923 242.167ZM136.548 242.167C134.048 242.167 131.868 241.612 130.009 240.503C128.165 239.394 126.728 237.87 125.696 235.933C124.681 233.979 124.173 231.753 124.173 229.253C124.173 226.737 124.688 224.503 125.72 222.55C126.767 220.597 128.204 219.065 130.032 217.956C131.86 216.847 133.954 216.292 136.313 216.292C138.751 216.292 140.876 216.839 142.688 217.933C144.517 219.011 145.938 220.519 146.954 222.456C147.985 224.378 148.501 226.597 148.501 229.112V230.964H130.899C130.962 232.792 131.501 234.253 132.517 235.347C133.532 236.44 134.946 236.987 136.759 236.987C138.103 236.987 139.22 236.698 140.11 236.12C141.017 235.542 141.626 234.776 141.938 233.823H148.243C147.946 235.464 147.251 236.909 146.157 238.159C145.063 239.409 143.688 240.394 142.032 241.112C140.376 241.815 138.548 242.167 136.548 242.167ZM130.946 226.558H141.985C141.813 225.011 141.235 223.792 140.251 222.901C139.282 221.995 138.017 221.542 136.454 221.542C134.907 221.542 133.649 221.995 132.681 222.901C131.712 223.792 131.134 225.011 130.946 226.558ZM152.204 241.604V216.854H159.118V226.581H161.04L168.634 216.854H176.79L167.415 228.925L176.884 241.604H168.657L161.767 232.347H159.118V241.604H152.204ZM182.438 242.026C181.345 242.026 180.407 241.644 179.626 240.878C178.86 240.097 178.478 239.151 178.478 238.042C178.478 236.948 178.86 236.011 179.626 235.229C180.407 234.448 181.345 234.058 182.438 234.058C183.548 234.058 184.485 234.448 185.251 235.229C186.032 236.011 186.423 236.948 186.423 238.042C186.423 239.151 186.032 240.097 185.251 240.878C184.485 241.644 183.548 242.026 182.438 242.026ZM186.634 248.495C191.462 241.104 194.423 234.065 195.517 227.378C196.126 223.753 196.282 219.964 195.985 216.011C195.704 212.058 194.993 208.347 193.853 204.878H196.853C197.618 206.878 198.204 209.136 198.61 211.651C199.017 214.151 199.22 216.753 199.22 219.456C199.22 222.159 199.009 224.8 198.587 227.378C197.978 231.019 196.907 234.636 195.376 238.229C193.86 241.808 191.946 245.229 189.634 248.495H186.634Z" fill="#96A2B1"/>
</svg>
