<svg width="355" height="354" viewBox="0 0 355 354" fill="none" xmlns="http://www.w3.org/2000/svg">
<rect width="354.5" height="354" rx="24" fill="white"/>
<path d="M36.6875 248V234.758L68.6797 207.395C72.5469 203.996 75.75 200.852 78.2891 197.961C80.8281 195.031 82.0977 191.516 82.0977 187.414C82.0977 183.234 80.8281 179.914 78.2891 177.453C75.75 174.953 72.332 173.703 68.0352 173.703C63.3477 173.703 59.6562 175.207 56.9609 178.215C54.2656 181.223 52.918 185.383 52.918 190.695H36.3359C36.3359 184.367 37.625 178.859 40.2031 174.172C42.8203 169.445 46.4922 165.793 51.2187 163.215C55.9453 160.598 61.5508 159.289 68.0352 159.289C74.0117 159.289 79.3242 160.422 83.9727 162.687C88.6211 164.914 92.2539 168.059 94.8711 172.121C97.5273 176.184 98.8555 180.969 98.8555 186.477C98.8555 190.539 98.0937 194.25 96.5703 197.609C95.0469 200.969 92.8398 204.23 89.9492 207.395C87.0977 210.52 83.6406 213.82 79.5781 217.297L61.0625 233.41V233.527H99.2656V248H36.6875ZM138.322 249.406C127.423 249.406 118.966 245.656 112.951 238.156C106.935 230.656 103.927 220.129 103.927 206.574C103.927 197.004 105.255 188.684 107.912 181.613C110.607 174.504 114.552 169.016 119.748 165.148C124.982 161.242 131.408 159.289 139.025 159.289C144.845 159.289 149.943 160.383 154.318 162.57C158.732 164.758 162.267 167.746 164.923 171.535C167.58 175.324 169.162 179.621 169.67 184.426H152.795C152.17 181.027 150.646 178.312 148.224 176.281C145.802 174.25 142.677 173.234 138.849 173.234C132.599 173.234 127.97 175.734 124.962 180.734C121.994 185.734 120.509 192.316 120.509 200.48H120.627C122.775 197.16 125.646 194.621 129.24 192.863C132.834 191.105 136.896 190.227 141.427 190.227C147.052 190.227 152.052 191.496 156.427 194.035C160.841 196.535 164.298 199.992 166.798 204.406C169.337 208.781 170.607 213.781 170.607 219.406C170.607 225.344 169.22 230.578 166.447 235.109C163.712 239.602 159.904 243.117 155.021 245.656C150.177 248.156 144.611 249.406 138.322 249.406ZM138.205 235.227C141.095 235.227 143.693 234.543 145.998 233.176C148.302 231.77 150.119 229.875 151.447 227.492C152.814 225.109 153.498 222.414 153.498 219.406C153.498 214.953 152.052 211.242 149.162 208.273C146.271 205.266 142.677 203.762 138.38 203.762C135.49 203.762 132.873 204.465 130.529 205.871C128.224 207.238 126.388 209.113 125.021 211.496C123.693 213.84 123.029 216.496 123.029 219.465C123.029 222.434 123.693 225.109 125.021 227.492C126.349 229.875 128.166 231.77 130.47 233.176C132.775 234.543 135.353 235.227 138.205 235.227ZM255.484 249.406C251.499 249.406 247.984 248.508 244.937 246.711C241.89 244.914 239.507 242.395 237.788 239.152C236.07 235.91 235.21 232.16 235.21 227.902V226.145C235.21 221.848 236.07 218.098 237.788 214.895C239.507 211.652 241.89 209.133 244.937 207.336C247.984 205.5 251.499 204.582 255.484 204.582C259.429 204.582 262.925 205.5 265.972 207.336C269.019 209.133 271.402 211.652 273.12 214.895C274.878 218.098 275.757 221.848 275.757 226.145V227.902C275.757 232.16 274.878 235.91 273.12 239.152C271.402 242.395 269.019 244.914 265.972 246.711C262.925 248.508 259.429 249.406 255.484 249.406ZM198.413 204.113C194.468 204.113 190.972 203.215 187.925 201.418C184.878 199.621 182.495 197.102 180.777 193.859C179.058 190.617 178.198 186.867 178.198 182.609V180.852C178.198 176.555 179.058 172.805 180.777 169.602C182.495 166.359 184.878 163.84 187.925 162.043C190.972 160.207 194.468 159.289 198.413 159.289C202.398 159.289 205.913 160.207 208.96 162.043C212.007 163.84 214.39 166.359 216.109 169.602C217.827 172.805 218.687 176.555 218.687 180.852V182.609C218.687 186.867 217.827 190.617 216.109 193.859C214.39 197.102 212.007 199.621 208.96 201.418C205.913 203.215 202.398 204.113 198.413 204.113ZM190.503 248L250.503 160.695H263.277L203.277 248H190.503ZM198.413 193.391C200.796 193.391 202.691 192.492 204.097 190.695C205.542 188.859 206.265 186.164 206.265 182.609V180.852C206.265 177.258 205.542 174.543 204.097 172.707C202.691 170.871 200.796 169.953 198.413 169.953C196.07 169.953 194.175 170.871 192.73 172.707C191.323 174.543 190.62 177.258 190.62 180.852V182.609C190.62 186.164 191.323 188.859 192.73 190.695C194.175 192.492 196.07 193.391 198.413 193.391ZM255.484 238.684C257.827 238.684 259.702 237.785 261.109 235.988C262.554 234.152 263.277 231.457 263.277 227.902V226.145C263.277 222.551 262.554 219.836 261.109 218C259.702 216.164 257.827 215.246 255.484 215.246C253.101 215.246 251.206 216.164 249.8 218C248.394 219.836 247.691 222.551 247.691 226.145V227.902C247.691 231.457 248.394 234.152 249.8 235.988C251.206 237.785 253.101 238.684 255.484 238.684Z" fill="#43475A"/>
<path d="M38.7148 287.281C37.5352 287.281 36.5 287.008 35.6094 286.461C34.7188 285.914 34.0234 285.156 33.5234 284.188C33.0312 283.219 32.7852 282.102 32.7852 280.836C32.7852 279.555 33.0312 278.43 33.5234 277.461C34.0234 276.484 34.7188 275.723 35.6094 275.176C36.5 274.621 37.5352 274.344 38.7148 274.344C39.8945 274.344 40.9258 274.621 41.8086 275.176C42.6992 275.723 43.3906 276.484 43.8828 277.461C44.3828 278.43 44.6328 279.555 44.6328 280.836C44.6328 282.102 44.3828 283.219 43.8828 284.188C43.3906 285.156 42.6992 285.914 41.8086 286.461C40.9258 287.008 39.8945 287.281 38.7148 287.281ZM38.7148 285.148C39.7773 285.148 40.6133 284.758 41.2227 283.977C41.832 283.195 42.1367 282.148 42.1367 280.836C42.1367 279.508 41.8281 278.449 41.2109 277.66C40.6016 276.871 39.7695 276.477 38.7148 276.477C37.6602 276.477 36.8242 276.871 36.207 277.66C35.5977 278.441 35.293 279.5 35.293 280.836C35.293 282.156 35.5977 283.207 36.207 283.988C36.8164 284.762 37.6523 285.148 38.7148 285.148ZM45.1953 287L50.293 280.707L45.2539 274.625H48.1484L52.2734 279.758H53.1641V274.625H55.6367V279.758H56.5156L60.6172 274.625H63.5352L58.5078 280.707L63.5938 287H60.6289L56.4922 281.914H55.6367V287H53.1641V281.914H52.3086L48.1602 287H45.1953ZM76.1328 287H73.6719V278.363H73.6484L67.5898 287H65.2695V274.625H67.7305V283.262H67.7539L73.8008 274.625H76.1328V287ZM77.7969 290.773V284.785H78.8516C79.2109 284.457 79.5039 284.07 79.7305 283.625C79.957 283.172 80.1406 282.602 80.2812 281.914C80.4219 281.227 80.5391 280.355 80.6328 279.301L81.043 274.625H89.8789V284.785H91.8828V290.773H89.457V287H80.2578V290.773H77.7969ZM81.5469 284.785H87.4648V276.816H83.2344L82.9883 279.301C82.8789 280.551 82.7188 281.633 82.5078 282.547C82.3047 283.461 81.9844 284.207 81.5469 284.785ZM97.3555 287.199C96.1211 287.199 95.0977 286.887 94.2852 286.262C93.4727 285.629 93.0664 284.695 93.0664 283.461C93.0664 282.523 93.2969 281.805 93.7578 281.305C94.2266 280.797 94.832 280.434 95.5742 280.215C96.3242 279.996 97.1172 279.836 97.9531 279.734C98.7266 279.641 99.3398 279.562 99.793 279.5C100.246 279.438 100.566 279.344 100.754 279.219C100.949 279.094 101.047 278.879 101.047 278.574V278.469C101.047 277.867 100.828 277.375 100.391 276.992C99.9531 276.602 99.3398 276.406 98.5508 276.406C97.7617 276.406 97.1172 276.598 96.6172 276.98C96.1172 277.355 95.8438 277.828 95.7969 278.398H93.3711C93.4258 277.219 93.9219 276.254 94.8594 275.504C95.7969 274.754 97.0391 274.379 98.5859 274.379C100.109 274.379 101.309 274.754 102.184 275.504C103.059 276.254 103.496 277.258 103.496 278.516V287H101.059V285.242H101.012C100.754 285.742 100.344 286.195 99.7812 286.602C99.2266 287 98.418 287.199 97.3555 287.199ZM97.8594 285.207C98.9531 285.207 99.7578 284.926 100.273 284.363C100.797 283.793 101.059 283.129 101.059 282.371V280.918C100.895 281.051 100.523 281.172 99.9453 281.281C99.3672 281.383 98.75 281.48 98.0938 281.574C97.4141 281.676 96.8164 281.867 96.3008 282.148C95.7852 282.43 95.5273 282.883 95.5273 283.508C95.5273 284.039 95.7344 284.457 96.1484 284.762C96.5703 285.059 97.1406 285.207 97.8594 285.207ZM111.57 287.281C110.344 287.281 109.289 287.004 108.406 286.449C107.531 285.895 106.855 285.133 106.379 284.164C105.91 283.188 105.676 282.078 105.676 280.836C105.676 279.578 105.922 278.461 106.414 277.484C106.906 276.508 107.586 275.742 108.453 275.188C109.32 274.625 110.316 274.344 111.441 274.344C112.613 274.344 113.629 274.617 114.488 275.164C115.355 275.711 116.027 276.473 116.504 277.449C116.98 278.418 117.219 279.539 117.219 280.812V281.48H108.113C108.16 282.598 108.48 283.5 109.074 284.188C109.676 284.875 110.52 285.219 111.605 285.219C112.418 285.219 113.086 285.035 113.609 284.668C114.133 284.301 114.48 283.824 114.652 283.238H117.031C116.883 284.035 116.551 284.738 116.035 285.348C115.527 285.957 114.887 286.434 114.113 286.777C113.348 287.113 112.5 287.281 111.57 287.281ZM108.137 279.605H114.805C114.703 278.621 114.355 277.844 113.762 277.273C113.168 276.695 112.402 276.406 111.465 276.406C110.527 276.406 109.762 276.695 109.168 277.273C108.582 277.844 108.238 278.621 108.137 279.605ZM119.363 287V274.625H123.078L125.879 281.293C126.082 281.809 126.266 282.312 126.43 282.805C126.594 283.289 126.758 283.758 126.922 284.211C127.078 283.758 127.238 283.289 127.402 282.805C127.566 282.312 127.75 281.809 127.953 281.293L130.73 274.625H134.445V287H131.996V281.293C131.996 280.426 132 279.672 132.008 279.031C132.016 278.383 132.023 277.742 132.031 277.109C131.781 277.766 131.527 278.434 131.27 279.113C131.02 279.785 130.738 280.508 130.426 281.281L127.965 287H125.844L123.371 281.281C123.059 280.531 122.773 279.828 122.516 279.172C122.266 278.508 122.02 277.859 121.777 277.227C121.785 277.836 121.793 278.457 121.801 279.09C121.809 279.715 121.812 280.449 121.812 281.293V287H119.363ZM139.719 278.762H142.965C144.395 278.762 145.547 279.137 146.422 279.887C147.297 280.637 147.734 281.621 147.734 282.84C147.734 284.082 147.297 285.086 146.422 285.852C145.547 286.617 144.395 287 142.965 287H137.246V274.625H139.719V278.762ZM139.719 280.918V284.832H142.871C143.621 284.832 144.211 284.652 144.641 284.293C145.078 283.934 145.297 283.449 145.297 282.84C145.297 282.246 145.078 281.777 144.641 281.434C144.211 281.09 143.621 280.918 142.871 280.918H139.719ZM148.812 287V274.625H151.285V287H148.812ZM164.938 287H162.477V278.363H162.453L156.395 287H154.074V274.625H156.535V283.262H156.559L162.605 274.625H164.938V287ZM159.5 272.914C158.836 272.914 158.234 272.766 157.695 272.469C157.156 272.164 156.727 271.758 156.406 271.25C156.094 270.734 155.938 270.156 155.938 269.516H157.637C157.637 270.047 157.809 270.48 158.152 270.816C158.504 271.152 158.953 271.32 159.5 271.32C160.047 271.32 160.496 271.152 160.848 270.816C161.199 270.48 161.375 270.047 161.375 269.516H163.074C163.074 270.156 162.914 270.734 162.594 271.25C162.281 271.758 161.855 272.164 161.316 272.469C160.777 272.766 160.172 272.914 159.5 272.914ZM173.457 291.898V274.625H175.883V276.406H175.918C176.309 275.727 176.844 275.219 177.523 274.883C178.203 274.547 178.945 274.379 179.75 274.379C180.812 274.379 181.746 274.652 182.551 275.199C183.355 275.738 183.98 276.492 184.426 277.461C184.879 278.422 185.105 279.539 185.105 280.812C185.105 282.086 184.883 283.207 184.438 284.176C183.992 285.137 183.367 285.891 182.562 286.438C181.758 286.977 180.816 287.246 179.738 287.246C178.934 287.246 178.207 287.07 177.559 286.719C176.91 286.367 176.379 285.84 175.965 285.137H175.93V291.898H173.457ZM179.234 285.113C180.234 285.113 181.043 284.746 181.66 284.012C182.285 283.277 182.598 282.211 182.598 280.812C182.598 279.414 182.285 278.348 181.66 277.613C181.043 276.871 180.234 276.5 179.234 276.5C178.18 276.5 177.336 276.895 176.703 277.684C176.078 278.465 175.766 279.508 175.766 280.812C175.766 282.109 176.078 283.152 176.703 283.941C177.336 284.723 178.18 285.113 179.234 285.113ZM192.605 287.281C191.426 287.281 190.391 287.008 189.5 286.461C188.609 285.914 187.914 285.156 187.414 284.188C186.922 283.219 186.676 282.102 186.676 280.836C186.676 279.555 186.922 278.43 187.414 277.461C187.914 276.484 188.609 275.723 189.5 275.176C190.391 274.621 191.426 274.344 192.605 274.344C193.785 274.344 194.816 274.621 195.699 275.176C196.59 275.723 197.281 276.484 197.773 277.461C198.273 278.43 198.523 279.555 198.523 280.836C198.523 282.102 198.273 283.219 197.773 284.188C197.281 285.156 196.59 285.914 195.699 286.461C194.816 287.008 193.785 287.281 192.605 287.281ZM192.605 285.148C193.668 285.148 194.504 284.758 195.113 283.977C195.723 283.195 196.027 282.148 196.027 280.836C196.027 279.508 195.719 278.449 195.102 277.66C194.492 276.871 193.66 276.477 192.605 276.477C191.551 276.477 190.715 276.871 190.098 277.66C189.488 278.441 189.184 279.5 189.184 280.836C189.184 282.156 189.488 283.207 190.098 283.988C190.707 284.762 191.543 285.148 192.605 285.148ZM206.012 287.281C204.832 287.281 203.797 287.008 202.906 286.461C202.023 285.914 201.336 285.156 200.844 284.188C200.352 283.211 200.105 282.094 200.105 280.836C200.105 279.562 200.352 278.438 200.844 277.461C201.344 276.484 202.035 275.723 202.918 275.176C203.801 274.621 204.832 274.344 206.012 274.344C206.996 274.344 207.875 274.539 208.648 274.93C209.43 275.312 210.062 275.844 210.547 276.523C211.031 277.203 211.324 277.98 211.426 278.855H208.965C208.84 278.16 208.527 277.59 208.027 277.145C207.527 276.699 206.859 276.477 206.023 276.477C204.953 276.477 204.117 276.871 203.516 277.66C202.914 278.449 202.613 279.508 202.613 280.836C202.613 282.148 202.914 283.195 203.516 283.977C204.117 284.758 204.953 285.148 206.023 285.148C206.875 285.148 207.531 284.934 207.992 284.504C208.453 284.066 208.766 283.484 208.93 282.758H211.426C211.332 283.617 211.043 284.391 210.559 285.078C210.074 285.758 209.441 286.297 208.66 286.695C207.879 287.086 206.996 287.281 206.012 287.281ZM216.594 287V276.781H212.328V274.625H223.32V276.781H219.066V287H216.594ZM33.5938 316V298.539H40.2383C42.1055 298.539 43.5859 299.027 44.6797 300.004C45.7734 300.98 46.3203 302.305 46.3203 303.977C46.3203 305.195 46.0078 306.234 45.3828 307.094C44.7578 307.945 43.9023 308.566 42.8164 308.957L46.5898 316H43.6602L40.1797 309.391C40.1406 309.391 40.1016 309.391 40.0625 309.391H36.1953V316H33.5938ZM36.1953 307.176H40.1328C41.2578 307.176 42.1406 306.891 42.7812 306.32C43.4297 305.742 43.7539 304.961 43.7539 303.977C43.7539 302.992 43.4297 302.215 42.7812 301.645C42.1328 301.074 41.2461 300.789 40.1211 300.789H36.1953V307.176ZM53.4922 316.281C52.2656 316.281 51.2109 316.004 50.3281 315.449C49.4531 314.895 48.7773 314.133 48.3008 313.164C47.832 312.188 47.5977 311.078 47.5977 309.836C47.5977 308.578 47.8438 307.461 48.3359 306.484C48.8281 305.508 49.5078 304.742 50.375 304.188C51.2422 303.625 52.2383 303.344 53.3633 303.344C54.5352 303.344 55.5508 303.617 56.4102 304.164C57.2773 304.711 57.9492 305.473 58.4258 306.449C58.9023 307.418 59.1406 308.539 59.1406 309.812V310.48H50.0352C50.082 311.598 50.4023 312.5 50.9961 313.188C51.5977 313.875 52.4414 314.219 53.5273 314.219C54.3398 314.219 55.0078 314.035 55.5312 313.668C56.0547 313.301 56.4023 312.824 56.5742 312.238H58.9531C58.8047 313.035 58.4727 313.738 57.957 314.348C57.4492 314.957 56.8086 315.434 56.0352 315.777C55.2695 316.113 54.4219 316.281 53.4922 316.281ZM50.0586 308.605H56.7266C56.625 307.621 56.2773 306.844 55.6836 306.273C55.0898 305.695 54.3242 305.406 53.3867 305.406C52.4492 305.406 51.6836 305.695 51.0898 306.273C50.5039 306.844 50.1602 307.621 50.0586 308.605ZM67.25 303.625V305.664H64.7422V312.73C64.7422 313.191 64.8359 313.512 65.0234 313.691C65.2109 313.871 65.5508 313.961 66.043 313.961H67.25V316H65.6914C63.4023 316 62.2578 315.016 62.2578 313.047V305.664H60.0781V303.625H62.2578V300.25H64.7422V303.625H67.25ZM74.2812 316.281C73.0547 316.281 72 316.004 71.1172 315.449C70.2422 314.895 69.5664 314.133 69.0898 313.164C68.6211 312.188 68.3867 311.078 68.3867 309.836C68.3867 308.578 68.6328 307.461 69.125 306.484C69.6172 305.508 70.2969 304.742 71.1641 304.188C72.0312 303.625 73.0273 303.344 74.1523 303.344C75.3242 303.344 76.3398 303.617 77.1992 304.164C78.0664 304.711 78.7383 305.473 79.2148 306.449C79.6914 307.418 79.9297 308.539 79.9297 309.812V310.48H70.8242C70.8711 311.598 71.1914 312.5 71.7852 313.188C72.3867 313.875 73.2305 314.219 74.3164 314.219C75.1289 314.219 75.7969 314.035 76.3203 313.668C76.8438 313.301 77.1914 312.824 77.3633 312.238H79.7422C79.5938 313.035 79.2617 313.738 78.7461 314.348C78.2383 314.957 77.5977 315.434 76.8242 315.777C76.0586 316.113 75.2109 316.281 74.2812 316.281ZM70.8477 308.605H77.5156C77.4141 307.621 77.0664 306.844 76.4727 306.273C75.8789 305.695 75.1133 305.406 74.1758 305.406C73.2383 305.406 72.4727 305.695 71.8789 306.273C71.293 306.844 70.9492 307.621 70.8477 308.605ZM84.5469 308.875V316H82.0742V303.625H84.5V305.488C85.3438 304.082 86.5898 303.379 88.2383 303.379C89.0898 303.379 89.8516 303.566 90.5234 303.941C91.2031 304.309 91.7383 304.855 92.1289 305.582C92.5195 306.309 92.7148 307.211 92.7148 308.289V316H90.2422V308.594C90.2422 307.602 90.0039 306.855 89.5273 306.355C89.0508 305.848 88.3867 305.594 87.5352 305.594C86.6914 305.594 85.9805 305.855 85.4023 306.379C84.832 306.895 84.5469 307.727 84.5469 308.875ZM101.469 303.625V305.664H98.9609V312.73C98.9609 313.191 99.0547 313.512 99.2422 313.691C99.4297 313.871 99.7695 313.961 100.262 313.961H101.469V316H99.9102C97.6211 316 96.4766 315.016 96.4766 313.047V305.664H94.2969V303.625H96.4766V300.25H98.9609V303.625H101.469ZM103.426 316V303.625H105.898V316H103.426ZM104.656 301.492C104.219 301.492 103.848 301.348 103.543 301.059C103.246 300.762 103.098 300.402 103.098 299.98C103.098 299.551 103.246 299.191 103.543 298.902C103.848 298.605 104.219 298.457 104.656 298.457C105.094 298.457 105.465 298.605 105.77 298.902C106.074 299.191 106.227 299.551 106.227 299.98C106.227 300.402 106.074 300.762 105.77 301.059C105.465 301.348 105.094 301.492 104.656 301.492ZM114.02 316.281C112.84 316.281 111.805 316.008 110.914 315.461C110.023 314.914 109.328 314.156 108.828 313.188C108.336 312.219 108.09 311.102 108.09 309.836C108.09 308.555 108.336 307.43 108.828 306.461C109.328 305.484 110.023 304.723 110.914 304.176C111.805 303.621 112.84 303.344 114.02 303.344C115.199 303.344 116.23 303.621 117.113 304.176C118.004 304.723 118.695 305.484 119.188 306.461C119.688 307.43 119.938 308.555 119.938 309.836C119.938 311.102 119.688 312.219 119.188 313.188C118.695 314.156 118.004 314.914 117.113 315.461C116.23 316.008 115.199 316.281 114.02 316.281ZM114.02 314.148C115.082 314.148 115.918 313.758 116.527 312.977C117.137 312.195 117.441 311.148 117.441 309.836C117.441 308.508 117.133 307.449 116.516 306.66C115.906 305.871 115.074 305.477 114.02 305.477C112.965 305.477 112.129 305.871 111.512 306.66C110.902 307.441 110.598 308.5 110.598 309.836C110.598 311.156 110.902 312.207 111.512 312.988C112.121 313.762 112.957 314.148 114.02 314.148ZM124.602 308.875V316H122.129V303.625H124.555V305.488C125.398 304.082 126.645 303.379 128.293 303.379C129.145 303.379 129.906 303.566 130.578 303.941C131.258 304.309 131.793 304.855 132.184 305.582C132.574 306.309 132.77 307.211 132.77 308.289V316H130.297V308.594C130.297 307.602 130.059 306.855 129.582 306.355C129.105 305.848 128.441 305.594 127.59 305.594C126.746 305.594 126.035 305.855 125.457 306.379C124.887 306.895 124.602 307.727 124.602 308.875Z" fill="#43475A"/>
</svg>
