<svg width="355" height="354" viewBox="0 0 355 354" fill="none" xmlns="http://www.w3.org/2000/svg">
<rect width="354.5" height="354" rx="24" fill="white"/>
<path d="M71.0234 249.406C63.6797 249.406 57.3711 247.59 52.0977 243.957C46.8242 240.285 42.7617 235.09 39.9102 228.371C37.0977 221.613 35.6914 213.625 35.6914 204.406C35.6914 195.148 37.0977 187.141 39.9102 180.383C42.7617 173.625 46.8242 168.43 52.0977 164.797C57.3711 161.125 63.6797 159.289 71.0234 159.289C78.3281 159.289 84.6172 161.125 89.8906 164.797C95.1641 168.43 99.2266 173.625 102.078 180.383C104.93 187.141 106.355 195.148 106.355 204.406C106.355 213.664 104.93 221.652 102.078 228.371C99.2266 235.09 95.1641 240.285 89.8906 243.957C84.6172 247.59 78.3281 249.406 71.0234 249.406ZM71.0234 234.992C76.6875 234.992 81.1602 232.277 84.4414 226.848C87.7227 221.379 89.3633 213.898 89.3633 204.406C89.3633 194.875 87.7227 187.375 84.4414 181.906C81.1602 176.437 76.6875 173.703 71.0234 173.703C65.3203 173.703 60.8281 176.437 57.5469 181.906C54.3047 187.375 52.6836 194.875 52.6836 204.406C52.6836 213.898 54.3047 221.379 57.5469 226.848C60.8281 232.277 65.3203 234.992 71.0234 234.992ZM191.232 249.406C187.248 249.406 183.732 248.508 180.685 246.711C177.638 244.914 175.255 242.395 173.537 239.152C171.818 235.91 170.959 232.16 170.959 227.902V226.145C170.959 221.848 171.818 218.098 173.537 214.895C175.255 211.652 177.638 209.133 180.685 207.336C183.732 205.5 187.248 204.582 191.232 204.582C195.177 204.582 198.673 205.5 201.72 207.336C204.767 209.133 207.15 211.652 208.869 214.895C210.627 218.098 211.505 221.848 211.505 226.145V227.902C211.505 232.16 210.627 235.91 208.869 239.152C207.15 242.395 204.767 244.914 201.72 246.711C198.673 248.508 195.177 249.406 191.232 249.406ZM134.162 204.113C130.216 204.113 126.72 203.215 123.673 201.418C120.627 199.621 118.244 197.102 116.525 193.859C114.806 190.617 113.947 186.867 113.947 182.609V180.852C113.947 176.555 114.806 172.805 116.525 169.602C118.244 166.359 120.627 163.84 123.673 162.043C126.72 160.207 130.216 159.289 134.162 159.289C138.146 159.289 141.662 160.207 144.709 162.043C147.755 163.84 150.138 166.359 151.857 169.602C153.576 172.805 154.435 176.555 154.435 180.852V182.609C154.435 186.867 153.576 190.617 151.857 193.859C150.138 197.102 147.755 199.621 144.709 201.418C141.662 203.215 138.146 204.113 134.162 204.113ZM126.252 248L186.252 160.695H199.025L139.025 248H126.252ZM134.162 193.391C136.545 193.391 138.439 192.492 139.845 190.695C141.291 188.859 142.013 186.164 142.013 182.609V180.852C142.013 177.258 141.291 174.543 139.845 172.707C138.439 170.871 136.545 169.953 134.162 169.953C131.818 169.953 129.923 170.871 128.478 172.707C127.072 174.543 126.369 177.258 126.369 180.852V182.609C126.369 186.164 127.072 188.859 128.478 190.695C129.923 192.492 131.818 193.391 134.162 193.391ZM191.232 238.684C193.576 238.684 195.451 237.785 196.857 235.988C198.302 234.152 199.025 231.457 199.025 227.902V226.145C199.025 222.551 198.302 219.836 196.857 218C195.451 216.164 193.576 215.246 191.232 215.246C188.849 215.246 186.955 216.164 185.548 218C184.142 219.836 183.439 222.551 183.439 226.145V227.902C183.439 231.457 184.142 234.152 185.548 235.988C186.955 237.785 188.849 238.684 191.232 238.684Z" fill="#43475A"/>
<path d="M38.7148 287.281C37.5352 287.281 36.5 287.008 35.6094 286.461C34.7188 285.914 34.0234 285.156 33.5234 284.188C33.0312 283.219 32.7852 282.102 32.7852 280.836C32.7852 279.555 33.0312 278.43 33.5234 277.461C34.0234 276.484 34.7188 275.723 35.6094 275.176C36.5 274.621 37.5352 274.344 38.7148 274.344C39.8945 274.344 40.9258 274.621 41.8086 275.176C42.6992 275.723 43.3906 276.484 43.8828 277.461C44.3828 278.43 44.6328 279.555 44.6328 280.836C44.6328 282.102 44.3828 283.219 43.8828 284.188C43.3906 285.156 42.6992 285.914 41.8086 286.461C40.9258 287.008 39.8945 287.281 38.7148 287.281ZM38.7148 285.148C39.7773 285.148 40.6133 284.758 41.2227 283.977C41.832 283.195 42.1367 282.148 42.1367 280.836C42.1367 279.508 41.8281 278.449 41.2109 277.66C40.6016 276.871 39.7695 276.477 38.7148 276.477C37.6602 276.477 36.8242 276.871 36.207 277.66C35.5977 278.441 35.293 279.5 35.293 280.836C35.293 282.156 35.5977 283.207 36.207 283.988C36.8164 284.762 37.6523 285.148 38.7148 285.148ZM46.8242 274.625H49.2969V284.785H53.832V274.625H56.2695V284.785H60.793V274.625H63.2773V287H46.8242V274.625ZM76.9297 287H74.4688V278.363H74.4453L68.3867 287H66.0664V274.625H68.5273V283.262H68.5508L74.5977 274.625H76.9297V287ZM89.7734 269.035L90.8281 270.594C90.2422 271.141 89.5273 271.461 88.6836 271.555C87.8398 271.648 86.793 271.711 85.543 271.742C84.1367 271.789 83.0938 272.23 82.4141 273.066C81.7422 273.902 81.3359 275.156 81.1953 276.828H81.3594C81.7812 276.016 82.3711 275.41 83.1289 275.012C83.8945 274.605 84.75 274.402 85.6953 274.402C86.7422 274.402 87.6758 274.645 88.4961 275.129C89.3242 275.605 89.9727 276.309 90.4414 277.238C90.918 278.168 91.1562 279.305 91.1562 280.648C91.1562 282.008 90.9102 283.184 90.418 284.176C89.9258 285.168 89.2305 285.934 88.332 286.473C87.4336 287.004 86.3789 287.27 85.168 287.27C83.3398 287.27 81.875 286.648 80.7734 285.406C79.6719 284.156 79.1211 282.324 79.1211 279.91V278.621C79.1367 272.652 81.2578 269.625 85.4844 269.539C85.7188 269.531 85.9453 269.527 86.1641 269.527C86.3828 269.527 86.5938 269.527 86.7969 269.527C87.4766 269.535 88.0625 269.52 88.5547 269.48C89.0469 269.434 89.4531 269.285 89.7734 269.035ZM85.1797 285.172C86.25 285.164 87.0938 284.758 87.7109 283.953C88.3281 283.148 88.6367 282.059 88.6367 280.684C88.6367 279.348 88.3242 278.316 87.6992 277.59C87.082 276.855 86.2266 276.488 85.1328 276.488C84.0703 276.488 83.2266 276.855 82.6016 277.59C81.9844 278.316 81.668 279.348 81.6523 280.684C81.6523 282.043 81.9648 283.129 82.5898 283.941C83.2148 284.754 84.0781 285.164 85.1797 285.172ZM98.668 287.281C97.4883 287.281 96.4531 287.008 95.5625 286.461C94.6719 285.914 93.9766 285.156 93.4766 284.188C92.9844 283.219 92.7383 282.102 92.7383 280.836C92.7383 279.555 92.9844 278.43 93.4766 277.461C93.9766 276.484 94.6719 275.723 95.5625 275.176C96.4531 274.621 97.4883 274.344 98.668 274.344C99.8477 274.344 100.879 274.621 101.762 275.176C102.652 275.723 103.344 276.484 103.836 277.461C104.336 278.43 104.586 279.555 104.586 280.836C104.586 282.102 104.336 283.219 103.836 284.188C103.344 285.156 102.652 285.914 101.762 286.461C100.879 287.008 99.8477 287.281 98.668 287.281ZM98.668 285.148C99.7305 285.148 100.566 284.758 101.176 283.977C101.785 283.195 102.09 282.148 102.09 280.836C102.09 279.508 101.781 278.449 101.164 277.66C100.555 276.871 99.7227 276.477 98.668 276.477C97.6133 276.477 96.7773 276.871 96.1602 277.66C95.5508 278.441 95.2461 279.5 95.2461 280.836C95.2461 282.156 95.5508 283.207 96.1602 283.988C96.7695 284.762 97.6055 285.148 98.668 285.148ZM106.777 287V274.625H109.25V279.805H110.469L114.898 274.625H117.945L112.871 280.625L118.016 287H114.957L110.926 282.02H109.25V287H106.777ZM130.355 287.281C129.176 287.281 128.141 287.008 127.25 286.461C126.367 285.914 125.68 285.156 125.188 284.188C124.695 283.211 124.449 282.094 124.449 280.836C124.449 279.562 124.695 278.438 125.188 277.461C125.688 276.484 126.379 275.723 127.262 275.176C128.145 274.621 129.176 274.344 130.355 274.344C131.34 274.344 132.219 274.539 132.992 274.93C133.773 275.312 134.406 275.844 134.891 276.523C135.375 277.203 135.668 277.98 135.77 278.855H133.309C133.184 278.16 132.871 277.59 132.371 277.145C131.871 276.699 131.203 276.477 130.367 276.477C129.297 276.477 128.461 276.871 127.859 277.66C127.258 278.449 126.957 279.508 126.957 280.836C126.957 282.148 127.258 283.195 127.859 283.977C128.461 284.758 129.297 285.148 130.367 285.148C131.219 285.148 131.875 284.934 132.336 284.504C132.797 284.066 133.109 283.484 133.273 282.758H135.77C135.676 283.617 135.387 284.391 134.902 285.078C134.418 285.758 133.785 286.297 133.004 286.695C132.223 287.086 131.34 287.281 130.355 287.281ZM143.199 287.281C142.02 287.281 140.984 287.008 140.094 286.461C139.203 285.914 138.508 285.156 138.008 284.188C137.516 283.219 137.27 282.102 137.27 280.836C137.27 279.555 137.516 278.43 138.008 277.461C138.508 276.484 139.203 275.723 140.094 275.176C140.984 274.621 142.02 274.344 143.199 274.344C144.379 274.344 145.41 274.621 146.293 275.176C147.184 275.723 147.875 276.484 148.367 277.461C148.867 278.43 149.117 279.555 149.117 280.836C149.117 282.102 148.867 283.219 148.367 284.188C147.875 285.156 147.184 285.914 146.293 286.461C145.41 287.008 144.379 287.281 143.199 287.281ZM143.199 285.148C144.262 285.148 145.098 284.758 145.707 283.977C146.316 283.195 146.621 282.148 146.621 280.836C146.621 279.508 146.312 278.449 145.695 277.66C145.086 276.871 144.254 276.477 143.199 276.477C142.145 276.477 141.309 276.871 140.691 277.66C140.082 278.441 139.777 279.5 139.777 280.836C139.777 282.156 140.082 283.207 140.691 283.988C141.301 284.762 142.137 285.148 143.199 285.148ZM151.309 287V274.625H156.559C158.035 274.625 159.203 274.902 160.062 275.457C160.922 276.012 161.352 276.828 161.352 277.906C161.352 278.633 161.145 279.215 160.73 279.652C160.324 280.082 159.754 280.363 159.02 280.496C159.824 280.598 160.492 280.898 161.023 281.398C161.562 281.891 161.832 282.59 161.832 283.496C161.832 284.559 161.449 285.41 160.684 286.051C159.918 286.684 158.824 287 157.402 287H151.309ZM153.652 284.891H157.344C157.992 284.891 158.492 284.754 158.844 284.48C159.195 284.207 159.371 283.816 159.371 283.309C159.371 282.746 159.195 282.312 158.844 282.008C158.492 281.703 157.992 281.551 157.344 281.551H153.652V284.891ZM153.652 279.758H156.664C157.383 279.758 157.938 279.621 158.328 279.348C158.719 279.066 158.914 278.672 158.914 278.164C158.914 277.695 158.707 277.336 158.293 277.086C157.887 276.828 157.309 276.699 156.559 276.699H153.652V279.758ZM169.297 287.281C168.07 287.281 167.016 287.004 166.133 286.449C165.258 285.895 164.582 285.133 164.105 284.164C163.637 283.188 163.402 282.078 163.402 280.836C163.402 279.578 163.648 278.461 164.141 277.484C164.633 276.508 165.312 275.742 166.18 275.188C167.047 274.625 168.043 274.344 169.168 274.344C170.34 274.344 171.355 274.617 172.215 275.164C173.082 275.711 173.754 276.473 174.23 277.449C174.707 278.418 174.945 279.539 174.945 280.812V281.48H165.84C165.887 282.598 166.207 283.5 166.801 284.188C167.402 284.875 168.246 285.219 169.332 285.219C170.145 285.219 170.812 285.035 171.336 284.668C171.859 284.301 172.207 283.824 172.379 283.238H174.758C174.609 284.035 174.277 284.738 173.762 285.348C173.254 285.957 172.613 286.434 171.84 286.777C171.074 287.113 170.227 287.281 169.297 287.281ZM165.863 279.605H172.531C172.43 278.621 172.082 277.844 171.488 277.273C170.895 276.695 170.129 276.406 169.191 276.406C168.254 276.406 167.488 276.695 166.895 277.273C166.309 277.844 165.965 278.621 165.863 279.605ZM177.09 291.898V274.625H179.516V276.406H179.551C179.941 275.727 180.477 275.219 181.156 274.883C181.836 274.547 182.578 274.379 183.383 274.379C184.445 274.379 185.379 274.652 186.184 275.199C186.988 275.738 187.613 276.492 188.059 277.461C188.512 278.422 188.738 279.539 188.738 280.812C188.738 282.086 188.516 283.207 188.07 284.176C187.625 285.137 187 285.891 186.195 286.438C185.391 286.977 184.449 287.246 183.371 287.246C182.566 287.246 181.84 287.07 181.191 286.719C180.543 286.367 180.012 285.84 179.598 285.137H179.562V291.898H177.09ZM182.867 285.113C183.867 285.113 184.676 284.746 185.293 284.012C185.918 283.277 186.23 282.211 186.23 280.812C186.23 279.414 185.918 278.348 185.293 277.613C184.676 276.871 183.867 276.5 182.867 276.5C181.812 276.5 180.969 276.895 180.336 277.684C179.711 278.465 179.398 279.508 179.398 280.812C179.398 282.109 179.711 283.152 180.336 283.941C180.969 284.723 181.812 285.113 182.867 285.113ZM190.918 274.625H193.391V284.785H197.926V274.625H200.363V284.785H204.887V274.625H207.371V287H190.918V274.625ZM213.934 287.199C212.699 287.199 211.676 286.887 210.863 286.262C210.051 285.629 209.645 284.695 209.645 283.461C209.645 282.523 209.875 281.805 210.336 281.305C210.805 280.797 211.41 280.434 212.152 280.215C212.902 279.996 213.695 279.836 214.531 279.734C215.305 279.641 215.918 279.562 216.371 279.5C216.824 279.438 217.145 279.344 217.332 279.219C217.527 279.094 217.625 278.879 217.625 278.574V278.469C217.625 277.867 217.406 277.375 216.969 276.992C216.531 276.602 215.918 276.406 215.129 276.406C214.34 276.406 213.695 276.598 213.195 276.98C212.695 277.355 212.422 277.828 212.375 278.398H209.949C210.004 277.219 210.5 276.254 211.438 275.504C212.375 274.754 213.617 274.379 215.164 274.379C216.688 274.379 217.887 274.754 218.762 275.504C219.637 276.254 220.074 277.258 220.074 278.516V287H217.637V285.242H217.59C217.332 285.742 216.922 286.195 216.359 286.602C215.805 287 214.996 287.199 213.934 287.199ZM214.438 285.207C215.531 285.207 216.336 284.926 216.852 284.363C217.375 283.793 217.637 283.129 217.637 282.371V280.918C217.473 281.051 217.102 281.172 216.523 281.281C215.945 281.383 215.328 281.48 214.672 281.574C213.992 281.676 213.395 281.867 212.879 282.148C212.363 282.43 212.105 282.883 212.105 283.508C212.105 284.039 212.312 284.457 212.727 284.762C213.148 285.059 213.719 285.207 214.438 285.207ZM222.863 287V274.625H225.336V279.699H228.102C228.242 278.629 228.57 277.695 229.086 276.898C229.609 276.094 230.285 275.469 231.113 275.023C231.941 274.57 232.887 274.344 233.949 274.344C235.129 274.344 236.164 274.621 237.055 275.176C237.945 275.723 238.637 276.484 239.129 277.461C239.621 278.43 239.867 279.555 239.867 280.836C239.867 282.102 239.621 283.219 239.129 284.188C238.637 285.156 237.945 285.914 237.055 286.461C236.164 287.008 235.129 287.281 233.949 287.281C232.887 287.281 231.938 287.059 231.102 286.613C230.273 286.16 229.598 285.531 229.074 284.727C228.559 283.922 228.23 282.984 228.09 281.914H225.336V287H222.863ZM233.949 285.148C235.012 285.148 235.848 284.758 236.457 283.977C237.066 283.195 237.371 282.148 237.371 280.836C237.371 279.508 237.062 278.449 236.445 277.66C235.836 276.871 235.004 276.477 233.949 276.477C232.895 276.477 232.059 276.871 231.441 277.66C230.832 278.441 230.527 279.5 230.527 280.836C230.527 282.156 230.832 283.207 231.441 283.988C232.051 284.762 232.887 285.148 233.949 285.148ZM245.117 287V276.781H240.852V274.625H251.844V276.781H247.59V287H245.117ZM44.1289 303.625V316H41.6562V305.84H35.8672V316H33.3945V303.625H44.1289ZM52.2383 316.281C51.0586 316.281 50.0234 316.008 49.1328 315.461C48.2422 314.914 47.5469 314.156 47.0469 313.188C46.5547 312.219 46.3086 311.102 46.3086 309.836C46.3086 308.555 46.5547 307.43 47.0469 306.461C47.5469 305.484 48.2422 304.723 49.1328 304.176C50.0234 303.621 51.0586 303.344 52.2383 303.344C53.418 303.344 54.4492 303.621 55.332 304.176C56.2227 304.723 56.9141 305.484 57.4062 306.461C57.9062 307.43 58.1562 308.555 58.1562 309.836C58.1562 311.102 57.9062 312.219 57.4062 313.188C56.9141 314.156 56.2227 314.914 55.332 315.461C54.4492 316.008 53.418 316.281 52.2383 316.281ZM52.2383 314.148C53.3008 314.148 54.1367 313.758 54.7461 312.977C55.3555 312.195 55.6602 311.148 55.6602 309.836C55.6602 308.508 55.3516 307.449 54.7344 306.66C54.125 305.871 53.293 305.477 52.2383 305.477C51.1836 305.477 50.3477 305.871 49.7305 306.66C49.1211 307.441 48.8164 308.5 48.8164 309.836C48.8164 311.156 49.1211 312.207 49.7305 312.988C50.3398 313.762 51.1758 314.148 52.2383 314.148ZM59.1406 316V313.82H59.6328C60.125 313.82 60.5117 313.707 60.793 313.48C61.0742 313.254 61.2812 312.809 61.4141 312.145C61.5469 311.473 61.6406 310.469 61.6953 309.133L61.9297 303.625H71.1289V316H68.6562V305.793H64.2969L64.0977 309.836C63.9883 311.992 63.6406 313.559 63.0547 314.535C62.4688 315.512 61.4688 316 60.0547 316H59.1406ZM76.3906 307.762H79.6367C81.0664 307.762 82.2188 308.137 83.0938 308.887C83.9688 309.637 84.4062 310.621 84.4062 311.84C84.4062 313.082 83.9688 314.086 83.0938 314.852C82.2188 315.617 81.0664 316 79.6367 316H73.918V303.625H76.3906V307.762ZM76.3906 309.918V313.832H79.543C80.293 313.832 80.8828 313.652 81.3125 313.293C81.75 312.934 81.9688 312.449 81.9688 311.84C81.9688 311.246 81.75 310.777 81.3125 310.434C80.8828 310.09 80.293 309.918 79.543 309.918H76.3906ZM90.9336 316.188C89.918 316.188 89.0391 316.016 88.2969 315.672C87.5625 315.32 86.9922 314.852 86.5859 314.266C86.1875 313.672 85.9844 313.004 85.9766 312.262H88.4141C88.4297 312.855 88.6641 313.324 89.1172 313.668C89.5781 314.004 90.1719 314.172 90.8984 314.172C91.6406 314.172 92.2422 314.008 92.7031 313.68C93.1719 313.344 93.4062 312.91 93.4062 312.379C93.4062 311.832 93.1641 311.387 92.6797 311.043C92.1953 310.691 91.5312 310.516 90.6875 310.516H89.7266V308.77H90.6875C91.3984 308.77 91.9727 308.609 92.4102 308.289C92.8555 307.969 93.0781 307.547 93.0781 307.023C93.0781 306.508 92.8789 306.094 92.4805 305.781C92.0898 305.469 91.5703 305.312 90.9219 305.312C90.2656 305.312 89.7148 305.473 89.2695 305.793C88.832 306.105 88.6094 306.539 88.6016 307.094H86.2461C86.2539 306.367 86.4609 305.723 86.8672 305.16C87.2734 304.598 87.8242 304.156 88.5195 303.836C89.2227 303.516 90.0273 303.355 90.9336 303.355C91.8242 303.355 92.6055 303.512 93.2773 303.824C93.957 304.129 94.4844 304.543 94.8594 305.066C95.2422 305.582 95.4336 306.164 95.4336 306.812C95.4336 307.508 95.2109 308.102 94.7656 308.594C94.3281 309.078 93.7344 309.395 92.9844 309.543V309.566C93.9062 309.684 94.6211 310.016 95.1289 310.562C95.6367 311.109 95.8906 311.766 95.8906 312.531C95.8906 313.234 95.6758 313.863 95.2461 314.418C94.8242 314.965 94.2383 315.398 93.4883 315.719C92.7461 316.031 91.8945 316.188 90.9336 316.188ZM103.332 316.281C102.152 316.281 101.117 316.008 100.227 315.461C99.3359 314.914 98.6406 314.156 98.1406 313.188C97.6484 312.219 97.4023 311.102 97.4023 309.836C97.4023 308.555 97.6484 307.43 98.1406 306.461C98.6406 305.484 99.3359 304.723 100.227 304.176C101.117 303.621 102.152 303.344 103.332 303.344C104.512 303.344 105.543 303.621 106.426 304.176C107.316 304.723 108.008 305.484 108.5 306.461C109 307.43 109.25 308.555 109.25 309.836C109.25 311.102 109 312.219 108.5 313.188C108.008 314.156 107.316 314.914 106.426 315.461C105.543 316.008 104.512 316.281 103.332 316.281ZM103.332 314.148C104.395 314.148 105.23 313.758 105.84 312.977C106.449 312.195 106.754 311.148 106.754 309.836C106.754 308.508 106.445 307.449 105.828 306.66C105.219 305.871 104.387 305.477 103.332 305.477C102.277 305.477 101.441 305.871 100.824 306.66C100.215 307.441 99.9102 308.5 99.9102 309.836C99.9102 311.156 100.215 312.207 100.824 312.988C101.434 313.762 102.27 314.148 103.332 314.148ZM111.441 316V303.625H116.691C118.168 303.625 119.336 303.902 120.195 304.457C121.055 305.012 121.484 305.828 121.484 306.906C121.484 307.633 121.277 308.215 120.863 308.652C120.457 309.082 119.887 309.363 119.152 309.496C119.957 309.598 120.625 309.898 121.156 310.398C121.695 310.891 121.965 311.59 121.965 312.496C121.965 313.559 121.582 314.41 120.816 315.051C120.051 315.684 118.957 316 117.535 316H111.441ZM113.785 313.891H117.477C118.125 313.891 118.625 313.754 118.977 313.48C119.328 313.207 119.504 312.816 119.504 312.309C119.504 311.746 119.328 311.312 118.977 311.008C118.625 310.703 118.125 310.551 117.477 310.551H113.785V313.891ZM113.785 308.758H116.797C117.516 308.758 118.07 308.621 118.461 308.348C118.852 308.066 119.047 307.672 119.047 307.164C119.047 306.695 118.84 306.336 118.426 306.086C118.02 305.828 117.441 305.699 116.691 305.699H113.785V308.758ZM127.918 316.199C126.684 316.199 125.66 315.887 124.848 315.262C124.035 314.629 123.629 313.695 123.629 312.461C123.629 311.523 123.859 310.805 124.32 310.305C124.789 309.797 125.395 309.434 126.137 309.215C126.887 308.996 127.68 308.836 128.516 308.734C129.289 308.641 129.902 308.562 130.355 308.5C130.809 308.438 131.129 308.344 131.316 308.219C131.512 308.094 131.609 307.879 131.609 307.574V307.469C131.609 306.867 131.391 306.375 130.953 305.992C130.516 305.602 129.902 305.406 129.113 305.406C128.324 305.406 127.68 305.598 127.18 305.98C126.68 306.355 126.406 306.828 126.359 307.398H123.934C123.988 306.219 124.484 305.254 125.422 304.504C126.359 303.754 127.602 303.379 129.148 303.379C130.672 303.379 131.871 303.754 132.746 304.504C133.621 305.254 134.059 306.258 134.059 307.516V316H131.621V314.242H131.574C131.316 314.742 130.906 315.195 130.344 315.602C129.789 316 128.98 316.199 127.918 316.199ZM128.422 314.207C129.516 314.207 130.32 313.926 130.836 313.363C131.359 312.793 131.621 312.129 131.621 311.371V309.918C131.457 310.051 131.086 310.172 130.508 310.281C129.93 310.383 129.312 310.48 128.656 310.574C127.977 310.676 127.379 310.867 126.863 311.148C126.348 311.43 126.09 311.883 126.09 312.508C126.09 313.039 126.297 313.457 126.711 313.762C127.133 314.059 127.703 314.207 128.422 314.207ZM139.906 316V305.781H135.641V303.625H146.633V305.781H142.379V316H139.906ZM153.312 316.281C152.086 316.281 151.031 316.004 150.148 315.449C149.273 314.895 148.598 314.133 148.121 313.164C147.652 312.188 147.418 311.078 147.418 309.836C147.418 308.578 147.664 307.461 148.156 306.484C148.648 305.508 149.328 304.742 150.195 304.188C151.062 303.625 152.059 303.344 153.184 303.344C154.355 303.344 155.371 303.617 156.23 304.164C157.098 304.711 157.77 305.473 158.246 306.449C158.723 307.418 158.961 308.539 158.961 309.812V310.48H149.855C149.902 311.598 150.223 312.5 150.816 313.188C151.418 313.875 152.262 314.219 153.348 314.219C154.16 314.219 154.828 314.035 155.352 313.668C155.875 313.301 156.223 312.824 156.395 312.238H158.773C158.625 313.035 158.293 313.738 157.777 314.348C157.27 314.957 156.629 315.434 155.855 315.777C155.09 316.113 154.242 316.281 153.312 316.281ZM149.879 308.605H156.547C156.445 307.621 156.098 306.844 155.504 306.273C154.91 305.695 154.145 305.406 153.207 305.406C152.27 305.406 151.504 305.695 150.91 306.273C150.324 306.844 149.98 307.621 149.879 308.605ZM159.898 316V313.82H160.391C160.883 313.82 161.27 313.707 161.551 313.48C161.832 313.254 162.039 312.809 162.172 312.145C162.305 311.473 162.398 310.469 162.453 309.133L162.688 303.625H171.887V316H169.414V305.793H165.055L164.855 309.836C164.746 311.992 164.398 313.559 163.812 314.535C163.227 315.512 162.227 316 160.812 316H159.898ZM185.539 316H183.078V307.363H183.055L176.996 316H174.676V303.625H177.137V312.262H177.16L183.207 303.625H185.539V316Z" fill="#43475A"/>
</svg>
