<svg width="355" height="354" viewBox="0 0 355 354" fill="none" xmlns="http://www.w3.org/2000/svg">
<rect width="354.5" height="354" rx="24" fill="white"/>
<path d="M35.3984 229.191V215.246L73.8359 160.695H95.9258V215.187H107.352V229.191H95.9258V248H78.9922V229.191H35.3984ZM78.9922 215.187V177.922H78.875L52.8008 215.07V215.187H78.9922ZM117.931 249.055C115.197 249.055 112.853 248.098 110.9 246.184C108.986 244.23 108.029 241.867 108.029 239.094C108.029 236.359 108.986 234.016 110.9 232.062C112.853 230.109 115.197 229.133 117.931 229.133C120.705 229.133 123.048 230.109 124.962 232.062C126.916 234.016 127.892 236.359 127.892 239.094C127.892 241.867 126.916 244.23 124.962 246.184C123.048 248.098 120.705 249.055 117.931 249.055ZM134.077 248L170.698 175.812V175.695H128.101V160.695H188.862V175.52L152.359 248H134.077Z" fill="#43475A"/>
<path d="M38.7148 287.281C37.5352 287.281 36.5 287.008 35.6094 286.461C34.7188 285.914 34.0234 285.156 33.5234 284.188C33.0312 283.219 32.7852 282.102 32.7852 280.836C32.7852 279.555 33.0312 278.43 33.5234 277.461C34.0234 276.484 34.7188 275.723 35.6094 275.176C36.5 274.621 37.5352 274.344 38.7148 274.344C39.8945 274.344 40.9258 274.621 41.8086 275.176C42.6992 275.723 43.3906 276.484 43.8828 277.461C44.3828 278.43 44.6328 279.555 44.6328 280.836C44.6328 282.102 44.3828 283.219 43.8828 284.188C43.3906 285.156 42.6992 285.914 41.8086 286.461C40.9258 287.008 39.8945 287.281 38.7148 287.281ZM38.7148 285.148C39.7773 285.148 40.6133 284.758 41.2227 283.977C41.832 283.195 42.1367 282.148 42.1367 280.836C42.1367 279.508 41.8281 278.449 41.2109 277.66C40.6016 276.871 39.7695 276.477 38.7148 276.477C37.6602 276.477 36.8242 276.871 36.207 277.66C35.5977 278.441 35.293 279.5 35.293 280.836C35.293 282.156 35.5977 283.207 36.207 283.988C36.8164 284.762 37.6523 285.148 38.7148 285.148ZM46.8242 287V274.625H49.2969V284.785H55.0859V274.625H57.5586V287H46.8242ZM56.7148 290.75V287H55.8008V284.727H59.2109L59.1641 290.75H56.7148ZM66.2656 287.281C65.0391 287.281 63.9844 287.004 63.1016 286.449C62.2266 285.895 61.5508 285.133 61.0742 284.164C60.6055 283.188 60.3711 282.078 60.3711 280.836C60.3711 279.578 60.6172 278.461 61.1094 277.484C61.6016 276.508 62.2812 275.742 63.1484 275.188C64.0156 274.625 65.0117 274.344 66.1367 274.344C67.3086 274.344 68.3242 274.617 69.1836 275.164C70.0508 275.711 70.7227 276.473 71.1992 277.449C71.6758 278.418 71.9141 279.539 71.9141 280.812V281.48H62.8086C62.8555 282.598 63.1758 283.5 63.7695 284.188C64.3711 284.875 65.2148 285.219 66.3008 285.219C67.1133 285.219 67.7812 285.035 68.3047 284.668C68.8281 284.301 69.1758 283.824 69.3477 283.238H71.7266C71.5781 284.035 71.2461 284.738 70.7305 285.348C70.2227 285.957 69.582 286.434 68.8086 286.777C68.043 287.113 67.1953 287.281 66.2656 287.281ZM62.832 279.605H69.5C69.3984 278.621 69.0508 277.844 68.457 277.273C67.8633 276.695 67.0977 276.406 66.1602 276.406C65.2227 276.406 64.457 276.695 63.8633 277.273C63.2773 277.844 62.9336 278.621 62.832 279.605ZM76.5312 274.625V279.699H82.4492V274.625H84.9219V287H82.4492V281.914H76.5312V287H74.0586V274.625H76.5312ZM87.7227 287V274.625H90.1953V279.805H91.4141L95.8438 274.625H98.8906L93.8164 280.625L98.9609 287H95.9023L91.8711 282.02H90.1953V287H87.7227ZM104.059 287.199C102.824 287.199 101.801 286.887 100.988 286.262C100.176 285.629 99.7695 284.695 99.7695 283.461C99.7695 282.523 100 281.805 100.461 281.305C100.93 280.797 101.535 280.434 102.277 280.215C103.027 279.996 103.82 279.836 104.656 279.734C105.43 279.641 106.043 279.562 106.496 279.5C106.949 279.438 107.27 279.344 107.457 279.219C107.652 279.094 107.75 278.879 107.75 278.574V278.469C107.75 277.867 107.531 277.375 107.094 276.992C106.656 276.602 106.043 276.406 105.254 276.406C104.465 276.406 103.82 276.598 103.32 276.98C102.82 277.355 102.547 277.828 102.5 278.398H100.074C100.129 277.219 100.625 276.254 101.562 275.504C102.5 274.754 103.742 274.379 105.289 274.379C106.812 274.379 108.012 274.754 108.887 275.504C109.762 276.254 110.199 277.258 110.199 278.516V287H107.762V285.242H107.715C107.457 285.742 107.047 286.195 106.484 286.602C105.93 287 105.121 287.199 104.059 287.199ZM104.562 285.207C105.656 285.207 106.461 284.926 106.977 284.363C107.5 283.793 107.762 283.129 107.762 282.371V280.918C107.598 281.051 107.227 281.172 106.648 281.281C106.07 281.383 105.453 281.48 104.797 281.574C104.117 281.676 103.52 281.867 103.004 282.148C102.488 282.43 102.23 282.883 102.23 283.508C102.23 284.039 102.438 284.457 102.852 284.762C103.273 285.059 103.844 285.207 104.562 285.207ZM124.297 291.465V287.281C123.086 287.266 122.012 286.984 121.074 286.438C120.145 285.883 119.414 285.125 118.883 284.164C118.359 283.195 118.098 282.082 118.098 280.824C118.098 279.566 118.359 278.453 118.883 277.484C119.414 276.516 120.145 275.754 121.074 275.199C122.012 274.645 123.086 274.359 124.297 274.344V269.539H126.781V274.344C127.992 274.359 129.062 274.645 129.992 275.199C130.93 275.754 131.66 276.516 132.184 277.484C132.715 278.453 132.98 279.566 132.98 280.824C132.98 282.082 132.715 283.195 132.184 284.164C131.66 285.125 130.93 285.883 129.992 286.438C129.062 286.984 127.992 287.266 126.781 287.281V291.465H124.297ZM126.781 285.125C127.906 285.125 128.805 284.738 129.477 283.965C130.148 283.184 130.484 282.141 130.484 280.836C130.484 279.523 130.148 278.473 129.477 277.684C128.805 276.895 127.906 276.5 126.781 276.5V285.125ZM124.297 285.125V276.5C123.172 276.5 122.277 276.895 121.613 277.684C120.949 278.473 120.617 279.523 120.617 280.836C120.617 282.141 120.949 283.184 121.613 283.965C122.277 284.738 123.172 285.125 124.297 285.125ZM134.879 291.898V289.812H136.215C136.605 289.812 136.922 289.699 137.164 289.473C137.414 289.254 137.633 288.891 137.82 288.383L138.383 286.918L133.602 274.625H136.25L138.723 281.41C138.887 281.871 139.047 282.336 139.203 282.805C139.359 283.266 139.512 283.727 139.66 284.188C139.809 283.727 139.961 283.266 140.117 282.805C140.281 282.336 140.445 281.871 140.609 281.41L143.047 274.625H145.66L140.035 289.168C139.34 290.988 138.145 291.898 136.449 291.898H134.879ZM149.82 274.625V279.699H155.738V274.625H158.211V287H155.738V281.914H149.82V287H147.348V274.625H149.82ZM161.012 287V274.625H163.484V279.805H164.703L169.133 274.625H172.18L167.105 280.625L172.25 287H169.191L165.16 282.02H163.484V287H161.012ZM173.574 287V274.625H176.047V284.785H181.836V274.625H184.309V287H173.574ZM183.465 290.75V287H182.551V284.727H185.961L185.914 290.75H183.465ZM198.594 287H196.133V278.363H196.109L190.051 287H187.73V274.625H190.191V283.262H190.215L196.262 274.625H198.594V287ZM212.258 287H209.797V278.363H209.773L203.715 287H201.395V274.625H203.855V283.262H203.879L209.926 274.625H212.258V287ZM44.1289 303.625V316H41.6562V305.84H35.8672V316H33.3945V303.625H44.1289ZM52.2383 316.281C51.0586 316.281 50.0234 316.008 49.1328 315.461C48.2422 314.914 47.5469 314.156 47.0469 313.188C46.5547 312.219 46.3086 311.102 46.3086 309.836C46.3086 308.555 46.5547 307.43 47.0469 306.461C47.5469 305.484 48.2422 304.723 49.1328 304.176C50.0234 303.621 51.0586 303.344 52.2383 303.344C53.418 303.344 54.4492 303.621 55.332 304.176C56.2227 304.723 56.9141 305.484 57.4062 306.461C57.9062 307.43 58.1562 308.555 58.1562 309.836C58.1562 311.102 57.9062 312.219 57.4062 313.188C56.9141 314.156 56.2227 314.914 55.332 315.461C54.4492 316.008 53.418 316.281 52.2383 316.281ZM52.2383 314.148C53.3008 314.148 54.1367 313.758 54.7461 312.977C55.3555 312.195 55.6602 311.148 55.6602 309.836C55.6602 308.508 55.3516 307.449 54.7344 306.66C54.125 305.871 53.293 305.477 52.2383 305.477C51.1836 305.477 50.3477 305.871 49.7305 306.66C49.1211 307.441 48.8164 308.5 48.8164 309.836C48.8164 311.156 49.1211 312.207 49.7305 312.988C50.3398 313.762 51.1758 314.148 52.2383 314.148ZM59.1406 316V313.82H59.6328C60.125 313.82 60.5117 313.707 60.793 313.48C61.0742 313.254 61.2812 312.809 61.4141 312.145C61.5469 311.473 61.6406 310.469 61.6953 309.133L61.9297 303.625H71.1289V316H68.6562V305.793H64.2969L64.0977 309.836C63.9883 311.992 63.6406 313.559 63.0547 314.535C62.4688 315.512 61.4688 316 60.0547 316H59.1406ZM76.3906 307.762H79.6367C81.0664 307.762 82.2188 308.137 83.0938 308.887C83.9688 309.637 84.4062 310.621 84.4062 311.84C84.4062 313.082 83.9688 314.086 83.0938 314.852C82.2188 315.617 81.0664 316 79.6367 316H73.918V303.625H76.3906V307.762ZM76.3906 309.918V313.832H79.543C80.293 313.832 80.8828 313.652 81.3125 313.293C81.75 312.934 81.9688 312.449 81.9688 311.84C81.9688 311.246 81.75 310.777 81.3125 310.434C80.8828 310.09 80.293 309.918 79.543 309.918H76.3906ZM90.9336 316.188C89.918 316.188 89.0391 316.016 88.2969 315.672C87.5625 315.32 86.9922 314.852 86.5859 314.266C86.1875 313.672 85.9844 313.004 85.9766 312.262H88.4141C88.4297 312.855 88.6641 313.324 89.1172 313.668C89.5781 314.004 90.1719 314.172 90.8984 314.172C91.6406 314.172 92.2422 314.008 92.7031 313.68C93.1719 313.344 93.4062 312.91 93.4062 312.379C93.4062 311.832 93.1641 311.387 92.6797 311.043C92.1953 310.691 91.5312 310.516 90.6875 310.516H89.7266V308.77H90.6875C91.3984 308.77 91.9727 308.609 92.4102 308.289C92.8555 307.969 93.0781 307.547 93.0781 307.023C93.0781 306.508 92.8789 306.094 92.4805 305.781C92.0898 305.469 91.5703 305.312 90.9219 305.312C90.2656 305.312 89.7148 305.473 89.2695 305.793C88.832 306.105 88.6094 306.539 88.6016 307.094H86.2461C86.2539 306.367 86.4609 305.723 86.8672 305.16C87.2734 304.598 87.8242 304.156 88.5195 303.836C89.2227 303.516 90.0273 303.355 90.9336 303.355C91.8242 303.355 92.6055 303.512 93.2773 303.824C93.957 304.129 94.4844 304.543 94.8594 305.066C95.2422 305.582 95.4336 306.164 95.4336 306.812C95.4336 307.508 95.2109 308.102 94.7656 308.594C94.3281 309.078 93.7344 309.395 92.9844 309.543V309.566C93.9062 309.684 94.6211 310.016 95.1289 310.562C95.6367 311.109 95.8906 311.766 95.8906 312.531C95.8906 313.234 95.6758 313.863 95.2461 314.418C94.8242 314.965 94.2383 315.398 93.4883 315.719C92.7461 316.031 91.8945 316.188 90.9336 316.188ZM103.332 316.281C102.152 316.281 101.117 316.008 100.227 315.461C99.3359 314.914 98.6406 314.156 98.1406 313.188C97.6484 312.219 97.4023 311.102 97.4023 309.836C97.4023 308.555 97.6484 307.43 98.1406 306.461C98.6406 305.484 99.3359 304.723 100.227 304.176C101.117 303.621 102.152 303.344 103.332 303.344C104.512 303.344 105.543 303.621 106.426 304.176C107.316 304.723 108.008 305.484 108.5 306.461C109 307.43 109.25 308.555 109.25 309.836C109.25 311.102 109 312.219 108.5 313.188C108.008 314.156 107.316 314.914 106.426 315.461C105.543 316.008 104.512 316.281 103.332 316.281ZM103.332 314.148C104.395 314.148 105.23 313.758 105.84 312.977C106.449 312.195 106.754 311.148 106.754 309.836C106.754 308.508 106.445 307.449 105.828 306.66C105.219 305.871 104.387 305.477 103.332 305.477C102.277 305.477 101.441 305.871 100.824 306.66C100.215 307.441 99.9102 308.5 99.9102 309.836C99.9102 311.156 100.215 312.207 100.824 312.988C101.434 313.762 102.27 314.148 103.332 314.148ZM111.441 316V303.625H116.691C118.168 303.625 119.336 303.902 120.195 304.457C121.055 305.012 121.484 305.828 121.484 306.906C121.484 307.633 121.277 308.215 120.863 308.652C120.457 309.082 119.887 309.363 119.152 309.496C119.957 309.598 120.625 309.898 121.156 310.398C121.695 310.891 121.965 311.59 121.965 312.496C121.965 313.559 121.582 314.41 120.816 315.051C120.051 315.684 118.957 316 117.535 316H111.441ZM113.785 313.891H117.477C118.125 313.891 118.625 313.754 118.977 313.48C119.328 313.207 119.504 312.816 119.504 312.309C119.504 311.746 119.328 311.312 118.977 311.008C118.625 310.703 118.125 310.551 117.477 310.551H113.785V313.891ZM113.785 308.758H116.797C117.516 308.758 118.07 308.621 118.461 308.348C118.852 308.066 119.047 307.672 119.047 307.164C119.047 306.695 118.84 306.336 118.426 306.086C118.02 305.828 117.441 305.699 116.691 305.699H113.785V308.758ZM127.918 316.199C126.684 316.199 125.66 315.887 124.848 315.262C124.035 314.629 123.629 313.695 123.629 312.461C123.629 311.523 123.859 310.805 124.32 310.305C124.789 309.797 125.395 309.434 126.137 309.215C126.887 308.996 127.68 308.836 128.516 308.734C129.289 308.641 129.902 308.562 130.355 308.5C130.809 308.438 131.129 308.344 131.316 308.219C131.512 308.094 131.609 307.879 131.609 307.574V307.469C131.609 306.867 131.391 306.375 130.953 305.992C130.516 305.602 129.902 305.406 129.113 305.406C128.324 305.406 127.68 305.598 127.18 305.98C126.68 306.355 126.406 306.828 126.359 307.398H123.934C123.988 306.219 124.484 305.254 125.422 304.504C126.359 303.754 127.602 303.379 129.148 303.379C130.672 303.379 131.871 303.754 132.746 304.504C133.621 305.254 134.059 306.258 134.059 307.516V316H131.621V314.242H131.574C131.316 314.742 130.906 315.195 130.344 315.602C129.789 316 128.98 316.199 127.918 316.199ZM128.422 314.207C129.516 314.207 130.32 313.926 130.836 313.363C131.359 312.793 131.621 312.129 131.621 311.371V309.918C131.457 310.051 131.086 310.172 130.508 310.281C129.93 310.383 129.312 310.48 128.656 310.574C127.977 310.676 127.379 310.867 126.863 311.148C126.348 311.43 126.09 311.883 126.09 312.508C126.09 313.039 126.297 313.457 126.711 313.762C127.133 314.059 127.703 314.207 128.422 314.207ZM139.906 316V305.781H135.641V303.625H146.633V305.781H142.379V316H139.906ZM153.312 316.281C152.086 316.281 151.031 316.004 150.148 315.449C149.273 314.895 148.598 314.133 148.121 313.164C147.652 312.188 147.418 311.078 147.418 309.836C147.418 308.578 147.664 307.461 148.156 306.484C148.648 305.508 149.328 304.742 150.195 304.188C151.062 303.625 152.059 303.344 153.184 303.344C154.355 303.344 155.371 303.617 156.23 304.164C157.098 304.711 157.77 305.473 158.246 306.449C158.723 307.418 158.961 308.539 158.961 309.812V310.48H149.855C149.902 311.598 150.223 312.5 150.816 313.188C151.418 313.875 152.262 314.219 153.348 314.219C154.16 314.219 154.828 314.035 155.352 313.668C155.875 313.301 156.223 312.824 156.395 312.238H158.773C158.625 313.035 158.293 313.738 157.777 314.348C157.27 314.957 156.629 315.434 155.855 315.777C155.09 316.113 154.242 316.281 153.312 316.281ZM149.879 308.605H156.547C156.445 307.621 156.098 306.844 155.504 306.273C154.91 305.695 154.145 305.406 153.207 305.406C152.27 305.406 151.504 305.695 150.91 306.273C150.324 306.844 149.98 307.621 149.879 308.605ZM159.898 316V313.82H160.391C160.883 313.82 161.27 313.707 161.551 313.48C161.832 313.254 162.039 312.809 162.172 312.145C162.305 311.473 162.398 310.469 162.453 309.133L162.688 303.625H171.887V316H169.414V305.793H165.055L164.855 309.836C164.746 311.992 164.398 313.559 163.812 314.535C163.227 315.512 162.227 316 160.812 316H159.898ZM184.695 316H182.27V311.547H179.188L176.305 316H173.516L176.691 311.207C175.855 310.926 175.211 310.484 174.758 309.883C174.312 309.281 174.09 308.535 174.09 307.645C174.09 306.363 174.516 305.375 175.367 304.68C176.227 303.977 177.434 303.625 178.988 303.625H184.695V316ZM182.27 309.602V305.699H179.258C178.312 305.699 177.621 305.855 177.184 306.168C176.746 306.48 176.527 306.977 176.527 307.656C176.527 308.344 176.754 308.84 177.207 309.145C177.66 309.449 178.367 309.602 179.328 309.602H182.27ZM187.496 316V303.625H191.211L194.012 310.293C194.215 310.809 194.398 311.312 194.562 311.805C194.727 312.289 194.891 312.758 195.055 313.211C195.211 312.758 195.371 312.289 195.535 311.805C195.699 311.312 195.883 310.809 196.086 310.293L198.863 303.625H202.578V316H200.129V310.293C200.129 309.426 200.133 308.672 200.141 308.031C200.148 307.383 200.156 306.742 200.164 306.109C199.914 306.766 199.66 307.434 199.402 308.113C199.152 308.785 198.871 309.508 198.559 310.281L196.098 316H193.977L191.504 310.281C191.191 309.531 190.906 308.828 190.648 308.172C190.398 307.508 190.152 306.859 189.91 306.227C189.918 306.836 189.926 307.457 189.934 308.09C189.941 308.715 189.945 309.449 189.945 310.293V316H187.496ZM216.242 316H213.781V307.363H213.758L207.699 316H205.379V303.625H207.84V312.262H207.863L213.91 303.625H216.242V316Z" fill="#43475A"/>
<path d="M181.984 227.797C182.406 225.203 183.062 222.555 183.953 219.852C184.859 217.148 185.93 214.547 187.164 212.047C188.398 209.531 189.734 207.281 191.172 205.297H194.148C192.633 207.609 191.258 210.039 190.023 212.586C188.805 215.133 187.766 217.703 186.906 220.297C186.062 222.875 185.438 225.375 185.031 227.797C183.922 234.484 184.555 241.516 186.93 248.891H183.953C182.719 245.625 181.93 242.203 181.586 238.625C181.242 235.031 181.375 231.422 181.984 227.797ZM217.867 242H211.07V227.094H211.023L200.031 242H194.078V217.25H200.875V232.109H200.922L211.82 217.25H217.867V242ZM232.188 242.375C229.953 242.375 228.047 242 226.469 241.25C224.891 240.484 223.68 239.469 222.836 238.203C222.008 236.938 221.594 235.531 221.594 233.984H228.273C228.289 234.906 228.648 235.641 229.352 236.188C230.07 236.734 231 237.008 232.141 237.008C233.266 237.008 234.18 236.758 234.883 236.258C235.602 235.742 235.961 235.078 235.961 234.266C235.961 233.438 235.578 232.758 234.812 232.227C234.047 231.695 233.016 231.43 231.719 231.43H229.703V227.281H231.719C232.859 227.281 233.781 227.031 234.484 226.531C235.203 226.031 235.562 225.367 235.562 224.539C235.562 223.758 235.25 223.125 234.625 222.641C234.016 222.156 233.211 221.914 232.211 221.914C231.164 221.914 230.297 222.164 229.609 222.664C228.938 223.148 228.594 223.805 228.578 224.633H222.086C222.102 223.117 222.531 221.766 223.375 220.578C224.234 219.375 225.422 218.438 226.938 217.766C228.453 217.078 230.219 216.734 232.234 216.734C234.156 216.734 235.852 217.047 237.32 217.672C238.805 218.281 239.961 219.125 240.789 220.203C241.617 221.266 242.031 222.477 242.031 223.836C242.031 225.258 241.547 226.438 240.578 227.375C239.609 228.297 238.359 228.852 236.828 229.039V229.086C238.828 229.289 240.344 229.93 241.375 231.008C242.422 232.086 242.945 233.383 242.945 234.898C242.945 236.336 242.484 237.625 241.562 238.766C240.656 239.891 239.391 240.773 237.766 241.414C236.156 242.055 234.297 242.375 232.188 242.375ZM268.727 242.516C266.242 242.516 264.047 242.047 262.141 241.109C260.234 240.172 258.719 238.859 257.594 237.172C256.469 235.484 255.844 233.516 255.719 231.266H262.516C262.609 232.906 263.242 234.258 264.414 235.32C265.586 236.383 267.039 236.914 268.773 236.914C270.586 236.914 272.055 236.312 273.18 235.109C274.305 233.891 274.867 232.328 274.867 230.422C274.867 228.5 274.312 226.922 273.203 225.688C272.094 224.453 270.664 223.836 268.914 223.836C267.383 223.836 266.07 224.164 264.977 224.82C263.898 225.461 263.164 226.359 262.773 227.516H256.188L257.266 207.078H279.625V212.914H263.641L263.008 221.164H263.055C264.836 219.32 267.203 218.398 270.156 218.398C272.266 218.398 274.188 218.914 275.922 219.945C277.672 220.977 279.062 222.391 280.094 224.188C281.141 225.969 281.664 227.984 281.664 230.234C281.664 232.625 281.125 234.75 280.047 236.609C278.984 238.453 277.484 239.898 275.547 240.945C273.609 241.992 271.336 242.516 268.727 242.516ZM281.43 248.891C286.258 241.5 289.219 234.461 290.312 227.773C290.922 224.148 291.078 220.359 290.781 216.406C290.5 212.453 289.789 208.742 288.648 205.273H291.648C292.414 207.273 293 209.531 293.406 212.047C293.812 214.547 294.016 217.148 294.016 219.852C294.016 222.555 293.805 225.195 293.383 227.773C292.773 231.414 291.703 235.031 290.172 238.625C288.656 242.203 286.742 245.625 284.43 248.891H281.43Z" fill="#96A2B1"/>
</svg>
