<svg width="282" height="111" viewBox="0 0 282 111" fill="none" xmlns="http://www.w3.org/2000/svg">
<rect x="7.1084" y="4.29736" width="268" height="102" rx="32" fill="#FF36C9"/>
<path d="M277.108 4.29736V106.297H5.1084L5.1084 4.29736L277.108 4.29736ZM7.1084 104.297H275.108V6.29736L7.1084 6.29736L7.1084 104.297Z" fill="#FF36C9"/>
<path d="M270.754 98.7798H280.754V108.78H270.754V98.7798Z" fill="white"/>
<path d="M280.754 98.7798V108.78H270.754V98.7798H280.754ZM272.754 106.78H278.754V100.78H272.754V106.78Z" fill="#FF36C9"/>
<path d="M270.639 0.777344L280.639 0.777344V10.7773H270.639V0.777344Z" fill="white"/>
<path d="M280.639 0.777344V10.7773H270.639V0.777344L280.639 0.777344ZM272.639 8.77734H278.639V2.77734H272.639V8.77734Z" fill="#FF36C9"/>
<path d="M0.960938 1.0376H10.9609V11.0376H0.960937L0.960938 1.0376Z" fill="white"/>
<path d="M10.9609 1.0376V11.0376H0.960937L0.960938 1.0376H10.9609ZM2.96094 9.0376H8.96094V3.0376H2.96094V9.0376Z" fill="#FF36C9"/>
<path d="M0.999023 100.039H10.999V110.039H0.999023L0.999023 100.039Z" fill="white"/>
<path d="M10.999 100.039V110.039H0.999023L0.999023 100.039H10.999ZM2.99902 108.039H8.99902V102.039H2.99902V108.039Z" fill="#FF36C9"/>
<path d="M32.8164 66.1411V60.5786L54.5039 30.4224H63.0039V60.3286H69.7852V66.1411H63.0039V76.9849H56.4102V66.1411H32.8164ZM56.4102 60.3286V37.7036H56.3477L40.1602 60.2661V60.3286H56.4102Z" fill="white"/>
<path d="M102.989 83.0786C98.5931 83.0786 94.5827 82.3703 90.9577 80.9536C87.3535 79.5369 84.2389 77.5265 81.6139 74.9224C78.9889 72.3182 76.9577 69.2244 75.5202 65.6411C74.1035 62.0578 73.3952 58.089 73.3952 53.7349C73.3952 49.3807 74.1035 45.4119 75.5202 41.8286C76.9577 38.2244 78.9889 35.1203 81.6139 32.5161C84.2389 29.8911 87.3535 27.8703 90.9577 26.4536C94.5827 25.0369 98.5722 24.3286 102.926 24.3286C107.156 24.3286 110.999 25.0057 114.458 26.3599C117.937 27.6932 120.937 29.6099 123.458 32.1099C125.978 34.6099 127.926 37.5994 129.301 41.0786C130.676 44.5578 131.364 48.4328 131.364 52.7036C131.364 57.9536 130.26 62.0474 128.051 64.9849C125.864 67.9015 122.739 69.3599 118.676 69.3599C116.697 69.3599 115.124 69.0474 113.958 68.4224C112.812 67.7765 111.968 67.0161 111.426 66.1411C110.885 65.2661 110.551 64.4744 110.426 63.7661H110.395C109.833 65.2036 108.801 66.464 107.301 67.5474C105.801 68.6307 103.812 69.1724 101.333 69.1724C98.541 69.1724 96.1347 68.464 94.1139 67.0474C92.1139 65.6307 90.5722 63.7557 89.4889 61.4224C88.4056 59.0682 87.8639 56.4953 87.8639 53.7036C87.8639 50.6203 88.4785 47.9328 89.7077 45.6411C90.9368 43.3286 92.5827 41.5265 94.6452 40.2349C96.7285 38.9432 99.0202 38.2974 101.52 38.2974C103.624 38.2974 105.374 38.714 106.77 39.5474C108.187 40.3599 109.197 41.2557 109.801 42.2349H109.833V39.0474H115.395V59.5786C115.395 62.4744 116.583 63.9224 118.958 63.9224C121.02 63.9224 122.603 62.9744 123.708 61.0786C124.812 59.1619 125.364 56.4432 125.364 52.9224C125.364 48.1307 124.447 44.0265 122.614 40.6099C120.781 37.1724 118.187 34.5474 114.833 32.7349C111.478 30.9015 107.531 29.9849 102.989 29.9849C98.1972 29.9849 94.0514 30.9536 90.5514 32.8911C87.0514 34.8078 84.3431 37.5474 82.4264 41.1099C80.5306 44.6724 79.5827 48.8807 79.5827 53.7349C79.5827 58.589 80.5306 62.7869 82.4264 66.3286C84.3431 69.8703 87.041 72.6099 90.5202 74.5474C94.0202 76.464 98.166 77.4224 102.958 77.4224C105.916 77.4224 108.51 77.1307 110.739 76.5474C112.989 75.964 114.781 75.4224 116.114 74.9224L118.083 80.2036C116.77 80.7244 114.801 81.3286 112.176 82.0161C109.551 82.7244 106.489 83.0786 102.989 83.0786ZM102.02 63.6411C104.583 63.6411 106.531 62.7869 107.864 61.0786C109.218 59.3494 109.895 56.8911 109.895 53.7036C109.895 50.5161 109.218 48.0682 107.864 46.3599C106.531 44.6307 104.583 43.7661 102.02 43.7661C99.4577 43.7661 97.4577 44.6203 96.0202 46.3286C94.5827 48.0369 93.8639 50.4953 93.8639 53.7036C93.8639 56.9119 94.5827 59.3703 96.0202 61.0786C97.4577 62.7869 99.4577 63.6411 102.02 63.6411Z" fill="white"/>
<path d="M134.974 66.1411V60.5786L156.661 30.4224H165.161V60.3286H171.943V66.1411H165.161V76.9849H158.568V66.1411H134.974ZM158.568 60.3286V37.7036H158.505L142.318 60.2661V60.3286H158.568Z" fill="white"/>
<path d="M194.913 69.8911C193.704 69.8911 192.673 69.4744 191.819 68.6411C190.986 67.7869 190.569 66.7453 190.569 65.5161C190.569 64.3078 190.986 63.2765 191.819 62.4224C192.673 61.5682 193.704 61.1411 194.913 61.1411C196.142 61.1411 197.173 61.5682 198.006 62.4224C198.861 63.2765 199.288 64.3078 199.288 65.5161C199.288 66.7453 198.861 67.7869 198.006 68.6411C197.173 69.4744 196.142 69.8911 194.913 69.8911ZM194.913 46.2661C193.704 46.2661 192.673 45.8494 191.819 45.0161C190.986 44.1619 190.569 43.1203 190.569 41.8911C190.569 40.6828 190.986 39.6515 191.819 38.7974C192.673 37.9432 193.704 37.5161 194.913 37.5161C196.142 37.5161 197.173 37.9432 198.006 38.7974C198.861 39.6515 199.288 40.6828 199.288 41.8911C199.288 43.1203 198.861 44.1619 198.006 45.0161C197.173 45.8494 196.142 46.2661 194.913 46.2661Z" fill="white"/>
<path d="M225.835 50.7974V56.6099H205.179V50.7974H225.835Z" fill="white"/>
<path d="M233.133 55.0786C233.133 51.5161 233.445 47.8494 234.07 44.0786C234.716 40.3078 235.591 36.7349 236.695 33.3599C237.82 29.964 239.122 27.0578 240.601 24.6411H247.008C245.549 27.6619 244.278 30.9015 243.195 34.3599C242.112 37.8182 241.268 41.3182 240.664 44.8599C240.081 48.4015 239.789 51.8078 239.789 55.0786C239.789 59.4744 240.383 63.8911 241.57 68.3286C242.758 72.7661 244.57 77.5786 247.008 82.7661H240.601C235.622 74.2869 233.133 65.0578 233.133 55.0786Z" fill="white"/>
</svg>
