<svg width="100" height="100" viewBox="0 0 100 100" fill="none" xmlns="http://www.w3.org/2000/svg">
<rect width="100" height="100" rx="50" fill="#FF36C9"/>
<path d="M50.3167 75.7439C46.4203 75.7439 42.8891 75.1438 39.7232 73.9435C36.5574 72.7607 33.8351 71.0647 31.5564 68.8555C29.295 66.6638 27.5468 64.0372 26.3118 60.9757C25.0942 57.9142 24.4854 54.5048 24.4854 50.7475C24.4854 46.9728 25.0942 43.5547 26.3118 40.4932C27.5295 37.4143 29.2689 34.7703 31.5303 32.5612C33.809 30.3346 36.5226 28.6299 39.6711 27.4471C42.8369 26.2469 46.3507 25.6467 50.2123 25.6467C55.2047 25.6467 59.5534 26.6382 63.2585 28.6212C66.981 30.5869 69.8685 33.3526 71.9211 36.9186C73.9737 40.4845 75 44.6593 75 49.4429C75 54.1221 73.9824 57.7576 71.9472 60.3495C69.912 62.9239 67.0766 64.2111 63.4411 64.2111C61.1624 64.2111 59.4664 63.7415 58.3531 62.8021C57.2399 61.8628 56.5789 60.8713 56.3701 59.8276H56.344C55.9092 60.9409 55.0481 61.9237 53.7609 62.776C52.4737 63.611 50.7777 64.0285 48.6729 64.0285C46.255 64.0285 44.1589 63.4457 42.3847 62.2803C40.6104 61.1148 39.2362 59.5319 38.2621 57.5315C37.288 55.5137 36.8009 53.235 36.8009 50.6953C36.8009 47.9295 37.3488 45.5725 38.4447 43.6243C39.5406 41.6761 40.9844 40.1888 42.776 39.1625C44.5677 38.1188 46.5246 37.597 48.6468 37.597C50.3863 37.597 51.8822 37.9188 53.1347 38.5624C54.3871 39.1886 55.2568 39.9279 55.7439 40.7802H55.77V38.1971H61.3016V55.7311C61.3016 56.74 61.5016 57.4619 61.9017 57.8968C62.3192 58.3143 62.8845 58.523 63.5977 58.523C65.111 58.523 66.2939 57.7315 67.1462 56.1486C68.016 54.5483 68.4508 52.3478 68.4508 49.5473C68.4508 45.8248 67.7116 42.6415 66.233 39.9975C64.7544 37.3361 62.6584 35.3009 59.9448 33.8919C57.2312 32.4655 54.0218 31.7523 50.3167 31.7523C46.3855 31.7523 42.9848 32.5264 40.1146 34.0745C37.2445 35.6227 35.0266 37.8144 33.4611 40.6498C31.8956 43.4851 31.1128 46.8424 31.1128 50.7214C31.1128 54.6005 31.8956 57.9577 33.4611 60.793C35.0266 63.611 37.2358 65.7853 40.0885 67.3161C42.9587 68.8642 46.3594 69.6383 50.2906 69.6383C52.7955 69.6383 55.0133 69.3861 56.9441 68.8816C58.875 68.3772 60.3361 67.9249 61.3276 67.5248L63.5455 73.1869C62.3974 73.6739 60.684 74.2219 58.4053 74.8307C56.144 75.4395 53.4478 75.7439 50.3167 75.7439ZM49.3774 58.0533C51.343 58.0533 52.8477 57.4184 53.8913 56.1486C54.9524 54.8614 55.483 53.0436 55.483 50.6953C55.483 48.3296 54.9524 46.5119 53.8913 45.242C52.8477 43.9548 51.343 43.3112 49.3774 43.3112C47.3422 43.3112 45.768 43.9548 44.6547 45.242C43.5588 46.5119 43.0109 48.3296 43.0109 50.6953C43.0109 53.061 43.5588 54.8788 44.6547 56.1486C45.768 57.4184 47.3422 58.0533 49.3774 58.0533Z" fill="white"/>
</svg>
