<svg xmlns="http://www.w3.org/2000/svg">

<symbol id="logo-icon" viewBox="0 0 36 36">
<path d="M4.7193 26.929C3.95906 26.929 3.31579 26.671 2.78947 26.1548C2.26316 25.6272 2 24.9964 2 24.2624C2 23.5168 2.26316 22.886 2.78947 22.3699C3.31579 21.8538 3.95906 21.5957 4.7193 21.5957C5.47953 21.5957 6.12281 21.8538 6.64912 22.3699C7.17544 22.886 7.4386 23.5168 7.4386 24.2624C7.4386 24.9964 7.17544 25.6272 6.64912 26.1548C6.12281 26.671 5.47953 26.929 4.7193 26.929ZM4.7193 14.4215C3.95906 14.4215 3.31579 14.1634 2.78947 13.6473C2.26316 13.1197 2 12.4889 2 11.7548C2 11.0093 2.26316 10.3785 2.78947 9.86237C3.31579 9.34624 3.95906 9.08817 4.7193 9.08817C5.47953 9.08817 6.12281 9.34624 6.64912 9.86237C7.17544 10.3785 7.4386 11.0093 7.4386 11.7548C7.4386 12.4889 7.17544 13.1197 6.64912 13.6473C6.12281 14.1634 5.47953 14.4215 4.7193 14.4215Z" fill="currentColor"/>
<path d="M22.7193 16.1763V19.8237H11V16.1763H22.7193Z" fill="currentColor"/>
<path d="M25.5789 34C26.9006 31.1326 27.8889 28.4889 28.5439 26.0688C29.1988 23.6373 29.5263 21.2 29.5263 18.757C29.5263 16.9333 29.3567 15.0409 29.0175 13.0796C28.6901 11.1183 28.2281 9.1914 27.6316 7.29892C27.0468 5.40645 26.3626 3.64014 25.5789 2H29.8596C30.6784 3.319 31.3977 4.90753 32.0175 6.76559C32.6374 8.61219 33.1228 10.5792 33.4737 12.6667C33.8246 14.7427 34 16.7728 34 18.757C34 24.3082 32.6199 29.3892 29.8596 34H25.5789Z" fill="currentColor"/>
</symbol>

<symbol id="arrow-up-right-icon" viewBox="0 0 36 36">
<path d="M30.4995 7.38885V25.4438C30.4995 25.8122 30.3532 26.1654 30.0927 26.4259C29.8323 26.6864 29.479 26.8327 29.1107 26.8327C28.7423 26.8327 28.3891 26.6864 28.1286 26.4259C27.8681 26.1654 27.7218 25.8122 27.7218 25.4438V10.7412L7.87174 30.593C7.61113 30.8536 7.25768 31 6.88913 31C6.52058 31 6.16713 30.8536 5.90652 30.593C5.64592 30.3324 5.49951 29.9789 5.49951 29.6104C5.49951 29.2418 5.64592 28.8884 5.90652 28.6278L25.7583 8.77769H11.0557C10.6873 8.77769 10.3341 8.63137 10.0736 8.37091C9.81315 8.11045 9.66682 7.75719 9.66682 7.38885C9.66682 7.0205 9.81315 6.66724 10.0736 6.40678C10.3341 6.14632 10.6873 6 11.0557 6H29.1107C29.479 6 29.8323 6.14632 30.0927 6.40678C30.3532 6.66724 30.4995 7.0205 30.4995 7.38885Z" fill="currentColor"/>
</symbol>

<symbol id="smiley-icon" viewBox="0 0 36 36">
<path d="M18 2C14.8355 2 11.7421 2.93838 9.11088 4.69649C6.4797 6.45459 4.42894 8.95345 3.21793 11.8771C2.00693 14.8007 1.69008 18.0177 2.30744 21.1214C2.92481 24.2251 4.44866 27.0761 6.6863 29.3137C8.92394 31.5513 11.7749 33.0752 14.8786 33.6926C17.9823 34.3099 21.1993 33.9931 24.1229 32.7821C27.0466 31.5711 29.5454 29.5203 31.3035 26.8891C33.0616 24.2579 34 21.1645 34 18C33.9955 13.7579 32.3084 9.69085 29.3088 6.69124C26.3091 3.69163 22.2421 2.00448 18 2ZM12.4615 13.0769C12.8267 13.0769 13.1836 13.1852 13.4872 13.3881C13.7908 13.5909 14.0274 13.8792 14.1672 14.2166C14.3069 14.5539 14.3435 14.9251 14.2722 15.2832C14.201 15.6414 14.0252 15.9703 13.767 16.2285C13.5088 16.4867 13.1798 16.6625 12.8217 16.7338C12.4636 16.805 12.0924 16.7684 11.7551 16.6287C11.4177 16.489 11.1294 16.2523 10.9265 15.9487C10.7237 15.6451 10.6154 15.2882 10.6154 14.9231C10.6154 14.4334 10.8099 13.9639 11.1561 13.6176C11.5023 13.2714 11.9719 13.0769 12.4615 13.0769ZM25.2185 22.3077C23.6354 25.0446 21.0046 26.6154 18 26.6154C14.9954 26.6154 12.3646 25.0461 10.7815 22.3077C10.6925 22.1676 10.6327 22.011 10.6058 21.8472C10.5788 21.6834 10.5853 21.5158 10.6248 21.3546C10.6643 21.1934 10.736 21.0418 10.8356 20.909C10.9351 20.7762 11.0606 20.6649 11.2043 20.5818C11.348 20.4988 11.507 20.4456 11.6718 20.4256C11.8366 20.4056 12.0037 20.4191 12.1631 20.4654C12.3225 20.5116 12.471 20.5896 12.5994 20.6947C12.7279 20.7998 12.8338 20.9298 12.9108 21.0769C14.06 23.0631 15.8662 24.1538 18 24.1538C20.1338 24.1538 21.94 23.0615 23.0892 21.0769C23.1662 20.9298 23.2721 20.7998 23.4006 20.6947C23.529 20.5896 23.6775 20.5116 23.8369 20.4654C23.9963 20.4191 24.1634 20.4056 24.3282 20.4256C24.493 20.4456 24.652 20.4988 24.7957 20.5818C24.9394 20.6649 25.0649 20.7762 25.1645 20.909C25.264 21.0418 25.3357 21.1934 25.3752 21.3546C25.4147 21.5158 25.4212 21.6834 25.3942 21.8472C25.3673 22.011 25.3075 22.1676 25.2185 22.3077ZM23.5385 16.7692C23.1733 16.7692 22.8164 16.661 22.5128 16.4581C22.2092 16.2552 21.9726 15.9669 21.8328 15.6296C21.6931 15.2922 21.6565 14.921 21.7278 14.5629C21.799 14.2048 21.9748 13.8758 22.233 13.6176C22.4912 13.3595 22.8202 13.1836 23.1783 13.1124C23.5364 13.0412 23.9076 13.0777 24.245 13.2175C24.5823 13.3572 24.8706 13.5938 25.0735 13.8974C25.2763 14.201 25.3846 14.5579 25.3846 14.9231C25.3846 15.4127 25.1901 15.8823 24.8439 16.2285C24.4977 16.5747 24.0281 16.7692 23.5385 16.7692Z" fill="currentColor"/>
</symbol>

<symbol id="image-icon" viewBox="0 0 36 36">
<path d="M11.7778 20.6667L16.2222 26L22.4444 18L30.4444 28.6667H5.55556M34 30.4444V5.55556C34 3.58222 32.4 2 30.4444 2H5.55556C4.61256 2 3.70819 2.3746 3.0414 3.0414C2.3746 3.70819 2 4.61256 2 5.55556V30.4444C2 31.3874 2.3746 32.2918 3.0414 32.9586C3.70819 33.6254 4.61256 34 5.55556 34H30.4444C31.3874 34 32.2918 33.6254 32.9586 32.9586C33.6254 32.2918 34 31.3874 34 30.4444Z" fill="currentColor"/>
</symbol>

<symbol id="time-icon" viewBox="0 0 36 36">
<path d="M29 9.94462V4.46154C29 3.8087 28.7425 3.1826 28.284 2.72097C27.8256 2.25934 27.2039 2 26.5556 2H9.44444C8.79614 2 8.17438 2.25934 7.71596 2.72097C7.25754 3.1826 7 3.8087 7 4.46154V10C7.00112 10.3821 7.09013 10.7588 7.26003 11.1004C7.42994 11.4421 7.67613 11.7394 7.97931 11.9692L15.9635 18L7.97778 24.0308C7.6748 24.2606 7.42884 24.5581 7.25919 24.8997C7.08954 25.2414 7.00083 25.618 7 26V31.5385C7 32.1913 7.25754 32.8174 7.71596 33.279C8.17438 33.7407 8.79614 34 9.44444 34H26.5556C27.2039 34 27.8256 33.7407 28.284 33.279C28.7425 32.8174 29 32.1913 29 31.5385V26.0554C29 25.6745 28.9122 25.2989 28.7436 24.958C28.575 24.6171 28.3302 24.3202 28.0283 24.0908L20.0258 18L28.0283 11.9092C28.3297 11.6794 28.5743 11.3824 28.7428 11.0416C28.9114 10.7008 28.9994 10.3254 29 9.94462Z" fill="currentColor"/>
</symbol>

<symbol id="mobile-icon" viewBox="0 0 36 36">
<path d="M24.6667 2H11.3333C10.4493 2 9.60143 2.36122 8.97631 3.00421C8.35119 3.64719 8 4.51926 8 5.42857V30.5714C8 31.4807 8.35119 32.3528 8.97631 32.9958C9.60143 33.6388 10.4493 34 11.3333 34H24.6667C25.5507 34 26.3986 33.6388 27.0237 32.9958C27.6488 32.3528 28 31.4807 28 30.5714V5.42857C28 4.51926 27.6488 3.64719 27.0237 3.00421C26.3986 2.36122 25.5507 2 24.6667 2ZM18 10C17.6704 10 17.3481 9.89946 17.0741 9.71109C16.8 9.52272 16.5863 9.25499 16.4602 8.94174C16.3341 8.6285 16.301 8.28381 16.3654 7.95127C16.4297 7.61874 16.5884 7.31328 16.8215 7.07353C17.0546 6.83378 17.3515 6.67051 17.6748 6.60437C17.9982 6.53822 18.3333 6.57217 18.6378 6.70192C18.9423 6.83167 19.2026 7.0514 19.3858 7.33331C19.5689 7.61522 19.6667 7.94666 19.6667 8.28571C19.6667 8.74037 19.4911 9.17641 19.1785 9.4979C18.866 9.81939 18.442 10 18 10Z" fill="currentColor"/>
</symbol>

<symbol id="design-system-icon" viewBox="0 0 36 36">
<path d="M11.4775 9.66618C11.3713 9.56005 11.287 9.43401 11.2295 9.29528C11.1719 9.15655 11.1423 9.00784 11.1423 8.85766C11.1423 8.70748 11.1719 8.55877 11.2295 8.42004C11.287 8.2813 11.3713 8.15527 11.4775 8.04913L17.1915 2.33517C17.2976 2.22891 17.4236 2.14462 17.5624 2.08711C17.7011 2.0296 17.8498 2 18 2C18.1502 2 18.2989 2.0296 18.4376 2.08711C18.5764 2.14462 18.7024 2.22891 18.8085 2.33517L24.5225 8.04913C24.6287 8.15527 24.713 8.2813 24.7705 8.42004C24.8281 8.55877 24.8577 8.70748 24.8577 8.85766C24.8577 9.00784 24.8281 9.15655 24.7705 9.29528C24.713 9.43401 24.6287 9.56005 24.5225 9.66618L18.8085 15.3801C18.7024 15.4864 18.5764 15.5707 18.4376 15.6282C18.2989 15.6857 18.1502 15.7153 18 15.7153C17.8498 15.7153 17.7011 15.6857 17.5624 15.6282C17.4236 15.5707 17.2976 15.4864 17.1915 15.3801L11.4775 9.66618ZM18.8085 20.6199C18.7024 20.5136 18.5764 20.4293 18.4376 20.3718C18.2989 20.3143 18.1502 20.2847 18 20.2847C17.8498 20.2847 17.7011 20.3143 17.5624 20.3718C17.4236 20.4293 17.2976 20.5136 17.1915 20.6199L11.4775 26.3338C11.3713 26.44 11.287 26.566 11.2295 26.7047C11.1719 26.8435 11.1423 26.9922 11.1423 27.1423C11.1423 27.2925 11.1719 27.4412 11.2295 27.58C11.287 27.7187 11.3713 27.8447 11.4775 27.9509L17.1915 33.6648C17.2976 33.7711 17.4236 33.8554 17.5624 33.9129C17.7011 33.9704 17.8498 34 18 34C18.1502 34 18.2989 33.9704 18.4376 33.9129C18.5764 33.8554 18.7024 33.7711 18.8085 33.6648L24.5225 27.9509C24.6287 27.8447 24.713 27.7187 24.7705 27.58C24.8281 27.4412 24.8577 27.2925 24.8577 27.1423C24.8577 26.9922 24.8281 26.8435 24.7705 26.7047C24.713 26.566 24.6287 26.44 24.5225 26.3338L18.8085 20.6199ZM33.6648 17.1915L27.9509 11.4775C27.8447 11.3713 27.7187 11.287 27.58 11.2295C27.4412 11.1719 27.2925 11.1423 27.1423 11.1423C26.9922 11.1423 26.8435 11.1719 26.7047 11.2295C26.566 11.287 26.44 11.3713 26.3338 11.4775L20.6199 17.1915C20.5136 17.2976 20.4293 17.4236 20.3718 17.5624C20.3143 17.7011 20.2847 17.8498 20.2847 18C20.2847 18.1502 20.3143 18.2989 20.3718 18.4376C20.4293 18.5764 20.5136 18.7024 20.6199 18.8085L26.3338 24.5225C26.44 24.6287 26.566 24.713 26.7047 24.7705C26.8435 24.8281 26.9922 24.8577 27.1423 24.8577C27.2925 24.8577 27.4412 24.8281 27.58 24.7705C27.7187 24.713 27.8447 24.6287 27.9509 24.5225L33.6648 18.8085C33.7711 18.7024 33.8554 18.5764 33.9129 18.4376C33.9704 18.2989 34 18.1502 34 18C34 17.8498 33.9704 17.7011 33.9129 17.5624C33.8554 17.4236 33.7711 17.2976 33.6648 17.1915ZM15.3801 17.1915L9.66618 11.4775C9.56005 11.3713 9.43401 11.287 9.29528 11.2295C9.15655 11.1719 9.00784 11.1423 8.85766 11.1423C8.70748 11.1423 8.55877 11.1719 8.42004 11.2295C8.2813 11.287 8.15527 11.3713 8.04913 11.4775L2.33517 17.1915C2.22891 17.2976 2.14462 17.4236 2.08711 17.5624C2.0296 17.7011 2 17.8498 2 18C2 18.1502 2.0296 18.2989 2.08711 18.4376C2.14462 18.5764 2.22891 18.7024 2.33517 18.8085L8.04913 24.5225C8.15527 24.6287 8.2813 24.713 8.42004 24.7705C8.55877 24.8281 8.70748 24.8577 8.85766 24.8577C9.00784 24.8577 9.15655 24.8281 9.29528 24.7705C9.43401 24.713 9.56005 24.6287 9.66618 24.5225L15.3801 18.8085C15.4864 18.7024 15.5707 18.5764 15.6282 18.4376C15.6857 18.2989 15.7153 18.1502 15.7153 18C15.7153 17.8498 15.6857 17.7011 15.6282 17.5624C15.5707 17.4236 15.4864 17.2976 15.3801 17.1915Z" fill="currentColor"/>
</symbol>

<symbol id="arrow-left-icon" viewBox="0 0 36 36">
<path d="M34 18C34 18.3448 33.8595 18.6754 33.6095 18.9192C33.3594 19.163 33.0203 19.2999 32.6667 19.2999H6.55257L16.2772 28.7796C16.4011 28.9004 16.4994 29.0438 16.5664 29.2016C16.6335 29.3594 16.668 29.5285 16.668 29.6993C16.668 29.8702 16.6335 30.0393 16.5664 30.1971C16.4994 30.3549 16.4011 30.4983 16.2772 30.619C16.1534 30.7398 16.0063 30.8356 15.8445 30.901C15.6826 30.9664 15.5091 31 15.3339 31C15.1588 31 14.9853 30.9664 14.8234 30.901C14.6616 30.8356 14.5145 30.7398 14.3906 30.619L2.39104 18.9197C2.26707 18.799 2.16873 18.6556 2.10163 18.4978C2.03454 18.34 2 18.1708 2 18C2 17.8292 2.03454 17.66 2.10163 17.5022C2.16873 17.3444 2.26707 17.201 2.39104 17.0803L14.3906 5.38095C14.6408 5.13703 14.9801 5 15.3339 5C15.6878 5 16.0271 5.13703 16.2772 5.38095C16.5274 5.62487 16.668 5.9557 16.668 6.30065C16.668 6.6456 16.5274 6.97643 16.2772 7.22035L6.55257 16.7001H32.6667C33.0203 16.7001 33.3594 16.837 33.6095 17.0808C33.8595 17.3246 34 17.6552 34 18Z" fill="currentColor"/>
</symbol>

<symbol id="projecting-icon" viewBox="0 0 36 36">
<path d="M33.2973 12.9985L23.0015 2.70271C22.7788 2.47993 22.5143 2.3032 22.2233 2.18263C21.9322 2.06206 21.6203 2 21.3053 2C20.9902 2 20.6783 2.06206 20.3873 2.18263C20.0962 2.3032 19.8318 2.47993 19.609 2.70271L15.3456 6.96614L6.65086 10.2282C6.25577 10.3752 5.90641 10.6237 5.63797 10.9487C5.36952 11.2738 5.19148 11.6638 5.12178 12.0796L2.00816 30.7583C1.98729 30.8835 2.00671 31.0122 2.06363 31.1257C2.12054 31.2392 2.21202 31.3317 2.32488 31.3899C2.43774 31.448 2.56615 31.4689 2.69162 31.4494C2.81709 31.4299 2.93314 31.3711 3.02305 31.2815L11.5679 22.7366C11.2972 22.1734 11.1788 21.549 11.2246 20.9257C11.2803 20.159 11.5802 19.4302 12.0803 18.8463C12.5804 18.2624 13.2543 17.854 14.0034 17.681C14.7525 17.508 15.5373 17.5795 16.2427 17.8851C16.9482 18.1906 17.5373 18.714 17.9236 19.3787C18.3099 20.0434 18.4731 20.8143 18.3894 21.5785C18.3056 22.3427 17.9793 23.06 17.4582 23.6253C16.9371 24.1905 16.2486 24.5739 15.4937 24.7194C14.7388 24.8649 13.9572 24.7647 13.2634 24.4336L4.71852 32.9785C4.62887 33.0684 4.57007 33.1844 4.55059 33.3099C4.53111 33.4353 4.55197 33.5638 4.61015 33.6766C4.66833 33.7895 4.76083 33.881 4.87433 33.9379C4.98783 33.9948 5.11646 34.0142 5.24171 33.9933L23.9219 30.8797C24.337 30.8106 24.7266 30.6334 25.0516 30.3661C25.3765 30.0987 25.6255 29.7506 25.7733 29.3566L29.0369 20.6514L33.2973 16.3925C33.5201 16.1697 33.6968 15.9053 33.8174 15.6142C33.9379 15.3232 34 15.0113 34 14.6962C34 14.3812 33.9379 14.0693 33.8174 13.7782C33.6968 13.4872 33.5201 13.2227 33.2973 13V12.9985ZM28.004 18.2933L17.7082 7.99752L21.306 4.39969L31.6018 14.6955L28.004 18.2933Z" fill="currentColor"/>
</symbol>

</svg>

