<svg xmlns="http://www.w3.org/2000/svg">
  <symbol id="logo-desktop" viewBox="0 0 861 145">
   <path d="M6.49536 48.0664C6.49536 25.1073 25.1073 6.49536 48.0664 6.49536H814.532C837.491 6.49536 856.103 25.1073 856.103 48.0664V97.4319C856.103 120.391 837.491 139.003 814.532 139.003H48.0663C25.1073 139.003 6.49536 120.391 6.49536 97.4319V48.0664Z" fill="#FF36C9"/>
<path d="M856.103 6.49536V139.003H6.49536V6.49536H856.103ZM9.09399 136.405H853.504V9.09399H9.09399V136.405Z" fill="#FF36C9"/>
<path d="M844.552 128.997H860.141V144.586H844.552V128.997Z" fill="white"/>
<path d="M860.141 128.997V144.586H844.552V128.997H860.141ZM847.151 141.988H857.543V131.595H847.151V141.988Z" fill="#FF36C9"/>
<path d="M844.552 0.386475H860.141V15.9756H844.552V0.386475Z" fill="white"/>
<path d="M860.141 0.386475V15.9753H844.552V0.386475H860.141ZM847.151 13.3777H857.543V2.98511H847.151V13.3777Z" fill="#FF36C9"/>
<path d="M0.141113 0.386475H15.7302V15.9756H0.141113V0.386475Z" fill="white"/>
<path d="M15.73 0.386475V15.9753H0.141113V0.386475H15.73ZM2.73975 13.3777H13.1323V2.98511H2.73975V13.3777Z" fill="#FF36C9"/>
<path d="M0.141113 128.997H15.7302V144.586H0.141113V128.997Z" fill="white"/>
<path d="M15.73 128.997V144.586H0.141113V128.997H15.73ZM2.73975 141.988H13.1323V131.595H2.73975V141.988Z" fill="#FF36C9"/>
<path d="M61.8967 101.179V40.6898H74.6035L88.1628 76.1307C88.7041 77.6734 89.4077 79.7032 90.2738 82.2202C91.1399 84.7102 91.9247 87.0106 92.6284 89.1217C93.305 87.0106 94.0764 84.7102 94.9424 82.2202C95.8085 79.7032 96.5122 77.6734 97.0534 76.1307L110.41 40.6898H123.157V101.179H114.307V68.2144C114.307 66.0492 114.334 63.5322 114.388 60.6634C114.442 57.7675 114.51 54.8851 114.591 52.0163C113.482 55.2911 112.426 58.3764 111.425 61.2723C110.45 64.1682 109.638 66.4823 108.989 68.2144L96.2415 101.179H88.8529L75.9838 68.2144C75.3613 66.5634 74.5629 64.3848 73.5886 61.6783C72.6413 58.9448 71.6129 56.0083 70.5032 52.8688C70.5844 55.6294 70.6521 58.3629 70.7062 61.0694C70.7603 63.7758 70.7874 66.1575 70.7874 68.2144V101.179H61.8967Z" fill="white"/>
<path d="M169.621 117.905C163.91 117.905 158.7 116.985 153.991 115.144C149.309 113.304 145.263 110.692 141.853 107.309C138.443 103.926 135.804 99.9069 133.936 95.2518C132.096 90.5967 131.176 85.4409 131.176 79.7844C131.176 74.128 132.096 68.9722 133.936 64.3171C135.804 59.6349 138.443 55.6023 141.853 52.2193C145.263 48.8092 149.309 46.1839 153.991 44.3435C158.7 42.5031 163.883 41.583 169.54 41.583C175.034 41.583 180.027 42.4626 184.52 44.2217C189.04 45.9539 192.937 48.4438 196.212 51.6915C199.486 54.9393 202.017 58.823 203.803 63.3428C205.589 67.8625 206.483 72.8965 206.483 78.4447C206.483 85.265 205.048 90.5831 202.179 94.3992C199.338 98.1883 195.278 100.083 190 100.083C187.429 100.083 185.386 99.6768 183.87 98.8649C182.382 98.0259 181.286 97.038 180.582 95.9013C179.878 94.7646 179.445 93.7362 179.283 92.816H179.242C178.511 94.6834 177.172 96.3208 175.223 97.7282C173.275 99.1355 170.69 99.8392 167.469 99.8392C163.843 99.8392 160.717 98.919 158.091 97.0786C155.493 95.2382 153.49 92.8024 152.083 89.7712C150.676 86.7129 149.972 83.3705 149.972 79.7438C149.972 75.7383 150.77 72.247 152.367 69.2699C153.964 66.2657 156.102 63.9247 158.782 62.2467C161.488 60.5687 164.465 59.7297 167.713 59.7297C170.446 59.7297 172.72 60.271 174.533 61.3535C176.373 62.4091 177.686 63.5728 178.471 64.8449H178.511V60.704H185.738V87.376C185.738 91.138 187.28 93.0189 190.366 93.0189C193.045 93.0189 195.102 91.7875 196.536 89.3246C197.971 86.8347 198.688 83.3028 198.688 78.7289C198.688 72.5041 197.497 67.1724 195.116 62.7338C192.734 58.2682 189.364 54.8581 185.007 52.5035C180.65 50.1218 175.521 48.931 169.621 48.931C163.396 48.931 158.01 50.1895 153.463 52.7064C148.917 55.1964 145.398 58.7554 142.908 63.3834C140.445 68.0114 139.214 73.4784 139.214 79.7844C139.214 86.0904 140.445 91.5439 142.908 96.1449C145.398 100.746 148.903 104.291 153.423 106.781C157.97 109.298 163.355 110.557 169.58 110.557C173.423 110.557 176.793 110.178 179.689 109.42C182.612 108.662 184.939 107.959 186.671 107.309L189.229 114.17C187.524 114.846 184.966 115.631 181.556 116.524C178.146 117.445 174.168 117.905 169.621 117.905ZM168.362 92.6536C171.691 92.6536 174.222 91.5439 175.954 89.3246C177.713 87.0783 178.593 83.8847 178.593 79.7438C178.593 75.603 177.713 72.4229 175.954 70.2036C174.222 67.9573 171.691 66.8341 168.362 66.8341C165.033 66.8341 162.435 67.9437 160.568 70.163C158.7 72.3823 157.767 75.5759 157.767 79.7438C157.767 83.9118 158.7 87.1054 160.568 89.3246C162.435 91.5439 165.033 92.6536 168.362 92.6536Z" fill="white"/>
<path d="M213.811 58.3088H222.377V93.5061H238.088V58.3088H246.532V93.5061H262.202V58.3088H270.809V101.179H213.811V58.3088Z" fill="white"/>
<path d="M292.712 101.869C288.435 101.869 284.89 100.786 282.075 98.6213C279.261 96.4291 277.853 93.1949 277.853 88.9187C277.853 85.6709 278.652 83.181 280.248 81.4489C281.872 79.6897 283.97 78.4312 286.541 77.6734C289.139 76.9156 291.886 76.3608 294.782 76.0089C297.461 75.6842 299.586 75.4135 301.156 75.197C302.725 74.9805 303.835 74.6557 304.485 74.2227C305.161 73.7897 305.5 73.0454 305.5 71.9899V71.6245C305.5 69.5405 304.742 67.8355 303.226 66.5093C301.71 65.1561 299.586 64.4795 296.852 64.4795C294.119 64.4795 291.886 65.1426 290.154 66.4687C288.422 67.7678 287.475 69.4052 287.312 71.3809H278.909C279.098 67.2942 280.817 63.9517 284.064 61.3535C287.312 58.7554 291.615 57.4563 296.974 57.4563C302.252 57.4563 306.406 58.7554 309.437 61.3535C312.469 63.9517 313.984 67.4295 313.984 71.7869V101.179H305.54V95.0894H305.378C304.485 96.8215 303.064 98.3912 301.115 99.7986C299.194 101.179 296.392 101.869 292.712 101.869ZM294.457 94.9676C298.246 94.9676 301.034 93.9933 302.82 92.0446C304.633 90.0689 305.54 87.7684 305.54 85.1432V80.1092C304.972 80.5693 303.686 80.9888 301.683 81.3677C299.681 81.7195 297.543 82.0578 295.269 82.3826C292.915 82.7345 290.844 83.3975 289.058 84.3719C287.272 85.3462 286.378 86.9159 286.378 89.0811C286.378 90.9215 287.096 92.3694 288.53 93.4249C289.992 94.4534 291.967 94.9676 294.457 94.9676Z" fill="white"/>
<path d="M337.613 101.179L359.576 40.6898H370.456L392.256 101.179H382.472L377.114 85.468H352.715L347.194 101.179H337.613ZM355.435 77.7952H374.475L370.821 67.0777C370.009 64.5877 369.143 61.9219 368.223 59.0801C367.303 56.2384 366.247 52.8553 365.056 48.931C363.839 52.8553 362.77 56.2384 361.849 59.0801C360.929 61.9219 360.05 64.5877 359.211 67.0777L355.435 77.7952Z" fill="white"/>
<path d="M414.646 116.646V102.153C410.451 102.099 406.73 101.125 403.482 99.2302C400.261 97.3087 397.731 94.6834 395.89 91.3545C394.077 87.9985 393.17 84.1418 393.17 79.7844C393.17 75.4271 394.077 71.5704 395.89 68.2144C397.731 64.8584 400.261 62.2196 403.482 60.298C406.73 58.3764 410.451 57.3886 414.646 57.3345V40.6898H423.253V57.3345C427.448 57.3886 431.155 58.3764 434.376 60.298C437.624 62.2196 440.154 64.8584 441.968 68.2144C443.808 71.5704 444.728 75.4271 444.728 79.7844C444.728 84.1418 443.808 87.9985 441.968 91.3545C440.154 94.6834 437.624 97.3087 434.376 99.2302C431.155 101.125 427.448 102.099 423.253 102.153V116.646H414.646ZM423.253 94.6834C427.15 94.6834 430.262 93.3437 432.59 90.6643C434.917 87.9579 436.081 84.3448 436.081 79.825C436.081 75.2782 434.917 71.638 432.59 68.9045C430.262 66.171 427.15 64.8043 423.253 64.8043V94.6834ZM414.646 94.6834V64.8043C410.749 64.8043 407.65 66.171 405.349 68.9045C403.049 71.638 401.899 75.2782 401.899 79.825C401.899 84.3448 403.049 87.9579 405.349 90.6643C407.65 93.3437 410.749 94.6834 414.646 94.6834Z" fill="white"/>
<path d="M472.639 102.153C467.957 102.153 463.911 100.881 460.501 98.3371C457.118 95.7931 454.506 92.1935 452.666 87.5384C450.825 82.8562 449.905 77.3351 449.905 70.975C449.905 64.5877 450.825 59.0531 452.666 54.3709C454.506 49.6888 457.118 46.0757 460.501 43.5316C463.911 40.9875 467.957 39.7155 472.639 39.7155C477.294 39.7155 481.313 40.9875 484.696 43.5316C488.107 46.0757 490.732 49.6888 492.572 54.3709C494.413 59.0531 495.333 64.5877 495.333 70.975C495.333 77.3351 494.413 82.8562 492.572 87.5384C490.732 92.1935 488.107 95.7931 484.696 98.3371C481.313 100.881 477.294 102.153 472.639 102.153ZM472.639 94.4804C477.024 94.4804 480.474 92.3965 482.991 88.2285C485.535 84.0335 486.807 78.2824 486.807 70.975C486.807 63.6405 485.535 57.8758 482.991 53.6808C480.474 49.4858 477.024 47.3883 472.639 47.3883C468.228 47.3883 464.75 49.4858 462.206 53.6808C459.689 57.8758 458.43 63.6405 458.43 70.975C458.43 78.2824 459.689 84.0335 462.206 88.2285C464.75 92.3965 468.228 94.4804 472.639 94.4804Z" fill="white"/>
<path d="M511.227 58.3088V75.8871H531.729V58.3088H540.294V101.179H531.729V83.5599H511.227V101.179H502.661V58.3088H511.227Z" fill="white"/>
<path d="M586.799 101.179H578.273V71.2591H578.192L557.204 101.179H549.166V58.3088H557.691V88.2285H557.772L578.72 58.3088H586.799V101.179Z" fill="white"/>
<path d="M604.236 58.3088V75.8871H624.737V58.3088H633.303V101.179H624.737V83.5599H604.236V101.179H595.67V58.3088H604.236Z" fill="white"/>
<path d="M679.077 117.905C673.366 117.905 668.156 116.985 663.447 115.144C658.765 113.304 654.719 110.692 651.308 107.309C647.898 103.926 645.26 99.9069 643.392 95.2518C641.552 90.5967 640.632 85.4409 640.632 79.7844C640.632 74.128 641.552 68.9722 643.392 64.3171C645.26 59.6349 647.898 55.6023 651.308 52.2193C654.719 48.8092 658.765 46.1839 663.447 44.3435C668.156 42.5031 673.339 41.583 678.995 41.583C684.49 41.583 689.483 42.4626 693.976 44.2217C698.495 45.9539 702.393 48.4438 705.667 51.6915C708.942 54.9393 711.473 58.823 713.259 63.3428C715.045 67.8625 715.938 72.8965 715.938 78.4447C715.938 85.265 714.504 90.5831 711.635 94.3992C708.793 98.1883 704.734 100.083 699.456 100.083C696.885 100.083 694.842 99.6768 693.326 98.8649C691.838 98.0259 690.741 97.038 690.038 95.9013C689.334 94.7646 688.901 93.7362 688.739 92.816H688.698C687.967 94.6834 686.628 96.3208 684.679 97.7282C682.73 99.1355 680.146 99.8392 676.925 99.8392C673.298 99.8392 670.172 98.919 667.547 97.0786C664.949 95.2382 662.946 92.8024 661.539 89.7712C660.131 86.7129 659.428 83.3705 659.428 79.7438C659.428 75.7383 660.226 72.247 661.823 69.2699C663.42 66.2657 665.558 63.9247 668.237 62.2467C670.944 60.5687 673.921 59.7297 677.169 59.7297C679.902 59.7297 682.175 60.271 683.989 61.3535C685.829 62.4091 687.142 63.5728 687.927 64.8449H687.967V60.704H695.193V87.376C695.193 91.138 696.736 93.0189 699.822 93.0189C702.501 93.0189 704.558 91.7875 705.992 89.3246C707.427 86.8347 708.144 83.3028 708.144 78.7289C708.144 72.5041 706.953 67.1724 704.571 62.7338C702.19 58.2682 698.82 54.8581 694.463 52.5035C690.105 50.1218 684.977 48.931 679.077 48.931C672.852 48.931 667.466 50.1895 662.919 52.7064C658.372 55.1964 654.854 58.7554 652.364 63.3834C649.901 68.0114 648.67 73.4784 648.67 79.7844C648.67 86.0904 649.901 91.5439 652.364 96.1449C654.854 100.746 658.359 104.291 662.879 106.781C667.425 109.298 672.811 110.557 679.036 110.557C682.879 110.557 686.249 110.178 689.145 109.42C692.068 108.662 694.395 107.959 696.127 107.309L698.685 114.17C696.98 114.846 694.422 115.631 691.012 116.524C687.602 117.445 683.623 117.905 679.077 117.905ZM677.818 92.6536C681.147 92.6536 683.678 91.5439 685.41 89.3246C687.169 87.0783 688.048 83.8847 688.048 79.7438C688.048 75.603 687.169 72.4229 685.41 70.2036C683.678 67.9573 681.147 66.8341 677.818 66.8341C674.489 66.8341 671.891 67.9437 670.024 70.163C668.156 72.3823 667.222 75.5759 667.222 79.7438C667.222 83.9118 668.156 87.1054 670.024 89.3246C671.891 91.5439 674.489 92.6536 677.818 92.6536Z" fill="white"/>
<path d="M746.875 91.9634C745.305 91.9634 743.965 91.4221 742.856 90.3396C741.773 89.2299 741.232 87.8767 741.232 86.2799C741.232 84.7102 741.773 83.3705 742.856 82.2608C743.965 81.1512 745.305 80.5964 746.875 80.5964C748.471 80.5964 749.811 81.1512 750.894 82.2608C752.003 83.3705 752.558 84.7102 752.558 86.2799C752.558 87.8767 752.003 89.2299 750.894 90.3396C749.811 91.4221 748.471 91.9634 746.875 91.9634ZM746.875 61.2723C745.305 61.2723 743.965 60.7311 742.856 59.6485C741.773 58.5388 741.232 57.1856 741.232 55.5888C741.232 54.0191 741.773 52.6794 742.856 51.5697C743.965 50.4601 745.305 49.9053 746.875 49.9053C748.471 49.9053 749.811 50.4601 750.894 51.5697C752.003 52.6794 752.558 54.0191 752.558 55.5888C752.558 57.1856 752.003 58.5388 750.894 59.6485C749.811 60.7311 748.471 61.2723 746.875 61.2723Z" fill="white"/>
<path d="M787.046 67.1589V74.7098H760.211V67.1589H787.046Z" fill="white"/>
<path d="M792.994 108.689C796.161 101.95 798.502 95.6983 800.017 89.9336C801.56 84.1689 802.331 78.4312 802.331 72.7206C802.331 68.4715 801.939 64.0465 801.154 59.4455C800.396 54.8445 799.314 50.2977 797.906 45.805C796.526 41.3123 794.889 37.1038 792.994 33.1794H801.316C803.211 36.3189 804.889 40.0944 806.35 44.5059C807.812 48.8904 808.949 53.5319 809.761 58.4306C810.6 63.3292 811.019 68.0926 811.019 72.7206C811.019 85.6845 807.785 97.674 801.316 108.689H792.994Z" fill="white"/>
  </symbol>

  <symbol id="logo-mobile" viewBox="0 0 451 170">
    <svg width="451" height="170" viewBox="0 0 451 170" fill="none" xmlns="http://www.w3.org/2000/svg">
<path d="M7.20068 55C7.20068 28.4903 28.691 7 55.2007 7H394.201C420.71 7 442.201 28.4903 442.201 55V116C442.201 142.51 420.71 164 394.201 164H55.2007C28.691 164 7.20068 142.51 7.20068 116V55Z" fill="#FF36C9"/>
<path d="M444.201 7V164H6.20068V7H444.201ZM9.20068 161H441.201V10H9.20068V161Z" fill="#FF36C9"/>
<path d="M434.201 154H450.201V170H434.201V154Z" fill="white"/>
<path d="M450.201 154V170H434.201V154H450.201ZM437.201 167H447.201V157H437.201V167Z" fill="#FF36C9"/>
<path d="M434.201 0H450.201V16H434.201V0Z" fill="white"/>
<path d="M450.201 0V16H434.201V0H450.201ZM437.201 13H447.201V3H437.201V13Z" fill="#FF36C9"/>
<path d="M0.200684 0H16.2007V16H0.200684V0Z" fill="white"/>
<path d="M16.2007 0V16H0.200684V0H16.2007ZM3.20068 13H13.2007V3H3.20068V13Z" fill="#FF36C9"/>
<path d="M0.200684 154H16.2007V170H0.200684V154Z" fill="white"/>
<path d="M16.2007 154V170H0.200684V154H16.2007ZM3.20068 167H13.2007V157H3.20068V167Z" fill="#FF36C9"/>
<path d="M130.25 72.7404V29.088H139.42L149.205 54.6642C149.595 55.7775 150.103 57.2423 150.728 59.0587C151.353 60.8556 151.92 62.5158 152.427 64.0392C152.916 62.5158 153.472 60.8556 154.097 59.0587C154.722 57.2423 155.23 55.7775 155.621 54.6642L165.259 29.088H174.459V72.7404H168.072V48.9513C168.072 47.3888 168.091 45.5724 168.131 43.5021C168.17 41.4122 168.218 39.3322 168.277 37.2618C167.476 39.6251 166.715 41.8517 165.992 43.9415C165.289 46.0314 164.703 47.7013 164.234 48.9513L155.035 72.7404H149.703L140.416 48.9513C139.966 47.7599 139.39 46.1876 138.687 44.2345C138.004 42.2618 137.261 40.1427 136.461 37.8771C136.519 39.8693 136.568 41.8419 136.607 43.795C136.646 45.7482 136.666 47.4669 136.666 48.9513V72.7404H130.25Z" fill="white"/>
<path d="M207.99 84.8107C203.868 84.8107 200.109 84.1466 196.71 82.8185C193.331 81.4904 190.411 79.6056 187.95 77.1642C185.49 74.7228 183.585 71.8224 182.238 68.463C180.909 65.1036 180.245 61.3829 180.245 57.3009C180.245 53.2189 180.909 49.4982 182.238 46.1388C183.585 42.7599 185.49 39.8497 187.95 37.4083C190.411 34.9474 193.331 33.0529 196.71 31.7247C200.109 30.3966 203.849 29.7325 207.931 29.7325C211.896 29.7325 215.499 30.3673 218.742 31.6368C222.003 32.8868 224.816 34.6837 227.179 37.0275C229.542 39.3712 231.368 42.174 232.658 45.4357C233.947 48.6974 234.591 52.3302 234.591 56.3341C234.591 61.256 233.556 65.0939 231.486 67.8478C229.435 70.5822 226.505 71.9493 222.697 71.9493C220.841 71.9493 219.367 71.6564 218.273 71.0704C217.199 70.465 216.408 69.7521 215.9 68.9318C215.392 68.1115 215.079 67.3693 214.962 66.7052H214.933C214.406 68.0529 213.439 69.2345 212.033 70.2501C210.626 71.2658 208.761 71.7736 206.437 71.7736C203.82 71.7736 201.564 71.1095 199.669 69.7814C197.794 68.4533 196.349 66.6954 195.333 64.5079C194.318 62.3009 193.81 59.8888 193.81 57.2716C193.81 54.381 194.386 51.8615 195.538 49.713C196.691 47.545 198.234 45.8556 200.167 44.6447C202.12 43.4337 204.269 42.8282 206.613 42.8282C208.585 42.8282 210.226 43.2189 211.534 44.0001C212.863 44.7618 213.81 45.6017 214.376 46.5197H214.406V43.5314H219.62V62.7794C219.62 65.4943 220.734 66.8517 222.96 66.8517C224.894 66.8517 226.378 65.963 227.413 64.1857C228.449 62.3888 228.966 59.84 228.966 56.5392C228.966 52.047 228.107 48.1993 226.388 44.9962C224.669 41.7736 222.238 39.3126 219.093 37.6134C215.949 35.8947 212.247 35.0353 207.99 35.0353C203.497 35.0353 199.611 35.9435 196.329 37.7599C193.048 39.5568 190.509 42.1251 188.712 45.465C186.935 48.8048 186.046 52.7501 186.046 57.3009C186.046 61.8517 186.935 65.7872 188.712 69.1075C190.509 72.4279 193.038 74.9865 196.3 76.7833C199.581 78.5997 203.468 79.5079 207.96 79.5079C210.734 79.5079 213.165 79.2345 215.255 78.6876C217.365 78.1408 219.044 77.6329 220.294 77.1642L222.14 82.1154C220.909 82.6036 219.064 83.1701 216.603 83.8146C214.142 84.4786 211.271 84.8107 207.99 84.8107ZM207.081 66.588C209.484 66.588 211.31 65.7872 212.56 64.1857C213.829 62.5646 214.464 60.2599 214.464 57.2716C214.464 54.2833 213.829 51.9884 212.56 50.3868C211.31 48.7657 209.484 47.9552 207.081 47.9552C204.679 47.9552 202.804 48.756 201.456 50.3575C200.109 51.9591 199.435 54.2638 199.435 57.2716C199.435 60.2794 200.109 62.5841 201.456 64.1857C202.804 65.7872 204.679 66.588 207.081 66.588Z" fill="white"/>
<path d="M239.88 41.8029H246.061V67.2033H257.399V41.8029H263.493V67.2033H274.802V41.8029H281.013V72.7404H239.88V41.8029Z" fill="white"/>
<path d="M296.819 73.2384C293.733 73.2384 291.174 72.4572 289.143 70.8947C287.112 69.3126 286.096 66.9786 286.096 63.8927C286.096 61.549 286.672 59.7521 287.825 58.5021C288.997 57.2325 290.51 56.3243 292.366 55.7775C294.241 55.2306 296.223 54.8302 298.313 54.5763C300.247 54.3419 301.78 54.1466 302.913 53.9904C304.045 53.8341 304.846 53.5997 305.315 53.2872C305.803 52.9747 306.047 52.4376 306.047 51.6759V51.4122C306.047 49.9083 305.5 48.6779 304.407 47.7208C303.313 46.7443 301.78 46.256 299.807 46.256C297.834 46.256 296.223 46.7345 294.973 47.6915C293.723 48.629 293.04 49.8107 292.922 51.2365H286.858C286.995 48.2872 288.235 45.8751 290.579 44.0001C292.922 42.1251 296.028 41.1876 299.895 41.1876C303.704 41.1876 306.702 42.1251 308.889 44.0001C311.077 45.8751 312.17 48.3849 312.17 51.5294V72.7404H306.077V68.3458H305.959C305.315 69.5958 304.29 70.7286 302.883 71.7443C301.497 72.7404 299.475 73.2384 296.819 73.2384ZM298.079 68.2579C300.813 68.2579 302.825 67.5548 304.114 66.1486C305.422 64.7228 306.077 63.0626 306.077 61.1681V57.5353C305.667 57.8673 304.739 58.17 303.293 58.4435C301.848 58.6974 300.305 58.9415 298.665 59.1759C296.965 59.4298 295.471 59.9083 294.182 60.6115C292.893 61.3146 292.249 62.4474 292.249 64.0099C292.249 65.338 292.766 66.3829 293.801 67.1447C294.856 67.8868 296.282 68.2579 298.079 68.2579Z" fill="white"/>
<path d="M55.204 132.74L71.0536 89.088H78.9052L94.6376 132.74H87.577L83.7098 121.402H66.1024L62.118 132.74H55.204ZM68.0653 115.865H81.8055L79.1688 108.131C78.5829 106.334 77.9579 104.41 77.2938 102.36C76.6298 100.309 75.868 97.8673 75.0087 95.0353C74.1298 97.8673 73.3583 100.309 72.6942 102.36C72.0302 104.41 71.3954 106.334 70.7899 108.131L68.0653 115.865Z" fill="white"/>
<path d="M110.795 143.902V133.443C107.768 133.404 105.083 132.701 102.739 131.334C100.415 129.947 98.5884 128.053 97.2602 125.651C95.9516 123.229 95.2973 120.445 95.2973 117.301C95.2973 114.156 95.9516 111.373 97.2602 108.951C98.5884 106.529 100.415 104.625 102.739 103.238C105.083 101.852 107.768 101.139 110.795 101.1V89.088H117.006V101.1C120.034 101.139 122.709 101.852 125.034 103.238C127.377 104.625 129.204 106.529 130.512 108.951C131.84 111.373 132.504 114.156 132.504 117.301C132.504 120.445 131.84 123.229 130.512 125.651C129.204 128.053 127.377 129.947 125.034 131.334C122.709 132.701 120.034 133.404 117.006 133.443V143.902H110.795ZM117.006 128.053C119.819 128.053 122.065 127.086 123.745 125.152C125.424 123.199 126.264 120.592 126.264 117.33C126.264 114.049 125.424 111.422 123.745 109.449C122.065 107.477 119.819 106.49 117.006 106.49V128.053ZM110.795 128.053V106.49C107.983 106.49 105.747 107.477 104.086 109.449C102.426 111.422 101.596 114.049 101.596 117.33C101.596 120.592 102.426 123.199 104.086 125.152C105.747 127.086 107.983 128.053 110.795 128.053Z" fill="white"/>
<path d="M152.647 133.443C149.268 133.443 146.348 132.526 143.887 130.69C141.445 128.854 139.561 126.256 138.233 122.897C136.904 119.518 136.24 115.533 136.24 110.943C136.24 106.334 136.904 102.34 138.233 98.9611C139.561 95.5822 141.445 92.9747 143.887 91.1388C146.348 89.3029 149.268 88.3849 152.647 88.3849C156.006 88.3849 158.906 89.3029 161.348 91.1388C163.809 92.9747 165.703 95.5822 167.031 98.9611C168.359 102.34 169.024 106.334 169.024 110.943C169.024 115.533 168.359 119.518 167.031 122.897C165.703 126.256 163.809 128.854 161.348 130.69C158.906 132.526 156.006 133.443 152.647 133.443ZM152.647 127.906C155.811 127.906 158.301 126.402 160.117 123.395C161.953 120.367 162.871 116.217 162.871 110.943C162.871 105.651 161.953 101.49 160.117 98.463C158.301 95.4357 155.811 93.922 152.647 93.922C149.463 93.922 146.953 95.4357 145.117 98.463C143.301 101.49 142.393 105.651 142.393 110.943C142.393 116.217 143.301 120.367 145.117 123.395C146.953 126.402 149.463 127.906 152.647 127.906Z" fill="white"/>
<path d="M180.494 101.803V114.488H195.289V101.803H201.47V132.74H195.289V120.026H180.494V132.74H174.312V101.803H180.494Z" fill="white"/>
<path d="M235.031 132.74H228.878V111.149H228.82L213.673 132.74H207.872V101.803H214.025V123.395H214.083L229.2 101.803H235.031V132.74Z" fill="white"/>
<path d="M247.614 101.803V114.488H262.409V101.803H268.591V132.74H262.409V120.026H247.614V132.74H241.433V101.803H247.614Z" fill="white"/>
<path d="M301.624 144.811C297.502 144.811 293.743 144.147 290.344 142.818C286.965 141.49 284.045 139.606 281.584 137.164C279.124 134.723 277.219 131.822 275.872 128.463C274.543 125.104 273.879 121.383 273.879 117.301C273.879 113.219 274.543 109.498 275.872 106.139C277.219 102.76 279.124 99.8497 281.584 97.4083C284.045 94.9474 286.965 93.0529 290.344 91.7247C293.743 90.3966 297.483 89.7326 301.565 89.7326C305.53 89.7326 309.133 90.3673 312.375 91.6368C315.637 92.8868 318.45 94.6837 320.813 97.0275C323.176 99.3712 325.002 102.174 326.292 105.436C327.581 108.697 328.225 112.33 328.225 116.334C328.225 121.256 327.19 125.094 325.12 127.848C323.069 130.582 320.139 131.949 316.331 131.949C314.475 131.949 313 131.656 311.907 131.07C310.833 130.465 310.042 129.752 309.534 128.932C309.026 128.111 308.713 127.369 308.596 126.705H308.567C308.04 128.053 307.073 129.235 305.667 130.25C304.26 131.266 302.395 131.774 300.071 131.774C297.454 131.774 295.198 131.11 293.303 129.781C291.428 128.453 289.983 126.695 288.967 124.508C287.952 122.301 287.444 119.889 287.444 117.272C287.444 114.381 288.02 111.861 289.172 109.713C290.325 107.545 291.868 105.856 293.801 104.645C295.754 103.434 297.903 102.828 300.247 102.828C302.219 102.828 303.86 103.219 305.168 104C306.497 104.762 307.444 105.602 308.01 106.52H308.04V103.531H313.254V122.779C313.254 125.494 314.368 126.852 316.594 126.852C318.528 126.852 320.012 125.963 321.047 124.186C322.083 122.389 322.6 119.84 322.6 116.539C322.6 112.047 321.741 108.199 320.022 104.996C318.303 101.774 315.872 99.3126 312.727 97.6134C309.583 95.8947 305.881 95.0353 301.624 95.0353C297.131 95.0353 293.245 95.9435 289.963 97.7599C286.682 99.5568 284.143 102.125 282.346 105.465C280.569 108.805 279.68 112.75 279.68 117.301C279.68 121.852 280.569 125.787 282.346 129.108C284.143 132.428 286.672 134.986 289.934 136.783C293.215 138.6 297.102 139.508 301.594 139.508C304.368 139.508 306.799 139.235 308.889 138.688C310.999 138.141 312.678 137.633 313.928 137.164L315.774 142.115C314.543 142.604 312.698 143.17 310.237 143.815C307.776 144.479 304.905 144.811 301.624 144.811ZM300.715 126.588C303.118 126.588 304.944 125.787 306.194 124.186C307.463 122.565 308.098 120.26 308.098 117.272C308.098 114.283 307.463 111.988 306.194 110.387C304.944 108.766 303.118 107.955 300.715 107.955C298.313 107.955 296.438 108.756 295.09 110.358C293.743 111.959 293.069 114.264 293.069 117.272C293.069 120.279 293.743 122.584 295.09 124.186C296.438 125.787 298.313 126.588 300.715 126.588Z" fill="white"/>
<path d="M350.551 126.09C349.418 126.09 348.451 125.699 347.65 124.918C346.869 124.117 346.478 123.141 346.478 121.988C346.478 120.856 346.869 119.889 347.65 119.088C348.451 118.287 349.418 117.887 350.551 117.887C351.703 117.887 352.67 118.287 353.451 119.088C354.252 119.889 354.652 120.856 354.652 121.988C354.652 123.141 354.252 124.117 353.451 124.918C352.67 125.699 351.703 126.09 350.551 126.09ZM350.551 103.942C349.418 103.942 348.451 103.551 347.65 102.77C346.869 101.969 346.478 100.992 346.478 99.84C346.478 98.7072 346.869 97.7404 347.65 96.9396C348.451 96.1388 349.418 95.7384 350.551 95.7384C351.703 95.7384 352.67 96.1388 353.451 96.9396C354.252 97.7404 354.652 98.7072 354.652 99.84C354.652 100.992 354.252 101.969 353.451 102.77C352.67 103.551 351.703 103.942 350.551 103.942Z" fill="white"/>
<path d="M379.54 108.19V113.639H360.175V108.19H379.54Z" fill="white"/>
<path d="M383.833 138.16C386.118 133.297 387.808 128.785 388.901 124.625C390.015 120.465 390.571 116.324 390.571 112.203C390.571 109.137 390.288 105.943 389.722 102.623C389.175 99.3029 388.393 96.0216 387.378 92.7794C386.382 89.5372 385.2 86.5001 383.833 83.6681H389.839C391.206 85.9337 392.417 88.6583 393.472 91.8419C394.526 95.006 395.347 98.3556 395.933 101.891C396.538 105.426 396.841 108.863 396.841 112.203C396.841 121.559 394.507 130.211 389.839 138.16H383.833Z" fill="white"/>
</svg>
  </symbol>
</svg>