<svg width="300" height="300" viewBox="0 0 300 300" fill="none" xmlns="http://www.w3.org/2000/svg">
<rect width="300" height="300" rx="24" fill="#FF36C9"/>
<path d="M30.7852 249.281C29.582 249.281 28.5234 249.008 27.6094 248.461C26.7031 247.914 25.9961 247.156 25.4883 246.188C24.9883 245.219 24.7383 244.098 24.7383 242.824C24.7383 241.551 24.9883 240.43 25.4883 239.461C25.9961 238.484 26.7031 237.723 27.6094 237.176C28.5234 236.621 29.582 236.344 30.7852 236.344C31.8242 236.344 32.75 236.547 33.5625 236.953C34.375 237.352 35.0273 237.906 35.5195 238.617C36.0195 239.32 36.3125 240.133 36.3984 241.055H33.5039C33.3945 240.391 33.1094 239.852 32.6484 239.438C32.1953 239.016 31.5859 238.805 30.8203 238.805C29.8516 238.805 29.0938 239.168 28.5469 239.895C28 240.621 27.7266 241.598 27.7266 242.824C27.7266 244.043 28 245.016 28.5469 245.742C29.0938 246.461 29.8516 246.82 30.8203 246.82C31.5938 246.82 32.1953 246.617 32.625 246.211C33.0547 245.797 33.3398 245.246 33.4805 244.559H36.3984C36.3281 245.465 36.043 246.273 35.543 246.984C35.0508 247.695 34.3945 248.258 33.5742 248.672C32.7617 249.078 31.832 249.281 30.7852 249.281ZM38.3906 253.898V236.625H41.2969V238.348H41.332C41.7227 237.691 42.2461 237.199 42.9023 236.871C43.5586 236.543 44.2852 236.379 45.082 236.379C46.1445 236.379 47.0742 236.652 47.8711 237.199C48.6758 237.738 49.3008 238.492 49.7461 239.461C50.1992 240.422 50.4258 241.535 50.4258 242.801C50.4258 244.09 50.2031 245.219 49.7578 246.188C49.3203 247.148 48.6992 247.898 47.8945 248.438C47.0898 248.977 46.1484 249.246 45.0703 249.246C44.2578 249.246 43.5352 249.07 42.9023 248.719C42.2773 248.367 41.7695 247.84 41.3789 247.137H41.3438V253.898H38.3906ZM44.3789 246.773C45.293 246.773 46.0312 246.434 46.5938 245.754C47.1562 245.066 47.4375 244.082 47.4375 242.801C47.4375 241.527 47.1562 240.547 46.5938 239.859C46.0312 239.172 45.293 238.828 44.3789 238.828C43.4102 238.828 42.6328 239.191 42.0469 239.918C41.4688 240.637 41.1797 241.598 41.1797 242.801C41.1797 244.004 41.4688 244.969 42.0469 245.695C42.6328 246.414 43.4102 246.773 44.3789 246.773ZM57.9375 249.281C56.7031 249.281 55.6328 249.004 54.7266 248.449C53.8203 247.895 53.1211 247.133 52.6289 246.164C52.1445 245.188 51.9023 244.074 51.9023 242.824C51.9023 241.566 52.1523 240.453 52.6523 239.484C53.1602 238.508 53.8594 237.742 54.75 237.188C55.6406 236.625 56.6641 236.344 57.8203 236.344C59.0078 236.344 60.0469 236.617 60.9375 237.164C61.8281 237.711 62.5195 238.469 63.0117 239.438C63.5039 240.398 63.75 241.512 63.75 242.777V243.586H54.7969C54.8359 244.594 55.1328 245.406 55.6875 246.023C56.2422 246.641 57.0156 246.949 58.0078 246.949C58.75 246.949 59.3633 246.789 59.8477 246.469C60.332 246.141 60.6602 245.711 60.832 245.18H63.5977C63.4414 245.984 63.0977 246.695 62.5664 247.312C62.043 247.93 61.3828 248.414 60.5859 248.766C59.7891 249.109 58.9062 249.281 57.9375 249.281ZM54.8203 241.547H60.9141C60.8203 240.664 60.5 239.969 59.9531 239.461C59.4141 238.945 58.7188 238.688 57.8672 238.688C57.0078 238.688 56.3086 238.945 55.7695 239.461C55.2383 239.969 54.9219 240.664 54.8203 241.547ZM64.6992 252.797V246.445H65.7422C66.2812 246.008 66.668 245.371 66.9023 244.535C67.1367 243.699 67.3164 242.57 67.4414 241.148L67.8281 236.625H77.168V246.445H79.1836V252.797H76.3125V249H67.6172V252.797H64.6992ZM68.8242 246.445H74.332V239.133H70.3828L70.1953 241.148C70.1016 242.367 69.9531 243.418 69.75 244.301C69.5547 245.176 69.2461 245.891 68.8242 246.445ZM83.7656 236.625V241.535H89.2266V236.625H92.1914V249H89.2266V244.078H83.7656V249H80.8125V236.625H83.7656ZM100.266 249.281C99.0312 249.281 97.9609 249.004 97.0547 248.449C96.1484 247.895 95.4492 247.133 94.957 246.164C94.4727 245.188 94.2305 244.074 94.2305 242.824C94.2305 241.566 94.4805 240.453 94.9805 239.484C95.4883 238.508 96.1875 237.742 97.0781 237.188C97.9688 236.625 98.9922 236.344 100.148 236.344C101.336 236.344 102.375 236.617 103.266 237.164C104.156 237.711 104.848 238.469 105.34 239.438C105.832 240.398 106.078 241.512 106.078 242.777V243.586H97.125C97.1641 244.594 97.4609 245.406 98.0156 246.023C98.5703 246.641 99.3438 246.949 100.336 246.949C101.078 246.949 101.691 246.789 102.176 246.469C102.66 246.141 102.988 245.711 103.16 245.18H105.926C105.77 245.984 105.426 246.695 104.895 247.312C104.371 247.93 103.711 248.414 102.914 248.766C102.117 249.109 101.234 249.281 100.266 249.281ZM97.1484 241.547H103.242C103.148 240.664 102.828 239.969 102.281 239.461C101.742 238.945 101.047 238.688 100.195 238.688C99.3359 238.688 98.6367 238.945 98.0977 239.461C97.5664 239.969 97.25 240.664 97.1484 241.547ZM113.555 249.281C112.32 249.281 111.25 249.004 110.344 248.449C109.438 247.895 108.738 247.133 108.246 246.164C107.762 245.188 107.52 244.074 107.52 242.824C107.52 241.566 107.77 240.453 108.27 239.484C108.777 238.508 109.477 237.742 110.367 237.188C111.258 236.625 112.281 236.344 113.438 236.344C114.625 236.344 115.664 236.617 116.555 237.164C117.445 237.711 118.137 238.469 118.629 239.438C119.121 240.398 119.367 241.512 119.367 242.777V243.586H110.414C110.453 244.594 110.75 245.406 111.305 246.023C111.859 246.641 112.633 246.949 113.625 246.949C114.367 246.949 114.98 246.789 115.465 246.469C115.949 246.141 116.277 245.711 116.449 245.18H119.215C119.059 245.984 118.715 246.695 118.184 247.312C117.66 247.93 117 248.414 116.203 248.766C115.406 249.109 114.523 249.281 113.555 249.281ZM110.438 241.547H116.531C116.438 240.664 116.117 239.969 115.57 239.461C115.031 238.945 114.336 238.688 113.484 238.688C112.625 238.688 111.926 238.945 111.387 239.461C110.855 239.969 110.539 240.664 110.438 241.547ZM126.82 249V236.625H132.176C133.707 236.625 134.918 236.895 135.809 237.434C136.707 237.973 137.156 238.793 137.156 239.895C137.156 241.379 136.34 242.246 134.707 242.496C135.629 242.59 136.344 242.898 136.852 243.422C137.367 243.938 137.625 244.629 137.625 245.496C137.625 246.574 137.234 247.43 136.453 248.062C135.68 248.688 134.535 249 133.02 249H126.82ZM129.598 246.621H132.914C134.148 246.621 134.766 246.141 134.766 245.18C134.766 244.133 134.148 243.609 132.914 243.609H129.598V246.621ZM129.598 241.723H132.281C132.922 241.723 133.418 241.598 133.77 241.348C134.121 241.09 134.297 240.73 134.297 240.27C134.297 239.84 134.109 239.508 133.734 239.273C133.367 239.031 132.848 238.91 132.176 238.91H129.598V241.723ZM139.641 253.898V236.625H142.547V238.348H142.582C142.973 237.691 143.496 237.199 144.152 236.871C144.809 236.543 145.535 236.379 146.332 236.379C147.395 236.379 148.324 236.652 149.121 237.199C149.926 237.738 150.551 238.492 150.996 239.461C151.449 240.422 151.676 241.535 151.676 242.801C151.676 244.09 151.453 245.219 151.008 246.188C150.57 247.148 149.949 247.898 149.145 248.438C148.34 248.977 147.398 249.246 146.32 249.246C145.508 249.246 144.785 249.07 144.152 248.719C143.527 248.367 143.02 247.84 142.629 247.137H142.594V253.898H139.641ZM145.629 246.773C146.543 246.773 147.281 246.434 147.844 245.754C148.406 245.066 148.688 244.082 148.688 242.801C148.688 241.527 148.406 240.547 147.844 239.859C147.281 239.172 146.543 238.828 145.629 238.828C144.66 238.828 143.883 239.191 143.297 239.918C142.719 240.637 142.43 241.598 142.43 242.801C142.43 244.004 142.719 244.969 143.297 245.695C143.883 246.414 144.66 246.773 145.629 246.773ZM159.188 249.281C157.953 249.281 156.883 249.004 155.977 248.449C155.07 247.895 154.371 247.133 153.879 246.164C153.395 245.188 153.152 244.074 153.152 242.824C153.152 241.566 153.402 240.453 153.902 239.484C154.41 238.508 155.109 237.742 156 237.188C156.891 236.625 157.914 236.344 159.07 236.344C160.258 236.344 161.297 236.617 162.188 237.164C163.078 237.711 163.77 238.469 164.262 239.438C164.754 240.398 165 241.512 165 242.777V243.586H156.047C156.086 244.594 156.383 245.406 156.938 246.023C157.492 246.641 158.266 246.949 159.258 246.949C160 246.949 160.613 246.789 161.098 246.469C161.582 246.141 161.91 245.711 162.082 245.18H164.848C164.691 245.984 164.348 246.695 163.816 247.312C163.293 247.93 162.633 248.414 161.836 248.766C161.039 249.109 160.156 249.281 159.188 249.281ZM156.07 241.547H162.164C162.07 240.664 161.75 239.969 161.203 239.461C160.664 238.945 159.969 238.688 159.117 238.688C158.258 238.688 157.559 238.945 157.02 239.461C156.488 239.969 156.172 240.664 156.07 241.547ZM167.016 249V236.625H171.445L173.848 242.66C174.043 243.199 174.219 243.738 174.375 244.277C174.539 244.816 174.695 245.332 174.844 245.824C174.992 245.332 175.145 244.816 175.301 244.277C175.465 243.738 175.641 243.199 175.828 242.66L178.219 236.625H182.66V249H179.73V243.844C179.73 242.992 179.734 242.215 179.742 241.512C179.758 240.801 179.77 240.102 179.777 239.414C179.535 240.117 179.285 240.836 179.027 241.57C178.777 242.297 178.504 243.051 178.207 243.832L176.074 249H173.602L171.445 243.832C171.156 243.074 170.883 242.34 170.625 241.629C170.375 240.918 170.129 240.219 169.887 239.531C169.895 240.195 169.902 240.875 169.91 241.57C169.926 242.258 169.934 243.016 169.934 243.844V249H167.016ZM195.727 249H192.867V244.758H190.219L187.441 249H184.172L187.289 244.348C186.469 244.051 185.836 243.602 185.391 243C184.945 242.391 184.723 241.648 184.723 240.773C184.723 239.453 185.168 238.434 186.059 237.715C186.949 236.988 188.195 236.625 189.797 236.625H195.727V249ZM192.867 242.555V239.016H190.148C189.289 239.016 188.656 239.156 188.25 239.438C187.852 239.719 187.652 240.172 187.652 240.797C187.652 241.414 187.859 241.863 188.273 242.145C188.688 242.418 189.34 242.555 190.23 242.555H192.867ZM25.3125 273V260.625H30.668C32.1992 260.625 33.4102 260.895 34.3008 261.434C35.1992 261.973 35.6484 262.793 35.6484 263.895C35.6484 265.379 34.832 266.246 33.1992 266.496C34.1211 266.59 34.8359 266.898 35.3438 267.422C35.8594 267.938 36.1172 268.629 36.1172 269.496C36.1172 270.574 35.7266 271.43 34.9453 272.062C34.1719 272.688 33.0273 273 31.5117 273H25.3125ZM28.0898 270.621H31.4062C32.6406 270.621 33.2578 270.141 33.2578 269.18C33.2578 268.133 32.6406 267.609 31.4062 267.609H28.0898V270.621ZM28.0898 265.723H30.7734C31.4141 265.723 31.9102 265.598 32.2617 265.348C32.6133 265.09 32.7891 264.73 32.7891 264.27C32.7891 263.84 32.6016 263.508 32.2266 263.273C31.8594 263.031 31.3398 262.91 30.668 262.91H28.0898V265.723ZM41.0859 264.68H43.9805C45.4805 264.68 46.6719 265.055 47.5547 265.805C48.4453 266.555 48.8906 267.559 48.8906 268.816C48.8906 270.082 48.4453 271.098 47.5547 271.863C46.6719 272.621 45.4805 273 43.9805 273H38.1328V260.625H41.0859V264.68ZM41.0859 267.117V270.539H43.8867C44.543 270.539 45.0586 270.383 45.4336 270.07C45.8164 269.758 46.0078 269.332 46.0078 268.793C46.0078 268.27 45.8164 267.859 45.4336 267.562C45.0586 267.266 44.543 267.117 43.8867 267.117H41.0859ZM49.8516 273V260.625H52.8047V273H49.8516ZM66.6211 260.625V273H63.6562V263.18H58.3828V273H55.4297V260.625H66.6211ZM74.7656 273.281C73.5469 273.281 72.4805 273.012 71.5664 272.473C70.6523 271.926 69.9375 271.168 69.4219 270.199C68.9141 269.23 68.6602 268.105 68.6602 266.824C68.6602 265.543 68.9141 264.418 69.4219 263.449C69.9375 262.473 70.6523 261.711 71.5664 261.164C72.4805 260.617 73.5469 260.344 74.7656 260.344C75.9766 260.344 77.0391 260.617 77.9531 261.164C78.875 261.711 79.5898 262.473 80.0977 263.449C80.6133 264.418 80.8711 265.543 80.8711 266.824C80.8711 268.105 80.6133 269.23 80.0977 270.199C79.5898 271.168 78.875 271.926 77.9531 272.473C77.0391 273.012 75.9766 273.281 74.7656 273.281ZM74.7656 270.809C75.7109 270.809 76.4648 270.453 77.0273 269.742C77.5898 269.031 77.8711 268.059 77.8711 266.824C77.8711 265.59 77.5898 264.613 77.0273 263.895C76.4648 263.176 75.7109 262.816 74.7656 262.816C73.8125 262.816 73.0547 263.176 72.4922 263.895C71.9297 264.605 71.6484 265.582 71.6484 266.824C71.6484 268.059 71.9297 269.031 72.4922 269.742C73.0547 270.453 73.8125 270.809 74.7656 270.809ZM81.8086 273V270.527H82.3242C82.7852 270.527 83.1445 270.418 83.4023 270.199C83.668 269.98 83.8633 269.562 83.9883 268.945C84.1133 268.32 84.1992 267.41 84.2461 266.215L84.4805 260.625H94.1602V273H91.1953V263.086H87.3047L87.1172 266.859C87.0156 269.023 86.6406 270.59 85.9922 271.559C85.3516 272.52 84.3438 273 82.9688 273H81.8086ZM99.75 260.625V265.535H105.211V260.625H108.176V273H105.211V268.078H99.75V273H96.7969V260.625H99.75ZM116.25 273.281C115.016 273.281 113.945 273.004 113.039 272.449C112.133 271.895 111.434 271.133 110.941 270.164C110.457 269.188 110.215 268.074 110.215 266.824C110.215 265.566 110.465 264.453 110.965 263.484C111.473 262.508 112.172 261.742 113.062 261.188C113.953 260.625 114.977 260.344 116.133 260.344C117.32 260.344 118.359 260.617 119.25 261.164C120.141 261.711 120.832 262.469 121.324 263.438C121.816 264.398 122.062 265.512 122.062 266.777V267.586H113.109C113.148 268.594 113.445 269.406 114 270.023C114.555 270.641 115.328 270.949 116.32 270.949C117.062 270.949 117.676 270.789 118.16 270.469C118.645 270.141 118.973 269.711 119.145 269.18H121.91C121.754 269.984 121.41 270.695 120.879 271.312C120.355 271.93 119.695 272.414 118.898 272.766C118.102 273.109 117.219 273.281 116.25 273.281ZM113.133 265.547H119.227C119.133 264.664 118.812 263.969 118.266 263.461C117.727 262.945 117.031 262.688 116.18 262.688C115.32 262.688 114.621 262.945 114.082 263.461C113.551 263.969 113.234 264.664 113.133 265.547ZM127.031 260.625V265.535H132.492V260.625H135.457V273H132.492V268.078H127.031V273H124.078V260.625H127.031ZM149.449 273H146.52V264.949H146.496L140.707 273H138.07V260.625H141V268.652H141.023L146.766 260.625H149.449V273ZM162.516 273H159.656V268.758H157.008L154.23 273H150.961L154.078 268.348C153.258 268.051 152.625 267.602 152.18 267C151.734 266.391 151.512 265.648 151.512 264.773C151.512 263.453 151.957 262.434 152.848 261.715C153.738 260.988 154.984 260.625 156.586 260.625H162.516V273ZM159.656 266.555V263.016H156.938C156.078 263.016 155.445 263.156 155.039 263.438C154.641 263.719 154.441 264.172 154.441 264.797C154.441 265.414 154.648 265.863 155.062 266.145C155.477 266.418 156.129 266.555 157.02 266.555H159.656ZM175.09 273.188C174.027 273.188 173.113 273.008 172.348 272.648C171.59 272.281 171.004 271.793 170.59 271.184C170.184 270.566 169.977 269.883 169.969 269.133H172.852C172.867 269.656 173.078 270.07 173.484 270.375C173.891 270.68 174.418 270.832 175.066 270.832C175.723 270.832 176.254 270.688 176.66 270.398C177.074 270.102 177.281 269.723 177.281 269.262C177.281 268.777 177.062 268.383 176.625 268.078C176.188 267.773 175.598 267.621 174.855 267.621H173.871V265.711H174.855C175.496 265.711 176.016 265.566 176.414 265.277C176.812 264.988 177.012 264.609 177.012 264.141C177.012 263.695 176.836 263.332 176.484 263.051C176.133 262.77 175.668 262.629 175.09 262.629C174.504 262.629 174.016 262.77 173.625 263.051C173.234 263.332 173.035 263.719 173.027 264.211H170.227C170.234 263.461 170.445 262.797 170.859 262.219C171.273 261.641 171.844 261.188 172.57 260.859C173.305 260.523 174.148 260.355 175.102 260.355C176.031 260.355 176.848 260.512 177.551 260.824C178.262 261.129 178.816 261.547 179.215 262.078C179.613 262.602 179.812 263.195 179.812 263.859C179.812 264.562 179.578 265.152 179.109 265.629C178.648 266.105 178.039 266.406 177.281 266.531V266.555C178.242 266.664 178.98 266.992 179.496 267.539C180.012 268.078 180.27 268.727 180.27 269.484C180.27 270.203 180.047 270.84 179.602 271.395C179.164 271.949 178.555 272.387 177.773 272.707C176.992 273.027 176.098 273.188 175.09 273.188ZM186 273.199C184.766 273.199 183.742 272.891 182.93 272.273C182.125 271.648 181.723 270.719 181.723 269.484C181.723 268.547 181.949 267.824 182.402 267.316C182.863 266.801 183.461 266.426 184.195 266.191C184.938 265.957 185.734 265.797 186.586 265.711C187.734 265.578 188.535 265.461 188.988 265.359C189.441 265.258 189.668 264.996 189.668 264.574V264.48C189.668 263.949 189.465 263.516 189.059 263.18C188.66 262.844 188.109 262.676 187.406 262.676C186.688 262.676 186.102 262.844 185.648 263.18C185.203 263.516 184.961 263.945 184.922 264.469H182.074C182.145 263.242 182.656 262.254 183.609 261.504C184.562 260.754 185.848 260.379 187.465 260.379C189.074 260.379 190.332 260.754 191.238 261.504C192.145 262.254 192.598 263.273 192.598 264.562V273H189.691V271.254H189.645C189.348 271.801 188.918 272.262 188.355 272.637C187.793 273.012 187.008 273.199 186 273.199ZM186.727 271.008C187.695 271.008 188.43 270.758 188.93 270.258C189.43 269.75 189.68 269.137 189.68 268.418V267.082C189.5 267.199 189.152 267.309 188.637 267.41C188.121 267.504 187.559 267.598 186.949 267.691C186.316 267.785 185.766 267.965 185.297 268.23C184.836 268.488 184.605 268.898 184.605 269.461C184.605 269.945 184.797 270.324 185.18 270.598C185.562 270.871 186.078 271.008 186.727 271.008ZM194.145 276.797V270.445H195.188C195.727 270.008 196.113 269.371 196.348 268.535C196.582 267.699 196.762 266.57 196.887 265.148L197.273 260.625H206.613V270.445H208.629V276.797H205.758V273H197.062V276.797H194.145ZM198.27 270.445H203.777V263.133H199.828L199.641 265.148C199.547 266.367 199.398 267.418 199.195 268.301C199 269.176 198.691 269.891 198.27 270.445ZM214.031 273.199C212.797 273.199 211.773 272.891 210.961 272.273C210.156 271.648 209.754 270.719 209.754 269.484C209.754 268.547 209.98 267.824 210.434 267.316C210.895 266.801 211.492 266.426 212.227 266.191C212.969 265.957 213.766 265.797 214.617 265.711C215.766 265.578 216.566 265.461 217.02 265.359C217.473 265.258 217.699 264.996 217.699 264.574V264.48C217.699 263.949 217.496 263.516 217.09 263.18C216.691 262.844 216.141 262.676 215.438 262.676C214.719 262.676 214.133 262.844 213.68 263.18C213.234 263.516 212.992 263.945 212.953 264.469H210.105C210.176 263.242 210.688 262.254 211.641 261.504C212.594 260.754 213.879 260.379 215.496 260.379C217.105 260.379 218.363 260.754 219.27 261.504C220.176 262.254 220.629 263.273 220.629 264.562V273H217.723V271.254H217.676C217.379 271.801 216.949 272.262 216.387 272.637C215.824 273.012 215.039 273.199 214.031 273.199ZM214.758 271.008C215.727 271.008 216.461 270.758 216.961 270.258C217.461 269.75 217.711 269.137 217.711 268.418V267.082C217.531 267.199 217.184 267.309 216.668 267.41C216.152 267.504 215.59 267.598 214.98 267.691C214.348 267.785 213.797 267.965 213.328 268.23C212.867 268.488 212.637 268.898 212.637 269.461C212.637 269.945 212.828 270.324 213.211 270.598C213.594 270.871 214.109 271.008 214.758 271.008ZM228.832 269.438C227.051 269.438 225.672 269.035 224.695 268.23C223.727 267.426 223.242 266.211 223.242 264.586V260.625H226.195V264.492C226.195 265.344 226.426 265.957 226.887 266.332C227.348 266.699 227.996 266.883 228.832 266.883C229.246 266.883 229.648 266.859 230.039 266.812C230.43 266.758 230.82 266.684 231.211 266.59V260.625H234.164V273H231.211V269.156C230.836 269.242 230.445 269.312 230.039 269.367C229.641 269.414 229.238 269.438 228.832 269.438ZM248.168 273H245.238V264.949H245.215L239.426 273H236.789V260.625H239.719V268.652H239.742L245.484 260.625H248.168V273Z" fill="white"/>
<rect x="6" y="41.9233" width="175.928" height="181.382" rx="23.8604" transform="rotate(-10.4546 6 41.9233)" fill="white"/>
<path d="M87.0801 180.197L118.404 74.0711L118.375 73.9136L61.1104 84.48L57.3897 64.3154L139.072 49.2433L142.749 69.1716L111.656 175.663L87.0801 180.197Z" fill="#FF36C9"/>
<g filter="url(#filter0_dddd_2311_2836)">
<rect x="138.453" y="108" width="159" height="69" rx="12" transform="rotate(9.55464 138.453 108)" fill="white"/>
<path d="M145.904 144.85C146.418 141.795 147.209 138.715 148.277 135.608C149.347 132.484 150.59 129.58 152.004 126.895C153.439 124.195 154.945 121.934 156.523 120.112L162.958 121.195C161.35 123.521 159.851 126.064 158.46 128.826C157.087 131.59 155.899 134.44 154.897 137.376C153.894 140.312 153.156 143.184 152.684 145.991C152.051 149.751 151.914 153.586 152.272 157.496C152.634 161.387 153.432 165.706 154.667 170.453L148.231 169.37C145.242 161.568 144.466 153.395 145.904 144.85ZM172.078 166.031C169.359 165.573 167.071 164.553 165.213 162.969C163.373 161.388 162.063 159.407 161.284 157.024C160.523 154.645 160.384 152.016 160.869 149.139C161.353 146.261 162.345 143.822 163.843 141.823C165.362 139.81 167.25 138.357 169.506 137.466C171.782 136.56 174.28 136.336 176.999 136.794C179.347 137.189 181.362 138 183.044 139.227C184.728 140.437 185.991 141.938 186.833 143.732C187.696 145.511 188.049 147.459 187.892 149.575L181.351 148.474C181.357 146.932 180.917 145.605 180.033 144.494C179.169 143.368 177.873 142.66 176.142 142.369C173.953 142 172.102 142.533 170.59 143.967C169.078 145.401 168.088 147.503 167.622 150.275C167.158 153.03 167.406 155.332 168.366 157.182C169.328 159.014 170.904 160.114 173.093 160.483C174.841 160.777 176.278 160.547 177.403 159.792C178.532 159.02 179.386 157.884 179.965 156.384L186.56 157.493C186.056 159.515 185.104 161.234 183.704 162.65C182.321 164.069 180.624 165.091 178.612 165.715C176.622 166.324 174.444 166.429 172.078 166.031ZM201.606 171.001C198.817 170.532 196.503 169.498 194.666 167.899C192.829 166.301 191.539 164.314 190.795 161.937C190.072 159.546 189.948 156.938 190.424 154.113C190.902 151.271 191.891 148.85 193.389 146.851C194.908 144.837 196.779 143.373 199.003 142.458C201.23 141.526 203.65 141.28 206.263 141.719C208.946 142.171 211.19 143.184 212.995 144.759C214.8 146.334 216.074 148.309 216.818 150.686C217.565 153.045 217.697 155.654 217.216 158.514L216.908 160.341L196.675 156.936C196.38 159.228 196.742 161.177 197.761 162.783C198.779 164.389 200.41 165.38 202.652 165.758C204.329 166.04 205.776 165.912 206.993 165.372C208.212 164.815 209.117 163.968 209.708 162.833L215.958 163.885C215.298 165.644 214.251 167.12 212.816 168.313C211.398 169.508 209.722 170.352 207.787 170.843C205.856 171.317 203.795 171.37 201.606 171.001ZM197.504 152.337L211.275 154.655C211.399 152.624 210.94 150.931 209.897 149.575C208.875 148.205 207.401 147.358 205.477 147.034C203.535 146.707 201.857 147.024 200.442 147.984C199.049 148.929 198.069 150.38 197.504 152.337ZM219.404 173.343L224.111 145.377L230.785 146.501L228.872 157.862L231.362 158.281L242.543 148.48L250.621 149.84L237.286 161.593L246.019 177.823L237.915 176.459L231.321 164.184L227.905 163.609L226.077 174.467L219.404 173.343ZM252.109 179.339C250.962 179.145 250.058 178.585 249.397 177.657C248.739 176.711 248.505 175.673 248.695 174.543C248.889 173.395 249.449 172.491 250.378 171.83C251.306 171.17 252.344 170.936 253.491 171.129C254.639 171.322 255.543 171.883 256.204 172.811C256.865 173.739 257.098 174.777 256.905 175.925C256.715 177.055 256.154 177.959 255.223 178.637C254.295 179.298 253.257 179.532 252.109 179.339ZM258.533 187.936C261.271 183.858 263.448 180.04 265.063 176.481C266.682 172.904 267.808 169.236 268.441 165.475C268.913 162.668 269.148 159.712 269.144 156.607C269.158 153.504 268.96 150.421 268.549 147.356C268.157 144.295 267.582 141.402 266.824 138.678L273.286 139.766C274.18 142.004 274.854 144.632 275.308 147.65C275.766 150.65 275.989 153.801 275.977 157.103C275.969 160.388 275.708 163.558 275.194 166.612C273.756 175.157 270.356 182.628 264.994 189.024L258.533 187.936Z" fill="#FF36C9"/>
</g>
<defs>
<filter id="filter0_dddd_2311_2836" x="99.7301" y="105.179" width="198.338" height="127.347" filterUnits="userSpaceOnUse" color-interpolation-filters="sRGB">
<feFlood flood-opacity="0" result="BackgroundImageFix"/>
<feColorMatrix in="SourceAlpha" type="matrix" values="0 0 0 0 0 0 0 0 0 0 0 0 0 0 0 0 0 0 127 0" result="hardAlpha"/>
<feOffset dx="-0.940341" dy="0.940341"/>
<feGaussianBlur stdDeviation="1.88068"/>
<feColorMatrix type="matrix" values="0 0 0 0 1 0 0 0 0 0 0 0 0 0 0.815686 0 0 0 0.1 0"/>
<feBlend mode="normal" in2="BackgroundImageFix" result="effect1_dropShadow_2311_2836"/>
<feColorMatrix in="SourceAlpha" type="matrix" values="0 0 0 0 0 0 0 0 0 0 0 0 0 0 0 0 0 0 127 0" result="hardAlpha"/>
<feOffset dx="-4.70171" dy="4.70171"/>
<feGaussianBlur stdDeviation="3.29119"/>
<feColorMatrix type="matrix" values="0 0 0 0 1 0 0 0 0 0 0 0 0 0 0.815686 0 0 0 0.09 0"/>
<feBlend mode="normal" in2="effect1_dropShadow_2311_2836" result="effect2_dropShadow_2311_2836"/>
<feColorMatrix in="SourceAlpha" type="matrix" values="0 0 0 0 0 0 0 0 0 0 0 0 0 0 0 0 0 0 127 0" result="hardAlpha"/>
<feOffset dx="-9.40341" dy="11.2841"/>
<feGaussianBlur stdDeviation="4.23154"/>
<feColorMatrix type="matrix" values="0 0 0 0 1 0 0 0 0 0 0 0 0 0 0.815686 0 0 0 0.05 0"/>
<feBlend mode="normal" in2="effect2_dropShadow_2311_2836" result="effect3_dropShadow_2311_2836"/>
<feColorMatrix in="SourceAlpha" type="matrix" values="0 0 0 0 0 0 0 0 0 0 0 0 0 0 0 0 0 0 127 0" result="hardAlpha"/>
<feOffset dx="-16.9261" dy="19.7472"/>
<feGaussianBlur stdDeviation="5.17188"/>
<feColorMatrix type="matrix" values="0 0 0 0 1 0 0 0 0 0 0 0 0 0 0.815686 0 0 0 0.01 0"/>
<feBlend mode="normal" in2="effect3_dropShadow_2311_2836" result="effect4_dropShadow_2311_2836"/>
<feBlend mode="normal" in="SourceGraphic" in2="effect4_dropShadow_2311_2836" result="shape"/>
</filter>
</defs>
</svg>
