<svg width="300" height="300" viewBox="0 0 300 300" fill="none" xmlns="http://www.w3.org/2000/svg">
<rect width="300" height="300" rx="24" fill="white"/>
<path d="M71.5781 253.281C70.3984 253.281 69.3633 253.008 68.4727 252.461C67.5898 251.914 66.9023 251.156 66.4102 250.188C65.918 249.211 65.6719 248.094 65.6719 246.836C65.6719 245.562 65.918 244.438 66.4102 243.461C66.9102 242.484 67.6016 241.723 68.4844 241.176C69.3672 240.621 70.3984 240.344 71.5781 240.344C72.5625 240.344 73.4414 240.539 74.2148 240.93C74.9961 241.312 75.6289 241.844 76.1133 242.523C76.5977 243.203 76.8906 243.98 76.9922 244.855H74.5312C74.4062 244.16 74.0938 243.59 73.5938 243.145C73.0938 242.699 72.4258 242.477 71.5898 242.477C70.5195 242.477 69.6836 242.871 69.082 243.66C68.4805 244.449 68.1797 245.508 68.1797 246.836C68.1797 248.148 68.4805 249.195 69.082 249.977C69.6836 250.758 70.5195 251.148 71.5898 251.148C72.4414 251.148 73.0977 250.934 73.5586 250.504C74.0195 250.066 74.332 249.484 74.4961 248.758H76.9922C76.8984 249.617 76.6094 250.391 76.125 251.078C75.6406 251.758 75.0078 252.297 74.2266 252.695C73.4453 253.086 72.5625 253.281 71.5781 253.281ZM79.1016 257.898V240.625H81.5273V242.406H81.5625C81.9531 241.727 82.4883 241.219 83.168 240.883C83.8477 240.547 84.5898 240.379 85.3945 240.379C86.457 240.379 87.3906 240.652 88.1953 241.199C89 241.738 89.625 242.492 90.0703 243.461C90.5234 244.422 90.75 245.539 90.75 246.812C90.75 248.086 90.5273 249.207 90.082 250.176C89.6367 251.137 89.0117 251.891 88.207 252.438C87.4023 252.977 86.4609 253.246 85.3828 253.246C84.5781 253.246 83.8516 253.07 83.2031 252.719C82.5547 252.367 82.0234 251.84 81.6094 251.137H81.5742V257.898H79.1016ZM84.8789 251.113C85.8789 251.113 86.6875 250.746 87.3047 250.012C87.9297 249.277 88.2422 248.211 88.2422 246.812C88.2422 245.414 87.9297 244.348 87.3047 243.613C86.6875 242.871 85.8789 242.5 84.8789 242.5C83.8242 242.5 82.9805 242.895 82.3477 243.684C81.7227 244.465 81.4102 245.508 81.4102 246.812C81.4102 248.109 81.7227 249.152 82.3477 249.941C82.9805 250.723 83.8242 251.113 84.8789 251.113ZM98.2148 253.281C96.9883 253.281 95.9336 253.004 95.0508 252.449C94.1758 251.895 93.5 251.133 93.0234 250.164C92.5547 249.188 92.3203 248.078 92.3203 246.836C92.3203 245.578 92.5664 244.461 93.0586 243.484C93.5508 242.508 94.2305 241.742 95.0977 241.188C95.9648 240.625 96.9609 240.344 98.0859 240.344C99.2578 240.344 100.273 240.617 101.133 241.164C102 241.711 102.672 242.473 103.148 243.449C103.625 244.418 103.863 245.539 103.863 246.812V247.48H94.7578C94.8047 248.598 95.125 249.5 95.7188 250.188C96.3203 250.875 97.1641 251.219 98.25 251.219C99.0625 251.219 99.7305 251.035 100.254 250.668C100.777 250.301 101.125 249.824 101.297 249.238H103.676C103.527 250.035 103.195 250.738 102.68 251.348C102.172 251.957 101.531 252.434 100.758 252.777C99.9922 253.113 99.1445 253.281 98.2148 253.281ZM94.7812 245.605H101.449C101.348 244.621 101 243.844 100.406 243.273C99.8125 242.695 99.0469 242.406 98.1094 242.406C97.1719 242.406 96.4062 242.695 95.8125 243.273C95.2266 243.844 94.8828 244.621 94.7812 245.605ZM104.871 256.773V250.785H105.926C106.285 250.457 106.578 250.07 106.805 249.625C107.031 249.172 107.215 248.602 107.355 247.914C107.496 247.227 107.613 246.355 107.707 245.301L108.117 240.625H116.953V250.785H118.957V256.773H116.531V253H107.332V256.773H104.871ZM108.621 250.785H114.539V242.816H110.309L110.062 245.301C109.953 246.551 109.793 247.633 109.582 248.547C109.379 249.461 109.059 250.207 108.621 250.785ZM123.129 240.625V245.699H129.047V240.625H131.52V253H129.047V247.914H123.129V253H120.656V240.625H123.129ZM139.605 253.281C138.379 253.281 137.324 253.004 136.441 252.449C135.566 251.895 134.891 251.133 134.414 250.164C133.945 249.188 133.711 248.078 133.711 246.836C133.711 245.578 133.957 244.461 134.449 243.484C134.941 242.508 135.621 241.742 136.488 241.188C137.355 240.625 138.352 240.344 139.477 240.344C140.648 240.344 141.664 240.617 142.523 241.164C143.391 241.711 144.062 242.473 144.539 243.449C145.016 244.418 145.254 245.539 145.254 246.812V247.48H136.148C136.195 248.598 136.516 249.5 137.109 250.188C137.711 250.875 138.555 251.219 139.641 251.219C140.453 251.219 141.121 251.035 141.645 250.668C142.168 250.301 142.516 249.824 142.688 249.238H145.066C144.918 250.035 144.586 250.738 144.07 251.348C143.562 251.957 142.922 252.434 142.148 252.777C141.383 253.113 140.535 253.281 139.605 253.281ZM136.172 245.605H142.84C142.738 244.621 142.391 243.844 141.797 243.273C141.203 242.695 140.438 242.406 139.5 242.406C138.562 242.406 137.797 242.695 137.203 243.273C136.617 243.844 136.273 244.621 136.172 245.605ZM152.684 253.281C151.457 253.281 150.402 253.004 149.52 252.449C148.645 251.895 147.969 251.133 147.492 250.164C147.023 249.188 146.789 248.078 146.789 246.836C146.789 245.578 147.035 244.461 147.527 243.484C148.02 242.508 148.699 241.742 149.566 241.188C150.434 240.625 151.43 240.344 152.555 240.344C153.727 240.344 154.742 240.617 155.602 241.164C156.469 241.711 157.141 242.473 157.617 243.449C158.094 244.418 158.332 245.539 158.332 246.812V247.48H149.227C149.273 248.598 149.594 249.5 150.188 250.188C150.789 250.875 151.633 251.219 152.719 251.219C153.531 251.219 154.199 251.035 154.723 250.668C155.246 250.301 155.594 249.824 155.766 249.238H158.145C157.996 250.035 157.664 250.738 157.148 251.348C156.641 251.957 156 252.434 155.227 252.777C154.461 253.113 153.613 253.281 152.684 253.281ZM149.25 245.605H155.918C155.816 244.621 155.469 243.844 154.875 243.273C154.281 242.695 153.516 242.406 152.578 242.406C151.641 242.406 150.875 242.695 150.281 243.273C149.695 243.844 149.352 244.621 149.25 245.605ZM166.195 253V240.625H171.445C172.922 240.625 174.09 240.902 174.949 241.457C175.809 242.012 176.238 242.828 176.238 243.906C176.238 244.633 176.031 245.215 175.617 245.652C175.211 246.082 174.641 246.363 173.906 246.496C174.711 246.598 175.379 246.898 175.91 247.398C176.449 247.891 176.719 248.59 176.719 249.496C176.719 250.559 176.336 251.41 175.57 252.051C174.805 252.684 173.711 253 172.289 253H166.195ZM168.539 250.891H172.23C172.879 250.891 173.379 250.754 173.73 250.48C174.082 250.207 174.258 249.816 174.258 249.309C174.258 248.746 174.082 248.312 173.73 248.008C173.379 247.703 172.879 247.551 172.23 247.551H168.539V250.891ZM168.539 245.758H171.551C172.27 245.758 172.824 245.621 173.215 245.348C173.605 245.066 173.801 244.672 173.801 244.164C173.801 243.695 173.594 243.336 173.18 243.086C172.773 242.828 172.195 242.699 171.445 242.699H168.539V245.758ZM178.898 257.898V240.625H181.324V242.406H181.359C181.75 241.727 182.285 241.219 182.965 240.883C183.645 240.547 184.387 240.379 185.191 240.379C186.254 240.379 187.188 240.652 187.992 241.199C188.797 241.738 189.422 242.492 189.867 243.461C190.32 244.422 190.547 245.539 190.547 246.812C190.547 248.086 190.324 249.207 189.879 250.176C189.434 251.137 188.809 251.891 188.004 252.438C187.199 252.977 186.258 253.246 185.18 253.246C184.375 253.246 183.648 253.07 183 252.719C182.352 252.367 181.82 251.84 181.406 251.137H181.371V257.898H178.898ZM184.676 251.113C185.676 251.113 186.484 250.746 187.102 250.012C187.727 249.277 188.039 248.211 188.039 246.812C188.039 245.414 187.727 244.348 187.102 243.613C186.484 242.871 185.676 242.5 184.676 242.5C183.621 242.5 182.777 242.895 182.145 243.684C181.52 244.465 181.207 245.508 181.207 246.812C181.207 248.109 181.52 249.152 182.145 249.941C182.777 250.723 183.621 251.113 184.676 251.113ZM198.012 253.281C196.785 253.281 195.73 253.004 194.848 252.449C193.973 251.895 193.297 251.133 192.82 250.164C192.352 249.188 192.117 248.078 192.117 246.836C192.117 245.578 192.363 244.461 192.855 243.484C193.348 242.508 194.027 241.742 194.895 241.188C195.762 240.625 196.758 240.344 197.883 240.344C199.055 240.344 200.07 240.617 200.93 241.164C201.797 241.711 202.469 242.473 202.945 243.449C203.422 244.418 203.66 245.539 203.66 246.812V247.48H194.555C194.602 248.598 194.922 249.5 195.516 250.188C196.117 250.875 196.961 251.219 198.047 251.219C198.859 251.219 199.527 251.035 200.051 250.668C200.574 250.301 200.922 249.824 201.094 249.238H203.473C203.324 250.035 202.992 250.738 202.477 251.348C201.969 251.957 201.328 252.434 200.555 252.777C199.789 253.113 198.941 253.281 198.012 253.281ZM194.578 245.605H201.246C201.145 244.621 200.797 243.844 200.203 243.273C199.609 242.695 198.844 242.406 197.906 242.406C196.969 242.406 196.203 242.695 195.609 243.273C195.023 243.844 194.68 244.621 194.578 245.605ZM205.805 253V240.625H209.52L212.32 247.293C212.523 247.809 212.707 248.312 212.871 248.805C213.035 249.289 213.199 249.758 213.363 250.211C213.52 249.758 213.68 249.289 213.844 248.805C214.008 248.312 214.191 247.809 214.395 247.293L217.172 240.625H220.887V253H218.438V247.293C218.438 246.426 218.441 245.672 218.449 245.031C218.457 244.383 218.465 243.742 218.473 243.109C218.223 243.766 217.969 244.434 217.711 245.113C217.461 245.785 217.18 246.508 216.867 247.281L214.406 253H212.285L209.812 247.281C209.5 246.531 209.215 245.828 208.957 245.172C208.707 244.508 208.461 243.859 208.219 243.227C208.227 243.836 208.234 244.457 208.242 245.09C208.25 245.715 208.254 246.449 208.254 247.293V253H205.805ZM233.707 253H231.281V248.547H228.199L225.316 253H222.527L225.703 248.207C224.867 247.926 224.223 247.484 223.77 246.883C223.324 246.281 223.102 245.535 223.102 244.645C223.102 243.363 223.527 242.375 224.379 241.68C225.238 240.977 226.445 240.625 228 240.625H233.707V253ZM231.281 246.602V242.699H228.27C227.324 242.699 226.633 242.855 226.195 243.168C225.758 243.48 225.539 243.977 225.539 244.656C225.539 245.344 225.766 245.84 226.219 246.145C226.672 246.449 227.379 246.602 228.34 246.602H231.281ZM40.8516 277V264.625H46.1016C47.5781 264.625 48.7461 264.902 49.6055 265.457C50.4648 266.012 50.8945 266.828 50.8945 267.906C50.8945 268.633 50.6875 269.215 50.2734 269.652C49.8672 270.082 49.2969 270.363 48.5625 270.496C49.3672 270.598 50.0352 270.898 50.5664 271.398C51.1055 271.891 51.375 272.59 51.375 273.496C51.375 274.559 50.9922 275.41 50.2266 276.051C49.4609 276.684 48.3672 277 46.9453 277H40.8516ZM43.1953 274.891H46.8867C47.5352 274.891 48.0352 274.754 48.3867 274.48C48.7383 274.207 48.9141 273.816 48.9141 273.309C48.9141 272.746 48.7383 272.312 48.3867 272.008C48.0352 271.703 47.5352 271.551 46.8867 271.551H43.1953V274.891ZM43.1953 269.758H46.207C46.9258 269.758 47.4805 269.621 47.8711 269.348C48.2617 269.066 48.457 268.672 48.457 268.164C48.457 267.695 48.25 267.336 47.8359 267.086C47.4297 266.828 46.8516 266.699 46.1016 266.699H43.1953V269.758ZM56.0273 268.762H59.2734C60.7031 268.762 61.8555 269.137 62.7305 269.887C63.6055 270.637 64.043 271.621 64.043 272.84C64.043 274.082 63.6055 275.086 62.7305 275.852C61.8555 276.617 60.7031 277 59.2734 277H53.5547V264.625H56.0273V268.762ZM56.0273 270.918V274.832H59.1797C59.9297 274.832 60.5195 274.652 60.9492 274.293C61.3867 273.934 61.6055 273.449 61.6055 272.84C61.6055 272.246 61.3867 271.777 60.9492 271.434C60.5195 271.09 59.9297 270.918 59.1797 270.918H56.0273ZM65.1211 277V264.625H67.5938V277H65.1211ZM81.1172 264.625V277H78.6445V266.84H72.8555V277H70.3828V264.625H81.1172ZM89.2266 277.281C88.0469 277.281 87.0117 277.008 86.1211 276.461C85.2305 275.914 84.5352 275.156 84.0352 274.188C83.543 273.219 83.2969 272.102 83.2969 270.836C83.2969 269.555 83.543 268.43 84.0352 267.461C84.5352 266.484 85.2305 265.723 86.1211 265.176C87.0117 264.621 88.0469 264.344 89.2266 264.344C90.4062 264.344 91.4375 264.621 92.3203 265.176C93.2109 265.723 93.9023 266.484 94.3945 267.461C94.8945 268.43 95.1445 269.555 95.1445 270.836C95.1445 272.102 94.8945 273.219 94.3945 274.188C93.9023 275.156 93.2109 275.914 92.3203 276.461C91.4375 277.008 90.4062 277.281 89.2266 277.281ZM89.2266 275.148C90.2891 275.148 91.125 274.758 91.7344 273.977C92.3438 273.195 92.6484 272.148 92.6484 270.836C92.6484 269.508 92.3398 268.449 91.7227 267.66C91.1133 266.871 90.2812 266.477 89.2266 266.477C88.1719 266.477 87.3359 266.871 86.7188 267.66C86.1094 268.441 85.8047 269.5 85.8047 270.836C85.8047 272.156 86.1094 273.207 86.7188 273.988C87.3281 274.762 88.1641 275.148 89.2266 275.148ZM96.1289 277V274.82H96.6211C97.1133 274.82 97.5 274.707 97.7812 274.48C98.0625 274.254 98.2695 273.809 98.4023 273.145C98.5352 272.473 98.6289 271.469 98.6836 270.133L98.918 264.625H108.117V277H105.645V266.793H101.285L101.086 270.836C100.977 272.992 100.629 274.559 100.043 275.535C99.457 276.512 98.457 277 97.043 277H96.1289ZM113.379 264.625V269.699H119.297V264.625H121.77V277H119.297V271.914H113.379V277H110.906V264.625H113.379ZM129.855 277.281C128.629 277.281 127.574 277.004 126.691 276.449C125.816 275.895 125.141 275.133 124.664 274.164C124.195 273.188 123.961 272.078 123.961 270.836C123.961 269.578 124.207 268.461 124.699 267.484C125.191 266.508 125.871 265.742 126.738 265.188C127.605 264.625 128.602 264.344 129.727 264.344C130.898 264.344 131.914 264.617 132.773 265.164C133.641 265.711 134.312 266.473 134.789 267.449C135.266 268.418 135.504 269.539 135.504 270.812V271.48H126.398C126.445 272.598 126.766 273.5 127.359 274.188C127.961 274.875 128.805 275.219 129.891 275.219C130.703 275.219 131.371 275.035 131.895 274.668C132.418 274.301 132.766 273.824 132.938 273.238H135.316C135.168 274.035 134.836 274.738 134.32 275.348C133.812 275.957 133.172 276.434 132.398 276.777C131.633 277.113 130.785 277.281 129.855 277.281ZM126.422 269.605H133.09C132.988 268.621 132.641 267.844 132.047 267.273C131.453 266.695 130.688 266.406 129.75 266.406C128.812 266.406 128.047 266.695 127.453 267.273C126.867 267.844 126.523 268.621 126.422 269.605ZM140.121 264.625V269.699H146.039V264.625H148.512V277H146.039V271.914H140.121V277H137.648V264.625H140.121ZM162.176 277H159.715V268.363H159.691L153.633 277H151.312V264.625H153.773V273.262H153.797L159.844 264.625H162.176V277ZM174.996 277H172.57V272.547H169.488L166.605 277H163.816L166.992 272.207C166.156 271.926 165.512 271.484 165.059 270.883C164.613 270.281 164.391 269.535 164.391 268.645C164.391 267.363 164.816 266.375 165.668 265.68C166.527 264.977 167.734 264.625 169.289 264.625H174.996V277ZM172.57 270.602V266.699H169.559C168.613 266.699 167.922 266.855 167.484 267.168C167.047 267.48 166.828 267.977 166.828 268.656C166.828 269.344 167.055 269.84 167.508 270.145C167.961 270.449 168.668 270.602 169.629 270.602H172.57ZM187.852 277.188C186.836 277.188 185.957 277.016 185.215 276.672C184.48 276.32 183.91 275.852 183.504 275.266C183.105 274.672 182.902 274.004 182.895 273.262H185.332C185.348 273.855 185.582 274.324 186.035 274.668C186.496 275.004 187.09 275.172 187.816 275.172C188.559 275.172 189.16 275.008 189.621 274.68C190.09 274.344 190.324 273.91 190.324 273.379C190.324 272.832 190.082 272.387 189.598 272.043C189.113 271.691 188.449 271.516 187.605 271.516H186.645V269.77H187.605C188.316 269.77 188.891 269.609 189.328 269.289C189.773 268.969 189.996 268.547 189.996 268.023C189.996 267.508 189.797 267.094 189.398 266.781C189.008 266.469 188.488 266.312 187.84 266.312C187.184 266.312 186.633 266.473 186.188 266.793C185.75 267.105 185.527 267.539 185.52 268.094H183.164C183.172 267.367 183.379 266.723 183.785 266.16C184.191 265.598 184.742 265.156 185.438 264.836C186.141 264.516 186.945 264.355 187.852 264.355C188.742 264.355 189.523 264.512 190.195 264.824C190.875 265.129 191.402 265.543 191.777 266.066C192.16 266.582 192.352 267.164 192.352 267.812C192.352 268.508 192.129 269.102 191.684 269.594C191.246 270.078 190.652 270.395 189.902 270.543V270.566C190.824 270.684 191.539 271.016 192.047 271.562C192.555 272.109 192.809 272.766 192.809 273.531C192.809 274.234 192.594 274.863 192.164 275.418C191.742 275.965 191.156 276.398 190.406 276.719C189.664 277.031 188.812 277.188 187.852 277.188ZM198.703 277.199C197.469 277.199 196.445 276.887 195.633 276.262C194.82 275.629 194.414 274.695 194.414 273.461C194.414 272.523 194.645 271.805 195.105 271.305C195.574 270.797 196.18 270.434 196.922 270.215C197.672 269.996 198.465 269.836 199.301 269.734C200.074 269.641 200.688 269.562 201.141 269.5C201.594 269.438 201.914 269.344 202.102 269.219C202.297 269.094 202.395 268.879 202.395 268.574V268.469C202.395 267.867 202.176 267.375 201.738 266.992C201.301 266.602 200.688 266.406 199.898 266.406C199.109 266.406 198.465 266.598 197.965 266.98C197.465 267.355 197.191 267.828 197.145 268.398H194.719C194.773 267.219 195.27 266.254 196.207 265.504C197.145 264.754 198.387 264.379 199.934 264.379C201.457 264.379 202.656 264.754 203.531 265.504C204.406 266.254 204.844 267.258 204.844 268.516V277H202.406V275.242H202.359C202.102 275.742 201.691 276.195 201.129 276.602C200.574 277 199.766 277.199 198.703 277.199ZM199.207 275.207C200.301 275.207 201.105 274.926 201.621 274.363C202.145 273.793 202.406 273.129 202.406 272.371V270.918C202.242 271.051 201.871 271.172 201.293 271.281C200.715 271.383 200.098 271.48 199.441 271.574C198.762 271.676 198.164 271.867 197.648 272.148C197.133 272.43 196.875 272.883 196.875 273.508C196.875 274.039 197.082 274.457 197.496 274.762C197.918 275.059 198.488 275.207 199.207 275.207ZM206.496 280.773V274.785H207.551C207.91 274.457 208.203 274.07 208.43 273.625C208.656 273.172 208.84 272.602 208.98 271.914C209.121 271.227 209.238 270.355 209.332 269.301L209.742 264.625H218.578V274.785H220.582V280.773H218.156V277H208.957V280.773H206.496ZM210.246 274.785H216.164V266.816H211.934L211.688 269.301C211.578 270.551 211.418 271.633 211.207 272.547C211.004 273.461 210.684 274.207 210.246 274.785ZM226.055 277.199C224.82 277.199 223.797 276.887 222.984 276.262C222.172 275.629 221.766 274.695 221.766 273.461C221.766 272.523 221.996 271.805 222.457 271.305C222.926 270.797 223.531 270.434 224.273 270.215C225.023 269.996 225.816 269.836 226.652 269.734C227.426 269.641 228.039 269.562 228.492 269.5C228.945 269.438 229.266 269.344 229.453 269.219C229.648 269.094 229.746 268.879 229.746 268.574V268.469C229.746 267.867 229.527 267.375 229.09 266.992C228.652 266.602 228.039 266.406 227.25 266.406C226.461 266.406 225.816 266.598 225.316 266.98C224.816 267.355 224.543 267.828 224.496 268.398H222.07C222.125 267.219 222.621 266.254 223.559 265.504C224.496 264.754 225.738 264.379 227.285 264.379C228.809 264.379 230.008 264.754 230.883 265.504C231.758 266.254 232.195 267.258 232.195 268.516V277H229.758V275.242H229.711C229.453 275.742 229.043 276.195 228.48 276.602C227.926 277 227.117 277.199 226.055 277.199ZM226.559 275.207C227.652 275.207 228.457 274.926 228.973 274.363C229.496 273.793 229.758 273.129 229.758 272.371V270.918C229.594 271.051 229.223 271.172 228.645 271.281C228.066 271.383 227.449 271.48 226.793 271.574C226.113 271.676 225.516 271.867 225 272.148C224.484 272.43 224.227 272.883 224.227 273.508C224.227 274.039 224.434 274.457 224.848 274.762C225.27 275.059 225.84 275.207 226.559 275.207ZM240.223 273.344C238.598 273.344 237.316 272.941 236.379 272.137C235.449 271.332 234.984 270.125 234.984 268.516V264.625H237.457V268.469C237.457 269.398 237.711 270.074 238.219 270.496C238.727 270.918 239.395 271.129 240.223 271.129C240.73 271.129 241.211 271.098 241.664 271.035C242.117 270.973 242.562 270.883 243 270.766V264.625H245.473V277H243V272.992C242.578 273.102 242.137 273.188 241.676 273.25C241.215 273.312 240.73 273.344 240.223 273.344ZM259.137 277H256.676V268.363H256.652L250.594 277H248.273V264.625H250.734V273.262H250.758L256.805 264.625H259.137V277Z" fill="#FF36C9"/>
<path d="M103.612 188L162.511 71.8984V71.71H94V47.585H191.725V71.4272L133.015 188H103.612Z" fill="#FF36C9"/>
<rect x="132.107" y="159.271" width="110.079" height="48.0856" rx="8.86511" transform="rotate(-3.90968 132.107 159.271)" fill="white"/>
<rect x="132.107" y="159.271" width="110.079" height="48.0856" rx="8.86511" transform="rotate(-3.90968 132.107 159.271)" stroke="#FF36C9" stroke-width="2.07729"/>
<path d="M148.524 181.922C148.715 179.912 149.09 177.831 149.648 175.679C150.216 173.514 150.909 171.446 151.726 169.476C152.554 167.504 153.454 165.798 154.424 164.358L157.335 164.159C156.318 165.943 155.403 167.85 154.59 169.879C153.776 171.896 153.104 173.921 152.574 175.954C152.054 177.975 151.71 179.896 151.54 181.716C151.297 184.176 151.384 186.654 151.802 189.151C152.231 191.647 153.018 194.313 154.163 197.147L151.252 197.346C148.888 192.668 147.979 187.527 148.524 181.922ZM167.063 191.509C165.356 191.625 163.825 191.319 162.472 190.589C161.129 189.847 160.045 188.776 159.221 187.375C158.409 185.974 157.939 184.333 157.81 182.45C157.681 180.556 157.923 178.854 158.536 177.344C159.161 175.833 160.088 174.619 161.317 173.701C162.558 172.782 164.032 172.264 165.739 172.147C167.142 172.052 168.418 172.246 169.567 172.732C170.716 173.205 171.674 173.903 172.441 174.826C173.221 175.747 173.735 176.828 173.984 178.068L170.968 178.274C170.672 177.202 170.096 176.343 169.241 175.696C168.398 175.037 167.292 174.755 165.924 174.848C164.182 174.967 162.858 175.698 161.951 177.04C161.056 178.382 160.681 180.116 160.826 182.244C160.97 184.349 161.576 185.999 162.645 187.194C163.713 188.39 165.124 188.928 166.878 188.808C168.269 188.713 169.31 188.301 170 187.572C170.69 186.832 171.142 185.885 171.356 184.731L174.426 184.521C174.345 185.749 173.982 186.878 173.336 187.908C172.7 188.927 171.841 189.761 170.758 190.41C169.686 191.047 168.454 191.413 167.063 191.509ZM185.862 190.224C184.05 190.348 182.473 190.038 181.13 189.296C179.799 188.553 178.745 187.48 177.968 186.077C177.19 184.661 176.737 183.024 176.61 181.166C176.481 179.283 176.724 177.587 177.337 176.077C177.95 174.567 178.86 173.353 180.066 172.437C181.271 171.509 182.692 170.989 184.329 170.877C186.047 170.76 187.566 171.067 188.885 171.799C190.203 172.531 191.252 173.605 192.03 175.02C192.819 176.434 193.28 178.1 193.411 180.017L193.467 180.842L179.613 181.788C179.807 183.596 180.428 185.033 181.475 186.101C182.523 187.169 183.924 187.643 185.678 187.523C186.999 187.433 188.054 187.055 188.842 186.39C189.643 185.725 190.15 184.903 190.365 183.925L193.347 183.722C193.194 184.919 192.779 185.992 192.104 186.943C191.429 187.882 190.552 188.64 189.476 189.219C188.412 189.797 187.207 190.132 185.862 190.224ZM179.473 179.226L190.311 178.485C190.036 176.871 189.381 175.618 188.345 174.725C187.309 173.833 186.031 173.439 184.511 173.543C182.991 173.647 181.785 174.211 180.891 175.235C179.998 176.259 179.525 177.589 179.473 179.226ZM197.443 189.009L196.178 170.49L199.159 170.286L199.705 178.283L201.705 178.147L208.261 169.664L212.066 169.404L204.786 178.888L213.437 187.916L209.649 188.175L202.668 180.9L199.897 181.089L200.425 188.806L197.443 189.009ZM217.333 187.95C216.725 187.991 216.191 187.816 215.729 187.425C215.279 187.021 215.033 186.515 214.991 185.907C214.949 185.288 215.124 184.753 215.516 184.303C215.92 183.853 216.426 183.607 217.034 183.565C217.653 183.523 218.188 183.698 218.638 184.09C219.087 184.482 219.333 184.988 219.376 185.608C219.417 186.216 219.242 186.75 218.851 187.212C218.459 187.661 217.953 187.907 217.333 187.95ZM220.208 192.634C221.904 189.605 223.21 186.796 224.125 184.208C225.041 181.62 225.62 179.096 225.863 176.637C226.032 174.816 226.044 172.918 225.897 170.943C225.761 168.956 225.48 166.996 225.054 165.063C224.628 163.119 224.07 161.313 223.38 159.645L226.292 159.446C226.981 160.773 227.555 162.379 228.013 164.262C228.47 166.145 228.777 168.145 228.933 170.26C229.089 172.364 229.071 174.42 228.879 176.43C228.609 179.174 227.985 181.906 227.008 184.628C226.031 187.349 224.735 189.951 223.119 192.435L220.208 192.634Z" fill="#FF36C9"/>
</svg>
