<svg width="300" height="300" viewBox="0 0 300 300" fill="none" xmlns="http://www.w3.org/2000/svg">
<path d="M0 24C0 10.7452 10.7452 0 24 0H276C289.255 0 300 10.7452 300 24V276C300 289.255 289.255 300 276 300H24C10.7452 300 0 289.255 0 276V24Z" fill="#FF36C9"/>
<path d="M30.8438 249.281C29.625 249.281 28.5586 249.012 27.6445 248.473C26.7305 247.926 26.0156 247.168 25.5 246.199C24.9922 245.23 24.7383 244.105 24.7383 242.824C24.7383 241.543 24.9922 240.418 25.5 239.449C26.0156 238.473 26.7305 237.711 27.6445 237.164C28.5586 236.617 29.625 236.344 30.8438 236.344C32.0547 236.344 33.1172 236.617 34.0312 237.164C34.9531 237.711 35.668 238.473 36.1758 239.449C36.6914 240.418 36.9492 241.543 36.9492 242.824C36.9492 244.105 36.6914 245.23 36.1758 246.199C35.668 247.168 34.9531 247.926 34.0312 248.473C33.1172 249.012 32.0547 249.281 30.8438 249.281ZM30.8438 246.809C31.7891 246.809 32.543 246.453 33.1055 245.742C33.668 245.031 33.9492 244.059 33.9492 242.824C33.9492 241.59 33.668 240.613 33.1055 239.895C32.543 239.176 31.7891 238.816 30.8438 238.816C29.8906 238.816 29.1328 239.176 28.5703 239.895C28.0078 240.605 27.7266 241.582 27.7266 242.824C27.7266 244.059 28.0078 245.031 28.5703 245.742C29.1328 246.453 29.8906 246.809 30.8438 246.809ZM39 236.625H41.9531V246.445H46.0547V236.625H48.9492V246.445H53.0508V236.625H56.0039V249H39V236.625ZM70.0195 249H67.0898V240.949H67.0664L61.2773 249H58.6406V236.625H61.5703V244.652H61.5938L67.3359 236.625H70.0195V249ZM83.0156 231.059L84.0938 232.969C83.5234 233.477 82.832 233.781 82.0195 233.883C81.2148 233.984 80.168 234.051 78.8789 234.082C77.4258 234.113 76.3594 234.52 75.6797 235.301C75 236.082 74.5898 237.293 74.4492 238.934H74.5898C74.9961 238.129 75.5703 237.52 76.3125 237.105C77.0625 236.691 77.9297 236.484 78.9141 236.484C79.9844 236.484 80.9336 236.727 81.7617 237.211C82.5977 237.695 83.25 238.398 83.7188 239.32C84.1875 240.242 84.4219 241.359 84.4219 242.672C84.4219 244.023 84.168 245.191 83.6602 246.176C83.1602 247.16 82.4492 247.922 81.5273 248.461C80.6055 249 79.5195 249.27 78.2695 249.27C76.3711 249.27 74.8594 248.645 73.7344 247.395C72.6172 246.145 72.0586 244.32 72.0586 241.922V240.738C72.0586 237.676 72.625 235.387 73.7578 233.871C74.8906 232.348 76.5742 231.57 78.8086 231.539C79.0195 231.531 79.2266 231.527 79.4297 231.527C79.6328 231.527 79.8281 231.531 80.0156 231.539C80.6953 231.539 81.2852 231.52 81.7852 231.48C82.2852 231.441 82.6953 231.301 83.0156 231.059ZM78.2695 246.855C79.2461 246.855 80.0117 246.488 80.5664 245.754C81.1289 245.012 81.4102 244.012 81.4102 242.754C81.4102 241.512 81.1289 240.551 80.5664 239.871C80.0039 239.191 79.2305 238.852 78.2461 238.852C77.2695 238.852 76.5 239.191 75.9375 239.871C75.3828 240.551 75.0977 241.512 75.082 242.754C75.082 244.004 75.3633 245 75.9258 245.742C76.4961 246.484 77.2773 246.855 78.2695 246.855ZM92.0156 249.281C90.7969 249.281 89.7305 249.012 88.8164 248.473C87.9023 247.926 87.1875 247.168 86.6719 246.199C86.1641 245.23 85.9102 244.105 85.9102 242.824C85.9102 241.543 86.1641 240.418 86.6719 239.449C87.1875 238.473 87.9023 237.711 88.8164 237.164C89.7305 236.617 90.7969 236.344 92.0156 236.344C93.2266 236.344 94.2891 236.617 95.2031 237.164C96.125 237.711 96.8398 238.473 97.3477 239.449C97.8633 240.418 98.1211 241.543 98.1211 242.824C98.1211 244.105 97.8633 245.23 97.3477 246.199C96.8398 247.168 96.125 247.926 95.2031 248.473C94.2891 249.012 93.2266 249.281 92.0156 249.281ZM92.0156 246.809C92.9609 246.809 93.7148 246.453 94.2773 245.742C94.8398 245.031 95.1211 244.059 95.1211 242.824C95.1211 241.59 94.8398 240.613 94.2773 239.895C93.7148 239.176 92.9609 238.816 92.0156 238.816C91.0625 238.816 90.3047 239.176 89.7422 239.895C89.1797 240.605 88.8984 241.582 88.8984 242.824C88.8984 244.059 89.1797 245.031 89.7422 245.742C90.3047 246.453 91.0625 246.809 92.0156 246.809ZM100.172 249V236.625H103.125V241.652H104.227L108.328 236.625H111.902L107.016 242.648L111.949 249H108.363L104.637 244.195H103.125V249H100.172ZM124.066 249.281C122.863 249.281 121.805 249.008 120.891 248.461C119.984 247.914 119.277 247.156 118.77 246.188C118.27 245.219 118.02 244.098 118.02 242.824C118.02 241.551 118.27 240.43 118.77 239.461C119.277 238.484 119.984 237.723 120.891 237.176C121.805 236.621 122.863 236.344 124.066 236.344C125.105 236.344 126.031 236.547 126.844 236.953C127.656 237.352 128.309 237.906 128.801 238.617C129.301 239.32 129.594 240.133 129.68 241.055H126.785C126.676 240.391 126.391 239.852 125.93 239.438C125.477 239.016 124.867 238.805 124.102 238.805C123.133 238.805 122.375 239.168 121.828 239.895C121.281 240.621 121.008 241.598 121.008 242.824C121.008 244.043 121.281 245.016 121.828 245.742C122.375 246.461 123.133 246.82 124.102 246.82C124.875 246.82 125.477 246.617 125.906 246.211C126.336 245.797 126.621 245.246 126.762 244.559H129.68C129.609 245.465 129.324 246.273 128.824 246.984C128.332 247.695 127.676 248.258 126.855 248.672C126.043 249.078 125.113 249.281 124.066 249.281ZM137.203 249.281C135.984 249.281 134.918 249.012 134.004 248.473C133.09 247.926 132.375 247.168 131.859 246.199C131.352 245.23 131.098 244.105 131.098 242.824C131.098 241.543 131.352 240.418 131.859 239.449C132.375 238.473 133.09 237.711 134.004 237.164C134.918 236.617 135.984 236.344 137.203 236.344C138.414 236.344 139.477 236.617 140.391 237.164C141.312 237.711 142.027 238.473 142.535 239.449C143.051 240.418 143.309 241.543 143.309 242.824C143.309 244.105 143.051 245.23 142.535 246.199C142.027 247.168 141.312 247.926 140.391 248.473C139.477 249.012 138.414 249.281 137.203 249.281ZM137.203 246.809C138.148 246.809 138.902 246.453 139.465 245.742C140.027 245.031 140.309 244.059 140.309 242.824C140.309 241.59 140.027 240.613 139.465 239.895C138.902 239.176 138.148 238.816 137.203 238.816C136.25 238.816 135.492 239.176 134.93 239.895C134.367 240.605 134.086 241.582 134.086 242.824C134.086 244.059 134.367 245.031 134.93 245.742C135.492 246.453 136.25 246.809 137.203 246.809ZM145.359 249V236.625H150.715C152.246 236.625 153.457 236.895 154.348 237.434C155.246 237.973 155.695 238.793 155.695 239.895C155.695 241.379 154.879 242.246 153.246 242.496C154.168 242.59 154.883 242.898 155.391 243.422C155.906 243.938 156.164 244.629 156.164 245.496C156.164 246.574 155.773 247.43 154.992 248.062C154.219 248.688 153.074 249 151.559 249H145.359ZM148.137 246.621H151.453C152.688 246.621 153.305 246.141 153.305 245.18C153.305 244.133 152.688 243.609 151.453 243.609H148.137V246.621ZM148.137 241.723H150.82C151.461 241.723 151.957 241.598 152.309 241.348C152.66 241.09 152.836 240.73 152.836 240.27C152.836 239.84 152.648 239.508 152.273 239.273C151.906 239.031 151.387 238.91 150.715 238.91H148.137V241.723ZM163.641 249.281C162.406 249.281 161.336 249.004 160.43 248.449C159.523 247.895 158.824 247.133 158.332 246.164C157.848 245.188 157.605 244.074 157.605 242.824C157.605 241.566 157.855 240.453 158.355 239.484C158.863 238.508 159.562 237.742 160.453 237.188C161.344 236.625 162.367 236.344 163.523 236.344C164.711 236.344 165.75 236.617 166.641 237.164C167.531 237.711 168.223 238.469 168.715 239.438C169.207 240.398 169.453 241.512 169.453 242.777V243.586H160.5C160.539 244.594 160.836 245.406 161.391 246.023C161.945 246.641 162.719 246.949 163.711 246.949C164.453 246.949 165.066 246.789 165.551 246.469C166.035 246.141 166.363 245.711 166.535 245.18H169.301C169.145 245.984 168.801 246.695 168.27 247.312C167.746 247.93 167.086 248.414 166.289 248.766C165.492 249.109 164.609 249.281 163.641 249.281ZM160.523 241.547H166.617C166.523 240.664 166.203 239.969 165.656 239.461C165.117 238.945 164.422 238.688 163.57 238.688C162.711 238.688 162.012 238.945 161.473 239.461C160.941 239.969 160.625 240.664 160.523 241.547ZM171.469 253.898V236.625H174.375V238.348H174.41C174.801 237.691 175.324 237.199 175.98 236.871C176.637 236.543 177.363 236.379 178.16 236.379C179.223 236.379 180.152 236.652 180.949 237.199C181.754 237.738 182.379 238.492 182.824 239.461C183.277 240.422 183.504 241.535 183.504 242.801C183.504 244.09 183.281 245.219 182.836 246.188C182.398 247.148 181.777 247.898 180.973 248.438C180.168 248.977 179.227 249.246 178.148 249.246C177.336 249.246 176.613 249.07 175.98 248.719C175.355 248.367 174.848 247.84 174.457 247.137H174.422V253.898H171.469ZM177.457 246.773C178.371 246.773 179.109 246.434 179.672 245.754C180.234 245.066 180.516 244.082 180.516 242.801C180.516 241.527 180.234 240.547 179.672 239.859C179.109 239.172 178.371 238.828 177.457 238.828C176.488 238.828 175.711 239.191 175.125 239.918C174.547 240.637 174.258 241.598 174.258 242.801C174.258 244.004 174.547 244.969 175.125 245.695C175.711 246.414 176.488 246.773 177.457 246.773ZM185.555 236.625H188.508V246.445H192.609V236.625H195.504V246.445H199.605V236.625H202.559V249H185.555V236.625ZM208.969 249.199C207.734 249.199 206.711 248.891 205.898 248.273C205.094 247.648 204.691 246.719 204.691 245.484C204.691 244.547 204.918 243.824 205.371 243.316C205.832 242.801 206.43 242.426 207.164 242.191C207.906 241.957 208.703 241.797 209.555 241.711C210.703 241.578 211.504 241.461 211.957 241.359C212.41 241.258 212.637 240.996 212.637 240.574V240.48C212.637 239.949 212.434 239.516 212.027 239.18C211.629 238.844 211.078 238.676 210.375 238.676C209.656 238.676 209.07 238.844 208.617 239.18C208.172 239.516 207.93 239.945 207.891 240.469H205.043C205.113 239.242 205.625 238.254 206.578 237.504C207.531 236.754 208.816 236.379 210.434 236.379C212.043 236.379 213.301 236.754 214.207 237.504C215.113 238.254 215.566 239.273 215.566 240.562V249H212.66V247.254H212.613C212.316 247.801 211.887 248.262 211.324 248.637C210.762 249.012 209.977 249.199 208.969 249.199ZM209.695 247.008C210.664 247.008 211.398 246.758 211.898 246.258C212.398 245.75 212.648 245.137 212.648 244.418V243.082C212.469 243.199 212.121 243.309 211.605 243.41C211.09 243.504 210.527 243.598 209.918 243.691C209.285 243.785 208.734 243.965 208.266 244.23C207.805 244.488 207.574 244.898 207.574 245.461C207.574 245.945 207.766 246.324 208.148 246.598C208.531 246.871 209.047 247.008 209.695 247.008ZM218.18 249V236.625H221.133V241.535H223.582C223.746 240.488 224.098 239.578 224.637 238.805C225.176 238.023 225.867 237.418 226.711 236.988C227.555 236.559 228.516 236.344 229.594 236.344C230.805 236.344 231.867 236.617 232.781 237.164C233.703 237.711 234.418 238.473 234.926 239.449C235.441 240.418 235.699 241.543 235.699 242.824C235.699 244.105 235.441 245.23 234.926 246.199C234.418 247.168 233.703 247.926 232.781 248.473C231.867 249.012 230.805 249.281 229.594 249.281C228.516 249.281 227.551 249.066 226.699 248.637C225.855 248.207 225.164 247.605 224.625 246.832C224.086 246.051 223.738 245.133 223.582 244.078H221.133V249H218.18ZM229.594 246.809C230.539 246.809 231.293 246.453 231.855 245.742C232.418 245.031 232.699 244.059 232.699 242.824C232.699 241.59 232.418 240.613 231.855 239.895C231.293 239.176 230.539 238.816 229.594 238.816C228.648 238.816 227.891 239.176 227.32 239.895C226.758 240.605 226.477 241.582 226.477 242.824C226.477 244.059 226.758 245.031 227.32 245.742C227.883 246.453 228.641 246.809 229.594 246.809ZM240.844 249V239.133H236.637V236.625H247.992V239.133H243.809V249H240.844ZM36.5039 260.625V273H33.5391V263.18H28.2656V273H25.3125V260.625H36.5039ZM44.6484 273.281C43.4297 273.281 42.3633 273.012 41.4492 272.473C40.5352 271.926 39.8203 271.168 39.3047 270.199C38.7969 269.23 38.543 268.105 38.543 266.824C38.543 265.543 38.7969 264.418 39.3047 263.449C39.8203 262.473 40.5352 261.711 41.4492 261.164C42.3633 260.617 43.4297 260.344 44.6484 260.344C45.8594 260.344 46.9219 260.617 47.8359 261.164C48.7578 261.711 49.4727 262.473 49.9805 263.449C50.4961 264.418 50.7539 265.543 50.7539 266.824C50.7539 268.105 50.4961 269.23 49.9805 270.199C49.4727 271.168 48.7578 271.926 47.8359 272.473C46.9219 273.012 45.8594 273.281 44.6484 273.281ZM44.6484 270.809C45.5938 270.809 46.3477 270.453 46.9102 269.742C47.4727 269.031 47.7539 268.059 47.7539 266.824C47.7539 265.59 47.4727 264.613 46.9102 263.895C46.3477 263.176 45.5938 262.816 44.6484 262.816C43.6953 262.816 42.9375 263.176 42.375 263.895C41.8125 264.605 41.5312 265.582 41.5312 266.824C41.5312 268.059 41.8125 269.031 42.375 269.742C42.9375 270.453 43.6953 270.809 44.6484 270.809ZM51.6914 273V270.527H52.207C52.668 270.527 53.0273 270.418 53.2852 270.199C53.5508 269.98 53.7461 269.562 53.8711 268.945C53.9961 268.32 54.082 267.41 54.1289 266.215L54.3633 260.625H64.043V273H61.0781V263.086H57.1875L57 266.859C56.8984 269.023 56.5234 270.59 55.875 271.559C55.2344 272.52 54.2266 273 52.8516 273H51.6914ZM69.6328 264.68H72.5273C74.0273 264.68 75.2188 265.055 76.1016 265.805C76.9922 266.555 77.4375 267.559 77.4375 268.816C77.4375 270.082 76.9922 271.098 76.1016 271.863C75.2188 272.621 74.0273 273 72.5273 273H66.6797V260.625H69.6328V264.68ZM69.6328 267.117V270.539H72.4336C73.0898 270.539 73.6055 270.383 73.9805 270.07C74.3633 269.758 74.5547 269.332 74.5547 268.793C74.5547 268.27 74.3633 267.859 73.9805 267.562C73.6055 267.266 73.0898 267.117 72.4336 267.117H69.6328ZM83.9883 273.188C82.9258 273.188 82.0117 273.008 81.2461 272.648C80.4883 272.281 79.9023 271.793 79.4883 271.184C79.082 270.566 78.875 269.883 78.8672 269.133H81.75C81.7656 269.656 81.9766 270.07 82.3828 270.375C82.7891 270.68 83.3164 270.832 83.9648 270.832C84.6211 270.832 85.1523 270.688 85.5586 270.398C85.9727 270.102 86.1797 269.723 86.1797 269.262C86.1797 268.777 85.9609 268.383 85.5234 268.078C85.0859 267.773 84.4961 267.621 83.7539 267.621H82.7695V265.711H83.7539C84.3945 265.711 84.9141 265.566 85.3125 265.277C85.7109 264.988 85.9102 264.609 85.9102 264.141C85.9102 263.695 85.7344 263.332 85.3828 263.051C85.0312 262.77 84.5664 262.629 83.9883 262.629C83.4023 262.629 82.9141 262.77 82.5234 263.051C82.1328 263.332 81.9336 263.719 81.9258 264.211H79.125C79.1328 263.461 79.3438 262.797 79.7578 262.219C80.1719 261.641 80.7422 261.188 81.4688 260.859C82.2031 260.523 83.0469 260.355 84 260.355C84.9297 260.355 85.7461 260.512 86.4492 260.824C87.1602 261.129 87.7148 261.547 88.1133 262.078C88.5117 262.602 88.7109 263.195 88.7109 263.859C88.7109 264.562 88.4766 265.152 88.0078 265.629C87.5469 266.105 86.9375 266.406 86.1797 266.531V266.555C87.1406 266.664 87.8789 266.992 88.3945 267.539C88.9102 268.078 89.168 268.727 89.168 269.484C89.168 270.203 88.9453 270.84 88.5 271.395C88.0625 271.949 87.4531 272.387 86.6719 272.707C85.8906 273.027 84.9961 273.188 83.9883 273.188ZM96.6562 273.281C95.4375 273.281 94.3711 273.012 93.457 272.473C92.543 271.926 91.8281 271.168 91.3125 270.199C90.8047 269.23 90.5508 268.105 90.5508 266.824C90.5508 265.543 90.8047 264.418 91.3125 263.449C91.8281 262.473 92.543 261.711 93.457 261.164C94.3711 260.617 95.4375 260.344 96.6562 260.344C97.8672 260.344 98.9297 260.617 99.8438 261.164C100.766 261.711 101.48 262.473 101.988 263.449C102.504 264.418 102.762 265.543 102.762 266.824C102.762 268.105 102.504 269.23 101.988 270.199C101.48 271.168 100.766 271.926 99.8438 272.473C98.9297 273.012 97.8672 273.281 96.6562 273.281ZM96.6562 270.809C97.6016 270.809 98.3555 270.453 98.918 269.742C99.4805 269.031 99.7617 268.059 99.7617 266.824C99.7617 265.59 99.4805 264.613 98.918 263.895C98.3555 263.176 97.6016 262.816 96.6562 262.816C95.7031 262.816 94.9453 263.176 94.3828 263.895C93.8203 264.605 93.5391 265.582 93.5391 266.824C93.5391 268.059 93.8203 269.031 94.3828 269.742C94.9453 270.453 95.7031 270.809 96.6562 270.809ZM104.812 273V260.625H110.168C111.699 260.625 112.91 260.895 113.801 261.434C114.699 261.973 115.148 262.793 115.148 263.895C115.148 265.379 114.332 266.246 112.699 266.496C113.621 266.59 114.336 266.898 114.844 267.422C115.359 267.938 115.617 268.629 115.617 269.496C115.617 270.574 115.227 271.43 114.445 272.062C113.672 272.688 112.527 273 111.012 273H104.812ZM107.59 270.621H110.906C112.141 270.621 112.758 270.141 112.758 269.18C112.758 268.133 112.141 267.609 110.906 267.609H107.59V270.621ZM107.59 265.723H110.273C110.914 265.723 111.41 265.598 111.762 265.348C112.113 265.09 112.289 264.73 112.289 264.27C112.289 263.84 112.102 263.508 111.727 263.273C111.359 263.031 110.84 262.91 110.168 262.91H107.59V265.723ZM121.406 273.199C120.172 273.199 119.148 272.891 118.336 272.273C117.531 271.648 117.129 270.719 117.129 269.484C117.129 268.547 117.355 267.824 117.809 267.316C118.27 266.801 118.867 266.426 119.602 266.191C120.344 265.957 121.141 265.797 121.992 265.711C123.141 265.578 123.941 265.461 124.395 265.359C124.848 265.258 125.074 264.996 125.074 264.574V264.48C125.074 263.949 124.871 263.516 124.465 263.18C124.066 262.844 123.516 262.676 122.812 262.676C122.094 262.676 121.508 262.844 121.055 263.18C120.609 263.516 120.367 263.945 120.328 264.469H117.48C117.551 263.242 118.062 262.254 119.016 261.504C119.969 260.754 121.254 260.379 122.871 260.379C124.48 260.379 125.738 260.754 126.645 261.504C127.551 262.254 128.004 263.273 128.004 264.562V273H125.098V271.254H125.051C124.754 271.801 124.324 272.262 123.762 272.637C123.199 273.012 122.414 273.199 121.406 273.199ZM122.133 271.008C123.102 271.008 123.836 270.758 124.336 270.258C124.836 269.75 125.086 269.137 125.086 268.418V267.082C124.906 267.199 124.559 267.309 124.043 267.41C123.527 267.504 122.965 267.598 122.355 267.691C121.723 267.785 121.172 267.965 120.703 268.23C120.242 268.488 120.012 268.898 120.012 269.461C120.012 269.945 120.203 270.324 120.586 270.598C120.969 270.871 121.484 271.008 122.133 271.008ZM133.711 273V263.133H129.504V260.625H140.859V263.133H136.676V273H133.711ZM147.68 273.281C146.445 273.281 145.375 273.004 144.469 272.449C143.562 271.895 142.863 271.133 142.371 270.164C141.887 269.188 141.645 268.074 141.645 266.824C141.645 265.566 141.895 264.453 142.395 263.484C142.902 262.508 143.602 261.742 144.492 261.188C145.383 260.625 146.406 260.344 147.562 260.344C148.75 260.344 149.789 260.617 150.68 261.164C151.57 261.711 152.262 262.469 152.754 263.438C153.246 264.398 153.492 265.512 153.492 266.777V267.586H144.539C144.578 268.594 144.875 269.406 145.43 270.023C145.984 270.641 146.758 270.949 147.75 270.949C148.492 270.949 149.105 270.789 149.59 270.469C150.074 270.141 150.402 269.711 150.574 269.18H153.34C153.184 269.984 152.84 270.695 152.309 271.312C151.785 271.93 151.125 272.414 150.328 272.766C149.531 273.109 148.648 273.281 147.68 273.281ZM144.562 265.547H150.656C150.562 264.664 150.242 263.969 149.695 263.461C149.156 262.945 148.461 262.688 147.609 262.688C146.75 262.688 146.051 262.945 145.512 263.461C144.98 263.969 144.664 264.664 144.562 265.547ZM154.395 273V270.527H154.91C155.371 270.527 155.73 270.418 155.988 270.199C156.254 269.98 156.449 269.562 156.574 268.945C156.699 268.32 156.785 267.41 156.832 266.215L157.066 260.625H166.746V273H163.781V263.086H159.891L159.703 266.859C159.602 269.023 159.227 270.59 158.578 271.559C157.938 272.52 156.93 273 155.555 273H154.395ZM180.762 273H177.832V264.949H177.809L172.02 273H169.383V260.625H172.312V268.652H172.336L178.078 260.625H180.762V273Z" fill="white"/>
<rect x="24" y="33.2115" width="176.277" height="176.146" rx="25.5476" transform="rotate(-4.95039 24 33.2115)" fill="white"/>
<path d="M125.067 178.664C114.358 179.591 104.93 177.74 96.7811 173.108C88.6276 168.42 82.0475 161.357 77.0407 151.92C72.086 142.421 69.0264 130.95 67.862 117.507C66.6927 104.008 67.7319 92.1529 70.9796 81.9434C74.2842 71.729 79.5519 63.6401 86.7829 57.6766C94.0088 51.6562 102.976 48.1823 113.685 47.2547C124.337 46.3321 133.739 48.215 141.893 52.9032C150.041 57.5346 156.621 64.5973 161.633 74.0914C166.645 83.5855 169.735 95.0824 170.905 108.582C172.074 122.082 171.004 133.911 167.694 144.068C164.385 154.225 159.117 162.314 151.891 168.335C144.66 174.298 135.719 177.741 125.067 178.664ZM123.246 157.645C131.506 156.93 137.685 152.406 141.784 144.074C145.878 135.685 147.325 124.57 146.127 110.728C144.923 96.8298 141.583 86.1005 136.108 78.5404C130.632 70.9803 123.765 67.558 115.505 68.2734C107.189 68.9937 100.984 73.5483 96.8899 81.9373C92.8529 90.3214 91.4363 101.463 92.6401 115.361C93.839 129.203 97.1477 139.906 102.566 147.471C108.037 154.974 114.93 158.366 123.246 157.645Z" fill="#FF36C9"/>
<g filter="url(#filter0_dddd_2311_2844)">
<rect x="201.482" y="113" width="65.1239" height="59.3815" rx="13.7327" transform="rotate(14.1161 201.482 113)" fill="white"/>
<path d="M233.357 172.291C231.589 171.846 230.128 171.055 228.976 169.917C227.824 168.779 227.048 167.395 226.647 165.764C226.246 164.132 226.283 162.372 226.758 160.482L226.954 159.701C227.434 157.794 228.234 156.225 229.355 154.995C230.48 153.747 231.819 152.895 233.372 152.437C234.93 151.962 236.593 151.947 238.362 152.392C240.113 152.833 241.563 153.631 242.71 154.786C243.862 155.924 244.639 157.308 245.04 158.939C245.463 160.558 245.434 162.32 244.954 164.228L244.758 165.008C244.283 166.898 243.474 168.465 242.332 169.708C241.207 170.956 239.868 171.808 238.314 172.266C236.761 172.723 235.109 172.732 233.357 172.291ZM213.079 145.813C211.327 145.372 209.875 144.583 208.723 143.445C207.571 142.307 206.795 140.923 206.394 139.292C205.993 137.661 206.03 135.9 206.505 134.01L206.702 133.229C207.181 131.322 207.981 129.753 209.102 128.523C210.227 127.275 211.566 126.423 213.119 125.965C214.677 125.491 216.331 125.473 218.083 125.914C219.852 126.359 221.31 127.159 222.457 128.314C223.609 129.452 224.386 130.836 224.787 132.467C225.192 134.081 225.155 135.842 224.676 137.749L224.479 138.53C224.004 140.42 223.204 141.989 222.079 143.236C220.954 144.484 219.615 145.336 218.062 145.794C216.508 146.251 214.847 146.258 213.079 145.813ZM204.667 164.412L241.05 132.353L246.721 133.78L210.338 165.839L204.667 164.412ZM214.276 141.053C215.334 141.319 216.275 141.131 217.1 140.491C217.946 139.837 218.568 138.721 218.965 137.143L219.161 136.363C219.562 134.767 219.545 133.481 219.108 132.505C218.689 131.533 217.95 130.914 216.892 130.648C215.852 130.386 214.908 130.582 214.062 131.236C213.232 131.894 212.617 133.021 212.216 134.616L212.02 135.396C211.623 136.975 211.634 138.25 212.053 139.222C212.494 140.181 213.235 140.791 214.276 141.053ZM234.555 167.531C235.595 167.793 236.528 167.603 237.353 166.963C238.199 166.309 238.821 165.193 239.218 163.615L239.414 162.835C239.815 161.239 239.797 159.953 239.361 158.977C238.942 158.005 238.212 157.388 237.171 157.126C236.113 156.86 235.17 157.056 234.341 157.714C233.511 158.372 232.896 159.499 232.495 161.095L232.299 161.875C231.902 163.453 231.913 164.728 232.332 165.7C232.756 166.655 233.497 167.265 234.555 167.531Z" fill="#FF36C9"/>
</g>
<defs>
<filter id="filter0_dddd_2311_2844" x="159.73" y="110.179" width="107.731" height="106.383" filterUnits="userSpaceOnUse" color-interpolation-filters="sRGB">
<feFlood flood-opacity="0" result="BackgroundImageFix"/>
<feColorMatrix in="SourceAlpha" type="matrix" values="0 0 0 0 0 0 0 0 0 0 0 0 0 0 0 0 0 0 127 0" result="hardAlpha"/>
<feOffset dx="-0.940341" dy="0.940341"/>
<feGaussianBlur stdDeviation="1.88068"/>
<feColorMatrix type="matrix" values="0 0 0 0 1 0 0 0 0 0 0 0 0 0 0.815686 0 0 0 0.1 0"/>
<feBlend mode="normal" in2="BackgroundImageFix" result="effect1_dropShadow_2311_2844"/>
<feColorMatrix in="SourceAlpha" type="matrix" values="0 0 0 0 0 0 0 0 0 0 0 0 0 0 0 0 0 0 127 0" result="hardAlpha"/>
<feOffset dx="-4.70171" dy="4.70171"/>
<feGaussianBlur stdDeviation="3.29119"/>
<feColorMatrix type="matrix" values="0 0 0 0 1 0 0 0 0 0 0 0 0 0 0.815686 0 0 0 0.09 0"/>
<feBlend mode="normal" in2="effect1_dropShadow_2311_2844" result="effect2_dropShadow_2311_2844"/>
<feColorMatrix in="SourceAlpha" type="matrix" values="0 0 0 0 0 0 0 0 0 0 0 0 0 0 0 0 0 0 127 0" result="hardAlpha"/>
<feOffset dx="-9.40341" dy="11.2841"/>
<feGaussianBlur stdDeviation="4.23154"/>
<feColorMatrix type="matrix" values="0 0 0 0 1 0 0 0 0 0 0 0 0 0 0.815686 0 0 0 0.05 0"/>
<feBlend mode="normal" in2="effect2_dropShadow_2311_2844" result="effect3_dropShadow_2311_2844"/>
<feColorMatrix in="SourceAlpha" type="matrix" values="0 0 0 0 0 0 0 0 0 0 0 0 0 0 0 0 0 0 127 0" result="hardAlpha"/>
<feOffset dx="-16.9261" dy="19.7472"/>
<feGaussianBlur stdDeviation="5.17188"/>
<feColorMatrix type="matrix" values="0 0 0 0 1 0 0 0 0 0 0 0 0 0 0.815686 0 0 0 0.01 0"/>
<feBlend mode="normal" in2="effect3_dropShadow_2311_2844" result="effect4_dropShadow_2311_2844"/>
<feBlend mode="normal" in="SourceGraphic" in2="effect4_dropShadow_2311_2844" result="shape"/>
</filter>
</defs>
</svg>
