<svg width="300" height="300" viewBox="0 0 300 300" fill="none" xmlns="http://www.w3.org/2000/svg">
<path d="M0 24C0 10.7452 10.7452 0 24 0H276C289.255 0 300 10.7452 300 24V276C300 289.255 289.255 300 276 300H24C10.7452 300 0 289.255 0 276V24Z" fill="#FF36C9"/>
<rect x="27.7914" y="20" width="218.72" height="171.603" rx="23.8604" transform="rotate(4.27483 27.7914 20)" fill="white"/>
<path d="M33.2274 166.615L34.5768 148.563L80.9768 114.521C86.5948 110.282 91.2817 106.322 95.0375 102.64C98.7973 98.9055 100.886 94.2423 101.304 88.6511C101.73 82.9533 100.338 78.2977 97.1272 74.6842C93.9207 71.0175 89.3887 68.9652 83.5312 68.5274C77.1412 68.0498 71.9558 69.7237 67.9751 73.5493C63.9944 77.3749 61.7333 82.9087 61.192 90.1507L38.5874 88.4611C39.2322 79.8346 41.5507 72.4577 45.5428 66.3304C49.5922 60.1538 54.9699 55.5491 61.6758 52.5162C68.3857 49.4301 76.1605 48.2174 85 48.8782C93.1472 49.4871 100.274 51.5727 106.38 55.1349C112.49 58.6438 117.121 63.3006 120.275 69.1053C123.482 74.9139 124.805 81.5724 124.244 89.0806C123.83 94.6186 122.413 99.5998 119.994 104.024C117.575 108.448 114.234 112.67 109.971 116.688C105.766 120.658 100.717 124.805 94.8245 129.131L67.9421 149.21L67.9302 149.369L120.009 153.262L118.534 172.991L33.2274 166.615ZM173.268 179.01C158.411 177.9 147.265 171.926 139.828 161.089C132.392 150.252 129.365 135.595 130.746 117.117C131.721 104.071 134.379 92.8637 138.721 83.4961C143.119 74.0793 149.057 66.9996 156.533 62.2573C164.067 57.4657 173.025 55.4579 183.409 56.2341C191.343 56.8272 198.181 58.8376 203.922 62.2654C209.717 65.6972 214.231 70.131 217.466 75.5669C220.701 81.0029 222.42 87.0216 222.622 93.6231L199.618 91.9035C199.113 87.2071 197.313 83.351 194.218 80.3352C191.124 77.3194 186.967 75.6165 181.749 75.2264C173.229 74.5896 166.664 77.5259 162.054 84.0354C157.497 90.5489 154.803 99.3703 153.971 110.5L154.131 110.511C157.398 106.204 161.571 103.035 166.649 101.005C171.727 98.9753 177.355 98.1912 183.532 98.6529C191.2 99.2261 197.886 101.466 203.591 105.373C209.354 109.231 213.714 114.296 216.673 120.568C219.688 126.791 220.909 133.736 220.336 141.404C219.731 149.498 217.307 156.492 213.065 162.387C208.88 168.232 203.329 172.636 196.414 175.6C189.557 178.514 181.841 179.651 173.268 179.01ZM174.553 159.668C178.494 159.963 182.104 159.296 185.385 157.667C188.67 155.985 191.34 153.587 193.393 150.474C195.499 147.365 196.706 143.761 197.012 139.661C197.466 133.59 195.874 128.384 192.236 124.042C188.602 119.648 183.856 117.231 177.999 116.794C174.058 116.499 170.419 117.191 167.081 118.869C163.8 120.498 161.106 122.867 158.999 125.976C156.95 129.035 155.774 132.589 155.472 136.636C155.169 140.683 155.802 144.398 157.369 147.782C158.937 151.165 161.22 153.933 164.219 156.085C167.221 158.183 170.666 159.378 174.553 159.668Z" fill="#FF36C9"/>
<path d="M30.8438 249.281C29.625 249.281 28.5586 249.012 27.6445 248.473C26.7305 247.926 26.0156 247.168 25.5 246.199C24.9922 245.23 24.7383 244.105 24.7383 242.824C24.7383 241.543 24.9922 240.418 25.5 239.449C26.0156 238.473 26.7305 237.711 27.6445 237.164C28.5586 236.617 29.625 236.344 30.8438 236.344C32.0547 236.344 33.1172 236.617 34.0312 237.164C34.9531 237.711 35.668 238.473 36.1758 239.449C36.6914 240.418 36.9492 241.543 36.9492 242.824C36.9492 244.105 36.6914 245.23 36.1758 246.199C35.668 247.168 34.9531 247.926 34.0312 248.473C33.1172 249.012 32.0547 249.281 30.8438 249.281ZM30.8438 246.809C31.7891 246.809 32.543 246.453 33.1055 245.742C33.668 245.031 33.9492 244.059 33.9492 242.824C33.9492 241.59 33.668 240.613 33.1055 239.895C32.543 239.176 31.7891 238.816 30.8438 238.816C29.8906 238.816 29.1328 239.176 28.5703 239.895C28.0078 240.605 27.7266 241.582 27.7266 242.824C27.7266 244.059 28.0078 245.031 28.5703 245.742C29.1328 246.453 29.8906 246.809 30.8438 246.809ZM37.3828 249L42.2578 242.695L37.4297 236.625H40.8516L44.7188 241.629H45.4219V236.625H48.3867V241.629H49.0664L52.9219 236.625H56.3672L51.5391 242.695L56.4141 249H52.8984L49.0547 244.09H48.3867V249H45.4219V244.09H44.7539L40.8867 249H37.3828ZM69.3164 249H66.3867V240.949H66.3633L60.5742 249H57.9375V236.625H60.8672V244.652H60.8906L66.6328 236.625H69.3164V249ZM70.8633 252.797V246.445H71.9062C72.4453 246.008 72.832 245.371 73.0664 244.535C73.3008 243.699 73.4805 242.57 73.6055 241.148L73.9922 236.625H83.332V246.445H85.3477V252.797H82.4766V249H73.7812V252.797H70.8633ZM74.9883 246.445H80.4961V239.133H76.5469L76.3594 241.148C76.2656 242.367 76.1172 243.418 75.9141 244.301C75.7188 245.176 75.4102 245.891 74.9883 246.445ZM90.75 249.199C89.5156 249.199 88.4922 248.891 87.6797 248.273C86.875 247.648 86.4727 246.719 86.4727 245.484C86.4727 244.547 86.6992 243.824 87.1523 243.316C87.6133 242.801 88.2109 242.426 88.9453 242.191C89.6875 241.957 90.4844 241.797 91.3359 241.711C92.4844 241.578 93.2852 241.461 93.7383 241.359C94.1914 241.258 94.418 240.996 94.418 240.574V240.48C94.418 239.949 94.2148 239.516 93.8086 239.18C93.4102 238.844 92.8594 238.676 92.1562 238.676C91.4375 238.676 90.8516 238.844 90.3984 239.18C89.9531 239.516 89.7109 239.945 89.6719 240.469H86.8242C86.8945 239.242 87.4062 238.254 88.3594 237.504C89.3125 236.754 90.5977 236.379 92.2148 236.379C93.8242 236.379 95.082 236.754 95.9883 237.504C96.8945 238.254 97.3477 239.273 97.3477 240.562V249H94.4414V247.254H94.3945C94.0977 247.801 93.668 248.262 93.1055 248.637C92.543 249.012 91.7578 249.199 90.75 249.199ZM91.4766 247.008C92.4453 247.008 93.1797 246.758 93.6797 246.258C94.1797 245.75 94.4297 245.137 94.4297 244.418V243.082C94.25 243.199 93.9023 243.309 93.3867 243.41C92.8711 243.504 92.3086 243.598 91.6992 243.691C91.0664 243.785 90.5156 243.965 90.0469 244.23C89.5859 244.488 89.3555 244.898 89.3555 245.461C89.3555 245.945 89.5469 246.324 89.9297 246.598C90.3125 246.871 90.8281 247.008 91.4766 247.008ZM105.422 249.281C104.188 249.281 103.117 249.004 102.211 248.449C101.305 247.895 100.605 247.133 100.113 246.164C99.6289 245.188 99.3867 244.074 99.3867 242.824C99.3867 241.566 99.6367 240.453 100.137 239.484C100.645 238.508 101.344 237.742 102.234 237.188C103.125 236.625 104.148 236.344 105.305 236.344C106.492 236.344 107.531 236.617 108.422 237.164C109.312 237.711 110.004 238.469 110.496 239.438C110.988 240.398 111.234 241.512 111.234 242.777V243.586H102.281C102.32 244.594 102.617 245.406 103.172 246.023C103.727 246.641 104.5 246.949 105.492 246.949C106.234 246.949 106.848 246.789 107.332 246.469C107.816 246.141 108.145 245.711 108.316 245.18H111.082C110.926 245.984 110.582 246.695 110.051 247.312C109.527 247.93 108.867 248.414 108.07 248.766C107.273 249.109 106.391 249.281 105.422 249.281ZM102.305 241.547H108.398C108.305 240.664 107.984 239.969 107.438 239.461C106.898 238.945 106.203 238.688 105.352 238.688C104.492 238.688 103.793 238.945 103.254 239.461C102.723 239.969 102.406 240.664 102.305 241.547ZM113.25 249V236.625H117.68L120.082 242.66C120.277 243.199 120.453 243.738 120.609 244.277C120.773 244.816 120.93 245.332 121.078 245.824C121.227 245.332 121.379 244.816 121.535 244.277C121.699 243.738 121.875 243.199 122.062 242.66L124.453 236.625H128.895V249H125.965V243.844C125.965 242.992 125.969 242.215 125.977 241.512C125.992 240.801 126.004 240.102 126.012 239.414C125.77 240.117 125.52 240.836 125.262 241.57C125.012 242.297 124.738 243.051 124.441 243.832L122.309 249H119.836L117.68 243.832C117.391 243.074 117.117 242.34 116.859 241.629C116.609 240.918 116.363 240.219 116.121 239.531C116.129 240.195 116.137 240.875 116.145 241.57C116.16 242.258 116.168 243.016 116.168 243.844V249H113.25ZM134.461 240.68H137.355C138.855 240.68 140.047 241.055 140.93 241.805C141.82 242.555 142.266 243.559 142.266 244.816C142.266 246.082 141.82 247.098 140.93 247.863C140.047 248.621 138.855 249 137.355 249H131.508V236.625H134.461V240.68ZM134.461 243.117V246.539H137.262C137.918 246.539 138.434 246.383 138.809 246.07C139.191 245.758 139.383 245.332 139.383 244.793C139.383 244.27 139.191 243.859 138.809 243.562C138.434 243.266 137.918 243.117 137.262 243.117H134.461ZM143.227 249V236.625H146.18V249H143.227ZM160.184 249H157.254V240.949H157.23L151.441 249H148.805V236.625H151.734V244.652H151.758L157.5 236.625H160.184V249ZM154.488 235.008C153.77 235.008 153.125 234.852 152.555 234.539C151.984 234.227 151.531 233.809 151.195 233.285C150.859 232.754 150.691 232.16 150.691 231.504H152.578C152.578 232.027 152.754 232.453 153.105 232.781C153.465 233.109 153.926 233.273 154.488 233.273C155.043 233.273 155.496 233.109 155.848 232.781C156.199 232.453 156.375 232.027 156.375 231.504H158.273C158.273 232.16 158.105 232.754 157.77 233.285C157.441 233.809 156.988 234.227 156.41 234.539C155.84 234.852 155.199 235.008 154.488 235.008ZM168.234 253.898V236.625H171.141V238.348H171.176C171.566 237.691 172.09 237.199 172.746 236.871C173.402 236.543 174.129 236.379 174.926 236.379C175.988 236.379 176.918 236.652 177.715 237.199C178.52 237.738 179.145 238.492 179.59 239.461C180.043 240.422 180.27 241.535 180.27 242.801C180.27 244.09 180.047 245.219 179.602 246.188C179.164 247.148 178.543 247.898 177.738 248.438C176.934 248.977 175.992 249.246 174.914 249.246C174.102 249.246 173.379 249.07 172.746 248.719C172.121 248.367 171.613 247.84 171.223 247.137H171.188V253.898H168.234ZM174.223 246.773C175.137 246.773 175.875 246.434 176.438 245.754C177 245.066 177.281 244.082 177.281 242.801C177.281 241.527 177 240.547 176.438 239.859C175.875 239.172 175.137 238.828 174.223 238.828C173.254 238.828 172.477 239.191 171.891 239.918C171.312 240.637 171.023 241.598 171.023 242.801C171.023 244.004 171.312 244.969 171.891 245.695C172.477 246.414 173.254 246.773 174.223 246.773ZM187.852 249.281C186.633 249.281 185.566 249.012 184.652 248.473C183.738 247.926 183.023 247.168 182.508 246.199C182 245.23 181.746 244.105 181.746 242.824C181.746 241.543 182 240.418 182.508 239.449C183.023 238.473 183.738 237.711 184.652 237.164C185.566 236.617 186.633 236.344 187.852 236.344C189.062 236.344 190.125 236.617 191.039 237.164C191.961 237.711 192.676 238.473 193.184 239.449C193.699 240.418 193.957 241.543 193.957 242.824C193.957 244.105 193.699 245.23 193.184 246.199C192.676 247.168 191.961 247.926 191.039 248.473C190.125 249.012 189.062 249.281 187.852 249.281ZM187.852 246.809C188.797 246.809 189.551 246.453 190.113 245.742C190.676 245.031 190.957 244.059 190.957 242.824C190.957 241.59 190.676 240.613 190.113 239.895C189.551 239.176 188.797 238.816 187.852 238.816C186.898 238.816 186.141 239.176 185.578 239.895C185.016 240.605 184.734 241.582 184.734 242.824C184.734 244.059 185.016 245.031 185.578 245.742C186.141 246.453 186.898 246.809 187.852 246.809ZM201.48 249.281C200.277 249.281 199.219 249.008 198.305 248.461C197.398 247.914 196.691 247.156 196.184 246.188C195.684 245.219 195.434 244.098 195.434 242.824C195.434 241.551 195.684 240.43 196.184 239.461C196.691 238.484 197.398 237.723 198.305 237.176C199.219 236.621 200.277 236.344 201.48 236.344C202.52 236.344 203.445 236.547 204.258 236.953C205.07 237.352 205.723 237.906 206.215 238.617C206.715 239.32 207.008 240.133 207.094 241.055H204.199C204.09 240.391 203.805 239.852 203.344 239.438C202.891 239.016 202.281 238.805 201.516 238.805C200.547 238.805 199.789 239.168 199.242 239.895C198.695 240.621 198.422 241.598 198.422 242.824C198.422 244.043 198.695 245.016 199.242 245.742C199.789 246.461 200.547 246.82 201.516 246.82C202.289 246.82 202.891 246.617 203.32 246.211C203.75 245.797 204.035 245.246 204.176 244.559H207.094C207.023 245.465 206.738 246.273 206.238 246.984C205.746 247.695 205.09 248.258 204.27 248.672C203.457 249.078 202.527 249.281 201.48 249.281ZM212.18 249V239.133H207.973V236.625H219.328V239.133H215.145V249H212.18ZM25.4531 273V255.539H32.2617C33.543 255.539 34.6484 255.766 35.5781 256.219C36.5156 256.672 37.2383 257.316 37.7461 258.152C38.2539 258.988 38.5078 259.977 38.5078 261.117C38.5078 262.305 38.2148 263.324 37.6289 264.176C37.043 265.027 36.2305 265.664 35.1914 266.086L38.8359 273H35.4258L32.1445 266.648C32.1211 266.648 32.0938 266.648 32.0625 266.648H28.5469V273H25.4531ZM28.5469 264.094H32.1094C33.1406 264.094 33.957 263.828 34.5586 263.297C35.1602 262.758 35.4609 262.031 35.4609 261.117C35.4609 260.211 35.1562 259.492 34.5469 258.961C33.9453 258.43 33.125 258.164 32.0859 258.164H28.5469V264.094ZM45.6797 273.281C44.4453 273.281 43.375 273.004 42.4688 272.449C41.5625 271.895 40.8633 271.133 40.3711 270.164C39.8867 269.188 39.6445 268.074 39.6445 266.824C39.6445 265.566 39.8945 264.453 40.3945 263.484C40.9023 262.508 41.6016 261.742 42.4922 261.188C43.3828 260.625 44.4062 260.344 45.5625 260.344C46.75 260.344 47.7891 260.617 48.6797 261.164C49.5703 261.711 50.2617 262.469 50.7539 263.438C51.2461 264.398 51.4922 265.512 51.4922 266.777V267.586H42.5391C42.5781 268.594 42.875 269.406 43.4297 270.023C43.9844 270.641 44.7578 270.949 45.75 270.949C46.4922 270.949 47.1055 270.789 47.5898 270.469C48.0742 270.141 48.4023 269.711 48.5742 269.18H51.3398C51.1836 269.984 50.8398 270.695 50.3086 271.312C49.7852 271.93 49.125 272.414 48.3281 272.766C47.5312 273.109 46.6484 273.281 45.6797 273.281ZM42.5625 265.547H48.6562C48.5625 264.664 48.2422 263.969 47.6953 263.461C47.1562 262.945 46.4609 262.688 45.6094 262.688C44.75 262.688 44.0508 262.945 43.5117 263.461C42.9805 263.969 42.6641 264.664 42.5625 265.547ZM60.0352 260.625V263.004H57.5156V269.449C57.5156 269.895 57.6055 270.203 57.7852 270.375C57.9648 270.539 58.293 270.621 58.7695 270.621H60.0352V273H58.2539C56.9961 273 56.0625 272.746 55.4531 272.238C54.8516 271.73 54.5508 270.945 54.5508 269.883V263.004H52.3945V260.625H54.5508V257.25H57.5156V260.625H60.0352ZM67.1719 273.281C65.9375 273.281 64.8672 273.004 63.9609 272.449C63.0547 271.895 62.3555 271.133 61.8633 270.164C61.3789 269.188 61.1367 268.074 61.1367 266.824C61.1367 265.566 61.3867 264.453 61.8867 263.484C62.3945 262.508 63.0938 261.742 63.9844 261.188C64.875 260.625 65.8984 260.344 67.0547 260.344C68.2422 260.344 69.2812 260.617 70.1719 261.164C71.0625 261.711 71.7539 262.469 72.2461 263.438C72.7383 264.398 72.9844 265.512 72.9844 266.777V267.586H64.0312C64.0703 268.594 64.3672 269.406 64.9219 270.023C65.4766 270.641 66.25 270.949 67.2422 270.949C67.9844 270.949 68.5977 270.789 69.082 270.469C69.5664 270.141 69.8945 269.711 70.0664 269.18H72.832C72.6758 269.984 72.332 270.695 71.8008 271.312C71.2773 271.93 70.6172 272.414 69.8203 272.766C69.0234 273.109 68.1406 273.281 67.1719 273.281ZM64.0547 265.547H70.1484C70.0547 264.664 69.7344 263.969 69.1875 263.461C68.6484 262.945 67.9531 262.688 67.1016 262.688C66.2422 262.688 65.543 262.945 65.0039 263.461C64.4727 263.969 64.1562 264.664 64.0547 265.547ZM77.9531 266.004V273H75V260.625H77.9062V262.523C78.7656 261.094 80.0312 260.379 81.7031 260.379C83 260.379 84.0586 260.797 84.8789 261.633C85.707 262.469 86.1211 263.68 86.1211 265.266V273H83.1562V265.734C83.1562 264.828 82.9375 264.141 82.5 263.672C82.0625 263.203 81.4492 262.969 80.6602 262.969C79.8867 262.969 79.2422 263.211 78.7266 263.695C78.2109 264.18 77.9531 264.949 77.9531 266.004ZM95.2852 260.625V263.004H92.7656V269.449C92.7656 269.895 92.8555 270.203 93.0352 270.375C93.2148 270.539 93.543 270.621 94.0195 270.621H95.2852V273H93.5039C92.2461 273 91.3125 272.746 90.7031 272.238C90.1016 271.73 89.8008 270.945 89.8008 269.883V263.004H87.6445V260.625H89.8008V257.25H92.7656V260.625H95.2852ZM97.1484 273V260.625H100.102V273H97.1484ZM98.625 258.785C98.1172 258.785 97.6953 258.625 97.3594 258.305C97.0234 257.977 96.8555 257.574 96.8555 257.098C96.8555 256.621 97.0234 256.223 97.3594 255.902C97.6953 255.582 98.1172 255.422 98.625 255.422C99.125 255.422 99.543 255.582 99.8789 255.902C100.215 256.223 100.383 256.621 100.383 257.098C100.383 257.574 100.215 257.977 99.8789 258.305C99.543 258.625 99.125 258.785 98.625 258.785ZM108.258 273.281C107.039 273.281 105.973 273.012 105.059 272.473C104.145 271.926 103.43 271.168 102.914 270.199C102.406 269.23 102.152 268.105 102.152 266.824C102.152 265.543 102.406 264.418 102.914 263.449C103.43 262.473 104.145 261.711 105.059 261.164C105.973 260.617 107.039 260.344 108.258 260.344C109.469 260.344 110.531 260.617 111.445 261.164C112.367 261.711 113.082 262.473 113.59 263.449C114.105 264.418 114.363 265.543 114.363 266.824C114.363 268.105 114.105 269.23 113.59 270.199C113.082 271.168 112.367 271.926 111.445 272.473C110.531 273.012 109.469 273.281 108.258 273.281ZM108.258 270.809C109.203 270.809 109.957 270.453 110.52 269.742C111.082 269.031 111.363 268.059 111.363 266.824C111.363 265.59 111.082 264.613 110.52 263.895C109.957 263.176 109.203 262.816 108.258 262.816C107.305 262.816 106.547 263.176 105.984 263.895C105.422 264.605 105.141 265.582 105.141 266.824C105.141 268.059 105.422 269.031 105.984 269.742C106.547 270.453 107.305 270.809 108.258 270.809ZM119.367 266.004V273H116.414V260.625H119.32V262.523C120.18 261.094 121.445 260.379 123.117 260.379C124.414 260.379 125.473 260.797 126.293 261.633C127.121 262.469 127.535 263.68 127.535 265.266V273H124.57V265.734C124.57 264.828 124.352 264.141 123.914 263.672C123.477 263.203 122.863 262.969 122.074 262.969C121.301 262.969 120.656 263.211 120.141 263.695C119.625 264.18 119.367 264.949 119.367 266.004Z" fill="white"/>
<g filter="url(#filter0_dddd_2311_2832)">
<rect x="208" y="174.582" width="65.1239" height="59.3815" rx="13.7327" transform="rotate(-11.1397 208 174.582)" fill="white"/>
<path d="M262.125 214.606C260.336 214.958 258.677 214.866 257.15 214.328C255.623 213.79 254.33 212.87 253.271 211.565C252.212 210.261 251.495 208.653 251.118 206.741L250.963 205.951C250.583 204.021 250.637 202.261 251.126 200.671C251.611 199.062 252.458 197.72 253.668 196.643C254.874 195.549 256.372 194.826 258.161 194.474C259.933 194.125 261.584 194.228 263.115 194.783C264.643 195.321 265.936 196.242 266.994 197.546C268.067 198.829 268.794 200.435 269.174 202.365L269.329 203.155C269.706 205.067 269.642 206.829 269.14 208.441C268.655 210.049 267.807 211.391 266.598 212.468C265.388 213.544 263.897 214.257 262.125 214.606ZM232.488 199.311C230.716 199.66 229.066 199.565 227.539 199.028C226.011 198.49 224.718 197.569 223.66 196.265C222.601 194.961 221.883 193.353 221.507 191.44L221.351 190.651C220.971 188.721 221.026 186.961 221.514 185.37C221.999 183.762 222.847 182.42 224.056 181.343C225.262 180.249 226.751 179.528 228.523 179.179C230.313 178.826 231.973 178.928 233.504 179.483C235.031 180.02 236.324 180.941 237.383 182.245C238.438 183.532 239.156 185.14 239.536 187.07L239.691 187.86C240.068 189.772 240.013 191.532 239.528 193.14C239.043 194.748 238.196 196.091 236.986 197.167C235.777 198.244 234.277 198.958 232.488 199.311ZM232.816 219.721L252.043 175.203L257.78 174.074L238.553 218.591L232.816 219.721ZM231.539 194.495C232.609 194.284 233.381 193.713 233.854 192.782C234.34 191.829 234.427 190.555 234.112 188.958L233.957 188.169C233.639 186.555 233.074 185.399 232.263 184.702C231.469 184.002 230.537 183.757 229.466 183.968C228.414 184.175 227.644 184.755 227.157 185.708C226.688 186.657 226.612 187.938 226.93 189.552L227.086 190.342C227.4 191.938 227.954 193.087 228.748 193.787C229.556 194.466 230.487 194.702 231.539 194.495ZM261.177 209.79C262.23 209.583 262.992 209.013 263.465 208.082C263.952 207.13 264.038 205.855 263.724 204.259L263.568 203.469C263.25 201.855 262.686 200.7 261.874 200.003C261.08 199.303 260.157 199.056 259.104 199.263C258.034 199.474 257.264 200.054 256.795 201.003C256.326 201.952 256.25 203.233 256.568 204.847L256.723 205.637C257.038 207.233 257.592 208.382 258.386 209.082C259.177 209.765 260.107 210.001 261.177 209.79Z" fill="#FF36C9"/>
</g>
<defs>
<filter id="filter0_dddd_2311_2832" x="180.73" y="159.179" width="105.46" height="103.757" filterUnits="userSpaceOnUse" color-interpolation-filters="sRGB">
<feFlood flood-opacity="0" result="BackgroundImageFix"/>
<feColorMatrix in="SourceAlpha" type="matrix" values="0 0 0 0 0 0 0 0 0 0 0 0 0 0 0 0 0 0 127 0" result="hardAlpha"/>
<feOffset dx="-0.940341" dy="0.940341"/>
<feGaussianBlur stdDeviation="1.88068"/>
<feColorMatrix type="matrix" values="0 0 0 0 1 0 0 0 0 0 0 0 0 0 0.815686 0 0 0 0.1 0"/>
<feBlend mode="normal" in2="BackgroundImageFix" result="effect1_dropShadow_2311_2832"/>
<feColorMatrix in="SourceAlpha" type="matrix" values="0 0 0 0 0 0 0 0 0 0 0 0 0 0 0 0 0 0 127 0" result="hardAlpha"/>
<feOffset dx="-4.70171" dy="4.70171"/>
<feGaussianBlur stdDeviation="3.29119"/>
<feColorMatrix type="matrix" values="0 0 0 0 1 0 0 0 0 0 0 0 0 0 0.815686 0 0 0 0.09 0"/>
<feBlend mode="normal" in2="effect1_dropShadow_2311_2832" result="effect2_dropShadow_2311_2832"/>
<feColorMatrix in="SourceAlpha" type="matrix" values="0 0 0 0 0 0 0 0 0 0 0 0 0 0 0 0 0 0 127 0" result="hardAlpha"/>
<feOffset dx="-9.40341" dy="11.2841"/>
<feGaussianBlur stdDeviation="4.23154"/>
<feColorMatrix type="matrix" values="0 0 0 0 1 0 0 0 0 0 0 0 0 0 0.815686 0 0 0 0.05 0"/>
<feBlend mode="normal" in2="effect2_dropShadow_2311_2832" result="effect3_dropShadow_2311_2832"/>
<feColorMatrix in="SourceAlpha" type="matrix" values="0 0 0 0 0 0 0 0 0 0 0 0 0 0 0 0 0 0 127 0" result="hardAlpha"/>
<feOffset dx="-16.9261" dy="19.7472"/>
<feGaussianBlur stdDeviation="5.17188"/>
<feColorMatrix type="matrix" values="0 0 0 0 1 0 0 0 0 0 0 0 0 0 0.815686 0 0 0 0.01 0"/>
<feBlend mode="normal" in2="effect3_dropShadow_2311_2832" result="effect4_dropShadow_2311_2832"/>
<feBlend mode="normal" in="SourceGraphic" in2="effect4_dropShadow_2311_2832" result="shape"/>
</filter>
</defs>
</svg>
