<svg width="300" height="300" viewBox="0 0 300 300" fill="none" xmlns="http://www.w3.org/2000/svg">
<rect width="300" height="300" fill="white"/>
<path d="M32.6055 42.4219C30.1914 42.4219 28.0586 41.8652 26.207 40.752C24.3555 39.6387 22.9023 38.0684 21.8477 36.041C20.793 34.0137 20.2656 31.6406 20.2656 28.9219C20.2656 26.1797 20.793 23.7949 21.8477 21.7676C22.9023 19.7402 24.3555 18.1699 26.207 17.0566C28.0586 15.9434 30.1914 15.3867 32.6055 15.3867C34.5742 15.3867 36.3555 15.7734 37.9492 16.5469C39.543 17.3203 40.8555 18.4102 41.8867 19.8164C42.9297 21.2227 43.5977 22.8809 43.8906 24.791H39.1621C38.8105 23.127 38.0547 21.8379 36.8945 20.9238C35.7344 20.0098 34.3164 19.5527 32.6406 19.5527C31.0469 19.5527 29.6699 19.9395 28.5098 20.7129C27.3613 21.4863 26.4766 22.5762 25.8555 23.9824C25.2461 25.3887 24.9414 27.0352 24.9414 28.9219C24.9414 30.7969 25.2461 32.4375 25.8555 33.8438C26.4766 35.2383 27.3613 36.3223 28.5098 37.0957C29.6582 37.8691 31.0352 38.2559 32.6406 38.2559C34.3047 38.2559 35.7168 37.8047 36.877 36.9023C38.0371 36 38.8047 34.7168 39.1797 33.0527H43.8906C43.5977 34.9629 42.9297 36.6211 41.8867 38.0273C40.8555 39.4219 39.543 40.5059 37.9492 41.2793C36.3555 42.041 34.5742 42.4219 32.6055 42.4219ZM51.4844 23.4375V30.8027H59.6758V23.4375H64.123V42H59.6758V34.6172H51.4844V42H47.0547V23.4375H51.4844ZM85.1113 42H80.7168V29.9238H80.6816L71.998 42H68.043V23.4375H72.4375V35.4785H72.4727L81.0859 23.4375H85.1113V42ZM87.3789 42L94.6914 32.543L87.4492 23.4375H92.582L98.3828 30.9434H99.4375V23.4375H103.885V30.9434H104.904L110.688 23.4375H115.855L108.613 32.543L115.926 42H110.652L104.887 34.6348H103.885V42H99.4375V34.6348H98.4355L92.6348 42H87.3789ZM125.629 42.4219C123.777 42.4219 122.172 42.0059 120.812 41.1738C119.453 40.3418 118.404 39.1992 117.666 37.7461C116.939 36.2812 116.576 34.6113 116.576 32.7363C116.576 30.8496 116.951 29.1797 117.701 27.7266C118.463 26.2617 119.512 25.1133 120.848 24.2812C122.184 23.4375 123.719 23.0156 125.453 23.0156C127.234 23.0156 128.793 23.4258 130.129 24.2461C131.465 25.0664 132.502 26.2031 133.24 27.6562C133.979 29.0977 134.348 30.7676 134.348 32.666V33.8789H120.918C120.977 35.3906 121.422 36.6094 122.254 37.5352C123.086 38.4609 124.246 38.9238 125.734 38.9238C126.848 38.9238 127.768 38.6836 128.494 38.2031C129.221 37.7109 129.713 37.0664 129.971 36.2695H134.119C133.885 37.4766 133.369 38.543 132.572 39.4688C131.787 40.3945 130.797 41.1211 129.602 41.6484C128.406 42.1641 127.082 42.4219 125.629 42.4219ZM120.953 30.8203H130.094C129.953 29.4961 129.473 28.4531 128.652 27.6914C127.844 26.918 126.801 26.5312 125.523 26.5312C124.234 26.5312 123.186 26.918 122.377 27.6914C121.58 28.4531 121.105 29.4961 120.953 30.8203ZM141.801 23.4375V30.8027H149.992V23.4375H154.439V42H149.992V34.6172H141.801V42H137.371V23.4375H141.801ZM175.428 42H171.033V29.9238H170.998L162.314 42H158.359V23.4375H162.754V35.4785H162.789L171.402 23.4375H175.428V42ZM187.539 42.4219C185.688 42.4219 184.082 42.0059 182.723 41.1738C181.363 40.3418 180.314 39.1992 179.576 37.7461C178.85 36.2812 178.486 34.6113 178.486 32.7363C178.486 30.8496 178.861 29.1797 179.611 27.7266C180.373 26.2617 181.422 25.1133 182.758 24.2812C184.094 23.4375 185.629 23.0156 187.363 23.0156C189.145 23.0156 190.703 23.4258 192.039 24.2461C193.375 25.0664 194.412 26.2031 195.15 27.6562C195.889 29.0977 196.258 30.7676 196.258 32.666V33.8789H182.828C182.887 35.3906 183.332 36.6094 184.164 37.5352C184.996 38.4609 186.156 38.9238 187.645 38.9238C188.758 38.9238 189.678 38.6836 190.404 38.2031C191.131 37.7109 191.623 37.0664 191.881 36.2695H196.029C195.795 37.4766 195.279 38.543 194.482 39.4688C193.697 40.3945 192.707 41.1211 191.512 41.6484C190.316 42.1641 188.992 42.4219 187.539 42.4219ZM182.863 30.8203H192.004C191.863 29.4961 191.383 28.4531 190.562 27.6914C189.754 26.918 188.711 26.5312 187.434 26.5312C186.145 26.5312 185.096 26.918 184.287 27.6914C183.49 28.4531 183.016 29.4961 182.863 30.8203ZM21.1797 78V51.8086H39.373V55.834H25.8203V62.7246H38.3535V66.6797H25.8203V73.9746H39.373V78H21.1797ZM42.5195 78V59.4375H46.791V62.5137H46.8438C47.1836 61.459 47.7168 60.6562 48.4434 60.1055C49.1816 59.543 50.1484 59.2617 51.3438 59.2617C51.6484 59.2617 51.918 59.2734 52.1523 59.2969C52.3984 59.3086 52.6094 59.3203 52.7852 59.332V63.2695C52.6211 63.2461 52.3398 63.2168 51.9414 63.1816C51.543 63.1465 51.127 63.1289 50.6934 63.1289C49.6387 63.1289 48.748 63.4922 48.0215 64.2188C47.3066 64.9453 46.9492 66.0352 46.9492 67.4883V78H42.5195ZM55.5625 78V59.4375H59.834V62.5137H59.8867C60.2266 61.459 60.7598 60.6562 61.4863 60.1055C62.2246 59.543 63.1914 59.2617 64.3867 59.2617C64.6914 59.2617 64.9609 59.2734 65.1953 59.2969C65.4414 59.3086 65.6523 59.3203 65.8281 59.332V63.2695C65.6641 63.2461 65.3828 63.2168 64.9844 63.1816C64.5859 63.1465 64.1699 63.1289 63.7363 63.1289C62.6816 63.1289 61.791 63.4922 61.0645 64.2188C60.3496 64.9453 59.9922 66.0352 59.9922 67.4883V78H55.5625ZM76.4453 78.4219C74.6172 78.4219 73.0176 78.0176 71.6465 77.209C70.2754 76.3887 69.2031 75.252 68.4297 73.7988C67.668 72.3457 67.2871 70.6582 67.2871 68.7363C67.2871 66.8145 67.668 65.127 68.4297 63.6738C69.2031 62.209 70.2754 61.0664 71.6465 60.2461C73.0176 59.4258 74.6172 59.0156 76.4453 59.0156C78.2617 59.0156 79.8555 59.4258 81.2266 60.2461C82.6094 61.0664 83.6816 62.209 84.4434 63.6738C85.2168 65.127 85.6035 66.8145 85.6035 68.7363C85.6035 70.6582 85.2168 72.3457 84.4434 73.7988C83.6816 75.252 82.6094 76.3887 81.2266 77.209C79.8555 78.0176 78.2617 78.4219 76.4453 78.4219ZM76.4453 74.7129C77.8633 74.7129 78.9941 74.1797 79.8379 73.1133C80.6816 72.0469 81.1035 70.5879 81.1035 68.7363C81.1035 66.8848 80.6816 65.4199 79.8379 64.3418C78.9941 63.2637 77.8633 62.7246 76.4453 62.7246C75.0156 62.7246 73.8789 63.2637 73.0352 64.3418C72.1914 65.4082 71.7695 66.873 71.7695 68.7363C71.7695 70.5879 72.1914 72.0469 73.0352 73.1133C73.8789 74.1797 75.0156 74.7129 76.4453 74.7129ZM88.6797 78V59.4375H92.9512V62.5137H93.0039C93.3438 61.459 93.877 60.6562 94.6035 60.1055C95.3418 59.543 96.3086 59.2617 97.5039 59.2617C97.8086 59.2617 98.0781 59.2734 98.3125 59.2969C98.5586 59.3086 98.7695 59.3203 98.9453 59.332V63.2695C98.7812 63.2461 98.5 63.2168 98.1016 63.1816C97.7031 63.1465 97.2871 63.1289 96.8535 63.1289C95.7988 63.1289 94.9082 63.4922 94.1816 64.2188C93.4668 64.9453 93.1094 66.0352 93.1094 67.4883V78H88.6797ZM109.879 78V51.8086H120.092C122.014 51.8086 123.672 52.1484 125.066 52.8281C126.473 53.5078 127.557 54.4746 128.318 55.7285C129.08 56.9824 129.461 58.4648 129.461 60.1758C129.461 61.957 129.021 63.4863 128.143 64.7637C127.264 66.041 126.045 66.9961 124.486 67.6289L129.953 78H124.838L119.916 68.4727C119.881 68.4727 119.84 68.4727 119.793 68.4727H114.52V78H109.879ZM114.52 64.6406H119.863C121.41 64.6406 122.635 64.2422 123.537 63.4453C124.439 62.6367 124.891 61.5469 124.891 60.1758C124.891 58.8164 124.434 57.7383 123.52 56.9414C122.617 56.1445 121.387 55.7461 119.828 55.7461H114.52V64.6406ZM138.109 78.2988C136.258 78.2988 134.723 77.8359 133.504 76.9102C132.297 75.9727 131.693 74.5781 131.693 72.7266C131.693 71.3203 132.033 70.2363 132.713 69.4746C133.404 68.7012 134.301 68.1387 135.402 67.7871C136.516 67.4355 137.711 67.1953 138.988 67.0664C140.711 66.8672 141.912 66.6914 142.592 66.5391C143.271 66.3867 143.611 65.9941 143.611 65.3613V65.2207C143.611 64.4238 143.307 63.7734 142.697 63.2695C142.1 62.7656 141.273 62.5137 140.219 62.5137C139.141 62.5137 138.262 62.7656 137.582 63.2695C136.914 63.7734 136.551 64.418 136.492 65.2031H132.221C132.326 63.3633 133.094 61.8809 134.523 60.7559C135.953 59.6309 137.881 59.0684 140.307 59.0684C142.721 59.0684 144.607 59.6309 145.967 60.7559C147.326 61.8809 148.006 63.4102 148.006 65.3438V78H143.646V75.3809H143.576C143.131 76.2012 142.486 76.8926 141.643 77.4551C140.799 78.0176 139.621 78.2988 138.109 78.2988ZM139.199 75.0117C140.652 75.0117 141.754 74.6367 142.504 73.8867C143.254 73.125 143.629 72.2051 143.629 71.127V69.123C143.359 69.2988 142.838 69.4629 142.064 69.6152C141.291 69.7559 140.447 69.8965 139.533 70.0371C138.584 70.1777 137.758 70.4473 137.055 70.8457C136.363 71.2324 136.018 71.8477 136.018 72.6914C136.018 73.418 136.305 73.9863 136.879 74.3965C137.453 74.8066 138.227 75.0117 139.199 75.0117ZM161.717 59.4375V63.0059H157.938V72.6738C157.938 73.3418 158.072 73.8047 158.342 74.0625C158.611 74.3086 159.104 74.4316 159.818 74.4316H161.717V78H159.045C157.158 78 155.758 77.6191 154.844 76.8574C153.941 76.0957 153.49 74.918 153.49 73.3242V63.0059H150.256V59.4375H153.49V54.375H157.938V59.4375H161.717ZM172.422 78.4219C170.57 78.4219 168.965 78.0059 167.605 77.1738C166.246 76.3418 165.197 75.1992 164.459 73.7461C163.732 72.2812 163.369 70.6113 163.369 68.7363C163.369 66.8496 163.744 65.1797 164.494 63.7266C165.256 62.2617 166.305 61.1133 167.641 60.2812C168.977 59.4375 170.512 59.0156 172.246 59.0156C174.027 59.0156 175.586 59.4258 176.922 60.2461C178.258 61.0664 179.295 62.2031 180.033 63.6562C180.771 65.0977 181.141 66.7676 181.141 68.666V69.8789H167.711C167.77 71.3906 168.215 72.6094 169.047 73.5352C169.879 74.4609 171.039 74.9238 172.527 74.9238C173.641 74.9238 174.561 74.6836 175.287 74.2031C176.014 73.7109 176.506 73.0664 176.764 72.2695H180.912C180.678 73.4766 180.162 74.543 179.365 75.4688C178.58 76.3945 177.59 77.1211 176.395 77.6484C175.199 78.1641 173.875 78.4219 172.422 78.4219ZM167.746 66.8203H176.887C176.746 65.4961 176.266 64.4531 175.445 63.6914C174.637 62.918 173.594 62.5312 172.316 62.5312C171.027 62.5312 169.979 62.918 169.17 63.6914C168.373 64.4531 167.898 65.4961 167.746 66.8203Z" fill="#2A2A2E"/>
<path d="M29.9004 102.814V113H28.6699V103.908H23.2422V113H22.0117V102.814H29.9004ZM34.7539 113.164C34.0885 113.164 33.5029 113.005 32.9971 112.686C32.4958 112.362 32.1038 111.918 31.8213 111.353C31.5433 110.787 31.4043 110.138 31.4043 109.404C31.4043 108.666 31.5433 108.012 31.8213 107.442C32.1038 106.873 32.4958 106.426 32.9971 106.103C33.5029 105.779 34.0885 105.617 34.7539 105.617C35.4238 105.617 36.0094 105.779 36.5107 106.103C37.012 106.426 37.4017 106.873 37.6797 107.442C37.9622 108.012 38.1035 108.666 38.1035 109.404C38.1035 110.138 37.9622 110.787 37.6797 111.353C37.4017 111.918 37.012 112.362 36.5107 112.686C36.0094 113.005 35.4238 113.164 34.7539 113.164ZM34.7539 112.111C35.4375 112.111 35.9707 111.865 36.3535 111.373C36.7363 110.876 36.9277 110.22 36.9277 109.404C36.9277 108.579 36.734 107.919 36.3467 107.422C35.9639 106.921 35.4329 106.67 34.7539 106.67C34.0749 106.67 33.5417 106.918 33.1543 107.415C32.7715 107.912 32.5801 108.575 32.5801 109.404C32.5801 110.225 32.7715 110.881 33.1543 111.373C33.5371 111.865 34.0703 112.111 34.7539 112.111ZM38.6982 113V111.906H38.9717C39.2041 111.906 39.3955 111.872 39.5459 111.804C39.7008 111.731 39.8239 111.594 39.915 111.394C40.0107 111.188 40.0837 110.892 40.1338 110.505C40.1885 110.113 40.2295 109.596 40.2568 108.953L40.3936 105.781H45.4795V113H44.3174V106.875H41.501L41.3779 109.391C41.3369 110.225 41.2458 110.908 41.1045 111.441C40.9632 111.97 40.7331 112.362 40.4141 112.617C40.0996 112.872 39.6598 113 39.0947 113H38.6982ZM48.3711 108.242H50.4629C50.9961 108.242 51.4655 108.342 51.8711 108.543C52.2767 108.743 52.5934 109.021 52.8213 109.377C53.0537 109.728 53.1699 110.133 53.1699 110.594C53.1699 111.063 53.0537 111.48 52.8213 111.845C52.5934 112.205 52.2767 112.487 51.8711 112.692C51.4655 112.897 50.9961 113 50.4629 113H47.209V105.781H48.3711V108.242ZM48.3711 109.336V111.906H50.4219C50.9095 111.906 51.2946 111.788 51.5771 111.551C51.8643 111.314 52.0078 110.995 52.0078 110.594C52.0078 110.206 51.8643 109.901 51.5771 109.678C51.2946 109.45 50.9095 109.336 50.4219 109.336H48.3711ZM56.9434 113.109C56.3874 113.109 55.8997 113.014 55.4805 112.822C55.0658 112.626 54.7422 112.362 54.5098 112.029C54.2819 111.697 54.1634 111.321 54.1543 110.901H55.3096C55.3232 111.284 55.4782 111.585 55.7744 111.804C56.0706 112.022 56.4535 112.132 56.9229 112.132C57.4105 112.132 57.8047 112.025 58.1055 111.811C58.4108 111.592 58.5635 111.309 58.5635 110.963C58.5635 110.603 58.4062 110.311 58.0918 110.088C57.7773 109.86 57.3467 109.746 56.7998 109.746H56.2529V108.823H56.7998C57.2555 108.823 57.6247 108.721 57.9072 108.516C58.1898 108.306 58.3311 108.03 58.3311 107.688C58.3311 107.356 58.2035 107.089 57.9482 106.889C57.693 106.684 57.3535 106.581 56.9297 106.581C56.5104 106.581 56.1572 106.684 55.8701 106.889C55.5876 107.094 55.4417 107.379 55.4326 107.743H54.3184C54.3275 107.328 54.446 106.962 54.6738 106.643C54.9017 106.324 55.2116 106.075 55.6035 105.897C56 105.715 56.4443 105.624 56.9365 105.624C57.4378 105.624 57.8753 105.713 58.249 105.891C58.6273 106.068 58.9212 106.308 59.1309 106.608C59.3451 106.909 59.4521 107.242 59.4521 107.606C59.4521 108.007 59.3291 108.354 59.083 108.646C58.8369 108.937 58.4974 109.135 58.0645 109.24V109.254C58.5794 109.327 58.9827 109.525 59.2744 109.849C59.5706 110.168 59.7188 110.553 59.7188 111.004C59.7188 111.405 59.598 111.765 59.3564 112.084C59.1195 112.403 58.7913 112.654 58.3721 112.836C57.9528 113.018 57.4766 113.109 56.9434 113.109ZM64.0254 113.164C63.36 113.164 62.7744 113.005 62.2686 112.686C61.7673 112.362 61.3753 111.918 61.0928 111.353C60.8148 110.787 60.6758 110.138 60.6758 109.404C60.6758 108.666 60.8148 108.012 61.0928 107.442C61.3753 106.873 61.7673 106.426 62.2686 106.103C62.7744 105.779 63.36 105.617 64.0254 105.617C64.6953 105.617 65.2809 105.779 65.7822 106.103C66.2835 106.426 66.6732 106.873 66.9512 107.442C67.2337 108.012 67.375 108.666 67.375 109.404C67.375 110.138 67.2337 110.787 66.9512 111.353C66.6732 111.918 66.2835 112.362 65.7822 112.686C65.2809 113.005 64.6953 113.164 64.0254 113.164ZM64.0254 112.111C64.709 112.111 65.2422 111.865 65.625 111.373C66.0078 110.876 66.1992 110.22 66.1992 109.404C66.1992 108.579 66.0055 107.919 65.6182 107.422C65.2354 106.921 64.7044 106.67 64.0254 106.67C63.3464 106.67 62.8132 106.918 62.4258 107.415C62.043 107.912 61.8516 108.575 61.8516 109.404C61.8516 110.225 62.043 110.881 62.4258 111.373C62.8086 111.865 63.3418 112.111 64.0254 112.111ZM68.7285 113V105.781H71.7363C72.5566 105.781 73.2083 105.948 73.6914 106.28C74.1745 106.613 74.416 107.087 74.416 107.702C74.416 108.131 74.2975 108.468 74.0605 108.714C73.8236 108.955 73.5091 109.119 73.1172 109.206C73.3861 109.247 73.6413 109.336 73.8828 109.473C74.1243 109.605 74.3203 109.794 74.4707 110.04C74.6257 110.282 74.7031 110.587 74.7031 110.956C74.7031 111.562 74.4821 112.054 74.04 112.433C73.598 112.811 72.9896 113 72.2148 113H68.7285ZM69.8359 111.92H72.2148C72.6296 111.92 72.9463 111.833 73.165 111.66C73.3883 111.482 73.5 111.234 73.5 110.915C73.5 110.555 73.3883 110.279 73.165 110.088C72.9463 109.892 72.6296 109.794 72.2148 109.794H69.8359V111.92ZM69.8359 108.796H71.791C72.2559 108.796 72.6136 108.709 72.8643 108.536C73.1149 108.358 73.2402 108.108 73.2402 107.784C73.2402 107.488 73.1104 107.26 72.8506 107.101C72.5908 106.941 72.2194 106.861 71.7363 106.861H69.8359V108.796ZM78.2715 113.109C77.556 113.109 76.9567 112.925 76.4736 112.556C75.9951 112.187 75.7559 111.642 75.7559 110.922C75.7559 110.507 75.8356 110.17 75.9951 109.91C76.1592 109.65 76.3757 109.448 76.6445 109.302C76.918 109.151 77.2256 109.037 77.5674 108.96C77.9137 108.882 78.2669 108.821 78.627 108.775C79.0872 108.712 79.4495 108.664 79.7139 108.632C79.9782 108.6 80.165 108.548 80.2744 108.475C80.3883 108.402 80.4453 108.274 80.4453 108.092V108.023C80.4453 107.632 80.304 107.308 80.0215 107.053C79.7435 106.798 79.3516 106.67 78.8457 106.67C78.3444 106.67 77.932 106.793 77.6084 107.039C77.2894 107.281 77.1162 107.581 77.0889 107.941H75.9062C75.929 107.499 76.0658 107.107 76.3164 106.766C76.5671 106.419 76.9089 106.146 77.3418 105.945C77.7747 105.745 78.276 105.645 78.8457 105.645C79.6888 105.645 80.3564 105.863 80.8486 106.301C81.3454 106.734 81.5938 107.308 81.5938 108.023V113H80.4453V111.975H80.418C80.3314 112.148 80.2038 112.323 80.0352 112.501C79.8665 112.674 79.6387 112.82 79.3516 112.938C79.069 113.052 78.709 113.109 78.2715 113.109ZM78.4355 112.07C78.9095 112.07 79.2946 111.986 79.5908 111.817C79.887 111.644 80.1035 111.421 80.2402 111.147C80.377 110.874 80.4453 110.58 80.4453 110.266V109.363C80.3587 109.445 80.1286 109.521 79.7549 109.589C79.3812 109.653 78.987 109.714 78.5723 109.773C78.2943 109.81 78.0299 109.874 77.7793 109.965C77.5332 110.051 77.3327 110.177 77.1777 110.341C77.0228 110.5 76.9453 110.717 76.9453 110.99C76.9453 111.327 77.0775 111.592 77.3418 111.783C77.6107 111.975 77.9753 112.07 78.4355 112.07ZM85.0801 113V106.834H82.5576V105.781H88.751V106.834H86.2422V113H85.0801ZM92.5586 113.164C91.8522 113.164 91.2484 113.002 90.7471 112.679C90.2503 112.355 89.8698 111.911 89.6055 111.346C89.3411 110.776 89.209 110.129 89.209 109.404C89.209 108.671 89.348 108.019 89.626 107.449C89.904 106.88 90.2891 106.433 90.7812 106.109C91.2734 105.781 91.8385 105.617 92.4766 105.617C93.1465 105.617 93.7275 105.777 94.2197 106.096C94.7119 106.415 95.0902 106.859 95.3545 107.429C95.6234 107.998 95.7578 108.657 95.7578 109.404V109.726H90.3574C90.3848 110.432 90.5876 111.006 90.9658 111.448C91.3441 111.89 91.875 112.111 92.5586 112.111C93.0736 112.111 93.4928 111.993 93.8164 111.756C94.1445 111.519 94.3633 111.214 94.4727 110.84H95.6348C95.5436 111.3 95.3545 111.706 95.0674 112.057C94.7803 112.403 94.4202 112.674 93.9873 112.87C93.5589 113.066 93.0827 113.164 92.5586 113.164ZM90.3711 108.728H94.5957C94.5319 108.094 94.3109 107.59 93.9326 107.217C93.5544 106.843 93.069 106.656 92.4766 106.656C91.8841 106.656 91.401 106.843 91.0273 107.217C90.6536 107.59 90.4349 108.094 90.3711 108.728ZM96.3252 113V111.906H96.5986C96.8311 111.906 97.0225 111.872 97.1729 111.804C97.3278 111.731 97.4508 111.594 97.542 111.394C97.6377 111.188 97.7106 110.892 97.7607 110.505C97.8154 110.113 97.8564 109.596 97.8838 108.953L98.0205 105.781H103.106V113H101.944V106.875H99.1279L99.0049 109.391C98.9639 110.225 98.8727 110.908 98.7314 111.441C98.5902 111.97 98.36 112.362 98.041 112.617C97.7266 112.872 97.2868 113 96.7217 113H96.3252ZM110.879 113H109.717V107.62H109.696L105.998 113H104.836V105.781H105.998V111.168H106.019L109.717 105.781H110.879V113ZM117.264 105.781V108.844H120.982V105.781H122.145V113H120.982V109.938H117.264V113H116.102V105.781H117.264ZM126.068 113.109C125.353 113.109 124.754 112.925 124.271 112.556C123.792 112.187 123.553 111.642 123.553 110.922C123.553 110.507 123.632 110.17 123.792 109.91C123.956 109.65 124.173 109.448 124.441 109.302C124.715 109.151 125.022 109.037 125.364 108.96C125.711 108.882 126.064 108.821 126.424 108.775C126.884 108.712 127.246 108.664 127.511 108.632C127.775 108.6 127.962 108.548 128.071 108.475C128.185 108.402 128.242 108.274 128.242 108.092V108.023C128.242 107.632 128.101 107.308 127.818 107.053C127.54 106.798 127.148 106.67 126.643 106.67C126.141 106.67 125.729 106.793 125.405 107.039C125.086 107.281 124.913 107.581 124.886 107.941H123.703C123.726 107.499 123.863 107.107 124.113 106.766C124.364 106.419 124.706 106.146 125.139 105.945C125.572 105.745 126.073 105.645 126.643 105.645C127.486 105.645 128.153 105.863 128.646 106.301C129.142 106.734 129.391 107.308 129.391 108.023V113H128.242V111.975H128.215C128.128 112.148 128.001 112.323 127.832 112.501C127.663 112.674 127.436 112.82 127.148 112.938C126.866 113.052 126.506 113.109 126.068 113.109ZM126.232 112.07C126.706 112.07 127.091 111.986 127.388 111.817C127.684 111.644 127.9 111.421 128.037 111.147C128.174 110.874 128.242 110.58 128.242 110.266V109.363C128.156 109.445 127.925 109.521 127.552 109.589C127.178 109.653 126.784 109.714 126.369 109.773C126.091 109.81 125.827 109.874 125.576 109.965C125.33 110.051 125.13 110.177 124.975 110.341C124.82 110.5 124.742 110.717 124.742 110.99C124.742 111.327 124.874 111.592 125.139 111.783C125.408 111.975 125.772 112.07 126.232 112.07ZM134.333 113V111.968L137.956 108.659C138.389 108.263 138.74 107.914 139.009 107.613C139.282 107.312 139.483 107.019 139.61 106.731C139.738 106.444 139.802 106.128 139.802 105.781C139.802 105.152 139.615 104.656 139.241 104.291C138.872 103.926 138.364 103.744 137.717 103.744C137.02 103.744 136.479 103.958 136.097 104.387C135.714 104.811 135.522 105.385 135.522 106.109H134.374C134.374 105.43 134.511 104.831 134.784 104.312C135.062 103.792 135.452 103.386 135.953 103.095C136.454 102.799 137.04 102.65 137.71 102.65C138.348 102.65 138.911 102.783 139.398 103.047C139.886 103.307 140.269 103.669 140.547 104.134C140.825 104.594 140.964 105.127 140.964 105.733C140.964 106.39 140.782 106.993 140.417 107.545C140.057 108.096 139.503 108.712 138.756 109.391L136.001 111.893V111.906H141.025V113H134.333ZM145.688 113.164C145.013 113.164 144.416 113.041 143.896 112.795C143.377 112.549 142.969 112.209 142.673 111.776C142.377 111.343 142.229 110.849 142.229 110.293C142.229 109.842 142.324 109.429 142.516 109.056C142.707 108.677 142.965 108.368 143.288 108.126C143.616 107.88 143.985 107.729 144.396 107.675C143.871 107.575 143.441 107.317 143.104 106.902C142.766 106.488 142.598 105.982 142.598 105.385C142.598 104.861 142.732 104.394 143.001 103.983C143.27 103.569 143.637 103.243 144.102 103.006C144.566 102.769 145.095 102.65 145.688 102.65C146.275 102.65 146.802 102.769 147.267 103.006C147.731 103.243 148.096 103.569 148.36 103.983C148.629 104.394 148.764 104.861 148.764 105.385C148.764 105.977 148.595 106.483 148.258 106.902C147.921 107.317 147.494 107.575 146.979 107.675C147.385 107.734 147.752 107.887 148.08 108.133C148.408 108.374 148.668 108.684 148.859 109.062C149.051 109.436 149.146 109.846 149.146 110.293C149.146 110.849 148.998 111.343 148.702 111.776C148.406 112.209 147.998 112.549 147.479 112.795C146.959 113.041 146.362 113.164 145.688 113.164ZM145.688 112.07C146.367 112.07 146.909 111.904 147.314 111.571C147.725 111.239 147.93 110.794 147.93 110.238C147.93 109.855 147.834 109.516 147.643 109.22C147.451 108.924 147.187 108.691 146.85 108.522C146.512 108.354 146.125 108.27 145.688 108.27C145.25 108.27 144.86 108.354 144.519 108.522C144.181 108.691 143.915 108.924 143.719 109.22C143.527 109.516 143.432 109.855 143.432 110.238C143.432 110.79 143.637 111.234 144.047 111.571C144.457 111.904 145.004 112.07 145.688 112.07ZM145.688 107.217C146.248 107.217 146.701 107.057 147.048 106.738C147.399 106.415 147.574 105.991 147.574 105.467C147.574 104.947 147.401 104.528 147.055 104.209C146.708 103.89 146.253 103.73 145.688 103.73C145.122 103.73 144.664 103.89 144.313 104.209C143.963 104.528 143.787 104.947 143.787 105.467C143.787 105.986 143.963 106.408 144.313 106.731C144.664 107.055 145.122 107.217 145.688 107.217ZM152.783 107.504C152.355 107.504 151.981 107.404 151.662 107.203C151.348 106.998 151.102 106.72 150.924 106.369C150.751 106.018 150.664 105.622 150.664 105.18V104.975C150.664 104.533 150.751 104.136 150.924 103.785C151.102 103.434 151.348 103.159 151.662 102.958C151.981 102.753 152.355 102.65 152.783 102.65C153.212 102.65 153.583 102.753 153.897 102.958C154.212 103.159 154.456 103.434 154.629 103.785C154.802 104.136 154.889 104.533 154.889 104.975V105.18C154.889 105.622 154.802 106.018 154.629 106.369C154.456 106.72 154.212 106.998 153.897 107.203C153.583 107.404 153.212 107.504 152.783 107.504ZM158.566 113.164C158.138 113.164 157.764 113.064 157.445 112.863C157.131 112.658 156.885 112.38 156.707 112.029C156.534 111.678 156.447 111.282 156.447 110.84V110.635C156.447 110.193 156.534 109.796 156.707 109.445C156.885 109.094 157.131 108.819 157.445 108.618C157.764 108.413 158.138 108.311 158.566 108.311C158.995 108.311 159.366 108.413 159.681 108.618C159.995 108.819 160.239 109.094 160.412 109.445C160.585 109.796 160.672 110.193 160.672 110.635V110.84C160.672 111.282 160.585 111.678 160.412 112.029C160.239 112.38 159.995 112.658 159.681 112.863C159.366 113.064 158.995 113.164 158.566 113.164ZM151.553 113L158.553 102.814H159.742L152.742 113H151.553ZM152.783 106.615C153.111 106.615 153.371 106.488 153.562 106.232C153.754 105.977 153.85 105.626 153.85 105.18V104.975C153.85 104.528 153.754 104.177 153.562 103.922C153.371 103.667 153.111 103.539 152.783 103.539C152.451 103.539 152.186 103.667 151.99 103.922C151.799 104.177 151.703 104.528 151.703 104.975V105.18C151.703 105.626 151.799 105.977 151.99 106.232C152.186 106.488 152.451 106.615 152.783 106.615ZM158.566 112.275C158.895 112.275 159.154 112.148 159.346 111.893C159.537 111.637 159.633 111.286 159.633 110.84V110.635C159.633 110.188 159.537 109.837 159.346 109.582C159.154 109.327 158.895 109.199 158.566 109.199C158.234 109.199 157.969 109.327 157.773 109.582C157.582 109.837 157.486 110.188 157.486 110.635V110.84C157.486 111.286 157.582 111.637 157.773 111.893C157.969 112.148 158.234 112.275 158.566 112.275ZM171.596 102.5L172.197 103.211C171.965 103.439 171.696 103.598 171.391 103.689C171.085 103.776 170.739 103.831 170.352 103.854C169.969 103.872 169.54 103.89 169.066 103.908C168.273 103.94 167.681 104.216 167.289 104.735C166.902 105.255 166.669 106.009 166.592 106.998H166.688C166.943 106.52 167.298 106.169 167.754 105.945C168.214 105.717 168.706 105.604 169.23 105.604C169.827 105.604 170.363 105.743 170.837 106.021C171.315 106.299 171.694 106.711 171.972 107.258C172.25 107.805 172.389 108.479 172.389 109.281C172.389 110.079 172.247 110.769 171.965 111.353C171.682 111.931 171.286 112.378 170.775 112.692C170.27 113.007 169.677 113.164 168.998 113.164C167.968 113.164 167.139 112.799 166.51 112.07C165.881 111.341 165.566 110.27 165.566 108.857V108.051C165.576 104.619 166.738 102.874 169.053 102.814C169.199 102.81 169.34 102.808 169.477 102.808C169.613 102.808 169.743 102.808 169.866 102.808C170.258 102.812 170.595 102.803 170.878 102.78C171.165 102.753 171.404 102.66 171.596 102.5ZM168.998 112.111C169.686 112.107 170.226 111.849 170.618 111.339C171.015 110.828 171.213 110.143 171.213 109.281C171.213 108.447 171.015 107.802 170.618 107.347C170.222 106.886 169.673 106.656 168.971 106.656C168.292 106.656 167.754 106.886 167.357 107.347C166.961 107.802 166.756 108.447 166.742 109.281C166.742 110.133 166.943 110.817 167.344 111.332C167.745 111.847 168.296 112.107 168.998 112.111ZM174.904 108.242H176.996C177.529 108.242 177.999 108.342 178.404 108.543C178.81 108.743 179.127 109.021 179.354 109.377C179.587 109.728 179.703 110.133 179.703 110.594C179.703 111.063 179.587 111.48 179.354 111.845C179.127 112.205 178.81 112.487 178.404 112.692C177.999 112.897 177.529 113 176.996 113H173.742V105.781H174.904V108.242ZM174.904 109.336V111.906H176.955C177.443 111.906 177.828 111.788 178.11 111.551C178.397 111.314 178.541 110.995 178.541 110.594C178.541 110.206 178.397 109.901 178.11 109.678C177.828 109.45 177.443 109.336 176.955 109.336H174.904ZM180.4 113V105.781H181.562V113H180.4ZM186.266 113.164C185.6 113.164 185.015 113.005 184.509 112.686C184.007 112.362 183.616 111.918 183.333 111.353C183.055 110.787 182.916 110.138 182.916 109.404C182.916 108.666 183.055 108.012 183.333 107.442C183.616 106.873 184.007 106.426 184.509 106.103C185.015 105.779 185.6 105.617 186.266 105.617C186.812 105.617 187.302 105.727 187.735 105.945C188.168 106.16 188.521 106.456 188.795 106.834C189.073 107.212 189.244 107.645 189.308 108.133H188.132C188.045 107.709 187.845 107.36 187.53 107.087C187.22 106.809 186.799 106.67 186.266 106.67C185.587 106.67 185.053 106.918 184.666 107.415C184.283 107.912 184.092 108.575 184.092 109.404C184.092 110.225 184.283 110.881 184.666 111.373C185.049 111.865 185.582 112.111 186.266 112.111C186.808 112.111 187.223 111.979 187.51 111.715C187.797 111.446 187.997 111.09 188.111 110.648H189.308C189.244 111.122 189.073 111.551 188.795 111.934C188.521 112.312 188.166 112.613 187.729 112.836C187.296 113.055 186.808 113.164 186.266 113.164ZM192.377 113V106.834H189.854V105.781H196.048V106.834H193.539V113H192.377ZM197.012 115.857V105.781H198.146V106.848H198.16C198.393 106.442 198.714 106.141 199.124 105.945C199.534 105.745 199.974 105.645 200.443 105.645C201.072 105.645 201.621 105.802 202.091 106.116C202.56 106.431 202.925 106.87 203.185 107.436C203.444 107.996 203.574 108.648 203.574 109.391C203.574 110.129 203.444 110.781 203.185 111.346C202.925 111.906 202.56 112.346 202.091 112.665C201.621 112.979 201.072 113.137 200.443 113.137C199.974 113.137 199.546 113.036 199.158 112.836C198.771 112.631 198.447 112.321 198.188 111.906H198.174V115.857H197.012ZM200.266 112.091C200.89 112.091 201.4 111.863 201.797 111.407C202.198 110.947 202.398 110.275 202.398 109.391C202.398 108.507 202.198 107.834 201.797 107.374C201.4 106.914 200.89 106.684 200.266 106.684C199.596 106.684 199.062 106.932 198.666 107.429C198.274 107.921 198.078 108.575 198.078 109.391C198.078 110.206 198.274 110.86 198.666 111.353C199.062 111.845 199.596 112.091 200.266 112.091ZM207.908 113.164C207.202 113.164 206.598 113.002 206.097 112.679C205.6 112.355 205.219 111.911 204.955 111.346C204.691 110.776 204.559 110.129 204.559 109.404C204.559 108.671 204.698 108.019 204.976 107.449C205.254 106.88 205.639 106.433 206.131 106.109C206.623 105.781 207.188 105.617 207.826 105.617C208.496 105.617 209.077 105.777 209.569 106.096C210.062 106.415 210.44 106.859 210.704 107.429C210.973 107.998 211.107 108.657 211.107 109.404V109.726H205.707C205.734 110.432 205.937 111.006 206.315 111.448C206.694 111.89 207.225 112.111 207.908 112.111C208.423 112.111 208.842 111.993 209.166 111.756C209.494 111.519 209.713 111.214 209.822 110.84H210.984C210.893 111.3 210.704 111.706 210.417 112.057C210.13 112.403 209.77 112.674 209.337 112.87C208.909 113.066 208.432 113.164 207.908 113.164ZM205.721 108.728H209.945C209.882 108.094 209.66 107.59 209.282 107.217C208.904 106.843 208.419 106.656 207.826 106.656C207.234 106.656 206.751 106.843 206.377 107.217C206.003 107.59 205.785 108.094 205.721 108.728ZM215.414 113.164C214.708 113.164 214.104 113.002 213.603 112.679C213.106 112.355 212.725 111.911 212.461 111.346C212.197 110.776 212.064 110.129 212.064 109.404C212.064 108.671 212.203 108.019 212.481 107.449C212.759 106.88 213.145 106.433 213.637 106.109C214.129 105.781 214.694 105.617 215.332 105.617C216.002 105.617 216.583 105.777 217.075 106.096C217.567 106.415 217.946 106.859 218.21 107.429C218.479 107.998 218.613 108.657 218.613 109.404V109.726H213.213C213.24 110.432 213.443 111.006 213.821 111.448C214.2 111.89 214.73 112.111 215.414 112.111C215.929 112.111 216.348 111.993 216.672 111.756C217 111.519 217.219 111.214 217.328 110.84H218.49C218.399 111.3 218.21 111.706 217.923 112.057C217.636 112.403 217.276 112.674 216.843 112.87C216.414 113.066 215.938 113.164 215.414 113.164ZM213.227 108.728H217.451C217.387 108.094 217.166 107.59 216.788 107.217C216.41 106.843 215.924 106.656 215.332 106.656C214.74 106.656 214.257 106.843 213.883 107.217C213.509 107.59 213.29 108.094 213.227 108.728ZM21.1572 132.188V128.906H21.7861C21.9958 128.688 22.1689 128.453 22.3057 128.202C22.4424 127.951 22.554 127.623 22.6406 127.218C22.7318 126.812 22.807 126.272 22.8662 125.598L23.126 122.781H27.9795V128.906H29.1416V132.188H27.9795V130H22.3193V132.188H21.1572ZM23.126 128.906H26.8174V123.875H24.1855L24.0146 125.598C23.9417 126.34 23.8415 126.99 23.7139 127.546C23.5908 128.102 23.3949 128.555 23.126 128.906ZM33.1406 130.164C32.4753 130.164 31.8896 130.005 31.3838 129.686C30.8825 129.362 30.4906 128.918 30.208 128.353C29.93 127.787 29.791 127.138 29.791 126.404C29.791 125.666 29.93 125.012 30.208 124.442C30.4906 123.873 30.8825 123.426 31.3838 123.103C31.8896 122.779 32.4753 122.617 33.1406 122.617C33.8105 122.617 34.3962 122.779 34.8975 123.103C35.3988 123.426 35.7884 123.873 36.0664 124.442C36.349 125.012 36.4902 125.666 36.4902 126.404C36.4902 127.138 36.349 127.787 36.0664 128.353C35.7884 128.918 35.3988 129.362 34.8975 129.686C34.3962 130.005 33.8105 130.164 33.1406 130.164ZM33.1406 129.111C33.8242 129.111 34.3574 128.865 34.7402 128.373C35.123 127.876 35.3145 127.22 35.3145 126.404C35.3145 125.579 35.1208 124.919 34.7334 124.422C34.3506 123.921 33.8197 123.67 33.1406 123.67C32.4616 123.67 31.9284 123.918 31.541 124.415C31.1582 124.912 30.9668 125.575 30.9668 126.404C30.9668 127.225 31.1582 127.881 31.541 128.373C31.9238 128.865 32.457 129.111 33.1406 129.111ZM40.8242 130.164C40.1589 130.164 39.5732 130.005 39.0674 129.686C38.5661 129.362 38.1742 128.918 37.8916 128.353C37.6136 127.787 37.4746 127.138 37.4746 126.404C37.4746 125.666 37.6136 125.012 37.8916 124.442C38.1742 123.873 38.5661 123.426 39.0674 123.103C39.5732 122.779 40.1589 122.617 40.8242 122.617C41.3711 122.617 41.861 122.727 42.2939 122.945C42.7269 123.16 43.0801 123.456 43.3535 123.834C43.6315 124.212 43.8024 124.645 43.8662 125.133H42.6904C42.6038 124.709 42.4033 124.36 42.0889 124.087C41.779 123.809 41.3574 123.67 40.8242 123.67C40.1452 123.67 39.612 123.918 39.2246 124.415C38.8418 124.912 38.6504 125.575 38.6504 126.404C38.6504 127.225 38.8418 127.881 39.2246 128.373C39.6074 128.865 40.1406 129.111 40.8242 129.111C41.3665 129.111 41.7812 128.979 42.0684 128.715C42.3555 128.446 42.556 128.09 42.6699 127.648H43.8662C43.8024 128.122 43.6315 128.551 43.3535 128.934C43.0801 129.312 42.7246 129.613 42.2871 129.836C41.8542 130.055 41.3665 130.164 40.8242 130.164ZM46.9355 130V123.834H44.4131V122.781H50.6064V123.834H48.0977V130H46.9355ZM57.6133 130H56.4512V124.62H56.4307L52.7324 130H51.5703V122.781H52.7324V128.168H52.7529L56.4512 122.781H57.6133V130ZM64.0391 122.781V123.875H60.498V130H59.3359V122.781H64.0391ZM67.2246 130.109C66.5091 130.109 65.9098 129.925 65.4268 129.556C64.9482 129.187 64.709 128.642 64.709 127.922C64.709 127.507 64.7887 127.17 64.9482 126.91C65.1123 126.65 65.3288 126.448 65.5977 126.302C65.8711 126.151 66.1787 126.037 66.5205 125.96C66.8669 125.882 67.2201 125.821 67.5801 125.775C68.0404 125.712 68.4027 125.664 68.667 125.632C68.9313 125.6 69.1182 125.548 69.2275 125.475C69.3415 125.402 69.3984 125.274 69.3984 125.092V125.023C69.3984 124.632 69.2572 124.308 68.9746 124.053C68.6966 123.798 68.3047 123.67 67.7988 123.67C67.2975 123.67 66.8851 123.793 66.5615 124.039C66.2425 124.281 66.0693 124.581 66.042 124.941H64.8594C64.8822 124.499 65.0189 124.107 65.2695 123.766C65.5202 123.419 65.862 123.146 66.2949 122.945C66.7279 122.745 67.2292 122.645 67.7988 122.645C68.6419 122.645 69.3096 122.863 69.8018 123.301C70.2985 123.734 70.5469 124.308 70.5469 125.023V130H69.3984V128.975H69.3711C69.2845 129.148 69.1569 129.323 68.9883 129.501C68.8197 129.674 68.5918 129.82 68.3047 129.938C68.0221 130.052 67.6621 130.109 67.2246 130.109ZM67.3887 129.07C67.8626 129.07 68.2477 128.986 68.5439 128.817C68.8402 128.644 69.0566 128.421 69.1934 128.147C69.3301 127.874 69.3984 127.58 69.3984 127.266V126.363C69.3118 126.445 69.0817 126.521 68.708 126.589C68.3343 126.653 67.9401 126.714 67.5254 126.773C67.2474 126.81 66.9831 126.874 66.7324 126.965C66.4863 127.051 66.2858 127.177 66.1309 127.341C65.9759 127.5 65.8984 127.717 65.8984 127.99C65.8984 128.327 66.0306 128.592 66.2949 128.783C66.5638 128.975 66.9284 129.07 67.3887 129.07ZM72.2695 130V122.781H73.4316V125.844H75.2227C75.2956 125.206 75.4779 124.645 75.7695 124.162C76.0612 123.674 76.444 123.296 76.918 123.027C77.3919 122.754 77.9342 122.617 78.5449 122.617C79.2148 122.617 79.8005 122.779 80.3018 123.103C80.8031 123.426 81.1927 123.873 81.4707 124.442C81.7533 125.012 81.8945 125.666 81.8945 126.404C81.8945 127.138 81.7533 127.787 81.4707 128.353C81.1927 128.918 80.8031 129.362 80.3018 129.686C79.8005 130.005 79.2148 130.164 78.5449 130.164C77.9342 130.164 77.3896 130.03 76.9111 129.761C76.4372 129.487 76.0544 129.109 75.7627 128.626C75.471 128.138 75.291 127.576 75.2227 126.938H73.4316V130H72.2695ZM78.5449 129.111C79.2285 129.111 79.7617 128.865 80.1445 128.373C80.5273 127.876 80.7188 127.22 80.7188 126.404C80.7188 125.579 80.5251 124.919 80.1377 124.422C79.7549 123.921 79.224 123.67 78.5449 123.67C77.8659 123.67 77.3327 123.918 76.9453 124.415C76.5625 124.912 76.3711 125.575 76.3711 126.404C76.3711 127.225 76.5625 127.881 76.9453 128.373C77.3281 128.865 77.8613 129.111 78.5449 129.111ZM85.0117 130V123.834H82.4893V122.781H88.6826V123.834H86.1738V130H85.0117ZM93.1465 130V122.781H94.3086V128.906H97.9863V122.781H99.1484V130H93.1465ZM98.9092 132.188V130H98.4033V128.906H100.071V132.188H98.9092ZM104.057 130.164C103.35 130.164 102.746 130.002 102.245 129.679C101.748 129.355 101.368 128.911 101.104 128.346C100.839 127.776 100.707 127.129 100.707 126.404C100.707 125.671 100.846 125.019 101.124 124.449C101.402 123.88 101.787 123.433 102.279 123.109C102.771 122.781 103.337 122.617 103.975 122.617C104.645 122.617 105.226 122.777 105.718 123.096C106.21 123.415 106.588 123.859 106.853 124.429C107.121 124.998 107.256 125.657 107.256 126.404V126.726H101.855C101.883 127.432 102.086 128.006 102.464 128.448C102.842 128.89 103.373 129.111 104.057 129.111C104.572 129.111 104.991 128.993 105.314 128.756C105.643 128.519 105.861 128.214 105.971 127.84H107.133C107.042 128.3 106.853 128.706 106.565 129.057C106.278 129.403 105.918 129.674 105.485 129.87C105.057 130.066 104.581 130.164 104.057 130.164ZM101.869 125.728H106.094C106.03 125.094 105.809 124.59 105.431 124.217C105.052 123.843 104.567 123.656 103.975 123.656C103.382 123.656 102.899 123.843 102.525 124.217C102.152 124.59 101.933 125.094 101.869 125.728ZM107.823 130V128.906H108.097C108.329 128.906 108.521 128.872 108.671 128.804C108.826 128.731 108.949 128.594 109.04 128.394C109.136 128.188 109.209 127.892 109.259 127.505C109.313 127.113 109.354 126.596 109.382 125.953L109.519 122.781H114.604V130H113.442V123.875H110.626L110.503 126.391C110.462 127.225 110.371 127.908 110.229 128.441C110.088 128.97 109.858 129.362 109.539 129.617C109.225 129.872 108.785 130 108.22 130H107.823ZM122.377 130H121.215V124.62H121.194L117.496 130H116.334V122.781H117.496V128.168H117.517L121.215 122.781H122.377V130ZM123.621 131.921L124.223 128.578H125.467L124.469 131.921H123.621ZM132.877 130.109C132.161 130.109 131.562 129.925 131.079 129.556C130.601 129.187 130.361 128.642 130.361 127.922C130.361 127.507 130.441 127.17 130.601 126.91C130.765 126.65 130.981 126.448 131.25 126.302C131.523 126.151 131.831 126.037 132.173 125.96C132.519 125.882 132.872 125.821 133.232 125.775C133.693 125.712 134.055 125.664 134.319 125.632C134.584 125.6 134.771 125.548 134.88 125.475C134.994 125.402 135.051 125.274 135.051 125.092V125.023C135.051 124.632 134.91 124.308 134.627 124.053C134.349 123.798 133.957 123.67 133.451 123.67C132.95 123.67 132.537 123.793 132.214 124.039C131.895 124.281 131.722 124.581 131.694 124.941H130.512C130.535 124.499 130.671 124.107 130.922 123.766C131.173 123.419 131.514 123.146 131.947 122.945C132.38 122.745 132.882 122.645 133.451 122.645C134.294 122.645 134.962 122.863 135.454 123.301C135.951 123.734 136.199 124.308 136.199 125.023V130H135.051V128.975H135.023C134.937 129.148 134.809 129.323 134.641 129.501C134.472 129.674 134.244 129.82 133.957 129.938C133.674 130.052 133.314 130.109 132.877 130.109ZM133.041 129.07C133.515 129.07 133.9 128.986 134.196 128.817C134.493 128.644 134.709 128.421 134.846 128.147C134.982 127.874 135.051 127.58 135.051 127.266V126.363C134.964 126.445 134.734 126.521 134.36 126.589C133.987 126.653 133.592 126.714 133.178 126.773C132.9 126.81 132.635 126.874 132.385 126.965C132.139 127.051 131.938 127.177 131.783 127.341C131.628 127.5 131.551 127.717 131.551 127.99C131.551 128.327 131.683 128.592 131.947 128.783C132.216 128.975 132.581 129.07 133.041 129.07ZM147.014 130H145.852V127.286H143.869C143.846 127.286 143.821 127.286 143.794 127.286L142.058 130H140.718L142.604 127.122C141.575 126.808 141.06 126.119 141.06 125.058C141.06 124.324 141.299 123.761 141.777 123.369C142.256 122.977 142.937 122.781 143.821 122.781H147.014V130ZM145.852 126.302V123.807H143.917C143.325 123.807 142.889 123.907 142.611 124.107C142.338 124.308 142.201 124.625 142.201 125.058C142.201 125.491 142.342 125.807 142.625 126.008C142.908 126.204 143.354 126.302 143.965 126.302H145.852ZM154.656 130.109C154.1 130.109 153.613 130.014 153.193 129.822C152.779 129.626 152.455 129.362 152.223 129.029C151.995 128.697 151.876 128.321 151.867 127.901H153.022C153.036 128.284 153.191 128.585 153.487 128.804C153.784 129.022 154.166 129.132 154.636 129.132C155.123 129.132 155.518 129.025 155.818 128.811C156.124 128.592 156.276 128.309 156.276 127.963C156.276 127.603 156.119 127.311 155.805 127.088C155.49 126.86 155.06 126.746 154.513 126.746H153.966V125.823H154.513C154.968 125.823 155.338 125.721 155.62 125.516C155.903 125.306 156.044 125.03 156.044 124.688C156.044 124.356 155.916 124.089 155.661 123.889C155.406 123.684 155.066 123.581 154.643 123.581C154.223 123.581 153.87 123.684 153.583 123.889C153.3 124.094 153.155 124.379 153.146 124.743H152.031C152.04 124.328 152.159 123.962 152.387 123.643C152.615 123.324 152.924 123.075 153.316 122.897C153.713 122.715 154.157 122.624 154.649 122.624C155.151 122.624 155.588 122.713 155.962 122.891C156.34 123.068 156.634 123.308 156.844 123.608C157.058 123.909 157.165 124.242 157.165 124.606C157.165 125.007 157.042 125.354 156.796 125.646C156.55 125.937 156.21 126.135 155.777 126.24V126.254C156.292 126.327 156.696 126.525 156.987 126.849C157.284 127.168 157.432 127.553 157.432 128.004C157.432 128.405 157.311 128.765 157.069 129.084C156.832 129.403 156.504 129.654 156.085 129.836C155.666 130.018 155.189 130.109 154.656 130.109ZM160.959 130.109C160.243 130.109 159.644 129.925 159.161 129.556C158.683 129.187 158.443 128.642 158.443 127.922C158.443 127.507 158.523 127.17 158.683 126.91C158.847 126.65 159.063 126.448 159.332 126.302C159.605 126.151 159.913 126.037 160.255 125.96C160.601 125.882 160.954 125.821 161.314 125.775C161.775 125.712 162.137 125.664 162.401 125.632C162.666 125.6 162.853 125.548 162.962 125.475C163.076 125.402 163.133 125.274 163.133 125.092V125.023C163.133 124.632 162.992 124.308 162.709 124.053C162.431 123.798 162.039 123.67 161.533 123.67C161.032 123.67 160.619 123.793 160.296 124.039C159.977 124.281 159.804 124.581 159.776 124.941H158.594C158.617 124.499 158.753 124.107 159.004 123.766C159.255 123.419 159.596 123.146 160.029 122.945C160.462 122.745 160.964 122.645 161.533 122.645C162.376 122.645 163.044 122.863 163.536 123.301C164.033 123.734 164.281 124.308 164.281 125.023V130H163.133V128.975H163.105C163.019 129.148 162.891 129.323 162.723 129.501C162.554 129.674 162.326 129.82 162.039 129.938C161.757 130.052 161.396 130.109 160.959 130.109ZM161.123 129.07C161.597 129.07 161.982 128.986 162.278 128.817C162.575 128.644 162.791 128.421 162.928 128.147C163.064 127.874 163.133 127.58 163.133 127.266V126.363C163.046 126.445 162.816 126.521 162.442 126.589C162.069 126.653 161.674 126.714 161.26 126.773C160.982 126.81 160.717 126.874 160.467 126.965C160.221 127.051 160.02 127.177 159.865 127.341C159.71 127.5 159.633 127.717 159.633 127.99C159.633 128.327 159.765 128.592 160.029 128.783C160.298 128.975 160.663 129.07 161.123 129.07ZM169.101 132.611V130.164C168.422 130.155 167.82 129.991 167.296 129.672C166.776 129.348 166.368 128.906 166.072 128.346C165.781 127.781 165.635 127.133 165.635 126.404C165.635 125.671 165.781 125.021 166.072 124.456C166.368 123.886 166.776 123.44 167.296 123.116C167.82 122.793 168.422 122.626 169.101 122.617V119.814H170.263V122.617C170.942 122.626 171.541 122.793 172.061 123.116C172.585 123.44 172.993 123.886 173.284 124.456C173.58 125.021 173.729 125.671 173.729 126.404C173.729 127.133 173.58 127.781 173.284 128.346C172.993 128.906 172.585 129.348 172.061 129.672C171.541 129.991 170.942 130.155 170.263 130.164V132.611H169.101ZM170.263 129.111C170.969 129.111 171.532 128.865 171.951 128.373C172.37 127.881 172.58 127.225 172.58 126.404C172.58 125.575 172.37 124.912 171.951 124.415C171.532 123.918 170.969 123.67 170.263 123.67V129.111ZM169.101 129.111V123.67C168.399 123.67 167.838 123.918 167.419 124.415C167.004 124.912 166.797 125.575 166.797 126.404C166.797 127.225 167.004 127.881 167.419 128.373C167.838 128.865 168.399 129.111 169.101 129.111ZM181.125 130H179.963V124.62H179.942L176.244 130H175.082V122.781H176.244V128.168H176.265L179.963 122.781H181.125V130ZM182.848 130V122.781H184.01V125.898H184.789L187.558 122.781H189.041L185.965 126.268L189.082 130H187.605L185.09 126.992H184.01V130H182.848ZM192.582 130.164C191.917 130.164 191.331 130.005 190.825 129.686C190.324 129.362 189.932 128.918 189.649 128.353C189.371 127.787 189.232 127.138 189.232 126.404C189.232 125.666 189.371 125.012 189.649 124.442C189.932 123.873 190.324 123.426 190.825 123.103C191.331 122.779 191.917 122.617 192.582 122.617C193.129 122.617 193.619 122.727 194.052 122.945C194.485 123.16 194.838 123.456 195.111 123.834C195.389 124.212 195.56 124.645 195.624 125.133H194.448C194.362 124.709 194.161 124.36 193.847 124.087C193.537 123.809 193.115 123.67 192.582 123.67C191.903 123.67 191.37 123.918 190.982 124.415C190.6 124.912 190.408 125.575 190.408 126.404C190.408 127.225 190.6 127.881 190.982 128.373C191.365 128.865 191.898 129.111 192.582 129.111C193.124 129.111 193.539 128.979 193.826 128.715C194.113 128.446 194.314 128.09 194.428 127.648H195.624C195.56 128.122 195.389 128.551 195.111 128.934C194.838 129.312 194.482 129.613 194.045 129.836C193.612 130.055 193.124 130.164 192.582 130.164ZM202.973 130H201.811V124.62H201.79L198.092 130H196.93V122.781H198.092V128.168H198.112L201.811 122.781H202.973V130ZM204.695 132.857V122.781H205.83V123.848H205.844C206.076 123.442 206.397 123.141 206.808 122.945C207.218 122.745 207.658 122.645 208.127 122.645C208.756 122.645 209.305 122.802 209.774 123.116C210.244 123.431 210.608 123.87 210.868 124.436C211.128 124.996 211.258 125.648 211.258 126.391C211.258 127.129 211.128 127.781 210.868 128.346C210.608 128.906 210.244 129.346 209.774 129.665C209.305 129.979 208.756 130.137 208.127 130.137C207.658 130.137 207.229 130.036 206.842 129.836C206.454 129.631 206.131 129.321 205.871 128.906H205.857V132.857H204.695ZM207.949 129.091C208.574 129.091 209.084 128.863 209.48 128.407C209.882 127.947 210.082 127.275 210.082 126.391C210.082 125.507 209.882 124.834 209.48 124.374C209.084 123.914 208.574 123.684 207.949 123.684C207.279 123.684 206.746 123.932 206.35 124.429C205.958 124.921 205.762 125.575 205.762 126.391C205.762 127.206 205.958 127.86 206.35 128.353C206.746 128.845 207.279 129.091 207.949 129.091ZM215.592 130.164C214.926 130.164 214.341 130.005 213.835 129.686C213.334 129.362 212.942 128.918 212.659 128.353C212.381 127.787 212.242 127.138 212.242 126.404C212.242 125.666 212.381 125.012 212.659 124.442C212.942 123.873 213.334 123.426 213.835 123.103C214.341 122.779 214.926 122.617 215.592 122.617C216.262 122.617 216.847 122.779 217.349 123.103C217.85 123.426 218.24 123.873 218.518 124.442C218.8 125.012 218.941 125.666 218.941 126.404C218.941 127.138 218.8 127.787 218.518 128.353C218.24 128.918 217.85 129.362 217.349 129.686C216.847 130.005 216.262 130.164 215.592 130.164ZM215.592 129.111C216.275 129.111 216.809 128.865 217.191 128.373C217.574 127.876 217.766 127.22 217.766 126.404C217.766 125.579 217.572 124.919 217.185 124.422C216.802 123.921 216.271 123.67 215.592 123.67C214.913 123.67 214.38 123.918 213.992 124.415C213.609 124.912 213.418 125.575 213.418 126.404C213.418 127.225 213.609 127.881 213.992 128.373C214.375 128.865 214.908 129.111 215.592 129.111ZM220.295 130V122.781H223.303C224.123 122.781 224.775 122.948 225.258 123.28C225.741 123.613 225.982 124.087 225.982 124.702C225.982 125.131 225.864 125.468 225.627 125.714C225.39 125.955 225.076 126.119 224.684 126.206C224.952 126.247 225.208 126.336 225.449 126.473C225.691 126.605 225.887 126.794 226.037 127.04C226.192 127.282 226.27 127.587 226.27 127.956C226.27 128.562 226.049 129.054 225.606 129.433C225.164 129.811 224.556 130 223.781 130H220.295ZM221.402 128.92H223.781C224.196 128.92 224.513 128.833 224.731 128.66C224.955 128.482 225.066 128.234 225.066 127.915C225.066 127.555 224.955 127.279 224.731 127.088C224.513 126.892 224.196 126.794 223.781 126.794H221.402V128.92ZM221.402 125.796H223.357C223.822 125.796 224.18 125.709 224.431 125.536C224.681 125.358 224.807 125.108 224.807 124.784C224.807 124.488 224.677 124.26 224.417 124.101C224.157 123.941 223.786 123.861 223.303 123.861H221.402V125.796ZM229.838 130.109C229.122 130.109 228.523 129.925 228.04 129.556C227.562 129.187 227.322 128.642 227.322 127.922C227.322 127.507 227.402 127.17 227.562 126.91C227.726 126.65 227.942 126.448 228.211 126.302C228.484 126.151 228.792 126.037 229.134 125.96C229.48 125.882 229.833 125.821 230.193 125.775C230.654 125.712 231.016 125.664 231.28 125.632C231.545 125.6 231.731 125.548 231.841 125.475C231.955 125.402 232.012 125.274 232.012 125.092V125.023C232.012 124.632 231.87 124.308 231.588 124.053C231.31 123.798 230.918 123.67 230.412 123.67C229.911 123.67 229.498 123.793 229.175 124.039C228.856 124.281 228.683 124.581 228.655 124.941H227.473C227.495 124.499 227.632 124.107 227.883 123.766C228.133 123.419 228.475 123.146 228.908 122.945C229.341 122.745 229.842 122.645 230.412 122.645C231.255 122.645 231.923 122.863 232.415 123.301C232.912 123.734 233.16 124.308 233.16 125.023V130H232.012V128.975H231.984C231.898 129.148 231.77 129.323 231.602 129.501C231.433 129.674 231.205 129.82 230.918 129.938C230.635 130.052 230.275 130.109 229.838 130.109ZM230.002 129.07C230.476 129.07 230.861 128.986 231.157 128.817C231.453 128.644 231.67 128.421 231.807 128.147C231.943 127.874 232.012 127.58 232.012 127.266V126.363C231.925 126.445 231.695 126.521 231.321 126.589C230.948 126.653 230.553 126.714 230.139 126.773C229.861 126.81 229.596 126.874 229.346 126.965C229.1 127.051 228.899 127.177 228.744 127.341C228.589 127.5 228.512 127.717 228.512 127.99C228.512 128.327 228.644 128.592 228.908 128.783C229.177 128.975 229.542 129.07 230.002 129.07ZM234.124 130V128.906H234.397C234.63 128.906 234.821 128.872 234.972 128.804C235.127 128.731 235.25 128.594 235.341 128.394C235.437 128.188 235.509 127.892 235.56 127.505C235.614 127.113 235.655 126.596 235.683 125.953L235.819 122.781H240.905V130H239.743V123.875H236.927L236.804 126.391C236.763 127.225 236.672 127.908 236.53 128.441C236.389 128.97 236.159 129.362 235.84 129.617C235.525 129.872 235.086 130 234.521 130H234.124ZM244.836 130.109C244.12 130.109 243.521 129.925 243.038 129.556C242.56 129.187 242.32 128.642 242.32 127.922C242.32 127.507 242.4 127.17 242.56 126.91C242.724 126.65 242.94 126.448 243.209 126.302C243.482 126.151 243.79 126.037 244.132 125.96C244.478 125.882 244.831 125.821 245.191 125.775C245.652 125.712 246.014 125.664 246.278 125.632C246.543 125.6 246.729 125.548 246.839 125.475C246.953 125.402 247.01 125.274 247.01 125.092V125.023C247.01 124.632 246.868 124.308 246.586 124.053C246.308 123.798 245.916 123.67 245.41 123.67C244.909 123.67 244.496 123.793 244.173 124.039C243.854 124.281 243.681 124.581 243.653 124.941H242.471C242.493 124.499 242.63 124.107 242.881 123.766C243.132 123.419 243.473 123.146 243.906 122.945C244.339 122.745 244.84 122.645 245.41 122.645C246.253 122.645 246.921 122.863 247.413 123.301C247.91 123.734 248.158 124.308 248.158 125.023V130H247.01V128.975H246.982C246.896 129.148 246.768 129.323 246.6 129.501C246.431 129.674 246.203 129.82 245.916 129.938C245.633 130.052 245.273 130.109 244.836 130.109ZM245 129.07C245.474 129.07 245.859 128.986 246.155 128.817C246.451 128.644 246.668 128.421 246.805 128.147C246.941 127.874 247.01 127.58 247.01 127.266V126.363C246.923 126.445 246.693 126.521 246.319 126.589C245.946 126.653 245.551 126.714 245.137 126.773C244.859 126.81 244.594 126.874 244.344 126.965C244.098 127.051 243.897 127.177 243.742 127.341C243.587 127.5 243.51 127.717 243.51 127.99C243.51 128.327 243.642 128.592 243.906 128.783C244.175 128.975 244.54 129.07 245 129.07ZM23.0234 139.781V142.844H26.7422V139.781H27.9043V147H26.7422V143.938H23.0234V147H21.8613V139.781H23.0234ZM32.6074 147.164C31.9421 147.164 31.3564 147.005 30.8506 146.686C30.3493 146.362 29.9574 145.918 29.6748 145.353C29.3968 144.787 29.2578 144.138 29.2578 143.404C29.2578 142.666 29.3968 142.012 29.6748 141.442C29.9574 140.873 30.3493 140.426 30.8506 140.103C31.3564 139.779 31.9421 139.617 32.6074 139.617C33.2773 139.617 33.863 139.779 34.3643 140.103C34.8656 140.426 35.2552 140.873 35.5332 141.442C35.8158 142.012 35.957 142.666 35.957 143.404C35.957 144.138 35.8158 144.787 35.5332 145.353C35.2552 145.918 34.8656 146.362 34.3643 146.686C33.863 147.005 33.2773 147.164 32.6074 147.164ZM32.6074 146.111C33.291 146.111 33.8242 145.865 34.207 145.373C34.5898 144.876 34.7812 144.22 34.7812 143.404C34.7812 142.579 34.5876 141.919 34.2002 141.422C33.8174 140.921 33.2865 140.67 32.6074 140.67C31.9284 140.67 31.3952 140.918 31.0078 141.415C30.625 141.912 30.4336 142.575 30.4336 143.404C30.4336 144.225 30.625 144.881 31.0078 145.373C31.3906 145.865 31.9238 146.111 32.6074 146.111ZM37.3105 147V139.781H40.3184C41.1387 139.781 41.7904 139.948 42.2734 140.28C42.7565 140.613 42.998 141.087 42.998 141.702C42.998 142.131 42.8796 142.468 42.6426 142.714C42.4056 142.955 42.0911 143.119 41.6992 143.206C41.9681 143.247 42.2233 143.336 42.4648 143.473C42.7064 143.605 42.9023 143.794 43.0527 144.04C43.2077 144.282 43.2852 144.587 43.2852 144.956C43.2852 145.562 43.0641 146.054 42.6221 146.433C42.18 146.811 41.5716 147 40.7969 147H37.3105ZM38.418 145.92H40.7969C41.2116 145.92 41.5283 145.833 41.7471 145.66C41.9704 145.482 42.082 145.234 42.082 144.915C42.082 144.555 41.9704 144.279 41.7471 144.088C41.5283 143.892 41.2116 143.794 40.7969 143.794H38.418V145.92ZM38.418 142.796H40.373C40.8379 142.796 41.1956 142.709 41.4463 142.536C41.6969 142.358 41.8223 142.108 41.8223 141.784C41.8223 141.488 41.6924 141.26 41.4326 141.101C41.1729 140.941 40.8014 140.861 40.3184 140.861H38.418V142.796ZM45.8145 142.242H47.9062C48.4395 142.242 48.9089 142.342 49.3145 142.543C49.7201 142.743 50.0368 143.021 50.2646 143.377C50.4971 143.728 50.6133 144.133 50.6133 144.594C50.6133 145.063 50.4971 145.48 50.2646 145.845C50.0368 146.205 49.7201 146.487 49.3145 146.692C48.9089 146.897 48.4395 147 47.9062 147H44.6523V139.781H45.8145V142.242ZM45.8145 143.336V145.906H47.8652C48.3529 145.906 48.738 145.788 49.0205 145.551C49.3076 145.314 49.4512 144.995 49.4512 144.594C49.4512 144.206 49.3076 143.901 49.0205 143.678C48.738 143.45 48.3529 143.336 47.8652 143.336H45.8145ZM51.3105 147V139.781H52.4727V147H51.3105ZM57.1758 147.164C56.4694 147.164 55.8656 147.002 55.3643 146.679C54.8675 146.355 54.487 145.911 54.2227 145.346C53.9583 144.776 53.8262 144.129 53.8262 143.404C53.8262 142.671 53.9652 142.019 54.2432 141.449C54.5212 140.88 54.9062 140.433 55.3984 140.109C55.8906 139.781 56.4557 139.617 57.0938 139.617C57.7637 139.617 58.3447 139.777 58.8369 140.096C59.3291 140.415 59.7074 140.859 59.9717 141.429C60.2406 141.998 60.375 142.657 60.375 143.404V143.726H54.9746C55.002 144.432 55.2048 145.006 55.583 145.448C55.9613 145.89 56.4922 146.111 57.1758 146.111C57.6908 146.111 58.11 145.993 58.4336 145.756C58.7617 145.519 58.9805 145.214 59.0898 144.84H60.252C60.1608 145.3 59.9717 145.706 59.6846 146.057C59.3975 146.403 59.0374 146.674 58.6045 146.87C58.1761 147.066 57.6999 147.164 57.1758 147.164ZM54.9883 142.728H59.2129C59.1491 142.094 58.9281 141.59 58.5498 141.217C58.1715 140.843 57.6862 140.656 57.0938 140.656C56.5013 140.656 56.0182 140.843 55.6445 141.217C55.2708 141.59 55.0521 142.094 54.9883 142.728ZM71.2031 139.781V147H70.041V140.875H66.3633V147H65.2012V139.781H71.2031ZM75.127 147.109C74.4115 147.109 73.8122 146.925 73.3291 146.556C72.8506 146.187 72.6113 145.642 72.6113 144.922C72.6113 144.507 72.6911 144.17 72.8506 143.91C73.0146 143.65 73.2311 143.448 73.5 143.302C73.7734 143.151 74.0811 143.037 74.4229 142.96C74.7692 142.882 75.1224 142.821 75.4824 142.775C75.9427 142.712 76.305 142.664 76.5693 142.632C76.8337 142.6 77.0205 142.548 77.1299 142.475C77.2438 142.402 77.3008 142.274 77.3008 142.092V142.023C77.3008 141.632 77.1595 141.308 76.877 141.053C76.599 140.798 76.207 140.67 75.7012 140.67C75.1999 140.67 74.7874 140.793 74.4639 141.039C74.1449 141.281 73.9717 141.581 73.9443 141.941H72.7617C72.7845 141.499 72.9212 141.107 73.1719 140.766C73.4225 140.419 73.7643 140.146 74.1973 139.945C74.6302 139.745 75.1315 139.645 75.7012 139.645C76.5443 139.645 77.2119 139.863 77.7041 140.301C78.2008 140.734 78.4492 141.308 78.4492 142.023V147H77.3008V145.975H77.2734C77.1868 146.148 77.0592 146.323 76.8906 146.501C76.722 146.674 76.4941 146.82 76.207 146.938C75.9245 147.052 75.5645 147.109 75.127 147.109ZM75.291 146.07C75.765 146.07 76.1501 145.986 76.4463 145.817C76.7425 145.644 76.959 145.421 77.0957 145.147C77.2324 144.874 77.3008 144.58 77.3008 144.266V143.363C77.2142 143.445 76.984 143.521 76.6104 143.589C76.2367 143.653 75.8424 143.714 75.4277 143.773C75.1497 143.81 74.8854 143.874 74.6348 143.965C74.3887 144.051 74.1882 144.177 74.0332 144.341C73.8783 144.5 73.8008 144.717 73.8008 144.99C73.8008 145.327 73.9329 145.592 74.1973 145.783C74.4661 145.975 74.8307 146.07 75.291 146.07ZM81.9355 147V140.834H79.4131V139.781H85.6064V140.834H83.0977V147H81.9355ZM88.5527 147V140.834H86.0303V139.781H92.2236V140.834H89.7148V147H88.5527ZM96.0312 147.164C95.3249 147.164 94.721 147.002 94.2197 146.679C93.723 146.355 93.3424 145.911 93.0781 145.346C92.8138 144.776 92.6816 144.129 92.6816 143.404C92.6816 142.671 92.8206 142.019 93.0986 141.449C93.3766 140.88 93.7617 140.433 94.2539 140.109C94.7461 139.781 95.3112 139.617 95.9492 139.617C96.6191 139.617 97.2002 139.777 97.6924 140.096C98.1846 140.415 98.5628 140.859 98.8271 141.429C99.096 141.998 99.2305 142.657 99.2305 143.404V143.726H93.8301C93.8574 144.432 94.0602 145.006 94.4385 145.448C94.8167 145.89 95.3477 146.111 96.0312 146.111C96.5462 146.111 96.9655 145.993 97.2891 145.756C97.6172 145.519 97.8359 145.214 97.9453 144.84H99.1074C99.0163 145.3 98.8271 145.706 98.54 146.057C98.2529 146.403 97.8929 146.674 97.46 146.87C97.0316 147.066 96.5553 147.164 96.0312 147.164ZM93.8438 142.728H98.0684C98.0046 142.094 97.7835 141.59 97.4053 141.217C97.027 140.843 96.5417 140.656 95.9492 140.656C95.3568 140.656 94.8737 140.843 94.5 141.217C94.1263 141.59 93.9076 142.094 93.8438 142.728ZM100.557 149.857V139.781H101.691V140.848H101.705C101.938 140.442 102.259 140.141 102.669 139.945C103.079 139.745 103.519 139.645 103.988 139.645C104.617 139.645 105.166 139.802 105.636 140.116C106.105 140.431 106.47 140.87 106.729 141.436C106.989 141.996 107.119 142.648 107.119 143.391C107.119 144.129 106.989 144.781 106.729 145.346C106.47 145.906 106.105 146.346 105.636 146.665C105.166 146.979 104.617 147.137 103.988 147.137C103.519 147.137 103.09 147.036 102.703 146.836C102.316 146.631 101.992 146.321 101.732 145.906H101.719V149.857H100.557ZM103.811 146.091C104.435 146.091 104.945 145.863 105.342 145.407C105.743 144.947 105.943 144.275 105.943 143.391C105.943 142.507 105.743 141.834 105.342 141.374C104.945 140.914 104.435 140.684 103.811 140.684C103.141 140.684 102.607 140.932 102.211 141.429C101.819 141.921 101.623 142.575 101.623 143.391C101.623 144.206 101.819 144.86 102.211 145.353C102.607 145.845 103.141 146.091 103.811 146.091ZM109.635 139.781V142.844H113.354V139.781H114.516V147H113.354V143.938H109.635V147H108.473V139.781H109.635ZM117.4 142.242H119.492C120.025 142.242 120.495 142.342 120.9 142.543C121.306 142.743 121.623 143.021 121.851 143.377C122.083 143.728 122.199 144.133 122.199 144.594C122.199 145.063 122.083 145.48 121.851 145.845C121.623 146.205 121.306 146.487 120.9 146.692C120.495 146.897 120.025 147 119.492 147H116.238V139.781H117.4V142.242ZM117.4 143.336V145.906H119.451C119.939 145.906 120.324 145.788 120.606 145.551C120.894 145.314 121.037 144.995 121.037 144.594C121.037 144.206 120.894 143.901 120.606 143.678C120.324 143.45 119.939 143.336 119.451 143.336H117.4ZM122.896 147V139.781H124.059V147H122.896ZM129.281 147V139.781H132.289C133.109 139.781 133.761 139.948 134.244 140.28C134.727 140.613 134.969 141.087 134.969 141.702C134.969 142.131 134.85 142.468 134.613 142.714C134.376 142.955 134.062 143.119 133.67 143.206C133.939 143.247 134.194 143.336 134.436 143.473C134.677 143.605 134.873 143.794 135.023 144.04C135.178 144.282 135.256 144.587 135.256 144.956C135.256 145.562 135.035 146.054 134.593 146.433C134.151 146.811 133.542 147 132.768 147H129.281ZM130.389 145.92H132.768C133.182 145.92 133.499 145.833 133.718 145.66C133.941 145.482 134.053 145.234 134.053 144.915C134.053 144.555 133.941 144.279 133.718 144.088C133.499 143.892 133.182 143.794 132.768 143.794H130.389V145.92ZM130.389 142.796H132.344C132.809 142.796 133.166 142.709 133.417 142.536C133.668 142.358 133.793 142.108 133.793 141.784C133.793 141.488 133.663 141.26 133.403 141.101C133.144 140.941 132.772 140.861 132.289 140.861H130.389V142.796ZM140.123 147V139.781H143.131C143.951 139.781 144.603 139.948 145.086 140.28C145.569 140.613 145.811 141.087 145.811 141.702C145.811 142.131 145.692 142.468 145.455 142.714C145.218 142.955 144.904 143.119 144.512 143.206C144.781 143.247 145.036 143.336 145.277 143.473C145.519 143.605 145.715 143.794 145.865 144.04C146.02 144.282 146.098 144.587 146.098 144.956C146.098 145.562 145.877 146.054 145.435 146.433C144.993 146.811 144.384 147 143.609 147H140.123ZM141.23 145.92H143.609C144.024 145.92 144.341 145.833 144.56 145.66C144.783 145.482 144.895 145.234 144.895 144.915C144.895 144.555 144.783 144.279 144.56 144.088C144.341 143.892 144.024 143.794 143.609 143.794H141.23V145.92ZM141.23 142.796H143.186C143.65 142.796 144.008 142.709 144.259 142.536C144.509 142.358 144.635 142.108 144.635 141.784C144.635 141.488 144.505 141.26 144.245 141.101C143.985 140.941 143.614 140.861 143.131 140.861H141.23V142.796ZM153.508 147H152.346V141.62H152.325L148.627 147H147.465V139.781H148.627V145.168H148.647L152.346 139.781H153.508V147ZM154.526 149.188V145.906H155.155C155.365 145.688 155.538 145.453 155.675 145.202C155.812 144.951 155.923 144.623 156.01 144.218C156.101 143.812 156.176 143.272 156.235 142.598L156.495 139.781H161.349V145.906H162.511V149.188H161.349V147H155.688V149.188H154.526ZM156.495 145.906H160.187V140.875H157.555L157.384 142.598C157.311 143.34 157.211 143.99 157.083 144.546C156.96 145.102 156.764 145.555 156.495 145.906ZM166.51 147.164C165.803 147.164 165.2 147.002 164.698 146.679C164.201 146.355 163.821 145.911 163.557 145.346C163.292 144.776 163.16 144.129 163.16 143.404C163.16 142.671 163.299 142.019 163.577 141.449C163.855 140.88 164.24 140.433 164.732 140.109C165.225 139.781 165.79 139.617 166.428 139.617C167.098 139.617 167.679 139.777 168.171 140.096C168.663 140.415 169.041 140.859 169.306 141.429C169.575 141.998 169.709 142.657 169.709 143.404V143.726H164.309C164.336 144.432 164.539 145.006 164.917 145.448C165.295 145.89 165.826 146.111 166.51 146.111C167.025 146.111 167.444 145.993 167.768 145.756C168.096 145.519 168.314 145.214 168.424 144.84H169.586C169.495 145.3 169.306 145.706 169.019 146.057C168.731 146.403 168.371 146.674 167.938 146.87C167.51 147.066 167.034 147.164 166.51 147.164ZM164.322 142.728H168.547C168.483 142.094 168.262 141.59 167.884 141.217C167.506 140.843 167.02 140.656 166.428 140.656C165.835 140.656 165.352 140.843 164.979 141.217C164.605 141.59 164.386 142.094 164.322 142.728ZM177.728 147.137C177.076 147.137 176.49 147.002 175.971 146.733C175.451 146.46 175.036 146.091 174.727 145.626C174.417 145.161 174.248 144.635 174.221 144.047H175.451C175.506 144.626 175.743 145.104 176.162 145.482C176.586 145.856 177.108 146.043 177.728 146.043C178.17 146.043 178.555 145.94 178.883 145.735C179.215 145.53 179.475 145.25 179.662 144.895C179.849 144.535 179.942 144.124 179.942 143.664C179.942 143.204 179.854 142.796 179.676 142.44C179.498 142.085 179.25 141.807 178.931 141.606C178.612 141.401 178.24 141.299 177.816 141.299C177.256 141.299 176.775 141.413 176.374 141.641C175.973 141.864 175.693 142.192 175.533 142.625H174.351L174.692 136.814H180.571V137.908H175.807L175.561 141.21H175.574C176.208 140.531 177.005 140.191 177.967 140.191C178.591 140.191 179.14 140.34 179.614 140.636C180.093 140.932 180.464 141.34 180.729 141.859C180.997 142.379 181.132 142.976 181.132 143.65C181.132 144.334 180.988 144.938 180.701 145.462C180.419 145.986 180.022 146.396 179.512 146.692C179.001 146.989 178.407 147.137 177.728 147.137ZM186.115 147V139.781H187.277V142.898H188.057L190.825 139.781H192.309L189.232 143.268L192.35 147H190.873L188.357 143.992H187.277V147H186.115ZM195.85 147.164C195.184 147.164 194.599 147.005 194.093 146.686C193.591 146.362 193.2 145.918 192.917 145.353C192.639 144.787 192.5 144.138 192.5 143.404C192.5 142.666 192.639 142.012 192.917 141.442C193.2 140.873 193.591 140.426 194.093 140.103C194.599 139.779 195.184 139.617 195.85 139.617C196.52 139.617 197.105 139.779 197.606 140.103C198.108 140.426 198.497 140.873 198.775 141.442C199.058 142.012 199.199 142.666 199.199 143.404C199.199 144.138 199.058 144.787 198.775 145.353C198.497 145.918 198.108 146.362 197.606 146.686C197.105 147.005 196.52 147.164 195.85 147.164ZM195.85 146.111C196.533 146.111 197.066 145.865 197.449 145.373C197.832 144.876 198.023 144.22 198.023 143.404C198.023 142.579 197.83 141.919 197.442 141.422C197.06 140.921 196.529 140.67 195.85 140.67C195.171 140.67 194.637 140.918 194.25 141.415C193.867 141.912 193.676 142.575 193.676 143.404C193.676 144.225 193.867 144.881 194.25 145.373C194.633 145.865 195.166 146.111 195.85 146.111ZM200.553 147V139.781H202.296L204.169 144.047C204.292 144.329 204.404 144.596 204.504 144.847C204.604 145.093 204.702 145.339 204.798 145.585C204.898 145.339 204.996 145.093 205.092 144.847C205.192 144.596 205.304 144.329 205.427 144.047L207.286 139.781H209.029V147H207.867V143.35C207.867 142.835 207.869 142.409 207.874 142.071C207.879 141.734 207.883 141.397 207.888 141.06C207.742 141.41 207.594 141.768 207.443 142.133C207.298 142.493 207.127 142.894 206.931 143.336L205.304 147H204.278L202.638 143.336C202.446 142.912 202.278 142.525 202.132 142.174C201.986 141.818 201.84 141.472 201.694 141.135C201.699 141.458 201.703 141.784 201.708 142.112C201.713 142.44 201.715 142.853 201.715 143.35V147H200.553ZM216.754 139.781V147H215.592V140.875H211.914V147H210.752V139.781H216.754ZM221.457 147.164C220.792 147.164 220.206 147.005 219.7 146.686C219.199 146.362 218.807 145.918 218.524 145.353C218.246 144.787 218.107 144.138 218.107 143.404C218.107 142.666 218.246 142.012 218.524 141.442C218.807 140.873 219.199 140.426 219.7 140.103C220.206 139.779 220.792 139.617 221.457 139.617C222.127 139.617 222.713 139.779 223.214 140.103C223.715 140.426 224.105 140.873 224.383 141.442C224.665 142.012 224.807 142.666 224.807 143.404C224.807 144.138 224.665 144.787 224.383 145.353C224.105 145.918 223.715 146.362 223.214 146.686C222.713 147.005 222.127 147.164 221.457 147.164ZM221.457 146.111C222.141 146.111 222.674 145.865 223.057 145.373C223.439 144.876 223.631 144.22 223.631 143.404C223.631 142.579 223.437 141.919 223.05 141.422C222.667 140.921 222.136 140.67 221.457 140.67C220.778 140.67 220.245 140.918 219.857 141.415C219.475 141.912 219.283 142.575 219.283 143.404C219.283 144.225 219.475 144.881 219.857 145.373C220.24 145.865 220.773 146.111 221.457 146.111ZM227.322 139.781V142.844H231.041V139.781H232.203V147H231.041V143.938H227.322V147H226.16V139.781H227.322ZM236.906 147.164C236.2 147.164 235.596 147.002 235.095 146.679C234.598 146.355 234.217 145.911 233.953 145.346C233.689 144.776 233.557 144.129 233.557 143.404C233.557 142.671 233.696 142.019 233.974 141.449C234.252 140.88 234.637 140.433 235.129 140.109C235.621 139.781 236.186 139.617 236.824 139.617C237.494 139.617 238.075 139.777 238.567 140.096C239.06 140.415 239.438 140.859 239.702 141.429C239.971 141.998 240.105 142.657 240.105 143.404V143.726H234.705C234.732 144.432 234.935 145.006 235.313 145.448C235.692 145.89 236.223 146.111 236.906 146.111C237.421 146.111 237.84 145.993 238.164 145.756C238.492 145.519 238.711 145.214 238.82 144.84H239.982C239.891 145.3 239.702 145.706 239.415 146.057C239.128 146.403 238.768 146.674 238.335 146.87C237.907 147.066 237.43 147.164 236.906 147.164ZM234.719 142.728H238.943C238.88 142.094 238.659 141.59 238.28 141.217C237.902 140.843 237.417 140.656 236.824 140.656C236.232 140.656 235.749 140.843 235.375 141.217C235.001 141.59 234.783 142.094 234.719 142.728ZM242.594 139.781V142.844H246.312V139.781H247.475V147H246.312V143.938H242.594V147H241.432V139.781H242.594ZM250.961 147V140.834H248.438V139.781H254.632V140.834H252.123V147H250.961ZM258.439 147.164C257.774 147.164 257.188 147.005 256.683 146.686C256.181 146.362 255.789 145.918 255.507 145.353C255.229 144.787 255.09 144.138 255.09 143.404C255.09 142.666 255.229 142.012 255.507 141.442C255.789 140.873 256.181 140.426 256.683 140.103C257.188 139.779 257.774 139.617 258.439 139.617C259.109 139.617 259.695 139.779 260.196 140.103C260.698 140.426 261.087 140.873 261.365 141.442C261.648 142.012 261.789 142.666 261.789 143.404C261.789 144.138 261.648 144.787 261.365 145.353C261.087 145.918 260.698 146.362 260.196 146.686C259.695 147.005 259.109 147.164 258.439 147.164ZM258.439 146.111C259.123 146.111 259.656 145.865 260.039 145.373C260.422 144.876 260.613 144.22 260.613 143.404C260.613 142.579 260.42 141.919 260.032 141.422C259.649 140.921 259.118 140.67 258.439 140.67C257.76 140.67 257.227 140.918 256.84 141.415C256.457 141.912 256.266 142.575 256.266 143.404C256.266 144.225 256.457 144.881 256.84 145.373C257.223 145.865 257.756 146.111 258.439 146.111ZM263.143 147V139.781H266.15C266.971 139.781 267.622 139.948 268.105 140.28C268.589 140.613 268.83 141.087 268.83 141.702C268.83 142.131 268.712 142.468 268.475 142.714C268.238 142.955 267.923 143.119 267.531 143.206C267.8 143.247 268.055 143.336 268.297 143.473C268.538 143.605 268.734 143.794 268.885 144.04C269.04 144.282 269.117 144.587 269.117 144.956C269.117 145.562 268.896 146.054 268.454 146.433C268.012 146.811 267.404 147 266.629 147H263.143ZM264.25 145.92H266.629C267.044 145.92 267.36 145.833 267.579 145.66C267.802 145.482 267.914 145.234 267.914 144.915C267.914 144.555 267.802 144.279 267.579 144.088C267.36 143.892 267.044 143.794 266.629 143.794H264.25V145.92ZM264.25 142.796H266.205C266.67 142.796 267.028 142.709 267.278 142.536C267.529 142.358 267.654 142.108 267.654 141.784C267.654 141.488 267.524 141.26 267.265 141.101C267.005 140.941 266.633 140.861 266.15 140.861H264.25V142.796ZM21.1572 166.188V162.906H21.7861C21.9958 162.688 22.1689 162.453 22.3057 162.202C22.4424 161.951 22.554 161.623 22.6406 161.218C22.7318 160.812 22.807 160.272 22.8662 159.598L23.126 156.781H27.9795V162.906H29.1416V166.188H27.9795V164H22.3193V166.188H21.1572ZM23.126 162.906H26.8174V157.875H24.1855L24.0146 159.598C23.9417 160.34 23.8415 160.99 23.7139 161.546C23.5908 162.102 23.3949 162.555 23.126 162.906ZM36.2031 164H35.041V158.62H35.0205L31.3223 164H30.1602V156.781H31.3223V162.168H31.3428L35.041 156.781H36.2031V164ZM40.3457 164.109C39.7897 164.109 39.3021 164.014 38.8828 163.822C38.4681 163.626 38.1445 163.362 37.9121 163.029C37.6842 162.697 37.5658 162.321 37.5566 161.901H38.7119C38.7256 162.284 38.8805 162.585 39.1768 162.804C39.473 163.022 39.8558 163.132 40.3252 163.132C40.8128 163.132 41.207 163.025 41.5078 162.811C41.8132 162.592 41.9658 162.309 41.9658 161.963C41.9658 161.603 41.8086 161.311 41.4941 161.088C41.1797 160.86 40.749 160.746 40.2021 160.746H39.6553V159.823H40.2021C40.6579 159.823 41.027 159.721 41.3096 159.516C41.5921 159.306 41.7334 159.03 41.7334 158.688C41.7334 158.356 41.6058 158.089 41.3506 157.889C41.0954 157.684 40.7559 157.581 40.332 157.581C39.9128 157.581 39.5596 157.684 39.2725 157.889C38.9899 158.094 38.8441 158.379 38.835 158.743H37.7207C37.7298 158.328 37.8483 157.962 38.0762 157.643C38.304 157.324 38.6139 157.075 39.0059 156.897C39.4023 156.715 39.8467 156.624 40.3389 156.624C40.8402 156.624 41.2777 156.713 41.6514 156.891C42.0296 157.068 42.3236 157.308 42.5332 157.608C42.7474 157.909 42.8545 158.242 42.8545 158.606C42.8545 159.007 42.7314 159.354 42.4854 159.646C42.2393 159.937 41.8997 160.135 41.4668 160.24V160.254C41.9818 160.327 42.3851 160.525 42.6768 160.849C42.973 161.168 43.1211 161.553 43.1211 162.004C43.1211 162.405 43.0003 162.765 42.7588 163.084C42.5218 163.403 42.1937 163.654 41.7744 163.836C41.3551 164.018 40.8789 164.109 40.3457 164.109ZM46.6484 164.109C45.9329 164.109 45.3337 163.925 44.8506 163.556C44.3721 163.187 44.1328 162.642 44.1328 161.922C44.1328 161.507 44.2126 161.17 44.3721 160.91C44.5361 160.65 44.7526 160.448 45.0215 160.302C45.2949 160.151 45.6025 160.037 45.9443 159.96C46.2907 159.882 46.6439 159.821 47.0039 159.775C47.4642 159.712 47.8265 159.664 48.0908 159.632C48.3551 159.6 48.542 159.548 48.6514 159.475C48.7653 159.402 48.8223 159.274 48.8223 159.092V159.023C48.8223 158.632 48.681 158.308 48.3984 158.053C48.1204 157.798 47.7285 157.67 47.2227 157.67C46.7214 157.67 46.3089 157.793 45.9854 158.039C45.6663 158.281 45.4932 158.581 45.4658 158.941H44.2832C44.306 158.499 44.4427 158.107 44.6934 157.766C44.944 157.419 45.2858 157.146 45.7188 156.945C46.1517 156.745 46.653 156.645 47.2227 156.645C48.0658 156.645 48.7334 156.863 49.2256 157.301C49.7223 157.734 49.9707 158.308 49.9707 159.023V164H48.8223V162.975H48.7949C48.7083 163.148 48.5807 163.323 48.4121 163.501C48.2435 163.674 48.0156 163.82 47.7285 163.938C47.446 164.052 47.0859 164.109 46.6484 164.109ZM46.8125 163.07C47.2865 163.07 47.6715 162.986 47.9678 162.817C48.264 162.644 48.4805 162.421 48.6172 162.147C48.7539 161.874 48.8223 161.58 48.8223 161.266V160.363C48.7357 160.445 48.5055 160.521 48.1318 160.589C47.7581 160.653 47.3639 160.714 46.9492 160.773C46.6712 160.81 46.4069 160.874 46.1562 160.965C45.9102 161.051 45.7096 161.177 45.5547 161.341C45.3997 161.5 45.3223 161.717 45.3223 161.99C45.3223 162.327 45.4544 162.592 45.7188 162.783C45.9876 162.975 46.3522 163.07 46.8125 163.07ZM57.7363 164H56.5742V158.62H56.5537L52.8555 164H51.6934V156.781H52.8555V162.168H52.876L56.5742 156.781H57.7363V164ZM54.7148 155.729C54.3503 155.729 54.0199 155.644 53.7236 155.476C53.432 155.302 53.1995 155.072 53.0264 154.785C52.8532 154.493 52.7666 154.17 52.7666 153.814H53.6416C53.6416 154.129 53.7419 154.386 53.9424 154.587C54.1429 154.783 54.4004 154.881 54.7148 154.881C55.0293 154.881 55.2868 154.783 55.4873 154.587C55.6878 154.386 55.7881 154.129 55.7881 153.814H56.6631C56.6631 154.17 56.5765 154.493 56.4033 154.785C56.2301 155.072 55.9954 155.302 55.6992 155.476C55.4076 155.644 55.0794 155.729 54.7148 155.729ZM60.6211 156.781V159.844H64.3398V156.781H65.502V164H64.3398V160.938H60.6211V164H59.459V156.781H60.6211ZM71.5928 159.297V160.391H67.1357V159.297H71.5928ZM76.207 164.164C75.5417 164.164 74.9561 164.005 74.4502 163.686C73.9489 163.362 73.557 162.918 73.2744 162.353C72.9964 161.787 72.8574 161.138 72.8574 160.404C72.8574 159.666 72.9964 159.012 73.2744 158.442C73.557 157.873 73.9489 157.426 74.4502 157.103C74.9561 156.779 75.5417 156.617 76.207 156.617C76.7539 156.617 77.2438 156.727 77.6768 156.945C78.1097 157.16 78.4629 157.456 78.7363 157.834C79.0143 158.212 79.1852 158.645 79.249 159.133H78.0732C77.9867 158.709 77.7861 158.36 77.4717 158.087C77.1618 157.809 76.7402 157.67 76.207 157.67C75.528 157.67 74.9948 157.918 74.6074 158.415C74.2246 158.912 74.0332 159.575 74.0332 160.404C74.0332 161.225 74.2246 161.881 74.6074 162.373C74.9902 162.865 75.5234 163.111 76.207 163.111C76.7493 163.111 77.1641 162.979 77.4512 162.715C77.7383 162.446 77.9388 162.09 78.0527 161.648H79.249C79.1852 162.122 79.0143 162.551 78.7363 162.934C78.4629 163.312 78.1074 163.613 77.6699 163.836C77.237 164.055 76.7493 164.164 76.207 164.164ZM86.5977 164H85.4355V158.62H85.415L81.7168 164H80.5547V156.781H81.7168V162.168H81.7373L85.4355 156.781H86.5977V164ZM91.3008 164.164C90.6354 164.164 90.0498 164.005 89.5439 163.686C89.0426 163.362 88.6507 162.918 88.3682 162.353C88.0902 161.787 87.9512 161.138 87.9512 160.404C87.9512 159.666 88.0902 159.012 88.3682 158.442C88.6507 157.873 89.0426 157.426 89.5439 157.103C90.0498 156.779 90.6354 156.617 91.3008 156.617C91.8477 156.617 92.3376 156.727 92.7705 156.945C93.2035 157.16 93.5566 157.456 93.8301 157.834C94.1081 158.212 94.279 158.645 94.3428 159.133H93.167C93.0804 158.709 92.8799 158.36 92.5654 158.087C92.2555 157.809 91.834 157.67 91.3008 157.67C90.6217 157.67 90.0885 157.918 89.7012 158.415C89.3184 158.912 89.127 159.575 89.127 160.404C89.127 161.225 89.3184 161.881 89.7012 162.373C90.084 162.865 90.6172 163.111 91.3008 163.111C91.8431 163.111 92.2578 162.979 92.5449 162.715C92.832 162.446 93.0326 162.09 93.1465 161.648H94.3428C94.279 162.122 94.1081 162.551 93.8301 162.934C93.5566 163.312 93.2012 163.613 92.7637 163.836C92.3307 164.055 91.8431 164.164 91.3008 164.164ZM97.4121 164V157.834H94.8896V156.781H101.083V157.834H98.5742V164H97.4121ZM104.891 164.164C104.184 164.164 103.58 164.002 103.079 163.679C102.582 163.355 102.202 162.911 101.938 162.346C101.673 161.776 101.541 161.129 101.541 160.404C101.541 159.671 101.68 159.019 101.958 158.449C102.236 157.88 102.621 157.433 103.113 157.109C103.605 156.781 104.171 156.617 104.809 156.617C105.479 156.617 106.06 156.777 106.552 157.096C107.044 157.415 107.422 157.859 107.687 158.429C107.955 158.998 108.09 159.657 108.09 160.404V160.726H102.689C102.717 161.432 102.92 162.006 103.298 162.448C103.676 162.89 104.207 163.111 104.891 163.111C105.406 163.111 105.825 162.993 106.148 162.756C106.477 162.519 106.695 162.214 106.805 161.84H107.967C107.876 162.3 107.687 162.706 107.399 163.057C107.112 163.403 106.752 163.674 106.319 163.87C105.891 164.066 105.415 164.164 104.891 164.164ZM102.703 159.728H106.928C106.864 159.094 106.643 158.59 106.265 158.217C105.886 157.843 105.401 157.656 104.809 157.656C104.216 157.656 103.733 157.843 103.359 158.217C102.986 158.59 102.767 159.094 102.703 159.728ZM109.416 164V156.781H111.159L113.032 161.047C113.155 161.329 113.267 161.596 113.367 161.847C113.467 162.093 113.565 162.339 113.661 162.585C113.761 162.339 113.859 162.093 113.955 161.847C114.055 161.596 114.167 161.329 114.29 161.047L116.149 156.781H117.893V164H116.73V160.35C116.73 159.835 116.733 159.409 116.737 159.071C116.742 158.734 116.746 158.397 116.751 158.06C116.605 158.41 116.457 158.768 116.307 159.133C116.161 159.493 115.99 159.894 115.794 160.336L114.167 164H113.142L111.501 160.336C111.31 159.912 111.141 159.525 110.995 159.174C110.849 158.818 110.703 158.472 110.558 158.135C110.562 158.458 110.567 158.784 110.571 159.112C110.576 159.44 110.578 159.853 110.578 160.35V164H109.416ZM120.777 159.242H122.869C123.402 159.242 123.872 159.342 124.277 159.543C124.683 159.743 125 160.021 125.228 160.377C125.46 160.728 125.576 161.133 125.576 161.594C125.576 162.063 125.46 162.48 125.228 162.845C125 163.205 124.683 163.487 124.277 163.692C123.872 163.897 123.402 164 122.869 164H119.615V156.781H120.777V159.242ZM120.777 160.336V162.906H122.828C123.316 162.906 123.701 162.788 123.983 162.551C124.271 162.314 124.414 161.995 124.414 161.594C124.414 161.206 124.271 160.901 123.983 160.678C123.701 160.45 123.316 160.336 122.828 160.336H120.777ZM126.273 164V156.781H127.436V164H126.273ZM128.68 165.921L129.281 162.578H130.525L129.527 165.921H128.68ZM140.438 156.781V157.875H136.896V164H135.734V156.781H140.438ZM144.484 164.164C143.819 164.164 143.233 164.005 142.728 163.686C142.226 163.362 141.834 162.918 141.552 162.353C141.274 161.787 141.135 161.138 141.135 160.404C141.135 159.666 141.274 159.012 141.552 158.442C141.834 157.873 142.226 157.426 142.728 157.103C143.233 156.779 143.819 156.617 144.484 156.617C145.154 156.617 145.74 156.779 146.241 157.103C146.743 157.426 147.132 157.873 147.41 158.442C147.693 159.012 147.834 159.666 147.834 160.404C147.834 161.138 147.693 161.787 147.41 162.353C147.132 162.918 146.743 163.362 146.241 163.686C145.74 164.005 145.154 164.164 144.484 164.164ZM144.484 163.111C145.168 163.111 145.701 162.865 146.084 162.373C146.467 161.876 146.658 161.22 146.658 160.404C146.658 159.579 146.465 158.919 146.077 158.422C145.694 157.921 145.163 157.67 144.484 157.67C143.805 157.67 143.272 157.918 142.885 158.415C142.502 158.912 142.311 159.575 142.311 160.404C142.311 161.225 142.502 161.881 142.885 162.373C143.268 162.865 143.801 163.111 144.484 163.111ZM150.951 164V157.834H148.429V156.781H154.622V157.834H152.113V164H150.951ZM158.43 164.164C157.764 164.164 157.179 164.005 156.673 163.686C156.172 163.362 155.78 162.918 155.497 162.353C155.219 161.787 155.08 161.138 155.08 160.404C155.08 159.666 155.219 159.012 155.497 158.442C155.78 157.873 156.172 157.426 156.673 157.103C157.179 156.779 157.764 156.617 158.43 156.617C159.1 156.617 159.685 156.779 160.187 157.103C160.688 157.426 161.077 157.873 161.355 158.442C161.638 159.012 161.779 159.666 161.779 160.404C161.779 161.138 161.638 161.787 161.355 162.353C161.077 162.918 160.688 163.362 160.187 163.686C159.685 164.005 159.1 164.164 158.43 164.164ZM158.43 163.111C159.113 163.111 159.646 162.865 160.029 162.373C160.412 161.876 160.604 161.22 160.604 160.404C160.604 159.579 160.41 158.919 160.022 158.422C159.64 157.921 159.109 157.67 158.43 157.67C157.751 157.67 157.217 157.918 156.83 158.415C156.447 158.912 156.256 159.575 156.256 160.404C156.256 161.225 156.447 161.881 156.83 162.373C157.213 162.865 157.746 163.111 158.43 163.111ZM163.133 164V156.781H166.141C166.961 156.781 167.613 156.948 168.096 157.28C168.579 157.613 168.82 158.087 168.82 158.702C168.82 159.131 168.702 159.468 168.465 159.714C168.228 159.955 167.913 160.119 167.521 160.206C167.79 160.247 168.046 160.336 168.287 160.473C168.529 160.605 168.725 160.794 168.875 161.04C169.03 161.282 169.107 161.587 169.107 161.956C169.107 162.562 168.886 163.054 168.444 163.433C168.002 163.811 167.394 164 166.619 164H163.133ZM164.24 162.92H166.619C167.034 162.92 167.351 162.833 167.569 162.66C167.793 162.482 167.904 162.234 167.904 161.915C167.904 161.555 167.793 161.279 167.569 161.088C167.351 160.892 167.034 160.794 166.619 160.794H164.24V162.92ZM164.24 159.796H166.195C166.66 159.796 167.018 159.709 167.269 159.536C167.519 159.358 167.645 159.108 167.645 158.784C167.645 158.488 167.515 158.26 167.255 158.101C166.995 157.941 166.624 157.861 166.141 157.861H164.24V159.796ZM171.637 159.242H173.729C174.262 159.242 174.731 159.342 175.137 159.543C175.542 159.743 175.859 160.021 176.087 160.377C176.319 160.728 176.436 161.133 176.436 161.594C176.436 162.063 176.319 162.48 176.087 162.845C175.859 163.205 175.542 163.487 175.137 163.692C174.731 163.897 174.262 164 173.729 164H170.475V156.781H171.637V159.242ZM171.637 160.336V162.906H173.688C174.175 162.906 174.56 162.788 174.843 162.551C175.13 162.314 175.273 161.995 175.273 161.594C175.273 161.206 175.13 160.901 174.843 160.678C174.56 160.45 174.175 160.336 173.688 160.336H171.637ZM177.133 164V156.781H178.295V164H177.133ZM179.361 164L182.055 160.322L179.519 156.781H180.886L181.863 158.203C182.009 158.417 182.153 158.629 182.294 158.839C182.435 159.049 182.576 159.258 182.718 159.468C182.864 159.258 183.007 159.049 183.148 158.839C183.29 158.629 183.436 158.417 183.586 158.203L184.577 156.781H185.924L183.388 160.315L186.047 164H184.687L183.538 162.359C183.397 162.159 183.258 161.958 183.121 161.758C182.984 161.557 182.848 161.357 182.711 161.156C182.574 161.357 182.435 161.557 182.294 161.758C182.157 161.958 182.018 162.159 181.877 162.359L180.715 164H179.361ZM21.1572 183.188V179.906H21.7861C21.9958 179.688 22.1689 179.453 22.3057 179.202C22.4424 178.951 22.554 178.623 22.6406 178.218C22.7318 177.812 22.807 177.272 22.8662 176.598L23.126 173.781H27.9795V179.906H29.1416V183.188H27.9795V181H22.3193V183.188H21.1572ZM23.126 179.906H26.8174V174.875H24.1855L24.0146 176.598C23.9417 177.34 23.8415 177.99 23.7139 178.546C23.5908 179.102 23.3949 179.555 23.126 179.906ZM29.4014 181V179.906H29.6748C29.9072 179.906 30.0986 179.872 30.249 179.804C30.404 179.731 30.527 179.594 30.6182 179.394C30.7139 179.188 30.7868 178.892 30.8369 178.505C30.8916 178.113 30.9326 177.596 30.96 176.953L31.0967 173.781H36.1826V181H35.0205V174.875H32.2041L32.0811 177.391C32.04 178.225 31.9489 178.908 31.8076 179.441C31.6663 179.97 31.4362 180.362 31.1172 180.617C30.8027 180.872 30.363 181 29.7979 181H29.4014ZM43.5039 181H42.3418V178.286H40.3594C40.3366 178.286 40.3115 178.286 40.2842 178.286L38.5479 181H37.208L39.0947 178.122C38.0648 177.808 37.5498 177.119 37.5498 176.058C37.5498 175.324 37.7891 174.761 38.2676 174.369C38.7461 173.977 39.4274 173.781 40.3115 173.781H43.5039V181ZM42.3418 177.302V174.807H40.4072C39.8148 174.807 39.3796 174.907 39.1016 175.107C38.8281 175.308 38.6914 175.625 38.6914 176.058C38.6914 176.491 38.8327 176.807 39.1152 177.008C39.3978 177.204 39.8444 177.302 40.4551 177.302H42.3418ZM48.7266 183.857V173.781H49.8613V174.848H49.875C50.1074 174.442 50.4287 174.141 50.8389 173.945C51.249 173.745 51.6888 173.645 52.1582 173.645C52.7871 173.645 53.3363 173.802 53.8057 174.116C54.2751 174.431 54.6396 174.87 54.8994 175.436C55.1592 175.996 55.2891 176.648 55.2891 177.391C55.2891 178.129 55.1592 178.781 54.8994 179.346C54.6396 179.906 54.2751 180.346 53.8057 180.665C53.3363 180.979 52.7871 181.137 52.1582 181.137C51.6888 181.137 51.2604 181.036 50.873 180.836C50.4857 180.631 50.1621 180.321 49.9023 179.906H49.8887V183.857H48.7266ZM51.9805 180.091C52.6048 180.091 53.1152 179.863 53.5117 179.407C53.9128 178.947 54.1133 178.275 54.1133 177.391C54.1133 176.507 53.9128 175.834 53.5117 175.374C53.1152 174.914 52.6048 174.684 51.9805 174.684C51.3105 174.684 50.7773 174.932 50.3809 175.429C49.9889 175.921 49.793 176.575 49.793 177.391C49.793 178.206 49.9889 178.86 50.3809 179.353C50.7773 179.845 51.3105 180.091 51.9805 180.091ZM58.9121 181.109C58.1966 181.109 57.5973 180.925 57.1143 180.556C56.6357 180.187 56.3965 179.642 56.3965 178.922C56.3965 178.507 56.4762 178.17 56.6357 177.91C56.7998 177.65 57.0163 177.448 57.2852 177.302C57.5586 177.151 57.8662 177.037 58.208 176.96C58.5544 176.882 58.9076 176.821 59.2676 176.775C59.7279 176.712 60.0902 176.664 60.3545 176.632C60.6188 176.6 60.8057 176.548 60.915 176.475C61.029 176.402 61.0859 176.274 61.0859 176.092V176.023C61.0859 175.632 60.9447 175.308 60.6621 175.053C60.3841 174.798 59.9922 174.67 59.4863 174.67C58.985 174.67 58.5726 174.793 58.249 175.039C57.93 175.281 57.7568 175.581 57.7295 175.941H56.5469C56.5697 175.499 56.7064 175.107 56.957 174.766C57.2077 174.419 57.5495 174.146 57.9824 173.945C58.4154 173.745 58.9167 173.645 59.4863 173.645C60.3294 173.645 60.9971 173.863 61.4893 174.301C61.986 174.734 62.2344 175.308 62.2344 176.023V181H61.0859V179.975H61.0586C60.972 180.148 60.8444 180.323 60.6758 180.501C60.5072 180.674 60.2793 180.82 59.9922 180.938C59.7096 181.052 59.3496 181.109 58.9121 181.109ZM59.0762 180.07C59.5501 180.07 59.9352 179.986 60.2314 179.817C60.5277 179.644 60.7441 179.421 60.8809 179.147C61.0176 178.874 61.0859 178.58 61.0859 178.266V177.363C60.9993 177.445 60.7692 177.521 60.3955 177.589C60.0218 177.653 59.6276 177.714 59.2129 177.773C58.9349 177.81 58.6706 177.874 58.4199 177.965C58.1738 178.051 57.9733 178.177 57.8184 178.341C57.6634 178.5 57.5859 178.717 57.5859 178.99C57.5859 179.327 57.7181 179.592 57.9824 179.783C58.2513 179.975 58.6159 180.07 59.0762 180.07ZM66.377 181.109C65.821 181.109 65.3333 181.014 64.9141 180.822C64.4993 180.626 64.1758 180.362 63.9434 180.029C63.7155 179.697 63.597 179.321 63.5879 178.901H64.7432C64.7568 179.284 64.9118 179.585 65.208 179.804C65.5042 180.022 65.887 180.132 66.3564 180.132C66.8441 180.132 67.2383 180.025 67.5391 179.811C67.8444 179.592 67.9971 179.309 67.9971 178.963C67.9971 178.603 67.8398 178.311 67.5254 178.088C67.2109 177.86 66.7803 177.746 66.2334 177.746H65.6865V176.823H66.2334C66.6891 176.823 67.0583 176.721 67.3408 176.516C67.6234 176.306 67.7646 176.03 67.7646 175.688C67.7646 175.356 67.637 175.089 67.3818 174.889C67.1266 174.684 66.7871 174.581 66.3633 174.581C65.944 174.581 65.5908 174.684 65.3037 174.889C65.0212 175.094 64.8753 175.379 64.8662 175.743H63.752C63.7611 175.328 63.8796 174.962 64.1074 174.643C64.3353 174.324 64.6452 174.075 65.0371 173.897C65.4336 173.715 65.8779 173.624 66.3701 173.624C66.8714 173.624 67.3089 173.713 67.6826 173.891C68.0609 174.068 68.3548 174.308 68.5645 174.608C68.7786 174.909 68.8857 175.242 68.8857 175.606C68.8857 176.007 68.7627 176.354 68.5166 176.646C68.2705 176.937 67.931 177.135 67.498 177.24V177.254C68.013 177.327 68.4163 177.525 68.708 177.849C69.0042 178.168 69.1523 178.553 69.1523 179.004C69.1523 179.405 69.0316 179.765 68.79 180.084C68.5531 180.403 68.2249 180.654 67.8057 180.836C67.3864 181.018 66.9102 181.109 66.377 181.109ZM70.4785 183.857V173.781H71.6133V174.848H71.627C71.8594 174.442 72.1807 174.141 72.5908 173.945C73.001 173.745 73.4408 173.645 73.9102 173.645C74.5391 173.645 75.0882 173.802 75.5576 174.116C76.027 174.431 76.3916 174.87 76.6514 175.436C76.9111 175.996 77.041 176.648 77.041 177.391C77.041 178.129 76.9111 178.781 76.6514 179.346C76.3916 179.906 76.027 180.346 75.5576 180.665C75.0882 180.979 74.5391 181.137 73.9102 181.137C73.4408 181.137 73.0124 181.036 72.625 180.836C72.2376 180.631 71.9141 180.321 71.6543 179.906H71.6406V183.857H70.4785ZM73.7324 180.091C74.3568 180.091 74.8672 179.863 75.2637 179.407C75.6647 178.947 75.8652 178.275 75.8652 177.391C75.8652 176.507 75.6647 175.834 75.2637 175.374C74.8672 174.914 74.3568 174.684 73.7324 174.684C73.0625 174.684 72.5293 174.932 72.1328 175.429C71.7409 175.921 71.5449 176.575 71.5449 177.391C71.5449 178.206 71.7409 178.86 72.1328 179.353C72.5293 179.845 73.0625 180.091 73.7324 180.091ZM80.6641 181.109C79.9486 181.109 79.3493 180.925 78.8662 180.556C78.3877 180.187 78.1484 179.642 78.1484 178.922C78.1484 178.507 78.2282 178.17 78.3877 177.91C78.5518 177.65 78.7682 177.448 79.0371 177.302C79.3105 177.151 79.6182 177.037 79.96 176.96C80.3063 176.882 80.6595 176.821 81.0195 176.775C81.4798 176.712 81.8421 176.664 82.1064 176.632C82.3708 176.6 82.5576 176.548 82.667 176.475C82.7809 176.402 82.8379 176.274 82.8379 176.092V176.023C82.8379 175.632 82.6966 175.308 82.4141 175.053C82.1361 174.798 81.7441 174.67 81.2383 174.67C80.737 174.67 80.3245 174.793 80.001 175.039C79.682 175.281 79.5088 175.581 79.4814 175.941H78.2988C78.3216 175.499 78.4583 175.107 78.709 174.766C78.9596 174.419 79.3014 174.146 79.7344 173.945C80.1673 173.745 80.6686 173.645 81.2383 173.645C82.0814 173.645 82.749 173.863 83.2412 174.301C83.738 174.734 83.9863 175.308 83.9863 176.023V181H82.8379V179.975H82.8105C82.724 180.148 82.5964 180.323 82.4277 180.501C82.2591 180.674 82.0312 180.82 81.7441 180.938C81.4616 181.052 81.1016 181.109 80.6641 181.109ZM80.8281 180.07C81.3021 180.07 81.6872 179.986 81.9834 179.817C82.2796 179.644 82.4961 179.421 82.6328 179.147C82.7695 178.874 82.8379 178.58 82.8379 178.266V177.363C82.7513 177.445 82.5212 177.521 82.1475 177.589C81.7738 177.653 81.3796 177.714 80.9648 177.773C80.6868 177.81 80.4225 177.874 80.1719 177.965C79.9258 178.051 79.7253 178.177 79.5703 178.341C79.4154 178.5 79.3379 178.717 79.3379 178.99C79.3379 179.327 79.4701 179.592 79.7344 179.783C80.0033 179.975 80.3678 180.07 80.8281 180.07ZM91.3691 170.5L91.9707 171.211C91.7383 171.439 91.4694 171.598 91.1641 171.689C90.8587 171.776 90.5124 171.831 90.125 171.854C89.7422 171.872 89.3138 171.89 88.8398 171.908C88.0469 171.94 87.4544 172.216 87.0625 172.735C86.6751 173.255 86.4427 174.009 86.3652 174.998H86.4609C86.7161 174.52 87.0716 174.169 87.5273 173.945C87.9876 173.717 88.4798 173.604 89.0039 173.604C89.6009 173.604 90.1364 173.743 90.6104 174.021C91.0889 174.299 91.4671 174.711 91.7451 175.258C92.0231 175.805 92.1621 176.479 92.1621 177.281C92.1621 178.079 92.0208 178.769 91.7383 179.353C91.4557 179.931 91.0592 180.378 90.5488 180.692C90.043 181.007 89.4505 181.164 88.7715 181.164C87.7415 181.164 86.9121 180.799 86.2832 180.07C85.6543 179.341 85.3398 178.27 85.3398 176.857V176.051C85.349 172.619 86.5111 170.874 88.8262 170.814C88.972 170.81 89.1133 170.808 89.25 170.808C89.3867 170.808 89.5166 170.808 89.6396 170.808C90.0316 170.812 90.3688 170.803 90.6514 170.78C90.9385 170.753 91.1777 170.66 91.3691 170.5ZM88.7715 180.111C89.4596 180.107 89.9997 179.849 90.3916 179.339C90.7881 178.828 90.9863 178.143 90.9863 177.281C90.9863 176.447 90.7881 175.802 90.3916 175.347C89.9951 174.886 89.446 174.656 88.7441 174.656C88.0651 174.656 87.5273 174.886 87.1309 175.347C86.7344 175.802 86.5293 176.447 86.5156 177.281C86.5156 178.133 86.7161 178.817 87.1172 179.332C87.5182 179.847 88.0697 180.107 88.7715 180.111ZM96.4961 181.164C95.8307 181.164 95.2451 181.005 94.7393 180.686C94.238 180.362 93.846 179.918 93.5635 179.353C93.2855 178.787 93.1465 178.138 93.1465 177.404C93.1465 176.666 93.2855 176.012 93.5635 175.442C93.846 174.873 94.238 174.426 94.7393 174.103C95.2451 173.779 95.8307 173.617 96.4961 173.617C97.166 173.617 97.7516 173.779 98.2529 174.103C98.7542 174.426 99.1439 174.873 99.4219 175.442C99.7044 176.012 99.8457 176.666 99.8457 177.404C99.8457 178.138 99.7044 178.787 99.4219 179.353C99.1439 179.918 98.7542 180.362 98.2529 180.686C97.7516 181.005 97.166 181.164 96.4961 181.164ZM96.4961 180.111C97.1797 180.111 97.7129 179.865 98.0957 179.373C98.4785 178.876 98.6699 178.22 98.6699 177.404C98.6699 176.579 98.4762 175.919 98.0889 175.422C97.7061 174.921 97.1751 174.67 96.4961 174.67C95.8171 174.67 95.2839 174.918 94.8965 175.415C94.5137 175.912 94.3223 176.575 94.3223 177.404C94.3223 178.225 94.5137 178.881 94.8965 179.373C95.2793 179.865 95.8125 180.111 96.4961 180.111ZM102.963 181V174.834H100.44V173.781H106.634V174.834H104.125V181H102.963ZM107.598 181V173.781H108.76V176.898H109.539L112.308 173.781H113.791L110.715 177.268L113.832 181H112.355L109.84 177.992H108.76V181H107.598ZM120.709 181H119.547V175.62H119.526L115.828 181H114.666V173.781H115.828V179.168H115.849L119.547 173.781H120.709V181Z" fill="#2A2A2E"/>
<path d="M280.056 275.608V217.792C280.056 216.613 279.587 215.481 278.753 214.647C277.919 213.813 276.788 213.345 275.608 213.345C274.429 213.345 273.297 213.813 272.463 214.647C271.629 215.481 271.161 216.613 271.161 217.792V264.873L207.596 201.303C206.762 200.469 205.63 200 204.45 200C203.27 200 202.138 200.469 201.303 201.303C200.469 202.138 200 203.27 200 204.45C200 205.63 200.469 206.762 201.303 207.596L264.873 271.161H217.792C216.613 271.161 215.481 271.629 214.647 272.463C213.813 273.297 213.345 274.429 213.345 275.608C213.345 276.788 213.813 277.919 214.647 278.753C215.481 279.587 216.613 280.056 217.792 280.056H275.608C276.788 280.056 277.919 279.587 278.753 278.753C279.587 277.919 280.056 276.788 280.056 275.608Z" fill="#2A2A2E"/>
</svg>
