<svg width="300" height="300" viewBox="0 0 300 300" fill="none" xmlns="http://www.w3.org/2000/svg">
<rect width="300" height="300" rx="24" fill="#FF36C9"/>
<path d="M30.8438 249.281C29.625 249.281 28.5586 249.012 27.6445 248.473C26.7305 247.926 26.0156 247.168 25.5 246.199C24.9922 245.23 24.7383 244.105 24.7383 242.824C24.7383 241.543 24.9922 240.418 25.5 239.449C26.0156 238.473 26.7305 237.711 27.6445 237.164C28.5586 236.617 29.625 236.344 30.8438 236.344C32.0547 236.344 33.1172 236.617 34.0312 237.164C34.9531 237.711 35.668 238.473 36.1758 239.449C36.6914 240.418 36.9492 241.543 36.9492 242.824C36.9492 244.105 36.6914 245.23 36.1758 246.199C35.668 247.168 34.9531 247.926 34.0312 248.473C33.1172 249.012 32.0547 249.281 30.8438 249.281ZM30.8438 246.809C31.7891 246.809 32.543 246.453 33.1055 245.742C33.668 245.031 33.9492 244.059 33.9492 242.824C33.9492 241.59 33.668 240.613 33.1055 239.895C32.543 239.176 31.7891 238.816 30.8438 238.816C29.8906 238.816 29.1328 239.176 28.5703 239.895C28.0078 240.605 27.7266 241.582 27.7266 242.824C27.7266 244.059 28.0078 245.031 28.5703 245.742C29.1328 246.453 29.8906 246.809 30.8438 246.809ZM39 249V236.625H41.9531V246.445H47.2266V236.625H50.1914V249H39ZM48.9141 252.75V249H47.9531V246.316H51.9141L51.8203 252.75H48.9141ZM59.1797 249.281C57.9453 249.281 56.875 249.004 55.9688 248.449C55.0625 247.895 54.3633 247.133 53.8711 246.164C53.3867 245.188 53.1445 244.074 53.1445 242.824C53.1445 241.566 53.3945 240.453 53.8945 239.484C54.4023 238.508 55.1016 237.742 55.9922 237.188C56.8828 236.625 57.9062 236.344 59.0625 236.344C60.25 236.344 61.2891 236.617 62.1797 237.164C63.0703 237.711 63.7617 238.469 64.2539 239.438C64.7461 240.398 64.9922 241.512 64.9922 242.777V243.586H56.0391C56.0781 244.594 56.375 245.406 56.9297 246.023C57.4844 246.641 58.2578 246.949 59.25 246.949C59.9922 246.949 60.6055 246.789 61.0898 246.469C61.5742 246.141 61.9023 245.711 62.0742 245.18H64.8398C64.6836 245.984 64.3398 246.695 63.8086 247.312C63.2852 247.93 62.625 248.414 61.8281 248.766C61.0312 249.109 60.1484 249.281 59.1797 249.281ZM56.0625 241.547H62.1562C62.0625 240.664 61.7422 239.969 61.1953 239.461C60.6562 238.945 59.9609 238.688 59.1094 238.688C58.25 238.688 57.5508 238.945 57.0117 239.461C56.4805 239.969 56.1641 240.664 56.0625 241.547ZM69.9609 236.625V241.535H75.4219V236.625H78.3867V249H75.4219V244.078H69.9609V249H67.0078V236.625H69.9609ZM81 249V236.625H83.9531V241.652H85.0547L89.1562 236.625H92.7305L87.8438 242.648L92.7773 249H89.1914L85.4648 244.195H83.9531V249H81ZM97.7578 249.199C96.5234 249.199 95.5 248.891 94.6875 248.273C93.8828 247.648 93.4805 246.719 93.4805 245.484C93.4805 244.547 93.707 243.824 94.1602 243.316C94.6211 242.801 95.2188 242.426 95.9531 242.191C96.6953 241.957 97.4922 241.797 98.3438 241.711C99.4922 241.578 100.293 241.461 100.746 241.359C101.199 241.258 101.426 240.996 101.426 240.574V240.48C101.426 239.949 101.223 239.516 100.816 239.18C100.418 238.844 99.8672 238.676 99.1641 238.676C98.4453 238.676 97.8594 238.844 97.4062 239.18C96.9609 239.516 96.7188 239.945 96.6797 240.469H93.832C93.9023 239.242 94.4141 238.254 95.3672 237.504C96.3203 236.754 97.6055 236.379 99.2227 236.379C100.832 236.379 102.09 236.754 102.996 237.504C103.902 238.254 104.355 239.273 104.355 240.562V249H101.449V247.254H101.402C101.105 247.801 100.676 248.262 100.113 248.637C99.5508 249.012 98.7656 249.199 97.7578 249.199ZM98.4844 247.008C99.4531 247.008 100.188 246.758 100.688 246.258C101.188 245.75 101.438 245.137 101.438 244.418V243.082C101.258 243.199 100.91 243.309 100.395 243.41C99.8789 243.504 99.3164 243.598 98.707 243.691C98.0742 243.785 97.5234 243.965 97.0547 244.23C96.5938 244.488 96.3633 244.898 96.3633 245.461C96.3633 245.945 96.5547 246.324 96.9375 246.598C97.3203 246.871 97.8359 247.008 98.4844 247.008ZM118.277 253.465V249.281C117.012 249.266 115.895 248.984 114.926 248.438C113.957 247.883 113.199 247.121 112.652 246.152C112.105 245.184 111.832 244.074 111.832 242.824C111.832 241.566 112.105 240.453 112.652 239.484C113.199 238.516 113.957 237.754 114.926 237.199C115.895 236.645 117.012 236.359 118.277 236.344V231.539H121.242V236.344C122.508 236.359 123.625 236.645 124.594 237.199C125.57 237.754 126.332 238.516 126.879 239.484C127.426 240.453 127.699 241.566 127.699 242.824C127.699 244.074 127.426 245.184 126.879 246.152C126.332 247.121 125.57 247.883 124.594 248.438C123.625 248.984 122.508 249.266 121.242 249.281V253.465H118.277ZM121.242 246.773C122.289 246.773 123.125 246.418 123.75 245.707C124.375 244.988 124.688 244.027 124.688 242.824C124.688 241.621 124.375 240.66 123.75 239.941C123.125 239.215 122.289 238.852 121.242 238.852V246.773ZM118.277 246.773V238.852C117.238 238.852 116.406 239.215 115.781 239.941C115.164 240.66 114.855 241.621 114.855 242.824C114.855 244.027 115.164 244.988 115.781 245.707C116.406 246.418 117.238 246.773 118.277 246.773ZM129.527 253.898V251.496H130.992C131.391 251.496 131.699 251.387 131.918 251.168C132.145 250.957 132.344 250.609 132.516 250.125L132.973 248.93L128.203 236.625H131.332L133.605 243.07C133.762 243.531 133.914 243.992 134.062 244.453C134.211 244.906 134.355 245.359 134.496 245.812C134.777 244.906 135.074 243.992 135.387 243.07L137.648 236.625H140.742L135.211 251.039C134.477 252.945 133.227 253.898 131.461 253.898H129.527ZM145.219 236.625V241.535H150.68V236.625H153.645V249H150.68V244.078H145.219V249H142.266V236.625H145.219ZM156.258 249V236.625H159.211V241.652H160.312L164.414 236.625H167.988L163.102 242.648L168.035 249H164.449L160.723 244.195H159.211V249H156.258ZM169.242 249V236.625H172.195V246.445H177.469V236.625H180.434V249H169.242ZM179.156 252.75V249H178.195V246.316H182.156L182.062 252.75H179.156ZM195.34 249H192.41V240.949H192.387L186.598 249H183.961V236.625H186.891V244.652H186.914L192.656 236.625H195.34V249ZM209.332 249H206.402V240.949H206.379L200.59 249H197.953V236.625H200.883V244.652H200.906L206.648 236.625H209.332V249ZM36.5039 260.625V273H33.5391V263.18H28.2656V273H25.3125V260.625H36.5039ZM44.6484 273.281C43.4297 273.281 42.3633 273.012 41.4492 272.473C40.5352 271.926 39.8203 271.168 39.3047 270.199C38.7969 269.23 38.543 268.105 38.543 266.824C38.543 265.543 38.7969 264.418 39.3047 263.449C39.8203 262.473 40.5352 261.711 41.4492 261.164C42.3633 260.617 43.4297 260.344 44.6484 260.344C45.8594 260.344 46.9219 260.617 47.8359 261.164C48.7578 261.711 49.4727 262.473 49.9805 263.449C50.4961 264.418 50.7539 265.543 50.7539 266.824C50.7539 268.105 50.4961 269.23 49.9805 270.199C49.4727 271.168 48.7578 271.926 47.8359 272.473C46.9219 273.012 45.8594 273.281 44.6484 273.281ZM44.6484 270.809C45.5938 270.809 46.3477 270.453 46.9102 269.742C47.4727 269.031 47.7539 268.059 47.7539 266.824C47.7539 265.59 47.4727 264.613 46.9102 263.895C46.3477 263.176 45.5938 262.816 44.6484 262.816C43.6953 262.816 42.9375 263.176 42.375 263.895C41.8125 264.605 41.5312 265.582 41.5312 266.824C41.5312 268.059 41.8125 269.031 42.375 269.742C42.9375 270.453 43.6953 270.809 44.6484 270.809ZM51.6914 273V270.527H52.207C52.668 270.527 53.0273 270.418 53.2852 270.199C53.5508 269.98 53.7461 269.562 53.8711 268.945C53.9961 268.32 54.082 267.41 54.1289 266.215L54.3633 260.625H64.043V273H61.0781V263.086H57.1875L57 266.859C56.8984 269.023 56.5234 270.59 55.875 271.559C55.2344 272.52 54.2266 273 52.8516 273H51.6914ZM69.6328 264.68H72.5273C74.0273 264.68 75.2188 265.055 76.1016 265.805C76.9922 266.555 77.4375 267.559 77.4375 268.816C77.4375 270.082 76.9922 271.098 76.1016 271.863C75.2188 272.621 74.0273 273 72.5273 273H66.6797V260.625H69.6328V264.68ZM69.6328 267.117V270.539H72.4336C73.0898 270.539 73.6055 270.383 73.9805 270.07C74.3633 269.758 74.5547 269.332 74.5547 268.793C74.5547 268.27 74.3633 267.859 73.9805 267.562C73.6055 267.266 73.0898 267.117 72.4336 267.117H69.6328ZM83.9883 273.188C82.9258 273.188 82.0117 273.008 81.2461 272.648C80.4883 272.281 79.9023 271.793 79.4883 271.184C79.082 270.566 78.875 269.883 78.8672 269.133H81.75C81.7656 269.656 81.9766 270.07 82.3828 270.375C82.7891 270.68 83.3164 270.832 83.9648 270.832C84.6211 270.832 85.1523 270.688 85.5586 270.398C85.9727 270.102 86.1797 269.723 86.1797 269.262C86.1797 268.777 85.9609 268.383 85.5234 268.078C85.0859 267.773 84.4961 267.621 83.7539 267.621H82.7695V265.711H83.7539C84.3945 265.711 84.9141 265.566 85.3125 265.277C85.7109 264.988 85.9102 264.609 85.9102 264.141C85.9102 263.695 85.7344 263.332 85.3828 263.051C85.0312 262.77 84.5664 262.629 83.9883 262.629C83.4023 262.629 82.9141 262.77 82.5234 263.051C82.1328 263.332 81.9336 263.719 81.9258 264.211H79.125C79.1328 263.461 79.3438 262.797 79.7578 262.219C80.1719 261.641 80.7422 261.188 81.4688 260.859C82.2031 260.523 83.0469 260.355 84 260.355C84.9297 260.355 85.7461 260.512 86.4492 260.824C87.1602 261.129 87.7148 261.547 88.1133 262.078C88.5117 262.602 88.7109 263.195 88.7109 263.859C88.7109 264.562 88.4766 265.152 88.0078 265.629C87.5469 266.105 86.9375 266.406 86.1797 266.531V266.555C87.1406 266.664 87.8789 266.992 88.3945 267.539C88.9102 268.078 89.168 268.727 89.168 269.484C89.168 270.203 88.9453 270.84 88.5 271.395C88.0625 271.949 87.4531 272.387 86.6719 272.707C85.8906 273.027 84.9961 273.188 83.9883 273.188ZM96.6562 273.281C95.4375 273.281 94.3711 273.012 93.457 272.473C92.543 271.926 91.8281 271.168 91.3125 270.199C90.8047 269.23 90.5508 268.105 90.5508 266.824C90.5508 265.543 90.8047 264.418 91.3125 263.449C91.8281 262.473 92.543 261.711 93.457 261.164C94.3711 260.617 95.4375 260.344 96.6562 260.344C97.8672 260.344 98.9297 260.617 99.8438 261.164C100.766 261.711 101.48 262.473 101.988 263.449C102.504 264.418 102.762 265.543 102.762 266.824C102.762 268.105 102.504 269.23 101.988 270.199C101.48 271.168 100.766 271.926 99.8438 272.473C98.9297 273.012 97.8672 273.281 96.6562 273.281ZM96.6562 270.809C97.6016 270.809 98.3555 270.453 98.918 269.742C99.4805 269.031 99.7617 268.059 99.7617 266.824C99.7617 265.59 99.4805 264.613 98.918 263.895C98.3555 263.176 97.6016 262.816 96.6562 262.816C95.7031 262.816 94.9453 263.176 94.3828 263.895C93.8203 264.605 93.5391 265.582 93.5391 266.824C93.5391 268.059 93.8203 269.031 94.3828 269.742C94.9453 270.453 95.7031 270.809 96.6562 270.809ZM104.812 273V260.625H110.168C111.699 260.625 112.91 260.895 113.801 261.434C114.699 261.973 115.148 262.793 115.148 263.895C115.148 265.379 114.332 266.246 112.699 266.496C113.621 266.59 114.336 266.898 114.844 267.422C115.359 267.938 115.617 268.629 115.617 269.496C115.617 270.574 115.227 271.43 114.445 272.062C113.672 272.688 112.527 273 111.012 273H104.812ZM107.59 270.621H110.906C112.141 270.621 112.758 270.141 112.758 269.18C112.758 268.133 112.141 267.609 110.906 267.609H107.59V270.621ZM107.59 265.723H110.273C110.914 265.723 111.41 265.598 111.762 265.348C112.113 265.09 112.289 264.73 112.289 264.27C112.289 263.84 112.102 263.508 111.727 263.273C111.359 263.031 110.84 262.91 110.168 262.91H107.59V265.723ZM121.406 273.199C120.172 273.199 119.148 272.891 118.336 272.273C117.531 271.648 117.129 270.719 117.129 269.484C117.129 268.547 117.355 267.824 117.809 267.316C118.27 266.801 118.867 266.426 119.602 266.191C120.344 265.957 121.141 265.797 121.992 265.711C123.141 265.578 123.941 265.461 124.395 265.359C124.848 265.258 125.074 264.996 125.074 264.574V264.48C125.074 263.949 124.871 263.516 124.465 263.18C124.066 262.844 123.516 262.676 122.812 262.676C122.094 262.676 121.508 262.844 121.055 263.18C120.609 263.516 120.367 263.945 120.328 264.469H117.48C117.551 263.242 118.062 262.254 119.016 261.504C119.969 260.754 121.254 260.379 122.871 260.379C124.48 260.379 125.738 260.754 126.645 261.504C127.551 262.254 128.004 263.273 128.004 264.562V273H125.098V271.254H125.051C124.754 271.801 124.324 272.262 123.762 272.637C123.199 273.012 122.414 273.199 121.406 273.199ZM122.133 271.008C123.102 271.008 123.836 270.758 124.336 270.258C124.836 269.75 125.086 269.137 125.086 268.418V267.082C124.906 267.199 124.559 267.309 124.043 267.41C123.527 267.504 122.965 267.598 122.355 267.691C121.723 267.785 121.172 267.965 120.703 268.23C120.242 268.488 120.012 268.898 120.012 269.461C120.012 269.945 120.203 270.324 120.586 270.598C120.969 270.871 121.484 271.008 122.133 271.008ZM133.711 273V263.133H129.504V260.625H140.859V263.133H136.676V273H133.711ZM147.68 273.281C146.445 273.281 145.375 273.004 144.469 272.449C143.562 271.895 142.863 271.133 142.371 270.164C141.887 269.188 141.645 268.074 141.645 266.824C141.645 265.566 141.895 264.453 142.395 263.484C142.902 262.508 143.602 261.742 144.492 261.188C145.383 260.625 146.406 260.344 147.562 260.344C148.75 260.344 149.789 260.617 150.68 261.164C151.57 261.711 152.262 262.469 152.754 263.438C153.246 264.398 153.492 265.512 153.492 266.777V267.586H144.539C144.578 268.594 144.875 269.406 145.43 270.023C145.984 270.641 146.758 270.949 147.75 270.949C148.492 270.949 149.105 270.789 149.59 270.469C150.074 270.141 150.402 269.711 150.574 269.18H153.34C153.184 269.984 152.84 270.695 152.309 271.312C151.785 271.93 151.125 272.414 150.328 272.766C149.531 273.109 148.648 273.281 147.68 273.281ZM144.562 265.547H150.656C150.562 264.664 150.242 263.969 149.695 263.461C149.156 262.945 148.461 262.688 147.609 262.688C146.75 262.688 146.051 262.945 145.512 263.461C144.98 263.969 144.664 264.664 144.562 265.547ZM154.395 273V270.527H154.91C155.371 270.527 155.73 270.418 155.988 270.199C156.254 269.98 156.449 269.562 156.574 268.945C156.699 268.32 156.785 267.41 156.832 266.215L157.066 260.625H166.746V273H163.781V263.086H159.891L159.703 266.859C159.602 269.023 159.227 270.59 158.578 271.559C157.938 272.52 156.93 273 155.555 273H154.395ZM179.836 273H176.977V268.758H174.328L171.551 273H168.281L171.398 268.348C170.578 268.051 169.945 267.602 169.5 267C169.055 266.391 168.832 265.648 168.832 264.773C168.832 263.453 169.277 262.434 170.168 261.715C171.059 260.988 172.305 260.625 173.906 260.625H179.836V273ZM176.977 266.555V263.016H174.258C173.398 263.016 172.766 263.156 172.359 263.438C171.961 263.719 171.762 264.172 171.762 264.797C171.762 265.414 171.969 265.863 172.383 266.145C172.797 266.418 173.449 266.555 174.34 266.555H176.977ZM182.461 273V260.625H186.891L189.293 266.66C189.488 267.199 189.664 267.738 189.82 268.277C189.984 268.816 190.141 269.332 190.289 269.824C190.438 269.332 190.59 268.816 190.746 268.277C190.91 267.738 191.086 267.199 191.273 266.66L193.664 260.625H198.105V273H195.176V267.844C195.176 266.992 195.18 266.215 195.188 265.512C195.203 264.801 195.215 264.102 195.223 263.414C194.98 264.117 194.73 264.836 194.473 265.57C194.223 266.297 193.949 267.051 193.652 267.832L191.52 273H189.047L186.891 267.832C186.602 267.074 186.328 266.34 186.07 265.629C185.82 264.918 185.574 264.219 185.332 263.531C185.34 264.195 185.348 264.875 185.355 265.57C185.371 266.258 185.379 267.016 185.379 267.844V273H182.461ZM212.098 273H209.168V264.949H209.145L203.355 273H200.719V260.625H203.648V268.652H203.672L209.414 260.625H212.098V273Z" fill="white"/>
<rect x="27.6425" y="13" width="253.953" height="166.65" rx="22.9242" transform="rotate(5.38594 27.6425 13)" fill="white"/>
<path d="M38.586 130.669L40.3051 112.435L97.2896 45.8447L126.174 48.5679L119.456 119.82L134.396 121.229L132.669 139.54L117.729 138.131L115.411 162.725L93.269 160.637L95.5877 136.044L38.586 130.669ZM97.3141 117.732L101.908 69.0052L101.755 68.9908L63.0815 114.35L63.0671 114.504L97.3141 117.732ZM148.608 167.246C145.033 166.909 142.086 165.368 139.769 162.625C137.507 159.835 136.546 156.627 136.888 153C137.225 149.425 138.766 146.478 141.509 144.161C144.304 141.847 147.489 140.859 151.064 141.197C154.691 141.538 157.635 143.104 159.897 145.894C162.21 148.689 163.198 151.874 162.861 155.449C162.519 159.076 160.951 162.045 158.156 164.358C155.417 166.625 152.235 167.588 148.608 167.246ZM174.558 168.301L231.341 78.4256L231.356 78.2723L175.657 73.021L177.506 53.4075L256.956 60.8981L255.128 80.2817L198.462 170.555L174.558 168.301Z" fill="#FF36C9"/>
<g filter="url(#filter0_dddd_2311_2840)">
<rect x="214.95" y="153" width="75.4215" height="69.0566" rx="12" transform="rotate(14.2583 214.95 153)" fill="white"/>
<path d="M241.571 173.316L217.278 216.576L211.473 215.101L235.767 171.841L241.571 173.316ZM247.095 218.528C244.423 217.849 242.176 216.733 240.354 215.18C238.553 213.614 237.271 211.755 236.506 209.603C235.759 207.455 235.631 205.159 236.123 202.716L242.734 204.396C242.361 206.371 242.717 208.17 243.801 209.794C244.884 211.418 246.458 212.492 248.523 213.017C250.71 213.572 252.656 213.291 254.363 212.173C256.091 211.042 257.246 209.331 257.828 207.041C258.41 204.75 258.229 202.7 257.285 200.89C256.359 199.084 254.846 197.915 252.746 197.381C250.889 196.909 249.205 196.888 247.692 197.316C246.201 197.731 245.034 198.58 244.191 199.862L237.814 198.242L244.752 176.064L268.776 182.169L267.328 187.869L249.42 183.319L246.02 193.427L246.072 193.441C248.775 191.745 251.836 191.331 255.254 192.2C257.597 192.795 259.568 193.906 261.169 195.531C262.769 197.157 263.871 199.109 264.474 201.387C265.082 203.647 265.066 206.035 264.427 208.551C263.757 211.189 262.58 213.384 260.897 215.136C259.236 216.875 257.219 218.053 254.846 218.669C252.472 219.285 249.889 219.238 247.095 218.528Z" fill="#FF36C9"/>
</g>
<defs>
<filter id="filter0_dddd_2311_2840" x="183.942" y="141" width="105.106" height="99.5051" filterUnits="userSpaceOnUse" color-interpolation-filters="sRGB">
<feFlood flood-opacity="0" result="BackgroundImageFix"/>
<feColorMatrix in="SourceAlpha" type="matrix" values="0 0 0 0 0 0 0 0 0 0 0 0 0 0 0 0 0 0 127 0" result="hardAlpha"/>
<feOffset dx="-1"/>
<feGaussianBlur stdDeviation="1"/>
<feColorMatrix type="matrix" values="0 0 0 0 0.996078 0 0 0 0 0.203922 0 0 0 0 0.823529 0 0 0 0.1 0"/>
<feBlend mode="normal" in2="BackgroundImageFix" result="effect1_dropShadow_2311_2840"/>
<feColorMatrix in="SourceAlpha" type="matrix" values="0 0 0 0 0 0 0 0 0 0 0 0 0 0 0 0 0 0 127 0" result="hardAlpha"/>
<feOffset dx="-2" dy="-2"/>
<feGaussianBlur stdDeviation="1.5"/>
<feColorMatrix type="matrix" values="0 0 0 0 0.996078 0 0 0 0 0.203922 0 0 0 0 0.823529 0 0 0 0.09 0"/>
<feBlend mode="normal" in2="effect1_dropShadow_2311_2840" result="effect2_dropShadow_2311_2840"/>
<feColorMatrix in="SourceAlpha" type="matrix" values="0 0 0 0 0 0 0 0 0 0 0 0 0 0 0 0 0 0 127 0" result="hardAlpha"/>
<feOffset dx="-5" dy="-4"/>
<feGaussianBlur stdDeviation="2"/>
<feColorMatrix type="matrix" values="0 0 0 0 0.996078 0 0 0 0 0.203922 0 0 0 0 0.823529 0 0 0 0.05 0"/>
<feBlend mode="normal" in2="effect2_dropShadow_2311_2840" result="effect3_dropShadow_2311_2840"/>
<feColorMatrix in="SourceAlpha" type="matrix" values="0 0 0 0 0 0 0 0 0 0 0 0 0 0 0 0 0 0 127 0" result="hardAlpha"/>
<feOffset dx="-9" dy="-7"/>
<feGaussianBlur stdDeviation="2.5"/>
<feColorMatrix type="matrix" values="0 0 0 0 0.996078 0 0 0 0 0.203922 0 0 0 0 0.823529 0 0 0 0.01 0"/>
<feBlend mode="normal" in2="effect3_dropShadow_2311_2840" result="effect4_dropShadow_2311_2840"/>
<feBlend mode="normal" in="SourceGraphic" in2="effect4_dropShadow_2311_2840" result="shape"/>
</filter>
</defs>
</svg>
