<svg width="300" height="300" viewBox="0 0 300 300" fill="none" xmlns="http://www.w3.org/2000/svg">
<path d="M0 24C0 10.7452 10.7452 0 24 0H276C289.255 0 300 10.7452 300 24V276C300 289.255 289.255 300 276 300H24C10.7452 300 0 289.255 0 276V24Z" fill="white"/>
<path d="M30.7148 249.281C29.5352 249.281 28.5 249.008 27.6094 248.461C26.7188 247.914 26.0234 247.156 25.5234 246.188C25.0312 245.219 24.7852 244.102 24.7852 242.836C24.7852 241.555 25.0312 240.43 25.5234 239.461C26.0234 238.484 26.7188 237.723 27.6094 237.176C28.5 236.621 29.5352 236.344 30.7148 236.344C31.8945 236.344 32.9258 236.621 33.8086 237.176C34.6992 237.723 35.3906 238.484 35.8828 239.461C36.3828 240.43 36.6328 241.555 36.6328 242.836C36.6328 244.102 36.3828 245.219 35.8828 246.188C35.3906 247.156 34.6992 247.914 33.8086 248.461C32.9258 249.008 31.8945 249.281 30.7148 249.281ZM30.7148 247.148C31.7773 247.148 32.6133 246.758 33.2227 245.977C33.832 245.195 34.1367 244.148 34.1367 242.836C34.1367 241.508 33.8281 240.449 33.2109 239.66C32.6016 238.871 31.7695 238.477 30.7148 238.477C29.6602 238.477 28.8242 238.871 28.207 239.66C27.5977 240.441 27.293 241.5 27.293 242.836C27.293 244.156 27.5977 245.207 28.207 245.988C28.8164 246.762 29.6523 247.148 30.7148 247.148ZM37.1953 249L42.293 242.707L37.2539 236.625H40.1484L44.2734 241.758H45.1641V236.625H47.6367V241.758H48.5156L52.6172 236.625H55.5352L50.5078 242.707L55.5938 249H52.6289L48.4922 243.914H47.6367V249H45.1641V243.914H44.3086L40.1602 249H37.1953ZM68.1328 249H65.6719V240.363H65.6484L59.5898 249H57.2695V236.625H59.7305V245.262H59.7539L65.8008 236.625H68.1328V249ZM69.7969 252.773V246.785H70.8516C71.2109 246.457 71.5039 246.07 71.7305 245.625C71.957 245.172 72.1406 244.602 72.2812 243.914C72.4219 243.227 72.5391 242.355 72.6328 241.301L73.043 236.625H81.8789V246.785H83.8828V252.773H81.457V249H72.2578V252.773H69.7969ZM73.5469 246.785H79.4648V238.816H75.2344L74.9883 241.301C74.8789 242.551 74.7188 243.633 74.5078 244.547C74.3047 245.461 73.9844 246.207 73.5469 246.785ZM89.3555 249.199C88.1211 249.199 87.0977 248.887 86.2852 248.262C85.4727 247.629 85.0664 246.695 85.0664 245.461C85.0664 244.523 85.2969 243.805 85.7578 243.305C86.2266 242.797 86.832 242.434 87.5742 242.215C88.3242 241.996 89.1172 241.836 89.9531 241.734C90.7266 241.641 91.3398 241.562 91.793 241.5C92.2461 241.438 92.5664 241.344 92.7539 241.219C92.9492 241.094 93.0469 240.879 93.0469 240.574V240.469C93.0469 239.867 92.8281 239.375 92.3906 238.992C91.9531 238.602 91.3398 238.406 90.5508 238.406C89.7617 238.406 89.1172 238.598 88.6172 238.98C88.1172 239.355 87.8438 239.828 87.7969 240.398H85.3711C85.4258 239.219 85.9219 238.254 86.8594 237.504C87.7969 236.754 89.0391 236.379 90.5859 236.379C92.1094 236.379 93.3086 236.754 94.1836 237.504C95.0586 238.254 95.4961 239.258 95.4961 240.516V249H93.0586V247.242H93.0117C92.7539 247.742 92.3438 248.195 91.7812 248.602C91.2266 249 90.418 249.199 89.3555 249.199ZM89.8594 247.207C90.9531 247.207 91.7578 246.926 92.2734 246.363C92.7969 245.793 93.0586 245.129 93.0586 244.371V242.918C92.8945 243.051 92.5234 243.172 91.9453 243.281C91.3672 243.383 90.75 243.48 90.0938 243.574C89.4141 243.676 88.8164 243.867 88.3008 244.148C87.7852 244.43 87.5273 244.883 87.5273 245.508C87.5273 246.039 87.7344 246.457 88.1484 246.762C88.5703 247.059 89.1406 247.207 89.8594 247.207ZM103.57 249.281C102.344 249.281 101.289 249.004 100.406 248.449C99.5312 247.895 98.8555 247.133 98.3789 246.164C97.9102 245.188 97.6758 244.078 97.6758 242.836C97.6758 241.578 97.9219 240.461 98.4141 239.484C98.9062 238.508 99.5859 237.742 100.453 237.188C101.32 236.625 102.316 236.344 103.441 236.344C104.613 236.344 105.629 236.617 106.488 237.164C107.355 237.711 108.027 238.473 108.504 239.449C108.98 240.418 109.219 241.539 109.219 242.812V243.48H100.113C100.16 244.598 100.48 245.5 101.074 246.188C101.676 246.875 102.52 247.219 103.605 247.219C104.418 247.219 105.086 247.035 105.609 246.668C106.133 246.301 106.48 245.824 106.652 245.238H109.031C108.883 246.035 108.551 246.738 108.035 247.348C107.527 247.957 106.887 248.434 106.113 248.777C105.348 249.113 104.5 249.281 103.57 249.281ZM100.137 241.605H106.805C106.703 240.621 106.355 239.844 105.762 239.273C105.168 238.695 104.402 238.406 103.465 238.406C102.527 238.406 101.762 238.695 101.168 239.273C100.582 239.844 100.238 240.621 100.137 241.605ZM111.363 249V236.625H115.078L117.879 243.293C118.082 243.809 118.266 244.312 118.43 244.805C118.594 245.289 118.758 245.758 118.922 246.211C119.078 245.758 119.238 245.289 119.402 244.805C119.566 244.312 119.75 243.809 119.953 243.293L122.73 236.625H126.445V249H123.996V243.293C123.996 242.426 124 241.672 124.008 241.031C124.016 240.383 124.023 239.742 124.031 239.109C123.781 239.766 123.527 240.434 123.27 241.113C123.02 241.785 122.738 242.508 122.426 243.281L119.965 249H117.844L115.371 243.281C115.059 242.531 114.773 241.828 114.516 241.172C114.266 240.508 114.02 239.859 113.777 239.227C113.785 239.836 113.793 240.457 113.801 241.09C113.809 241.715 113.812 242.449 113.812 243.293V249H111.363ZM131.719 240.762H134.965C136.395 240.762 137.547 241.137 138.422 241.887C139.297 242.637 139.734 243.621 139.734 244.84C139.734 246.082 139.297 247.086 138.422 247.852C137.547 248.617 136.395 249 134.965 249H129.246V236.625H131.719V240.762ZM131.719 242.918V246.832H134.871C135.621 246.832 136.211 246.652 136.641 246.293C137.078 245.934 137.297 245.449 137.297 244.84C137.297 244.246 137.078 243.777 136.641 243.434C136.211 243.09 135.621 242.918 134.871 242.918H131.719ZM140.812 249V236.625H143.285V249H140.812ZM156.938 249H154.477V240.363H154.453L148.395 249H146.074V236.625H148.535V245.262H148.559L154.605 236.625H156.938V249ZM151.5 234.914C150.836 234.914 150.234 234.766 149.695 234.469C149.156 234.164 148.727 233.758 148.406 233.25C148.094 232.734 147.938 232.156 147.938 231.516H149.637C149.637 232.047 149.809 232.48 150.152 232.816C150.504 233.152 150.953 233.32 151.5 233.32C152.047 233.32 152.496 233.152 152.848 232.816C153.199 232.48 153.375 232.047 153.375 231.516H155.074C155.074 232.156 154.914 232.734 154.594 233.25C154.281 233.758 153.855 234.164 153.316 234.469C152.777 234.766 152.172 234.914 151.5 234.914ZM165.457 253.898V236.625H167.883V238.406H167.918C168.309 237.727 168.844 237.219 169.523 236.883C170.203 236.547 170.945 236.379 171.75 236.379C172.812 236.379 173.746 236.652 174.551 237.199C175.355 237.738 175.98 238.492 176.426 239.461C176.879 240.422 177.105 241.539 177.105 242.812C177.105 244.086 176.883 245.207 176.438 246.176C175.992 247.137 175.367 247.891 174.562 248.438C173.758 248.977 172.816 249.246 171.738 249.246C170.934 249.246 170.207 249.07 169.559 248.719C168.91 248.367 168.379 247.84 167.965 247.137H167.93V253.898H165.457ZM171.234 247.113C172.234 247.113 173.043 246.746 173.66 246.012C174.285 245.277 174.598 244.211 174.598 242.812C174.598 241.414 174.285 240.348 173.66 239.613C173.043 238.871 172.234 238.5 171.234 238.5C170.18 238.5 169.336 238.895 168.703 239.684C168.078 240.465 167.766 241.508 167.766 242.812C167.766 244.109 168.078 245.152 168.703 245.941C169.336 246.723 170.18 247.113 171.234 247.113ZM184.605 249.281C183.426 249.281 182.391 249.008 181.5 248.461C180.609 247.914 179.914 247.156 179.414 246.188C178.922 245.219 178.676 244.102 178.676 242.836C178.676 241.555 178.922 240.43 179.414 239.461C179.914 238.484 180.609 237.723 181.5 237.176C182.391 236.621 183.426 236.344 184.605 236.344C185.785 236.344 186.816 236.621 187.699 237.176C188.59 237.723 189.281 238.484 189.773 239.461C190.273 240.43 190.523 241.555 190.523 242.836C190.523 244.102 190.273 245.219 189.773 246.188C189.281 247.156 188.59 247.914 187.699 248.461C186.816 249.008 185.785 249.281 184.605 249.281ZM184.605 247.148C185.668 247.148 186.504 246.758 187.113 245.977C187.723 245.195 188.027 244.148 188.027 242.836C188.027 241.508 187.719 240.449 187.102 239.66C186.492 238.871 185.66 238.477 184.605 238.477C183.551 238.477 182.715 238.871 182.098 239.66C181.488 240.441 181.184 241.5 181.184 242.836C181.184 244.156 181.488 245.207 182.098 245.988C182.707 246.762 183.543 247.148 184.605 247.148ZM198.012 249.281C196.832 249.281 195.797 249.008 194.906 248.461C194.023 247.914 193.336 247.156 192.844 246.188C192.352 245.211 192.105 244.094 192.105 242.836C192.105 241.562 192.352 240.438 192.844 239.461C193.344 238.484 194.035 237.723 194.918 237.176C195.801 236.621 196.832 236.344 198.012 236.344C198.996 236.344 199.875 236.539 200.648 236.93C201.43 237.312 202.062 237.844 202.547 238.523C203.031 239.203 203.324 239.98 203.426 240.855H200.965C200.84 240.16 200.527 239.59 200.027 239.145C199.527 238.699 198.859 238.477 198.023 238.477C196.953 238.477 196.117 238.871 195.516 239.66C194.914 240.449 194.613 241.508 194.613 242.836C194.613 244.148 194.914 245.195 195.516 245.977C196.117 246.758 196.953 247.148 198.023 247.148C198.875 247.148 199.531 246.934 199.992 246.504C200.453 246.066 200.766 245.484 200.93 244.758H203.426C203.332 245.617 203.043 246.391 202.559 247.078C202.074 247.758 201.441 248.297 200.66 248.695C199.879 249.086 198.996 249.281 198.012 249.281ZM208.594 249V238.781H204.328V236.625H215.32V238.781H211.066V249H208.594ZM25.5938 273V255.539H32.2383C34.1055 255.539 35.5859 256.027 36.6797 257.004C37.7734 257.98 38.3203 259.305 38.3203 260.977C38.3203 262.195 38.0078 263.234 37.3828 264.094C36.7578 264.945 35.9023 265.566 34.8164 265.957L38.5898 273H35.6602L32.1797 266.391C32.1406 266.391 32.1016 266.391 32.0625 266.391H28.1953V273H25.5938ZM28.1953 264.176H32.1328C33.2578 264.176 34.1406 263.891 34.7812 263.32C35.4297 262.742 35.7539 261.961 35.7539 260.977C35.7539 259.992 35.4297 259.215 34.7812 258.645C34.1328 258.074 33.2461 257.789 32.1211 257.789H28.1953V264.176ZM45.4922 273.281C44.2656 273.281 43.2109 273.004 42.3281 272.449C41.4531 271.895 40.7773 271.133 40.3008 270.164C39.832 269.188 39.5977 268.078 39.5977 266.836C39.5977 265.578 39.8438 264.461 40.3359 263.484C40.8281 262.508 41.5078 261.742 42.375 261.188C43.2422 260.625 44.2383 260.344 45.3633 260.344C46.5352 260.344 47.5508 260.617 48.4102 261.164C49.2773 261.711 49.9492 262.473 50.4258 263.449C50.9023 264.418 51.1406 265.539 51.1406 266.812V267.48H42.0352C42.082 268.598 42.4023 269.5 42.9961 270.188C43.5977 270.875 44.4414 271.219 45.5273 271.219C46.3398 271.219 47.0078 271.035 47.5312 270.668C48.0547 270.301 48.4023 269.824 48.5742 269.238H50.9531C50.8047 270.035 50.4727 270.738 49.957 271.348C49.4492 271.957 48.8086 272.434 48.0352 272.777C47.2695 273.113 46.4219 273.281 45.4922 273.281ZM42.0586 265.605H48.7266C48.625 264.621 48.2773 263.844 47.6836 263.273C47.0898 262.695 46.3242 262.406 45.3867 262.406C44.4492 262.406 43.6836 262.695 43.0898 263.273C42.5039 263.844 42.1602 264.621 42.0586 265.605ZM59.25 260.625V262.664H56.7422V269.73C56.7422 270.191 56.8359 270.512 57.0234 270.691C57.2109 270.871 57.5508 270.961 58.043 270.961H59.25V273H57.6914C55.4023 273 54.2578 272.016 54.2578 270.047V262.664H52.0781V260.625H54.2578V257.25H56.7422V260.625H59.25ZM66.2812 273.281C65.0547 273.281 64 273.004 63.1172 272.449C62.2422 271.895 61.5664 271.133 61.0898 270.164C60.6211 269.188 60.3867 268.078 60.3867 266.836C60.3867 265.578 60.6328 264.461 61.125 263.484C61.6172 262.508 62.2969 261.742 63.1641 261.188C64.0312 260.625 65.0273 260.344 66.1523 260.344C67.3242 260.344 68.3398 260.617 69.1992 261.164C70.0664 261.711 70.7383 262.473 71.2148 263.449C71.6914 264.418 71.9297 265.539 71.9297 266.812V267.48H62.8242C62.8711 268.598 63.1914 269.5 63.7852 270.188C64.3867 270.875 65.2305 271.219 66.3164 271.219C67.1289 271.219 67.7969 271.035 68.3203 270.668C68.8438 270.301 69.1914 269.824 69.3633 269.238H71.7422C71.5938 270.035 71.2617 270.738 70.7461 271.348C70.2383 271.957 69.5977 272.434 68.8242 272.777C68.0586 273.113 67.2109 273.281 66.2812 273.281ZM62.8477 265.605H69.5156C69.4141 264.621 69.0664 263.844 68.4727 263.273C67.8789 262.695 67.1133 262.406 66.1758 262.406C65.2383 262.406 64.4727 262.695 63.8789 263.273C63.293 263.844 62.9492 264.621 62.8477 265.605ZM76.5469 265.875V273H74.0742V260.625H76.5V262.488C77.3438 261.082 78.5898 260.379 80.2383 260.379C81.0898 260.379 81.8516 260.566 82.5234 260.941C83.2031 261.309 83.7383 261.855 84.1289 262.582C84.5195 263.309 84.7148 264.211 84.7148 265.289V273H82.2422V265.594C82.2422 264.602 82.0039 263.855 81.5273 263.355C81.0508 262.848 80.3867 262.594 79.5352 262.594C78.6914 262.594 77.9805 262.855 77.4023 263.379C76.832 263.895 76.5469 264.727 76.5469 265.875ZM93.4688 260.625V262.664H90.9609V269.73C90.9609 270.191 91.0547 270.512 91.2422 270.691C91.4297 270.871 91.7695 270.961 92.2617 270.961H93.4688V273H91.9102C89.6211 273 88.4766 272.016 88.4766 270.047V262.664H86.2969V260.625H88.4766V257.25H90.9609V260.625H93.4688ZM95.4258 273V260.625H97.8984V273H95.4258ZM96.6562 258.492C96.2188 258.492 95.8477 258.348 95.543 258.059C95.2461 257.762 95.0977 257.402 95.0977 256.98C95.0977 256.551 95.2461 256.191 95.543 255.902C95.8477 255.605 96.2188 255.457 96.6562 255.457C97.0938 255.457 97.4648 255.605 97.7695 255.902C98.0742 256.191 98.2266 256.551 98.2266 256.98C98.2266 257.402 98.0742 257.762 97.7695 258.059C97.4648 258.348 97.0938 258.492 96.6562 258.492ZM106.02 273.281C104.84 273.281 103.805 273.008 102.914 272.461C102.023 271.914 101.328 271.156 100.828 270.188C100.336 269.219 100.09 268.102 100.09 266.836C100.09 265.555 100.336 264.43 100.828 263.461C101.328 262.484 102.023 261.723 102.914 261.176C103.805 260.621 104.84 260.344 106.02 260.344C107.199 260.344 108.23 260.621 109.113 261.176C110.004 261.723 110.695 262.484 111.188 263.461C111.688 264.43 111.938 265.555 111.938 266.836C111.938 268.102 111.688 269.219 111.188 270.188C110.695 271.156 110.004 271.914 109.113 272.461C108.23 273.008 107.199 273.281 106.02 273.281ZM106.02 271.148C107.082 271.148 107.918 270.758 108.527 269.977C109.137 269.195 109.441 268.148 109.441 266.836C109.441 265.508 109.133 264.449 108.516 263.66C107.906 262.871 107.074 262.477 106.02 262.477C104.965 262.477 104.129 262.871 103.512 263.66C102.902 264.441 102.598 265.5 102.598 266.836C102.598 268.156 102.902 269.207 103.512 269.988C104.121 270.762 104.957 271.148 106.02 271.148ZM116.602 265.875V273H114.129V260.625H116.555V262.488C117.398 261.082 118.645 260.379 120.293 260.379C121.145 260.379 121.906 260.566 122.578 260.941C123.258 261.309 123.793 261.855 124.184 262.582C124.574 263.309 124.77 264.211 124.77 265.289V273H122.297V265.594C122.297 264.602 122.059 263.855 121.582 263.355C121.105 262.848 120.441 262.594 119.59 262.594C118.746 262.594 118.035 262.855 117.457 263.379C116.887 263.895 116.602 264.727 116.602 265.875Z" fill="#FF36C9"/>
<path d="M26.7125 150V131.037L72.5249 91.8534C78.0627 86.9868 82.6496 82.4839 86.2855 78.3446C89.9214 74.1493 91.7393 69.1149 91.7393 63.2415C91.7393 57.2563 89.9214 52.5016 86.2855 48.9776C82.6496 45.3976 77.7551 43.6076 71.602 43.6076C64.8895 43.6076 59.6035 45.7612 55.7438 50.0684C51.8841 54.3755 49.9543 60.3328 49.9543 67.9403H26.209C26.209 58.8785 28.0549 50.9913 31.7468 44.2789C35.4946 37.5105 40.7527 32.2804 47.5211 28.5885C54.2894 24.8407 62.3164 22.9668 71.602 22.9668C80.1604 22.9668 87.7678 24.589 94.4243 27.8334C101.081 31.0218 106.283 35.5247 110.031 41.3422C113.834 47.1596 115.736 54.0119 115.736 61.8991C115.736 67.7165 114.646 73.0305 112.464 77.8411C110.282 82.6517 107.122 87.3225 102.983 91.8534C98.8993 96.3283 93.9489 101.055 88.1314 106.033L61.6172 129.107V129.275H116.324V150H26.7125ZM172.252 152.014C156.645 152.014 144.535 146.644 135.921 135.904C127.306 125.164 122.999 110.089 122.999 90.6787C122.999 76.9741 124.901 65.0595 128.705 54.9349C132.564 44.7543 138.214 36.8952 145.654 31.3574C153.149 25.7637 162.351 22.9668 173.259 22.9668C181.593 22.9668 188.893 24.5331 195.158 27.6655C201.479 30.798 206.541 35.0772 210.345 40.5031C214.149 45.929 216.414 52.0821 217.141 58.9624H192.977C192.082 54.0958 189.9 50.2082 186.432 47.2995C182.964 44.3907 178.489 42.9364 173.007 42.9364C164.057 42.9364 157.429 46.5164 153.121 53.6763C148.87 60.8363 146.745 70.2617 146.745 81.9525H146.912C149.989 77.1979 154.1 73.5619 159.246 71.0448C164.393 68.5276 170.21 67.269 176.699 67.269C184.754 67.269 191.914 69.087 198.179 72.7229C204.5 76.3029 209.45 81.2533 213.03 87.5742C216.666 93.8391 218.484 100.999 218.484 109.054C218.484 117.556 216.498 125.052 212.527 131.541C208.611 137.974 203.157 143.008 196.165 146.644C189.229 150.224 181.258 152.014 172.252 152.014ZM172.084 131.709C176.223 131.709 179.943 130.73 183.243 128.772C186.544 126.758 189.145 124.045 191.047 120.633C193.005 117.221 193.983 113.361 193.983 109.054C193.983 102.677 191.914 97.3632 187.774 93.112C183.635 88.8048 178.489 86.6512 172.336 86.6512C168.196 86.6512 164.449 87.6581 161.092 89.6718C157.792 91.6296 155.163 94.3146 153.205 97.7268C151.303 101.083 150.352 104.887 150.352 109.138C150.352 113.389 151.303 117.221 153.205 120.633C155.107 124.045 157.708 126.758 161.008 128.772C164.309 130.73 168.001 131.709 172.084 131.709Z" fill="#FF36C9"/>
<rect x="208" y="140.582" width="58.9927" height="52.2884" rx="13.7327" transform="rotate(-11.1397 208 140.582)" fill="#FF36C9"/>
<path d="M255.606 175.691C254.119 175.984 252.756 175.894 251.516 175.422C250.276 174.949 249.223 174.169 248.356 173.082C247.504 171.992 246.926 170.672 246.621 169.124L246.485 168.434C246.18 166.886 246.215 165.446 246.59 164.114C246.98 162.779 247.659 161.658 248.627 160.751C249.595 159.843 250.823 159.243 252.31 158.95C253.781 158.661 255.137 158.752 256.377 159.225C257.616 159.697 258.662 160.479 259.514 161.569C260.381 162.656 260.967 163.974 261.272 165.522L261.408 166.212C261.712 167.761 261.67 169.202 261.28 170.537C260.905 171.869 260.234 172.989 259.266 173.896C258.298 174.803 257.078 175.402 255.606 175.691ZM231.495 161.09C230.023 161.38 228.66 161.29 227.405 160.821C226.165 160.348 225.12 159.567 224.268 158.476C223.416 157.386 222.838 156.067 222.533 154.518L222.397 153.828C222.092 152.28 222.127 150.84 222.502 149.508C222.877 148.176 223.548 147.057 224.516 146.149C225.499 145.239 226.727 144.639 228.199 144.349C229.686 144.056 231.049 144.146 232.289 144.619C233.528 145.091 234.574 145.873 235.426 146.963C236.277 148.054 236.856 149.373 237.161 150.921L237.296 151.611C237.601 153.16 237.566 154.6 237.192 155.932C236.817 157.263 236.146 158.383 235.178 159.29C234.21 160.197 232.982 160.798 231.495 161.09ZM231.26 179.912L248.061 141.012L252.407 140.156L235.606 179.056L231.26 179.912ZM254.936 172.288C255.979 172.083 256.728 171.521 257.184 170.603C257.637 169.67 257.719 168.467 257.429 166.996L257.293 166.306C257.004 164.834 256.472 163.752 255.699 163.061C254.926 162.369 254.018 162.126 252.975 162.331C251.918 162.539 251.154 163.111 250.686 164.048C250.233 164.981 250.151 166.184 250.441 167.655L250.576 168.345C250.866 169.817 251.398 170.899 252.171 171.59C252.957 172.264 253.878 172.496 254.936 172.288ZM230.829 157.71C231.887 157.502 232.643 156.931 233.096 155.998C233.549 155.064 233.631 153.862 233.341 152.39L233.205 151.7C232.915 150.228 232.384 149.147 231.611 148.455C230.837 147.763 229.922 147.521 228.864 147.73C227.822 147.935 227.066 148.506 226.598 149.442C226.144 150.375 226.063 151.578 226.352 153.05L226.488 153.739C226.778 155.211 227.31 156.293 228.083 156.985C228.871 157.673 229.787 157.915 230.829 157.71Z" fill="white"/>
</svg>
