<svg width="300" height="300" viewBox="0 0 300 300" fill="none" xmlns="http://www.w3.org/2000/svg">
<rect width="300" height="300" rx="24" fill="white"/>
<path d="M65.8945 253.281C64.7148 253.281 63.6797 253.008 62.7891 252.461C61.8984 251.914 61.2031 251.156 60.7031 250.188C60.2109 249.219 59.9648 248.102 59.9648 246.836C59.9648 245.555 60.2109 244.43 60.7031 243.461C61.2031 242.484 61.8984 241.723 62.7891 241.176C63.6797 240.621 64.7148 240.344 65.8945 240.344C67.0742 240.344 68.1055 240.621 68.9883 241.176C69.8789 241.723 70.5703 242.484 71.0625 243.461C71.5625 244.43 71.8125 245.555 71.8125 246.836C71.8125 248.102 71.5625 249.219 71.0625 250.188C70.5703 251.156 69.8789 251.914 68.9883 252.461C68.1055 253.008 67.0742 253.281 65.8945 253.281ZM65.8945 251.148C66.957 251.148 67.793 250.758 68.4023 249.977C69.0117 249.195 69.3164 248.148 69.3164 246.836C69.3164 245.508 69.0078 244.449 68.3906 243.66C67.7812 242.871 66.9492 242.477 65.8945 242.477C64.8398 242.477 64.0039 242.871 63.3867 243.66C62.7773 244.441 62.4727 245.5 62.4727 246.836C62.4727 248.156 62.7773 249.207 63.3867 249.988C63.9961 250.762 64.832 251.148 65.8945 251.148ZM74.0039 253V240.625H76.4766V250.785H82.2656V240.625H84.7383V253H74.0039ZM83.8945 256.75V253H82.9805V250.727H86.3906L86.3438 256.75H83.8945ZM93.4453 253.281C92.2188 253.281 91.1641 253.004 90.2812 252.449C89.4062 251.895 88.7305 251.133 88.2539 250.164C87.7852 249.188 87.5508 248.078 87.5508 246.836C87.5508 245.578 87.7969 244.461 88.2891 243.484C88.7812 242.508 89.4609 241.742 90.3281 241.188C91.1953 240.625 92.1914 240.344 93.3164 240.344C94.4883 240.344 95.5039 240.617 96.3633 241.164C97.2305 241.711 97.9023 242.473 98.3789 243.449C98.8555 244.418 99.0938 245.539 99.0938 246.812V247.48H89.9883C90.0352 248.598 90.3555 249.5 90.9492 250.188C91.5508 250.875 92.3945 251.219 93.4805 251.219C94.293 251.219 94.9609 251.035 95.4844 250.668C96.0078 250.301 96.3555 249.824 96.5273 249.238H98.9062C98.7578 250.035 98.4258 250.738 97.9102 251.348C97.4023 251.957 96.7617 252.434 95.9883 252.777C95.2227 253.113 94.375 253.281 93.4453 253.281ZM90.0117 245.605H96.6797C96.5781 244.621 96.2305 243.844 95.6367 243.273C95.043 242.695 94.2773 242.406 93.3398 242.406C92.4023 242.406 91.6367 242.695 91.043 243.273C90.457 243.844 90.1133 244.621 90.0117 245.605ZM103.711 240.625V245.699H109.629V240.625H112.102V253H109.629V247.914H103.711V253H101.238V240.625H103.711ZM114.902 253V240.625H117.375V245.805H118.594L123.023 240.625H126.07L120.996 246.625L126.141 253H123.082L119.051 248.02H117.375V253H114.902ZM131.238 253.199C130.004 253.199 128.98 252.887 128.168 252.262C127.355 251.629 126.949 250.695 126.949 249.461C126.949 248.523 127.18 247.805 127.641 247.305C128.109 246.797 128.715 246.434 129.457 246.215C130.207 245.996 131 245.836 131.836 245.734C132.609 245.641 133.223 245.562 133.676 245.5C134.129 245.438 134.449 245.344 134.637 245.219C134.832 245.094 134.93 244.879 134.93 244.574V244.469C134.93 243.867 134.711 243.375 134.273 242.992C133.836 242.602 133.223 242.406 132.434 242.406C131.645 242.406 131 242.598 130.5 242.98C130 243.355 129.727 243.828 129.68 244.398H127.254C127.309 243.219 127.805 242.254 128.742 241.504C129.68 240.754 130.922 240.379 132.469 240.379C133.992 240.379 135.191 240.754 136.066 241.504C136.941 242.254 137.379 243.258 137.379 244.516V253H134.941V251.242H134.895C134.637 251.742 134.227 252.195 133.664 252.602C133.109 253 132.301 253.199 131.238 253.199ZM131.742 251.207C132.836 251.207 133.641 250.926 134.156 250.363C134.68 249.793 134.941 249.129 134.941 248.371V246.918C134.777 247.051 134.406 247.172 133.828 247.281C133.25 247.383 132.633 247.48 131.977 247.574C131.297 247.676 130.699 247.867 130.184 248.148C129.668 248.43 129.41 248.883 129.41 249.508C129.41 250.039 129.617 250.457 130.031 250.762C130.453 251.059 131.023 251.207 131.742 251.207ZM151.477 257.465V253.281C150.266 253.266 149.191 252.984 148.254 252.438C147.324 251.883 146.594 251.125 146.062 250.164C145.539 249.195 145.277 248.082 145.277 246.824C145.277 245.566 145.539 244.453 146.062 243.484C146.594 242.516 147.324 241.754 148.254 241.199C149.191 240.645 150.266 240.359 151.477 240.344V235.539H153.961V240.344C155.172 240.359 156.242 240.645 157.172 241.199C158.109 241.754 158.84 242.516 159.363 243.484C159.895 244.453 160.16 245.566 160.16 246.824C160.16 248.082 159.895 249.195 159.363 250.164C158.84 251.125 158.109 251.883 157.172 252.438C156.242 252.984 155.172 253.266 153.961 253.281V257.465H151.477ZM153.961 251.125C155.086 251.125 155.984 250.738 156.656 249.965C157.328 249.184 157.664 248.141 157.664 246.836C157.664 245.523 157.328 244.473 156.656 243.684C155.984 242.895 155.086 242.5 153.961 242.5V251.125ZM151.477 251.125V242.5C150.352 242.5 149.457 242.895 148.793 243.684C148.129 244.473 147.797 245.523 147.797 246.836C147.797 248.141 148.129 249.184 148.793 249.965C149.457 250.738 150.352 251.125 151.477 251.125ZM162.035 257.898V255.812H163.371C163.762 255.812 164.078 255.699 164.32 255.473C164.57 255.254 164.789 254.891 164.977 254.383L165.539 252.918L160.758 240.625H163.406L165.879 247.41C166.043 247.871 166.203 248.336 166.359 248.805C166.516 249.266 166.668 249.727 166.816 250.188C166.965 249.727 167.117 249.266 167.273 248.805C167.438 248.336 167.602 247.871 167.766 247.41L170.203 240.625H172.816L167.191 255.168C166.496 256.988 165.301 257.898 163.605 257.898H162.035ZM176.977 240.625V245.699H182.895V240.625H185.367V253H182.895V247.914H176.977V253H174.504V240.625H176.977ZM188.168 253V240.625H190.641V245.805H191.859L196.289 240.625H199.336L194.262 246.625L199.406 253H196.348L192.316 248.02H190.641V253H188.168ZM200.73 253V240.625H203.203V250.785H208.992V240.625H211.465V253H200.73ZM210.621 256.75V253H209.707V250.727H213.117L213.07 256.75H210.621ZM225.75 253H223.289V244.363H223.266L217.207 253H214.887V240.625H217.348V249.262H217.371L223.418 240.625H225.75V253ZM239.414 253H236.953V244.363H236.93L230.871 253H228.551V240.625H231.012V249.262H231.035L237.082 240.625H239.414V253ZM69.3047 264.625V277H66.832V266.84H61.043V277H58.5703V264.625H69.3047ZM77.4141 277.281C76.2344 277.281 75.1992 277.008 74.3086 276.461C73.418 275.914 72.7227 275.156 72.2227 274.188C71.7305 273.219 71.4844 272.102 71.4844 270.836C71.4844 269.555 71.7305 268.43 72.2227 267.461C72.7227 266.484 73.418 265.723 74.3086 265.176C75.1992 264.621 76.2344 264.344 77.4141 264.344C78.5938 264.344 79.625 264.621 80.5078 265.176C81.3984 265.723 82.0898 266.484 82.582 267.461C83.082 268.43 83.332 269.555 83.332 270.836C83.332 272.102 83.082 273.219 82.582 274.188C82.0898 275.156 81.3984 275.914 80.5078 276.461C79.625 277.008 78.5938 277.281 77.4141 277.281ZM77.4141 275.148C78.4766 275.148 79.3125 274.758 79.9219 273.977C80.5312 273.195 80.8359 272.148 80.8359 270.836C80.8359 269.508 80.5273 268.449 79.9102 267.66C79.3008 266.871 78.4688 266.477 77.4141 266.477C76.3594 266.477 75.5234 266.871 74.9062 267.66C74.2969 268.441 73.9922 269.5 73.9922 270.836C73.9922 272.156 74.2969 273.207 74.9062 273.988C75.5156 274.762 76.3516 275.148 77.4141 275.148ZM84.3164 277V274.82H84.8086C85.3008 274.82 85.6875 274.707 85.9688 274.48C86.25 274.254 86.457 273.809 86.5898 273.145C86.7227 272.473 86.8164 271.469 86.8711 270.133L87.1055 264.625H96.3047V277H93.832V266.793H89.4727L89.2734 270.836C89.1641 272.992 88.8164 274.559 88.2305 275.535C87.6445 276.512 86.6445 277 85.2305 277H84.3164ZM101.566 268.762H104.812C106.242 268.762 107.395 269.137 108.27 269.887C109.145 270.637 109.582 271.621 109.582 272.84C109.582 274.082 109.145 275.086 108.27 275.852C107.395 276.617 106.242 277 104.812 277H99.0938V264.625H101.566V268.762ZM101.566 270.918V274.832H104.719C105.469 274.832 106.059 274.652 106.488 274.293C106.926 273.934 107.145 273.449 107.145 272.84C107.145 272.246 106.926 271.777 106.488 271.434C106.059 271.09 105.469 270.918 104.719 270.918H101.566ZM116.109 277.188C115.094 277.188 114.215 277.016 113.473 276.672C112.738 276.32 112.168 275.852 111.762 275.266C111.363 274.672 111.16 274.004 111.152 273.262H113.59C113.605 273.855 113.84 274.324 114.293 274.668C114.754 275.004 115.348 275.172 116.074 275.172C116.816 275.172 117.418 275.008 117.879 274.68C118.348 274.344 118.582 273.91 118.582 273.379C118.582 272.832 118.34 272.387 117.855 272.043C117.371 271.691 116.707 271.516 115.863 271.516H114.902V269.77H115.863C116.574 269.77 117.148 269.609 117.586 269.289C118.031 268.969 118.254 268.547 118.254 268.023C118.254 267.508 118.055 267.094 117.656 266.781C117.266 266.469 116.746 266.312 116.098 266.312C115.441 266.312 114.891 266.473 114.445 266.793C114.008 267.105 113.785 267.539 113.777 268.094H111.422C111.43 267.367 111.637 266.723 112.043 266.16C112.449 265.598 113 265.156 113.695 264.836C114.398 264.516 115.203 264.355 116.109 264.355C117 264.355 117.781 264.512 118.453 264.824C119.133 265.129 119.66 265.543 120.035 266.066C120.418 266.582 120.609 267.164 120.609 267.812C120.609 268.508 120.387 269.102 119.941 269.594C119.504 270.078 118.91 270.395 118.16 270.543V270.566C119.082 270.684 119.797 271.016 120.305 271.562C120.812 272.109 121.066 272.766 121.066 273.531C121.066 274.234 120.852 274.863 120.422 275.418C120 275.965 119.414 276.398 118.664 276.719C117.922 277.031 117.07 277.188 116.109 277.188ZM128.508 277.281C127.328 277.281 126.293 277.008 125.402 276.461C124.512 275.914 123.816 275.156 123.316 274.188C122.824 273.219 122.578 272.102 122.578 270.836C122.578 269.555 122.824 268.43 123.316 267.461C123.816 266.484 124.512 265.723 125.402 265.176C126.293 264.621 127.328 264.344 128.508 264.344C129.688 264.344 130.719 264.621 131.602 265.176C132.492 265.723 133.184 266.484 133.676 267.461C134.176 268.43 134.426 269.555 134.426 270.836C134.426 272.102 134.176 273.219 133.676 274.188C133.184 275.156 132.492 275.914 131.602 276.461C130.719 277.008 129.688 277.281 128.508 277.281ZM128.508 275.148C129.57 275.148 130.406 274.758 131.016 273.977C131.625 273.195 131.93 272.148 131.93 270.836C131.93 269.508 131.621 268.449 131.004 267.66C130.395 266.871 129.562 266.477 128.508 266.477C127.453 266.477 126.617 266.871 126 267.66C125.391 268.441 125.086 269.5 125.086 270.836C125.086 272.156 125.391 273.207 126 273.988C126.609 274.762 127.445 275.148 128.508 275.148ZM136.617 277V264.625H141.867C143.344 264.625 144.512 264.902 145.371 265.457C146.23 266.012 146.66 266.828 146.66 267.906C146.66 268.633 146.453 269.215 146.039 269.652C145.633 270.082 145.062 270.363 144.328 270.496C145.133 270.598 145.801 270.898 146.332 271.398C146.871 271.891 147.141 272.59 147.141 273.496C147.141 274.559 146.758 275.41 145.992 276.051C145.227 276.684 144.133 277 142.711 277H136.617ZM138.961 274.891H142.652C143.301 274.891 143.801 274.754 144.152 274.48C144.504 274.207 144.68 273.816 144.68 273.309C144.68 272.746 144.504 272.312 144.152 272.008C143.801 271.703 143.301 271.551 142.652 271.551H138.961V274.891ZM138.961 269.758H141.973C142.691 269.758 143.246 269.621 143.637 269.348C144.027 269.066 144.223 268.672 144.223 268.164C144.223 267.695 144.016 267.336 143.602 267.086C143.195 266.828 142.617 266.699 141.867 266.699H138.961V269.758ZM153.094 277.199C151.859 277.199 150.836 276.887 150.023 276.262C149.211 275.629 148.805 274.695 148.805 273.461C148.805 272.523 149.035 271.805 149.496 271.305C149.965 270.797 150.57 270.434 151.312 270.215C152.062 269.996 152.855 269.836 153.691 269.734C154.465 269.641 155.078 269.562 155.531 269.5C155.984 269.438 156.305 269.344 156.492 269.219C156.688 269.094 156.785 268.879 156.785 268.574V268.469C156.785 267.867 156.566 267.375 156.129 266.992C155.691 266.602 155.078 266.406 154.289 266.406C153.5 266.406 152.855 266.598 152.355 266.98C151.855 267.355 151.582 267.828 151.535 268.398H149.109C149.164 267.219 149.66 266.254 150.598 265.504C151.535 264.754 152.777 264.379 154.324 264.379C155.848 264.379 157.047 264.754 157.922 265.504C158.797 266.254 159.234 267.258 159.234 268.516V277H156.797V275.242H156.75C156.492 275.742 156.082 276.195 155.52 276.602C154.965 277 154.156 277.199 153.094 277.199ZM153.598 275.207C154.691 275.207 155.496 274.926 156.012 274.363C156.535 273.793 156.797 273.129 156.797 272.371V270.918C156.633 271.051 156.262 271.172 155.684 271.281C155.105 271.383 154.488 271.48 153.832 271.574C153.152 271.676 152.555 271.867 152.039 272.148C151.523 272.43 151.266 272.883 151.266 273.508C151.266 274.039 151.473 274.457 151.887 274.762C152.309 275.059 152.879 275.207 153.598 275.207ZM165.082 277V266.781H160.816V264.625H171.809V266.781H167.555V277H165.082ZM178.488 277.281C177.262 277.281 176.207 277.004 175.324 276.449C174.449 275.895 173.773 275.133 173.297 274.164C172.828 273.188 172.594 272.078 172.594 270.836C172.594 269.578 172.84 268.461 173.332 267.484C173.824 266.508 174.504 265.742 175.371 265.188C176.238 264.625 177.234 264.344 178.359 264.344C179.531 264.344 180.547 264.617 181.406 265.164C182.273 265.711 182.945 266.473 183.422 267.449C183.898 268.418 184.137 269.539 184.137 270.812V271.48H175.031C175.078 272.598 175.398 273.5 175.992 274.188C176.594 274.875 177.438 275.219 178.523 275.219C179.336 275.219 180.004 275.035 180.527 274.668C181.051 274.301 181.398 273.824 181.57 273.238H183.949C183.801 274.035 183.469 274.738 182.953 275.348C182.445 275.957 181.805 276.434 181.031 276.777C180.266 277.113 179.418 277.281 178.488 277.281ZM175.055 269.605H181.723C181.621 268.621 181.273 267.844 180.68 267.273C180.086 266.695 179.32 266.406 178.383 266.406C177.445 266.406 176.68 266.695 176.086 267.273C175.5 267.844 175.156 268.621 175.055 269.605ZM185.074 277V274.82H185.566C186.059 274.82 186.445 274.707 186.727 274.48C187.008 274.254 187.215 273.809 187.348 273.145C187.48 272.473 187.574 271.469 187.629 270.133L187.863 264.625H197.062V277H194.59V266.793H190.23L190.031 270.836C189.922 272.992 189.574 274.559 188.988 275.535C188.402 276.512 187.402 277 185.988 277H185.074ZM209.871 277H207.445V272.547H204.363L201.48 277H198.691L201.867 272.207C201.031 271.926 200.387 271.484 199.934 270.883C199.488 270.281 199.266 269.535 199.266 268.645C199.266 267.363 199.691 266.375 200.543 265.68C201.402 264.977 202.609 264.625 204.164 264.625H209.871V277ZM207.445 270.602V266.699H204.434C203.488 266.699 202.797 266.855 202.359 267.168C201.922 267.48 201.703 267.977 201.703 268.656C201.703 269.344 201.93 269.84 202.383 270.145C202.836 270.449 203.543 270.602 204.504 270.602H207.445ZM212.672 277V264.625H216.387L219.188 271.293C219.391 271.809 219.574 272.312 219.738 272.805C219.902 273.289 220.066 273.758 220.23 274.211C220.387 273.758 220.547 273.289 220.711 272.805C220.875 272.312 221.059 271.809 221.262 271.293L224.039 264.625H227.754V277H225.305V271.293C225.305 270.426 225.309 269.672 225.316 269.031C225.324 268.383 225.332 267.742 225.34 267.109C225.09 267.766 224.836 268.434 224.578 269.113C224.328 269.785 224.047 270.508 223.734 271.281L221.273 277H219.152L216.68 271.281C216.367 270.531 216.082 269.828 215.824 269.172C215.574 268.508 215.328 267.859 215.086 267.227C215.094 267.836 215.102 268.457 215.109 269.09C215.117 269.715 215.121 270.449 215.121 271.293V277H212.672ZM241.418 277H238.957V268.363H238.934L232.875 277H230.555V264.625H233.016V273.262H233.039L239.086 264.625H241.418V277Z" fill="#FF36C9"/>
<path d="M16.4658 156.912V134.483L78.2861 46.7476H113.814V134.389H132.19V156.912H113.814V187.163H86.5791V156.912H16.4658ZM86.5791 134.389V74.4536H86.3906L44.4546 134.201V134.389H86.5791Z" fill="#FF36C9"/>
<path d="M154.808 188.859C150.41 188.859 146.64 187.32 143.499 184.241C140.421 181.1 138.881 177.299 138.881 172.838C138.881 168.441 140.421 164.671 143.499 161.53C146.64 158.389 150.41 156.818 154.808 156.818C159.268 156.818 163.038 158.389 166.116 161.53C169.257 164.671 170.828 168.441 170.828 172.838C170.828 177.299 169.257 181.1 166.116 184.241C163.038 187.32 159.268 188.859 154.808 188.859Z" fill="#FF36C9"/>
<path d="M186.566 187.163L245.465 71.061V70.8726H176.954V46.7476H274.679V70.5898L215.968 187.163H186.566Z" fill="#FF36C9"/>
<rect x="177.107" y="182.835" width="98.67" height="43.117" rx="8.86511" transform="rotate(-3.90968 177.107 182.835)" fill="white"/>
<rect x="177.107" y="182.835" width="98.67" height="43.117" rx="8.86511" transform="rotate(-3.90968 177.107 182.835)" stroke="#FF36C9" stroke-width="2.07729"/>
<path d="M212.878 213.623L209.897 213.827L208.954 200.025L208.901 200.029L200.357 214.479L197.376 214.683L196.11 196.163L199.091 195.96L200.036 209.779L200.088 209.775L208.631 195.308L211.613 195.104L212.878 213.623ZM223.525 213.177C222.099 213.275 220.831 213.115 219.722 212.697C218.624 212.267 217.747 211.646 217.093 210.833C216.45 210.02 216.08 209.076 215.983 208.002L218.947 207.799C219.049 208.779 219.499 209.523 220.297 210.033C221.096 210.542 222.097 210.755 223.301 210.673C224.552 210.588 225.545 210.244 226.279 209.642C227.024 209.027 227.366 208.275 227.305 207.387C227.242 206.463 226.788 205.742 225.942 205.225C225.095 204.695 223.97 204.478 222.567 204.574L221.164 204.67L221.002 202.303L222.405 202.207C223.575 202.127 224.504 201.799 225.192 201.223C225.881 200.636 226.195 199.904 226.135 199.027C226.076 198.174 225.702 197.512 225.012 197.042C224.322 196.561 223.433 196.357 222.345 196.432C221.27 196.505 220.382 196.83 219.681 197.407C218.992 197.982 218.668 198.739 218.709 199.675L215.85 199.871C215.801 198.805 216.04 197.843 216.569 196.985C217.098 196.127 217.849 195.435 218.823 194.91C219.809 194.373 220.933 194.062 222.195 193.975C223.481 193.887 224.619 194.039 225.609 194.429C226.611 194.819 227.407 195.381 227.997 196.116C228.6 196.85 228.933 197.685 228.997 198.62C229.067 199.649 228.812 200.559 228.232 201.35C227.651 202.142 226.815 202.71 225.723 203.055L225.725 203.09C227.059 203.187 228.129 203.624 228.934 204.403C229.75 205.17 230.197 206.132 230.276 207.289C230.346 208.318 230.1 209.263 229.536 210.124C228.984 210.984 228.186 211.684 227.143 212.225C226.099 212.767 224.893 213.084 223.525 213.177ZM251.221 211.355C249.549 211.469 248.023 211.227 246.643 210.628C245.263 210.018 244.134 209.144 243.258 208.005C242.381 206.867 241.856 205.546 241.683 204.043L244.84 203.827C245.081 205.303 245.773 206.489 246.915 207.385C248.068 208.27 249.439 208.658 251.029 208.549C252.164 208.472 253.133 208.141 253.939 207.557C254.757 206.973 255.374 206.208 255.791 205.264C256.207 204.307 256.375 203.239 256.294 202.058C256.214 200.877 255.914 199.846 255.396 198.965C254.878 198.085 254.192 197.415 253.338 196.956C252.484 196.486 251.513 196.288 250.426 196.363C248.988 196.461 247.774 196.837 246.785 197.492C245.796 198.136 245.134 199.026 244.801 200.165L241.767 200.373L241.625 185.406L256.707 184.375L256.899 187.181L244.675 188.017L244.623 196.53L244.658 196.528C246.164 194.675 248.15 193.664 250.617 193.495C252.219 193.386 253.654 193.669 254.922 194.346C256.201 195.022 257.226 196.004 257.995 197.29C258.776 198.576 259.225 200.084 259.344 201.814C259.463 203.568 259.201 205.142 258.556 206.537C257.923 207.931 256.978 209.053 255.721 209.902C254.463 210.752 252.963 211.236 251.221 211.355Z" fill="#FF36C9"/>
</svg>
