<svg width="300" height="300" viewBox="0 0 300 300" fill="none" xmlns="http://www.w3.org/2000/svg">
<rect width="300" height="300" rx="24" fill="white"/>
<path d="M46.6992 253.281C45.5195 253.281 44.4844 253.008 43.5938 252.461C42.7031 251.914 42.0078 251.156 41.5078 250.188C41.0156 249.219 40.7695 248.102 40.7695 246.836C40.7695 245.555 41.0156 244.43 41.5078 243.461C42.0078 242.484 42.7031 241.723 43.5938 241.176C44.4844 240.621 45.5195 240.344 46.6992 240.344C47.8789 240.344 48.9102 240.621 49.793 241.176C50.6836 241.723 51.375 242.484 51.8672 243.461C52.3672 244.43 52.6172 245.555 52.6172 246.836C52.6172 248.102 52.3672 249.219 51.8672 250.188C51.375 251.156 50.6836 251.914 49.793 252.461C48.9102 253.008 47.8789 253.281 46.6992 253.281ZM46.6992 251.148C47.7617 251.148 48.5977 250.758 49.207 249.977C49.8164 249.195 50.1211 248.148 50.1211 246.836C50.1211 245.508 49.8125 244.449 49.1953 243.66C48.5859 242.871 47.7539 242.477 46.6992 242.477C45.6445 242.477 44.8086 242.871 44.1914 243.66C43.582 244.441 43.2773 245.5 43.2773 246.836C43.2773 248.156 43.582 249.207 44.1914 249.988C44.8008 250.762 45.6367 251.148 46.6992 251.148ZM54.8086 240.625H57.2812V250.785H61.8164V240.625H64.2539V250.785H68.7773V240.625H71.2617V253H54.8086V240.625ZM84.9141 253H82.4531V244.363H82.4297L76.3711 253H74.0508V240.625H76.5117V249.262H76.5352L82.582 240.625H84.9141V253ZM97.7578 235.035L98.8125 236.594C98.2266 237.141 97.5117 237.461 96.668 237.555C95.8242 237.648 94.7773 237.711 93.5273 237.742C92.1211 237.789 91.0781 238.23 90.3984 239.066C89.7266 239.902 89.3203 241.156 89.1797 242.828H89.3438C89.7656 242.016 90.3555 241.41 91.1133 241.012C91.8789 240.605 92.7344 240.402 93.6797 240.402C94.7266 240.402 95.6602 240.645 96.4805 241.129C97.3086 241.605 97.957 242.309 98.4258 243.238C98.9023 244.168 99.1406 245.305 99.1406 246.648C99.1406 248.008 98.8945 249.184 98.4023 250.176C97.9102 251.168 97.2148 251.934 96.3164 252.473C95.418 253.004 94.3633 253.27 93.1523 253.27C91.3242 253.27 89.8594 252.648 88.7578 251.406C87.6562 250.156 87.1055 248.324 87.1055 245.91V244.621C87.1211 238.652 89.2422 235.625 93.4688 235.539C93.7031 235.531 93.9297 235.527 94.1484 235.527C94.3672 235.527 94.5781 235.527 94.7812 235.527C95.4609 235.535 96.0469 235.52 96.5391 235.48C97.0312 235.434 97.4375 235.285 97.7578 235.035ZM93.1641 251.172C94.2344 251.164 95.0781 250.758 95.6953 249.953C96.3125 249.148 96.6211 248.059 96.6211 246.684C96.6211 245.348 96.3086 244.316 95.6836 243.59C95.0664 242.855 94.2109 242.488 93.1172 242.488C92.0547 242.488 91.2109 242.855 90.5859 243.59C89.9688 244.316 89.6523 245.348 89.6367 246.684C89.6367 248.043 89.9492 249.129 90.5742 249.941C91.1992 250.754 92.0625 251.164 93.1641 251.172ZM106.652 253.281C105.473 253.281 104.438 253.008 103.547 252.461C102.656 251.914 101.961 251.156 101.461 250.188C100.969 249.219 100.723 248.102 100.723 246.836C100.723 245.555 100.969 244.43 101.461 243.461C101.961 242.484 102.656 241.723 103.547 241.176C104.438 240.621 105.473 240.344 106.652 240.344C107.832 240.344 108.863 240.621 109.746 241.176C110.637 241.723 111.328 242.484 111.82 243.461C112.32 244.43 112.57 245.555 112.57 246.836C112.57 248.102 112.32 249.219 111.82 250.188C111.328 251.156 110.637 251.914 109.746 252.461C108.863 253.008 107.832 253.281 106.652 253.281ZM106.652 251.148C107.715 251.148 108.551 250.758 109.16 249.977C109.77 249.195 110.074 248.148 110.074 246.836C110.074 245.508 109.766 244.449 109.148 243.66C108.539 242.871 107.707 242.477 106.652 242.477C105.598 242.477 104.762 242.871 104.145 243.66C103.535 244.441 103.23 245.5 103.23 246.836C103.23 248.156 103.535 249.207 104.145 249.988C104.754 250.762 105.59 251.148 106.652 251.148ZM114.762 253V240.625H117.234V245.805H118.453L122.883 240.625H125.93L120.855 246.625L126 253H122.941L118.91 248.02H117.234V253H114.762ZM138.34 253.281C137.16 253.281 136.125 253.008 135.234 252.461C134.352 251.914 133.664 251.156 133.172 250.188C132.68 249.211 132.434 248.094 132.434 246.836C132.434 245.562 132.68 244.438 133.172 243.461C133.672 242.484 134.363 241.723 135.246 241.176C136.129 240.621 137.16 240.344 138.34 240.344C139.324 240.344 140.203 240.539 140.977 240.93C141.758 241.312 142.391 241.844 142.875 242.523C143.359 243.203 143.652 243.98 143.754 244.855H141.293C141.168 244.16 140.855 243.59 140.355 243.145C139.855 242.699 139.188 242.477 138.352 242.477C137.281 242.477 136.445 242.871 135.844 243.66C135.242 244.449 134.941 245.508 134.941 246.836C134.941 248.148 135.242 249.195 135.844 249.977C136.445 250.758 137.281 251.148 138.352 251.148C139.203 251.148 139.859 250.934 140.32 250.504C140.781 250.066 141.094 249.484 141.258 248.758H143.754C143.66 249.617 143.371 250.391 142.887 251.078C142.402 251.758 141.77 252.297 140.988 252.695C140.207 253.086 139.324 253.281 138.34 253.281ZM151.184 253.281C150.004 253.281 148.969 253.008 148.078 252.461C147.188 251.914 146.492 251.156 145.992 250.188C145.5 249.219 145.254 248.102 145.254 246.836C145.254 245.555 145.5 244.43 145.992 243.461C146.492 242.484 147.188 241.723 148.078 241.176C148.969 240.621 150.004 240.344 151.184 240.344C152.363 240.344 153.395 240.621 154.277 241.176C155.168 241.723 155.859 242.484 156.352 243.461C156.852 244.43 157.102 245.555 157.102 246.836C157.102 248.102 156.852 249.219 156.352 250.188C155.859 251.156 155.168 251.914 154.277 252.461C153.395 253.008 152.363 253.281 151.184 253.281ZM151.184 251.148C152.246 251.148 153.082 250.758 153.691 249.977C154.301 249.195 154.605 248.148 154.605 246.836C154.605 245.508 154.297 244.449 153.68 243.66C153.07 242.871 152.238 242.477 151.184 242.477C150.129 242.477 149.293 242.871 148.676 243.66C148.066 244.441 147.762 245.5 147.762 246.836C147.762 248.156 148.066 249.207 148.676 249.988C149.285 250.762 150.121 251.148 151.184 251.148ZM159.293 253V240.625H164.543C166.02 240.625 167.188 240.902 168.047 241.457C168.906 242.012 169.336 242.828 169.336 243.906C169.336 244.633 169.129 245.215 168.715 245.652C168.309 246.082 167.738 246.363 167.004 246.496C167.809 246.598 168.477 246.898 169.008 247.398C169.547 247.891 169.816 248.59 169.816 249.496C169.816 250.559 169.434 251.41 168.668 252.051C167.902 252.684 166.809 253 165.387 253H159.293ZM161.637 250.891H165.328C165.977 250.891 166.477 250.754 166.828 250.48C167.18 250.207 167.355 249.816 167.355 249.309C167.355 248.746 167.18 248.312 166.828 248.008C166.477 247.703 165.977 247.551 165.328 247.551H161.637V250.891ZM161.637 245.758H164.648C165.367 245.758 165.922 245.621 166.312 245.348C166.703 245.066 166.898 244.672 166.898 244.164C166.898 243.695 166.691 243.336 166.277 243.086C165.871 242.828 165.293 242.699 164.543 242.699H161.637V245.758ZM177.281 253.281C176.055 253.281 175 253.004 174.117 252.449C173.242 251.895 172.566 251.133 172.09 250.164C171.621 249.188 171.387 248.078 171.387 246.836C171.387 245.578 171.633 244.461 172.125 243.484C172.617 242.508 173.297 241.742 174.164 241.188C175.031 240.625 176.027 240.344 177.152 240.344C178.324 240.344 179.34 240.617 180.199 241.164C181.066 241.711 181.738 242.473 182.215 243.449C182.691 244.418 182.93 245.539 182.93 246.812V247.48H173.824C173.871 248.598 174.191 249.5 174.785 250.188C175.387 250.875 176.23 251.219 177.316 251.219C178.129 251.219 178.797 251.035 179.32 250.668C179.844 250.301 180.191 249.824 180.363 249.238H182.742C182.594 250.035 182.262 250.738 181.746 251.348C181.238 251.957 180.598 252.434 179.824 252.777C179.059 253.113 178.211 253.281 177.281 253.281ZM173.848 245.605H180.516C180.414 244.621 180.066 243.844 179.473 243.273C178.879 242.695 178.113 242.406 177.176 242.406C176.238 242.406 175.473 242.695 174.879 243.273C174.293 243.844 173.949 244.621 173.848 245.605ZM185.074 257.898V240.625H187.5V242.406H187.535C187.926 241.727 188.461 241.219 189.141 240.883C189.82 240.547 190.562 240.379 191.367 240.379C192.43 240.379 193.363 240.652 194.168 241.199C194.973 241.738 195.598 242.492 196.043 243.461C196.496 244.422 196.723 245.539 196.723 246.812C196.723 248.086 196.5 249.207 196.055 250.176C195.609 251.137 194.984 251.891 194.18 252.438C193.375 252.977 192.434 253.246 191.355 253.246C190.551 253.246 189.824 253.07 189.176 252.719C188.527 252.367 187.996 251.84 187.582 251.137H187.547V257.898H185.074ZM190.852 251.113C191.852 251.113 192.66 250.746 193.277 250.012C193.902 249.277 194.215 248.211 194.215 246.812C194.215 245.414 193.902 244.348 193.277 243.613C192.66 242.871 191.852 242.5 190.852 242.5C189.797 242.5 188.953 242.895 188.32 243.684C187.695 244.465 187.383 245.508 187.383 246.812C187.383 248.109 187.695 249.152 188.32 249.941C188.953 250.723 189.797 251.113 190.852 251.113ZM198.902 240.625H201.375V250.785H205.91V240.625H208.348V250.785H212.871V240.625H215.355V253H198.902V240.625ZM221.918 253.199C220.684 253.199 219.66 252.887 218.848 252.262C218.035 251.629 217.629 250.695 217.629 249.461C217.629 248.523 217.859 247.805 218.32 247.305C218.789 246.797 219.395 246.434 220.137 246.215C220.887 245.996 221.68 245.836 222.516 245.734C223.289 245.641 223.902 245.562 224.355 245.5C224.809 245.438 225.129 245.344 225.316 245.219C225.512 245.094 225.609 244.879 225.609 244.574V244.469C225.609 243.867 225.391 243.375 224.953 242.992C224.516 242.602 223.902 242.406 223.113 242.406C222.324 242.406 221.68 242.598 221.18 242.98C220.68 243.355 220.406 243.828 220.359 244.398H217.934C217.988 243.219 218.484 242.254 219.422 241.504C220.359 240.754 221.602 240.379 223.148 240.379C224.672 240.379 225.871 240.754 226.746 241.504C227.621 242.254 228.059 243.258 228.059 244.516V253H225.621V251.242H225.574C225.316 251.742 224.906 252.195 224.344 252.602C223.789 253 222.98 253.199 221.918 253.199ZM222.422 251.207C223.516 251.207 224.32 250.926 224.836 250.363C225.359 249.793 225.621 249.129 225.621 248.371V246.918C225.457 247.051 225.086 247.172 224.508 247.281C223.93 247.383 223.312 247.48 222.656 247.574C221.977 247.676 221.379 247.867 220.863 248.148C220.348 248.43 220.09 248.883 220.09 249.508C220.09 250.039 220.297 250.457 220.711 250.762C221.133 251.059 221.703 251.207 222.422 251.207ZM230.848 253V240.625H233.32V245.699H236.086C236.227 244.629 236.555 243.695 237.07 242.898C237.594 242.094 238.27 241.469 239.098 241.023C239.926 240.57 240.871 240.344 241.934 240.344C243.113 240.344 244.148 240.621 245.039 241.176C245.93 241.723 246.621 242.484 247.113 243.461C247.605 244.43 247.852 245.555 247.852 246.836C247.852 248.102 247.605 249.219 247.113 250.188C246.621 251.156 245.93 251.914 245.039 252.461C244.148 253.008 243.113 253.281 241.934 253.281C240.871 253.281 239.922 253.059 239.086 252.613C238.258 252.16 237.582 251.531 237.059 250.727C236.543 249.922 236.215 248.984 236.074 247.914H233.32V253H230.848ZM241.934 251.148C242.996 251.148 243.832 250.758 244.441 249.977C245.051 249.195 245.355 248.148 245.355 246.836C245.355 245.508 245.047 244.449 244.43 243.66C243.82 242.871 242.988 242.477 241.934 242.477C240.879 242.477 240.043 242.871 239.426 243.66C238.816 244.441 238.512 245.5 238.512 246.836C238.512 248.156 238.816 249.207 239.426 249.988C240.035 250.762 240.871 251.148 241.934 251.148ZM253.102 253V242.781H248.836V240.625H259.828V242.781H255.574V253H253.102ZM84.6562 264.625V277H82.1836V266.84H76.3945V277H73.9219V264.625H84.6562ZM92.7656 277.281C91.5859 277.281 90.5508 277.008 89.6602 276.461C88.7695 275.914 88.0742 275.156 87.5742 274.188C87.082 273.219 86.8359 272.102 86.8359 270.836C86.8359 269.555 87.082 268.43 87.5742 267.461C88.0742 266.484 88.7695 265.723 89.6602 265.176C90.5508 264.621 91.5859 264.344 92.7656 264.344C93.9453 264.344 94.9766 264.621 95.8594 265.176C96.75 265.723 97.4414 266.484 97.9336 267.461C98.4336 268.43 98.6836 269.555 98.6836 270.836C98.6836 272.102 98.4336 273.219 97.9336 274.188C97.4414 275.156 96.75 275.914 95.8594 276.461C94.9766 277.008 93.9453 277.281 92.7656 277.281ZM92.7656 275.148C93.8281 275.148 94.6641 274.758 95.2734 273.977C95.8828 273.195 96.1875 272.148 96.1875 270.836C96.1875 269.508 95.8789 268.449 95.2617 267.66C94.6523 266.871 93.8203 266.477 92.7656 266.477C91.7109 266.477 90.875 266.871 90.2578 267.66C89.6484 268.441 89.3438 269.5 89.3438 270.836C89.3438 272.156 89.6484 273.207 90.2578 273.988C90.8672 274.762 91.7031 275.148 92.7656 275.148ZM99.668 277V274.82H100.16C100.652 274.82 101.039 274.707 101.32 274.48C101.602 274.254 101.809 273.809 101.941 273.145C102.074 272.473 102.168 271.469 102.223 270.133L102.457 264.625H111.656V277H109.184V266.793H104.824L104.625 270.836C104.516 272.992 104.168 274.559 103.582 275.535C102.996 276.512 101.996 277 100.582 277H99.668ZM116.918 268.762H120.164C121.594 268.762 122.746 269.137 123.621 269.887C124.496 270.637 124.934 271.621 124.934 272.84C124.934 274.082 124.496 275.086 123.621 275.852C122.746 276.617 121.594 277 120.164 277H114.445V264.625H116.918V268.762ZM116.918 270.918V274.832H120.07C120.82 274.832 121.41 274.652 121.84 274.293C122.277 273.934 122.496 273.449 122.496 272.84C122.496 272.246 122.277 271.777 121.84 271.434C121.41 271.09 120.82 270.918 120.07 270.918H116.918ZM131.461 277.188C130.445 277.188 129.566 277.016 128.824 276.672C128.09 276.32 127.52 275.852 127.113 275.266C126.715 274.672 126.512 274.004 126.504 273.262H128.941C128.957 273.855 129.191 274.324 129.645 274.668C130.105 275.004 130.699 275.172 131.426 275.172C132.168 275.172 132.77 275.008 133.23 274.68C133.699 274.344 133.934 273.91 133.934 273.379C133.934 272.832 133.691 272.387 133.207 272.043C132.723 271.691 132.059 271.516 131.215 271.516H130.254V269.77H131.215C131.926 269.77 132.5 269.609 132.938 269.289C133.383 268.969 133.605 268.547 133.605 268.023C133.605 267.508 133.406 267.094 133.008 266.781C132.617 266.469 132.098 266.312 131.449 266.312C130.793 266.312 130.242 266.473 129.797 266.793C129.359 267.105 129.137 267.539 129.129 268.094H126.773C126.781 267.367 126.988 266.723 127.395 266.16C127.801 265.598 128.352 265.156 129.047 264.836C129.75 264.516 130.555 264.355 131.461 264.355C132.352 264.355 133.133 264.512 133.805 264.824C134.484 265.129 135.012 265.543 135.387 266.066C135.77 266.582 135.961 267.164 135.961 267.812C135.961 268.508 135.738 269.102 135.293 269.594C134.855 270.078 134.262 270.395 133.512 270.543V270.566C134.434 270.684 135.148 271.016 135.656 271.562C136.164 272.109 136.418 272.766 136.418 273.531C136.418 274.234 136.203 274.863 135.773 275.418C135.352 275.965 134.766 276.398 134.016 276.719C133.273 277.031 132.422 277.188 131.461 277.188ZM143.859 277.281C142.68 277.281 141.645 277.008 140.754 276.461C139.863 275.914 139.168 275.156 138.668 274.188C138.176 273.219 137.93 272.102 137.93 270.836C137.93 269.555 138.176 268.43 138.668 267.461C139.168 266.484 139.863 265.723 140.754 265.176C141.645 264.621 142.68 264.344 143.859 264.344C145.039 264.344 146.07 264.621 146.953 265.176C147.844 265.723 148.535 266.484 149.027 267.461C149.527 268.43 149.777 269.555 149.777 270.836C149.777 272.102 149.527 273.219 149.027 274.188C148.535 275.156 147.844 275.914 146.953 276.461C146.07 277.008 145.039 277.281 143.859 277.281ZM143.859 275.148C144.922 275.148 145.758 274.758 146.367 273.977C146.977 273.195 147.281 272.148 147.281 270.836C147.281 269.508 146.973 268.449 146.355 267.66C145.746 266.871 144.914 266.477 143.859 266.477C142.805 266.477 141.969 266.871 141.352 267.66C140.742 268.441 140.438 269.5 140.438 270.836C140.438 272.156 140.742 273.207 141.352 273.988C141.961 274.762 142.797 275.148 143.859 275.148ZM151.969 277V264.625H157.219C158.695 264.625 159.863 264.902 160.723 265.457C161.582 266.012 162.012 266.828 162.012 267.906C162.012 268.633 161.805 269.215 161.391 269.652C160.984 270.082 160.414 270.363 159.68 270.496C160.484 270.598 161.152 270.898 161.684 271.398C162.223 271.891 162.492 272.59 162.492 273.496C162.492 274.559 162.109 275.41 161.344 276.051C160.578 276.684 159.484 277 158.062 277H151.969ZM154.312 274.891H158.004C158.652 274.891 159.152 274.754 159.504 274.48C159.855 274.207 160.031 273.816 160.031 273.309C160.031 272.746 159.855 272.312 159.504 272.008C159.152 271.703 158.652 271.551 158.004 271.551H154.312V274.891ZM154.312 269.758H157.324C158.043 269.758 158.598 269.621 158.988 269.348C159.379 269.066 159.574 268.672 159.574 268.164C159.574 267.695 159.367 267.336 158.953 267.086C158.547 266.828 157.969 266.699 157.219 266.699H154.312V269.758ZM168.445 277.199C167.211 277.199 166.188 276.887 165.375 276.262C164.562 275.629 164.156 274.695 164.156 273.461C164.156 272.523 164.387 271.805 164.848 271.305C165.316 270.797 165.922 270.434 166.664 270.215C167.414 269.996 168.207 269.836 169.043 269.734C169.816 269.641 170.43 269.562 170.883 269.5C171.336 269.438 171.656 269.344 171.844 269.219C172.039 269.094 172.137 268.879 172.137 268.574V268.469C172.137 267.867 171.918 267.375 171.48 266.992C171.043 266.602 170.43 266.406 169.641 266.406C168.852 266.406 168.207 266.598 167.707 266.98C167.207 267.355 166.934 267.828 166.887 268.398H164.461C164.516 267.219 165.012 266.254 165.949 265.504C166.887 264.754 168.129 264.379 169.676 264.379C171.199 264.379 172.398 264.754 173.273 265.504C174.148 266.254 174.586 267.258 174.586 268.516V277H172.148V275.242H172.102C171.844 275.742 171.434 276.195 170.871 276.602C170.316 277 169.508 277.199 168.445 277.199ZM168.949 275.207C170.043 275.207 170.848 274.926 171.363 274.363C171.887 273.793 172.148 273.129 172.148 272.371V270.918C171.984 271.051 171.613 271.172 171.035 271.281C170.457 271.383 169.84 271.48 169.184 271.574C168.504 271.676 167.906 271.867 167.391 272.148C166.875 272.43 166.617 272.883 166.617 273.508C166.617 274.039 166.824 274.457 167.238 274.762C167.66 275.059 168.23 275.207 168.949 275.207ZM180.434 277V266.781H176.168V264.625H187.16V266.781H182.906V277H180.434ZM193.84 277.281C192.613 277.281 191.559 277.004 190.676 276.449C189.801 275.895 189.125 275.133 188.648 274.164C188.18 273.188 187.945 272.078 187.945 270.836C187.945 269.578 188.191 268.461 188.684 267.484C189.176 266.508 189.855 265.742 190.723 265.188C191.59 264.625 192.586 264.344 193.711 264.344C194.883 264.344 195.898 264.617 196.758 265.164C197.625 265.711 198.297 266.473 198.773 267.449C199.25 268.418 199.488 269.539 199.488 270.812V271.48H190.383C190.43 272.598 190.75 273.5 191.344 274.188C191.945 274.875 192.789 275.219 193.875 275.219C194.688 275.219 195.355 275.035 195.879 274.668C196.402 274.301 196.75 273.824 196.922 273.238H199.301C199.152 274.035 198.82 274.738 198.305 275.348C197.797 275.957 197.156 276.434 196.383 276.777C195.617 277.113 194.77 277.281 193.84 277.281ZM190.406 269.605H197.074C196.973 268.621 196.625 267.844 196.031 267.273C195.438 266.695 194.672 266.406 193.734 266.406C192.797 266.406 192.031 266.695 191.438 267.273C190.852 267.844 190.508 268.621 190.406 269.605ZM200.426 277V274.82H200.918C201.41 274.82 201.797 274.707 202.078 274.48C202.359 274.254 202.566 273.809 202.699 273.145C202.832 272.473 202.926 271.469 202.98 270.133L203.215 264.625H212.414V277H209.941V266.793H205.582L205.383 270.836C205.273 272.992 204.926 274.559 204.34 275.535C203.754 276.512 202.754 277 201.34 277H200.426ZM226.066 277H223.605V268.363H223.582L217.523 277H215.203V264.625H217.664V273.262H217.688L223.734 264.625H226.066V277Z" fill="#FF36C9"/>
<path d="M149.763 196.262C136.784 196.262 125.635 193.052 116.316 186.631C106.996 180.142 99.8165 170.961 94.777 159.087C89.8066 147.144 87.3214 133.026 87.3214 116.734C87.3214 100.373 89.8066 86.2213 94.777 74.2784C99.8165 62.3355 106.996 53.154 116.316 46.7338C125.635 40.2446 136.784 37 149.763 37C162.672 37 173.787 40.2446 183.106 46.7338C192.426 53.154 199.605 62.3355 204.645 74.2784C209.684 86.2213 212.204 100.373 212.204 116.734C212.204 133.096 209.684 147.213 204.645 159.087C199.605 170.961 192.426 180.142 183.106 186.631C173.787 193.052 162.672 196.262 149.763 196.262ZM149.763 170.788C159.773 170.788 167.677 165.99 173.476 156.395C179.275 146.73 182.174 133.51 182.174 116.734C182.174 99.8901 179.275 86.6355 173.476 76.9708C167.677 67.306 159.773 62.4736 149.763 62.4736C139.684 62.4736 131.745 67.306 125.946 76.9708C120.216 86.6355 117.351 99.8901 117.351 116.734C117.351 133.51 120.216 146.73 125.946 156.395C131.745 165.99 139.684 170.788 149.763 170.788Z" fill="#FF36C9"/>
<rect x="190.107" y="151.12" width="58.8551" height="48.0856" rx="8.86511" transform="rotate(-3.90968 190.107 151.12)" fill="white"/>
<rect x="190.107" y="151.12" width="58.8551" height="48.0856" rx="8.86511" transform="rotate(-3.90968 190.107 151.12)" stroke="#FF36C9" stroke-width="2.07729"/>
<path d="M213.316 172.497C212.217 172.572 211.24 172.381 210.387 171.922C209.544 171.451 208.864 170.781 208.347 169.912C207.841 169.042 207.549 168.04 207.472 166.906L207.436 166.38C207.358 165.246 207.511 164.213 207.894 163.283C208.288 162.351 208.871 161.601 209.643 161.031C210.425 160.449 211.366 160.121 212.465 160.046C213.564 159.971 214.535 160.169 215.377 160.64C216.219 161.099 216.893 161.763 217.399 162.633C217.905 163.503 218.196 164.505 218.274 165.639L218.31 166.165C218.387 167.299 218.235 168.332 217.852 169.262C217.469 170.193 216.892 170.949 216.122 171.53C215.35 172.1 214.415 172.422 213.316 172.497ZM229.145 186.004C228.046 186.079 227.069 185.887 226.216 185.429C225.373 184.958 224.693 184.288 224.176 183.419C223.67 182.549 223.378 181.547 223.301 180.413L223.265 179.887C223.187 178.753 223.34 177.72 223.722 176.79C224.117 175.858 224.7 175.108 225.471 174.538C226.254 173.956 227.195 173.628 228.294 173.553C229.393 173.477 230.363 173.675 231.206 174.146C232.048 174.606 232.722 175.27 233.228 176.14C233.733 177.01 234.025 178.012 234.103 179.146L234.139 179.672C234.216 180.806 234.063 181.839 233.681 182.769C233.298 183.7 232.721 184.456 231.95 185.037C231.179 185.607 230.244 185.929 229.145 186.004ZM211.123 186.813L227.295 159.455L230.346 159.246L214.174 186.604L211.123 186.813ZM213.16 170.217C214.002 170.16 214.646 169.787 215.092 169.099C215.538 168.41 215.722 167.493 215.644 166.347L215.608 165.821C215.53 164.676 215.223 163.792 214.687 163.171C214.151 162.55 213.462 162.268 212.621 162.326C211.767 162.384 211.111 162.758 210.653 163.447C210.207 164.135 210.023 165.052 210.101 166.198L210.137 166.724C210.216 167.87 210.523 168.753 211.058 169.374C211.606 169.995 212.306 170.276 213.16 170.217ZM228.989 183.724C229.831 183.667 230.475 183.294 230.921 182.605C231.367 181.917 231.551 181 231.473 179.854L231.437 179.328C231.359 178.182 231.052 177.299 230.516 176.678C229.98 176.057 229.291 175.775 228.449 175.832C227.596 175.891 226.94 176.264 226.482 176.953C226.036 177.642 225.852 178.559 225.93 179.705L225.966 180.231C226.045 181.376 226.352 182.26 226.887 182.881C227.435 183.501 228.135 183.782 228.989 183.724Z" fill="#FF36C9"/>
</svg>
