<svg width="300" height="300" viewBox="0 0 300 300" fill="none" xmlns="http://www.w3.org/2000/svg">
<path d="M0 24C0 10.7452 10.7452 0 24 0H276C289.255 0 300 10.7452 300 24V276C300 289.255 289.255 300 276 300H24C10.7452 300 0 289.255 0 276V24Z" fill="white"/>
<path d="M30.7148 249.281C29.5352 249.281 28.5 249.008 27.6094 248.461C26.7188 247.914 26.0234 247.156 25.5234 246.188C25.0312 245.219 24.7852 244.102 24.7852 242.836C24.7852 241.555 25.0312 240.43 25.5234 239.461C26.0234 238.484 26.7188 237.723 27.6094 237.176C28.5 236.621 29.5352 236.344 30.7148 236.344C31.8945 236.344 32.9258 236.621 33.8086 237.176C34.6992 237.723 35.3906 238.484 35.8828 239.461C36.3828 240.43 36.6328 241.555 36.6328 242.836C36.6328 244.102 36.3828 245.219 35.8828 246.188C35.3906 247.156 34.6992 247.914 33.8086 248.461C32.9258 249.008 31.8945 249.281 30.7148 249.281ZM30.7148 247.148C31.7773 247.148 32.6133 246.758 33.2227 245.977C33.832 245.195 34.1367 244.148 34.1367 242.836C34.1367 241.508 33.8281 240.449 33.2109 239.66C32.6016 238.871 31.7695 238.477 30.7148 238.477C29.6602 238.477 28.8242 238.871 28.207 239.66C27.5977 240.441 27.293 241.5 27.293 242.836C27.293 244.156 27.5977 245.207 28.207 245.988C28.8164 246.762 29.6523 247.148 30.7148 247.148ZM38.8242 249V236.625H41.2969V246.785H47.0859V236.625H49.5586V249H38.8242ZM48.7148 252.75V249H47.8008V246.727H51.2109L51.1641 252.75H48.7148ZM58.2656 249.281C57.0391 249.281 55.9844 249.004 55.1016 248.449C54.2266 247.895 53.5508 247.133 53.0742 246.164C52.6055 245.188 52.3711 244.078 52.3711 242.836C52.3711 241.578 52.6172 240.461 53.1094 239.484C53.6016 238.508 54.2812 237.742 55.1484 237.188C56.0156 236.625 57.0117 236.344 58.1367 236.344C59.3086 236.344 60.3242 236.617 61.1836 237.164C62.0508 237.711 62.7227 238.473 63.1992 239.449C63.6758 240.418 63.9141 241.539 63.9141 242.812V243.48H54.8086C54.8555 244.598 55.1758 245.5 55.7695 246.188C56.3711 246.875 57.2148 247.219 58.3008 247.219C59.1133 247.219 59.7812 247.035 60.3047 246.668C60.8281 246.301 61.1758 245.824 61.3477 245.238H63.7266C63.5781 246.035 63.2461 246.738 62.7305 247.348C62.2227 247.957 61.582 248.434 60.8086 248.777C60.043 249.113 59.1953 249.281 58.2656 249.281ZM54.832 241.605H61.5C61.3984 240.621 61.0508 239.844 60.457 239.273C59.8633 238.695 59.0977 238.406 58.1602 238.406C57.2227 238.406 56.457 238.695 55.8633 239.273C55.2773 239.844 54.9336 240.621 54.832 241.605ZM68.5312 236.625V241.699H74.4492V236.625H76.9219V249H74.4492V243.914H68.5312V249H66.0586V236.625H68.5312ZM79.7227 249V236.625H82.1953V241.805H83.4141L87.8438 236.625H90.8906L85.8164 242.625L90.9609 249H87.9023L83.8711 244.02H82.1953V249H79.7227ZM96.0586 249.199C94.8242 249.199 93.8008 248.887 92.9883 248.262C92.1758 247.629 91.7695 246.695 91.7695 245.461C91.7695 244.523 92 243.805 92.4609 243.305C92.9297 242.797 93.5352 242.434 94.2773 242.215C95.0273 241.996 95.8203 241.836 96.6562 241.734C97.4297 241.641 98.043 241.562 98.4961 241.5C98.9492 241.438 99.2695 241.344 99.457 241.219C99.6523 241.094 99.75 240.879 99.75 240.574V240.469C99.75 239.867 99.5312 239.375 99.0938 238.992C98.6562 238.602 98.043 238.406 97.2539 238.406C96.4648 238.406 95.8203 238.598 95.3203 238.98C94.8203 239.355 94.5469 239.828 94.5 240.398H92.0742C92.1289 239.219 92.625 238.254 93.5625 237.504C94.5 236.754 95.7422 236.379 97.2891 236.379C98.8125 236.379 100.012 236.754 100.887 237.504C101.762 238.254 102.199 239.258 102.199 240.516V249H99.7617V247.242H99.7148C99.457 247.742 99.0469 248.195 98.4844 248.602C97.9297 249 97.1211 249.199 96.0586 249.199ZM96.5625 247.207C97.6562 247.207 98.4609 246.926 98.9766 246.363C99.5 245.793 99.7617 245.129 99.7617 244.371V242.918C99.5977 243.051 99.2266 243.172 98.6484 243.281C98.0703 243.383 97.4531 243.48 96.7969 243.574C96.1172 243.676 95.5195 243.867 95.0039 244.148C94.4883 244.43 94.2305 244.883 94.2305 245.508C94.2305 246.039 94.4375 246.457 94.8516 246.762C95.2734 247.059 95.8438 247.207 96.5625 247.207ZM116.297 253.465V249.281C115.086 249.266 114.012 248.984 113.074 248.438C112.145 247.883 111.414 247.125 110.883 246.164C110.359 245.195 110.098 244.082 110.098 242.824C110.098 241.566 110.359 240.453 110.883 239.484C111.414 238.516 112.145 237.754 113.074 237.199C114.012 236.645 115.086 236.359 116.297 236.344V231.539H118.781V236.344C119.992 236.359 121.062 236.645 121.992 237.199C122.93 237.754 123.66 238.516 124.184 239.484C124.715 240.453 124.98 241.566 124.98 242.824C124.98 244.082 124.715 245.195 124.184 246.164C123.66 247.125 122.93 247.883 121.992 248.438C121.062 248.984 119.992 249.266 118.781 249.281V253.465H116.297ZM118.781 247.125C119.906 247.125 120.805 246.738 121.477 245.965C122.148 245.184 122.484 244.141 122.484 242.836C122.484 241.523 122.148 240.473 121.477 239.684C120.805 238.895 119.906 238.5 118.781 238.5V247.125ZM116.297 247.125V238.5C115.172 238.5 114.277 238.895 113.613 239.684C112.949 240.473 112.617 241.523 112.617 242.836C112.617 244.141 112.949 245.184 113.613 245.965C114.277 246.738 115.172 247.125 116.297 247.125ZM126.855 253.898V251.812H128.191C128.582 251.812 128.898 251.699 129.141 251.473C129.391 251.254 129.609 250.891 129.797 250.383L130.359 248.918L125.578 236.625H128.227L130.699 243.41C130.863 243.871 131.023 244.336 131.18 244.805C131.336 245.266 131.488 245.727 131.637 246.188C131.785 245.727 131.938 245.266 132.094 244.805C132.258 244.336 132.422 243.871 132.586 243.41L135.023 236.625H137.637L132.012 251.168C131.316 252.988 130.121 253.898 128.426 253.898H126.855ZM141.797 236.625V241.699H147.715V236.625H150.188V249H147.715V243.914H141.797V249H139.324V236.625H141.797ZM152.988 249V236.625H155.461V241.805H156.68L161.109 236.625H164.156L159.082 242.625L164.227 249H161.168L157.137 244.02H155.461V249H152.988ZM165.551 249V236.625H168.023V246.785H173.812V236.625H176.285V249H165.551ZM175.441 252.75V249H174.527V246.727H177.938L177.891 252.75H175.441ZM190.57 249H188.109V240.363H188.086L182.027 249H179.707V236.625H182.168V245.262H182.191L188.238 236.625H190.57V249ZM204.234 249H201.773V240.363H201.75L195.691 249H193.371V236.625H195.832V245.262H195.855L201.902 236.625H204.234V249ZM36.1289 260.625V273H33.6562V262.84H27.8672V273H25.3945V260.625H36.1289ZM44.2383 273.281C43.0586 273.281 42.0234 273.008 41.1328 272.461C40.2422 271.914 39.5469 271.156 39.0469 270.188C38.5547 269.219 38.3086 268.102 38.3086 266.836C38.3086 265.555 38.5547 264.43 39.0469 263.461C39.5469 262.484 40.2422 261.723 41.1328 261.176C42.0234 260.621 43.0586 260.344 44.2383 260.344C45.418 260.344 46.4492 260.621 47.332 261.176C48.2227 261.723 48.9141 262.484 49.4062 263.461C49.9062 264.43 50.1562 265.555 50.1562 266.836C50.1562 268.102 49.9062 269.219 49.4062 270.188C48.9141 271.156 48.2227 271.914 47.332 272.461C46.4492 273.008 45.418 273.281 44.2383 273.281ZM44.2383 271.148C45.3008 271.148 46.1367 270.758 46.7461 269.977C47.3555 269.195 47.6602 268.148 47.6602 266.836C47.6602 265.508 47.3516 264.449 46.7344 263.66C46.125 262.871 45.293 262.477 44.2383 262.477C43.1836 262.477 42.3477 262.871 41.7305 263.66C41.1211 264.441 40.8164 265.5 40.8164 266.836C40.8164 268.156 41.1211 269.207 41.7305 269.988C42.3398 270.762 43.1758 271.148 44.2383 271.148ZM51.1406 273V270.82H51.6328C52.125 270.82 52.5117 270.707 52.793 270.48C53.0742 270.254 53.2812 269.809 53.4141 269.145C53.5469 268.473 53.6406 267.469 53.6953 266.133L53.9297 260.625H63.1289V273H60.6562V262.793H56.2969L56.0977 266.836C55.9883 268.992 55.6406 270.559 55.0547 271.535C54.4688 272.512 53.4688 273 52.0547 273H51.1406ZM68.3906 264.762H71.6367C73.0664 264.762 74.2188 265.137 75.0938 265.887C75.9688 266.637 76.4062 267.621 76.4062 268.84C76.4062 270.082 75.9688 271.086 75.0938 271.852C74.2188 272.617 73.0664 273 71.6367 273H65.918V260.625H68.3906V264.762ZM68.3906 266.918V270.832H71.543C72.293 270.832 72.8828 270.652 73.3125 270.293C73.75 269.934 73.9688 269.449 73.9688 268.84C73.9688 268.246 73.75 267.777 73.3125 267.434C72.8828 267.09 72.293 266.918 71.543 266.918H68.3906ZM82.9336 273.188C81.918 273.188 81.0391 273.016 80.2969 272.672C79.5625 272.32 78.9922 271.852 78.5859 271.266C78.1875 270.672 77.9844 270.004 77.9766 269.262H80.4141C80.4297 269.855 80.6641 270.324 81.1172 270.668C81.5781 271.004 82.1719 271.172 82.8984 271.172C83.6406 271.172 84.2422 271.008 84.7031 270.68C85.1719 270.344 85.4062 269.91 85.4062 269.379C85.4062 268.832 85.1641 268.387 84.6797 268.043C84.1953 267.691 83.5312 267.516 82.6875 267.516H81.7266V265.77H82.6875C83.3984 265.77 83.9727 265.609 84.4102 265.289C84.8555 264.969 85.0781 264.547 85.0781 264.023C85.0781 263.508 84.8789 263.094 84.4805 262.781C84.0898 262.469 83.5703 262.312 82.9219 262.312C82.2656 262.312 81.7148 262.473 81.2695 262.793C80.832 263.105 80.6094 263.539 80.6016 264.094H78.2461C78.2539 263.367 78.4609 262.723 78.8672 262.16C79.2734 261.598 79.8242 261.156 80.5195 260.836C81.2227 260.516 82.0273 260.355 82.9336 260.355C83.8242 260.355 84.6055 260.512 85.2773 260.824C85.957 261.129 86.4844 261.543 86.8594 262.066C87.2422 262.582 87.4336 263.164 87.4336 263.812C87.4336 264.508 87.2109 265.102 86.7656 265.594C86.3281 266.078 85.7344 266.395 84.9844 266.543V266.566C85.9062 266.684 86.6211 267.016 87.1289 267.562C87.6367 268.109 87.8906 268.766 87.8906 269.531C87.8906 270.234 87.6758 270.863 87.2461 271.418C86.8242 271.965 86.2383 272.398 85.4883 272.719C84.7461 273.031 83.8945 273.188 82.9336 273.188ZM95.332 273.281C94.1523 273.281 93.1172 273.008 92.2266 272.461C91.3359 271.914 90.6406 271.156 90.1406 270.188C89.6484 269.219 89.4023 268.102 89.4023 266.836C89.4023 265.555 89.6484 264.43 90.1406 263.461C90.6406 262.484 91.3359 261.723 92.2266 261.176C93.1172 260.621 94.1523 260.344 95.332 260.344C96.5117 260.344 97.543 260.621 98.4258 261.176C99.3164 261.723 100.008 262.484 100.5 263.461C101 264.43 101.25 265.555 101.25 266.836C101.25 268.102 101 269.219 100.5 270.188C100.008 271.156 99.3164 271.914 98.4258 272.461C97.543 273.008 96.5117 273.281 95.332 273.281ZM95.332 271.148C96.3945 271.148 97.2305 270.758 97.8398 269.977C98.4492 269.195 98.7539 268.148 98.7539 266.836C98.7539 265.508 98.4453 264.449 97.8281 263.66C97.2188 262.871 96.3867 262.477 95.332 262.477C94.2773 262.477 93.4414 262.871 92.8242 263.66C92.2148 264.441 91.9102 265.5 91.9102 266.836C91.9102 268.156 92.2148 269.207 92.8242 269.988C93.4336 270.762 94.2695 271.148 95.332 271.148ZM103.441 273V260.625H108.691C110.168 260.625 111.336 260.902 112.195 261.457C113.055 262.012 113.484 262.828 113.484 263.906C113.484 264.633 113.277 265.215 112.863 265.652C112.457 266.082 111.887 266.363 111.152 266.496C111.957 266.598 112.625 266.898 113.156 267.398C113.695 267.891 113.965 268.59 113.965 269.496C113.965 270.559 113.582 271.41 112.816 272.051C112.051 272.684 110.957 273 109.535 273H103.441ZM105.785 270.891H109.477C110.125 270.891 110.625 270.754 110.977 270.48C111.328 270.207 111.504 269.816 111.504 269.309C111.504 268.746 111.328 268.312 110.977 268.008C110.625 267.703 110.125 267.551 109.477 267.551H105.785V270.891ZM105.785 265.758H108.797C109.516 265.758 110.07 265.621 110.461 265.348C110.852 265.066 111.047 264.672 111.047 264.164C111.047 263.695 110.84 263.336 110.426 263.086C110.02 262.828 109.441 262.699 108.691 262.699H105.785V265.758ZM119.918 273.199C118.684 273.199 117.66 272.887 116.848 272.262C116.035 271.629 115.629 270.695 115.629 269.461C115.629 268.523 115.859 267.805 116.32 267.305C116.789 266.797 117.395 266.434 118.137 266.215C118.887 265.996 119.68 265.836 120.516 265.734C121.289 265.641 121.902 265.562 122.355 265.5C122.809 265.438 123.129 265.344 123.316 265.219C123.512 265.094 123.609 264.879 123.609 264.574V264.469C123.609 263.867 123.391 263.375 122.953 262.992C122.516 262.602 121.902 262.406 121.113 262.406C120.324 262.406 119.68 262.598 119.18 262.98C118.68 263.355 118.406 263.828 118.359 264.398H115.934C115.988 263.219 116.484 262.254 117.422 261.504C118.359 260.754 119.602 260.379 121.148 260.379C122.672 260.379 123.871 260.754 124.746 261.504C125.621 262.254 126.059 263.258 126.059 264.516V273H123.621V271.242H123.574C123.316 271.742 122.906 272.195 122.344 272.602C121.789 273 120.98 273.199 119.918 273.199ZM120.422 271.207C121.516 271.207 122.32 270.926 122.836 270.363C123.359 269.793 123.621 269.129 123.621 268.371V266.918C123.457 267.051 123.086 267.172 122.508 267.281C121.93 267.383 121.312 267.48 120.656 267.574C119.977 267.676 119.379 267.867 118.863 268.148C118.348 268.43 118.09 268.883 118.09 269.508C118.09 270.039 118.297 270.457 118.711 270.762C119.133 271.059 119.703 271.207 120.422 271.207ZM131.906 273V262.781H127.641V260.625H138.633V262.781H134.379V273H131.906ZM145.312 273.281C144.086 273.281 143.031 273.004 142.148 272.449C141.273 271.895 140.598 271.133 140.121 270.164C139.652 269.188 139.418 268.078 139.418 266.836C139.418 265.578 139.664 264.461 140.156 263.484C140.648 262.508 141.328 261.742 142.195 261.188C143.062 260.625 144.059 260.344 145.184 260.344C146.355 260.344 147.371 260.617 148.23 261.164C149.098 261.711 149.77 262.473 150.246 263.449C150.723 264.418 150.961 265.539 150.961 266.812V267.48H141.855C141.902 268.598 142.223 269.5 142.816 270.188C143.418 270.875 144.262 271.219 145.348 271.219C146.16 271.219 146.828 271.035 147.352 270.668C147.875 270.301 148.223 269.824 148.395 269.238H150.773C150.625 270.035 150.293 270.738 149.777 271.348C149.27 271.957 148.629 272.434 147.855 272.777C147.09 273.113 146.242 273.281 145.312 273.281ZM141.879 265.605H148.547C148.445 264.621 148.098 263.844 147.504 263.273C146.91 262.695 146.145 262.406 145.207 262.406C144.27 262.406 143.504 262.695 142.91 263.273C142.324 263.844 141.98 264.621 141.879 265.605ZM151.898 273V270.82H152.391C152.883 270.82 153.27 270.707 153.551 270.48C153.832 270.254 154.039 269.809 154.172 269.145C154.305 268.473 154.398 267.469 154.453 266.133L154.688 260.625H163.887V273H161.414V262.793H157.055L156.855 266.836C156.746 268.992 156.398 270.559 155.812 271.535C155.227 272.512 154.227 273 152.812 273H151.898ZM176.695 273H174.27V268.547H171.188L168.305 273H165.516L168.691 268.207C167.855 267.926 167.211 267.484 166.758 266.883C166.312 266.281 166.09 265.535 166.09 264.645C166.09 263.363 166.516 262.375 167.367 261.68C168.227 260.977 169.434 260.625 170.988 260.625H176.695V273ZM174.27 266.602V262.699H171.258C170.312 262.699 169.621 262.855 169.184 263.168C168.746 263.48 168.527 263.977 168.527 264.656C168.527 265.344 168.754 265.84 169.207 266.145C169.66 266.449 170.367 266.602 171.328 266.602H174.27ZM179.496 273V260.625H183.211L186.012 267.293C186.215 267.809 186.398 268.312 186.562 268.805C186.727 269.289 186.891 269.758 187.055 270.211C187.211 269.758 187.371 269.289 187.535 268.805C187.699 268.312 187.883 267.809 188.086 267.293L190.863 260.625H194.578V273H192.129V267.293C192.129 266.426 192.133 265.672 192.141 265.031C192.148 264.383 192.156 263.742 192.164 263.109C191.914 263.766 191.66 264.434 191.402 265.113C191.152 265.785 190.871 266.508 190.559 267.281L188.098 273H185.977L183.504 267.281C183.191 266.531 182.906 265.828 182.648 265.172C182.398 264.508 182.152 263.859 181.91 263.227C181.918 263.836 181.926 264.457 181.934 265.09C181.941 265.715 181.945 266.449 181.945 267.293V273H179.496ZM208.242 273H205.781V264.363H205.758L199.699 273H197.379V260.625H199.84V269.262H199.863L205.91 260.625H208.242V273Z" fill="#FF36C9"/>
<path d="M19.8665 123.066V103.097L74.9086 24.9806H106.541V103.013H122.903V123.066H106.541V150H82.2923V123.066H19.8665ZM82.2923 103.013V49.6488H82.1245L44.7865 102.845V103.013H82.2923ZM137.885 151.51C133.969 151.51 130.613 150.14 127.816 147.399C125.075 144.602 123.705 141.218 123.705 137.246C123.705 133.331 125.075 129.975 127.816 127.178C130.613 124.381 133.969 122.982 137.885 122.982C141.856 122.982 145.213 124.381 147.954 127.178C150.75 129.975 152.149 133.331 152.149 137.246C152.149 141.218 150.75 144.602 147.954 147.399C145.213 150.14 141.856 151.51 137.885 151.51ZM161.006 150L213.447 46.6282V46.4604H152.448V24.9806H239.458V46.2087L187.184 150H161.006Z" fill="#FF36C9"/>
<rect x="164.869" y="157.551" width="115.637" height="54.9549" rx="11.719" transform="rotate(8.23209 164.869 157.551)" fill="#FF36C9"/>
<path d="M195.798 204.507L190.927 203.803L193.4 186.707L193.353 186.701L178.888 202.061L174.295 201.397L177.839 176.902L182.71 177.606L180.237 194.702L180.283 194.708L194.726 179.345L199.342 180.012L195.798 204.507ZM209.87 206.922C207.86 206.631 206.17 206.04 204.799 205.147C203.446 204.24 202.451 203.149 201.815 201.873C201.196 200.584 200.986 199.203 201.183 197.732L206.008 198.43C205.868 199.61 206.198 200.605 206.997 201.415C207.813 202.212 208.94 202.714 210.378 202.923C211.847 203.135 213.085 202.983 214.091 202.465C215.115 201.934 215.703 201.143 215.855 200.092C216.012 199.009 215.66 198.058 214.8 197.239C213.942 196.405 212.678 195.867 211.008 195.625L209.105 195.35L209.605 191.894L211.508 192.169C212.915 192.372 214.097 192.22 215.055 191.711C216.028 191.205 216.59 190.433 216.74 189.397C216.887 188.377 216.611 187.5 215.912 186.767C215.229 186.037 214.245 185.579 212.961 185.393C211.662 185.205 210.526 185.364 209.553 185.871C208.598 186.364 208.033 187.159 207.859 188.254L203.196 187.58C203.42 186.144 204.014 184.927 204.979 183.93C205.944 182.933 207.161 182.217 208.629 181.782C210.113 181.35 211.751 181.263 213.545 181.523C215.308 181.778 216.81 182.311 218.05 183.122C219.308 183.919 220.233 184.89 220.826 186.034C221.436 187.164 221.648 188.371 221.462 189.654C221.263 191.03 220.653 192.142 219.63 192.989C218.625 193.822 217.36 194.278 215.833 194.357L215.826 194.404C217.617 194.9 218.937 195.762 219.785 196.99C220.634 198.218 220.949 199.589 220.729 201.105C220.528 202.496 219.923 203.68 218.913 204.655C217.922 205.616 216.638 206.307 215.061 206.726C213.503 207.132 211.773 207.197 209.87 206.922ZM246.318 212.314C244.014 211.98 242.023 211.227 240.346 210.052C238.686 208.865 237.431 207.389 236.582 205.624C235.749 203.846 235.437 201.914 235.644 199.829L240.677 200.557C240.564 202.435 241.084 204.073 242.24 205.472C243.413 206.857 244.989 207.693 246.969 207.979C249.056 208.281 250.844 207.822 252.331 206.6C253.833 205.381 254.743 203.673 255.061 201.477C255.376 199.297 255.01 197.413 253.961 195.824C252.914 194.22 251.385 193.273 249.375 192.982C247.612 192.727 246.044 192.871 244.671 193.414C243.3 193.942 242.269 194.851 241.577 196.14L236.729 195.439L240.742 175.724L261.409 178.714L260.772 183.122L244.72 180.799L242.481 190.872L242.528 190.878C244.864 189.022 247.61 188.322 250.765 188.778C252.868 189.082 254.665 189.864 256.157 191.121C257.666 192.366 258.764 193.946 259.45 195.86C260.153 197.762 260.342 199.842 260.015 202.099C259.677 204.434 258.876 206.426 257.611 208.075C256.362 209.725 254.767 210.931 252.825 211.692C250.884 212.453 248.715 212.66 246.318 212.314Z" fill="white"/>
</svg>
