<svg width="300" height="300" viewBox="0 0 300 300" fill="none" xmlns="http://www.w3.org/2000/svg">
<rect width="300" height="300" fill="white"/>
<path d="M280.056 204.447V262.264C280.056 263.443 279.587 264.574 278.753 265.408C277.919 266.242 276.788 266.711 275.608 266.711C274.429 266.711 273.297 266.242 272.463 265.408C271.629 264.574 271.161 263.443 271.161 262.264V215.182L207.596 278.752C206.762 279.587 205.63 280.056 204.45 280.056C203.27 280.056 202.138 279.587 201.303 278.752C200.469 277.918 200 276.786 200 275.606C200 274.426 200.469 273.294 201.303 272.459L264.873 208.895H217.792C216.613 208.895 215.481 208.426 214.647 207.592C213.813 206.758 213.345 205.627 213.345 204.447C213.345 203.268 213.813 202.137 214.647 201.303C215.481 200.469 216.613 200 217.792 200H275.608C276.788 200 277.919 200.469 278.753 201.303C279.587 202.137 280.056 203.268 280.056 204.447Z" fill="#2A2A2E"/>
<path d="M21.1797 42V15.8086H31.1816C33.1035 15.8086 34.7617 16.1484 36.1562 16.8281C37.5625 17.5078 38.6406 18.4746 39.3906 19.7285C40.1523 20.9824 40.5332 22.4648 40.5332 24.1758C40.5332 25.8984 40.1465 27.3867 39.373 28.6406C38.5996 29.8945 37.5039 30.8672 36.0859 31.5586C34.6797 32.2383 33.0156 32.5781 31.0938 32.5781H25.8203V42H21.1797ZM25.8203 28.6055H30.918C32.4766 28.6055 33.707 28.2129 34.6094 27.4277C35.5117 26.6309 35.9629 25.5469 35.9629 24.1758C35.9629 22.8164 35.5117 21.7441 34.6094 20.959C33.707 20.1738 32.4766 19.7812 30.918 19.7812H25.8203V28.6055ZM50.7812 42.4219C48.9531 42.4219 47.3535 42.0176 45.9824 41.209C44.6113 40.3887 43.5391 39.252 42.7656 37.7988C42.0039 36.3457 41.623 34.6582 41.623 32.7363C41.623 30.8145 42.0039 29.127 42.7656 27.6738C43.5391 26.209 44.6113 25.0664 45.9824 24.2461C47.3535 23.4258 48.9531 23.0156 50.7812 23.0156C52.5977 23.0156 54.1914 23.4258 55.5625 24.2461C56.9453 25.0664 58.0176 26.209 58.7793 27.6738C59.5527 29.127 59.9395 30.8145 59.9395 32.7363C59.9395 34.6582 59.5527 36.3457 58.7793 37.7988C58.0176 39.252 56.9453 40.3887 55.5625 41.209C54.1914 42.0176 52.5977 42.4219 50.7812 42.4219ZM50.7812 38.7129C52.1992 38.7129 53.3301 38.1797 54.1738 37.1133C55.0176 36.0469 55.4395 34.5879 55.4395 32.7363C55.4395 30.8848 55.0176 29.4199 54.1738 28.3418C53.3301 27.2637 52.1992 26.7246 50.7812 26.7246C49.3516 26.7246 48.2148 27.2637 47.3711 28.3418C46.5273 29.4082 46.1055 30.873 46.1055 32.7363C46.1055 34.5879 46.5273 36.0469 47.3711 37.1133C48.2148 38.1797 49.3516 38.7129 50.7812 38.7129ZM71.2246 42.4219C69.4199 42.4219 67.832 42.0117 66.4609 41.1914C65.1016 40.3711 64.041 39.2344 63.2793 37.7812C62.5293 36.3281 62.1543 34.6465 62.1543 32.7363C62.1543 30.8262 62.5293 29.1445 63.2793 27.6914C64.041 26.2266 65.1016 25.084 66.4609 24.2637C67.832 23.4316 69.4199 23.0156 71.2246 23.0156C72.7832 23.0156 74.1719 23.3203 75.3906 23.9297C76.6094 24.5273 77.5879 25.3594 78.3262 26.4258C79.0762 27.4805 79.5156 28.6992 79.6445 30.082H75.3027C75.1387 29.0859 74.7109 28.2773 74.0195 27.6562C73.3398 27.0234 72.4258 26.707 71.2773 26.707C69.8242 26.707 68.6875 27.252 67.8672 28.3418C67.0469 29.4316 66.6367 30.8965 66.6367 32.7363C66.6367 34.5645 67.0469 36.0234 67.8672 37.1133C68.6875 38.1914 69.8242 38.7305 71.2773 38.7305C72.4375 38.7305 73.3398 38.4258 73.9844 37.8164C74.6289 37.1953 75.0566 36.3691 75.2676 35.3379H79.6445C79.5391 36.6973 79.1113 37.9102 78.3613 38.9766C77.623 40.043 76.6387 40.8867 75.4082 41.5078C74.1895 42.1172 72.7949 42.4219 71.2246 42.4219ZM87.2734 42V27.1992H80.9629V23.4375H97.9961V27.1992H91.7207V42H87.2734ZM21.1797 78V51.8086H31.3926C33.3145 51.8086 34.9727 52.1484 36.3672 52.8281C37.7734 53.5078 38.8574 54.4746 39.6191 55.7285C40.3809 56.9824 40.7617 58.4648 40.7617 60.1758C40.7617 61.957 40.3223 63.4863 39.4434 64.7637C38.5645 66.041 37.3457 66.9961 35.7871 67.6289L41.2539 78H36.1387L31.2168 68.4727C31.1816 68.4727 31.1406 68.4727 31.0938 68.4727H25.8203V78H21.1797ZM25.8203 64.6406H31.1641C32.7109 64.6406 33.9355 64.2422 34.8379 63.4453C35.7402 62.6367 36.1914 61.5469 36.1914 60.1758C36.1914 58.8164 35.7344 57.7383 34.8203 56.9414C33.918 56.1445 32.6875 55.7461 31.1289 55.7461H25.8203V64.6406ZM51.5195 78.4219C49.668 78.4219 48.0625 78.0059 46.7031 77.1738C45.3438 76.3418 44.2949 75.1992 43.5566 73.7461C42.8301 72.2812 42.4668 70.6113 42.4668 68.7363C42.4668 66.8496 42.8418 65.1797 43.5918 63.7266C44.3535 62.2617 45.4023 61.1133 46.7383 60.2812C48.0742 59.4375 49.6094 59.0156 51.3438 59.0156C53.125 59.0156 54.6836 59.4258 56.0195 60.2461C57.3555 61.0664 58.3926 62.2031 59.1309 63.6562C59.8691 65.0977 60.2383 66.7676 60.2383 68.666V69.8789H46.8086C46.8672 71.3906 47.3125 72.6094 48.1445 73.5352C48.9766 74.4609 50.1367 74.9238 51.625 74.9238C52.7383 74.9238 53.6582 74.6836 54.3848 74.2031C55.1113 73.7109 55.6035 73.0664 55.8613 72.2695H60.0098C59.7754 73.4766 59.2598 74.543 58.4629 75.4688C57.6777 76.3945 56.6875 77.1211 55.4922 77.6484C54.2969 78.1641 52.9727 78.4219 51.5195 78.4219ZM46.8438 66.8203H55.9844C55.8438 65.4961 55.3633 64.4531 54.543 63.6914C53.7344 62.918 52.6914 62.5312 51.4141 62.5312C50.125 62.5312 49.0762 62.918 48.2676 63.6914C47.4707 64.4531 46.9961 65.4961 46.8438 66.8203ZM73.0527 59.4375V63.0059H69.2734V72.6738C69.2734 73.3418 69.4082 73.8047 69.6777 74.0625C69.9473 74.3086 70.4395 74.4316 71.1543 74.4316H73.0527V78H70.3809C68.4941 78 67.0938 77.6191 66.1797 76.8574C65.2773 76.0957 64.8262 74.918 64.8262 73.3242V63.0059H61.5918V59.4375H64.8262V54.375H69.2734V59.4375H73.0527ZM83.7578 78.4219C81.9062 78.4219 80.3008 78.0059 78.9414 77.1738C77.582 76.3418 76.5332 75.1992 75.7949 73.7461C75.0684 72.2812 74.7051 70.6113 74.7051 68.7363C74.7051 66.8496 75.0801 65.1797 75.8301 63.7266C76.5918 62.2617 77.6406 61.1133 78.9766 60.2812C80.3125 59.4375 81.8477 59.0156 83.582 59.0156C85.3633 59.0156 86.9219 59.4258 88.2578 60.2461C89.5938 61.0664 90.6309 62.2031 91.3691 63.6562C92.1074 65.0977 92.4766 66.7676 92.4766 68.666V69.8789H79.0469C79.1055 71.3906 79.5508 72.6094 80.3828 73.5352C81.2148 74.4609 82.375 74.9238 83.8633 74.9238C84.9766 74.9238 85.8965 74.6836 86.623 74.2031C87.3496 73.7109 87.8418 73.0664 88.0996 72.2695H92.248C92.0137 73.4766 91.498 74.543 90.7012 75.4688C89.916 76.3945 88.9258 77.1211 87.7305 77.6484C86.5352 78.1641 85.2109 78.4219 83.7578 78.4219ZM79.082 66.8203H88.2227C88.082 65.4961 87.6016 64.4531 86.7812 63.6914C85.9727 62.918 84.9297 62.5312 83.6523 62.5312C82.3633 62.5312 81.3145 62.918 80.5059 63.6914C79.709 64.4531 79.2344 65.4961 79.082 66.8203ZM99.9297 67.5059V78H95.5V59.4375H99.8594V62.2852C101.148 60.1406 103.047 59.0684 105.555 59.0684C107.5 59.0684 109.088 59.6953 110.318 60.9492C111.561 62.2031 112.182 64.0195 112.182 66.3984V78H107.734V67.1016C107.734 65.7422 107.406 64.7109 106.75 64.0078C106.094 63.3047 105.174 62.9531 103.99 62.9531C102.83 62.9531 101.863 63.3164 101.09 64.043C100.316 64.7695 99.9297 65.9238 99.9297 67.5059ZM125.928 59.4375V63.0059H122.148V72.6738C122.148 73.3418 122.283 73.8047 122.553 74.0625C122.822 74.3086 123.314 74.4316 124.029 74.4316H125.928V78H123.256C121.369 78 119.969 77.6191 119.055 76.8574C118.152 76.0957 117.701 74.918 117.701 73.3242V63.0059H114.467V59.4375H117.701V54.375H122.148V59.4375H125.928ZM128.723 78V59.4375H133.152V78H128.723ZM130.938 56.6777C130.176 56.6777 129.543 56.4375 129.039 55.957C128.535 55.4648 128.283 54.8613 128.283 54.1465C128.283 53.4316 128.535 52.834 129.039 52.3535C129.543 51.873 130.176 51.6328 130.938 51.6328C131.688 51.6328 132.314 51.873 132.818 52.3535C133.322 52.834 133.574 53.4316 133.574 54.1465C133.574 54.8613 133.322 55.4648 132.818 55.957C132.314 56.4375 131.688 56.6777 130.938 56.6777ZM145.387 78.4219C143.559 78.4219 141.959 78.0176 140.588 77.209C139.217 76.3887 138.145 75.252 137.371 73.7988C136.609 72.3457 136.229 70.6582 136.229 68.7363C136.229 66.8145 136.609 65.127 137.371 63.6738C138.145 62.209 139.217 61.0664 140.588 60.2461C141.959 59.4258 143.559 59.0156 145.387 59.0156C147.203 59.0156 148.797 59.4258 150.168 60.2461C151.551 61.0664 152.623 62.209 153.385 63.6738C154.158 65.127 154.545 66.8145 154.545 68.7363C154.545 70.6582 154.158 72.3457 153.385 73.7988C152.623 75.252 151.551 76.3887 150.168 77.209C148.797 78.0176 147.203 78.4219 145.387 78.4219ZM145.387 74.7129C146.805 74.7129 147.936 74.1797 148.779 73.1133C149.623 72.0469 150.045 70.5879 150.045 68.7363C150.045 66.8848 149.623 65.4199 148.779 64.3418C147.936 63.2637 146.805 62.7246 145.387 62.7246C143.957 62.7246 142.82 63.2637 141.977 64.3418C141.133 65.4082 140.711 66.873 140.711 68.7363C140.711 70.5879 141.133 72.0469 141.977 73.1133C142.82 74.1797 143.957 74.7129 145.387 74.7129ZM162.051 67.5059V78H157.621V59.4375H161.98V62.2852C163.27 60.1406 165.168 59.0684 167.676 59.0684C169.621 59.0684 171.209 59.6953 172.439 60.9492C173.682 62.2031 174.303 64.0195 174.303 66.3984V78H169.855V67.1016C169.855 65.7422 169.527 64.7109 168.871 64.0078C168.215 63.3047 167.295 62.9531 166.111 62.9531C164.951 62.9531 163.984 63.3164 163.211 64.043C162.438 64.7695 162.051 65.9238 162.051 67.5059Z" fill="#2A2A2E"/>
<path d="M26.0723 113.438V112.262C25.1562 112.239 24.3656 112.05 23.7002 111.694C23.0348 111.334 22.5199 110.833 22.1553 110.19C21.7952 109.543 21.6152 108.782 21.6152 107.907C21.6152 107.032 21.7952 106.273 22.1553 105.631C22.5199 104.984 23.0348 104.482 23.7002 104.127C24.3656 103.767 25.1562 103.576 26.0723 103.553V102.377H27.2754V103.553C28.1914 103.576 28.9821 103.767 29.6475 104.127C30.3128 104.482 30.8255 104.984 31.1855 105.631C31.5501 106.273 31.7324 107.032 31.7324 107.907C31.7324 108.782 31.5501 109.543 31.1855 110.19C30.8255 110.833 30.3128 111.334 29.6475 111.694C28.9821 112.05 28.1914 112.239 27.2754 112.262V113.438H26.0723ZM27.2754 104.694V111.12C28.319 111.088 29.1211 110.794 29.6816 110.238C30.2467 109.682 30.5293 108.905 30.5293 107.907C30.5293 106.909 30.2467 106.132 29.6816 105.576C29.1211 105.02 28.319 104.726 27.2754 104.694ZM26.0723 111.12V104.694C25.0286 104.726 24.2243 105.02 23.6592 105.576C23.0986 106.132 22.8184 106.909 22.8184 107.907C22.8184 108.905 23.0986 109.682 23.6592 110.238C24.2243 110.794 25.0286 111.088 26.0723 111.12ZM33.2637 115.857V114.832H33.9746C34.403 114.832 34.7288 114.543 34.9521 113.964L35.3486 112.938L32.5527 105.781H33.8105L35.3691 109.938C35.4694 110.206 35.5674 110.478 35.6631 110.751C35.7633 111.02 35.859 111.289 35.9502 111.558C36.0459 111.289 36.1416 111.02 36.2373 110.751C36.3376 110.478 36.4378 110.206 36.5381 109.938L38.0693 105.781H39.3066L35.9775 114.34C35.7907 114.823 35.5241 115.197 35.1777 115.461C34.8314 115.725 34.4303 115.857 33.9746 115.857H33.2637ZM41.5352 105.781V108.844H45.2539V105.781H46.416V113H45.2539V109.938H41.5352V113H40.373V105.781H41.5352ZM48.1387 113V105.781H49.3008V108.898H50.0801L52.8486 105.781H54.332L51.2559 109.268L54.373 113H52.8965L50.3809 109.992H49.3008V113H48.1387ZM55.207 113V105.781H56.3691V111.906H60.0469V105.781H61.209V113H55.207ZM60.9697 115.188V113H60.4639V111.906H62.1318V115.188H60.9697ZM69.1797 113H68.0176V107.62H67.9971L64.2988 113H63.1367V105.781H64.2988V111.168H64.3193L68.0176 105.781H69.1797V113ZM73.8828 113.164C73.1764 113.164 72.5726 113.002 72.0713 112.679C71.5745 112.355 71.194 111.911 70.9297 111.346C70.6654 110.776 70.5332 110.129 70.5332 109.404C70.5332 108.671 70.6722 108.019 70.9502 107.449C71.2282 106.88 71.6133 106.433 72.1055 106.109C72.5977 105.781 73.1628 105.617 73.8008 105.617C74.4707 105.617 75.0518 105.777 75.5439 106.096C76.0361 106.415 76.4144 106.859 76.6787 107.429C76.9476 107.998 77.082 108.657 77.082 109.404V109.726H71.6816C71.709 110.432 71.9118 111.006 72.29 111.448C72.6683 111.89 73.1992 112.111 73.8828 112.111C74.3978 112.111 74.8171 111.993 75.1406 111.756C75.4688 111.519 75.6875 111.214 75.7969 110.84H76.959C76.8678 111.3 76.6787 111.706 76.3916 112.057C76.1045 112.403 75.7445 112.674 75.3115 112.87C74.8831 113.066 74.4069 113.164 73.8828 113.164ZM71.6953 108.728H75.9199C75.8561 108.094 75.6351 107.59 75.2568 107.217C74.8786 106.843 74.3932 106.656 73.8008 106.656C73.2083 106.656 72.7253 106.843 72.3516 107.217C71.9779 107.59 71.7591 108.094 71.6953 108.728ZM84.4512 113H83.2891V107.62H83.2686L79.5703 113H78.4082V105.781H79.5703V111.168H79.5908L83.2891 105.781H84.4512V113ZM81.4297 104.729C81.0651 104.729 80.7347 104.644 80.4385 104.476C80.1468 104.302 79.9144 104.072 79.7412 103.785C79.568 103.493 79.4814 103.17 79.4814 102.814H80.3564C80.3564 103.129 80.4567 103.386 80.6572 103.587C80.8577 103.783 81.1152 103.881 81.4297 103.881C81.7441 103.881 82.0016 103.783 82.2021 103.587C82.4027 103.386 82.5029 103.129 82.5029 102.814H83.3779C83.3779 103.17 83.2913 103.493 83.1182 103.785C82.945 104.072 82.7103 104.302 82.4141 104.476C82.1224 104.644 81.7943 104.729 81.4297 104.729ZM95.6758 105.781V113H94.5137V106.875H90.8359V113H89.6738V105.781H95.6758ZM97.3984 115.857V105.781H98.5332V106.848H98.5469C98.7793 106.442 99.1006 106.141 99.5107 105.945C99.9209 105.745 100.361 105.645 100.83 105.645C101.459 105.645 102.008 105.802 102.478 106.116C102.947 106.431 103.312 106.87 103.571 107.436C103.831 107.996 103.961 108.648 103.961 109.391C103.961 110.129 103.831 110.781 103.571 111.346C103.312 111.906 102.947 112.346 102.478 112.665C102.008 112.979 101.459 113.137 100.83 113.137C100.361 113.137 99.9323 113.036 99.5449 112.836C99.1576 112.631 98.834 112.321 98.5742 111.906H98.5605V115.857H97.3984ZM100.652 112.091C101.277 112.091 101.787 111.863 102.184 111.407C102.585 110.947 102.785 110.275 102.785 109.391C102.785 108.507 102.585 107.834 102.184 107.374C101.787 106.914 101.277 106.684 100.652 106.684C99.9824 106.684 99.4492 106.932 99.0527 107.429C98.6608 107.921 98.4648 108.575 98.4648 109.391C98.4648 110.206 98.6608 110.86 99.0527 111.353C99.4492 111.845 99.9824 112.091 100.652 112.091ZM108.295 113.164C107.63 113.164 107.044 113.005 106.538 112.686C106.037 112.362 105.645 111.918 105.362 111.353C105.084 110.787 104.945 110.138 104.945 109.404C104.945 108.666 105.084 108.012 105.362 107.442C105.645 106.873 106.037 106.426 106.538 106.103C107.044 105.779 107.63 105.617 108.295 105.617C108.965 105.617 109.55 105.779 110.052 106.103C110.553 106.426 110.943 106.873 111.221 107.442C111.503 108.012 111.645 108.666 111.645 109.404C111.645 110.138 111.503 110.787 111.221 111.353C110.943 111.918 110.553 112.362 110.052 112.686C109.55 113.005 108.965 113.164 108.295 113.164ZM108.295 112.111C108.979 112.111 109.512 111.865 109.895 111.373C110.277 110.876 110.469 110.22 110.469 109.404C110.469 108.579 110.275 107.919 109.888 107.422C109.505 106.921 108.974 106.67 108.295 106.67C107.616 106.67 107.083 106.918 106.695 107.415C106.312 107.912 106.121 108.575 106.121 109.404C106.121 110.225 106.312 110.881 106.695 111.373C107.078 111.865 107.611 112.111 108.295 112.111ZM115.979 113.164C115.313 113.164 114.728 113.005 114.222 112.686C113.72 112.362 113.328 111.918 113.046 111.353C112.768 110.787 112.629 110.138 112.629 109.404C112.629 108.666 112.768 108.012 113.046 107.442C113.328 106.873 113.72 106.426 114.222 106.103C114.728 105.779 115.313 105.617 115.979 105.617C116.525 105.617 117.015 105.727 117.448 105.945C117.881 106.16 118.234 106.456 118.508 106.834C118.786 107.212 118.957 107.645 119.021 108.133H117.845C117.758 107.709 117.558 107.36 117.243 107.087C116.933 106.809 116.512 106.67 115.979 106.67C115.299 106.67 114.766 106.918 114.379 107.415C113.996 107.912 113.805 108.575 113.805 109.404C113.805 110.225 113.996 110.881 114.379 111.373C114.762 111.865 115.295 112.111 115.979 112.111C116.521 112.111 116.936 111.979 117.223 111.715C117.51 111.446 117.71 111.09 117.824 110.648H119.021C118.957 111.122 118.786 111.551 118.508 111.934C118.234 112.312 117.879 112.613 117.441 112.836C117.008 113.055 116.521 113.164 115.979 113.164ZM120.326 113V105.781H122.069L123.942 110.047C124.065 110.329 124.177 110.596 124.277 110.847C124.378 111.093 124.476 111.339 124.571 111.585C124.672 111.339 124.77 111.093 124.865 110.847C124.965 110.596 125.077 110.329 125.2 110.047L127.06 105.781H128.803V113H127.641V109.35C127.641 108.835 127.643 108.409 127.647 108.071C127.652 107.734 127.657 107.397 127.661 107.06C127.515 107.41 127.367 107.768 127.217 108.133C127.071 108.493 126.9 108.894 126.704 109.336L125.077 113H124.052L122.411 109.336C122.22 108.912 122.051 108.525 121.905 108.174C121.759 107.818 121.614 107.472 121.468 107.135C121.472 107.458 121.477 107.784 121.481 108.112C121.486 108.44 121.488 108.853 121.488 109.35V113H120.326ZM133.506 113.164C132.84 113.164 132.255 113.005 131.749 112.686C131.248 112.362 130.856 111.918 130.573 111.353C130.295 110.787 130.156 110.138 130.156 109.404C130.156 108.666 130.295 108.012 130.573 107.442C130.856 106.873 131.248 106.426 131.749 106.103C132.255 105.779 132.84 105.617 133.506 105.617C134.176 105.617 134.761 105.779 135.263 106.103C135.764 106.426 136.154 106.873 136.432 107.442C136.714 108.012 136.855 108.666 136.855 109.404C136.855 110.138 136.714 110.787 136.432 111.353C136.154 111.918 135.764 112.362 135.263 112.686C134.761 113.005 134.176 113.164 133.506 113.164ZM133.506 112.111C134.189 112.111 134.723 111.865 135.105 111.373C135.488 110.876 135.68 110.22 135.68 109.404C135.68 108.579 135.486 107.919 135.099 107.422C134.716 106.921 134.185 106.67 133.506 106.67C132.827 106.67 132.294 106.918 131.906 107.415C131.523 107.912 131.332 108.575 131.332 109.404C131.332 110.225 131.523 110.881 131.906 111.373C132.289 111.865 132.822 112.111 133.506 112.111ZM139.973 113V106.834H137.45V105.781H143.644V106.834H141.135V113H139.973ZM144.607 115.857V105.781H145.742V106.848H145.756C145.988 106.442 146.31 106.141 146.72 105.945C147.13 105.745 147.57 105.645 148.039 105.645C148.668 105.645 149.217 105.802 149.687 106.116C150.156 106.431 150.521 106.87 150.78 107.436C151.04 107.996 151.17 108.648 151.17 109.391C151.17 110.129 151.04 110.781 150.78 111.346C150.521 111.906 150.156 112.346 149.687 112.665C149.217 112.979 148.668 113.137 148.039 113.137C147.57 113.137 147.141 113.036 146.754 112.836C146.367 112.631 146.043 112.321 145.783 111.906H145.77V115.857H144.607ZM147.861 112.091C148.486 112.091 148.996 111.863 149.393 111.407C149.794 110.947 149.994 110.275 149.994 109.391C149.994 108.507 149.794 107.834 149.393 107.374C148.996 106.914 148.486 106.684 147.861 106.684C147.191 106.684 146.658 106.932 146.262 107.429C145.87 107.921 145.674 108.575 145.674 109.391C145.674 110.206 145.87 110.86 146.262 111.353C146.658 111.845 147.191 112.091 147.861 112.091ZM154.793 113.109C154.077 113.109 153.478 112.925 152.995 112.556C152.517 112.187 152.277 111.642 152.277 110.922C152.277 110.507 152.357 110.17 152.517 109.91C152.681 109.65 152.897 109.448 153.166 109.302C153.439 109.151 153.747 109.037 154.089 108.96C154.435 108.882 154.788 108.821 155.148 108.775C155.609 108.712 155.971 108.664 156.235 108.632C156.5 108.6 156.687 108.548 156.796 108.475C156.91 108.402 156.967 108.274 156.967 108.092V108.023C156.967 107.632 156.826 107.308 156.543 107.053C156.265 106.798 155.873 106.67 155.367 106.67C154.866 106.67 154.453 106.793 154.13 107.039C153.811 107.281 153.638 107.581 153.61 107.941H152.428C152.451 107.499 152.587 107.107 152.838 106.766C153.089 106.419 153.43 106.146 153.863 105.945C154.296 105.745 154.798 105.645 155.367 105.645C156.21 105.645 156.878 105.863 157.37 106.301C157.867 106.734 158.115 107.308 158.115 108.023V113H156.967V111.975H156.939C156.853 112.148 156.725 112.323 156.557 112.501C156.388 112.674 156.16 112.82 155.873 112.938C155.59 113.052 155.23 113.109 154.793 113.109ZM154.957 112.07C155.431 112.07 155.816 111.986 156.112 111.817C156.409 111.644 156.625 111.421 156.762 111.147C156.898 110.874 156.967 110.58 156.967 110.266V109.363C156.88 109.445 156.65 109.521 156.276 109.589C155.903 109.653 155.508 109.714 155.094 109.773C154.816 109.81 154.551 109.874 154.301 109.965C154.055 110.051 153.854 110.177 153.699 110.341C153.544 110.5 153.467 110.717 153.467 110.99C153.467 111.327 153.599 111.592 153.863 111.783C154.132 111.975 154.497 112.07 154.957 112.07ZM24.2812 130.109C23.7253 130.109 23.2376 130.014 22.8184 129.822C22.4036 129.626 22.0801 129.362 21.8477 129.029C21.6198 128.697 21.5013 128.321 21.4922 127.901H22.6475C22.6611 128.284 22.8161 128.585 23.1123 128.804C23.4085 129.022 23.7913 129.132 24.2607 129.132C24.7484 129.132 25.1426 129.025 25.4434 128.811C25.7487 128.592 25.9014 128.309 25.9014 127.963C25.9014 127.603 25.7441 127.311 25.4297 127.088C25.1152 126.86 24.6846 126.746 24.1377 126.746H23.5908V125.823H24.1377C24.5934 125.823 24.9626 125.721 25.2451 125.516C25.5277 125.306 25.6689 125.03 25.6689 124.688C25.6689 124.356 25.5413 124.089 25.2861 123.889C25.0309 123.684 24.6914 123.581 24.2676 123.581C23.8483 123.581 23.4951 123.684 23.208 123.889C22.9255 124.094 22.7796 124.379 22.7705 124.743H21.6562C21.6654 124.328 21.7839 123.962 22.0117 123.643C22.2396 123.324 22.5495 123.075 22.9414 122.897C23.3379 122.715 23.7822 122.624 24.2744 122.624C24.7757 122.624 25.2132 122.713 25.5869 122.891C25.9652 123.068 26.2591 123.308 26.4688 123.608C26.6829 123.909 26.79 124.242 26.79 124.606C26.79 125.007 26.667 125.354 26.4209 125.646C26.1748 125.937 25.8353 126.135 25.4023 126.24V126.254C25.9173 126.327 26.3206 126.525 26.6123 126.849C26.9085 127.168 27.0566 127.553 27.0566 128.004C27.0566 128.405 26.9359 128.765 26.6943 129.084C26.4574 129.403 26.1292 129.654 25.71 129.836C25.2907 130.018 24.8145 130.109 24.2812 130.109ZM30.584 130.109C29.8685 130.109 29.2692 129.925 28.7861 129.556C28.3076 129.187 28.0684 128.642 28.0684 127.922C28.0684 127.507 28.1481 127.17 28.3076 126.91C28.4717 126.65 28.6882 126.448 28.957 126.302C29.2305 126.151 29.5381 126.037 29.8799 125.96C30.2262 125.882 30.5794 125.821 30.9395 125.775C31.3997 125.712 31.762 125.664 32.0264 125.632C32.2907 125.6 32.4775 125.548 32.5869 125.475C32.7008 125.402 32.7578 125.274 32.7578 125.092V125.023C32.7578 124.632 32.6165 124.308 32.334 124.053C32.056 123.798 31.6641 123.67 31.1582 123.67C30.6569 123.67 30.2445 123.793 29.9209 124.039C29.6019 124.281 29.4287 124.581 29.4014 124.941H28.2188C28.2415 124.499 28.3783 124.107 28.6289 123.766C28.8796 123.419 29.2214 123.146 29.6543 122.945C30.0872 122.745 30.5885 122.645 31.1582 122.645C32.0013 122.645 32.6689 122.863 33.1611 123.301C33.6579 123.734 33.9062 124.308 33.9062 125.023V130H32.7578V128.975H32.7305C32.6439 129.148 32.5163 129.323 32.3477 129.501C32.179 129.674 31.9512 129.82 31.6641 129.938C31.3815 130.052 31.0215 130.109 30.584 130.109ZM30.748 129.07C31.222 129.07 31.6071 128.986 31.9033 128.817C32.1995 128.644 32.416 128.421 32.5527 128.147C32.6895 127.874 32.7578 127.58 32.7578 127.266V126.363C32.6712 126.445 32.4411 126.521 32.0674 126.589C31.6937 126.653 31.2995 126.714 30.8848 126.773C30.6068 126.81 30.3424 126.874 30.0918 126.965C29.8457 127.051 29.6452 127.177 29.4902 127.341C29.3353 127.5 29.2578 127.717 29.2578 127.99C29.2578 128.327 29.39 128.592 29.6543 128.783C29.9232 128.975 30.2878 129.07 30.748 129.07ZM40.332 122.781V123.875H36.791V130H35.6289V122.781H40.332ZM41.5352 132.857V122.781H42.6699V123.848H42.6836C42.916 123.442 43.2373 123.141 43.6475 122.945C44.0576 122.745 44.4974 122.645 44.9668 122.645C45.5957 122.645 46.1449 122.802 46.6143 123.116C47.0837 123.431 47.4482 123.87 47.708 124.436C47.9678 124.996 48.0977 125.648 48.0977 126.391C48.0977 127.129 47.9678 127.781 47.708 128.346C47.4482 128.906 47.0837 129.346 46.6143 129.665C46.1449 129.979 45.5957 130.137 44.9668 130.137C44.4974 130.137 44.069 130.036 43.6816 129.836C43.2943 129.631 42.9707 129.321 42.7109 128.906H42.6973V132.857H41.5352ZM44.7891 129.091C45.4134 129.091 45.9238 128.863 46.3203 128.407C46.7214 127.947 46.9219 127.275 46.9219 126.391C46.9219 125.507 46.7214 124.834 46.3203 124.374C45.9238 123.914 45.4134 123.684 44.7891 123.684C44.1191 123.684 43.5859 123.932 43.1895 124.429C42.7975 124.921 42.6016 125.575 42.6016 126.391C42.6016 127.206 42.7975 127.86 43.1895 128.353C43.5859 128.845 44.1191 129.091 44.7891 129.091ZM49.2324 132.857V131.832H49.9434C50.3717 131.832 50.6976 131.543 50.9209 130.964L51.3174 129.938L48.5215 122.781H49.7793L51.3379 126.938C51.4382 127.206 51.5361 127.478 51.6318 127.751C51.7321 128.02 51.8278 128.289 51.9189 128.558C52.0146 128.289 52.1104 128.02 52.2061 127.751C52.3063 127.478 52.4066 127.206 52.5068 126.938L54.0381 122.781H55.2754L51.9463 131.34C51.7594 131.823 51.4928 132.197 51.1465 132.461C50.8001 132.725 50.3991 132.857 49.9434 132.857H49.2324ZM55.6855 130L58.7891 126.336L55.7266 122.781H57.1074L59.6641 125.844H60.293V122.781H61.4551V125.844H62.0703L64.6133 122.781H66.0078L62.959 126.336L66.0488 130H64.6406L62.0566 126.938H61.4551V130H60.293V126.938H59.6914L57.0938 130H55.6855ZM69.7812 130.164C69.0749 130.164 68.471 130.002 67.9697 129.679C67.473 129.355 67.0924 128.911 66.8281 128.346C66.5638 127.776 66.4316 127.129 66.4316 126.404C66.4316 125.671 66.5706 125.019 66.8486 124.449C67.1266 123.88 67.5117 123.433 68.0039 123.109C68.4961 122.781 69.0612 122.617 69.6992 122.617C70.3691 122.617 70.9502 122.777 71.4424 123.096C71.9346 123.415 72.3128 123.859 72.5771 124.429C72.846 124.998 72.9805 125.657 72.9805 126.404V126.726H67.5801C67.6074 127.432 67.8102 128.006 68.1885 128.448C68.5667 128.89 69.0977 129.111 69.7812 129.111C70.2962 129.111 70.7155 128.993 71.0391 128.756C71.3672 128.519 71.5859 128.214 71.6953 127.84H72.8574C72.7663 128.3 72.5771 128.706 72.29 129.057C72.0029 129.403 71.6429 129.674 71.21 129.87C70.7816 130.066 70.3053 130.164 69.7812 130.164ZM67.5938 125.728H71.8184C71.7546 125.094 71.5335 124.59 71.1553 124.217C70.777 123.843 70.2917 123.656 69.6992 123.656C69.1068 123.656 68.6237 123.843 68.25 124.217C67.8763 124.59 67.6576 125.094 67.5938 125.728ZM75.4688 122.781V125.844H79.1875V122.781H80.3496V130H79.1875V126.938H75.4688V130H74.3066V122.781H75.4688ZM83.2344 122.781V125.844H86.9531V122.781H88.1152V130H86.9531V126.938H83.2344V130H82.0723V122.781H83.2344ZM92.8184 130.164C92.153 130.164 91.5674 130.005 91.0615 129.686C90.5602 129.362 90.1683 128.918 89.8857 128.353C89.6077 127.787 89.4688 127.138 89.4688 126.404C89.4688 125.666 89.6077 125.012 89.8857 124.442C90.1683 123.873 90.5602 123.426 91.0615 123.103C91.5674 122.779 92.153 122.617 92.8184 122.617C93.4883 122.617 94.0739 122.779 94.5752 123.103C95.0765 123.426 95.4661 123.873 95.7441 124.442C96.0267 125.012 96.168 125.666 96.168 126.404C96.168 127.138 96.0267 127.787 95.7441 128.353C95.4661 128.918 95.0765 129.362 94.5752 129.686C94.0739 130.005 93.4883 130.164 92.8184 130.164ZM92.8184 129.111C93.502 129.111 94.0352 128.865 94.418 128.373C94.8008 127.876 94.9922 127.22 94.9922 126.404C94.9922 125.579 94.7985 124.919 94.4111 124.422C94.0283 123.921 93.4974 123.67 92.8184 123.67C92.1393 123.67 91.6061 123.918 91.2188 124.415C90.8359 124.912 90.6445 125.575 90.6445 126.404C90.6445 127.225 90.8359 127.881 91.2188 128.373C91.6016 128.865 92.1348 129.111 92.8184 129.111ZM102.225 122.781V123.875H98.6836V130H97.5215V122.781H102.225ZM106.271 130.164C105.606 130.164 105.021 130.005 104.515 129.686C104.013 129.362 103.621 128.918 103.339 128.353C103.061 127.787 102.922 127.138 102.922 126.404C102.922 125.666 103.061 125.012 103.339 124.442C103.621 123.873 104.013 123.426 104.515 123.103C105.021 122.779 105.606 122.617 106.271 122.617C106.941 122.617 107.527 122.779 108.028 123.103C108.53 123.426 108.919 123.873 109.197 124.442C109.48 125.012 109.621 125.666 109.621 126.404C109.621 127.138 109.48 127.787 109.197 128.353C108.919 128.918 108.53 129.362 108.028 129.686C107.527 130.005 106.941 130.164 106.271 130.164ZM106.271 129.111C106.955 129.111 107.488 128.865 107.871 128.373C108.254 127.876 108.445 127.22 108.445 126.404C108.445 125.579 108.252 124.919 107.864 124.422C107.481 123.921 106.951 123.67 106.271 123.67C105.592 123.67 105.059 123.918 104.672 124.415C104.289 124.912 104.098 125.575 104.098 126.404C104.098 127.225 104.289 127.881 104.672 128.373C105.055 128.865 105.588 129.111 106.271 129.111ZM114.475 130V122.781H115.637V125.898H116.416L119.185 122.781H120.668L117.592 126.268L120.709 130H119.232L116.717 126.992H115.637V130H114.475ZM124.209 130.164C123.544 130.164 122.958 130.005 122.452 129.686C121.951 129.362 121.559 128.918 121.276 128.353C120.998 127.787 120.859 127.138 120.859 126.404C120.859 125.666 120.998 125.012 121.276 124.442C121.559 123.873 121.951 123.426 122.452 123.103C122.958 122.779 123.544 122.617 124.209 122.617C124.879 122.617 125.465 122.779 125.966 123.103C126.467 123.426 126.857 123.873 127.135 124.442C127.417 125.012 127.559 125.666 127.559 126.404C127.559 127.138 127.417 127.787 127.135 128.353C126.857 128.918 126.467 129.362 125.966 129.686C125.465 130.005 124.879 130.164 124.209 130.164ZM124.209 129.111C124.893 129.111 125.426 128.865 125.809 128.373C126.191 127.876 126.383 127.22 126.383 126.404C126.383 125.579 126.189 124.919 125.802 124.422C125.419 123.921 124.888 123.67 124.209 123.67C123.53 123.67 122.997 123.918 122.609 124.415C122.227 124.912 122.035 125.575 122.035 126.404C122.035 127.225 122.227 127.881 122.609 128.373C122.992 128.865 123.525 129.111 124.209 129.111ZM130.074 122.781V125.844H133.793V122.781H134.955V130H133.793V126.938H130.074V130H128.912V122.781H130.074ZM138.441 130V123.834H135.919V122.781H142.112V123.834H139.604V130H138.441ZM145.92 130.164C145.214 130.164 144.61 130.002 144.108 129.679C143.612 129.355 143.231 128.911 142.967 128.346C142.702 127.776 142.57 127.129 142.57 126.404C142.57 125.671 142.709 125.019 142.987 124.449C143.265 123.88 143.65 123.433 144.143 123.109C144.635 122.781 145.2 122.617 145.838 122.617C146.508 122.617 147.089 122.777 147.581 123.096C148.073 123.415 148.451 123.859 148.716 124.429C148.985 124.998 149.119 125.657 149.119 126.404V126.726H143.719C143.746 127.432 143.949 128.006 144.327 128.448C144.705 128.89 145.236 129.111 145.92 129.111C146.435 129.111 146.854 128.993 147.178 128.756C147.506 128.519 147.725 128.214 147.834 127.84H148.996C148.905 128.3 148.716 128.706 148.429 129.057C148.142 129.403 147.782 129.674 147.349 129.87C146.92 130.066 146.444 130.164 145.92 130.164ZM143.732 125.728H147.957C147.893 125.094 147.672 124.59 147.294 124.217C146.916 123.843 146.43 123.656 145.838 123.656C145.245 123.656 144.762 123.843 144.389 124.217C144.015 124.59 143.796 125.094 143.732 125.728ZM151.607 122.781V125.844H155.326V122.781H156.488V130H155.326V126.938H151.607V130H150.445V122.781H151.607ZM159.975 130V123.834H157.452V122.781H163.646V123.834H161.137V130H159.975ZM166.592 130.109C165.876 130.109 165.277 129.925 164.794 129.556C164.315 129.187 164.076 128.642 164.076 127.922C164.076 127.507 164.156 127.17 164.315 126.91C164.479 126.65 164.696 126.448 164.965 126.302C165.238 126.151 165.546 126.037 165.888 125.96C166.234 125.882 166.587 125.821 166.947 125.775C167.408 125.712 167.77 125.664 168.034 125.632C168.299 125.6 168.485 125.548 168.595 125.475C168.709 125.402 168.766 125.274 168.766 125.092V125.023C168.766 124.632 168.624 124.308 168.342 124.053C168.064 123.798 167.672 123.67 167.166 123.67C166.665 123.67 166.252 123.793 165.929 124.039C165.61 124.281 165.437 124.581 165.409 124.941H164.227C164.249 124.499 164.386 124.107 164.637 123.766C164.887 123.419 165.229 123.146 165.662 122.945C166.095 122.745 166.596 122.645 167.166 122.645C168.009 122.645 168.677 122.863 169.169 123.301C169.666 123.734 169.914 124.308 169.914 125.023V130H168.766V128.975H168.738C168.652 129.148 168.524 129.323 168.355 129.501C168.187 129.674 167.959 129.82 167.672 129.938C167.389 130.052 167.029 130.109 166.592 130.109ZM166.756 129.07C167.23 129.07 167.615 128.986 167.911 128.817C168.207 128.644 168.424 128.421 168.561 128.147C168.697 127.874 168.766 127.58 168.766 127.266V126.363C168.679 126.445 168.449 126.521 168.075 126.589C167.701 126.653 167.307 126.714 166.893 126.773C166.615 126.81 166.35 126.874 166.1 126.965C165.854 127.051 165.653 127.177 165.498 127.341C165.343 127.5 165.266 127.717 165.266 127.99C165.266 128.327 165.398 128.592 165.662 128.783C165.931 128.975 166.296 129.07 166.756 129.07ZM24.8418 147.164C24.1764 147.164 23.5908 147.005 23.085 146.686C22.5837 146.362 22.1917 145.918 21.9092 145.353C21.6312 144.787 21.4922 144.138 21.4922 143.404C21.4922 142.666 21.6312 142.012 21.9092 141.442C22.1917 140.873 22.5837 140.426 23.085 140.103C23.5908 139.779 24.1764 139.617 24.8418 139.617C25.3887 139.617 25.8786 139.727 26.3115 139.945C26.7445 140.16 27.0977 140.456 27.3711 140.834C27.6491 141.212 27.82 141.645 27.8838 142.133H26.708C26.6214 141.709 26.4209 141.36 26.1064 141.087C25.7965 140.809 25.375 140.67 24.8418 140.67C24.1628 140.67 23.6296 140.918 23.2422 141.415C22.8594 141.912 22.668 142.575 22.668 143.404C22.668 144.225 22.8594 144.881 23.2422 145.373C23.625 145.865 24.1582 146.111 24.8418 146.111C25.3841 146.111 25.7988 145.979 26.0859 145.715C26.373 145.446 26.5736 145.09 26.6875 144.648H27.8838C27.82 145.122 27.6491 145.551 27.3711 145.934C27.0977 146.312 26.7422 146.613 26.3047 146.836C25.8717 147.055 25.3841 147.164 24.8418 147.164ZM30.9531 147V140.834H28.4307V139.781H34.624V140.834H32.1152V147H30.9531ZM37.5703 147.109C36.8548 147.109 36.2555 146.925 35.7725 146.556C35.2939 146.187 35.0547 145.642 35.0547 144.922C35.0547 144.507 35.1344 144.17 35.2939 143.91C35.458 143.65 35.6745 143.448 35.9434 143.302C36.2168 143.151 36.5244 143.037 36.8662 142.96C37.2126 142.882 37.5658 142.821 37.9258 142.775C38.3861 142.712 38.7484 142.664 39.0127 142.632C39.277 142.6 39.4639 142.548 39.5732 142.475C39.6872 142.402 39.7441 142.274 39.7441 142.092V142.023C39.7441 141.632 39.6029 141.308 39.3203 141.053C39.0423 140.798 38.6504 140.67 38.1445 140.67C37.6432 140.67 37.2308 140.793 36.9072 141.039C36.5882 141.281 36.415 141.581 36.3877 141.941H35.2051C35.2279 141.499 35.3646 141.107 35.6152 140.766C35.8659 140.419 36.2077 140.146 36.6406 139.945C37.0736 139.745 37.5749 139.645 38.1445 139.645C38.9876 139.645 39.6553 139.863 40.1475 140.301C40.6442 140.734 40.8926 141.308 40.8926 142.023V147H39.7441V145.975H39.7168C39.6302 146.148 39.5026 146.323 39.334 146.501C39.1654 146.674 38.9375 146.82 38.6504 146.938C38.3678 147.052 38.0078 147.109 37.5703 147.109ZM37.7344 146.07C38.2083 146.07 38.5934 145.986 38.8896 145.817C39.1859 145.644 39.4023 145.421 39.5391 145.147C39.6758 144.874 39.7441 144.58 39.7441 144.266V143.363C39.6576 143.445 39.4274 143.521 39.0537 143.589C38.68 143.653 38.2858 143.714 37.8711 143.773C37.5931 143.81 37.3288 143.874 37.0781 143.965C36.832 144.051 36.6315 144.177 36.4766 144.341C36.3216 144.5 36.2441 144.717 36.2441 144.99C36.2441 145.327 36.3763 145.592 36.6406 145.783C36.9095 145.975 37.2741 146.07 37.7344 146.07ZM41.8564 147V145.906H42.1299C42.3623 145.906 42.5537 145.872 42.7041 145.804C42.859 145.731 42.9821 145.594 43.0732 145.394C43.1689 145.188 43.2419 144.892 43.292 144.505C43.3467 144.113 43.3877 143.596 43.415 142.953L43.5518 139.781H48.6377V147H47.4756V140.875H44.6592L44.5361 143.391C44.4951 144.225 44.404 144.908 44.2627 145.441C44.1214 145.97 43.8913 146.362 43.5723 146.617C43.2578 146.872 42.818 147 42.2529 147H41.8564ZM56.4102 147H55.248V141.62H55.2275L51.5293 147H50.3672V139.781H51.5293V145.168H51.5498L55.248 139.781H56.4102V147ZM67.6348 139.781V147H66.4727V140.875H62.7949V147H61.6328V139.781H67.6348ZM72.3379 147.164C71.6725 147.164 71.0869 147.005 70.5811 146.686C70.0798 146.362 69.6878 145.918 69.4053 145.353C69.1273 144.787 68.9883 144.138 68.9883 143.404C68.9883 142.666 69.1273 142.012 69.4053 141.442C69.6878 140.873 70.0798 140.426 70.5811 140.103C71.0869 139.779 71.6725 139.617 72.3379 139.617C73.0078 139.617 73.5934 139.779 74.0947 140.103C74.596 140.426 74.9857 140.873 75.2637 141.442C75.5462 142.012 75.6875 142.666 75.6875 143.404C75.6875 144.138 75.5462 144.787 75.2637 145.353C74.9857 145.918 74.596 146.362 74.0947 146.686C73.5934 147.005 73.0078 147.164 72.3379 147.164ZM72.3379 146.111C73.0215 146.111 73.5547 145.865 73.9375 145.373C74.3203 144.876 74.5117 144.22 74.5117 143.404C74.5117 142.579 74.318 141.919 73.9307 141.422C73.5479 140.921 73.0169 140.67 72.3379 140.67C71.6589 140.67 71.1257 140.918 70.7383 141.415C70.3555 141.912 70.1641 142.575 70.1641 143.404C70.1641 144.225 70.3555 144.881 70.7383 145.373C71.1211 145.865 71.6543 146.111 72.3379 146.111ZM76.2822 147V145.906H76.5557C76.7881 145.906 76.9795 145.872 77.1299 145.804C77.2848 145.731 77.4079 145.594 77.499 145.394C77.5947 145.188 77.6676 144.892 77.7178 144.505C77.7725 144.113 77.8135 143.596 77.8408 142.953L77.9775 139.781H83.0635V147H81.9014V140.875H79.085L78.9619 143.391C78.9209 144.225 78.8298 144.908 78.6885 145.441C78.5472 145.97 78.3171 146.362 77.998 146.617C77.6836 146.872 77.2438 147 76.6787 147H76.2822ZM85.9551 142.242H88.0469C88.5801 142.242 89.0495 142.342 89.4551 142.543C89.8607 142.743 90.1774 143.021 90.4053 143.377C90.6377 143.728 90.7539 144.133 90.7539 144.594C90.7539 145.063 90.6377 145.48 90.4053 145.845C90.1774 146.205 89.8607 146.487 89.4551 146.692C89.0495 146.897 88.5801 147 88.0469 147H84.793V139.781H85.9551V142.242ZM85.9551 143.336V145.906H88.0059C88.4935 145.906 88.8786 145.788 89.1611 145.551C89.4482 145.314 89.5918 144.995 89.5918 144.594C89.5918 144.206 89.4482 143.901 89.1611 143.678C88.8786 143.45 88.4935 143.336 88.0059 143.336H85.9551ZM94.5273 147.109C93.9714 147.109 93.4837 147.014 93.0645 146.822C92.6497 146.626 92.3262 146.362 92.0938 146.029C91.8659 145.697 91.7474 145.321 91.7383 144.901H92.8936C92.9072 145.284 93.0622 145.585 93.3584 145.804C93.6546 146.022 94.0374 146.132 94.5068 146.132C94.9945 146.132 95.3887 146.025 95.6895 145.811C95.9948 145.592 96.1475 145.309 96.1475 144.963C96.1475 144.603 95.9902 144.311 95.6758 144.088C95.3613 143.86 94.9307 143.746 94.3838 143.746H93.8369V142.823H94.3838C94.8395 142.823 95.2087 142.721 95.4912 142.516C95.7738 142.306 95.915 142.03 95.915 141.688C95.915 141.356 95.7874 141.089 95.5322 140.889C95.277 140.684 94.9375 140.581 94.5137 140.581C94.0944 140.581 93.7412 140.684 93.4541 140.889C93.1715 141.094 93.0257 141.379 93.0166 141.743H91.9023C91.9115 141.328 92.0299 140.962 92.2578 140.643C92.4857 140.324 92.7956 140.075 93.1875 139.897C93.584 139.715 94.0283 139.624 94.5205 139.624C95.0218 139.624 95.4593 139.713 95.833 139.891C96.2113 140.068 96.5052 140.308 96.7148 140.608C96.929 140.909 97.0361 141.242 97.0361 141.606C97.0361 142.007 96.9131 142.354 96.667 142.646C96.4209 142.937 96.0814 143.135 95.6484 143.24V143.254C96.1634 143.327 96.5667 143.525 96.8584 143.849C97.1546 144.168 97.3027 144.553 97.3027 145.004C97.3027 145.405 97.182 145.765 96.9404 146.084C96.7035 146.403 96.3753 146.654 95.9561 146.836C95.5368 147.018 95.0605 147.109 94.5273 147.109ZM101.609 147.164C100.944 147.164 100.358 147.005 99.8525 146.686C99.3512 146.362 98.9593 145.918 98.6768 145.353C98.3988 144.787 98.2598 144.138 98.2598 143.404C98.2598 142.666 98.3988 142.012 98.6768 141.442C98.9593 140.873 99.3512 140.426 99.8525 140.103C100.358 139.779 100.944 139.617 101.609 139.617C102.279 139.617 102.865 139.779 103.366 140.103C103.868 140.426 104.257 140.873 104.535 141.442C104.818 142.012 104.959 142.666 104.959 143.404C104.959 144.138 104.818 144.787 104.535 145.353C104.257 145.918 103.868 146.362 103.366 146.686C102.865 147.005 102.279 147.164 101.609 147.164ZM101.609 146.111C102.293 146.111 102.826 145.865 103.209 145.373C103.592 144.876 103.783 144.22 103.783 143.404C103.783 142.579 103.59 141.919 103.202 141.422C102.819 140.921 102.288 140.67 101.609 140.67C100.93 140.67 100.397 140.918 100.01 141.415C99.627 141.912 99.4355 142.575 99.4355 143.404C99.4355 144.225 99.627 144.881 100.01 145.373C100.393 145.865 100.926 146.111 101.609 146.111ZM106.312 147V139.781H109.32C110.141 139.781 110.792 139.948 111.275 140.28C111.758 140.613 112 141.087 112 141.702C112 142.131 111.882 142.468 111.645 142.714C111.408 142.955 111.093 143.119 110.701 143.206C110.97 143.247 111.225 143.336 111.467 143.473C111.708 143.605 111.904 143.794 112.055 144.04C112.21 144.282 112.287 144.587 112.287 144.956C112.287 145.562 112.066 146.054 111.624 146.433C111.182 146.811 110.574 147 109.799 147H106.312ZM107.42 145.92H109.799C110.214 145.92 110.53 145.833 110.749 145.66C110.972 145.482 111.084 145.234 111.084 144.915C111.084 144.555 110.972 144.279 110.749 144.088C110.53 143.892 110.214 143.794 109.799 143.794H107.42V145.92ZM107.42 142.796H109.375C109.84 142.796 110.198 142.709 110.448 142.536C110.699 142.358 110.824 142.108 110.824 141.784C110.824 141.488 110.694 141.26 110.435 141.101C110.175 140.941 109.803 140.861 109.32 140.861H107.42V142.796ZM115.855 147.109C115.14 147.109 114.541 146.925 114.058 146.556C113.579 146.187 113.34 145.642 113.34 144.922C113.34 144.507 113.42 144.17 113.579 143.91C113.743 143.65 113.96 143.448 114.229 143.302C114.502 143.151 114.81 143.037 115.151 142.96C115.498 142.882 115.851 142.821 116.211 142.775C116.671 142.712 117.034 142.664 117.298 142.632C117.562 142.6 117.749 142.548 117.858 142.475C117.972 142.402 118.029 142.274 118.029 142.092V142.023C118.029 141.632 117.888 141.308 117.605 141.053C117.327 140.798 116.936 140.67 116.43 140.67C115.928 140.67 115.516 140.793 115.192 141.039C114.873 141.281 114.7 141.581 114.673 141.941H113.49C113.513 141.499 113.65 141.107 113.9 140.766C114.151 140.419 114.493 140.146 114.926 139.945C115.359 139.745 115.86 139.645 116.43 139.645C117.273 139.645 117.94 139.863 118.433 140.301C118.929 140.734 119.178 141.308 119.178 142.023V147H118.029V145.975H118.002C117.915 146.148 117.788 146.323 117.619 146.501C117.451 146.674 117.223 146.82 116.936 146.938C116.653 147.052 116.293 147.109 115.855 147.109ZM116.02 146.07C116.493 146.07 116.879 145.986 117.175 145.817C117.471 145.644 117.688 145.421 117.824 145.147C117.961 144.874 118.029 144.58 118.029 144.266V143.363C117.943 143.445 117.713 143.521 117.339 143.589C116.965 143.653 116.571 143.714 116.156 143.773C115.878 143.81 115.614 143.874 115.363 143.965C115.117 144.051 114.917 144.177 114.762 144.341C114.607 144.5 114.529 144.717 114.529 144.99C114.529 145.327 114.661 145.592 114.926 145.783C115.195 145.975 115.559 146.07 116.02 146.07ZM122.664 147V140.834H120.142V139.781H126.335V140.834H123.826V147H122.664ZM128.461 142.242H130.553C131.086 142.242 131.555 142.342 131.961 142.543C132.367 142.743 132.683 143.021 132.911 143.377C133.144 143.728 133.26 144.133 133.26 144.594C133.26 145.063 133.144 145.48 132.911 145.845C132.683 146.205 132.367 146.487 131.961 146.692C131.555 146.897 131.086 147 130.553 147H127.299V139.781H128.461V142.242ZM128.461 143.336V145.906H130.512C130.999 145.906 131.384 145.788 131.667 145.551C131.954 145.314 132.098 144.995 132.098 144.594C132.098 144.206 131.954 143.901 131.667 143.678C131.384 143.45 130.999 143.336 130.512 143.336H128.461ZM137.594 147.164C136.928 147.164 136.343 147.005 135.837 146.686C135.336 146.362 134.944 145.918 134.661 145.353C134.383 144.787 134.244 144.138 134.244 143.404C134.244 142.666 134.383 142.012 134.661 141.442C134.944 140.873 135.336 140.426 135.837 140.103C136.343 139.779 136.928 139.617 137.594 139.617C138.141 139.617 138.631 139.727 139.063 139.945C139.496 140.16 139.85 140.456 140.123 140.834C140.401 141.212 140.572 141.645 140.636 142.133H139.46C139.373 141.709 139.173 141.36 138.858 141.087C138.549 140.809 138.127 140.67 137.594 140.67C136.915 140.67 136.382 140.918 135.994 141.415C135.611 141.912 135.42 142.575 135.42 143.404C135.42 144.225 135.611 144.881 135.994 145.373C136.377 145.865 136.91 146.111 137.594 146.111C138.136 146.111 138.551 145.979 138.838 145.715C139.125 145.446 139.326 145.09 139.439 144.648H140.636C140.572 145.122 140.401 145.551 140.123 145.934C139.85 146.312 139.494 146.613 139.057 146.836C138.624 147.055 138.136 147.164 137.594 147.164ZM147.533 147H146.371V144.286H144.389C144.366 144.286 144.341 144.286 144.313 144.286L142.577 147H141.237L143.124 144.122C142.094 143.808 141.579 143.119 141.579 142.058C141.579 141.324 141.818 140.761 142.297 140.369C142.775 139.977 143.457 139.781 144.341 139.781H147.533V147ZM146.371 143.302V140.807H144.437C143.844 140.807 143.409 140.907 143.131 141.107C142.857 141.308 142.721 141.625 142.721 142.058C142.721 142.491 142.862 142.807 143.145 143.008C143.427 143.204 143.874 143.302 144.484 143.302H146.371ZM153.918 139.781V142.844H157.637V139.781H158.799V147H157.637V143.938H153.918V147H152.756V139.781H153.918ZM162.723 147.109C162.007 147.109 161.408 146.925 160.925 146.556C160.446 146.187 160.207 145.642 160.207 144.922C160.207 144.507 160.287 144.17 160.446 143.91C160.61 143.65 160.827 143.448 161.096 143.302C161.369 143.151 161.677 143.037 162.019 142.96C162.365 142.882 162.718 142.821 163.078 142.775C163.538 142.712 163.901 142.664 164.165 142.632C164.429 142.6 164.616 142.548 164.726 142.475C164.84 142.402 164.896 142.274 164.896 142.092V142.023C164.896 141.632 164.755 141.308 164.473 141.053C164.195 140.798 163.803 140.67 163.297 140.67C162.796 140.67 162.383 140.793 162.06 141.039C161.741 141.281 161.567 141.581 161.54 141.941H160.357C160.38 141.499 160.517 141.107 160.768 140.766C161.018 140.419 161.36 140.146 161.793 139.945C162.226 139.745 162.727 139.645 163.297 139.645C164.14 139.645 164.808 139.863 165.3 140.301C165.797 140.734 166.045 141.308 166.045 142.023V147H164.896V145.975H164.869C164.783 146.148 164.655 146.323 164.486 146.501C164.318 146.674 164.09 146.82 163.803 146.938C163.52 147.052 163.16 147.109 162.723 147.109ZM162.887 146.07C163.361 146.07 163.746 145.986 164.042 145.817C164.338 145.644 164.555 145.421 164.691 145.147C164.828 144.874 164.896 144.58 164.896 144.266V143.363C164.81 143.445 164.58 143.521 164.206 143.589C163.832 143.653 163.438 143.714 163.023 143.773C162.745 143.81 162.481 143.874 162.23 143.965C161.984 144.051 161.784 144.177 161.629 144.341C161.474 144.5 161.396 144.717 161.396 144.99C161.396 145.327 161.529 145.592 161.793 145.783C162.062 145.975 162.426 146.07 162.887 146.07ZM170.987 147V145.968L174.61 142.659C175.043 142.263 175.394 141.914 175.663 141.613C175.937 141.312 176.137 141.019 176.265 140.731C176.392 140.444 176.456 140.128 176.456 139.781C176.456 139.152 176.269 138.656 175.896 138.291C175.526 137.926 175.018 137.744 174.371 137.744C173.674 137.744 173.134 137.958 172.751 138.387C172.368 138.811 172.177 139.385 172.177 140.109H171.028C171.028 139.43 171.165 138.831 171.438 138.312C171.716 137.792 172.106 137.386 172.607 137.095C173.109 136.799 173.694 136.65 174.364 136.65C175.002 136.65 175.565 136.783 176.053 137.047C176.54 137.307 176.923 137.669 177.201 138.134C177.479 138.594 177.618 139.127 177.618 139.733C177.618 140.39 177.436 140.993 177.071 141.545C176.711 142.096 176.158 142.712 175.41 143.391L172.655 145.893V145.906H177.68V147H170.987ZM182.424 147.164C181.298 147.164 180.425 146.745 179.806 145.906C179.19 145.063 178.883 143.874 178.883 142.338C178.883 141.194 179.013 140.196 179.272 139.344C179.537 138.492 179.942 137.831 180.489 137.361C181.036 136.887 181.736 136.65 182.588 136.65C183.472 136.65 184.194 136.899 184.755 137.396C185.32 137.892 185.65 138.546 185.746 139.357H184.543C184.447 138.865 184.238 138.473 183.914 138.182C183.595 137.89 183.178 137.744 182.663 137.744C182.075 137.744 181.588 137.913 181.2 138.25C180.817 138.587 180.53 139.052 180.339 139.645C180.152 140.232 180.059 140.907 180.059 141.668H180.072C180.305 141.276 180.651 140.962 181.111 140.725C181.576 140.488 182.082 140.369 182.629 140.369C183.244 140.369 183.791 140.517 184.27 140.813C184.753 141.105 185.133 141.506 185.411 142.017C185.689 142.522 185.828 143.099 185.828 143.746C185.828 144.416 185.682 145.008 185.391 145.523C185.104 146.038 184.705 146.442 184.194 146.733C183.684 147.021 183.094 147.164 182.424 147.164ZM182.424 146.07C182.834 146.07 183.205 145.968 183.538 145.763C183.875 145.553 184.142 145.273 184.338 144.922C184.538 144.566 184.639 144.174 184.639 143.746C184.639 143.318 184.543 142.933 184.352 142.591C184.16 142.244 183.9 141.971 183.572 141.771C183.244 141.565 182.875 141.463 182.465 141.463C182.055 141.463 181.679 141.565 181.337 141.771C181 141.976 180.729 142.254 180.523 142.604C180.323 142.951 180.223 143.336 180.223 143.76C180.223 144.184 180.321 144.571 180.517 144.922C180.717 145.273 180.984 145.553 181.316 145.763C181.649 145.968 182.018 146.07 182.424 146.07ZM189.465 141.504C189.036 141.504 188.663 141.404 188.344 141.203C188.029 140.998 187.783 140.72 187.605 140.369C187.432 140.018 187.346 139.622 187.346 139.18V138.975C187.346 138.533 187.432 138.136 187.605 137.785C187.783 137.434 188.029 137.159 188.344 136.958C188.663 136.753 189.036 136.65 189.465 136.65C189.893 136.65 190.265 136.753 190.579 136.958C190.894 137.159 191.137 137.434 191.311 137.785C191.484 138.136 191.57 138.533 191.57 138.975V139.18C191.57 139.622 191.484 140.018 191.311 140.369C191.137 140.72 190.894 140.998 190.579 141.203C190.265 141.404 189.893 141.504 189.465 141.504ZM195.248 147.164C194.82 147.164 194.446 147.064 194.127 146.863C193.812 146.658 193.566 146.38 193.389 146.029C193.215 145.678 193.129 145.282 193.129 144.84V144.635C193.129 144.193 193.215 143.796 193.389 143.445C193.566 143.094 193.812 142.819 194.127 142.618C194.446 142.413 194.82 142.311 195.248 142.311C195.676 142.311 196.048 142.413 196.362 142.618C196.677 142.819 196.921 143.094 197.094 143.445C197.267 143.796 197.354 144.193 197.354 144.635V144.84C197.354 145.282 197.267 145.678 197.094 146.029C196.921 146.38 196.677 146.658 196.362 146.863C196.048 147.064 195.676 147.164 195.248 147.164ZM188.234 147L195.234 136.814H196.424L189.424 147H188.234ZM189.465 140.615C189.793 140.615 190.053 140.488 190.244 140.232C190.436 139.977 190.531 139.626 190.531 139.18V138.975C190.531 138.528 190.436 138.177 190.244 137.922C190.053 137.667 189.793 137.539 189.465 137.539C189.132 137.539 188.868 137.667 188.672 137.922C188.48 138.177 188.385 138.528 188.385 138.975V139.18C188.385 139.626 188.48 139.977 188.672 140.232C188.868 140.488 189.132 140.615 189.465 140.615ZM195.248 146.275C195.576 146.275 195.836 146.148 196.027 145.893C196.219 145.637 196.314 145.286 196.314 144.84V144.635C196.314 144.188 196.219 143.837 196.027 143.582C195.836 143.327 195.576 143.199 195.248 143.199C194.915 143.199 194.651 143.327 194.455 143.582C194.264 143.837 194.168 144.188 194.168 144.635V144.84C194.168 145.286 194.264 145.637 194.455 145.893C194.651 146.148 194.915 146.275 195.248 146.275ZM24.7188 161.812C23.8529 161.812 23.1602 161.58 22.6406 161.115C22.1211 160.646 21.8613 159.944 21.8613 159.01V156.781H23.0234V159.01C23.0234 159.593 23.1852 160.024 23.5088 160.302C23.8369 160.58 24.2402 160.719 24.7188 160.719C25.0651 160.719 25.3887 160.696 25.6895 160.65C25.9902 160.605 26.2819 160.541 26.5645 160.459V156.781H27.7266V164H26.5645V161.56C26.2865 161.637 25.9993 161.699 25.7031 161.744C25.4069 161.79 25.0788 161.812 24.7188 161.812ZM31.6504 164.109C30.9349 164.109 30.3356 163.925 29.8525 163.556C29.374 163.187 29.1348 162.642 29.1348 161.922C29.1348 161.507 29.2145 161.17 29.374 160.91C29.5381 160.65 29.7546 160.448 30.0234 160.302C30.2969 160.151 30.6045 160.037 30.9463 159.96C31.2926 159.882 31.6458 159.821 32.0059 159.775C32.4661 159.712 32.8285 159.664 33.0928 159.632C33.3571 159.6 33.5439 159.548 33.6533 159.475C33.7673 159.402 33.8242 159.274 33.8242 159.092V159.023C33.8242 158.632 33.6829 158.308 33.4004 158.053C33.1224 157.798 32.7305 157.67 32.2246 157.67C31.7233 157.67 31.3109 157.793 30.9873 158.039C30.6683 158.281 30.4951 158.581 30.4678 158.941H29.2852C29.3079 158.499 29.4447 158.107 29.6953 157.766C29.946 157.419 30.2878 157.146 30.7207 156.945C31.1536 156.745 31.6549 156.645 32.2246 156.645C33.0677 156.645 33.7354 156.863 34.2275 157.301C34.7243 157.734 34.9727 158.308 34.9727 159.023V164H33.8242V162.975H33.7969C33.7103 163.148 33.5827 163.323 33.4141 163.501C33.2454 163.674 33.0176 163.82 32.7305 163.938C32.4479 164.052 32.0879 164.109 31.6504 164.109ZM31.8145 163.07C32.2884 163.07 32.6735 162.986 32.9697 162.817C33.266 162.644 33.4824 162.421 33.6191 162.147C33.7559 161.874 33.8242 161.58 33.8242 161.266V160.363C33.7376 160.445 33.5075 160.521 33.1338 160.589C32.7601 160.653 32.3659 160.714 31.9512 160.773C31.6732 160.81 31.4089 160.874 31.1582 160.965C30.9121 161.051 30.7116 161.177 30.5566 161.341C30.4017 161.5 30.3242 161.717 30.3242 161.99C30.3242 162.327 30.4564 162.592 30.7207 162.783C30.9896 162.975 31.3542 163.07 31.8145 163.07ZM36.6953 156.781H37.8574V162.906H40.749V156.781H41.9111V162.906H44.8027V156.781H45.9648V164H36.6953V156.781ZM45.7256 166.188V164H45.2197V162.906H46.8877V166.188H45.7256ZM50.668 164.164C49.9616 164.164 49.3577 164.002 48.8564 163.679C48.3597 163.355 47.9792 162.911 47.7148 162.346C47.4505 161.776 47.3184 161.129 47.3184 160.404C47.3184 159.671 47.4574 159.019 47.7354 158.449C48.0133 157.88 48.3984 157.433 48.8906 157.109C49.3828 156.781 49.9479 156.617 50.5859 156.617C51.2559 156.617 51.8369 156.777 52.3291 157.096C52.8213 157.415 53.1995 157.859 53.4639 158.429C53.7327 158.998 53.8672 159.657 53.8672 160.404V160.726H48.4668C48.4941 161.432 48.6969 162.006 49.0752 162.448C49.4535 162.89 49.9844 163.111 50.668 163.111C51.1829 163.111 51.6022 162.993 51.9258 162.756C52.2539 162.519 52.4727 162.214 52.582 161.84H53.7441C53.653 162.3 53.4639 162.706 53.1768 163.057C52.8896 163.403 52.5296 163.674 52.0967 163.87C51.6683 164.066 51.1921 164.164 50.668 164.164ZM48.4805 159.728H52.7051C52.6413 159.094 52.4202 158.59 52.042 158.217C51.6637 157.843 51.1784 157.656 50.5859 157.656C49.9935 157.656 49.5104 157.843 49.1367 158.217C48.763 158.59 48.5443 159.094 48.4805 159.728ZM64.3535 153.5L64.9551 154.211C64.7227 154.439 64.4538 154.598 64.1484 154.689C63.8431 154.776 63.4967 154.831 63.1094 154.854C62.7266 154.872 62.2982 154.89 61.8242 154.908C61.0312 154.94 60.4388 155.216 60.0469 155.735C59.6595 156.255 59.4271 157.009 59.3496 157.998H59.4453C59.7005 157.52 60.056 157.169 60.5117 156.945C60.972 156.717 61.4642 156.604 61.9883 156.604C62.5853 156.604 63.1208 156.743 63.5947 157.021C64.0732 157.299 64.4515 157.711 64.7295 158.258C65.0075 158.805 65.1465 159.479 65.1465 160.281C65.1465 161.079 65.0052 161.769 64.7227 162.353C64.4401 162.931 64.0436 163.378 63.5332 163.692C63.0273 164.007 62.4349 164.164 61.7559 164.164C60.7259 164.164 59.8965 163.799 59.2676 163.07C58.6387 162.341 58.3242 161.27 58.3242 159.857V159.051C58.3333 155.619 59.4954 153.874 61.8105 153.814C61.9564 153.81 62.0977 153.808 62.2344 153.808C62.3711 153.808 62.501 153.808 62.624 153.808C63.016 153.812 63.3532 153.803 63.6357 153.78C63.9229 153.753 64.1621 153.66 64.3535 153.5ZM61.7559 163.111C62.444 163.107 62.984 162.849 63.376 162.339C63.7725 161.828 63.9707 161.143 63.9707 160.281C63.9707 159.447 63.7725 158.802 63.376 158.347C62.9795 157.886 62.4303 157.656 61.7285 157.656C61.0495 157.656 60.5117 157.886 60.1152 158.347C59.7188 158.802 59.5137 159.447 59.5 160.281C59.5 161.133 59.7005 161.817 60.1016 162.332C60.5026 162.847 61.054 163.107 61.7559 163.111ZM65.7412 164V162.906H66.0146C66.2471 162.906 66.4385 162.872 66.5889 162.804C66.7438 162.731 66.8669 162.594 66.958 162.394C67.0537 162.188 67.1266 161.892 67.1768 161.505C67.2314 161.113 67.2725 160.596 67.2998 159.953L67.4365 156.781H72.5225V164H71.3604V157.875H68.5439L68.4209 160.391C68.3799 161.225 68.2887 161.908 68.1475 162.441C68.0062 162.97 67.776 163.362 67.457 163.617C67.1426 163.872 66.7028 164 66.1377 164H65.7412ZM76.4531 164.109C75.7376 164.109 75.1383 163.925 74.6553 163.556C74.1768 163.187 73.9375 162.642 73.9375 161.922C73.9375 161.507 74.0173 161.17 74.1768 160.91C74.3408 160.65 74.5573 160.448 74.8262 160.302C75.0996 160.151 75.4072 160.037 75.749 159.96C76.0954 159.882 76.4486 159.821 76.8086 159.775C77.2689 159.712 77.6312 159.664 77.8955 159.632C78.1598 159.6 78.3467 159.548 78.4561 159.475C78.57 159.402 78.627 159.274 78.627 159.092V159.023C78.627 158.632 78.4857 158.308 78.2031 158.053C77.9251 157.798 77.5332 157.67 77.0273 157.67C76.526 157.67 76.1136 157.793 75.79 158.039C75.471 158.281 75.2979 158.581 75.2705 158.941H74.0879C74.1107 158.499 74.2474 158.107 74.498 157.766C74.7487 157.419 75.0905 157.146 75.5234 156.945C75.9564 156.745 76.4577 156.645 77.0273 156.645C77.8704 156.645 78.5381 156.863 79.0303 157.301C79.527 157.734 79.7754 158.308 79.7754 159.023V164H78.627V162.975H78.5996C78.513 163.148 78.3854 163.323 78.2168 163.501C78.0482 163.674 77.8203 163.82 77.5332 163.938C77.2507 164.052 76.8906 164.109 76.4531 164.109ZM76.6172 163.07C77.0911 163.07 77.4762 162.986 77.7725 162.817C78.0687 162.644 78.2852 162.421 78.4219 162.147C78.5586 161.874 78.627 161.58 78.627 161.266V160.363C78.5404 160.445 78.3102 160.521 77.9365 160.589C77.5628 160.653 77.1686 160.714 76.7539 160.773C76.4759 160.81 76.2116 160.874 75.9609 160.965C75.7148 161.051 75.5143 161.177 75.3594 161.341C75.2044 161.5 75.127 161.717 75.127 161.99C75.127 162.327 75.2591 162.592 75.5234 162.783C75.7923 162.975 76.1569 163.07 76.6172 163.07ZM86.2012 156.781V157.875H82.6602V164H81.498V156.781H86.2012ZM90.248 164.164C89.5827 164.164 88.9971 164.005 88.4912 163.686C87.9899 163.362 87.598 162.918 87.3154 162.353C87.0374 161.787 86.8984 161.138 86.8984 160.404C86.8984 159.666 87.0374 159.012 87.3154 158.442C87.598 157.873 87.9899 157.426 88.4912 157.103C88.9971 156.779 89.5827 156.617 90.248 156.617C90.918 156.617 91.5036 156.779 92.0049 157.103C92.5062 157.426 92.8958 157.873 93.1738 158.442C93.4564 159.012 93.5977 159.666 93.5977 160.404C93.5977 161.138 93.4564 161.787 93.1738 162.353C92.8958 162.918 92.5062 163.362 92.0049 163.686C91.5036 164.005 90.918 164.164 90.248 164.164ZM90.248 163.111C90.9316 163.111 91.4648 162.865 91.8477 162.373C92.2305 161.876 92.4219 161.22 92.4219 160.404C92.4219 159.579 92.2282 158.919 91.8408 158.422C91.458 157.921 90.9271 157.67 90.248 157.67C89.569 157.67 89.0358 157.918 88.6484 158.415C88.2656 158.912 88.0742 159.575 88.0742 160.404C88.0742 161.225 88.2656 161.881 88.6484 162.373C89.0312 162.865 89.5645 163.111 90.248 163.111ZM94.2471 166.188V162.906H94.876C95.0856 162.688 95.2588 162.453 95.3955 162.202C95.5322 161.951 95.6439 161.623 95.7305 161.218C95.8216 160.812 95.8968 160.272 95.9561 159.598L96.2158 156.781H101.069V162.906H102.231V166.188H101.069V164H95.4092V166.188H94.2471ZM96.2158 162.906H99.9072V157.875H97.2754L97.1045 159.598C97.0316 160.34 96.9313 160.99 96.8037 161.546C96.6807 162.102 96.4847 162.555 96.2158 162.906ZM105.451 164.109C104.736 164.109 104.136 163.925 103.653 163.556C103.175 163.187 102.936 162.642 102.936 161.922C102.936 161.507 103.015 161.17 103.175 160.91C103.339 160.65 103.555 160.448 103.824 160.302C104.098 160.151 104.405 160.037 104.747 159.96C105.093 159.882 105.447 159.821 105.807 159.775C106.267 159.712 106.629 159.664 106.894 159.632C107.158 159.6 107.345 159.548 107.454 159.475C107.568 159.402 107.625 159.274 107.625 159.092V159.023C107.625 158.632 107.484 158.308 107.201 158.053C106.923 157.798 106.531 157.67 106.025 157.67C105.524 157.67 105.112 157.793 104.788 158.039C104.469 158.281 104.296 158.581 104.269 158.941H103.086C103.109 158.499 103.245 158.107 103.496 157.766C103.747 157.419 104.089 157.146 104.521 156.945C104.954 156.745 105.456 156.645 106.025 156.645C106.868 156.645 107.536 156.863 108.028 157.301C108.525 157.734 108.773 158.308 108.773 159.023V164H107.625V162.975H107.598C107.511 163.148 107.383 163.323 107.215 163.501C107.046 163.674 106.818 163.82 106.531 163.938C106.249 164.052 105.889 164.109 105.451 164.109ZM105.615 163.07C106.089 163.07 106.474 162.986 106.771 162.817C107.067 162.644 107.283 162.421 107.42 162.147C107.557 161.874 107.625 161.58 107.625 161.266V160.363C107.538 160.445 107.308 160.521 106.935 160.589C106.561 160.653 106.167 160.714 105.752 160.773C105.474 160.81 105.21 160.874 104.959 160.965C104.713 161.051 104.512 161.177 104.357 161.341C104.202 161.5 104.125 161.717 104.125 161.99C104.125 162.327 104.257 162.592 104.521 162.783C104.79 162.975 105.155 163.07 105.615 163.07ZM110.496 166.857V156.781H111.631V157.848H111.645C111.877 157.442 112.198 157.141 112.608 156.945C113.019 156.745 113.458 156.645 113.928 156.645C114.557 156.645 115.106 156.802 115.575 157.116C116.045 157.431 116.409 157.87 116.669 158.436C116.929 158.996 117.059 159.648 117.059 160.391C117.059 161.129 116.929 161.781 116.669 162.346C116.409 162.906 116.045 163.346 115.575 163.665C115.106 163.979 114.557 164.137 113.928 164.137C113.458 164.137 113.03 164.036 112.643 163.836C112.255 163.631 111.932 163.321 111.672 162.906H111.658V166.857H110.496ZM113.75 163.091C114.374 163.091 114.885 162.863 115.281 162.407C115.682 161.947 115.883 161.275 115.883 160.391C115.883 159.507 115.682 158.834 115.281 158.374C114.885 157.914 114.374 157.684 113.75 157.684C113.08 157.684 112.547 157.932 112.15 158.429C111.758 158.921 111.562 159.575 111.562 160.391C111.562 161.206 111.758 161.86 112.15 162.353C112.547 162.845 113.08 163.091 113.75 163.091ZM124.004 164H122.842V161.286H120.859C120.837 161.286 120.812 161.286 120.784 161.286L119.048 164H117.708L119.595 161.122C118.565 160.808 118.05 160.119 118.05 159.058C118.05 158.324 118.289 157.761 118.768 157.369C119.246 156.977 119.927 156.781 120.812 156.781H124.004V164ZM122.842 160.302V157.807H120.907C120.315 157.807 119.88 157.907 119.602 158.107C119.328 158.308 119.191 158.625 119.191 159.058C119.191 159.491 119.333 159.807 119.615 160.008C119.898 160.204 120.344 160.302 120.955 160.302H122.842ZM129.227 166.857V156.781H130.361V157.848H130.375C130.607 157.442 130.929 157.141 131.339 156.945C131.749 156.745 132.189 156.645 132.658 156.645C133.287 156.645 133.836 156.802 134.306 157.116C134.775 157.431 135.14 157.87 135.399 158.436C135.659 158.996 135.789 159.648 135.789 160.391C135.789 161.129 135.659 161.781 135.399 162.346C135.14 162.906 134.775 163.346 134.306 163.665C133.836 163.979 133.287 164.137 132.658 164.137C132.189 164.137 131.76 164.036 131.373 163.836C130.986 163.631 130.662 163.321 130.402 162.906H130.389V166.857H129.227ZM132.48 163.091C133.105 163.091 133.615 162.863 134.012 162.407C134.413 161.947 134.613 161.275 134.613 160.391C134.613 159.507 134.413 158.834 134.012 158.374C133.615 157.914 133.105 157.684 132.48 157.684C131.811 157.684 131.277 157.932 130.881 158.429C130.489 158.921 130.293 159.575 130.293 160.391C130.293 161.206 130.489 161.86 130.881 162.353C131.277 162.845 131.811 163.091 132.48 163.091ZM140.123 164.164C139.458 164.164 138.872 164.005 138.366 163.686C137.865 163.362 137.473 162.918 137.19 162.353C136.912 161.787 136.773 161.138 136.773 160.404C136.773 159.666 136.912 159.012 137.19 158.442C137.473 157.873 137.865 157.426 138.366 157.103C138.872 156.779 139.458 156.617 140.123 156.617C140.793 156.617 141.379 156.779 141.88 157.103C142.381 157.426 142.771 157.873 143.049 158.442C143.331 159.012 143.473 159.666 143.473 160.404C143.473 161.138 143.331 161.787 143.049 162.353C142.771 162.918 142.381 163.362 141.88 163.686C141.379 164.005 140.793 164.164 140.123 164.164ZM140.123 163.111C140.807 163.111 141.34 162.865 141.723 162.373C142.105 161.876 142.297 161.22 142.297 160.404C142.297 159.579 142.103 158.919 141.716 158.422C141.333 157.921 140.802 157.67 140.123 157.67C139.444 157.67 138.911 157.918 138.523 158.415C138.141 158.912 137.949 159.575 137.949 160.404C137.949 161.225 138.141 161.881 138.523 162.373C138.906 162.865 139.439 163.111 140.123 163.111ZM147.807 164.164C147.141 164.164 146.556 164.005 146.05 163.686C145.549 163.362 145.157 162.918 144.874 162.353C144.596 161.787 144.457 161.138 144.457 160.404C144.457 159.666 144.596 159.012 144.874 158.442C145.157 157.873 145.549 157.426 146.05 157.103C146.556 156.779 147.141 156.617 147.807 156.617C148.354 156.617 148.843 156.727 149.276 156.945C149.709 157.16 150.062 157.456 150.336 157.834C150.614 158.212 150.785 158.645 150.849 159.133H149.673C149.586 158.709 149.386 158.36 149.071 158.087C148.761 157.809 148.34 157.67 147.807 157.67C147.128 157.67 146.594 157.918 146.207 158.415C145.824 158.912 145.633 159.575 145.633 160.404C145.633 161.225 145.824 161.881 146.207 162.373C146.59 162.865 147.123 163.111 147.807 163.111C148.349 163.111 148.764 162.979 149.051 162.715C149.338 162.446 149.538 162.09 149.652 161.648H150.849C150.785 162.122 150.614 162.551 150.336 162.934C150.062 163.312 149.707 163.613 149.27 163.836C148.837 164.055 148.349 164.164 147.807 164.164ZM153.918 164V157.834H151.396V156.781H157.589V157.834H155.08V164H153.918ZM158.73 166.857V165.832H159.441C159.87 165.832 160.196 165.543 160.419 164.964L160.815 163.938L158.02 156.781H159.277L160.836 160.938C160.936 161.206 161.034 161.478 161.13 161.751C161.23 162.02 161.326 162.289 161.417 162.558C161.513 162.289 161.608 162.02 161.704 161.751C161.804 161.478 161.905 161.206 162.005 160.938L163.536 156.781H164.773L161.444 165.34C161.257 165.823 160.991 166.197 160.645 166.461C160.298 166.725 159.897 166.857 159.441 166.857H158.73ZM25.1562 181H22.0117V170.814H25.293C26.2819 170.814 27.1296 171.017 27.8359 171.423C28.5469 171.828 29.0915 172.412 29.4697 173.173C29.848 173.929 30.0371 174.834 30.0371 175.887C30.0371 176.949 29.8457 177.862 29.4629 178.628C29.0801 179.389 28.5241 179.975 27.7949 180.385C27.0703 180.795 26.1908 181 25.1562 181ZM23.2422 179.906H25.0742C26.3411 179.906 27.2799 179.549 27.8906 178.833C28.5013 178.113 28.8066 177.131 28.8066 175.887C28.8066 174.656 28.5059 173.686 27.9043 172.975C27.3073 172.264 26.4095 171.908 25.2109 171.908H23.2422V179.906ZM31.5137 181V173.781H32.6758V181H31.5137ZM32.0947 172.373C31.876 172.373 31.6891 172.296 31.5342 172.141C31.3792 171.986 31.3018 171.799 31.3018 171.58C31.3018 171.361 31.3792 171.174 31.5342 171.02C31.6891 170.865 31.876 170.787 32.0947 170.787C32.3135 170.787 32.5003 170.865 32.6553 171.02C32.8102 171.174 32.8877 171.361 32.8877 171.58C32.8877 171.799 32.8102 171.986 32.6553 172.141C32.5003 172.296 32.3135 172.373 32.0947 172.373ZM36.9141 181.164C36.3991 181.164 35.932 181.08 35.5127 180.911C35.0934 180.743 34.7539 180.487 34.4941 180.146C34.2344 179.799 34.0885 179.364 34.0566 178.84H35.2051C35.2871 179.724 35.8477 180.166 36.8867 180.166C37.388 180.166 37.7822 180.061 38.0693 179.852C38.361 179.642 38.5068 179.378 38.5068 179.059C38.5068 178.785 38.4066 178.566 38.2061 178.402C38.0055 178.238 37.7435 178.12 37.4199 178.047L36.2578 177.773C34.8997 177.454 34.2207 176.771 34.2207 175.723C34.2207 175.312 34.3301 174.95 34.5488 174.636C34.7721 174.317 35.0798 174.068 35.4717 173.891C35.8682 173.708 36.3239 173.617 36.8389 173.617C37.3402 173.617 37.7891 173.713 38.1855 173.904C38.5866 174.091 38.9033 174.358 39.1357 174.704C39.3727 175.05 39.498 175.463 39.5117 175.941H38.377C38.3724 175.559 38.2311 175.242 37.9531 174.991C37.6751 174.741 37.3037 174.615 36.8389 174.615C36.3968 174.615 36.0436 174.722 35.7793 174.937C35.515 175.151 35.3828 175.413 35.3828 175.723C35.3828 175.996 35.4831 176.217 35.6836 176.386C35.8841 176.55 36.1576 176.673 36.5039 176.755L37.666 177.028C38.3587 177.192 38.8669 177.438 39.1904 177.767C39.514 178.09 39.6758 178.512 39.6758 179.031C39.6758 179.478 39.555 179.861 39.3135 180.18C39.0719 180.499 38.7415 180.743 38.3223 180.911C37.9076 181.08 37.4382 181.164 36.9141 181.164ZM44.0234 181.164C43.3581 181.164 42.7725 181.005 42.2666 180.686C41.7653 180.362 41.3734 179.918 41.0908 179.353C40.8128 178.787 40.6738 178.138 40.6738 177.404C40.6738 176.666 40.8128 176.012 41.0908 175.442C41.3734 174.873 41.7653 174.426 42.2666 174.103C42.7725 173.779 43.3581 173.617 44.0234 173.617C44.5703 173.617 45.0602 173.727 45.4932 173.945C45.9261 174.16 46.2793 174.456 46.5527 174.834C46.8307 175.212 47.0016 175.645 47.0654 176.133H45.8896C45.8031 175.709 45.6025 175.36 45.2881 175.087C44.9782 174.809 44.5566 174.67 44.0234 174.67C43.3444 174.67 42.8112 174.918 42.4238 175.415C42.041 175.912 41.8496 176.575 41.8496 177.404C41.8496 178.225 42.041 178.881 42.4238 179.373C42.8066 179.865 43.3398 180.111 44.0234 180.111C44.5658 180.111 44.9805 179.979 45.2676 179.715C45.5547 179.446 45.7552 179.09 45.8691 178.648H47.0654C47.0016 179.122 46.8307 179.551 46.5527 179.934C46.2793 180.312 45.9238 180.613 45.4863 180.836C45.0534 181.055 44.5658 181.164 44.0234 181.164ZM51.3516 181.164C50.6862 181.164 50.1006 181.005 49.5947 180.686C49.0934 180.362 48.7015 179.918 48.4189 179.353C48.141 178.787 48.002 178.138 48.002 177.404C48.002 176.666 48.141 176.012 48.4189 175.442C48.7015 174.873 49.0934 174.426 49.5947 174.103C50.1006 173.779 50.6862 173.617 51.3516 173.617C52.0215 173.617 52.6071 173.779 53.1084 174.103C53.6097 174.426 53.9993 174.873 54.2773 175.442C54.5599 176.012 54.7012 176.666 54.7012 177.404C54.7012 178.138 54.5599 178.787 54.2773 179.353C53.9993 179.918 53.6097 180.362 53.1084 180.686C52.6071 181.005 52.0215 181.164 51.3516 181.164ZM51.3516 180.111C52.0352 180.111 52.5684 179.865 52.9512 179.373C53.334 178.876 53.5254 178.22 53.5254 177.404C53.5254 176.579 53.3317 175.919 52.9443 175.422C52.5615 174.921 52.0306 174.67 51.3516 174.67C50.6725 174.67 50.1393 174.918 49.752 175.415C49.3691 175.912 49.1777 176.575 49.1777 177.404C49.1777 178.225 49.3691 178.881 49.752 179.373C50.1348 179.865 50.668 180.111 51.3516 180.111ZM57.9141 181L55.125 173.781H56.3828L57.9414 177.938C58.0462 178.215 58.1465 178.493 58.2422 178.771C58.3379 179.045 58.4313 179.321 58.5225 179.599C58.6182 179.321 58.7139 179.045 58.8096 178.771C58.9053 178.493 59.0033 178.215 59.1035 177.938L60.6416 173.781H61.8789L59.0898 181H57.9141ZM65.6523 181.164C64.946 181.164 64.3421 181.002 63.8408 180.679C63.3441 180.355 62.9635 179.911 62.6992 179.346C62.4349 178.776 62.3027 178.129 62.3027 177.404C62.3027 176.671 62.4417 176.019 62.7197 175.449C62.9977 174.88 63.3828 174.433 63.875 174.109C64.3672 173.781 64.9323 173.617 65.5703 173.617C66.2402 173.617 66.8213 173.777 67.3135 174.096C67.8057 174.415 68.1839 174.859 68.4482 175.429C68.7171 175.998 68.8516 176.657 68.8516 177.404V177.726H63.4512C63.4785 178.432 63.6813 179.006 64.0596 179.448C64.4378 179.89 64.9688 180.111 65.6523 180.111C66.1673 180.111 66.5866 179.993 66.9102 179.756C67.2383 179.519 67.457 179.214 67.5664 178.84H68.7285C68.6374 179.3 68.4482 179.706 68.1611 180.057C67.874 180.403 67.514 180.674 67.0811 180.87C66.6527 181.066 66.1764 181.164 65.6523 181.164ZM63.4648 176.728H67.6895C67.6257 176.094 67.4046 175.59 67.0264 175.217C66.6481 174.843 66.1628 174.656 65.5703 174.656C64.9779 174.656 64.4948 174.843 64.1211 175.217C63.7474 175.59 63.5286 176.094 63.4648 176.728ZM70.1777 181V173.781H71.2852V174.916H71.3125C71.4447 174.542 71.6543 174.242 71.9414 174.014C72.2285 173.786 72.5977 173.672 73.0488 173.672C73.1536 173.672 73.2493 173.676 73.3359 173.686C73.4271 173.695 73.4954 173.704 73.541 173.713V174.875C73.4954 174.861 73.4066 174.845 73.2744 174.827C73.1468 174.804 72.9987 174.793 72.8301 174.793C72.429 174.793 72.0804 174.934 71.7842 175.217C71.488 175.499 71.3398 175.946 71.3398 176.557V181H70.1777ZM76.6719 181.109C75.9564 181.109 75.3571 180.925 74.874 180.556C74.3955 180.187 74.1562 179.642 74.1562 178.922C74.1562 178.507 74.236 178.17 74.3955 177.91C74.5596 177.65 74.776 177.448 75.0449 177.302C75.3184 177.151 75.626 177.037 75.9678 176.96C76.3141 176.882 76.6673 176.821 77.0273 176.775C77.4876 176.712 77.8499 176.664 78.1143 176.632C78.3786 176.6 78.5654 176.548 78.6748 176.475C78.7887 176.402 78.8457 176.274 78.8457 176.092V176.023C78.8457 175.632 78.7044 175.308 78.4219 175.053C78.1439 174.798 77.752 174.67 77.2461 174.67C76.7448 174.67 76.3324 174.793 76.0088 175.039C75.6898 175.281 75.5166 175.581 75.4893 175.941H74.3066C74.3294 175.499 74.4661 175.107 74.7168 174.766C74.9674 174.419 75.3092 174.146 75.7422 173.945C76.1751 173.745 76.6764 173.645 77.2461 173.645C78.0892 173.645 78.7568 173.863 79.249 174.301C79.7458 174.734 79.9941 175.308 79.9941 176.023V181H78.8457V179.975H78.8184C78.7318 180.148 78.6042 180.323 78.4355 180.501C78.2669 180.674 78.0391 180.82 77.752 180.938C77.4694 181.052 77.1094 181.109 76.6719 181.109ZM76.8359 180.07C77.3099 180.07 77.695 179.986 77.9912 179.817C78.2874 179.644 78.5039 179.421 78.6406 179.147C78.7773 178.874 78.8457 178.58 78.8457 178.266V177.363C78.7591 177.445 78.529 177.521 78.1553 177.589C77.7816 177.653 77.3874 177.714 76.9727 177.773C76.6947 177.81 76.4303 177.874 76.1797 177.965C75.9336 178.051 75.7331 178.177 75.5781 178.341C75.4232 178.5 75.3457 178.717 75.3457 178.99C75.3457 179.327 75.4779 179.592 75.7422 179.783C76.0111 179.975 76.3757 180.07 76.8359 180.07ZM85.1484 181.137C84.679 181.137 84.2461 181.036 83.8496 180.836C83.4531 180.631 83.125 180.321 82.8652 179.906H82.8516V181H81.7168V170.814H82.8789V174.848H82.8926C83.125 174.442 83.4417 174.141 83.8428 173.945C84.2438 173.745 84.679 173.645 85.1484 173.645C85.7773 173.645 86.3265 173.802 86.7959 174.116C87.2653 174.431 87.6299 174.87 87.8896 175.436C88.1494 175.996 88.2793 176.648 88.2793 177.391C88.2793 178.129 88.1494 178.781 87.8896 179.346C87.6299 179.906 87.2653 180.346 86.7959 180.665C86.3265 180.979 85.7773 181.137 85.1484 181.137ZM84.9707 180.091C85.5951 180.091 86.1055 179.863 86.502 179.407C86.903 178.947 87.1035 178.275 87.1035 177.391C87.1035 176.507 86.903 175.834 86.502 175.374C86.1055 174.914 85.5951 174.684 84.9707 174.684C84.3008 174.684 83.7676 174.932 83.3711 175.429C82.9792 175.921 82.7832 176.575 82.7832 177.391C82.7832 178.206 82.9792 178.86 83.3711 179.353C83.7676 179.845 84.3008 180.091 84.9707 180.091ZM89.6328 181V173.781H90.7949V181H89.6328ZM90.2139 172.373C89.9951 172.373 89.8083 172.296 89.6533 172.141C89.4984 171.986 89.4209 171.799 89.4209 171.58C89.4209 171.361 89.4984 171.174 89.6533 171.02C89.8083 170.865 89.9951 170.787 90.2139 170.787C90.4326 170.787 90.6195 170.865 90.7744 171.02C90.9294 171.174 91.0068 171.361 91.0068 171.58C91.0068 171.799 90.9294 171.986 90.7744 172.141C90.6195 172.296 90.4326 172.373 90.2139 172.373ZM93.6797 170.814V181H92.5176V170.814H93.6797ZM95.4023 181V173.781H96.5645V181H95.4023ZM95.9834 172.373C95.7646 172.373 95.5778 172.296 95.4229 172.141C95.2679 171.986 95.1904 171.799 95.1904 171.58C95.1904 171.361 95.2679 171.174 95.4229 171.02C95.5778 170.865 95.7646 170.787 95.9834 170.787C96.2021 170.787 96.389 170.865 96.5439 171.02C96.6989 171.174 96.7764 171.361 96.7764 171.58C96.7764 171.799 96.6989 171.986 96.5439 172.141C96.389 172.296 96.2021 172.373 95.9834 172.373ZM101.575 173.781V174.779H100.112V179.25C100.112 179.528 100.169 179.724 100.283 179.838C100.402 179.947 100.609 180.002 100.905 180.002H101.575V181H100.796C99.5654 181 98.9502 180.458 98.9502 179.373V174.779H97.665V173.781H98.9502V171.812H100.112V173.781H101.575ZM103.25 183.857V182.832H103.961C104.389 182.832 104.715 182.543 104.938 181.964L105.335 180.938L102.539 173.781H103.797L105.355 177.938C105.456 178.206 105.554 178.478 105.649 178.751C105.75 179.02 105.845 179.289 105.937 179.558C106.032 179.289 106.128 179.02 106.224 178.751C106.324 178.478 106.424 178.206 106.524 177.938L108.056 173.781H109.293L105.964 182.34C105.777 182.823 105.51 183.197 105.164 183.461C104.818 183.725 104.417 183.857 103.961 183.857H103.25ZM116.84 181.164C116.174 181.164 115.589 181.005 115.083 180.686C114.582 180.362 114.19 179.918 113.907 179.353C113.629 178.787 113.49 178.138 113.49 177.404C113.49 176.666 113.629 176.012 113.907 175.442C114.19 174.873 114.582 174.426 115.083 174.103C115.589 173.779 116.174 173.617 116.84 173.617C117.387 173.617 117.877 173.727 118.31 173.945C118.743 174.16 119.096 174.456 119.369 174.834C119.647 175.212 119.818 175.645 119.882 176.133H118.706C118.619 175.709 118.419 175.36 118.104 175.087C117.795 174.809 117.373 174.67 116.84 174.67C116.161 174.67 115.628 174.918 115.24 175.415C114.857 175.912 114.666 176.575 114.666 177.404C114.666 178.225 114.857 178.881 115.24 179.373C115.623 179.865 116.156 180.111 116.84 180.111C117.382 180.111 117.797 179.979 118.084 179.715C118.371 179.446 118.572 179.09 118.686 178.648H119.882C119.818 179.122 119.647 179.551 119.369 179.934C119.096 180.312 118.74 180.613 118.303 180.836C117.87 181.055 117.382 181.164 116.84 181.164ZM127.88 181.137C127.228 181.137 126.643 181.002 126.123 180.733C125.604 180.46 125.189 180.091 124.879 179.626C124.569 179.161 124.4 178.635 124.373 178.047H125.604C125.658 178.626 125.895 179.104 126.314 179.482C126.738 179.856 127.26 180.043 127.88 180.043C128.322 180.043 128.707 179.94 129.035 179.735C129.368 179.53 129.628 179.25 129.814 178.895C130.001 178.535 130.095 178.124 130.095 177.664C130.095 177.204 130.006 176.796 129.828 176.44C129.65 176.085 129.402 175.807 129.083 175.606C128.764 175.401 128.393 175.299 127.969 175.299C127.408 175.299 126.927 175.413 126.526 175.641C126.125 175.864 125.845 176.192 125.686 176.625H124.503L124.845 170.814H130.724V171.908H125.959L125.713 175.21H125.727C126.36 174.531 127.158 174.191 128.119 174.191C128.743 174.191 129.293 174.34 129.767 174.636C130.245 174.932 130.617 175.34 130.881 175.859C131.15 176.379 131.284 176.976 131.284 177.65C131.284 178.334 131.141 178.938 130.854 179.462C130.571 179.986 130.174 180.396 129.664 180.692C129.154 180.989 128.559 181.137 127.88 181.137ZM135.98 181.164C135.306 181.164 134.709 181.041 134.189 180.795C133.67 180.549 133.262 180.209 132.966 179.776C132.67 179.343 132.521 178.849 132.521 178.293C132.521 177.842 132.617 177.429 132.809 177.056C133 176.677 133.257 176.368 133.581 176.126C133.909 175.88 134.278 175.729 134.688 175.675C134.164 175.575 133.734 175.317 133.396 174.902C133.059 174.488 132.891 173.982 132.891 173.385C132.891 172.861 133.025 172.394 133.294 171.983C133.563 171.569 133.93 171.243 134.395 171.006C134.859 170.769 135.388 170.65 135.98 170.65C136.568 170.65 137.095 170.769 137.56 171.006C138.024 171.243 138.389 171.569 138.653 171.983C138.922 172.394 139.057 172.861 139.057 173.385C139.057 173.977 138.888 174.483 138.551 174.902C138.214 175.317 137.787 175.575 137.272 175.675C137.678 175.734 138.045 175.887 138.373 176.133C138.701 176.374 138.961 176.684 139.152 177.062C139.344 177.436 139.439 177.846 139.439 178.293C139.439 178.849 139.291 179.343 138.995 179.776C138.699 180.209 138.291 180.549 137.771 180.795C137.252 181.041 136.655 181.164 135.98 181.164ZM135.98 180.07C136.66 180.07 137.202 179.904 137.607 179.571C138.018 179.239 138.223 178.794 138.223 178.238C138.223 177.855 138.127 177.516 137.936 177.22C137.744 176.924 137.48 176.691 137.143 176.522C136.805 176.354 136.418 176.27 135.98 176.27C135.543 176.27 135.153 176.354 134.812 176.522C134.474 176.691 134.208 176.924 134.012 177.22C133.82 177.516 133.725 177.855 133.725 178.238C133.725 178.79 133.93 179.234 134.34 179.571C134.75 179.904 135.297 180.07 135.98 180.07ZM135.98 175.217C136.541 175.217 136.994 175.057 137.341 174.738C137.692 174.415 137.867 173.991 137.867 173.467C137.867 172.947 137.694 172.528 137.348 172.209C137.001 171.89 136.546 171.73 135.98 171.73C135.415 171.73 134.957 171.89 134.606 172.209C134.256 172.528 134.08 172.947 134.08 173.467C134.08 173.986 134.256 174.408 134.606 174.731C134.957 175.055 135.415 175.217 135.98 175.217ZM143.076 175.504C142.648 175.504 142.274 175.404 141.955 175.203C141.641 174.998 141.395 174.72 141.217 174.369C141.044 174.018 140.957 173.622 140.957 173.18V172.975C140.957 172.533 141.044 172.136 141.217 171.785C141.395 171.434 141.641 171.159 141.955 170.958C142.274 170.753 142.648 170.65 143.076 170.65C143.505 170.65 143.876 170.753 144.19 170.958C144.505 171.159 144.749 171.434 144.922 171.785C145.095 172.136 145.182 172.533 145.182 172.975V173.18C145.182 173.622 145.095 174.018 144.922 174.369C144.749 174.72 144.505 174.998 144.19 175.203C143.876 175.404 143.505 175.504 143.076 175.504ZM148.859 181.164C148.431 181.164 148.057 181.064 147.738 180.863C147.424 180.658 147.178 180.38 147 180.029C146.827 179.678 146.74 179.282 146.74 178.84V178.635C146.74 178.193 146.827 177.796 147 177.445C147.178 177.094 147.424 176.819 147.738 176.618C148.057 176.413 148.431 176.311 148.859 176.311C149.288 176.311 149.659 176.413 149.974 176.618C150.288 176.819 150.532 177.094 150.705 177.445C150.878 177.796 150.965 178.193 150.965 178.635V178.84C150.965 179.282 150.878 179.678 150.705 180.029C150.532 180.38 150.288 180.658 149.974 180.863C149.659 181.064 149.288 181.164 148.859 181.164ZM141.846 181L148.846 170.814H150.035L143.035 181H141.846ZM143.076 174.615C143.404 174.615 143.664 174.488 143.855 174.232C144.047 173.977 144.143 173.626 144.143 173.18V172.975C144.143 172.528 144.047 172.177 143.855 171.922C143.664 171.667 143.404 171.539 143.076 171.539C142.743 171.539 142.479 171.667 142.283 171.922C142.092 172.177 141.996 172.528 141.996 172.975V173.18C141.996 173.626 142.092 173.977 142.283 174.232C142.479 174.488 142.743 174.615 143.076 174.615ZM148.859 180.275C149.188 180.275 149.447 180.148 149.639 179.893C149.83 179.637 149.926 179.286 149.926 178.84V178.635C149.926 178.188 149.83 177.837 149.639 177.582C149.447 177.327 149.188 177.199 148.859 177.199C148.527 177.199 148.262 177.327 148.066 177.582C147.875 177.837 147.779 178.188 147.779 178.635V178.84C147.779 179.286 147.875 179.637 148.066 179.893C148.262 180.148 148.527 180.275 148.859 180.275ZM155.524 183.188V179.906H156.153C156.363 179.688 156.536 179.453 156.673 179.202C156.81 178.951 156.921 178.623 157.008 178.218C157.099 177.812 157.174 177.272 157.233 176.598L157.493 173.781H162.347V179.906H163.509V183.188H162.347V181H156.687V183.188H155.524ZM157.493 179.906H161.185V174.875H158.553L158.382 176.598C158.309 177.34 158.209 177.99 158.081 178.546C157.958 179.102 157.762 179.555 157.493 179.906ZM167.508 181.164C166.842 181.164 166.257 181.005 165.751 180.686C165.25 180.362 164.858 179.918 164.575 179.353C164.297 178.787 164.158 178.138 164.158 177.404C164.158 176.666 164.297 176.012 164.575 175.442C164.858 174.873 165.25 174.426 165.751 174.103C166.257 173.779 166.842 173.617 167.508 173.617C168.178 173.617 168.763 173.779 169.265 174.103C169.766 174.426 170.156 174.873 170.434 175.442C170.716 176.012 170.857 176.666 170.857 177.404C170.857 178.138 170.716 178.787 170.434 179.353C170.156 179.918 169.766 180.362 169.265 180.686C168.763 181.005 168.178 181.164 167.508 181.164ZM167.508 180.111C168.191 180.111 168.725 179.865 169.107 179.373C169.49 178.876 169.682 178.22 169.682 177.404C169.682 176.579 169.488 175.919 169.101 175.422C168.718 174.921 168.187 174.67 167.508 174.67C166.829 174.67 166.296 174.918 165.908 175.415C165.525 175.912 165.334 176.575 165.334 177.404C165.334 178.225 165.525 178.881 165.908 179.373C166.291 179.865 166.824 180.111 167.508 180.111ZM178.924 181.164C178.249 181.164 177.652 181.041 177.133 180.795C176.613 180.549 176.205 180.209 175.909 179.776C175.613 179.343 175.465 178.849 175.465 178.293C175.465 177.842 175.561 177.429 175.752 177.056C175.943 176.677 176.201 176.368 176.524 176.126C176.853 175.88 177.222 175.729 177.632 175.675C177.108 175.575 176.677 175.317 176.34 174.902C176.003 174.488 175.834 173.982 175.834 173.385C175.834 172.861 175.968 172.394 176.237 171.983C176.506 171.569 176.873 171.243 177.338 171.006C177.803 170.769 178.331 170.65 178.924 170.65C179.512 170.65 180.038 170.769 180.503 171.006C180.968 171.243 181.332 171.569 181.597 171.983C181.866 172.394 182 172.861 182 173.385C182 173.977 181.831 174.483 181.494 174.902C181.157 175.317 180.731 175.575 180.216 175.675C180.621 175.734 180.988 175.887 181.316 176.133C181.645 176.374 181.904 176.684 182.096 177.062C182.287 177.436 182.383 177.846 182.383 178.293C182.383 178.849 182.235 179.343 181.938 179.776C181.642 180.209 181.234 180.549 180.715 180.795C180.195 181.041 179.598 181.164 178.924 181.164ZM178.924 180.07C179.603 180.07 180.145 179.904 180.551 179.571C180.961 179.239 181.166 178.794 181.166 178.238C181.166 177.855 181.07 177.516 180.879 177.22C180.688 176.924 180.423 176.691 180.086 176.522C179.749 176.354 179.361 176.27 178.924 176.27C178.486 176.27 178.097 176.354 177.755 176.522C177.418 176.691 177.151 176.924 176.955 177.22C176.764 177.516 176.668 177.855 176.668 178.238C176.668 178.79 176.873 179.234 177.283 179.571C177.693 179.904 178.24 180.07 178.924 180.07ZM178.924 175.217C179.484 175.217 179.938 175.057 180.284 174.738C180.635 174.415 180.811 173.991 180.811 173.467C180.811 172.947 180.637 172.528 180.291 172.209C179.945 171.89 179.489 171.73 178.924 171.73C178.359 171.73 177.901 171.89 177.55 172.209C177.199 172.528 177.023 172.947 177.023 173.467C177.023 173.986 177.199 174.408 177.55 174.731C177.901 175.055 178.359 175.217 178.924 175.217ZM183.354 178.539V177.527L188.228 170.814H189.731V177.445H191.29V178.539H189.731V181H188.556V178.539H183.354ZM188.556 177.445V172.195H188.542L184.748 177.432V177.445H188.556ZM194.674 175.504C194.245 175.504 193.872 175.404 193.553 175.203C193.238 174.998 192.992 174.72 192.814 174.369C192.641 174.018 192.555 173.622 192.555 173.18V172.975C192.555 172.533 192.641 172.136 192.814 171.785C192.992 171.434 193.238 171.159 193.553 170.958C193.872 170.753 194.245 170.65 194.674 170.65C195.102 170.65 195.474 170.753 195.788 170.958C196.103 171.159 196.346 171.434 196.52 171.785C196.693 172.136 196.779 172.533 196.779 172.975V173.18C196.779 173.622 196.693 174.018 196.52 174.369C196.346 174.72 196.103 174.998 195.788 175.203C195.474 175.404 195.102 175.504 194.674 175.504ZM200.457 181.164C200.029 181.164 199.655 181.064 199.336 180.863C199.021 180.658 198.775 180.38 198.598 180.029C198.424 179.678 198.338 179.282 198.338 178.84V178.635C198.338 178.193 198.424 177.796 198.598 177.445C198.775 177.094 199.021 176.819 199.336 176.618C199.655 176.413 200.029 176.311 200.457 176.311C200.885 176.311 201.257 176.413 201.571 176.618C201.886 176.819 202.13 177.094 202.303 177.445C202.476 177.796 202.562 178.193 202.562 178.635V178.84C202.562 179.282 202.476 179.678 202.303 180.029C202.13 180.38 201.886 180.658 201.571 180.863C201.257 181.064 200.885 181.164 200.457 181.164ZM193.443 181L200.443 170.814H201.633L194.633 181H193.443ZM194.674 174.615C195.002 174.615 195.262 174.488 195.453 174.232C195.645 173.977 195.74 173.626 195.74 173.18V172.975C195.74 172.528 195.645 172.177 195.453 171.922C195.262 171.667 195.002 171.539 194.674 171.539C194.341 171.539 194.077 171.667 193.881 171.922C193.689 172.177 193.594 172.528 193.594 172.975V173.18C193.594 173.626 193.689 173.977 193.881 174.232C194.077 174.488 194.341 174.615 194.674 174.615ZM200.457 180.275C200.785 180.275 201.045 180.148 201.236 179.893C201.428 179.637 201.523 179.286 201.523 178.84V178.635C201.523 178.188 201.428 177.837 201.236 177.582C201.045 177.327 200.785 177.199 200.457 177.199C200.124 177.199 199.86 177.327 199.664 177.582C199.473 177.837 199.377 178.188 199.377 178.635V178.84C199.377 179.286 199.473 179.637 199.664 179.893C199.86 180.148 200.124 180.275 200.457 180.275Z" fill="#2A2A2E"/>
</svg>
