<svg width="300" height="300" viewBox="0 0 300 300" fill="none" xmlns="http://www.w3.org/2000/svg">
<path d="M0 24C0 10.7452 10.7452 0 24 0H276C289.255 0 300 10.7452 300 24V276C300 289.255 289.255 300 276 300H24C10.7452 300 0 289.255 0 276V24Z" fill="white"/>
<path d="M30.7148 249.281C29.5352 249.281 28.5 249.008 27.6094 248.461C26.7188 247.914 26.0234 247.156 25.5234 246.188C25.0312 245.219 24.7852 244.102 24.7852 242.836C24.7852 241.555 25.0312 240.43 25.5234 239.461C26.0234 238.484 26.7188 237.723 27.6094 237.176C28.5 236.621 29.5352 236.344 30.7148 236.344C31.8945 236.344 32.9258 236.621 33.8086 237.176C34.6992 237.723 35.3906 238.484 35.8828 239.461C36.3828 240.43 36.6328 241.555 36.6328 242.836C36.6328 244.102 36.3828 245.219 35.8828 246.188C35.3906 247.156 34.6992 247.914 33.8086 248.461C32.9258 249.008 31.8945 249.281 30.7148 249.281ZM30.7148 247.148C31.7773 247.148 32.6133 246.758 33.2227 245.977C33.832 245.195 34.1367 244.148 34.1367 242.836C34.1367 241.508 33.8281 240.449 33.2109 239.66C32.6016 238.871 31.7695 238.477 30.7148 238.477C29.6602 238.477 28.8242 238.871 28.207 239.66C27.5977 240.441 27.293 241.5 27.293 242.836C27.293 244.156 27.5977 245.207 28.207 245.988C28.8164 246.762 29.6523 247.148 30.7148 247.148ZM38.8242 236.625H41.2969V246.785H45.832V236.625H48.2695V246.785H52.793V236.625H55.2773V249H38.8242V236.625ZM68.9297 249H66.4688V240.363H66.4453L60.3867 249H58.0664V236.625H60.5273V245.262H60.5508L66.5977 236.625H68.9297V249ZM81.7734 231.035L82.8281 232.594C82.2422 233.141 81.5273 233.461 80.6836 233.555C79.8398 233.648 78.793 233.711 77.543 233.742C76.1367 233.789 75.0938 234.23 74.4141 235.066C73.7422 235.902 73.3359 237.156 73.1953 238.828H73.3594C73.7812 238.016 74.3711 237.41 75.1289 237.012C75.8945 236.605 76.75 236.402 77.6953 236.402C78.7422 236.402 79.6758 236.645 80.4961 237.129C81.3242 237.605 81.9727 238.309 82.4414 239.238C82.918 240.168 83.1562 241.305 83.1562 242.648C83.1562 244.008 82.9102 245.184 82.418 246.176C81.9258 247.168 81.2305 247.934 80.332 248.473C79.4336 249.004 78.3789 249.27 77.168 249.27C75.3398 249.27 73.875 248.648 72.7734 247.406C71.6719 246.156 71.1211 244.324 71.1211 241.91V240.621C71.1367 234.652 73.2578 231.625 77.4844 231.539C77.7188 231.531 77.9453 231.527 78.1641 231.527C78.3828 231.527 78.5938 231.527 78.7969 231.527C79.4766 231.535 80.0625 231.52 80.5547 231.48C81.0469 231.434 81.4531 231.285 81.7734 231.035ZM77.1797 247.172C78.25 247.164 79.0938 246.758 79.7109 245.953C80.3281 245.148 80.6367 244.059 80.6367 242.684C80.6367 241.348 80.3242 240.316 79.6992 239.59C79.082 238.855 78.2266 238.488 77.1328 238.488C76.0703 238.488 75.2266 238.855 74.6016 239.59C73.9844 240.316 73.668 241.348 73.6523 242.684C73.6523 244.043 73.9648 245.129 74.5898 245.941C75.2148 246.754 76.0781 247.164 77.1797 247.172ZM90.668 249.281C89.4883 249.281 88.4531 249.008 87.5625 248.461C86.6719 247.914 85.9766 247.156 85.4766 246.188C84.9844 245.219 84.7383 244.102 84.7383 242.836C84.7383 241.555 84.9844 240.43 85.4766 239.461C85.9766 238.484 86.6719 237.723 87.5625 237.176C88.4531 236.621 89.4883 236.344 90.668 236.344C91.8477 236.344 92.8789 236.621 93.7617 237.176C94.6523 237.723 95.3438 238.484 95.8359 239.461C96.3359 240.43 96.5859 241.555 96.5859 242.836C96.5859 244.102 96.3359 245.219 95.8359 246.188C95.3438 247.156 94.6523 247.914 93.7617 248.461C92.8789 249.008 91.8477 249.281 90.668 249.281ZM90.668 247.148C91.7305 247.148 92.5664 246.758 93.1758 245.977C93.7852 245.195 94.0898 244.148 94.0898 242.836C94.0898 241.508 93.7812 240.449 93.1641 239.66C92.5547 238.871 91.7227 238.477 90.668 238.477C89.6133 238.477 88.7773 238.871 88.1602 239.66C87.5508 240.441 87.2461 241.5 87.2461 242.836C87.2461 244.156 87.5508 245.207 88.1602 245.988C88.7695 246.762 89.6055 247.148 90.668 247.148ZM98.7773 249V236.625H101.25V241.805H102.469L106.898 236.625H109.945L104.871 242.625L110.016 249H106.957L102.926 244.02H101.25V249H98.7773ZM122.355 249.281C121.176 249.281 120.141 249.008 119.25 248.461C118.367 247.914 117.68 247.156 117.188 246.188C116.695 245.211 116.449 244.094 116.449 242.836C116.449 241.562 116.695 240.438 117.188 239.461C117.688 238.484 118.379 237.723 119.262 237.176C120.145 236.621 121.176 236.344 122.355 236.344C123.34 236.344 124.219 236.539 124.992 236.93C125.773 237.312 126.406 237.844 126.891 238.523C127.375 239.203 127.668 239.98 127.77 240.855H125.309C125.184 240.16 124.871 239.59 124.371 239.145C123.871 238.699 123.203 238.477 122.367 238.477C121.297 238.477 120.461 238.871 119.859 239.66C119.258 240.449 118.957 241.508 118.957 242.836C118.957 244.148 119.258 245.195 119.859 245.977C120.461 246.758 121.297 247.148 122.367 247.148C123.219 247.148 123.875 246.934 124.336 246.504C124.797 246.066 125.109 245.484 125.273 244.758H127.77C127.676 245.617 127.387 246.391 126.902 247.078C126.418 247.758 125.785 248.297 125.004 248.695C124.223 249.086 123.34 249.281 122.355 249.281ZM135.199 249.281C134.02 249.281 132.984 249.008 132.094 248.461C131.203 247.914 130.508 247.156 130.008 246.188C129.516 245.219 129.27 244.102 129.27 242.836C129.27 241.555 129.516 240.43 130.008 239.461C130.508 238.484 131.203 237.723 132.094 237.176C132.984 236.621 134.02 236.344 135.199 236.344C136.379 236.344 137.41 236.621 138.293 237.176C139.184 237.723 139.875 238.484 140.367 239.461C140.867 240.43 141.117 241.555 141.117 242.836C141.117 244.102 140.867 245.219 140.367 246.188C139.875 247.156 139.184 247.914 138.293 248.461C137.41 249.008 136.379 249.281 135.199 249.281ZM135.199 247.148C136.262 247.148 137.098 246.758 137.707 245.977C138.316 245.195 138.621 244.148 138.621 242.836C138.621 241.508 138.312 240.449 137.695 239.66C137.086 238.871 136.254 238.477 135.199 238.477C134.145 238.477 133.309 238.871 132.691 239.66C132.082 240.441 131.777 241.5 131.777 242.836C131.777 244.156 132.082 245.207 132.691 245.988C133.301 246.762 134.137 247.148 135.199 247.148ZM143.309 249V236.625H148.559C150.035 236.625 151.203 236.902 152.062 237.457C152.922 238.012 153.352 238.828 153.352 239.906C153.352 240.633 153.145 241.215 152.73 241.652C152.324 242.082 151.754 242.363 151.02 242.496C151.824 242.598 152.492 242.898 153.023 243.398C153.562 243.891 153.832 244.59 153.832 245.496C153.832 246.559 153.449 247.41 152.684 248.051C151.918 248.684 150.824 249 149.402 249H143.309ZM145.652 246.891H149.344C149.992 246.891 150.492 246.754 150.844 246.48C151.195 246.207 151.371 245.816 151.371 245.309C151.371 244.746 151.195 244.312 150.844 244.008C150.492 243.703 149.992 243.551 149.344 243.551H145.652V246.891ZM145.652 241.758H148.664C149.383 241.758 149.938 241.621 150.328 241.348C150.719 241.066 150.914 240.672 150.914 240.164C150.914 239.695 150.707 239.336 150.293 239.086C149.887 238.828 149.309 238.699 148.559 238.699H145.652V241.758ZM161.297 249.281C160.07 249.281 159.016 249.004 158.133 248.449C157.258 247.895 156.582 247.133 156.105 246.164C155.637 245.188 155.402 244.078 155.402 242.836C155.402 241.578 155.648 240.461 156.141 239.484C156.633 238.508 157.312 237.742 158.18 237.188C159.047 236.625 160.043 236.344 161.168 236.344C162.34 236.344 163.355 236.617 164.215 237.164C165.082 237.711 165.754 238.473 166.23 239.449C166.707 240.418 166.945 241.539 166.945 242.812V243.48H157.84C157.887 244.598 158.207 245.5 158.801 246.188C159.402 246.875 160.246 247.219 161.332 247.219C162.145 247.219 162.812 247.035 163.336 246.668C163.859 246.301 164.207 245.824 164.379 245.238H166.758C166.609 246.035 166.277 246.738 165.762 247.348C165.254 247.957 164.613 248.434 163.84 248.777C163.074 249.113 162.227 249.281 161.297 249.281ZM157.863 241.605H164.531C164.43 240.621 164.082 239.844 163.488 239.273C162.895 238.695 162.129 238.406 161.191 238.406C160.254 238.406 159.488 238.695 158.895 239.273C158.309 239.844 157.965 240.621 157.863 241.605ZM169.09 253.898V236.625H171.516V238.406H171.551C171.941 237.727 172.477 237.219 173.156 236.883C173.836 236.547 174.578 236.379 175.383 236.379C176.445 236.379 177.379 236.652 178.184 237.199C178.988 237.738 179.613 238.492 180.059 239.461C180.512 240.422 180.738 241.539 180.738 242.812C180.738 244.086 180.516 245.207 180.07 246.176C179.625 247.137 179 247.891 178.195 248.438C177.391 248.977 176.449 249.246 175.371 249.246C174.566 249.246 173.84 249.07 173.191 248.719C172.543 248.367 172.012 247.84 171.598 247.137H171.562V253.898H169.09ZM174.867 247.113C175.867 247.113 176.676 246.746 177.293 246.012C177.918 245.277 178.23 244.211 178.23 242.812C178.23 241.414 177.918 240.348 177.293 239.613C176.676 238.871 175.867 238.5 174.867 238.5C173.812 238.5 172.969 238.895 172.336 239.684C171.711 240.465 171.398 241.508 171.398 242.812C171.398 244.109 171.711 245.152 172.336 245.941C172.969 246.723 173.812 247.113 174.867 247.113ZM182.918 236.625H185.391V246.785H189.926V236.625H192.363V246.785H196.887V236.625H199.371V249H182.918V236.625ZM205.934 249.199C204.699 249.199 203.676 248.887 202.863 248.262C202.051 247.629 201.645 246.695 201.645 245.461C201.645 244.523 201.875 243.805 202.336 243.305C202.805 242.797 203.41 242.434 204.152 242.215C204.902 241.996 205.695 241.836 206.531 241.734C207.305 241.641 207.918 241.562 208.371 241.5C208.824 241.438 209.145 241.344 209.332 241.219C209.527 241.094 209.625 240.879 209.625 240.574V240.469C209.625 239.867 209.406 239.375 208.969 238.992C208.531 238.602 207.918 238.406 207.129 238.406C206.34 238.406 205.695 238.598 205.195 238.98C204.695 239.355 204.422 239.828 204.375 240.398H201.949C202.004 239.219 202.5 238.254 203.438 237.504C204.375 236.754 205.617 236.379 207.164 236.379C208.688 236.379 209.887 236.754 210.762 237.504C211.637 238.254 212.074 239.258 212.074 240.516V249H209.637V247.242H209.59C209.332 247.742 208.922 248.195 208.359 248.602C207.805 249 206.996 249.199 205.934 249.199ZM206.438 247.207C207.531 247.207 208.336 246.926 208.852 246.363C209.375 245.793 209.637 245.129 209.637 244.371V242.918C209.473 243.051 209.102 243.172 208.523 243.281C207.945 243.383 207.328 243.48 206.672 243.574C205.992 243.676 205.395 243.867 204.879 244.148C204.363 244.43 204.105 244.883 204.105 245.508C204.105 246.039 204.312 246.457 204.727 246.762C205.148 247.059 205.719 247.207 206.438 247.207ZM214.863 249V236.625H217.336V241.699H220.102C220.242 240.629 220.57 239.695 221.086 238.898C221.609 238.094 222.285 237.469 223.113 237.023C223.941 236.57 224.887 236.344 225.949 236.344C227.129 236.344 228.164 236.621 229.055 237.176C229.945 237.723 230.637 238.484 231.129 239.461C231.621 240.43 231.867 241.555 231.867 242.836C231.867 244.102 231.621 245.219 231.129 246.188C230.637 247.156 229.945 247.914 229.055 248.461C228.164 249.008 227.129 249.281 225.949 249.281C224.887 249.281 223.938 249.059 223.102 248.613C222.273 248.16 221.598 247.531 221.074 246.727C220.559 245.922 220.23 244.984 220.09 243.914H217.336V249H214.863ZM225.949 247.148C227.012 247.148 227.848 246.758 228.457 245.977C229.066 245.195 229.371 244.148 229.371 242.836C229.371 241.508 229.062 240.449 228.445 239.66C227.836 238.871 227.004 238.477 225.949 238.477C224.895 238.477 224.059 238.871 223.441 239.66C222.832 240.441 222.527 241.5 222.527 242.836C222.527 244.156 222.832 245.207 223.441 245.988C224.051 246.762 224.887 247.148 225.949 247.148ZM237.117 249V238.781H232.852V236.625H243.844V238.781H239.59V249H237.117ZM36.1289 260.625V273H33.6562V262.84H27.8672V273H25.3945V260.625H36.1289ZM44.2383 273.281C43.0586 273.281 42.0234 273.008 41.1328 272.461C40.2422 271.914 39.5469 271.156 39.0469 270.188C38.5547 269.219 38.3086 268.102 38.3086 266.836C38.3086 265.555 38.5547 264.43 39.0469 263.461C39.5469 262.484 40.2422 261.723 41.1328 261.176C42.0234 260.621 43.0586 260.344 44.2383 260.344C45.418 260.344 46.4492 260.621 47.332 261.176C48.2227 261.723 48.9141 262.484 49.4062 263.461C49.9062 264.43 50.1562 265.555 50.1562 266.836C50.1562 268.102 49.9062 269.219 49.4062 270.188C48.9141 271.156 48.2227 271.914 47.332 272.461C46.4492 273.008 45.418 273.281 44.2383 273.281ZM44.2383 271.148C45.3008 271.148 46.1367 270.758 46.7461 269.977C47.3555 269.195 47.6602 268.148 47.6602 266.836C47.6602 265.508 47.3516 264.449 46.7344 263.66C46.125 262.871 45.293 262.477 44.2383 262.477C43.1836 262.477 42.3477 262.871 41.7305 263.66C41.1211 264.441 40.8164 265.5 40.8164 266.836C40.8164 268.156 41.1211 269.207 41.7305 269.988C42.3398 270.762 43.1758 271.148 44.2383 271.148ZM51.1406 273V270.82H51.6328C52.125 270.82 52.5117 270.707 52.793 270.48C53.0742 270.254 53.2812 269.809 53.4141 269.145C53.5469 268.473 53.6406 267.469 53.6953 266.133L53.9297 260.625H63.1289V273H60.6562V262.793H56.2969L56.0977 266.836C55.9883 268.992 55.6406 270.559 55.0547 271.535C54.4688 272.512 53.4688 273 52.0547 273H51.1406ZM68.3906 264.762H71.6367C73.0664 264.762 74.2188 265.137 75.0938 265.887C75.9688 266.637 76.4062 267.621 76.4062 268.84C76.4062 270.082 75.9688 271.086 75.0938 271.852C74.2188 272.617 73.0664 273 71.6367 273H65.918V260.625H68.3906V264.762ZM68.3906 266.918V270.832H71.543C72.293 270.832 72.8828 270.652 73.3125 270.293C73.75 269.934 73.9688 269.449 73.9688 268.84C73.9688 268.246 73.75 267.777 73.3125 267.434C72.8828 267.09 72.293 266.918 71.543 266.918H68.3906ZM82.9336 273.188C81.918 273.188 81.0391 273.016 80.2969 272.672C79.5625 272.32 78.9922 271.852 78.5859 271.266C78.1875 270.672 77.9844 270.004 77.9766 269.262H80.4141C80.4297 269.855 80.6641 270.324 81.1172 270.668C81.5781 271.004 82.1719 271.172 82.8984 271.172C83.6406 271.172 84.2422 271.008 84.7031 270.68C85.1719 270.344 85.4062 269.91 85.4062 269.379C85.4062 268.832 85.1641 268.387 84.6797 268.043C84.1953 267.691 83.5312 267.516 82.6875 267.516H81.7266V265.77H82.6875C83.3984 265.77 83.9727 265.609 84.4102 265.289C84.8555 264.969 85.0781 264.547 85.0781 264.023C85.0781 263.508 84.8789 263.094 84.4805 262.781C84.0898 262.469 83.5703 262.312 82.9219 262.312C82.2656 262.312 81.7148 262.473 81.2695 262.793C80.832 263.105 80.6094 263.539 80.6016 264.094H78.2461C78.2539 263.367 78.4609 262.723 78.8672 262.16C79.2734 261.598 79.8242 261.156 80.5195 260.836C81.2227 260.516 82.0273 260.355 82.9336 260.355C83.8242 260.355 84.6055 260.512 85.2773 260.824C85.957 261.129 86.4844 261.543 86.8594 262.066C87.2422 262.582 87.4336 263.164 87.4336 263.812C87.4336 264.508 87.2109 265.102 86.7656 265.594C86.3281 266.078 85.7344 266.395 84.9844 266.543V266.566C85.9062 266.684 86.6211 267.016 87.1289 267.562C87.6367 268.109 87.8906 268.766 87.8906 269.531C87.8906 270.234 87.6758 270.863 87.2461 271.418C86.8242 271.965 86.2383 272.398 85.4883 272.719C84.7461 273.031 83.8945 273.188 82.9336 273.188ZM95.332 273.281C94.1523 273.281 93.1172 273.008 92.2266 272.461C91.3359 271.914 90.6406 271.156 90.1406 270.188C89.6484 269.219 89.4023 268.102 89.4023 266.836C89.4023 265.555 89.6484 264.43 90.1406 263.461C90.6406 262.484 91.3359 261.723 92.2266 261.176C93.1172 260.621 94.1523 260.344 95.332 260.344C96.5117 260.344 97.543 260.621 98.4258 261.176C99.3164 261.723 100.008 262.484 100.5 263.461C101 264.43 101.25 265.555 101.25 266.836C101.25 268.102 101 269.219 100.5 270.188C100.008 271.156 99.3164 271.914 98.4258 272.461C97.543 273.008 96.5117 273.281 95.332 273.281ZM95.332 271.148C96.3945 271.148 97.2305 270.758 97.8398 269.977C98.4492 269.195 98.7539 268.148 98.7539 266.836C98.7539 265.508 98.4453 264.449 97.8281 263.66C97.2188 262.871 96.3867 262.477 95.332 262.477C94.2773 262.477 93.4414 262.871 92.8242 263.66C92.2148 264.441 91.9102 265.5 91.9102 266.836C91.9102 268.156 92.2148 269.207 92.8242 269.988C93.4336 270.762 94.2695 271.148 95.332 271.148ZM103.441 273V260.625H108.691C110.168 260.625 111.336 260.902 112.195 261.457C113.055 262.012 113.484 262.828 113.484 263.906C113.484 264.633 113.277 265.215 112.863 265.652C112.457 266.082 111.887 266.363 111.152 266.496C111.957 266.598 112.625 266.898 113.156 267.398C113.695 267.891 113.965 268.59 113.965 269.496C113.965 270.559 113.582 271.41 112.816 272.051C112.051 272.684 110.957 273 109.535 273H103.441ZM105.785 270.891H109.477C110.125 270.891 110.625 270.754 110.977 270.48C111.328 270.207 111.504 269.816 111.504 269.309C111.504 268.746 111.328 268.312 110.977 268.008C110.625 267.703 110.125 267.551 109.477 267.551H105.785V270.891ZM105.785 265.758H108.797C109.516 265.758 110.07 265.621 110.461 265.348C110.852 265.066 111.047 264.672 111.047 264.164C111.047 263.695 110.84 263.336 110.426 263.086C110.02 262.828 109.441 262.699 108.691 262.699H105.785V265.758ZM119.918 273.199C118.684 273.199 117.66 272.887 116.848 272.262C116.035 271.629 115.629 270.695 115.629 269.461C115.629 268.523 115.859 267.805 116.32 267.305C116.789 266.797 117.395 266.434 118.137 266.215C118.887 265.996 119.68 265.836 120.516 265.734C121.289 265.641 121.902 265.562 122.355 265.5C122.809 265.438 123.129 265.344 123.316 265.219C123.512 265.094 123.609 264.879 123.609 264.574V264.469C123.609 263.867 123.391 263.375 122.953 262.992C122.516 262.602 121.902 262.406 121.113 262.406C120.324 262.406 119.68 262.598 119.18 262.98C118.68 263.355 118.406 263.828 118.359 264.398H115.934C115.988 263.219 116.484 262.254 117.422 261.504C118.359 260.754 119.602 260.379 121.148 260.379C122.672 260.379 123.871 260.754 124.746 261.504C125.621 262.254 126.059 263.258 126.059 264.516V273H123.621V271.242H123.574C123.316 271.742 122.906 272.195 122.344 272.602C121.789 273 120.98 273.199 119.918 273.199ZM120.422 271.207C121.516 271.207 122.32 270.926 122.836 270.363C123.359 269.793 123.621 269.129 123.621 268.371V266.918C123.457 267.051 123.086 267.172 122.508 267.281C121.93 267.383 121.312 267.48 120.656 267.574C119.977 267.676 119.379 267.867 118.863 268.148C118.348 268.43 118.09 268.883 118.09 269.508C118.09 270.039 118.297 270.457 118.711 270.762C119.133 271.059 119.703 271.207 120.422 271.207ZM131.906 273V262.781H127.641V260.625H138.633V262.781H134.379V273H131.906ZM145.312 273.281C144.086 273.281 143.031 273.004 142.148 272.449C141.273 271.895 140.598 271.133 140.121 270.164C139.652 269.188 139.418 268.078 139.418 266.836C139.418 265.578 139.664 264.461 140.156 263.484C140.648 262.508 141.328 261.742 142.195 261.188C143.062 260.625 144.059 260.344 145.184 260.344C146.355 260.344 147.371 260.617 148.23 261.164C149.098 261.711 149.77 262.473 150.246 263.449C150.723 264.418 150.961 265.539 150.961 266.812V267.48H141.855C141.902 268.598 142.223 269.5 142.816 270.188C143.418 270.875 144.262 271.219 145.348 271.219C146.16 271.219 146.828 271.035 147.352 270.668C147.875 270.301 148.223 269.824 148.395 269.238H150.773C150.625 270.035 150.293 270.738 149.777 271.348C149.27 271.957 148.629 272.434 147.855 272.777C147.09 273.113 146.242 273.281 145.312 273.281ZM141.879 265.605H148.547C148.445 264.621 148.098 263.844 147.504 263.273C146.91 262.695 146.145 262.406 145.207 262.406C144.27 262.406 143.504 262.695 142.91 263.273C142.324 263.844 141.98 264.621 141.879 265.605ZM151.898 273V270.82H152.391C152.883 270.82 153.27 270.707 153.551 270.48C153.832 270.254 154.039 269.809 154.172 269.145C154.305 268.473 154.398 267.469 154.453 266.133L154.688 260.625H163.887V273H161.414V262.793H157.055L156.855 266.836C156.746 268.992 156.398 270.559 155.812 271.535C155.227 272.512 154.227 273 152.812 273H151.898ZM177.539 273H175.078V264.363H175.055L168.996 273H166.676V260.625H169.137V269.262H169.16L175.207 260.625H177.539V273Z" fill="#FF36C9"/>
<path d="M70.8812 152.014C60.365 152.014 51.3311 149.413 43.7796 144.211C36.2281 138.952 30.4107 131.513 26.3273 121.892C22.2998 112.214 20.2861 100.775 20.2861 87.5742C20.2861 74.3171 22.2998 62.85 26.3273 53.1729C30.4107 43.4957 36.2281 36.0561 43.7796 30.854C51.3311 25.5959 60.365 22.9668 70.8812 22.9668C81.3414 22.9668 90.3473 25.5959 97.8988 30.854C105.45 36.0561 111.268 43.4957 115.351 53.1729C119.435 62.85 121.476 74.3171 121.476 87.5742C121.476 100.831 119.435 112.27 115.351 121.892C111.268 131.513 105.45 138.952 97.8988 144.211C90.3473 149.413 81.3414 152.014 70.8812 152.014ZM70.8812 131.373C78.992 131.373 85.3968 127.485 90.0956 119.71C94.7943 111.879 97.1436 101.167 97.1436 87.5742C97.1436 73.9255 94.7943 63.1856 90.0956 55.3544C85.3968 47.5232 78.992 43.6076 70.8812 43.6076C62.7143 43.6076 56.2816 47.5232 51.5829 55.3544C46.9401 63.1856 44.6187 73.9255 44.6187 87.5742C44.6187 101.167 46.9401 111.879 51.5829 119.71C56.2816 127.485 62.7143 131.373 70.8812 131.373Z" fill="#FF36C9"/>
<rect x="123" y="122.397" width="58.9927" height="54.0202" rx="13.7327" transform="rotate(-11.1397 123 122.397)" fill="#FF36C9"/>
<path d="M170.606 157.507C169.119 157.8 167.756 157.71 166.516 157.237C165.277 156.765 164.223 155.985 163.356 154.898C162.504 153.807 161.926 152.488 161.621 150.939L161.485 150.25C161.18 148.701 161.215 147.261 161.59 145.929C161.98 144.594 162.659 143.473 163.627 142.566C164.595 141.659 165.823 141.059 167.31 140.766C168.781 140.476 170.137 140.567 171.377 141.04C172.616 141.512 173.662 142.294 174.514 143.384C175.381 144.472 175.967 145.79 176.272 147.338L176.408 148.028C176.712 149.576 176.67 151.018 176.28 152.353C175.905 153.685 175.234 154.804 174.266 155.711C173.298 156.619 172.078 157.217 170.606 157.507ZM146.495 142.906C145.023 143.196 143.66 143.106 142.405 142.636C141.165 142.164 140.12 141.382 139.268 140.292C138.416 139.202 137.838 137.882 137.533 136.334L137.397 135.644C137.092 134.095 137.127 132.655 137.502 131.323C137.877 129.992 138.548 128.872 139.516 127.965C140.499 127.055 141.727 126.455 143.199 126.165C144.686 125.872 146.049 125.962 147.289 126.434C148.528 126.907 149.574 127.688 150.426 128.779C151.277 129.869 151.856 131.188 152.161 132.737L152.296 133.427C152.601 134.975 152.566 136.415 152.192 137.747C151.817 139.079 151.146 140.198 150.178 141.106C149.21 142.013 147.982 142.613 146.495 142.906ZM146.26 161.728L163.061 122.827L167.407 121.971L150.606 160.872L146.26 161.728ZM169.936 154.104C170.979 153.898 171.728 153.337 172.184 152.419C172.637 151.485 172.719 150.283 172.429 148.811L172.293 148.121C172.004 146.65 171.472 145.568 170.699 144.876C169.926 144.184 169.018 143.941 167.975 144.146C166.918 144.355 166.154 144.927 165.686 145.863C165.233 146.796 165.151 147.999 165.441 149.471L165.577 150.161C165.866 151.632 166.398 152.714 167.171 153.406C167.957 154.079 168.878 154.312 169.936 154.104ZM145.829 139.525C146.887 139.317 147.643 138.746 148.096 137.813C148.549 136.88 148.631 135.677 148.341 134.205L148.205 133.516C147.915 132.044 147.384 130.962 146.611 130.27C145.838 129.579 144.922 129.337 143.864 129.545C142.822 129.75 142.066 130.321 141.598 131.257C141.144 132.191 141.063 133.393 141.352 134.865L141.488 135.555C141.778 137.027 142.31 138.108 143.083 138.8C143.871 139.489 144.787 139.731 145.829 139.525Z" fill="white"/>
</svg>
