<svg width="300" height="300" viewBox="0 0 300 300" fill="none" xmlns="http://www.w3.org/2000/svg">
<path d="M0 24C0 10.7452 10.7452 0 24 0H276C289.255 0 300 10.7452 300 24V276C300 289.255 289.255 300 276 300H24C10.7452 300 0 289.255 0 276V24Z" fill="white"/>
<path d="M30.6914 249.281C29.5117 249.281 28.4766 249.008 27.5859 248.461C26.7031 247.914 26.0156 247.156 25.5234 246.188C25.0312 245.211 24.7852 244.094 24.7852 242.836C24.7852 241.562 25.0312 240.438 25.5234 239.461C26.0234 238.484 26.7148 237.723 27.5977 237.176C28.4805 236.621 29.5117 236.344 30.6914 236.344C31.6758 236.344 32.5547 236.539 33.3281 236.93C34.1094 237.312 34.7422 237.844 35.2266 238.523C35.7109 239.203 36.0039 239.98 36.1055 240.855H33.6445C33.5195 240.16 33.207 239.59 32.707 239.145C32.207 238.699 31.5391 238.477 30.7031 238.477C29.6328 238.477 28.7969 238.871 28.1953 239.66C27.5938 240.449 27.293 241.508 27.293 242.836C27.293 244.148 27.5938 245.195 28.1953 245.977C28.7969 246.758 29.6328 247.148 30.7031 247.148C31.5547 247.148 32.2109 246.934 32.6719 246.504C33.1328 246.066 33.4453 245.484 33.6094 244.758H36.1055C36.0117 245.617 35.7227 246.391 35.2383 247.078C34.7539 247.758 34.1211 248.297 33.3398 248.695C32.5586 249.086 31.6758 249.281 30.6914 249.281ZM38.2148 253.898V236.625H40.6406V238.406H40.6758C41.0664 237.727 41.6016 237.219 42.2812 236.883C42.9609 236.547 43.7031 236.379 44.5078 236.379C45.5703 236.379 46.5039 236.652 47.3086 237.199C48.1133 237.738 48.7383 238.492 49.1836 239.461C49.6367 240.422 49.8633 241.539 49.8633 242.812C49.8633 244.086 49.6406 245.207 49.1953 246.176C48.75 247.137 48.125 247.891 47.3203 248.438C46.5156 248.977 45.5742 249.246 44.4961 249.246C43.6914 249.246 42.9648 249.07 42.3164 248.719C41.668 248.367 41.1367 247.84 40.7227 247.137H40.6875V253.898H38.2148ZM43.9922 247.113C44.9922 247.113 45.8008 246.746 46.418 246.012C47.043 245.277 47.3555 244.211 47.3555 242.812C47.3555 241.414 47.043 240.348 46.418 239.613C45.8008 238.871 44.9922 238.5 43.9922 238.5C42.9375 238.5 42.0938 238.895 41.4609 239.684C40.8359 240.465 40.5234 241.508 40.5234 242.812C40.5234 244.109 40.8359 245.152 41.4609 245.941C42.0938 246.723 42.9375 247.113 43.9922 247.113ZM57.3281 249.281C56.1016 249.281 55.0469 249.004 54.1641 248.449C53.2891 247.895 52.6133 247.133 52.1367 246.164C51.668 245.188 51.4336 244.078 51.4336 242.836C51.4336 241.578 51.6797 240.461 52.1719 239.484C52.6641 238.508 53.3438 237.742 54.2109 237.188C55.0781 236.625 56.0742 236.344 57.1992 236.344C58.3711 236.344 59.3867 236.617 60.2461 237.164C61.1133 237.711 61.7852 238.473 62.2617 239.449C62.7383 240.418 62.9766 241.539 62.9766 242.812V243.48H53.8711C53.918 244.598 54.2383 245.5 54.832 246.188C55.4336 246.875 56.2773 247.219 57.3633 247.219C58.1758 247.219 58.8438 247.035 59.3672 246.668C59.8906 246.301 60.2383 245.824 60.4102 245.238H62.7891C62.6406 246.035 62.3086 246.738 61.793 247.348C61.2852 247.957 60.6445 248.434 59.8711 248.777C59.1055 249.113 58.2578 249.281 57.3281 249.281ZM53.8945 241.605H60.5625C60.4609 240.621 60.1133 239.844 59.5195 239.273C58.9258 238.695 58.1602 238.406 57.2227 238.406C56.2852 238.406 55.5195 238.695 54.9258 239.273C54.3398 239.844 53.9961 240.621 53.8945 241.605ZM63.9844 252.773V246.785H65.0391C65.3984 246.457 65.6914 246.07 65.918 245.625C66.1445 245.172 66.3281 244.602 66.4688 243.914C66.6094 243.227 66.7266 242.355 66.8203 241.301L67.2305 236.625H76.0664V246.785H78.0703V252.773H75.6445V249H66.4453V252.773H63.9844ZM67.7344 246.785H73.6523V238.816H69.4219L69.1758 241.301C69.0664 242.551 68.9062 243.633 68.6953 244.547C68.4922 245.461 68.1719 246.207 67.7344 246.785ZM82.2422 236.625V241.699H88.1602V236.625H90.6328V249H88.1602V243.914H82.2422V249H79.7695V236.625H82.2422ZM98.7188 249.281C97.4922 249.281 96.4375 249.004 95.5547 248.449C94.6797 247.895 94.0039 247.133 93.5273 246.164C93.0586 245.188 92.8242 244.078 92.8242 242.836C92.8242 241.578 93.0703 240.461 93.5625 239.484C94.0547 238.508 94.7344 237.742 95.6016 237.188C96.4688 236.625 97.4648 236.344 98.5898 236.344C99.7617 236.344 100.777 236.617 101.637 237.164C102.504 237.711 103.176 238.473 103.652 239.449C104.129 240.418 104.367 241.539 104.367 242.812V243.48H95.2617C95.3086 244.598 95.6289 245.5 96.2227 246.188C96.8242 246.875 97.668 247.219 98.7539 247.219C99.5664 247.219 100.234 247.035 100.758 246.668C101.281 246.301 101.629 245.824 101.801 245.238H104.18C104.031 246.035 103.699 246.738 103.184 247.348C102.676 247.957 102.035 248.434 101.262 248.777C100.496 249.113 99.6484 249.281 98.7188 249.281ZM95.2852 241.605H101.953C101.852 240.621 101.504 239.844 100.91 239.273C100.316 238.695 99.5508 238.406 98.6133 238.406C97.6758 238.406 96.9102 238.695 96.3164 239.273C95.7305 239.844 95.3867 240.621 95.2852 241.605ZM111.797 249.281C110.57 249.281 109.516 249.004 108.633 248.449C107.758 247.895 107.082 247.133 106.605 246.164C106.137 245.188 105.902 244.078 105.902 242.836C105.902 241.578 106.148 240.461 106.641 239.484C107.133 238.508 107.812 237.742 108.68 237.188C109.547 236.625 110.543 236.344 111.668 236.344C112.84 236.344 113.855 236.617 114.715 237.164C115.582 237.711 116.254 238.473 116.73 239.449C117.207 240.418 117.445 241.539 117.445 242.812V243.48H108.34C108.387 244.598 108.707 245.5 109.301 246.188C109.902 246.875 110.746 247.219 111.832 247.219C112.645 247.219 113.312 247.035 113.836 246.668C114.359 246.301 114.707 245.824 114.879 245.238H117.258C117.109 246.035 116.777 246.738 116.262 247.348C115.754 247.957 115.113 248.434 114.34 248.777C113.574 249.113 112.727 249.281 111.797 249.281ZM108.363 241.605H115.031C114.93 240.621 114.582 239.844 113.988 239.273C113.395 238.695 112.629 238.406 111.691 238.406C110.754 238.406 109.988 238.695 109.395 239.273C108.809 239.844 108.465 240.621 108.363 241.605ZM125.309 249V236.625H130.559C132.035 236.625 133.203 236.902 134.062 237.457C134.922 238.012 135.352 238.828 135.352 239.906C135.352 240.633 135.145 241.215 134.73 241.652C134.324 242.082 133.754 242.363 133.02 242.496C133.824 242.598 134.492 242.898 135.023 243.398C135.562 243.891 135.832 244.59 135.832 245.496C135.832 246.559 135.449 247.41 134.684 248.051C133.918 248.684 132.824 249 131.402 249H125.309ZM127.652 246.891H131.344C131.992 246.891 132.492 246.754 132.844 246.48C133.195 246.207 133.371 245.816 133.371 245.309C133.371 244.746 133.195 244.312 132.844 244.008C132.492 243.703 131.992 243.551 131.344 243.551H127.652V246.891ZM127.652 241.758H130.664C131.383 241.758 131.938 241.621 132.328 241.348C132.719 241.066 132.914 240.672 132.914 240.164C132.914 239.695 132.707 239.336 132.293 239.086C131.887 238.828 131.309 238.699 130.559 238.699H127.652V241.758ZM138.012 253.898V236.625H140.438V238.406H140.473C140.863 237.727 141.398 237.219 142.078 236.883C142.758 236.547 143.5 236.379 144.305 236.379C145.367 236.379 146.301 236.652 147.105 237.199C147.91 237.738 148.535 238.492 148.98 239.461C149.434 240.422 149.66 241.539 149.66 242.812C149.66 244.086 149.438 245.207 148.992 246.176C148.547 247.137 147.922 247.891 147.117 248.438C146.312 248.977 145.371 249.246 144.293 249.246C143.488 249.246 142.762 249.07 142.113 248.719C141.465 248.367 140.934 247.84 140.52 247.137H140.484V253.898H138.012ZM143.789 247.113C144.789 247.113 145.598 246.746 146.215 246.012C146.84 245.277 147.152 244.211 147.152 242.812C147.152 241.414 146.84 240.348 146.215 239.613C145.598 238.871 144.789 238.5 143.789 238.5C142.734 238.5 141.891 238.895 141.258 239.684C140.633 240.465 140.32 241.508 140.32 242.812C140.32 244.109 140.633 245.152 141.258 245.941C141.891 246.723 142.734 247.113 143.789 247.113ZM157.125 249.281C155.898 249.281 154.844 249.004 153.961 248.449C153.086 247.895 152.41 247.133 151.934 246.164C151.465 245.188 151.23 244.078 151.23 242.836C151.23 241.578 151.477 240.461 151.969 239.484C152.461 238.508 153.141 237.742 154.008 237.188C154.875 236.625 155.871 236.344 156.996 236.344C158.168 236.344 159.184 236.617 160.043 237.164C160.91 237.711 161.582 238.473 162.059 239.449C162.535 240.418 162.773 241.539 162.773 242.812V243.48H153.668C153.715 244.598 154.035 245.5 154.629 246.188C155.23 246.875 156.074 247.219 157.16 247.219C157.973 247.219 158.641 247.035 159.164 246.668C159.688 246.301 160.035 245.824 160.207 245.238H162.586C162.438 246.035 162.105 246.738 161.59 247.348C161.082 247.957 160.441 248.434 159.668 248.777C158.902 249.113 158.055 249.281 157.125 249.281ZM153.691 241.605H160.359C160.258 240.621 159.91 239.844 159.316 239.273C158.723 238.695 157.957 238.406 157.02 238.406C156.082 238.406 155.316 238.695 154.723 239.273C154.137 239.844 153.793 240.621 153.691 241.605ZM164.918 249V236.625H168.633L171.434 243.293C171.637 243.809 171.82 244.312 171.984 244.805C172.148 245.289 172.312 245.758 172.477 246.211C172.633 245.758 172.793 245.289 172.957 244.805C173.121 244.312 173.305 243.809 173.508 243.293L176.285 236.625H180V249H177.551V243.293C177.551 242.426 177.555 241.672 177.562 241.031C177.57 240.383 177.578 239.742 177.586 239.109C177.336 239.766 177.082 240.434 176.824 241.113C176.574 241.785 176.293 242.508 175.98 243.281L173.52 249H171.398L168.926 243.281C168.613 242.531 168.328 241.828 168.07 241.172C167.82 240.508 167.574 239.859 167.332 239.227C167.34 239.836 167.348 240.457 167.355 241.09C167.363 241.715 167.367 242.449 167.367 243.293V249H164.918ZM192.82 249H190.395V244.547H187.312L184.43 249H181.641L184.816 244.207C183.98 243.926 183.336 243.484 182.883 242.883C182.438 242.281 182.215 241.535 182.215 240.645C182.215 239.363 182.641 238.375 183.492 237.68C184.352 236.977 185.559 236.625 187.113 236.625H192.82V249ZM190.395 242.602V238.699H187.383C186.438 238.699 185.746 238.855 185.309 239.168C184.871 239.48 184.652 239.977 184.652 240.656C184.652 241.344 184.879 241.84 185.332 242.145C185.785 242.449 186.492 242.602 187.453 242.602H190.395ZM25.3945 273V260.625H30.6445C32.1211 260.625 33.2891 260.902 34.1484 261.457C35.0078 262.012 35.4375 262.828 35.4375 263.906C35.4375 264.633 35.2305 265.215 34.8164 265.652C34.4102 266.082 33.8398 266.363 33.1055 266.496C33.9102 266.598 34.5781 266.898 35.1094 267.398C35.6484 267.891 35.918 268.59 35.918 269.496C35.918 270.559 35.5352 271.41 34.7695 272.051C34.0039 272.684 32.9102 273 31.4883 273H25.3945ZM27.7383 270.891H31.4297C32.0781 270.891 32.5781 270.754 32.9297 270.48C33.2812 270.207 33.457 269.816 33.457 269.309C33.457 268.746 33.2812 268.312 32.9297 268.008C32.5781 267.703 32.0781 267.551 31.4297 267.551H27.7383V270.891ZM27.7383 265.758H30.75C31.4688 265.758 32.0234 265.621 32.4141 265.348C32.8047 265.066 33 264.672 33 264.164C33 263.695 32.793 263.336 32.3789 263.086C31.9727 262.828 31.3945 262.699 30.6445 262.699H27.7383V265.758ZM40.5703 264.762H43.8164C45.2461 264.762 46.3984 265.137 47.2734 265.887C48.1484 266.637 48.5859 267.621 48.5859 268.84C48.5859 270.082 48.1484 271.086 47.2734 271.852C46.3984 272.617 45.2461 273 43.8164 273H38.0977V260.625H40.5703V264.762ZM40.5703 266.918V270.832H43.7227C44.4727 270.832 45.0625 270.652 45.4922 270.293C45.9297 269.934 46.1484 269.449 46.1484 268.84C46.1484 268.246 45.9297 267.777 45.4922 267.434C45.0625 267.09 44.4727 266.918 43.7227 266.918H40.5703ZM49.6641 273V260.625H52.1367V273H49.6641ZM65.6602 260.625V273H63.1875V262.84H57.3984V273H54.9258V260.625H65.6602ZM73.7695 273.281C72.5898 273.281 71.5547 273.008 70.6641 272.461C69.7734 271.914 69.0781 271.156 68.5781 270.188C68.0859 269.219 67.8398 268.102 67.8398 266.836C67.8398 265.555 68.0859 264.43 68.5781 263.461C69.0781 262.484 69.7734 261.723 70.6641 261.176C71.5547 260.621 72.5898 260.344 73.7695 260.344C74.9492 260.344 75.9805 260.621 76.8633 261.176C77.7539 261.723 78.4453 262.484 78.9375 263.461C79.4375 264.43 79.6875 265.555 79.6875 266.836C79.6875 268.102 79.4375 269.219 78.9375 270.188C78.4453 271.156 77.7539 271.914 76.8633 272.461C75.9805 273.008 74.9492 273.281 73.7695 273.281ZM73.7695 271.148C74.832 271.148 75.668 270.758 76.2773 269.977C76.8867 269.195 77.1914 268.148 77.1914 266.836C77.1914 265.508 76.8828 264.449 76.2656 263.66C75.6562 262.871 74.8242 262.477 73.7695 262.477C72.7148 262.477 71.8789 262.871 71.2617 263.66C70.6523 264.441 70.3477 265.5 70.3477 266.836C70.3477 268.156 70.6523 269.207 71.2617 269.988C71.8711 270.762 72.707 271.148 73.7695 271.148ZM80.6719 273V270.82H81.1641C81.6562 270.82 82.043 270.707 82.3242 270.48C82.6055 270.254 82.8125 269.809 82.9453 269.145C83.0781 268.473 83.1719 267.469 83.2266 266.133L83.4609 260.625H92.6602V273H90.1875V262.793H85.8281L85.6289 266.836C85.5195 268.992 85.1719 270.559 84.5859 271.535C84 272.512 83 273 81.5859 273H80.6719ZM97.9219 260.625V265.699H103.84V260.625H106.312V273H103.84V267.914H97.9219V273H95.4492V260.625H97.9219ZM114.398 273.281C113.172 273.281 112.117 273.004 111.234 272.449C110.359 271.895 109.684 271.133 109.207 270.164C108.738 269.188 108.504 268.078 108.504 266.836C108.504 265.578 108.75 264.461 109.242 263.484C109.734 262.508 110.414 261.742 111.281 261.188C112.148 260.625 113.145 260.344 114.27 260.344C115.441 260.344 116.457 260.617 117.316 261.164C118.184 261.711 118.855 262.473 119.332 263.449C119.809 264.418 120.047 265.539 120.047 266.812V267.48H110.941C110.988 268.598 111.309 269.5 111.902 270.188C112.504 270.875 113.348 271.219 114.434 271.219C115.246 271.219 115.914 271.035 116.438 270.668C116.961 270.301 117.309 269.824 117.48 269.238H119.859C119.711 270.035 119.379 270.738 118.863 271.348C118.355 271.957 117.715 272.434 116.941 272.777C116.176 273.113 115.328 273.281 114.398 273.281ZM110.965 265.605H117.633C117.531 264.621 117.184 263.844 116.59 263.273C115.996 262.695 115.23 262.406 114.293 262.406C113.355 262.406 112.59 262.695 111.996 263.273C111.41 263.844 111.066 264.621 110.965 265.605ZM124.664 260.625V265.699H130.582V260.625H133.055V273H130.582V267.914H124.664V273H122.191V260.625H124.664ZM146.719 273H144.258V264.363H144.234L138.176 273H135.855V260.625H138.316V269.262H138.34L144.387 260.625H146.719V273ZM159.539 273H157.113V268.547H154.031L151.148 273H148.359L151.535 268.207C150.699 267.926 150.055 267.484 149.602 266.883C149.156 266.281 148.934 265.535 148.934 264.645C148.934 263.363 149.359 262.375 150.211 261.68C151.07 260.977 152.277 260.625 153.832 260.625H159.539V273ZM157.113 266.602V262.699H154.102C153.156 262.699 152.465 262.855 152.027 263.168C151.59 263.48 151.371 263.977 151.371 264.656C151.371 265.344 151.598 265.84 152.051 266.145C152.504 266.449 153.211 266.602 154.172 266.602H157.113ZM172.395 273.188C171.379 273.188 170.5 273.016 169.758 272.672C169.023 272.32 168.453 271.852 168.047 271.266C167.648 270.672 167.445 270.004 167.438 269.262H169.875C169.891 269.855 170.125 270.324 170.578 270.668C171.039 271.004 171.633 271.172 172.359 271.172C173.102 271.172 173.703 271.008 174.164 270.68C174.633 270.344 174.867 269.91 174.867 269.379C174.867 268.832 174.625 268.387 174.141 268.043C173.656 267.691 172.992 267.516 172.148 267.516H171.188V265.77H172.148C172.859 265.77 173.434 265.609 173.871 265.289C174.316 264.969 174.539 264.547 174.539 264.023C174.539 263.508 174.34 263.094 173.941 262.781C173.551 262.469 173.031 262.312 172.383 262.312C171.727 262.312 171.176 262.473 170.73 262.793C170.293 263.105 170.07 263.539 170.062 264.094H167.707C167.715 263.367 167.922 262.723 168.328 262.16C168.734 261.598 169.285 261.156 169.98 260.836C170.684 260.516 171.488 260.355 172.395 260.355C173.285 260.355 174.066 260.512 174.738 260.824C175.418 261.129 175.945 261.543 176.32 262.066C176.703 262.582 176.895 263.164 176.895 263.812C176.895 264.508 176.672 265.102 176.227 265.594C175.789 266.078 175.195 266.395 174.445 266.543V266.566C175.367 266.684 176.082 267.016 176.59 267.562C177.098 268.109 177.352 268.766 177.352 269.531C177.352 270.234 177.137 270.863 176.707 271.418C176.285 271.965 175.699 272.398 174.949 272.719C174.207 273.031 173.355 273.188 172.395 273.188ZM183.246 273.199C182.012 273.199 180.988 272.887 180.176 272.262C179.363 271.629 178.957 270.695 178.957 269.461C178.957 268.523 179.188 267.805 179.648 267.305C180.117 266.797 180.723 266.434 181.465 266.215C182.215 265.996 183.008 265.836 183.844 265.734C184.617 265.641 185.23 265.562 185.684 265.5C186.137 265.438 186.457 265.344 186.645 265.219C186.84 265.094 186.938 264.879 186.938 264.574V264.469C186.938 263.867 186.719 263.375 186.281 262.992C185.844 262.602 185.23 262.406 184.441 262.406C183.652 262.406 183.008 262.598 182.508 262.98C182.008 263.355 181.734 263.828 181.688 264.398H179.262C179.316 263.219 179.812 262.254 180.75 261.504C181.688 260.754 182.93 260.379 184.477 260.379C186 260.379 187.199 260.754 188.074 261.504C188.949 262.254 189.387 263.258 189.387 264.516V273H186.949V271.242H186.902C186.645 271.742 186.234 272.195 185.672 272.602C185.117 273 184.309 273.199 183.246 273.199ZM183.75 271.207C184.844 271.207 185.648 270.926 186.164 270.363C186.688 269.793 186.949 269.129 186.949 268.371V266.918C186.785 267.051 186.414 267.172 185.836 267.281C185.258 267.383 184.641 267.48 183.984 267.574C183.305 267.676 182.707 267.867 182.191 268.148C181.676 268.43 181.418 268.883 181.418 269.508C181.418 270.039 181.625 270.457 182.039 270.762C182.461 271.059 183.031 271.207 183.75 271.207ZM191.039 276.773V270.785H192.094C192.453 270.457 192.746 270.07 192.973 269.625C193.199 269.172 193.383 268.602 193.523 267.914C193.664 267.227 193.781 266.355 193.875 265.301L194.285 260.625H203.121V270.785H205.125V276.773H202.699V273H193.5V276.773H191.039ZM194.789 270.785H200.707V262.816H196.477L196.23 265.301C196.121 266.551 195.961 267.633 195.75 268.547C195.547 269.461 195.227 270.207 194.789 270.785ZM210.598 273.199C209.363 273.199 208.34 272.887 207.527 272.262C206.715 271.629 206.309 270.695 206.309 269.461C206.309 268.523 206.539 267.805 207 267.305C207.469 266.797 208.074 266.434 208.816 266.215C209.566 265.996 210.359 265.836 211.195 265.734C211.969 265.641 212.582 265.562 213.035 265.5C213.488 265.438 213.809 265.344 213.996 265.219C214.191 265.094 214.289 264.879 214.289 264.574V264.469C214.289 263.867 214.07 263.375 213.633 262.992C213.195 262.602 212.582 262.406 211.793 262.406C211.004 262.406 210.359 262.598 209.859 262.98C209.359 263.355 209.086 263.828 209.039 264.398H206.613C206.668 263.219 207.164 262.254 208.102 261.504C209.039 260.754 210.281 260.379 211.828 260.379C213.352 260.379 214.551 260.754 215.426 261.504C216.301 262.254 216.738 263.258 216.738 264.516V273H214.301V271.242H214.254C213.996 271.742 213.586 272.195 213.023 272.602C212.469 273 211.66 273.199 210.598 273.199ZM211.102 271.207C212.195 271.207 213 270.926 213.516 270.363C214.039 269.793 214.301 269.129 214.301 268.371V266.918C214.137 267.051 213.766 267.172 213.188 267.281C212.609 267.383 211.992 267.48 211.336 267.574C210.656 267.676 210.059 267.867 209.543 268.148C209.027 268.43 208.77 268.883 208.77 269.508C208.77 270.039 208.977 270.457 209.391 270.762C209.812 271.059 210.383 271.207 211.102 271.207ZM224.766 269.344C223.141 269.344 221.859 268.941 220.922 268.137C219.992 267.332 219.527 266.125 219.527 264.516V260.625H222V264.469C222 265.398 222.254 266.074 222.762 266.496C223.27 266.918 223.938 267.129 224.766 267.129C225.273 267.129 225.754 267.098 226.207 267.035C226.66 266.973 227.105 266.883 227.543 266.766V260.625H230.016V273H227.543V268.992C227.121 269.102 226.68 269.188 226.219 269.25C225.758 269.312 225.273 269.344 224.766 269.344ZM243.68 273H241.219V264.363H241.195L235.137 273H232.816V260.625H235.277V269.262H235.301L241.348 260.625H243.68V273Z" fill="#FF36C9"/>
<path d="M32.3341 150L84.7752 46.6282V46.4604H23.7758V24.9806H110.786V46.2087L58.5127 150H32.3341Z" fill="#FF36C9"/>
<rect x="85" y="122.64" width="147.409" height="59.5806" rx="13.7327" transform="rotate(-16.0708 85 122.64)" fill="#FF36C9"/>
<path d="M110.571 145.67C110.267 142.977 110.174 140.142 110.292 137.165C110.41 134.187 110.726 131.308 111.242 128.525C111.753 125.727 112.433 123.263 113.283 121.132L117.877 119.808C117.093 122.392 116.467 125.101 115.999 127.935C115.531 130.769 115.236 133.586 115.116 136.385C115.01 139.179 115.102 141.811 115.391 144.281C115.778 147.601 116.59 150.814 117.826 153.921C119.078 157.024 120.813 160.28 123.031 163.69L118.414 165.02C114.071 159.653 111.457 153.203 110.571 145.67ZM138.351 152.692C136.083 153.345 133.943 153.392 131.928 152.834C129.929 152.272 128.188 151.196 126.706 149.607C125.219 148.003 124.128 145.992 123.431 143.575C122.726 141.127 122.576 138.829 122.982 136.68C123.402 134.526 124.309 132.679 125.703 131.14C127.092 129.585 128.921 128.481 131.188 127.828C133.08 127.283 134.877 127.171 136.579 127.494C138.293 127.797 139.803 128.468 141.11 129.506C142.418 130.544 143.411 131.876 144.091 133.501L139.361 134.864C138.736 133.596 137.82 132.673 136.612 132.094C135.405 131.515 133.998 131.457 132.391 131.92C130.334 132.513 128.946 133.734 128.227 135.583C127.507 137.433 127.516 139.634 128.251 142.186C128.977 144.709 130.135 146.554 131.724 147.722C133.312 148.891 135.135 149.179 137.192 148.586C138.829 148.115 139.971 147.338 140.619 146.257C141.263 145.161 141.541 143.87 141.454 142.383L146.251 141.001C146.547 142.704 146.419 144.351 145.869 145.94C145.315 147.515 144.397 148.901 143.116 150.099C141.831 151.282 140.242 152.147 138.351 152.692ZM162.967 145.6C160.609 146.279 158.429 146.33 156.425 145.753C154.436 145.171 152.716 144.081 151.264 142.484C149.822 140.866 148.758 138.864 148.07 136.477C147.373 134.059 147.228 131.776 147.633 129.627C148.038 127.477 148.921 125.63 150.28 124.084C151.635 122.522 153.394 121.43 155.556 120.808C157.808 120.159 159.911 120.122 161.866 120.697C163.835 121.268 165.548 122.36 167.005 123.973C168.457 125.571 169.536 127.594 170.241 130.041L170.61 131.325L153.111 136.366C153.82 138.487 154.935 140.044 156.457 141.036C157.993 142.025 159.805 142.218 161.892 141.617C163.454 141.167 164.636 140.444 165.439 139.449C166.241 138.453 166.645 137.345 166.651 136.124L171.223 134.807C171.379 136.42 171.13 137.955 170.477 139.412C169.838 140.864 168.871 142.135 167.575 143.224C166.289 144.293 164.753 145.085 162.967 145.6ZM152.118 132.749L164.933 129.058C164.193 127.222 163.094 125.921 161.637 125.153C160.176 124.371 158.545 124.239 156.743 124.758C154.941 125.277 153.63 126.257 152.809 127.697C151.999 129.117 151.768 130.801 152.118 132.749ZM177.788 140.745L170.936 116.962L175.688 115.593L178.556 125.548L180.898 124.873L186.544 112.466L192.399 110.779L185.969 125.119L199.386 134.523L193.508 136.216L183.003 128.877L179.782 129.804L182.54 139.376L177.788 140.745ZM204.609 133.433C203.738 133.684 202.908 133.598 202.119 133.174C201.342 132.732 200.825 132.068 200.57 131.182C200.319 130.311 200.405 129.481 200.828 128.693C201.267 127.9 201.921 127.378 202.792 127.127C203.678 126.872 204.51 126.965 205.288 127.408C206.081 127.846 206.602 128.501 206.853 129.372C207.109 130.257 207.017 131.097 206.579 131.89C206.151 132.663 205.494 133.178 204.609 133.433ZM209.807 138.692C211.102 134.27 211.979 130.261 212.439 126.665C212.9 123.069 212.936 119.611 212.549 116.292C212.245 113.826 211.726 111.317 210.99 108.765C210.255 106.212 209.348 103.742 208.27 101.353C207.191 98.9648 205.993 96.7814 204.675 94.8033L209.27 93.4797C210.552 94.9965 211.749 96.9201 212.859 99.2507C213.965 101.566 214.91 104.083 215.693 106.8C216.491 109.514 217.042 112.217 217.346 114.91C217.777 118.607 217.745 122.364 217.251 126.181C216.758 129.998 215.807 133.727 214.401 137.368L209.807 138.692Z" fill="white"/>
</svg>
