<svg width="300" height="300" viewBox="0 0 300 300" fill="none" xmlns="http://www.w3.org/2000/svg">
<rect width="300" height="300" rx="24" fill="white"/>
<path d="M60.9609 253.281C59.7812 253.281 58.7461 253.008 57.8555 252.461C56.9648 251.914 56.2695 251.156 55.7695 250.188C55.2773 249.219 55.0312 248.102 55.0312 246.836C55.0312 245.555 55.2773 244.43 55.7695 243.461C56.2695 242.484 56.9648 241.723 57.8555 241.176C58.7461 240.621 59.7812 240.344 60.9609 240.344C62.1406 240.344 63.1719 240.621 64.0547 241.176C64.9453 241.723 65.6367 242.484 66.1289 243.461C66.6289 244.43 66.8789 245.555 66.8789 246.836C66.8789 248.102 66.6289 249.219 66.1289 250.188C65.6367 251.156 64.9453 251.914 64.0547 252.461C63.1719 253.008 62.1406 253.281 60.9609 253.281ZM60.9609 251.148C62.0234 251.148 62.8594 250.758 63.4688 249.977C64.0781 249.195 64.3828 248.148 64.3828 246.836C64.3828 245.508 64.0742 244.449 63.457 243.66C62.8477 242.871 62.0156 242.477 60.9609 242.477C59.9062 242.477 59.0703 242.871 58.4531 243.66C57.8438 244.441 57.5391 245.5 57.5391 246.836C57.5391 248.156 57.8438 249.207 58.4531 249.988C59.0625 250.762 59.8984 251.148 60.9609 251.148ZM67.4414 253L72.5391 246.707L67.5 240.625H70.3945L74.5195 245.758H75.4102V240.625H77.8828V245.758H78.7617L82.8633 240.625H85.7812L80.7539 246.707L85.8398 253H82.875L78.7383 247.914H77.8828V253H75.4102V247.914H74.5547L70.4062 253H67.4414ZM98.3789 253H95.918V244.363H95.8945L89.8359 253H87.5156V240.625H89.9766V249.262H90L96.0469 240.625H98.3789V253ZM100.043 256.773V250.785H101.098C101.457 250.457 101.75 250.07 101.977 249.625C102.203 249.172 102.387 248.602 102.527 247.914C102.668 247.227 102.785 246.355 102.879 245.301L103.289 240.625H112.125V250.785H114.129V256.773H111.703V253H102.504V256.773H100.043ZM103.793 250.785H109.711V242.816H105.48L105.234 245.301C105.125 246.551 104.965 247.633 104.754 248.547C104.551 249.461 104.23 250.207 103.793 250.785ZM119.602 253.199C118.367 253.199 117.344 252.887 116.531 252.262C115.719 251.629 115.312 250.695 115.312 249.461C115.312 248.523 115.543 247.805 116.004 247.305C116.473 246.797 117.078 246.434 117.82 246.215C118.57 245.996 119.363 245.836 120.199 245.734C120.973 245.641 121.586 245.562 122.039 245.5C122.492 245.438 122.812 245.344 123 245.219C123.195 245.094 123.293 244.879 123.293 244.574V244.469C123.293 243.867 123.074 243.375 122.637 242.992C122.199 242.602 121.586 242.406 120.797 242.406C120.008 242.406 119.363 242.598 118.863 242.98C118.363 243.355 118.09 243.828 118.043 244.398H115.617C115.672 243.219 116.168 242.254 117.105 241.504C118.043 240.754 119.285 240.379 120.832 240.379C122.355 240.379 123.555 240.754 124.43 241.504C125.305 242.254 125.742 243.258 125.742 244.516V253H123.305V251.242H123.258C123 251.742 122.59 252.195 122.027 252.602C121.473 253 120.664 253.199 119.602 253.199ZM120.105 251.207C121.199 251.207 122.004 250.926 122.52 250.363C123.043 249.793 123.305 249.129 123.305 248.371V246.918C123.141 247.051 122.77 247.172 122.191 247.281C121.613 247.383 120.996 247.48 120.34 247.574C119.66 247.676 119.062 247.867 118.547 248.148C118.031 248.43 117.773 248.883 117.773 249.508C117.773 250.039 117.98 250.457 118.395 250.762C118.816 251.059 119.387 251.207 120.105 251.207ZM133.816 253.281C132.59 253.281 131.535 253.004 130.652 252.449C129.777 251.895 129.102 251.133 128.625 250.164C128.156 249.188 127.922 248.078 127.922 246.836C127.922 245.578 128.168 244.461 128.66 243.484C129.152 242.508 129.832 241.742 130.699 241.188C131.566 240.625 132.562 240.344 133.688 240.344C134.859 240.344 135.875 240.617 136.734 241.164C137.602 241.711 138.273 242.473 138.75 243.449C139.227 244.418 139.465 245.539 139.465 246.812V247.48H130.359C130.406 248.598 130.727 249.5 131.32 250.188C131.922 250.875 132.766 251.219 133.852 251.219C134.664 251.219 135.332 251.035 135.855 250.668C136.379 250.301 136.727 249.824 136.898 249.238H139.277C139.129 250.035 138.797 250.738 138.281 251.348C137.773 251.957 137.133 252.434 136.359 252.777C135.594 253.113 134.746 253.281 133.816 253.281ZM130.383 245.605H137.051C136.949 244.621 136.602 243.844 136.008 243.273C135.414 242.695 134.648 242.406 133.711 242.406C132.773 242.406 132.008 242.695 131.414 243.273C130.828 243.844 130.484 244.621 130.383 245.605ZM141.609 253V240.625H145.324L148.125 247.293C148.328 247.809 148.512 248.312 148.676 248.805C148.84 249.289 149.004 249.758 149.168 250.211C149.324 249.758 149.484 249.289 149.648 248.805C149.812 248.312 149.996 247.809 150.199 247.293L152.977 240.625H156.691V253H154.242V247.293C154.242 246.426 154.246 245.672 154.254 245.031C154.262 244.383 154.27 243.742 154.277 243.109C154.027 243.766 153.773 244.434 153.516 245.113C153.266 245.785 152.984 246.508 152.672 247.281L150.211 253H148.09L145.617 247.281C145.305 246.531 145.02 245.828 144.762 245.172C144.512 244.508 144.266 243.859 144.023 243.227C144.031 243.836 144.039 244.457 144.047 245.09C144.055 245.715 144.059 246.449 144.059 247.293V253H141.609ZM161.965 244.762H165.211C166.641 244.762 167.793 245.137 168.668 245.887C169.543 246.637 169.98 247.621 169.98 248.84C169.98 250.082 169.543 251.086 168.668 251.852C167.793 252.617 166.641 253 165.211 253H159.492V240.625H161.965V244.762ZM161.965 246.918V250.832H165.117C165.867 250.832 166.457 250.652 166.887 250.293C167.324 249.934 167.543 249.449 167.543 248.84C167.543 248.246 167.324 247.777 166.887 247.434C166.457 247.09 165.867 246.918 165.117 246.918H161.965ZM171.059 253V240.625H173.531V253H171.059ZM187.184 253H184.723V244.363H184.699L178.641 253H176.32V240.625H178.781V249.262H178.805L184.852 240.625H187.184V253ZM181.746 238.914C181.082 238.914 180.48 238.766 179.941 238.469C179.402 238.164 178.973 237.758 178.652 237.25C178.34 236.734 178.184 236.156 178.184 235.516H179.883C179.883 236.047 180.055 236.48 180.398 236.816C180.75 237.152 181.199 237.32 181.746 237.32C182.293 237.32 182.742 237.152 183.094 236.816C183.445 236.48 183.621 236.047 183.621 235.516H185.32C185.32 236.156 185.16 236.734 184.84 237.25C184.527 237.758 184.102 238.164 183.562 238.469C183.023 238.766 182.418 238.914 181.746 238.914ZM195.703 257.898V240.625H198.129V242.406H198.164C198.555 241.727 199.09 241.219 199.77 240.883C200.449 240.547 201.191 240.379 201.996 240.379C203.059 240.379 203.992 240.652 204.797 241.199C205.602 241.738 206.227 242.492 206.672 243.461C207.125 244.422 207.352 245.539 207.352 246.812C207.352 248.086 207.129 249.207 206.684 250.176C206.238 251.137 205.613 251.891 204.809 252.438C204.004 252.977 203.062 253.246 201.984 253.246C201.18 253.246 200.453 253.07 199.805 252.719C199.156 252.367 198.625 251.84 198.211 251.137H198.176V257.898H195.703ZM201.48 251.113C202.48 251.113 203.289 250.746 203.906 250.012C204.531 249.277 204.844 248.211 204.844 246.812C204.844 245.414 204.531 244.348 203.906 243.613C203.289 242.871 202.48 242.5 201.48 242.5C200.426 242.5 199.582 242.895 198.949 243.684C198.324 244.465 198.012 245.508 198.012 246.812C198.012 248.109 198.324 249.152 198.949 249.941C199.582 250.723 200.426 251.113 201.48 251.113ZM214.852 253.281C213.672 253.281 212.637 253.008 211.746 252.461C210.855 251.914 210.16 251.156 209.66 250.188C209.168 249.219 208.922 248.102 208.922 246.836C208.922 245.555 209.168 244.43 209.66 243.461C210.16 242.484 210.855 241.723 211.746 241.176C212.637 240.621 213.672 240.344 214.852 240.344C216.031 240.344 217.062 240.621 217.945 241.176C218.836 241.723 219.527 242.484 220.02 243.461C220.52 244.43 220.77 245.555 220.77 246.836C220.77 248.102 220.52 249.219 220.02 250.188C219.527 251.156 218.836 251.914 217.945 252.461C217.062 253.008 216.031 253.281 214.852 253.281ZM214.852 251.148C215.914 251.148 216.75 250.758 217.359 249.977C217.969 249.195 218.273 248.148 218.273 246.836C218.273 245.508 217.965 244.449 217.348 243.66C216.738 242.871 215.906 242.477 214.852 242.477C213.797 242.477 212.961 242.871 212.344 243.66C211.734 244.441 211.43 245.5 211.43 246.836C211.43 248.156 211.734 249.207 212.344 249.988C212.953 250.762 213.789 251.148 214.852 251.148ZM228.258 253.281C227.078 253.281 226.043 253.008 225.152 252.461C224.27 251.914 223.582 251.156 223.09 250.188C222.598 249.211 222.352 248.094 222.352 246.836C222.352 245.562 222.598 244.438 223.09 243.461C223.59 242.484 224.281 241.723 225.164 241.176C226.047 240.621 227.078 240.344 228.258 240.344C229.242 240.344 230.121 240.539 230.895 240.93C231.676 241.312 232.309 241.844 232.793 242.523C233.277 243.203 233.57 243.98 233.672 244.855H231.211C231.086 244.16 230.773 243.59 230.273 243.145C229.773 242.699 229.105 242.477 228.27 242.477C227.199 242.477 226.363 242.871 225.762 243.66C225.16 244.449 224.859 245.508 224.859 246.836C224.859 248.148 225.16 249.195 225.762 249.977C226.363 250.758 227.199 251.148 228.27 251.148C229.121 251.148 229.777 250.934 230.238 250.504C230.699 250.066 231.012 249.484 231.176 248.758H233.672C233.578 249.617 233.289 250.391 232.805 251.078C232.32 251.758 231.688 252.297 230.906 252.695C230.125 253.086 229.242 253.281 228.258 253.281ZM238.84 253V242.781H234.574V240.625H245.566V242.781H241.312V253H238.84ZM100.512 277V259.539H107.156C109.023 259.539 110.504 260.027 111.598 261.004C112.691 261.98 113.238 263.305 113.238 264.977C113.238 266.195 112.926 267.234 112.301 268.094C111.676 268.945 110.82 269.566 109.734 269.957L113.508 277H110.578L107.098 270.391C107.059 270.391 107.02 270.391 106.98 270.391H103.113V277H100.512ZM103.113 268.176H107.051C108.176 268.176 109.059 267.891 109.699 267.32C110.348 266.742 110.672 265.961 110.672 264.977C110.672 263.992 110.348 263.215 109.699 262.645C109.051 262.074 108.164 261.789 107.039 261.789H103.113V268.176ZM120.41 277.281C119.184 277.281 118.129 277.004 117.246 276.449C116.371 275.895 115.695 275.133 115.219 274.164C114.75 273.188 114.516 272.078 114.516 270.836C114.516 269.578 114.762 268.461 115.254 267.484C115.746 266.508 116.426 265.742 117.293 265.188C118.16 264.625 119.156 264.344 120.281 264.344C121.453 264.344 122.469 264.617 123.328 265.164C124.195 265.711 124.867 266.473 125.344 267.449C125.82 268.418 126.059 269.539 126.059 270.812V271.48H116.953C117 272.598 117.32 273.5 117.914 274.188C118.516 274.875 119.359 275.219 120.445 275.219C121.258 275.219 121.926 275.035 122.449 274.668C122.973 274.301 123.32 273.824 123.492 273.238H125.871C125.723 274.035 125.391 274.738 124.875 275.348C124.367 275.957 123.727 276.434 122.953 276.777C122.188 277.113 121.34 277.281 120.41 277.281ZM116.977 269.605H123.645C123.543 268.621 123.195 267.844 122.602 267.273C122.008 266.695 121.242 266.406 120.305 266.406C119.367 266.406 118.602 266.695 118.008 267.273C117.422 267.844 117.078 268.621 116.977 269.605ZM134.168 264.625V266.664H131.66V273.73C131.66 274.191 131.754 274.512 131.941 274.691C132.129 274.871 132.469 274.961 132.961 274.961H134.168V277H132.609C130.32 277 129.176 276.016 129.176 274.047V266.664H126.996V264.625H129.176V261.25H131.66V264.625H134.168ZM141.199 277.281C139.973 277.281 138.918 277.004 138.035 276.449C137.16 275.895 136.484 275.133 136.008 274.164C135.539 273.188 135.305 272.078 135.305 270.836C135.305 269.578 135.551 268.461 136.043 267.484C136.535 266.508 137.215 265.742 138.082 265.188C138.949 264.625 139.945 264.344 141.07 264.344C142.242 264.344 143.258 264.617 144.117 265.164C144.984 265.711 145.656 266.473 146.133 267.449C146.609 268.418 146.848 269.539 146.848 270.812V271.48H137.742C137.789 272.598 138.109 273.5 138.703 274.188C139.305 274.875 140.148 275.219 141.234 275.219C142.047 275.219 142.715 275.035 143.238 274.668C143.762 274.301 144.109 273.824 144.281 273.238H146.66C146.512 274.035 146.18 274.738 145.664 275.348C145.156 275.957 144.516 276.434 143.742 276.777C142.977 277.113 142.129 277.281 141.199 277.281ZM137.766 269.605H144.434C144.332 268.621 143.984 267.844 143.391 267.273C142.797 266.695 142.031 266.406 141.094 266.406C140.156 266.406 139.391 266.695 138.797 267.273C138.211 267.844 137.867 268.621 137.766 269.605ZM151.465 269.875V277H148.992V264.625H151.418V266.488C152.262 265.082 153.508 264.379 155.156 264.379C156.008 264.379 156.77 264.566 157.441 264.941C158.121 265.309 158.656 265.855 159.047 266.582C159.438 267.309 159.633 268.211 159.633 269.289V277H157.16V269.594C157.16 268.602 156.922 267.855 156.445 267.355C155.969 266.848 155.305 266.594 154.453 266.594C153.609 266.594 152.898 266.855 152.32 267.379C151.75 267.895 151.465 268.727 151.465 269.875ZM168.387 264.625V266.664H165.879V273.73C165.879 274.191 165.973 274.512 166.16 274.691C166.348 274.871 166.688 274.961 167.18 274.961H168.387V277H166.828C164.539 277 163.395 276.016 163.395 274.047V266.664H161.215V264.625H163.395V261.25H165.879V264.625H168.387ZM170.344 277V264.625H172.816V277H170.344ZM171.574 262.492C171.137 262.492 170.766 262.348 170.461 262.059C170.164 261.762 170.016 261.402 170.016 260.98C170.016 260.551 170.164 260.191 170.461 259.902C170.766 259.605 171.137 259.457 171.574 259.457C172.012 259.457 172.383 259.605 172.688 259.902C172.992 260.191 173.145 260.551 173.145 260.98C173.145 261.402 172.992 261.762 172.688 262.059C172.383 262.348 172.012 262.492 171.574 262.492ZM180.938 277.281C179.758 277.281 178.723 277.008 177.832 276.461C176.941 275.914 176.246 275.156 175.746 274.188C175.254 273.219 175.008 272.102 175.008 270.836C175.008 269.555 175.254 268.43 175.746 267.461C176.246 266.484 176.941 265.723 177.832 265.176C178.723 264.621 179.758 264.344 180.938 264.344C182.117 264.344 183.148 264.621 184.031 265.176C184.922 265.723 185.613 266.484 186.105 267.461C186.605 268.43 186.855 269.555 186.855 270.836C186.855 272.102 186.605 273.219 186.105 274.188C185.613 275.156 184.922 275.914 184.031 276.461C183.148 277.008 182.117 277.281 180.938 277.281ZM180.938 275.148C182 275.148 182.836 274.758 183.445 273.977C184.055 273.195 184.359 272.148 184.359 270.836C184.359 269.508 184.051 268.449 183.434 267.66C182.824 266.871 181.992 266.477 180.938 266.477C179.883 266.477 179.047 266.871 178.43 267.66C177.82 268.441 177.516 269.5 177.516 270.836C177.516 272.156 177.82 273.207 178.43 273.988C179.039 274.762 179.875 275.148 180.938 275.148ZM191.52 269.875V277H189.047V264.625H191.473V266.488C192.316 265.082 193.562 264.379 195.211 264.379C196.062 264.379 196.824 264.566 197.496 264.941C198.176 265.309 198.711 265.855 199.102 266.582C199.492 267.309 199.688 268.211 199.688 269.289V277H197.215V269.594C197.215 268.602 196.977 267.855 196.5 267.355C196.023 266.848 195.359 266.594 194.508 266.594C193.664 266.594 192.953 266.855 192.375 267.379C191.805 267.895 191.52 268.727 191.52 269.875Z" fill="#FF36C9"/>
<path d="M42.5391 191V169.702L93.9932 125.693C100.213 120.227 105.365 115.17 109.448 110.521C113.532 105.809 115.574 100.154 115.574 93.5576C115.574 86.8353 113.532 81.4951 109.448 77.5371C105.365 73.5163 99.8674 71.5059 92.9565 71.5059C85.4175 71.5059 79.4805 73.9246 75.1455 78.7622C70.8105 83.5998 68.6431 90.2907 68.6431 98.835H41.9736C41.9736 88.6572 44.0469 79.7988 48.1934 72.2598C52.4027 64.6579 58.3083 58.7837 65.9102 54.6372C73.512 50.4279 82.5275 48.3232 92.9565 48.3232C102.569 48.3232 111.113 50.1452 118.589 53.7891C126.066 57.3701 131.908 62.4276 136.118 68.9614C140.39 75.4953 142.526 83.1914 142.526 92.0498C142.526 98.5837 141.301 104.552 138.851 109.955C136.4 115.358 132.851 120.604 128.202 125.693C123.615 130.719 118.055 136.028 111.521 141.619L81.7422 167.535V167.723H143.186V191H42.5391Z" fill="#FF36C9"/>
<path d="M206.001 193.262C188.473 193.262 174.871 187.23 165.196 175.168C155.521 163.105 150.683 146.174 150.683 124.374C150.683 108.981 152.819 95.5994 157.091 84.228C161.426 72.7938 167.772 63.9668 176.127 57.7471C184.546 51.4645 194.881 48.3232 207.132 48.3232C216.493 48.3232 224.692 50.0824 231.728 53.6006C238.827 57.1188 244.513 61.925 248.785 68.019C253.057 74.1131 255.602 81.0239 256.418 88.7515H229.278C228.273 83.2856 225.822 78.9193 221.927 75.6523C218.032 72.3854 213.006 70.752 206.849 70.752C196.797 70.752 189.352 74.7728 184.515 82.8145C179.74 90.8561 177.353 101.442 177.353 114.573H177.541C180.996 109.233 185.614 105.149 191.394 102.322C197.174 99.4946 203.708 98.0811 210.996 98.0811C220.043 98.0811 228.084 100.123 235.121 104.207C242.22 108.227 247.78 113.787 251.801 120.887C255.884 127.923 257.926 135.965 257.926 145.012C257.926 154.561 255.696 162.98 251.235 170.268C246.838 177.493 240.712 183.147 232.859 187.23C225.069 191.251 216.116 193.262 206.001 193.262ZM205.813 170.456C210.462 170.456 214.64 169.357 218.346 167.158C222.053 164.896 224.974 161.849 227.11 158.017C229.309 154.184 230.409 149.849 230.409 145.012C230.409 137.85 228.084 131.881 223.435 127.106C218.786 122.269 213.006 119.85 206.095 119.85C201.446 119.85 197.237 120.981 193.467 123.243C189.761 125.442 186.808 128.457 184.609 132.29C182.473 136.059 181.405 140.331 181.405 145.106C181.405 149.881 182.473 154.184 184.609 158.017C186.745 161.849 189.666 164.896 193.373 167.158C197.08 169.357 201.226 170.456 205.813 170.456Z" fill="#FF36C9"/>
<rect x="235.714" y="162.945" width="55.8439" height="48.0856" rx="8.86511" transform="rotate(8.8518 235.714 162.945)" fill="white"/>
<rect x="235.714" y="162.945" width="55.8439" height="48.0856" rx="8.86511" transform="rotate(8.8518 235.714 162.945)" stroke="#FF36C9" stroke-width="2.07729"/>
<path d="M252.139 188.689C251.051 188.519 250.141 188.117 249.41 187.481C248.692 186.835 248.177 186.032 247.864 185.07C247.563 184.11 247.5 183.068 247.675 181.945L247.756 181.424C247.931 180.301 248.308 179.327 248.886 178.504C249.477 177.683 250.211 177.08 251.09 176.695C251.981 176.3 252.971 176.187 254.06 176.357C255.148 176.526 256.051 176.934 256.769 177.579C257.489 178.213 257.999 179.01 258.3 179.97C258.601 180.931 258.665 181.972 258.49 183.095L258.409 183.616C258.234 184.74 257.857 185.713 257.278 186.536C256.699 187.359 255.97 187.969 255.089 188.365C254.211 188.75 253.228 188.858 252.139 188.689ZM264.594 205.358C263.505 205.189 262.595 204.786 261.864 204.151C261.146 203.505 260.631 202.701 260.318 201.739C260.017 200.779 259.954 199.738 260.129 198.615L260.21 198.093C260.385 196.97 260.762 195.997 261.341 195.174C261.931 194.353 262.666 193.75 263.544 193.365C264.436 192.97 265.426 192.857 266.514 193.027C267.603 193.196 268.506 193.604 269.223 194.249C269.943 194.883 270.453 195.68 270.755 196.64C271.056 197.6 271.119 198.642 270.944 199.765L270.863 200.286C270.688 201.409 270.311 202.382 269.732 203.206C269.153 204.029 268.424 204.638 267.544 205.035C266.665 205.42 265.682 205.528 264.594 205.358ZM246.838 202.166L268.654 179.057L271.676 179.527L249.86 202.637L246.838 202.166ZM252.491 186.431C253.325 186.561 254.035 186.339 254.622 185.767C255.21 185.194 255.592 184.34 255.768 183.205L255.85 182.684C256.026 181.549 255.922 180.62 255.537 179.896C255.151 179.172 254.542 178.745 253.708 178.615C252.863 178.483 252.141 178.703 251.542 179.274C250.955 179.846 250.573 180.7 250.396 181.835L250.315 182.356C250.138 183.491 250.242 184.42 250.628 185.144C251.025 185.87 251.646 186.299 252.491 186.431ZM264.945 203.1C265.779 203.23 266.489 203.009 267.077 202.436C267.664 201.863 268.046 201.01 268.223 199.875L268.304 199.354C268.481 198.219 268.376 197.29 267.991 196.566C267.606 195.841 266.996 195.414 266.162 195.285C265.317 195.153 264.595 195.373 263.996 195.943C263.409 196.516 263.027 197.37 262.85 198.505L262.769 199.026C262.592 200.16 262.697 201.09 263.082 201.814C263.479 202.54 264.1 202.969 264.945 203.1Z" fill="#FF36C9"/>
</svg>
