<svg width="1226" height="536" viewBox="0 0 1226 536" fill="none" xmlns="http://www.w3.org/2000/svg">
<rect width="1226" height="536" rx="56" fill="white"/>
<rect x="20" y="20" width="589" height="244" rx="56" fill="#F6F7F9"/>
<path d="M59.834 225.328C58.4577 225.328 57.25 225.009 56.2109 224.371C55.1719 223.733 54.3607 222.849 53.7773 221.719C53.2031 220.589 52.916 219.285 52.916 217.809C52.916 216.314 53.2031 215.001 53.7773 213.871C54.3607 212.732 55.1719 211.843 56.2109 211.205C57.25 210.558 58.4577 210.234 59.834 210.234C61.2103 210.234 62.4134 210.558 63.4434 211.205C64.4824 211.843 65.2891 212.732 65.8633 213.871C66.4466 215.001 66.7383 216.314 66.7383 217.809C66.7383 219.285 66.4466 220.589 65.8633 221.719C65.2891 222.849 64.4824 223.733 63.4434 224.371C62.4134 225.009 61.2103 225.328 59.834 225.328ZM59.834 222.84C61.0736 222.84 62.0488 222.384 62.7598 221.473C63.4707 220.561 63.8262 219.34 63.8262 217.809C63.8262 216.259 63.4661 215.024 62.7461 214.104C62.0352 213.183 61.0645 212.723 59.834 212.723C58.6035 212.723 57.6283 213.183 56.9082 214.104C56.1973 215.015 55.8418 216.25 55.8418 217.809C55.8418 219.349 56.1973 220.575 56.9082 221.486C57.6191 222.389 58.5944 222.84 59.834 222.84ZM67.3945 225L73.3418 217.658L67.4629 210.562H70.8398L75.6523 216.551H76.6914V210.562H79.5762V216.551H80.6016L85.3867 210.562H88.791L82.9258 217.658L88.8594 225H85.4004L80.5742 219.066H79.5762V225H76.6914V219.066H75.6934L70.8535 225H67.3945ZM103.488 225H100.617V214.924H100.59L93.5215 225H90.8145V210.562H93.6855V220.639H93.7129L100.768 210.562H103.488V225ZM105.43 229.402V222.416H106.66C107.079 222.033 107.421 221.582 107.686 221.062C107.95 220.534 108.164 219.868 108.328 219.066C108.492 218.264 108.629 217.248 108.738 216.018L109.217 210.562H119.525V222.416H121.863V229.402H119.033V225H108.301V229.402H105.43ZM109.805 222.416H116.709V213.119H111.773L111.486 216.018C111.359 217.476 111.172 218.738 110.926 219.805C110.689 220.871 110.315 221.742 109.805 222.416ZM128.248 225.232C126.808 225.232 125.614 224.868 124.666 224.139C123.718 223.4 123.244 222.311 123.244 220.871C123.244 219.777 123.513 218.939 124.051 218.355C124.598 217.763 125.304 217.339 126.17 217.084C127.045 216.829 127.97 216.642 128.945 216.523C129.848 216.414 130.563 216.323 131.092 216.25C131.62 216.177 131.994 216.068 132.213 215.922C132.441 215.776 132.555 215.525 132.555 215.17V215.047C132.555 214.345 132.299 213.771 131.789 213.324C131.279 212.868 130.563 212.641 129.643 212.641C128.722 212.641 127.97 212.864 127.387 213.311C126.803 213.748 126.484 214.299 126.43 214.965H123.6C123.663 213.589 124.242 212.463 125.336 211.588C126.43 210.713 127.879 210.275 129.684 210.275C131.461 210.275 132.86 210.713 133.881 211.588C134.902 212.463 135.412 213.634 135.412 215.102V225H132.568V222.949H132.514C132.213 223.533 131.734 224.061 131.078 224.535C130.431 225 129.488 225.232 128.248 225.232ZM128.836 222.908C130.112 222.908 131.051 222.58 131.652 221.924C132.263 221.258 132.568 220.484 132.568 219.6V217.904C132.377 218.059 131.944 218.201 131.27 218.328C130.595 218.447 129.875 218.561 129.109 218.67C128.316 218.788 127.619 219.012 127.018 219.34C126.416 219.668 126.115 220.197 126.115 220.926C126.115 221.546 126.357 222.033 126.84 222.389C127.332 222.735 127.997 222.908 128.836 222.908ZM144.832 225.328C143.401 225.328 142.171 225.005 141.141 224.357C140.12 223.71 139.331 222.822 138.775 221.691C138.229 220.552 137.955 219.258 137.955 217.809C137.955 216.341 138.242 215.038 138.816 213.898C139.391 212.759 140.184 211.866 141.195 211.219C142.207 210.562 143.369 210.234 144.682 210.234C146.049 210.234 147.234 210.553 148.236 211.191C149.248 211.829 150.032 212.718 150.588 213.857C151.144 214.988 151.422 216.296 151.422 217.781V218.561H140.799C140.854 219.864 141.227 220.917 141.92 221.719C142.622 222.521 143.606 222.922 144.873 222.922C145.821 222.922 146.6 222.708 147.211 222.279C147.822 221.851 148.227 221.295 148.428 220.611H151.203C151.03 221.541 150.643 222.361 150.041 223.072C149.449 223.783 148.701 224.339 147.799 224.74C146.906 225.132 145.917 225.328 144.832 225.328ZM140.826 216.373H148.605C148.487 215.225 148.081 214.318 147.389 213.652C146.696 212.978 145.803 212.641 144.709 212.641C143.615 212.641 142.722 212.978 142.029 213.652C141.346 214.318 140.945 215.225 140.826 216.373ZM153.924 225V210.562H158.258L161.525 218.342C161.762 218.943 161.977 219.531 162.168 220.105C162.359 220.671 162.551 221.217 162.742 221.746C162.924 221.217 163.111 220.671 163.303 220.105C163.494 219.531 163.708 218.943 163.945 218.342L167.186 210.562H171.52V225H168.662V218.342C168.662 217.33 168.667 216.451 168.676 215.703C168.685 214.947 168.694 214.199 168.703 213.461C168.411 214.227 168.115 215.006 167.814 215.799C167.523 216.583 167.195 217.426 166.83 218.328L163.959 225H161.484L158.6 218.328C158.235 217.453 157.902 216.633 157.602 215.867C157.31 215.092 157.023 214.336 156.74 213.598C156.749 214.309 156.758 215.033 156.768 215.771C156.777 216.501 156.781 217.357 156.781 218.342V225H153.924ZM177.672 215.389H181.459C183.127 215.389 184.471 215.826 185.492 216.701C186.513 217.576 187.023 218.725 187.023 220.146C187.023 221.596 186.513 222.767 185.492 223.66C184.471 224.553 183.127 225 181.459 225H174.787V210.562H177.672V215.389ZM177.672 217.904V222.471H181.35C182.225 222.471 182.913 222.261 183.414 221.842C183.924 221.423 184.18 220.857 184.18 220.146C184.18 219.454 183.924 218.907 183.414 218.506C182.913 218.105 182.225 217.904 181.35 217.904H177.672ZM188.281 225V210.562H191.166V225H188.281ZM207.094 225H204.223V214.924H204.195L197.127 225H194.42V210.562H197.291V220.639H197.318L204.373 210.562H207.094V225ZM200.75 208.566C199.975 208.566 199.273 208.393 198.645 208.047C198.016 207.691 197.514 207.217 197.141 206.625C196.776 206.023 196.594 205.349 196.594 204.602H198.576C198.576 205.221 198.777 205.727 199.178 206.119C199.588 206.511 200.112 206.707 200.75 206.707C201.388 206.707 201.912 206.511 202.322 206.119C202.732 205.727 202.938 205.221 202.938 204.602H204.92C204.92 205.349 204.733 206.023 204.359 206.625C203.995 207.217 203.498 207.691 202.869 208.047C202.24 208.393 201.534 208.566 200.75 208.566ZM217.033 230.715V210.562H219.863V212.641H219.904C220.36 211.848 220.984 211.255 221.777 210.863C222.57 210.471 223.436 210.275 224.375 210.275C225.615 210.275 226.704 210.594 227.643 211.232C228.581 211.861 229.311 212.741 229.83 213.871C230.359 214.992 230.623 216.296 230.623 217.781C230.623 219.267 230.363 220.575 229.844 221.705C229.324 222.826 228.595 223.706 227.656 224.344C226.717 224.973 225.619 225.287 224.361 225.287C223.423 225.287 222.575 225.082 221.818 224.672C221.062 224.262 220.442 223.646 219.959 222.826H219.918V230.715H217.033ZM223.773 222.799C224.94 222.799 225.883 222.37 226.604 221.514C227.333 220.657 227.697 219.413 227.697 217.781C227.697 216.15 227.333 214.906 226.604 214.049C225.883 213.183 224.94 212.75 223.773 212.75C222.543 212.75 221.559 213.21 220.82 214.131C220.091 215.042 219.727 216.259 219.727 217.781C219.727 219.294 220.091 220.511 220.82 221.432C221.559 222.343 222.543 222.799 223.773 222.799ZM239.373 225.328C237.997 225.328 236.789 225.009 235.75 224.371C234.711 223.733 233.9 222.849 233.316 221.719C232.742 220.589 232.455 219.285 232.455 217.809C232.455 216.314 232.742 215.001 233.316 213.871C233.9 212.732 234.711 211.843 235.75 211.205C236.789 210.558 237.997 210.234 239.373 210.234C240.749 210.234 241.952 210.558 242.982 211.205C244.021 211.843 244.828 212.732 245.402 213.871C245.986 215.001 246.277 216.314 246.277 217.809C246.277 219.285 245.986 220.589 245.402 221.719C244.828 222.849 244.021 223.733 242.982 224.371C241.952 225.009 240.749 225.328 239.373 225.328ZM239.373 222.84C240.613 222.84 241.588 222.384 242.299 221.473C243.01 220.561 243.365 219.34 243.365 217.809C243.365 216.259 243.005 215.024 242.285 214.104C241.574 213.183 240.604 212.723 239.373 212.723C238.143 212.723 237.167 213.183 236.447 214.104C235.736 215.015 235.381 216.25 235.381 217.809C235.381 219.349 235.736 220.575 236.447 221.486C237.158 222.389 238.133 222.84 239.373 222.84ZM255.014 225.328C253.637 225.328 252.43 225.009 251.391 224.371C250.361 223.733 249.559 222.849 248.984 221.719C248.41 220.579 248.123 219.276 248.123 217.809C248.123 216.323 248.41 215.01 248.984 213.871C249.568 212.732 250.374 211.843 251.404 211.205C252.434 210.558 253.637 210.234 255.014 210.234C256.162 210.234 257.188 210.462 258.09 210.918C259.001 211.365 259.74 211.984 260.305 212.777C260.87 213.57 261.212 214.477 261.33 215.498H258.459C258.313 214.687 257.949 214.021 257.365 213.502C256.782 212.982 256.003 212.723 255.027 212.723C253.779 212.723 252.803 213.183 252.102 214.104C251.4 215.024 251.049 216.259 251.049 217.809C251.049 219.34 251.4 220.561 252.102 221.473C252.803 222.384 253.779 222.84 255.027 222.84C256.021 222.84 256.786 222.589 257.324 222.088C257.862 221.577 258.227 220.898 258.418 220.051H261.33C261.221 221.053 260.883 221.956 260.318 222.758C259.753 223.551 259.015 224.18 258.104 224.645C257.192 225.1 256.162 225.328 255.014 225.328ZM267.359 225V213.078H262.383V210.562H275.207V213.078H270.244V225H267.359ZM283.957 225V204.629H291.709C293.887 204.629 295.615 205.199 296.891 206.338C298.167 207.477 298.805 209.022 298.805 210.973C298.805 212.395 298.44 213.607 297.711 214.609C296.982 215.603 295.984 216.327 294.717 216.783L299.119 225H295.701L291.641 217.289C291.595 217.289 291.549 217.289 291.504 217.289H286.992V225H283.957ZM286.992 214.705H291.586C292.898 214.705 293.928 214.372 294.676 213.707C295.432 213.033 295.811 212.121 295.811 210.973C295.811 209.824 295.432 208.917 294.676 208.252C293.919 207.587 292.885 207.254 291.572 207.254H286.992V214.705ZM307.172 225.328C305.741 225.328 304.51 225.005 303.48 224.357C302.46 223.71 301.671 222.822 301.115 221.691C300.568 220.552 300.295 219.258 300.295 217.809C300.295 216.341 300.582 215.038 301.156 213.898C301.73 212.759 302.523 211.866 303.535 211.219C304.547 210.562 305.709 210.234 307.021 210.234C308.389 210.234 309.574 210.553 310.576 211.191C311.588 211.829 312.372 212.718 312.928 213.857C313.484 214.988 313.762 216.296 313.762 217.781V218.561H303.139C303.193 219.864 303.567 220.917 304.26 221.719C304.962 222.521 305.946 222.922 307.213 222.922C308.161 222.922 308.94 222.708 309.551 222.279C310.161 221.851 310.567 221.295 310.768 220.611H313.543C313.37 221.541 312.982 222.361 312.381 223.072C311.788 223.783 311.041 224.339 310.139 224.74C309.245 225.132 308.257 225.328 307.172 225.328ZM303.166 216.373H310.945C310.827 215.225 310.421 214.318 309.729 213.652C309.036 212.978 308.143 212.641 307.049 212.641C305.955 212.641 305.062 212.978 304.369 213.652C303.686 214.318 303.285 215.225 303.166 216.373ZM323.223 210.562V212.941H320.297V221.186C320.297 221.723 320.406 222.097 320.625 222.307C320.844 222.516 321.24 222.621 321.814 222.621H323.223V225H321.404C318.734 225 317.398 223.852 317.398 221.555V212.941H314.855V210.562H317.398V206.625H320.297V210.562H323.223ZM331.426 225.328C329.995 225.328 328.764 225.005 327.734 224.357C326.714 223.71 325.925 222.822 325.369 221.691C324.822 220.552 324.549 219.258 324.549 217.809C324.549 216.341 324.836 215.038 325.41 213.898C325.984 212.759 326.777 211.866 327.789 211.219C328.801 210.562 329.963 210.234 331.275 210.234C332.643 210.234 333.827 210.553 334.83 211.191C335.842 211.829 336.626 212.718 337.182 213.857C337.738 214.988 338.016 216.296 338.016 217.781V218.561H327.393C327.447 219.864 327.821 220.917 328.514 221.719C329.215 222.521 330.2 222.922 331.467 222.922C332.415 222.922 333.194 222.708 333.805 222.279C334.415 221.851 334.821 221.295 335.021 220.611H337.797C337.624 221.541 337.236 222.361 336.635 223.072C336.042 223.783 335.295 224.339 334.393 224.74C333.499 225.132 332.51 225.328 331.426 225.328ZM327.42 216.373H335.199C335.081 215.225 334.675 214.318 333.982 213.652C333.29 212.978 332.396 212.641 331.303 212.641C330.209 212.641 329.316 212.978 328.623 213.652C327.939 214.318 327.538 215.225 327.42 216.373ZM343.402 216.688V225H340.518V210.562H343.348V212.736C344.332 211.096 345.786 210.275 347.709 210.275C348.702 210.275 349.591 210.494 350.375 210.932C351.168 211.36 351.792 211.998 352.248 212.846C352.704 213.693 352.932 214.746 352.932 216.004V225H350.047V216.359C350.047 215.202 349.769 214.331 349.213 213.748C348.657 213.156 347.882 212.859 346.889 212.859C345.904 212.859 345.075 213.165 344.4 213.775C343.735 214.377 343.402 215.348 343.402 216.688ZM363.145 210.562V212.941H360.219V221.186C360.219 221.723 360.328 222.097 360.547 222.307C360.766 222.516 361.162 222.621 361.736 222.621H363.145V225H361.326C358.656 225 357.32 223.852 357.32 221.555V212.941H354.777V210.562H357.32V206.625H360.219V210.562H363.145ZM365.428 225V210.562H368.312V225H365.428ZM366.863 208.074C366.353 208.074 365.92 207.906 365.564 207.568C365.218 207.222 365.045 206.803 365.045 206.311C365.045 205.809 365.218 205.39 365.564 205.053C365.92 204.706 366.353 204.533 366.863 204.533C367.374 204.533 367.807 204.706 368.162 205.053C368.518 205.39 368.695 205.809 368.695 206.311C368.695 206.803 368.518 207.222 368.162 207.568C367.807 207.906 367.374 208.074 366.863 208.074ZM377.787 225.328C376.411 225.328 375.203 225.009 374.164 224.371C373.125 223.733 372.314 222.849 371.73 221.719C371.156 220.589 370.869 219.285 370.869 217.809C370.869 216.314 371.156 215.001 371.73 213.871C372.314 212.732 373.125 211.843 374.164 211.205C375.203 210.558 376.411 210.234 377.787 210.234C379.163 210.234 380.367 210.558 381.396 211.205C382.436 211.843 383.242 212.732 383.816 213.871C384.4 215.001 384.691 216.314 384.691 217.809C384.691 219.285 384.4 220.589 383.816 221.719C383.242 222.849 382.436 223.733 381.396 224.371C380.367 225.009 379.163 225.328 377.787 225.328ZM377.787 222.84C379.027 222.84 380.002 222.384 380.713 221.473C381.424 220.561 381.779 219.34 381.779 217.809C381.779 216.259 381.419 215.024 380.699 214.104C379.988 213.183 379.018 212.723 377.787 212.723C376.557 212.723 375.581 213.183 374.861 214.104C374.15 215.015 373.795 216.25 373.795 217.809C373.795 219.349 374.15 220.575 374.861 221.486C375.572 222.389 376.548 222.84 377.787 222.84ZM390.133 216.688V225H387.248V210.562H390.078V212.736C391.062 211.096 392.516 210.275 394.439 210.275C395.433 210.275 396.322 210.494 397.105 210.932C397.898 211.36 398.523 211.998 398.979 212.846C399.434 213.693 399.662 214.746 399.662 216.004V225H396.777V216.359C396.777 215.202 396.499 214.331 395.943 213.748C395.387 213.156 394.613 212.859 393.619 212.859C392.635 212.859 391.805 213.165 391.131 213.775C390.465 214.377 390.133 215.348 390.133 216.688Z" fill="#43475A"/>
<path d="M58.6406 172V153.24L103.963 114.476C109.441 109.661 113.979 105.206 117.576 101.111C121.173 96.9609 122.972 91.9805 122.972 86.1699C122.972 80.2487 121.173 75.5449 117.576 72.0586C113.979 68.5169 109.137 66.7461 103.05 66.7461C96.4092 66.7461 91.1797 68.8766 87.3613 73.1377C83.543 77.3988 81.6338 83.2923 81.6338 90.8184H58.1426C58.1426 81.8535 59.9687 74.0508 63.6211 67.4102C67.3288 60.7142 72.5306 55.54 79.2266 51.8877C85.9225 48.18 93.8636 46.3262 103.05 46.3262C111.517 46.3262 119.043 47.931 125.628 51.1406C132.213 54.2949 137.36 58.7497 141.067 64.5049C144.83 70.2601 146.712 77.0391 146.712 84.8418C146.712 90.597 145.633 95.8542 143.475 100.613C141.316 105.372 138.19 109.993 134.095 114.476C130.055 118.903 125.158 123.579 119.402 128.504L93.1719 151.331V151.497H147.293V172H58.6406ZM202.623 173.992C187.183 173.992 175.202 168.68 166.68 158.055C158.158 147.43 153.897 132.516 153.897 113.313C153.897 99.7555 155.779 87.9684 159.542 77.9521C163.36 67.8805 168.949 60.1055 176.309 54.627C183.725 49.0931 192.828 46.3262 203.619 46.3262C211.864 46.3262 219.086 47.8757 225.284 50.9746C231.537 54.0736 236.545 58.307 240.308 63.6748C244.071 69.0426 246.312 75.1299 247.032 81.9365H223.126C222.24 77.1221 220.082 73.276 216.651 70.3984C213.22 67.5208 208.793 66.082 203.37 66.082C194.516 66.082 187.958 69.6237 183.697 76.707C179.491 83.7904 177.388 93.1149 177.388 104.681H177.554C180.598 99.9769 184.665 96.3799 189.756 93.8896C194.848 91.3994 200.603 90.1543 207.022 90.1543C214.991 90.1543 222.074 91.9528 228.272 95.5498C234.525 99.0915 239.423 103.989 242.964 110.242C246.561 116.44 248.36 123.523 248.36 131.492C248.36 139.904 246.395 147.319 242.466 153.738C238.593 160.102 233.197 165.083 226.28 168.68C219.418 172.221 211.532 173.992 202.623 173.992ZM202.457 153.904C206.552 153.904 210.232 152.936 213.497 150.999C216.762 149.007 219.335 146.323 221.216 142.947C223.153 139.572 224.122 135.753 224.122 131.492C224.122 125.184 222.074 119.926 217.979 115.721C213.884 111.46 208.793 109.329 202.706 109.329C198.611 109.329 194.903 110.325 191.583 112.317C188.318 114.254 185.717 116.91 183.78 120.286C181.898 123.606 180.958 127.369 180.958 131.575C180.958 135.781 181.898 139.572 183.78 142.947C185.661 146.323 188.235 149.007 191.5 150.999C194.765 152.936 198.417 153.904 202.457 153.904ZM368.602 173.992C362.957 173.992 357.977 172.719 353.66 170.174C349.344 167.628 345.968 164.059 343.533 159.466C341.098 154.873 339.881 149.56 339.881 143.528V141.038C339.881 134.951 341.098 129.638 343.533 125.101C345.968 120.507 349.344 116.938 353.66 114.393C357.977 111.792 362.957 110.491 368.602 110.491C374.191 110.491 379.144 111.792 383.46 114.393C387.777 116.938 391.152 120.507 393.587 125.101C396.077 129.638 397.322 134.951 397.322 141.038V143.528C397.322 149.56 396.077 154.873 393.587 159.466C391.152 164.059 387.777 167.628 383.46 170.174C379.144 172.719 374.191 173.992 368.602 173.992ZM287.752 109.827C282.163 109.827 277.21 108.554 272.894 106.009C268.577 103.463 265.202 99.8939 262.767 95.3008C260.332 90.7077 259.114 85.3952 259.114 79.3633V76.873C259.114 70.7858 260.332 65.4733 262.767 60.9355C265.202 56.3424 268.577 52.7731 272.894 50.2275C277.21 47.6266 282.163 46.3262 287.752 46.3262C293.397 46.3262 298.377 47.6266 302.694 50.2275C307.01 52.7731 310.386 56.3424 312.82 60.9355C315.255 65.4733 316.473 70.7858 316.473 76.873V79.3633C316.473 85.3952 315.255 90.7077 312.82 95.3008C310.386 99.8939 307.01 103.463 302.694 106.009C298.377 108.554 293.397 109.827 287.752 109.827ZM276.546 172L361.546 48.3184H379.642L294.642 172H276.546ZM287.752 94.6367C291.128 94.6367 293.812 93.3639 295.804 90.8184C297.851 88.2174 298.875 84.3991 298.875 79.3633V76.873C298.875 71.7819 297.851 67.9359 295.804 65.335C293.812 62.734 291.128 61.4336 287.752 61.4336C284.432 61.4336 281.748 62.734 279.7 65.335C277.708 67.9359 276.712 71.7819 276.712 76.873V79.3633C276.712 84.3991 277.708 88.2174 279.7 90.8184C281.748 93.3639 284.432 94.6367 287.752 94.6367ZM368.602 158.802C371.922 158.802 374.578 157.529 376.57 154.983C378.618 152.382 379.642 148.564 379.642 143.528V141.038C379.642 135.947 378.618 132.101 376.57 129.5C374.578 126.899 371.922 125.599 368.602 125.599C365.226 125.599 362.542 126.899 360.55 129.5C358.558 132.101 357.562 135.947 357.562 141.038V143.528C357.562 148.564 358.558 152.382 360.55 154.983C362.542 157.529 365.226 158.802 368.602 158.802Z" fill="#43475A"/>
<rect x="617" y="20" width="589" height="244" rx="56" fill="#F6F7F9"/>
<path d="M657.205 228.328C655.829 228.328 654.621 228.009 653.582 227.371C652.552 226.733 651.75 225.849 651.176 224.719C650.602 223.579 650.314 222.276 650.314 220.809C650.314 219.323 650.602 218.01 651.176 216.871C651.759 215.732 652.566 214.843 653.596 214.205C654.626 213.558 655.829 213.234 657.205 213.234C658.354 213.234 659.379 213.462 660.281 213.918C661.193 214.365 661.931 214.984 662.496 215.777C663.061 216.57 663.403 217.477 663.521 218.498H660.65C660.505 217.687 660.14 217.021 659.557 216.502C658.973 215.982 658.194 215.723 657.219 215.723C655.97 215.723 654.995 216.183 654.293 217.104C653.591 218.024 653.24 219.259 653.24 220.809C653.24 222.34 653.591 223.561 654.293 224.473C654.995 225.384 655.97 225.84 657.219 225.84C658.212 225.84 658.978 225.589 659.516 225.088C660.053 224.577 660.418 223.898 660.609 223.051H663.521C663.412 224.053 663.075 224.956 662.51 225.758C661.945 226.551 661.206 227.18 660.295 227.645C659.383 228.1 658.354 228.328 657.205 228.328ZM665.982 233.715V213.562H668.812V215.641H668.854C669.309 214.848 669.934 214.255 670.727 213.863C671.52 213.471 672.385 213.275 673.324 213.275C674.564 213.275 675.653 213.594 676.592 214.232C677.531 214.861 678.26 215.741 678.779 216.871C679.308 217.992 679.572 219.296 679.572 220.781C679.572 222.267 679.312 223.575 678.793 224.705C678.273 225.826 677.544 226.706 676.605 227.344C675.667 227.973 674.568 228.287 673.311 228.287C672.372 228.287 671.524 228.082 670.768 227.672C670.011 227.262 669.391 226.646 668.908 225.826H668.867V233.715H665.982ZM672.723 225.799C673.889 225.799 674.833 225.37 675.553 224.514C676.282 223.657 676.646 222.413 676.646 220.781C676.646 219.15 676.282 217.906 675.553 217.049C674.833 216.183 673.889 215.75 672.723 215.75C671.492 215.75 670.508 216.21 669.77 217.131C669.04 218.042 668.676 219.259 668.676 220.781C668.676 222.294 669.04 223.511 669.77 224.432C670.508 225.343 671.492 225.799 672.723 225.799ZM688.281 228.328C686.85 228.328 685.62 228.005 684.59 227.357C683.569 226.71 682.781 225.822 682.225 224.691C681.678 223.552 681.404 222.258 681.404 220.809C681.404 219.341 681.691 218.038 682.266 216.898C682.84 215.759 683.633 214.866 684.645 214.219C685.656 213.562 686.818 213.234 688.131 213.234C689.498 213.234 690.683 213.553 691.686 214.191C692.697 214.829 693.481 215.718 694.037 216.857C694.593 217.988 694.871 219.296 694.871 220.781V221.561H684.248C684.303 222.864 684.676 223.917 685.369 224.719C686.071 225.521 687.055 225.922 688.322 225.922C689.27 225.922 690.049 225.708 690.66 225.279C691.271 224.851 691.676 224.295 691.877 223.611H694.652C694.479 224.541 694.092 225.361 693.49 226.072C692.898 226.783 692.15 227.339 691.248 227.74C690.355 228.132 689.366 228.328 688.281 228.328ZM684.275 219.373H692.055C691.936 218.225 691.531 217.318 690.838 216.652C690.145 215.978 689.252 215.641 688.158 215.641C687.064 215.641 686.171 215.978 685.479 216.652C684.795 217.318 684.394 218.225 684.275 219.373ZM696.047 232.402V225.416H697.277C697.697 225.033 698.038 224.582 698.303 224.062C698.567 223.534 698.781 222.868 698.945 222.066C699.109 221.264 699.246 220.248 699.355 219.018L699.834 213.562H710.143V225.416H712.48V232.402H709.65V228H698.918V232.402H696.047ZM700.422 225.416H707.326V216.119H702.391L702.104 219.018C701.976 220.476 701.789 221.738 701.543 222.805C701.306 223.871 700.932 224.742 700.422 225.416ZM717.348 213.562V219.482H724.252V213.562H727.137V228H724.252V222.066H717.348V228H714.463V213.562H717.348ZM736.57 228.328C735.139 228.328 733.909 228.005 732.879 227.357C731.858 226.71 731.07 225.822 730.514 224.691C729.967 223.552 729.693 222.258 729.693 220.809C729.693 219.341 729.98 218.038 730.555 216.898C731.129 215.759 731.922 214.866 732.934 214.219C733.945 213.562 735.107 213.234 736.42 213.234C737.787 213.234 738.972 213.553 739.975 214.191C740.986 214.829 741.77 215.718 742.326 216.857C742.882 217.988 743.16 219.296 743.16 220.781V221.561H732.537C732.592 222.864 732.965 223.917 733.658 224.719C734.36 225.521 735.344 225.922 736.611 225.922C737.559 225.922 738.339 225.708 738.949 225.279C739.56 224.851 739.965 224.295 740.166 223.611H742.941C742.768 224.541 742.381 225.361 741.779 226.072C741.187 226.783 740.439 227.339 739.537 227.74C738.644 228.132 737.655 228.328 736.57 228.328ZM732.564 219.373H740.344C740.225 218.225 739.82 217.318 739.127 216.652C738.434 215.978 737.541 215.641 736.447 215.641C735.354 215.641 734.46 215.978 733.768 216.652C733.084 217.318 732.683 218.225 732.564 219.373ZM751.828 228.328C750.397 228.328 749.167 228.005 748.137 227.357C747.116 226.71 746.327 225.822 745.771 224.691C745.225 223.552 744.951 222.258 744.951 220.809C744.951 219.341 745.238 218.038 745.812 216.898C746.387 215.759 747.18 214.866 748.191 214.219C749.203 213.562 750.365 213.234 751.678 213.234C753.045 213.234 754.23 213.553 755.232 214.191C756.244 214.829 757.028 215.718 757.584 216.857C758.14 217.988 758.418 219.296 758.418 220.781V221.561H747.795C747.85 222.864 748.223 223.917 748.916 224.719C749.618 225.521 750.602 225.922 751.869 225.922C752.817 225.922 753.596 225.708 754.207 225.279C754.818 224.851 755.223 224.295 755.424 223.611H758.199C758.026 224.541 757.639 225.361 757.037 226.072C756.445 226.783 755.697 227.339 754.795 227.74C753.902 228.132 752.913 228.328 751.828 228.328ZM747.822 219.373H755.602C755.483 218.225 755.077 217.318 754.385 216.652C753.692 215.978 752.799 215.641 751.705 215.641C750.611 215.641 749.718 215.978 749.025 216.652C748.342 217.318 747.941 218.225 747.822 219.373ZM767.592 228V213.562H773.717C775.439 213.562 776.802 213.886 777.805 214.533C778.807 215.18 779.309 216.133 779.309 217.391C779.309 218.238 779.067 218.917 778.584 219.428C778.11 219.929 777.445 220.257 776.588 220.412C777.527 220.531 778.306 220.882 778.926 221.465C779.555 222.039 779.869 222.855 779.869 223.912C779.869 225.152 779.423 226.145 778.529 226.893C777.636 227.631 776.36 228 774.701 228H767.592ZM770.326 225.539H774.633C775.389 225.539 775.973 225.38 776.383 225.061C776.793 224.742 776.998 224.286 776.998 223.693C776.998 223.037 776.793 222.531 776.383 222.176C775.973 221.82 775.389 221.643 774.633 221.643H770.326V225.539ZM770.326 219.551H773.84C774.678 219.551 775.326 219.391 775.781 219.072C776.237 218.744 776.465 218.284 776.465 217.691C776.465 217.145 776.223 216.725 775.74 216.434C775.266 216.133 774.592 215.982 773.717 215.982H770.326V219.551ZM782.412 233.715V213.562H785.242V215.641H785.283C785.739 214.848 786.363 214.255 787.156 213.863C787.949 213.471 788.815 213.275 789.754 213.275C790.993 213.275 792.083 213.594 793.021 214.232C793.96 214.861 794.689 215.741 795.209 216.871C795.738 217.992 796.002 219.296 796.002 220.781C796.002 222.267 795.742 223.575 795.223 224.705C794.703 225.826 793.974 226.706 793.035 227.344C792.096 227.973 790.998 228.287 789.74 228.287C788.801 228.287 787.954 228.082 787.197 227.672C786.441 227.262 785.821 226.646 785.338 225.826H785.297V233.715H782.412ZM789.152 225.799C790.319 225.799 791.262 225.37 791.982 224.514C792.712 223.657 793.076 222.413 793.076 220.781C793.076 219.15 792.712 217.906 791.982 217.049C791.262 216.183 790.319 215.75 789.152 215.75C787.922 215.75 786.938 216.21 786.199 217.131C785.47 218.042 785.105 219.259 785.105 220.781C785.105 222.294 785.47 223.511 786.199 224.432C786.938 225.343 787.922 225.799 789.152 225.799ZM804.711 228.328C803.28 228.328 802.049 228.005 801.02 227.357C799.999 226.71 799.21 225.822 798.654 224.691C798.107 223.552 797.834 222.258 797.834 220.809C797.834 219.341 798.121 218.038 798.695 216.898C799.27 215.759 800.062 214.866 801.074 214.219C802.086 213.562 803.248 213.234 804.561 213.234C805.928 213.234 807.113 213.553 808.115 214.191C809.127 214.829 809.911 215.718 810.467 216.857C811.023 217.988 811.301 219.296 811.301 220.781V221.561H800.678C800.732 222.864 801.106 223.917 801.799 224.719C802.501 225.521 803.485 225.922 804.752 225.922C805.7 225.922 806.479 225.708 807.09 225.279C807.701 224.851 808.106 224.295 808.307 223.611H811.082C810.909 224.541 810.521 225.361 809.92 226.072C809.327 226.783 808.58 227.339 807.678 227.74C806.785 228.132 805.796 228.328 804.711 228.328ZM800.705 219.373H808.484C808.366 218.225 807.96 217.318 807.268 216.652C806.575 215.978 805.682 215.641 804.588 215.641C803.494 215.641 802.601 215.978 801.908 216.652C801.225 217.318 800.824 218.225 800.705 219.373ZM813.803 228V213.562H818.137L821.404 221.342C821.641 221.943 821.855 222.531 822.047 223.105C822.238 223.671 822.43 224.217 822.621 224.746C822.803 224.217 822.99 223.671 823.182 223.105C823.373 222.531 823.587 221.943 823.824 221.342L827.064 213.562H831.398V228H828.541V221.342C828.541 220.33 828.546 219.451 828.555 218.703C828.564 217.947 828.573 217.199 828.582 216.461C828.29 217.227 827.994 218.006 827.693 218.799C827.402 219.583 827.074 220.426 826.709 221.328L823.838 228H821.363L818.479 221.328C818.114 220.453 817.781 219.633 817.48 218.867C817.189 218.092 816.902 217.336 816.619 216.598C816.628 217.309 816.637 218.033 816.646 218.771C816.656 219.501 816.66 220.357 816.66 221.342V228H813.803ZM846.355 228H843.525V222.805H839.93L836.566 228H833.312L837.018 222.408C836.042 222.08 835.29 221.565 834.762 220.863C834.242 220.161 833.982 219.291 833.982 218.252C833.982 216.757 834.479 215.604 835.473 214.793C836.475 213.973 837.883 213.562 839.697 213.562H846.355V228ZM843.525 220.535V215.982H840.012C838.909 215.982 838.102 216.165 837.592 216.529C837.081 216.894 836.826 217.473 836.826 218.266C836.826 219.068 837.09 219.646 837.619 220.002C838.148 220.357 838.973 220.535 840.094 220.535H843.525ZM856.295 228V213.562H862.42C864.143 213.562 865.505 213.886 866.508 214.533C867.51 215.18 868.012 216.133 868.012 217.391C868.012 218.238 867.77 218.917 867.287 219.428C866.813 219.929 866.148 220.257 865.291 220.412C866.23 220.531 867.009 220.882 867.629 221.465C868.258 222.039 868.572 222.855 868.572 223.912C868.572 225.152 868.126 226.145 867.232 226.893C866.339 227.631 865.063 228 863.404 228H856.295ZM859.029 225.539H863.336C864.092 225.539 864.676 225.38 865.086 225.061C865.496 224.742 865.701 224.286 865.701 223.693C865.701 223.037 865.496 222.531 865.086 222.176C864.676 221.82 864.092 221.643 863.336 221.643H859.029V225.539ZM859.029 219.551H862.543C863.382 219.551 864.029 219.391 864.484 219.072C864.94 218.744 865.168 218.284 865.168 217.691C865.168 217.145 864.926 216.725 864.443 216.434C863.969 216.133 863.295 215.982 862.42 215.982H859.029V219.551ZM874 218.389H877.787C879.455 218.389 880.799 218.826 881.82 219.701C882.841 220.576 883.352 221.725 883.352 223.146C883.352 224.596 882.841 225.767 881.82 226.66C880.799 227.553 879.455 228 877.787 228H871.115V213.562H874V218.389ZM874 220.904V225.471H877.678C878.553 225.471 879.241 225.261 879.742 224.842C880.253 224.423 880.508 223.857 880.508 223.146C880.508 222.454 880.253 221.907 879.742 221.506C879.241 221.105 878.553 220.904 877.678 220.904H874ZM884.609 228V213.562H887.494V228H884.609ZM903.271 213.562V228H900.387V216.146H893.633V228H890.748V213.562H903.271ZM912.732 228.328C911.356 228.328 910.148 228.009 909.109 227.371C908.07 226.733 907.259 225.849 906.676 224.719C906.102 223.589 905.814 222.285 905.814 220.809C905.814 219.314 906.102 218.001 906.676 216.871C907.259 215.732 908.07 214.843 909.109 214.205C910.148 213.558 911.356 213.234 912.732 213.234C914.109 213.234 915.312 213.558 916.342 214.205C917.381 214.843 918.188 215.732 918.762 216.871C919.345 218.001 919.637 219.314 919.637 220.809C919.637 222.285 919.345 223.589 918.762 224.719C918.188 225.849 917.381 226.733 916.342 227.371C915.312 228.009 914.109 228.328 912.732 228.328ZM912.732 225.84C913.972 225.84 914.947 225.384 915.658 224.473C916.369 223.561 916.725 222.34 916.725 220.809C916.725 219.259 916.365 218.024 915.645 217.104C914.934 216.183 913.963 215.723 912.732 215.723C911.502 215.723 910.527 216.183 909.807 217.104C909.096 218.015 908.74 219.25 908.74 220.809C908.74 222.349 909.096 223.575 909.807 224.486C910.518 225.389 911.493 225.84 912.732 225.84ZM920.785 228V225.457H921.359C921.934 225.457 922.385 225.325 922.713 225.061C923.041 224.796 923.283 224.277 923.438 223.502C923.592 222.718 923.702 221.547 923.766 219.988L924.039 213.562H934.771V228H931.887V216.092H926.801L926.568 220.809C926.441 223.324 926.035 225.152 925.352 226.291C924.668 227.43 923.501 228 921.852 228H920.785ZM940.91 213.562V219.482H947.814V213.562H950.699V228H947.814V222.066H940.91V228H938.025V213.562H940.91ZM960.133 228.328C958.702 228.328 957.471 228.005 956.441 227.357C955.421 226.71 954.632 225.822 954.076 224.691C953.529 223.552 953.256 222.258 953.256 220.809C953.256 219.341 953.543 218.038 954.117 216.898C954.691 215.759 955.484 214.866 956.496 214.219C957.508 213.562 958.67 213.234 959.982 213.234C961.35 213.234 962.535 213.553 963.537 214.191C964.549 214.829 965.333 215.718 965.889 216.857C966.445 217.988 966.723 219.296 966.723 220.781V221.561H956.1C956.154 222.864 956.528 223.917 957.221 224.719C957.923 225.521 958.907 225.922 960.174 225.922C961.122 225.922 961.901 225.708 962.512 225.279C963.122 224.851 963.528 224.295 963.729 223.611H966.504C966.331 224.541 965.943 225.361 965.342 226.072C964.749 226.783 964.002 227.339 963.1 227.74C962.206 228.132 961.217 228.328 960.133 228.328ZM956.127 219.373H963.906C963.788 218.225 963.382 217.318 962.689 216.652C961.997 215.978 961.104 215.641 960.01 215.641C958.916 215.641 958.023 215.978 957.33 216.652C956.646 217.318 956.245 218.225 956.127 219.373ZM972.109 213.562V219.482H979.014V213.562H981.898V228H979.014V222.066H972.109V228H969.225V213.562H972.109ZM997.84 228H994.969V217.924H994.941L987.873 228H985.166V213.562H988.037V223.639H988.064L995.119 213.562H997.84V228ZM1012.8 228H1009.97V222.805H1006.37L1003.01 228H999.754L1003.46 222.408C1002.48 222.08 1001.73 221.565 1001.2 220.863C1000.68 220.161 1000.42 219.291 1000.42 218.252C1000.42 216.757 1000.92 215.604 1001.91 214.793C1002.92 213.973 1004.32 213.562 1006.14 213.562H1012.8V228ZM1009.97 220.535V215.982H1006.45C1005.35 215.982 1004.54 216.165 1004.03 216.529C1003.52 216.894 1003.27 217.473 1003.27 218.266C1003.27 219.068 1003.53 219.646 1004.06 220.002C1004.59 220.357 1005.41 220.535 1006.54 220.535H1009.97ZM1027.79 228.219C1026.61 228.219 1025.58 228.018 1024.72 227.617C1023.86 227.207 1023.2 226.66 1022.72 225.977C1022.26 225.284 1022.02 224.505 1022.01 223.639H1024.86C1024.87 224.331 1025.15 224.878 1025.68 225.279C1026.21 225.671 1026.91 225.867 1027.75 225.867C1028.62 225.867 1029.32 225.676 1029.86 225.293C1030.41 224.901 1030.68 224.395 1030.68 223.775C1030.68 223.137 1030.4 222.618 1029.83 222.217C1029.27 221.807 1028.49 221.602 1027.51 221.602H1026.39V219.564H1027.51C1028.34 219.564 1029.01 219.378 1029.52 219.004C1030.04 218.63 1030.3 218.138 1030.3 217.527C1030.3 216.926 1030.06 216.443 1029.6 216.078C1029.14 215.714 1028.54 215.531 1027.78 215.531C1027.02 215.531 1026.37 215.718 1025.85 216.092C1025.34 216.456 1025.08 216.962 1025.07 217.609H1022.33C1022.34 216.762 1022.58 216.01 1023.05 215.354C1023.52 214.697 1024.17 214.182 1024.98 213.809C1025.8 213.435 1026.74 213.248 1027.79 213.248C1028.83 213.248 1029.75 213.43 1030.53 213.795C1031.32 214.15 1031.94 214.633 1032.38 215.244C1032.82 215.846 1033.04 216.525 1033.04 217.281C1033.04 218.092 1032.79 218.785 1032.27 219.359C1031.76 219.924 1031.06 220.294 1030.19 220.467V220.494C1031.26 220.631 1032.1 221.018 1032.69 221.656C1033.28 222.294 1033.58 223.06 1033.58 223.953C1033.58 224.773 1033.33 225.507 1032.83 226.154C1032.33 226.792 1031.65 227.298 1030.78 227.672C1029.91 228.036 1028.92 228.219 1027.79 228.219ZM1040.46 228.232C1039.01 228.232 1037.82 227.868 1036.87 227.139C1035.93 226.4 1035.45 225.311 1035.45 223.871C1035.45 222.777 1035.72 221.939 1036.26 221.355C1036.8 220.763 1037.51 220.339 1038.38 220.084C1039.25 219.829 1040.18 219.642 1041.15 219.523C1042.05 219.414 1042.77 219.323 1043.3 219.25C1043.83 219.177 1044.2 219.068 1044.42 218.922C1044.65 218.776 1044.76 218.525 1044.76 218.17V218.047C1044.76 217.345 1044.51 216.771 1044 216.324C1043.49 215.868 1042.77 215.641 1041.85 215.641C1040.93 215.641 1040.18 215.864 1039.59 216.311C1039.01 216.748 1038.69 217.299 1038.64 217.965H1035.81C1035.87 216.589 1036.45 215.463 1037.54 214.588C1038.64 213.713 1040.09 213.275 1041.89 213.275C1043.67 213.275 1045.07 213.713 1046.09 214.588C1047.11 215.463 1047.62 216.634 1047.62 218.102V228H1044.78V225.949H1044.72C1044.42 226.533 1043.94 227.061 1043.29 227.535C1042.64 228 1041.69 228.232 1040.46 228.232ZM1041.04 225.908C1042.32 225.908 1043.26 225.58 1043.86 224.924C1044.47 224.258 1044.78 223.484 1044.78 222.6V220.904C1044.58 221.059 1044.15 221.201 1043.48 221.328C1042.8 221.447 1042.08 221.561 1041.32 221.67C1040.52 221.788 1039.83 222.012 1039.22 222.34C1038.62 222.668 1038.32 223.197 1038.32 223.926C1038.32 224.546 1038.56 225.033 1039.05 225.389C1039.54 225.735 1040.2 225.908 1041.04 225.908ZM1049.55 232.402V225.416H1050.78C1051.2 225.033 1051.54 224.582 1051.8 224.062C1052.07 223.534 1052.28 222.868 1052.45 222.066C1052.61 221.264 1052.75 220.248 1052.86 219.018L1053.33 213.562H1063.64V225.416H1065.98V232.402H1063.15V228H1052.42V232.402H1049.55ZM1053.92 225.416H1060.83V216.119H1055.89L1055.6 219.018C1055.48 220.476 1055.29 221.738 1055.04 222.805C1054.81 223.871 1054.43 224.742 1053.92 225.416ZM1072.37 228.232C1070.93 228.232 1069.73 227.868 1068.78 227.139C1067.84 226.4 1067.36 225.311 1067.36 223.871C1067.36 222.777 1067.63 221.939 1068.17 221.355C1068.71 220.763 1069.42 220.339 1070.29 220.084C1071.16 219.829 1072.09 219.642 1073.06 219.523C1073.96 219.414 1074.68 219.323 1075.21 219.25C1075.74 219.177 1076.11 219.068 1076.33 218.922C1076.56 218.776 1076.67 218.525 1076.67 218.17V218.047C1076.67 217.345 1076.42 216.771 1075.91 216.324C1075.4 215.868 1074.68 215.641 1073.76 215.641C1072.84 215.641 1072.09 215.864 1071.5 216.311C1070.92 216.748 1070.6 217.299 1070.55 217.965H1067.72C1067.78 216.589 1068.36 215.463 1069.45 214.588C1070.55 213.713 1072 213.275 1073.8 213.275C1075.58 213.275 1076.98 213.713 1078 214.588C1079.02 215.463 1079.53 216.634 1079.53 218.102V228H1076.69V225.949H1076.63C1076.33 226.533 1075.85 227.061 1075.2 227.535C1074.55 228 1073.6 228.232 1072.37 228.232ZM1072.95 225.908C1074.23 225.908 1075.17 225.58 1075.77 224.924C1076.38 224.258 1076.69 223.484 1076.69 222.6V220.904C1076.49 221.059 1076.06 221.201 1075.39 221.328C1074.71 221.447 1073.99 221.561 1073.23 221.67C1072.43 221.788 1071.74 222.012 1071.13 222.34C1070.53 222.668 1070.23 223.197 1070.23 223.926C1070.23 224.546 1070.47 225.033 1070.96 225.389C1071.45 225.735 1072.11 225.908 1072.95 225.908ZM1088.89 223.734C1087 223.734 1085.5 223.265 1084.41 222.326C1083.33 221.387 1082.78 219.979 1082.78 218.102V213.562H1085.67V218.047C1085.67 219.132 1085.96 219.92 1086.56 220.412C1087.15 220.904 1087.93 221.15 1088.89 221.15C1089.49 221.15 1090.05 221.114 1090.58 221.041C1091.1 220.968 1091.62 220.863 1092.13 220.727V213.562H1095.02V228H1092.13V223.324C1091.64 223.452 1091.13 223.552 1090.59 223.625C1090.05 223.698 1089.49 223.734 1088.89 223.734ZM1110.96 228H1108.09V217.924H1108.06L1100.99 228H1098.29V213.562H1101.16V223.639H1101.19L1108.24 213.562H1110.96V228Z" fill="#43475A"/>
<path d="M661.202 172L713.082 69.7344V69.5684H652.735V48.3184H738.814V69.3193L687.101 172H661.202Z" fill="#43475A"/>
<path d="M735.811 144.287C736.426 140.505 737.383 136.642 738.682 132.7C740.003 128.758 741.564 124.964 743.364 121.318C745.164 117.65 747.113 114.368 749.209 111.475H753.55C751.34 114.847 749.334 118.39 747.534 122.104C745.757 125.819 744.242 129.567 742.988 133.35C741.758 137.109 740.846 140.755 740.254 144.287C738.636 154.04 739.559 164.294 743.022 175.049H738.682C736.882 170.286 735.731 165.296 735.229 160.078C734.728 154.837 734.922 149.574 735.811 144.287ZM769.99 165.82C766.367 165.82 763.2 165.034 760.488 163.462C757.777 161.867 755.658 159.657 754.131 156.831C752.627 153.983 751.875 150.701 751.875 146.987C751.875 143.25 752.627 139.969 754.131 137.144C755.658 134.295 757.777 132.074 760.488 130.479C763.2 128.883 766.367 128.086 769.99 128.086C773.158 128.086 775.972 128.701 778.433 129.932C780.916 131.139 782.899 132.826 784.38 134.99C785.884 137.132 786.738 139.604 786.943 142.407H777.202C776.929 140.562 776.177 139.069 774.946 137.93C773.739 136.79 772.132 136.221 770.127 136.221C767.598 136.221 765.615 137.189 764.18 139.126C762.744 141.063 762.026 143.683 762.026 146.987C762.026 150.269 762.744 152.878 764.18 154.814C765.615 156.729 767.598 157.686 770.127 157.686C772.155 157.686 773.75 157.116 774.912 155.977C776.074 154.837 776.815 153.322 777.134 151.431H786.943C786.807 154.211 785.998 156.683 784.517 158.848C783.035 161.012 781.042 162.721 778.535 163.975C776.051 165.205 773.203 165.82 769.99 165.82ZM808.818 165.82C805.173 165.82 801.994 165.011 799.282 163.394C796.593 161.776 794.497 159.554 792.993 156.729C791.512 153.88 790.771 150.633 790.771 146.987C790.771 143.319 791.523 140.06 793.027 137.212C794.554 134.364 796.65 132.131 799.316 130.513C801.982 128.895 805.036 128.086 808.477 128.086C812.031 128.086 815.13 128.883 817.773 130.479C820.439 132.051 822.513 134.25 823.994 137.075C825.498 139.878 826.25 143.114 826.25 146.782V149.482H800.581C800.672 152.148 801.458 154.279 802.939 155.874C804.421 157.469 806.483 158.267 809.126 158.267C811.086 158.267 812.715 157.845 814.014 157.002C815.335 156.159 816.224 155.042 816.68 153.652H825.874C825.441 156.045 824.427 158.153 822.832 159.976C821.237 161.799 819.232 163.234 816.816 164.282C814.401 165.308 811.735 165.82 808.818 165.82ZM800.649 143.057H816.748C816.497 140.801 815.654 139.023 814.219 137.725C812.806 136.403 810.96 135.742 808.682 135.742C806.426 135.742 804.591 136.403 803.179 137.725C801.766 139.023 800.923 140.801 800.649 143.057ZM831.65 165V128.906H841.733V143.091H844.536L855.61 128.906H867.505L853.833 146.509L867.642 165H855.645L845.596 151.499H841.733V165H831.65ZM875.742 165.615C874.147 165.615 872.78 165.057 871.641 163.94C870.524 162.801 869.966 161.423 869.966 159.805C869.966 158.21 870.524 156.842 871.641 155.703C872.78 154.564 874.147 153.994 875.742 153.994C877.36 153.994 878.727 154.564 879.844 155.703C880.983 156.842 881.553 158.21 881.553 159.805C881.553 161.423 880.983 162.801 879.844 163.94C878.727 165.057 877.36 165.615 875.742 165.615ZM881.86 175.049C888.901 164.271 893.219 154.006 894.814 144.253C895.703 138.966 895.931 133.441 895.498 127.676C895.088 121.911 894.051 116.499 892.388 111.44H896.763C897.879 114.357 898.734 117.65 899.326 121.318C899.919 124.964 900.215 128.758 900.215 132.7C900.215 136.642 899.907 140.493 899.292 144.253C898.403 149.562 896.842 154.837 894.609 160.078C892.399 165.296 889.608 170.286 886.235 175.049H881.86Z" fill="#96A2B1"/>
<rect x="20" y="272" width="589" height="244" rx="56" fill="#F6F7F9"/>
<path d="M60.2461 480.328C58.8698 480.328 57.6621 480.009 56.623 479.371C55.584 478.733 54.7728 477.849 54.1895 476.719C53.6152 475.589 53.3281 474.285 53.3281 472.809C53.3281 471.314 53.6152 470.001 54.1895 468.871C54.7728 467.732 55.584 466.843 56.623 466.205C57.6621 465.558 58.8698 465.234 60.2461 465.234C61.6224 465.234 62.8255 465.558 63.8555 466.205C64.8945 466.843 65.7012 467.732 66.2754 468.871C66.8587 470.001 67.1504 471.314 67.1504 472.809C67.1504 474.285 66.8587 475.589 66.2754 476.719C65.7012 477.849 64.8945 478.733 63.8555 479.371C62.8255 480.009 61.6224 480.328 60.2461 480.328ZM60.2461 477.84C61.4857 477.84 62.4609 477.384 63.1719 476.473C63.8828 475.561 64.2383 474.34 64.2383 472.809C64.2383 471.259 63.8783 470.024 63.1582 469.104C62.4473 468.183 61.4766 467.723 60.2461 467.723C59.0156 467.723 58.0404 468.183 57.3203 469.104C56.6094 470.015 56.2539 471.25 56.2539 472.809C56.2539 474.349 56.6094 475.575 57.3203 476.486C58.0312 477.389 59.0065 477.84 60.2461 477.84ZM69.707 480V465.562H72.5918V477.416H79.3457V465.562H82.2305V480H69.707ZM81.2461 484.375V480H80.1797V477.348H84.1582L84.1035 484.375H81.2461ZM92.3887 480.328C90.9577 480.328 89.7272 480.005 88.6973 479.357C87.6764 478.71 86.888 477.822 86.332 476.691C85.7852 475.552 85.5117 474.258 85.5117 472.809C85.5117 471.341 85.7988 470.038 86.373 468.898C86.9473 467.759 87.7402 466.866 88.752 466.219C89.7637 465.562 90.9258 465.234 92.2383 465.234C93.6055 465.234 94.7904 465.553 95.793 466.191C96.8047 466.829 97.5885 467.718 98.1445 468.857C98.7005 469.988 98.9785 471.296 98.9785 472.781V473.561H88.3555C88.4102 474.864 88.7839 475.917 89.4766 476.719C90.1784 477.521 91.1628 477.922 92.4297 477.922C93.3776 477.922 94.1569 477.708 94.7676 477.279C95.3783 476.851 95.7839 476.295 95.9844 475.611H98.7598C98.5866 476.541 98.1992 477.361 97.5977 478.072C97.0052 478.783 96.2578 479.339 95.3555 479.74C94.4622 480.132 93.4733 480.328 92.3887 480.328ZM88.3828 471.373H96.1621C96.0436 470.225 95.638 469.318 94.9453 468.652C94.2526 467.978 93.3594 467.641 92.2656 467.641C91.1719 467.641 90.2786 467.978 89.5859 468.652C88.9023 469.318 88.5013 470.225 88.3828 471.373ZM104.365 465.562V471.482H111.27V465.562H114.154V480H111.27V474.066H104.365V480H101.48V465.562H104.365ZM117.422 480V465.562H120.307V471.605H121.729L126.896 465.562H130.451L124.531 472.562L130.533 480H126.965L122.262 474.189H120.307V480H117.422ZM136.48 480.232C135.04 480.232 133.846 479.868 132.898 479.139C131.951 478.4 131.477 477.311 131.477 475.871C131.477 474.777 131.745 473.939 132.283 473.355C132.83 472.763 133.536 472.339 134.402 472.084C135.277 471.829 136.202 471.642 137.178 471.523C138.08 471.414 138.796 471.323 139.324 471.25C139.853 471.177 140.227 471.068 140.445 470.922C140.673 470.776 140.787 470.525 140.787 470.17V470.047C140.787 469.345 140.532 468.771 140.021 468.324C139.511 467.868 138.796 467.641 137.875 467.641C136.954 467.641 136.202 467.864 135.619 468.311C135.036 468.748 134.717 469.299 134.662 469.965H131.832C131.896 468.589 132.475 467.463 133.568 466.588C134.662 465.713 136.111 465.275 137.916 465.275C139.693 465.275 141.092 465.713 142.113 466.588C143.134 467.463 143.645 468.634 143.645 470.102V480H140.801V477.949H140.746C140.445 478.533 139.967 479.061 139.311 479.535C138.663 480 137.72 480.232 136.48 480.232ZM137.068 477.908C138.344 477.908 139.283 477.58 139.885 476.924C140.495 476.258 140.801 475.484 140.801 474.6V472.904C140.609 473.059 140.176 473.201 139.502 473.328C138.827 473.447 138.107 473.561 137.342 473.67C136.549 473.788 135.852 474.012 135.25 474.34C134.648 474.668 134.348 475.197 134.348 475.926C134.348 476.546 134.589 477.033 135.072 477.389C135.564 477.735 136.23 477.908 137.068 477.908ZM160.092 485.209V480.328C158.679 480.31 157.426 479.982 156.332 479.344C155.247 478.697 154.395 477.812 153.775 476.691C153.165 475.561 152.859 474.262 152.859 472.795C152.859 471.327 153.165 470.029 153.775 468.898C154.395 467.768 155.247 466.88 156.332 466.232C157.426 465.585 158.679 465.253 160.092 465.234V459.629H162.99V465.234C164.403 465.253 165.652 465.585 166.736 466.232C167.83 466.88 168.682 467.768 169.293 468.898C169.913 470.029 170.223 471.327 170.223 472.795C170.223 474.262 169.913 475.561 169.293 476.691C168.682 477.812 167.83 478.697 166.736 479.344C165.652 479.982 164.403 480.31 162.99 480.328V485.209H160.092ZM162.99 477.812C164.303 477.812 165.351 477.361 166.135 476.459C166.919 475.548 167.311 474.331 167.311 472.809C167.311 471.277 166.919 470.051 166.135 469.131C165.351 468.21 164.303 467.75 162.99 467.75V477.812ZM160.092 477.812V467.75C158.779 467.75 157.736 468.21 156.961 469.131C156.186 470.051 155.799 471.277 155.799 472.809C155.799 474.331 156.186 475.548 156.961 476.459C157.736 477.361 158.779 477.812 160.092 477.812ZM172.41 485.715V483.281H173.969C174.424 483.281 174.794 483.149 175.076 482.885C175.368 482.63 175.623 482.206 175.842 481.613L176.498 479.904L170.92 465.562H174.01L176.895 473.479C177.086 474.016 177.273 474.559 177.455 475.105C177.637 475.643 177.815 476.181 177.988 476.719C178.161 476.181 178.339 475.643 178.521 475.105C178.713 474.559 178.904 474.016 179.096 473.479L181.939 465.562H184.988L178.426 482.529C177.615 484.653 176.22 485.715 174.242 485.715H172.41ZM189.842 465.562V471.482H196.746V465.562H199.631V480H196.746V474.066H189.842V480H186.957V465.562H189.842ZM202.898 480V465.562H205.783V471.605H207.205L212.373 465.562H215.928L210.008 472.562L216.01 480H212.441L207.738 474.189H205.783V480H202.898ZM217.555 480V465.562H220.439V477.416H227.193V465.562H230.078V480H217.555ZM229.094 484.375V480H228.027V477.348H232.006L231.951 484.375H229.094ZM246.744 480H243.873V469.924H243.846L236.777 480H234.07V465.562H236.941V475.639H236.969L244.023 465.562H246.744V480ZM262.686 480H259.814V469.924H259.787L252.719 480H250.012V465.562H252.883V475.639H252.91L259.965 465.562H262.686V480ZM285.148 465.562V480H282.264V468.146H275.51V480H272.625V465.562H285.148ZM294.609 480.328C293.233 480.328 292.025 480.009 290.986 479.371C289.947 478.733 289.136 477.849 288.553 476.719C287.979 475.589 287.691 474.285 287.691 472.809C287.691 471.314 287.979 470.001 288.553 468.871C289.136 467.732 289.947 466.843 290.986 466.205C292.025 465.558 293.233 465.234 294.609 465.234C295.986 465.234 297.189 465.558 298.219 466.205C299.258 466.843 300.064 467.732 300.639 468.871C301.222 470.001 301.514 471.314 301.514 472.809C301.514 474.285 301.222 475.589 300.639 476.719C300.064 477.849 299.258 478.733 298.219 479.371C297.189 480.009 295.986 480.328 294.609 480.328ZM294.609 477.84C295.849 477.84 296.824 477.384 297.535 476.473C298.246 475.561 298.602 474.34 298.602 472.809C298.602 471.259 298.242 470.024 297.521 469.104C296.811 468.183 295.84 467.723 294.609 467.723C293.379 467.723 292.404 468.183 291.684 469.104C290.973 470.015 290.617 471.25 290.617 472.809C290.617 474.349 290.973 475.575 291.684 476.486C292.395 477.389 293.37 477.84 294.609 477.84ZM302.662 480V477.457H303.236C303.811 477.457 304.262 477.325 304.59 477.061C304.918 476.796 305.16 476.277 305.314 475.502C305.469 474.718 305.579 473.547 305.643 471.988L305.916 465.562H316.648V480H313.764V468.092H308.678L308.445 472.809C308.318 475.324 307.912 477.152 307.229 478.291C306.545 479.43 305.378 480 303.729 480H302.662ZM322.787 470.389H326.574C328.242 470.389 329.587 470.826 330.607 471.701C331.628 472.576 332.139 473.725 332.139 475.146C332.139 476.596 331.628 477.767 330.607 478.66C329.587 479.553 328.242 480 326.574 480H319.902V465.562H322.787V470.389ZM322.787 472.904V477.471H326.465C327.34 477.471 328.028 477.261 328.529 476.842C329.04 476.423 329.295 475.857 329.295 475.146C329.295 474.454 329.04 473.907 328.529 473.506C328.028 473.105 327.34 472.904 326.465 472.904H322.787ZM339.754 480.219C338.569 480.219 337.544 480.018 336.678 479.617C335.821 479.207 335.156 478.66 334.682 477.977C334.217 477.284 333.98 476.505 333.971 475.639H336.814C336.833 476.331 337.106 476.878 337.635 477.279C338.173 477.671 338.865 477.867 339.713 477.867C340.579 477.867 341.281 477.676 341.818 477.293C342.365 476.901 342.639 476.395 342.639 475.775C342.639 475.137 342.356 474.618 341.791 474.217C341.226 473.807 340.451 473.602 339.467 473.602H338.346V471.564H339.467C340.296 471.564 340.966 471.378 341.477 471.004C341.996 470.63 342.256 470.138 342.256 469.527C342.256 468.926 342.023 468.443 341.559 468.078C341.103 467.714 340.497 467.531 339.74 467.531C338.975 467.531 338.332 467.718 337.812 468.092C337.302 468.456 337.042 468.962 337.033 469.609H334.285C334.294 468.762 334.536 468.01 335.01 467.354C335.484 466.697 336.126 466.182 336.938 465.809C337.758 465.435 338.697 465.248 339.754 465.248C340.793 465.248 341.704 465.43 342.488 465.795C343.281 466.15 343.896 466.633 344.334 467.244C344.781 467.846 345.004 468.525 345.004 469.281C345.004 470.092 344.744 470.785 344.225 471.359C343.714 471.924 343.021 472.294 342.146 472.467V472.494C343.222 472.631 344.056 473.018 344.648 473.656C345.241 474.294 345.537 475.06 345.537 475.953C345.537 476.773 345.286 477.507 344.785 478.154C344.293 478.792 343.609 479.298 342.734 479.672C341.868 480.036 340.875 480.219 339.754 480.219ZM354.219 480.328C352.842 480.328 351.635 480.009 350.596 479.371C349.557 478.733 348.745 477.849 348.162 476.719C347.588 475.589 347.301 474.285 347.301 472.809C347.301 471.314 347.588 470.001 348.162 468.871C348.745 467.732 349.557 466.843 350.596 466.205C351.635 465.558 352.842 465.234 354.219 465.234C355.595 465.234 356.798 465.558 357.828 466.205C358.867 466.843 359.674 467.732 360.248 468.871C360.831 470.001 361.123 471.314 361.123 472.809C361.123 474.285 360.831 475.589 360.248 476.719C359.674 477.849 358.867 478.733 357.828 479.371C356.798 480.009 355.595 480.328 354.219 480.328ZM354.219 477.84C355.458 477.84 356.434 477.384 357.145 476.473C357.855 475.561 358.211 474.34 358.211 472.809C358.211 471.259 357.851 470.024 357.131 469.104C356.42 468.183 355.449 467.723 354.219 467.723C352.988 467.723 352.013 468.183 351.293 469.104C350.582 470.015 350.227 471.25 350.227 472.809C350.227 474.349 350.582 475.575 351.293 476.486C352.004 477.389 352.979 477.84 354.219 477.84ZM363.68 480V465.562H369.805C371.527 465.562 372.89 465.886 373.893 466.533C374.895 467.18 375.396 468.133 375.396 469.391C375.396 470.238 375.155 470.917 374.672 471.428C374.198 471.929 373.533 472.257 372.676 472.412C373.615 472.531 374.394 472.882 375.014 473.465C375.643 474.039 375.957 474.855 375.957 475.912C375.957 477.152 375.51 478.145 374.617 478.893C373.724 479.631 372.448 480 370.789 480H363.68ZM366.414 477.539H370.721C371.477 477.539 372.061 477.38 372.471 477.061C372.881 476.742 373.086 476.286 373.086 475.693C373.086 475.037 372.881 474.531 372.471 474.176C372.061 473.82 371.477 473.643 370.721 473.643H366.414V477.539ZM366.414 471.551H369.928C370.766 471.551 371.413 471.391 371.869 471.072C372.325 470.744 372.553 470.284 372.553 469.691C372.553 469.145 372.311 468.725 371.828 468.434C371.354 468.133 370.68 467.982 369.805 467.982H366.414V471.551ZM382.902 480.232C381.462 480.232 380.268 479.868 379.32 479.139C378.372 478.4 377.898 477.311 377.898 475.871C377.898 474.777 378.167 473.939 378.705 473.355C379.252 472.763 379.958 472.339 380.824 472.084C381.699 471.829 382.624 471.642 383.6 471.523C384.502 471.414 385.217 471.323 385.746 471.25C386.275 471.177 386.648 471.068 386.867 470.922C387.095 470.776 387.209 470.525 387.209 470.17V470.047C387.209 469.345 386.954 468.771 386.443 468.324C385.933 467.868 385.217 467.641 384.297 467.641C383.376 467.641 382.624 467.864 382.041 468.311C381.458 468.748 381.139 469.299 381.084 469.965H378.254C378.318 468.589 378.896 467.463 379.99 466.588C381.084 465.713 382.533 465.275 384.338 465.275C386.115 465.275 387.514 465.713 388.535 466.588C389.556 467.463 390.066 468.634 390.066 470.102V480H387.223V477.949H387.168C386.867 478.533 386.389 479.061 385.732 479.535C385.085 480 384.142 480.232 382.902 480.232ZM383.49 477.908C384.766 477.908 385.705 477.58 386.307 476.924C386.917 476.258 387.223 475.484 387.223 474.6V472.904C387.031 473.059 386.598 473.201 385.924 473.328C385.249 473.447 384.529 473.561 383.764 473.67C382.971 473.788 382.273 474.012 381.672 474.34C381.07 474.668 380.77 475.197 380.77 475.926C380.77 476.546 381.011 477.033 381.494 477.389C381.986 477.735 382.652 477.908 383.49 477.908ZM396.889 480V468.078H391.912V465.562H404.736V468.078H399.773V480H396.889ZM412.529 480.328C411.098 480.328 409.868 480.005 408.838 479.357C407.817 478.71 407.029 477.822 406.473 476.691C405.926 475.552 405.652 474.258 405.652 472.809C405.652 471.341 405.939 470.038 406.514 468.898C407.088 467.759 407.881 466.866 408.893 466.219C409.904 465.562 411.066 465.234 412.379 465.234C413.746 465.234 414.931 465.553 415.934 466.191C416.945 466.829 417.729 467.718 418.285 468.857C418.841 469.988 419.119 471.296 419.119 472.781V473.561H408.496C408.551 474.864 408.924 475.917 409.617 476.719C410.319 477.521 411.303 477.922 412.57 477.922C413.518 477.922 414.298 477.708 414.908 477.279C415.519 476.851 415.924 476.295 416.125 475.611H418.9C418.727 476.541 418.34 477.361 417.738 478.072C417.146 478.783 416.398 479.339 415.496 479.74C414.603 480.132 413.614 480.328 412.529 480.328ZM408.523 471.373H416.303C416.184 470.225 415.779 469.318 415.086 468.652C414.393 467.978 413.5 467.641 412.406 467.641C411.312 467.641 410.419 467.978 409.727 468.652C409.043 469.318 408.642 470.225 408.523 471.373ZM420.213 480V477.457H420.787C421.361 477.457 421.812 477.325 422.141 477.061C422.469 476.796 422.71 476.277 422.865 475.502C423.02 474.718 423.13 473.547 423.193 471.988L423.467 465.562H434.199V480H431.314V468.092H426.229L425.996 472.809C425.868 475.324 425.463 477.152 424.779 478.291C424.096 479.43 422.929 480 421.279 480H420.213ZM449.143 480H446.312V474.805H442.717L439.354 480H436.1L439.805 474.408C438.829 474.08 438.077 473.565 437.549 472.863C437.029 472.161 436.77 471.291 436.77 470.252C436.77 468.757 437.266 467.604 438.26 466.793C439.262 465.973 440.671 465.562 442.484 465.562H449.143V480ZM446.312 472.535V467.982H442.799C441.696 467.982 440.889 468.165 440.379 468.529C439.868 468.894 439.613 469.473 439.613 470.266C439.613 471.068 439.878 471.646 440.406 472.002C440.935 472.357 441.76 472.535 442.881 472.535H446.312ZM452.41 480V465.562H456.744L460.012 473.342C460.249 473.943 460.463 474.531 460.654 475.105C460.846 475.671 461.037 476.217 461.229 476.746C461.411 476.217 461.598 475.671 461.789 475.105C461.98 474.531 462.195 473.943 462.432 473.342L465.672 465.562H470.006V480H467.148V473.342C467.148 472.33 467.153 471.451 467.162 470.703C467.171 469.947 467.18 469.199 467.189 468.461C466.898 469.227 466.602 470.006 466.301 470.799C466.009 471.583 465.681 472.426 465.316 473.328L462.445 480H459.971L457.086 473.328C456.721 472.453 456.389 471.633 456.088 470.867C455.796 470.092 455.509 469.336 455.227 468.598C455.236 469.309 455.245 470.033 455.254 470.771C455.263 471.501 455.268 472.357 455.268 473.342V480H452.41ZM485.947 480H483.076V469.924H483.049L475.98 480H473.273V465.562H476.145V475.639H476.172L483.227 465.562H485.947V480Z" fill="#43475A"/>
<path d="M56.8145 397.354V377.599L111.268 300.318H142.562V377.516H158.748V397.354H142.562V424H118.572V397.354H56.8145ZM118.572 377.516V324.723H118.406L81.4678 377.35V377.516H118.572ZM173.57 425.494C169.696 425.494 166.376 424.138 163.609 421.427C160.897 418.66 159.542 415.312 159.542 411.383C159.542 407.509 160.897 404.189 163.609 401.422C166.376 398.655 169.696 397.271 173.57 397.271C177.499 397.271 180.819 398.655 183.531 401.422C186.298 404.189 187.681 407.509 187.681 411.383C187.681 415.312 186.298 418.66 183.531 421.427C180.819 424.138 177.499 425.494 173.57 425.494ZM196.444 424L248.323 321.734V321.568H187.977V300.318H274.056V321.319L222.342 424H196.444Z" fill="#43475A"/>
<path d="M265.811 401.287C266.426 397.505 267.383 393.642 268.682 389.7C270.003 385.758 271.564 381.964 273.364 378.318C275.164 374.65 277.113 371.368 279.209 368.475H283.55C281.34 371.847 279.334 375.39 277.534 379.104C275.757 382.819 274.242 386.567 272.988 390.35C271.758 394.109 270.846 397.755 270.254 401.287C268.636 411.04 269.559 421.294 273.022 432.049H268.682C266.882 427.286 265.731 422.296 265.229 417.078C264.728 411.837 264.922 406.574 265.811 401.287ZM318.14 422H308.228V400.262H308.159L292.129 422H283.447V385.906H293.359V407.576H293.428L309.321 385.906H318.14V422ZM339.023 422.547C335.765 422.547 332.985 422 330.684 420.906C328.382 419.79 326.616 418.309 325.386 416.463C324.178 414.617 323.574 412.566 323.574 410.311H333.315C333.338 411.655 333.862 412.726 334.888 413.523C335.936 414.321 337.292 414.72 338.955 414.72C340.596 414.72 341.929 414.355 342.954 413.626C344.002 412.874 344.526 411.906 344.526 410.721C344.526 409.513 343.968 408.522 342.852 407.747C341.735 406.972 340.231 406.585 338.34 406.585H335.4V400.535H338.34C340.003 400.535 341.348 400.171 342.373 399.441C343.421 398.712 343.945 397.744 343.945 396.536C343.945 395.397 343.49 394.474 342.578 393.768C341.689 393.061 340.516 392.708 339.058 392.708C337.531 392.708 336.266 393.073 335.264 393.802C334.284 394.508 333.783 395.465 333.76 396.673H324.292C324.315 394.463 324.941 392.492 326.172 390.76C327.425 389.005 329.157 387.638 331.367 386.658C333.577 385.656 336.152 385.154 339.092 385.154C341.895 385.154 344.367 385.61 346.509 386.521C348.674 387.41 350.36 388.641 351.567 390.213C352.775 391.762 353.379 393.528 353.379 395.511C353.379 397.584 352.673 399.305 351.26 400.672C349.847 402.016 348.024 402.825 345.791 403.099V403.167C348.708 403.463 350.918 404.397 352.422 405.97C353.949 407.542 354.712 409.433 354.712 411.644C354.712 413.74 354.04 415.62 352.695 417.283C351.374 418.924 349.528 420.211 347.158 421.146C344.811 422.08 342.1 422.547 339.023 422.547ZM392.31 422.752C388.687 422.752 385.485 422.068 382.705 420.701C379.925 419.334 377.715 417.42 376.074 414.959C374.434 412.498 373.522 409.627 373.34 406.346H383.252C383.389 408.738 384.312 410.709 386.021 412.259C387.729 413.808 389.849 414.583 392.378 414.583C395.021 414.583 397.163 413.706 398.804 411.951C400.444 410.174 401.265 407.895 401.265 405.115C401.265 402.312 400.456 400.011 398.838 398.211C397.22 396.411 395.135 395.511 392.583 395.511C390.35 395.511 388.436 395.989 386.841 396.946C385.269 397.881 384.198 399.191 383.628 400.877H374.023L375.596 371.072H408.203V379.583H384.893L383.97 391.614H384.038C386.636 388.925 390.088 387.581 394.395 387.581C397.471 387.581 400.273 388.333 402.803 389.837C405.355 391.341 407.383 393.403 408.887 396.023C410.413 398.621 411.177 401.561 411.177 404.842C411.177 408.328 410.391 411.427 408.818 414.139C407.269 416.827 405.081 418.935 402.256 420.462C399.43 421.989 396.115 422.752 392.31 422.752ZM410.835 432.049C417.876 421.271 422.194 411.006 423.789 401.253C424.678 395.966 424.906 390.441 424.473 384.676C424.062 378.911 423.026 373.499 421.362 368.44H425.737C426.854 371.357 427.708 374.65 428.301 378.318C428.893 381.964 429.189 385.758 429.189 389.7C429.189 393.642 428.882 397.493 428.267 401.253C427.378 406.562 425.817 411.837 423.584 417.078C421.374 422.296 418.582 427.286 415.21 432.049H410.835Z" fill="#96A2B1"/>
<rect x="617" y="272" width="589" height="244" rx="56" fill="#F6F7F9"/>
<path d="M657.262 480.328C655.885 480.328 654.678 480.009 653.639 479.371C652.6 478.733 651.788 477.849 651.205 476.719C650.631 475.589 650.344 474.285 650.344 472.809C650.344 471.314 650.631 470.001 651.205 468.871C651.788 467.732 652.6 466.843 653.639 466.205C654.678 465.558 655.885 465.234 657.262 465.234C658.638 465.234 659.841 465.558 660.871 466.205C661.91 466.843 662.717 467.732 663.291 468.871C663.874 470.001 664.166 471.314 664.166 472.809C664.166 474.285 663.874 475.589 663.291 476.719C662.717 477.849 661.91 478.733 660.871 479.371C659.841 480.009 658.638 480.328 657.262 480.328ZM657.262 477.84C658.501 477.84 659.477 477.384 660.188 476.473C660.898 475.561 661.254 474.34 661.254 472.809C661.254 471.259 660.894 470.024 660.174 469.104C659.463 468.183 658.492 467.723 657.262 467.723C656.031 467.723 655.056 468.183 654.336 469.104C653.625 470.015 653.27 471.25 653.27 472.809C653.27 474.349 653.625 475.575 654.336 476.486C655.047 477.389 656.022 477.84 657.262 477.84ZM666.723 465.562H669.607V477.416H674.898V465.562H677.742V477.416H683.02V465.562H685.918V480H666.723V465.562ZM701.846 480H698.975V469.924H698.947L691.879 480H689.172V465.562H692.043V475.639H692.07L699.125 465.562H701.846V480ZM716.83 459.041L718.061 460.859C717.377 461.497 716.543 461.871 715.559 461.98C714.574 462.09 713.353 462.163 711.895 462.199C710.254 462.254 709.037 462.769 708.244 463.744C707.46 464.719 706.986 466.182 706.822 468.133H707.014C707.506 467.185 708.194 466.479 709.078 466.014C709.971 465.54 710.969 465.303 712.072 465.303C713.294 465.303 714.383 465.585 715.34 466.15C716.306 466.706 717.062 467.527 717.609 468.611C718.165 469.696 718.443 471.022 718.443 472.59C718.443 474.176 718.156 475.548 717.582 476.705C717.008 477.863 716.197 478.756 715.148 479.385C714.1 480.005 712.87 480.314 711.457 480.314C709.324 480.314 707.615 479.59 706.33 478.141C705.045 476.682 704.402 474.545 704.402 471.729V470.225C704.421 463.261 706.895 459.729 711.826 459.629C712.1 459.62 712.364 459.615 712.619 459.615C712.874 459.615 713.12 459.615 713.357 459.615C714.15 459.624 714.834 459.606 715.408 459.561C715.982 459.506 716.456 459.333 716.83 459.041ZM711.471 477.867C712.719 477.858 713.704 477.384 714.424 476.445C715.144 475.507 715.504 474.235 715.504 472.631C715.504 471.072 715.139 469.869 714.41 469.021C713.69 468.165 712.692 467.736 711.416 467.736C710.176 467.736 709.192 468.165 708.463 469.021C707.743 469.869 707.374 471.072 707.355 472.631C707.355 474.217 707.72 475.484 708.449 476.432C709.178 477.38 710.186 477.858 711.471 477.867ZM727.207 480.328C725.831 480.328 724.623 480.009 723.584 479.371C722.545 478.733 721.734 477.849 721.15 476.719C720.576 475.589 720.289 474.285 720.289 472.809C720.289 471.314 720.576 470.001 721.15 468.871C721.734 467.732 722.545 466.843 723.584 466.205C724.623 465.558 725.831 465.234 727.207 465.234C728.583 465.234 729.786 465.558 730.816 466.205C731.855 466.843 732.662 467.732 733.236 468.871C733.82 470.001 734.111 471.314 734.111 472.809C734.111 474.285 733.82 475.589 733.236 476.719C732.662 477.849 731.855 478.733 730.816 479.371C729.786 480.009 728.583 480.328 727.207 480.328ZM727.207 477.84C728.447 477.84 729.422 477.384 730.133 476.473C730.844 475.561 731.199 474.34 731.199 472.809C731.199 471.259 730.839 470.024 730.119 469.104C729.408 468.183 728.438 467.723 727.207 467.723C725.977 467.723 725.001 468.183 724.281 469.104C723.57 470.015 723.215 471.25 723.215 472.809C723.215 474.349 723.57 475.575 724.281 476.486C724.992 477.389 725.967 477.84 727.207 477.84ZM736.668 480V465.562H739.553V471.605H740.975L746.143 465.562H749.697L743.777 472.562L749.779 480H746.211L741.508 474.189H739.553V480H736.668ZM764.176 480.328C762.799 480.328 761.592 480.009 760.553 479.371C759.523 478.733 758.721 477.849 758.146 476.719C757.572 475.579 757.285 474.276 757.285 472.809C757.285 471.323 757.572 470.01 758.146 468.871C758.73 467.732 759.536 466.843 760.566 466.205C761.596 465.558 762.799 465.234 764.176 465.234C765.324 465.234 766.35 465.462 767.252 465.918C768.163 466.365 768.902 466.984 769.467 467.777C770.032 468.57 770.374 469.477 770.492 470.498H767.621C767.475 469.687 767.111 469.021 766.527 468.502C765.944 467.982 765.165 467.723 764.189 467.723C762.941 467.723 761.965 468.183 761.264 469.104C760.562 470.024 760.211 471.259 760.211 472.809C760.211 474.34 760.562 475.561 761.264 476.473C761.965 477.384 762.941 477.84 764.189 477.84C765.183 477.84 765.949 477.589 766.486 477.088C767.024 476.577 767.389 475.898 767.58 475.051H770.492C770.383 476.053 770.046 476.956 769.48 477.758C768.915 478.551 768.177 479.18 767.266 479.645C766.354 480.1 765.324 480.328 764.176 480.328ZM779.16 480.328C777.784 480.328 776.576 480.009 775.537 479.371C774.498 478.733 773.687 477.849 773.104 476.719C772.529 475.589 772.242 474.285 772.242 472.809C772.242 471.314 772.529 470.001 773.104 468.871C773.687 467.732 774.498 466.843 775.537 466.205C776.576 465.558 777.784 465.234 779.16 465.234C780.536 465.234 781.74 465.558 782.77 466.205C783.809 466.843 784.615 467.732 785.189 468.871C785.773 470.001 786.064 471.314 786.064 472.809C786.064 474.285 785.773 475.589 785.189 476.719C784.615 477.849 783.809 478.733 782.77 479.371C781.74 480.009 780.536 480.328 779.16 480.328ZM779.16 477.84C780.4 477.84 781.375 477.384 782.086 476.473C782.797 475.561 783.152 474.34 783.152 472.809C783.152 471.259 782.792 470.024 782.072 469.104C781.361 468.183 780.391 467.723 779.16 467.723C777.93 467.723 776.954 468.183 776.234 469.104C775.523 470.015 775.168 471.25 775.168 472.809C775.168 474.349 775.523 475.575 776.234 476.486C776.945 477.389 777.921 477.84 779.16 477.84ZM788.621 480V465.562H794.746C796.469 465.562 797.831 465.886 798.834 466.533C799.837 467.18 800.338 468.133 800.338 469.391C800.338 470.238 800.096 470.917 799.613 471.428C799.139 471.929 798.474 472.257 797.617 472.412C798.556 472.531 799.335 472.882 799.955 473.465C800.584 474.039 800.898 474.855 800.898 475.912C800.898 477.152 800.452 478.145 799.559 478.893C798.665 479.631 797.389 480 795.73 480H788.621ZM791.355 477.539H795.662C796.419 477.539 797.002 477.38 797.412 477.061C797.822 476.742 798.027 476.286 798.027 475.693C798.027 475.037 797.822 474.531 797.412 474.176C797.002 473.82 796.419 473.643 795.662 473.643H791.355V477.539ZM791.355 471.551H794.869C795.708 471.551 796.355 471.391 796.811 471.072C797.266 470.744 797.494 470.284 797.494 469.691C797.494 469.145 797.253 468.725 796.77 468.434C796.296 468.133 795.621 467.982 794.746 467.982H791.355V471.551ZM809.607 480.328C808.176 480.328 806.946 480.005 805.916 479.357C804.895 478.71 804.107 477.822 803.551 476.691C803.004 475.552 802.73 474.258 802.73 472.809C802.73 471.341 803.018 470.038 803.592 468.898C804.166 467.759 804.959 466.866 805.971 466.219C806.982 465.562 808.145 465.234 809.457 465.234C810.824 465.234 812.009 465.553 813.012 466.191C814.023 466.829 814.807 467.718 815.363 468.857C815.919 469.988 816.197 471.296 816.197 472.781V473.561H805.574C805.629 474.864 806.003 475.917 806.695 476.719C807.397 477.521 808.382 477.922 809.648 477.922C810.596 477.922 811.376 477.708 811.986 477.279C812.597 476.851 813.003 476.295 813.203 475.611H815.979C815.805 476.541 815.418 477.361 814.816 478.072C814.224 478.783 813.477 479.339 812.574 479.74C811.681 480.132 810.692 480.328 809.607 480.328ZM805.602 471.373H813.381C813.262 470.225 812.857 469.318 812.164 468.652C811.471 467.978 810.578 467.641 809.484 467.641C808.391 467.641 807.497 467.978 806.805 468.652C806.121 469.318 805.72 470.225 805.602 471.373ZM818.699 485.715V465.562H821.529V467.641H821.57C822.026 466.848 822.65 466.255 823.443 465.863C824.236 465.471 825.102 465.275 826.041 465.275C827.281 465.275 828.37 465.594 829.309 466.232C830.247 466.861 830.977 467.741 831.496 468.871C832.025 469.992 832.289 471.296 832.289 472.781C832.289 474.267 832.029 475.575 831.51 476.705C830.99 477.826 830.261 478.706 829.322 479.344C828.383 479.973 827.285 480.287 826.027 480.287C825.089 480.287 824.241 480.082 823.484 479.672C822.728 479.262 822.108 478.646 821.625 477.826H821.584V485.715H818.699ZM825.439 477.799C826.606 477.799 827.549 477.37 828.27 476.514C828.999 475.657 829.363 474.413 829.363 472.781C829.363 471.15 828.999 469.906 828.27 469.049C827.549 468.183 826.606 467.75 825.439 467.75C824.209 467.75 823.225 468.21 822.486 469.131C821.757 470.042 821.393 471.259 821.393 472.781C821.393 474.294 821.757 475.511 822.486 476.432C823.225 477.343 824.209 477.799 825.439 477.799ZM834.832 465.562H837.717V477.416H843.008V465.562H845.852V477.416H851.129V465.562H854.027V480H834.832V465.562ZM861.684 480.232C860.243 480.232 859.049 479.868 858.102 479.139C857.154 478.4 856.68 477.311 856.68 475.871C856.68 474.777 856.949 473.939 857.486 473.355C858.033 472.763 858.74 472.339 859.605 472.084C860.48 471.829 861.406 471.642 862.381 471.523C863.283 471.414 863.999 471.323 864.527 471.25C865.056 471.177 865.43 471.068 865.648 470.922C865.876 470.776 865.99 470.525 865.99 470.17V470.047C865.99 469.345 865.735 468.771 865.225 468.324C864.714 467.868 863.999 467.641 863.078 467.641C862.158 467.641 861.406 467.864 860.822 468.311C860.239 468.748 859.92 469.299 859.865 469.965H857.035C857.099 468.589 857.678 467.463 858.771 466.588C859.865 465.713 861.314 465.275 863.119 465.275C864.896 465.275 866.296 465.713 867.316 466.588C868.337 467.463 868.848 468.634 868.848 470.102V480H866.004V477.949H865.949C865.648 478.533 865.17 479.061 864.514 479.535C863.867 480 862.923 480.232 861.684 480.232ZM862.271 477.908C863.548 477.908 864.486 477.58 865.088 476.924C865.699 476.258 866.004 475.484 866.004 474.6V472.904C865.812 473.059 865.38 473.201 864.705 473.328C864.031 473.447 863.311 473.561 862.545 473.67C861.752 473.788 861.055 474.012 860.453 474.34C859.852 474.668 859.551 475.197 859.551 475.926C859.551 476.546 859.792 477.033 860.275 477.389C860.768 477.735 861.433 477.908 862.271 477.908ZM872.102 480V465.562H874.986V471.482H878.213C878.377 470.234 878.76 469.145 879.361 468.215C879.972 467.276 880.76 466.547 881.727 466.027C882.693 465.499 883.796 465.234 885.035 465.234C886.411 465.234 887.619 465.558 888.658 466.205C889.697 466.843 890.504 467.732 891.078 468.871C891.652 470.001 891.939 471.314 891.939 472.809C891.939 474.285 891.652 475.589 891.078 476.719C890.504 477.849 889.697 478.733 888.658 479.371C887.619 480.009 886.411 480.328 885.035 480.328C883.796 480.328 882.688 480.068 881.713 479.549C880.747 479.02 879.958 478.286 879.348 477.348C878.746 476.409 878.363 475.315 878.199 474.066H874.986V480H872.102ZM885.035 477.84C886.275 477.84 887.25 477.384 887.961 476.473C888.672 475.561 889.027 474.34 889.027 472.809C889.027 471.259 888.667 470.024 887.947 469.104C887.236 468.183 886.266 467.723 885.035 467.723C883.805 467.723 882.829 468.183 882.109 469.104C881.398 470.015 881.043 471.25 881.043 472.809C881.043 474.349 881.398 475.575 882.109 476.486C882.82 477.389 883.796 477.84 885.035 477.84ZM898.064 480V468.078H893.088V465.562H905.912V468.078H900.949V480H898.064ZM926.953 465.562V480H924.068V468.146H917.314V480H914.43V465.562H926.953ZM936.414 480.328C935.038 480.328 933.83 480.009 932.791 479.371C931.752 478.733 930.941 477.849 930.357 476.719C929.783 475.589 929.496 474.285 929.496 472.809C929.496 471.314 929.783 470.001 930.357 468.871C930.941 467.732 931.752 466.843 932.791 466.205C933.83 465.558 935.038 465.234 936.414 465.234C937.79 465.234 938.993 465.558 940.023 466.205C941.062 466.843 941.869 467.732 942.443 468.871C943.027 470.001 943.318 471.314 943.318 472.809C943.318 474.285 943.027 475.589 942.443 476.719C941.869 477.849 941.062 478.733 940.023 479.371C938.993 480.009 937.79 480.328 936.414 480.328ZM936.414 477.84C937.654 477.84 938.629 477.384 939.34 476.473C940.051 475.561 940.406 474.34 940.406 472.809C940.406 471.259 940.046 470.024 939.326 469.104C938.615 468.183 937.645 467.723 936.414 467.723C935.184 467.723 934.208 468.183 933.488 469.104C932.777 470.015 932.422 471.25 932.422 472.809C932.422 474.349 932.777 475.575 933.488 476.486C934.199 477.389 935.174 477.84 936.414 477.84ZM944.467 480V477.457H945.041C945.615 477.457 946.066 477.325 946.395 477.061C946.723 476.796 946.964 476.277 947.119 475.502C947.274 474.718 947.383 473.547 947.447 471.988L947.721 465.562H958.453V480H955.568V468.092H950.482L950.25 472.809C950.122 475.324 949.717 477.152 949.033 478.291C948.35 479.43 947.183 480 945.533 480H944.467ZM964.592 470.389H968.379C970.047 470.389 971.391 470.826 972.412 471.701C973.433 472.576 973.943 473.725 973.943 475.146C973.943 476.596 973.433 477.767 972.412 478.66C971.391 479.553 970.047 480 968.379 480H961.707V465.562H964.592V470.389ZM964.592 472.904V477.471H968.27C969.145 477.471 969.833 477.261 970.334 476.842C970.844 476.423 971.1 475.857 971.1 475.146C971.1 474.454 970.844 473.907 970.334 473.506C969.833 473.105 969.145 472.904 968.27 472.904H964.592ZM981.559 480.219C980.374 480.219 979.348 480.018 978.482 479.617C977.626 479.207 976.96 478.66 976.486 477.977C976.021 477.284 975.785 476.505 975.775 475.639H978.619C978.637 476.331 978.911 476.878 979.439 477.279C979.977 477.671 980.67 477.867 981.518 477.867C982.383 477.867 983.085 477.676 983.623 477.293C984.17 476.901 984.443 476.395 984.443 475.775C984.443 475.137 984.161 474.618 983.596 474.217C983.031 473.807 982.256 473.602 981.271 473.602H980.15V471.564H981.271C982.101 471.564 982.771 471.378 983.281 471.004C983.801 470.63 984.061 470.138 984.061 469.527C984.061 468.926 983.828 468.443 983.363 468.078C982.908 467.714 982.301 467.531 981.545 467.531C980.779 467.531 980.137 467.718 979.617 468.092C979.107 468.456 978.847 468.962 978.838 469.609H976.09C976.099 468.762 976.34 468.01 976.814 467.354C977.288 466.697 977.931 466.182 978.742 465.809C979.562 465.435 980.501 465.248 981.559 465.248C982.598 465.248 983.509 465.43 984.293 465.795C985.086 466.15 985.701 466.633 986.139 467.244C986.585 467.846 986.809 468.525 986.809 469.281C986.809 470.092 986.549 470.785 986.029 471.359C985.519 471.924 984.826 472.294 983.951 472.467V472.494C985.027 472.631 985.861 473.018 986.453 473.656C987.046 474.294 987.342 475.06 987.342 475.953C987.342 476.773 987.091 477.507 986.59 478.154C986.098 478.792 985.414 479.298 984.539 479.672C983.673 480.036 982.68 480.219 981.559 480.219ZM996.023 480.328C994.647 480.328 993.439 480.009 992.4 479.371C991.361 478.733 990.55 477.849 989.967 476.719C989.393 475.589 989.105 474.285 989.105 472.809C989.105 471.314 989.393 470.001 989.967 468.871C990.55 467.732 991.361 466.843 992.4 466.205C993.439 465.558 994.647 465.234 996.023 465.234C997.4 465.234 998.603 465.558 999.633 466.205C1000.67 466.843 1001.48 467.732 1002.05 468.871C1002.64 470.001 1002.93 471.314 1002.93 472.809C1002.93 474.285 1002.64 475.589 1002.05 476.719C1001.48 477.849 1000.67 478.733 999.633 479.371C998.603 480.009 997.4 480.328 996.023 480.328ZM996.023 477.84C997.263 477.84 998.238 477.384 998.949 476.473C999.66 475.561 1000.02 474.34 1000.02 472.809C1000.02 471.259 999.656 470.024 998.936 469.104C998.225 468.183 997.254 467.723 996.023 467.723C994.793 467.723 993.818 468.183 993.098 469.104C992.387 470.015 992.031 471.25 992.031 472.809C992.031 474.349 992.387 475.575 993.098 476.486C993.809 477.389 994.784 477.84 996.023 477.84ZM1005.48 480V465.562H1011.61C1013.33 465.562 1014.69 465.886 1015.7 466.533C1016.7 467.18 1017.2 468.133 1017.2 469.391C1017.2 470.238 1016.96 470.917 1016.48 471.428C1016 471.929 1015.34 472.257 1014.48 472.412C1015.42 472.531 1016.2 472.882 1016.82 473.465C1017.45 474.039 1017.76 474.855 1017.76 475.912C1017.76 477.152 1017.32 478.145 1016.42 478.893C1015.53 479.631 1014.25 480 1012.59 480H1005.48ZM1008.22 477.539H1012.53C1013.28 477.539 1013.87 477.38 1014.28 477.061C1014.69 476.742 1014.89 476.286 1014.89 475.693C1014.89 475.037 1014.69 474.531 1014.28 474.176C1013.87 473.82 1013.28 473.643 1012.53 473.643H1008.22V477.539ZM1008.22 471.551H1011.73C1012.57 471.551 1013.22 471.391 1013.67 471.072C1014.13 470.744 1014.36 470.284 1014.36 469.691C1014.36 469.145 1014.12 468.725 1013.63 468.434C1013.16 468.133 1012.48 467.982 1011.61 467.982H1008.22V471.551ZM1024.71 480.232C1023.27 480.232 1022.07 479.868 1021.12 479.139C1020.18 478.4 1019.7 477.311 1019.7 475.871C1019.7 474.777 1019.97 473.939 1020.51 473.355C1021.06 472.763 1021.76 472.339 1022.63 472.084C1023.5 471.829 1024.43 471.642 1025.4 471.523C1026.31 471.414 1027.02 471.323 1027.55 471.25C1028.08 471.177 1028.45 471.068 1028.67 470.922C1028.9 470.776 1029.01 470.525 1029.01 470.17V470.047C1029.01 469.345 1028.76 468.771 1028.25 468.324C1027.74 467.868 1027.02 467.641 1026.1 467.641C1025.18 467.641 1024.43 467.864 1023.85 468.311C1023.26 468.748 1022.94 469.299 1022.89 469.965H1020.06C1020.12 468.589 1020.7 467.463 1021.79 466.588C1022.89 465.713 1024.34 465.275 1026.14 465.275C1027.92 465.275 1029.32 465.713 1030.34 466.588C1031.36 467.463 1031.87 468.634 1031.87 470.102V480H1029.03V477.949H1028.97C1028.67 478.533 1028.19 479.061 1027.54 479.535C1026.89 480 1025.95 480.232 1024.71 480.232ZM1025.29 477.908C1026.57 477.908 1027.51 477.58 1028.11 476.924C1028.72 476.258 1029.03 475.484 1029.03 474.6V472.904C1028.84 473.059 1028.4 473.201 1027.73 473.328C1027.05 473.447 1026.33 473.561 1025.57 473.67C1024.78 473.788 1024.08 474.012 1023.48 474.34C1022.88 474.668 1022.57 475.197 1022.57 475.926C1022.57 476.546 1022.82 477.033 1023.3 477.389C1023.79 477.735 1024.46 477.908 1025.29 477.908ZM1038.69 480V468.078H1033.72V465.562H1046.54V468.078H1041.58V480H1038.69ZM1054.33 480.328C1052.9 480.328 1051.67 480.005 1050.64 479.357C1049.62 478.71 1048.83 477.822 1048.28 476.691C1047.73 475.552 1047.46 474.258 1047.46 472.809C1047.46 471.341 1047.74 470.038 1048.32 468.898C1048.89 467.759 1049.69 466.866 1050.7 466.219C1051.71 465.562 1052.87 465.234 1054.18 465.234C1055.55 465.234 1056.74 465.553 1057.74 466.191C1058.75 466.829 1059.53 467.718 1060.09 468.857C1060.65 469.988 1060.92 471.296 1060.92 472.781V473.561H1050.3C1050.36 474.864 1050.73 475.917 1051.42 476.719C1052.12 477.521 1053.11 477.922 1054.38 477.922C1055.32 477.922 1056.1 477.708 1056.71 477.279C1057.32 476.851 1057.73 476.295 1057.93 475.611H1060.71C1060.53 476.541 1060.14 477.361 1059.54 478.072C1058.95 478.783 1058.2 479.339 1057.3 479.74C1056.41 480.132 1055.42 480.328 1054.33 480.328ZM1050.33 471.373H1058.11C1057.99 470.225 1057.58 469.318 1056.89 468.652C1056.2 467.978 1055.3 467.641 1054.21 467.641C1053.12 467.641 1052.22 467.978 1051.53 468.652C1050.85 469.318 1050.45 470.225 1050.33 471.373ZM1062.02 480V477.457H1062.59C1063.17 477.457 1063.62 477.325 1063.95 477.061C1064.27 476.796 1064.51 476.277 1064.67 475.502C1064.82 474.718 1064.93 473.547 1065 471.988L1065.27 465.562H1076V480H1073.12V468.092H1068.03L1067.8 472.809C1067.67 475.324 1067.27 477.152 1066.58 478.291C1065.9 479.43 1064.73 480 1063.08 480H1062.02ZM1091.93 480H1089.06V469.924H1089.03L1081.96 480H1079.26V465.562H1082.13V475.639H1082.16L1089.21 465.562H1091.93V480Z" fill="#43475A"/>
<path d="M704.283 425.992C693.88 425.992 684.942 423.419 677.472 418.272C670.001 413.071 664.246 405.711 660.206 396.192C656.222 386.619 654.229 375.302 654.229 362.242C654.229 349.127 656.222 337.783 660.206 328.209C664.246 318.635 670.001 311.275 677.472 306.129C684.942 300.927 693.88 298.326 704.283 298.326C714.632 298.326 723.541 300.927 731.012 306.129C738.482 311.275 744.238 318.635 748.277 328.209C752.317 337.783 754.337 349.127 754.337 362.242C754.337 375.357 752.317 386.674 748.277 396.192C744.238 405.711 738.482 413.071 731.012 418.272C723.541 423.419 714.632 425.992 704.283 425.992ZM704.283 405.572C712.307 405.572 718.644 401.726 723.292 394.034C727.94 386.287 730.265 375.689 730.265 362.242C730.265 348.74 727.94 338.115 723.292 330.367C718.644 322.62 712.307 318.746 704.283 318.746C696.204 318.746 689.84 322.62 685.191 330.367C680.598 338.115 678.302 348.74 678.302 362.242C678.302 375.689 680.598 386.287 685.191 394.034C689.84 401.726 696.204 405.572 704.283 405.572ZM874.579 425.992C868.934 425.992 863.954 424.719 859.637 422.174C855.321 419.628 851.945 416.059 849.51 411.466C847.075 406.873 845.858 401.56 845.858 395.528V393.038C845.858 386.951 847.075 381.638 849.51 377.101C851.945 372.507 855.321 368.938 859.637 366.393C863.954 363.792 868.934 362.491 874.579 362.491C880.168 362.491 885.121 363.792 889.437 366.393C893.754 368.938 897.129 372.507 899.564 377.101C902.054 381.638 903.299 386.951 903.299 393.038V395.528C903.299 401.56 902.054 406.873 899.564 411.466C897.129 416.059 893.754 419.628 889.437 422.174C885.121 424.719 880.168 425.992 874.579 425.992ZM793.729 361.827C788.14 361.827 783.187 360.554 778.871 358.009C774.554 355.463 771.179 351.894 768.744 347.301C766.309 342.708 765.091 337.395 765.091 331.363V328.873C765.091 322.786 766.309 317.473 768.744 312.936C771.179 308.342 774.554 304.773 778.871 302.228C783.187 299.627 788.14 298.326 793.729 298.326C799.374 298.326 804.354 299.627 808.67 302.228C812.987 304.773 816.363 308.342 818.797 312.936C821.232 317.473 822.45 322.786 822.45 328.873V331.363C822.45 337.395 821.232 342.708 818.797 347.301C816.363 351.894 812.987 355.463 808.67 358.009C804.354 360.554 799.374 361.827 793.729 361.827ZM782.523 424L867.523 300.318H885.619L800.619 424H782.523ZM793.729 346.637C797.105 346.637 799.789 345.364 801.781 342.818C803.828 340.217 804.852 336.399 804.852 331.363V328.873C804.852 323.782 803.828 319.936 801.781 317.335C799.789 314.734 797.105 313.434 793.729 313.434C790.409 313.434 787.725 314.734 785.677 317.335C783.685 319.936 782.689 323.782 782.689 328.873V331.363C782.689 336.399 783.685 340.217 785.677 342.818C787.725 345.364 790.409 346.637 793.729 346.637ZM874.579 410.802C877.899 410.802 880.555 409.529 882.547 406.983C884.595 404.382 885.619 400.564 885.619 395.528V393.038C885.619 387.947 884.595 384.101 882.547 381.5C880.555 378.899 877.899 377.599 874.579 377.599C871.203 377.599 868.519 378.899 866.527 381.5C864.535 384.101 863.539 387.947 863.539 393.038V395.528C863.539 400.564 864.535 404.382 866.527 406.983C868.519 409.529 871.203 410.802 874.579 410.802Z" fill="#43475A"/>
</svg>
