<svg width="300" height="300" viewBox="0 0 300 300" fill="none" xmlns="http://www.w3.org/2000/svg">
<rect width="300" height="300" fill="white"/>
<path d="M21.1797 42V15.8086H31.1816C33.1035 15.8086 34.7617 16.1484 36.1562 16.8281C37.5625 17.5078 38.6406 18.4746 39.3906 19.7285C40.1523 20.9824 40.5332 22.4648 40.5332 24.1758C40.5332 25.8984 40.1465 27.3867 39.373 28.6406C38.5996 29.8945 37.5039 30.8672 36.0859 31.5586C34.6797 32.2383 33.0156 32.5781 31.0938 32.5781H25.8203V42H21.1797ZM25.8203 28.6055H30.918C32.4766 28.6055 33.707 28.2129 34.6094 27.4277C35.5117 26.6309 35.9629 25.5469 35.9629 24.1758C35.9629 22.8164 35.5117 21.7441 34.6094 20.959C33.707 20.1738 32.4766 19.7812 30.918 19.7812H25.8203V28.6055ZM50.7812 42.4219C48.9531 42.4219 47.3535 42.0176 45.9824 41.209C44.6113 40.3887 43.5391 39.252 42.7656 37.7988C42.0039 36.3457 41.623 34.6582 41.623 32.7363C41.623 30.8145 42.0039 29.127 42.7656 27.6738C43.5391 26.209 44.6113 25.0664 45.9824 24.2461C47.3535 23.4258 48.9531 23.0156 50.7812 23.0156C52.5977 23.0156 54.1914 23.4258 55.5625 24.2461C56.9453 25.0664 58.0176 26.209 58.7793 27.6738C59.5527 29.127 59.9395 30.8145 59.9395 32.7363C59.9395 34.6582 59.5527 36.3457 58.7793 37.7988C58.0176 39.252 56.9453 40.3887 55.5625 41.209C54.1914 42.0176 52.5977 42.4219 50.7812 42.4219ZM50.7812 38.7129C52.1992 38.7129 53.3301 38.1797 54.1738 37.1133C55.0176 36.0469 55.4395 34.5879 55.4395 32.7363C55.4395 30.8848 55.0176 29.4199 54.1738 28.3418C53.3301 27.2637 52.1992 26.7246 50.7812 26.7246C49.3516 26.7246 48.2148 27.2637 47.3711 28.3418C46.5273 29.4082 46.1055 30.873 46.1055 32.7363C46.1055 34.5879 46.5273 36.0469 47.3711 37.1133C48.2148 38.1797 49.3516 38.7129 50.7812 38.7129ZM71.2246 42.4219C69.4199 42.4219 67.832 42.0117 66.4609 41.1914C65.1016 40.3711 64.041 39.2344 63.2793 37.7812C62.5293 36.3281 62.1543 34.6465 62.1543 32.7363C62.1543 30.8262 62.5293 29.1445 63.2793 27.6914C64.041 26.2266 65.1016 25.084 66.4609 24.2637C67.832 23.4316 69.4199 23.0156 71.2246 23.0156C72.7832 23.0156 74.1719 23.3203 75.3906 23.9297C76.6094 24.5273 77.5879 25.3594 78.3262 26.4258C79.0762 27.4805 79.5156 28.6992 79.6445 30.082H75.3027C75.1387 29.0859 74.7109 28.2773 74.0195 27.6562C73.3398 27.0234 72.4258 26.707 71.2773 26.707C69.8242 26.707 68.6875 27.252 67.8672 28.3418C67.0469 29.4316 66.6367 30.8965 66.6367 32.7363C66.6367 34.5645 67.0469 36.0234 67.8672 37.1133C68.6875 38.1914 69.8242 38.7305 71.2773 38.7305C72.4375 38.7305 73.3398 38.4258 73.9844 37.8164C74.6289 37.1953 75.0566 36.3691 75.2676 35.3379H79.6445C79.5391 36.6973 79.1113 37.9102 78.3613 38.9766C77.623 40.043 76.6387 40.8867 75.4082 41.5078C74.1895 42.1172 72.7949 42.4219 71.2246 42.4219ZM87.2734 42V27.1992H80.9629V23.4375H97.9961V27.1992H91.7207V42H87.2734ZM106.838 47.6953V38.168H108.402C109.211 37.5117 109.791 36.5566 110.143 35.3027C110.494 34.0488 110.764 32.3555 110.951 30.2227L111.531 23.4375H125.541V38.168H128.564V47.6953H124.258V42H111.215V47.6953H106.838ZM113.025 38.168H121.287V27.1992H115.363L115.082 30.2227C114.941 32.0508 114.719 33.627 114.414 34.9512C114.121 36.2637 113.658 37.3359 113.025 38.168ZM139.305 42.4219C137.477 42.4219 135.877 42.0176 134.506 41.209C133.135 40.3887 132.062 39.252 131.289 37.7988C130.527 36.3457 130.146 34.6582 130.146 32.7363C130.146 30.8145 130.527 29.127 131.289 27.6738C132.062 26.209 133.135 25.0664 134.506 24.2461C135.877 23.4258 137.477 23.0156 139.305 23.0156C141.121 23.0156 142.715 23.4258 144.086 24.2461C145.469 25.0664 146.541 26.209 147.303 27.6738C148.076 29.127 148.463 30.8145 148.463 32.7363C148.463 34.6582 148.076 36.3457 147.303 37.7988C146.541 39.252 145.469 40.3887 144.086 41.209C142.715 42.0176 141.121 42.4219 139.305 42.4219ZM139.305 38.7129C140.723 38.7129 141.854 38.1797 142.697 37.1133C143.541 36.0469 143.963 34.5879 143.963 32.7363C143.963 30.8848 143.541 29.4199 142.697 28.3418C141.854 27.2637 140.723 26.7246 139.305 26.7246C137.875 26.7246 136.738 27.2637 135.895 28.3418C135.051 29.4082 134.629 30.873 134.629 32.7363C134.629 34.5879 135.051 36.0469 135.895 37.1133C136.738 38.1797 137.875 38.7129 139.305 38.7129ZM151.539 42V23.4375H159.572C161.869 23.4375 163.686 23.8418 165.021 24.6504C166.369 25.459 167.043 26.6895 167.043 28.3418C167.043 30.5684 165.818 31.8691 163.369 32.2441C164.752 32.3848 165.824 32.8477 166.586 33.6328C167.359 34.4062 167.746 35.4434 167.746 36.7441C167.746 38.3613 167.16 39.6445 165.988 40.5938C164.828 41.5312 163.111 42 160.838 42H151.539ZM155.705 38.4316H160.68C162.531 38.4316 163.457 37.7109 163.457 36.2695C163.457 34.6992 162.531 33.9141 160.68 33.9141H155.705V38.4316ZM155.705 31.084H159.73C160.691 31.084 161.436 30.8965 161.963 30.5215C162.49 30.1348 162.754 29.5957 162.754 28.9043C162.754 28.2598 162.473 27.7617 161.91 27.4102C161.359 27.0469 160.58 26.8652 159.572 26.8652H155.705V31.084ZM178.961 42.4219C177.109 42.4219 175.504 42.0059 174.145 41.1738C172.785 40.3418 171.736 39.1992 170.998 37.7461C170.271 36.2812 169.908 34.6113 169.908 32.7363C169.908 30.8496 170.283 29.1797 171.033 27.7266C171.795 26.2617 172.844 25.1133 174.18 24.2812C175.516 23.4375 177.051 23.0156 178.785 23.0156C180.566 23.0156 182.125 23.4258 183.461 24.2461C184.797 25.0664 185.834 26.2031 186.572 27.6562C187.311 29.0977 187.68 30.7676 187.68 32.666V33.8789H174.25C174.309 35.3906 174.754 36.6094 175.586 37.5352C176.418 38.4609 177.578 38.9238 179.066 38.9238C180.18 38.9238 181.1 38.6836 181.826 38.2031C182.553 37.7109 183.045 37.0664 183.303 36.2695H187.451C187.217 37.4766 186.701 38.543 185.904 39.4688C185.119 40.3945 184.129 41.1211 182.934 41.6484C181.738 42.1641 180.414 42.4219 178.961 42.4219ZM174.285 30.8203H183.426C183.285 29.4961 182.805 28.4531 181.984 27.6914C181.176 26.918 180.133 26.5312 178.855 26.5312C177.566 26.5312 176.518 26.918 175.709 27.6914C174.912 28.4531 174.438 29.4961 174.285 30.8203ZM190.703 49.3477V23.4375H195.062V26.0215H195.115C195.701 25.0371 196.486 24.2988 197.471 23.8066C198.455 23.3145 199.545 23.0684 200.74 23.0684C202.334 23.0684 203.729 23.4785 204.924 24.2988C206.131 25.1074 207.068 26.2383 207.736 27.6914C208.416 29.1328 208.756 30.8027 208.756 32.7012C208.756 34.6348 208.422 36.3281 207.754 37.7812C207.098 39.2227 206.166 40.3477 204.959 41.1562C203.752 41.9648 202.34 42.3691 200.723 42.3691C199.504 42.3691 198.42 42.1055 197.471 41.5781C196.533 41.0508 195.771 40.2598 195.186 39.2051H195.133V49.3477H190.703ZM199.686 38.6602C201.057 38.6602 202.164 38.1504 203.008 37.1309C203.852 36.0996 204.273 34.623 204.273 32.7012C204.273 30.791 203.852 29.3203 203.008 28.2891C202.164 27.2578 201.057 26.7422 199.686 26.7422C198.232 26.7422 197.066 27.2871 196.188 28.377C195.32 29.4551 194.887 30.8965 194.887 32.7012C194.887 34.5059 195.32 35.9531 196.188 37.043C197.066 38.1211 198.232 38.6602 199.686 38.6602ZM228.9 42H224.506V29.9238H224.471L215.787 42H211.832V23.4375H216.227V35.4785H216.262L224.875 23.4375H228.9V42ZM248.5 42H244.211V35.6367H240.238L236.072 42H231.168L235.844 35.0215C234.613 34.5762 233.664 33.9023 232.996 33C232.328 32.0859 231.994 30.9727 231.994 29.6602C231.994 27.6797 232.662 26.1504 233.998 25.0723C235.334 23.9824 237.203 23.4375 239.605 23.4375H248.5V42ZM244.211 32.332V27.0234H240.133C238.844 27.0234 237.895 27.2344 237.285 27.6562C236.688 28.0781 236.389 28.7578 236.389 29.6953C236.389 30.6211 236.699 31.2949 237.32 31.7168C237.941 32.127 238.92 32.332 240.256 32.332H244.211ZM20.9688 78V59.4375H25.3984V66.9785H27.0508L33.2031 59.4375H38.5645L31.2344 68.4727L38.6348 78H33.2559L27.666 70.793H25.3984V78H20.9688ZM57.4082 84.6973V78.4219C55.5098 78.3984 53.834 77.9766 52.3809 77.1562C50.9277 76.3242 49.791 75.1816 48.9707 73.7285C48.1504 72.2754 47.7402 70.6113 47.7402 68.7363C47.7402 66.8496 48.1504 65.1797 48.9707 63.7266C49.791 62.2734 50.9277 61.1309 52.3809 60.2988C53.834 59.4668 55.5098 59.0391 57.4082 59.0156V51.8086H61.8555V59.0156C63.7539 59.0391 65.4297 59.4668 66.8828 60.2988C68.3477 61.1309 69.4902 62.2734 70.3105 63.7266C71.1309 65.1797 71.541 66.8496 71.541 68.7363C71.541 70.6113 71.1309 72.2754 70.3105 73.7285C69.4902 75.1816 68.3477 76.3242 66.8828 77.1562C65.4297 77.9766 63.7539 78.3984 61.8555 78.4219V84.6973H57.4082ZM61.8555 74.6602C63.4258 74.6602 64.6797 74.127 65.6172 73.0605C66.5547 71.9824 67.0234 70.541 67.0234 68.7363C67.0234 66.9316 66.5547 65.4902 65.6172 64.4121C64.6797 63.3223 63.4258 62.7773 61.8555 62.7773V74.6602ZM57.4082 74.6602V62.7773C55.8496 62.7773 54.6016 63.3223 53.6641 64.4121C52.7383 65.4902 52.2754 66.9316 52.2754 68.7363C52.2754 70.541 52.7383 71.9824 53.6641 73.0605C54.6016 74.127 55.8496 74.6602 57.4082 74.6602ZM91.6855 78H87.291V65.9238H87.2559L78.5723 78H74.6172V59.4375H79.0117V71.4785H79.0469L87.6602 59.4375H91.6855V78ZM103.99 72.6562C101.318 72.6562 99.25 72.0527 97.7852 70.8457C96.332 69.6387 95.6055 67.8164 95.6055 65.3789V59.4375H100.035V65.2383C100.035 66.5156 100.381 67.4355 101.072 67.998C101.764 68.5488 102.736 68.8242 103.99 68.8242C104.611 68.8242 105.215 68.7891 105.801 68.7188C106.387 68.6367 106.973 68.5254 107.559 68.3848V59.4375H111.988V78H107.559V72.2344C106.996 72.3633 106.41 72.4688 105.801 72.5508C105.203 72.6211 104.6 72.6562 103.99 72.6562ZM124.117 78.4219C122.266 78.4219 120.66 78.0059 119.301 77.1738C117.941 76.3418 116.893 75.1992 116.154 73.7461C115.428 72.2812 115.064 70.6113 115.064 68.7363C115.064 66.8496 115.439 65.1797 116.189 63.7266C116.951 62.2617 118 61.1133 119.336 60.2812C120.672 59.4375 122.207 59.0156 123.941 59.0156C125.723 59.0156 127.281 59.4258 128.617 60.2461C129.953 61.0664 130.99 62.2031 131.729 63.6562C132.467 65.0977 132.836 66.7676 132.836 68.666V69.8789H119.406C119.465 71.3906 119.91 72.6094 120.742 73.5352C121.574 74.4609 122.734 74.9238 124.223 74.9238C125.336 74.9238 126.256 74.6836 126.982 74.2031C127.709 73.7109 128.201 73.0664 128.459 72.2695H132.607C132.373 73.4766 131.857 74.543 131.061 75.4688C130.275 76.3945 129.285 77.1211 128.09 77.6484C126.895 78.1641 125.57 78.4219 124.117 78.4219ZM119.441 66.8203H128.582C128.441 65.4961 127.961 64.4531 127.141 63.6914C126.332 62.918 125.289 62.5312 124.012 62.5312C122.723 62.5312 121.674 62.918 120.865 63.6914C120.068 64.4531 119.594 65.4961 119.441 66.8203Z" fill="#2A2A2E"/>
<path d="M21.3418 103.908V102.814H29.2031V103.908H25.8945V113H24.6641V103.908H21.3418ZM29.1074 113V105.781H30.2148V106.916H30.2422C30.3743 106.542 30.584 106.242 30.8711 106.014C31.1582 105.786 31.5273 105.672 31.9785 105.672C32.0833 105.672 32.179 105.676 32.2656 105.686C32.3568 105.695 32.4251 105.704 32.4707 105.713V106.875C32.4251 106.861 32.3363 106.845 32.2041 106.827C32.0765 106.804 31.9284 106.793 31.7598 106.793C31.3587 106.793 31.0101 106.934 30.7139 107.217C30.4176 107.499 30.2695 107.946 30.2695 108.557V113H29.1074ZM36.2715 113.137C35.7884 113.137 35.3441 113.032 34.9385 112.822C34.5374 112.608 34.2161 112.289 33.9746 111.865C33.7376 111.437 33.6191 110.904 33.6191 110.266V105.781H34.7812V110.184C34.7812 110.808 34.9316 111.28 35.2324 111.599C35.5332 111.913 35.9525 112.07 36.4902 112.07C37.0189 112.07 37.4678 111.909 37.8369 111.585C38.2061 111.261 38.3906 110.735 38.3906 110.006V105.781H39.5527V113H38.418V111.94C38.1673 112.351 37.8597 112.654 37.4951 112.85C37.1351 113.041 36.7272 113.137 36.2715 113.137ZM43.791 113.164C43.276 113.164 42.8089 113.08 42.3896 112.911C41.9704 112.743 41.6309 112.487 41.3711 112.146C41.1113 111.799 40.9655 111.364 40.9336 110.84H42.082C42.1641 111.724 42.7246 112.166 43.7637 112.166C44.265 112.166 44.6592 112.061 44.9463 111.852C45.238 111.642 45.3838 111.378 45.3838 111.059C45.3838 110.785 45.2835 110.566 45.083 110.402C44.8825 110.238 44.6204 110.12 44.2969 110.047L43.1348 109.773C41.7767 109.454 41.0977 108.771 41.0977 107.723C41.0977 107.312 41.207 106.95 41.4258 106.636C41.6491 106.317 41.9567 106.068 42.3486 105.891C42.7451 105.708 43.2008 105.617 43.7158 105.617C44.2171 105.617 44.666 105.713 45.0625 105.904C45.4635 106.091 45.7803 106.358 46.0127 106.704C46.2497 107.05 46.375 107.463 46.3887 107.941H45.2539C45.2493 107.559 45.1081 107.242 44.8301 106.991C44.5521 106.741 44.1807 106.615 43.7158 106.615C43.2738 106.615 42.9206 106.722 42.6562 106.937C42.3919 107.151 42.2598 107.413 42.2598 107.723C42.2598 107.996 42.36 108.217 42.5605 108.386C42.7611 108.55 43.0345 108.673 43.3809 108.755L44.543 109.028C45.2357 109.192 45.7438 109.438 46.0674 109.767C46.391 110.09 46.5527 110.512 46.5527 111.031C46.5527 111.478 46.432 111.861 46.1904 112.18C45.9489 112.499 45.6185 112.743 45.1992 112.911C44.7845 113.08 44.3151 113.164 43.791 113.164ZM51.208 105.781V106.779H49.7451V111.25C49.7451 111.528 49.8021 111.724 49.916 111.838C50.0345 111.947 50.2419 112.002 50.5381 112.002H51.208V113H50.4287C49.1982 113 48.583 112.458 48.583 111.373V106.779H47.2979V105.781H48.583V103.812H49.7451V105.781H51.208ZM59.4316 113.164C58.6478 113.164 57.9688 113.025 57.3945 112.747C56.8203 112.465 56.376 112.066 56.0615 111.551C55.7471 111.036 55.5898 110.425 55.5898 109.719H56.8477C56.8477 110.448 57.0732 111.018 57.5244 111.428C57.9801 111.838 58.6159 112.043 59.4316 112.043C60.1745 112.043 60.7692 111.881 61.2158 111.558C61.667 111.234 61.8926 110.799 61.8926 110.252C61.8926 109.828 61.7399 109.484 61.4346 109.22C61.1292 108.955 60.6097 108.732 59.876 108.55L58.7344 108.27C57.6953 108.014 56.9456 107.673 56.4854 107.244C56.0251 106.816 55.7949 106.255 55.7949 105.562C55.7949 104.975 55.9385 104.464 56.2256 104.031C56.5173 103.594 56.9274 103.254 57.4561 103.013C57.9847 102.771 58.6022 102.65 59.3086 102.65C60.3704 102.65 61.2158 102.935 61.8447 103.505C62.4782 104.07 62.8086 104.842 62.8359 105.822H61.6191C61.5827 105.184 61.3548 104.685 60.9355 104.325C60.5163 103.961 59.9603 103.778 59.2676 103.778C58.6068 103.778 58.0645 103.94 57.6406 104.264C57.2214 104.583 57.0117 104.995 57.0117 105.501C57.0117 105.897 57.1667 106.221 57.4766 106.472C57.791 106.718 58.3174 106.934 59.0557 107.121L60.2109 107.408C61.2044 107.654 61.9382 108.003 62.4121 108.454C62.8861 108.905 63.123 109.486 63.123 110.197C63.123 110.785 62.9681 111.302 62.6582 111.749C62.3529 112.196 61.9222 112.544 61.3662 112.795C60.8148 113.041 60.1699 113.164 59.4316 113.164ZM67.498 113.164C66.8327 113.164 66.2471 113.005 65.7412 112.686C65.2399 112.362 64.848 111.918 64.5654 111.353C64.2874 110.787 64.1484 110.138 64.1484 109.404C64.1484 108.666 64.2874 108.012 64.5654 107.442C64.848 106.873 65.2399 106.426 65.7412 106.103C66.2471 105.779 66.8327 105.617 67.498 105.617C68.0449 105.617 68.5348 105.727 68.9678 105.945C69.4007 106.16 69.7539 106.456 70.0273 106.834C70.3053 107.212 70.4762 107.645 70.54 108.133H69.3643C69.2777 107.709 69.0771 107.36 68.7627 107.087C68.4528 106.809 68.0312 106.67 67.498 106.67C66.819 106.67 66.2858 106.918 65.8984 107.415C65.5156 107.912 65.3242 108.575 65.3242 109.404C65.3242 110.225 65.5156 110.881 65.8984 111.373C66.2812 111.865 66.8145 112.111 67.498 112.111C68.0404 112.111 68.4551 111.979 68.7422 111.715C69.0293 111.446 69.2298 111.09 69.3438 110.648H70.54C70.4762 111.122 70.3053 111.551 70.0273 111.934C69.7539 112.312 69.3984 112.613 68.9609 112.836C68.528 113.055 68.0404 113.164 67.498 113.164ZM74.8262 113.164C74.1608 113.164 73.5752 113.005 73.0693 112.686C72.568 112.362 72.1761 111.918 71.8936 111.353C71.6156 110.787 71.4766 110.138 71.4766 109.404C71.4766 108.666 71.6156 108.012 71.8936 107.442C72.1761 106.873 72.568 106.426 73.0693 106.103C73.5752 105.779 74.1608 105.617 74.8262 105.617C75.4961 105.617 76.0817 105.779 76.583 106.103C77.0843 106.426 77.474 106.873 77.752 107.442C78.0345 108.012 78.1758 108.666 78.1758 109.404C78.1758 110.138 78.0345 110.787 77.752 111.353C77.474 111.918 77.0843 112.362 76.583 112.686C76.0817 113.005 75.4961 113.164 74.8262 113.164ZM74.8262 112.111C75.5098 112.111 76.043 111.865 76.4258 111.373C76.8086 110.876 77 110.22 77 109.404C77 108.579 76.8063 107.919 76.4189 107.422C76.0361 106.921 75.5052 106.67 74.8262 106.67C74.1471 106.67 73.6139 106.918 73.2266 107.415C72.8438 107.912 72.6523 108.575 72.6523 109.404C72.6523 110.225 72.8438 110.881 73.2266 111.373C73.6094 111.865 74.1426 112.111 74.8262 112.111ZM79.5293 113V105.781H80.6367V106.916H80.6641C80.7962 106.542 81.0059 106.242 81.293 106.014C81.5801 105.786 81.9492 105.672 82.4004 105.672C82.5052 105.672 82.6009 105.676 82.6875 105.686C82.7786 105.695 82.847 105.704 82.8926 105.713V106.875C82.847 106.861 82.7581 106.845 82.626 106.827C82.4984 106.804 82.3503 106.793 82.1816 106.793C81.7806 106.793 81.432 106.934 81.1357 107.217C80.8395 107.499 80.6914 107.946 80.6914 108.557V113H79.5293ZM86.8848 113.164C86.1784 113.164 85.5745 113.002 85.0732 112.679C84.5765 112.355 84.196 111.911 83.9316 111.346C83.6673 110.776 83.5352 110.129 83.5352 109.404C83.5352 108.671 83.6742 108.019 83.9521 107.449C84.2301 106.88 84.6152 106.433 85.1074 106.109C85.5996 105.781 86.1647 105.617 86.8027 105.617C87.4727 105.617 88.0537 105.777 88.5459 106.096C89.0381 106.415 89.4163 106.859 89.6807 107.429C89.9495 107.998 90.084 108.657 90.084 109.404V109.726H84.6836C84.7109 110.432 84.9137 111.006 85.292 111.448C85.6702 111.89 86.2012 112.111 86.8848 112.111C87.3997 112.111 87.819 111.993 88.1426 111.756C88.4707 111.519 88.6895 111.214 88.7988 110.84H89.9609C89.8698 111.3 89.6807 111.706 89.3936 112.057C89.1064 112.403 88.7464 112.674 88.3135 112.87C87.8851 113.066 87.4089 113.164 86.8848 113.164ZM84.6973 108.728H88.9219C88.8581 108.094 88.637 107.59 88.2588 107.217C87.8805 106.843 87.3952 106.656 86.8027 106.656C86.2103 106.656 85.7272 106.843 85.3535 107.217C84.9798 107.59 84.7611 108.094 84.6973 108.728ZM100.912 105.781V113H99.75V106.875H96.0723V113H94.9102V105.781H100.912ZM105.615 113.164C104.95 113.164 104.364 113.005 103.858 112.686C103.357 112.362 102.965 111.918 102.683 111.353C102.405 110.787 102.266 110.138 102.266 109.404C102.266 108.666 102.405 108.012 102.683 107.442C102.965 106.873 103.357 106.426 103.858 106.103C104.364 105.779 104.95 105.617 105.615 105.617C106.285 105.617 106.871 105.779 107.372 106.103C107.873 106.426 108.263 106.873 108.541 107.442C108.824 108.012 108.965 108.666 108.965 109.404C108.965 110.138 108.824 110.787 108.541 111.353C108.263 111.918 107.873 112.362 107.372 112.686C106.871 113.005 106.285 113.164 105.615 113.164ZM105.615 112.111C106.299 112.111 106.832 111.865 107.215 111.373C107.598 110.876 107.789 110.22 107.789 109.404C107.789 108.579 107.595 107.919 107.208 107.422C106.825 106.921 106.294 106.67 105.615 106.67C104.936 106.67 104.403 106.918 104.016 107.415C103.633 107.912 103.441 108.575 103.441 109.404C103.441 110.225 103.633 110.881 104.016 111.373C104.398 111.865 104.932 112.111 105.615 112.111ZM109.614 115.188V111.906H110.243C110.453 111.688 110.626 111.453 110.763 111.202C110.899 110.951 111.011 110.623 111.098 110.218C111.189 109.812 111.264 109.272 111.323 108.598L111.583 105.781H116.437V111.906H117.599V115.188H116.437V113H110.776V115.188H109.614ZM111.583 111.906H115.274V106.875H112.643L112.472 108.598C112.399 109.34 112.299 109.99 112.171 110.546C112.048 111.102 111.852 111.555 111.583 111.906ZM119.779 105.781V108.844H123.498V105.781H124.66V113H123.498V109.938H119.779V113H118.617V105.781H119.779ZM131.975 113H130.812V110.286H128.83C128.807 110.286 128.782 110.286 128.755 110.286L127.019 113H125.679L127.565 110.122C126.535 109.808 126.021 109.119 126.021 108.058C126.021 107.324 126.26 106.761 126.738 106.369C127.217 105.977 127.898 105.781 128.782 105.781H131.975V113ZM130.812 109.302V106.807H128.878C128.285 106.807 127.85 106.907 127.572 107.107C127.299 107.308 127.162 107.625 127.162 108.058C127.162 108.491 127.303 108.807 127.586 109.008C127.868 109.204 128.315 109.302 128.926 109.302H130.812ZM132.938 113V111.906H133.212C133.444 111.906 133.636 111.872 133.786 111.804C133.941 111.731 134.064 111.594 134.155 111.394C134.251 111.188 134.324 110.892 134.374 110.505C134.429 110.113 134.47 109.596 134.497 108.953L134.634 105.781H139.72V113H138.558V106.875H135.741L135.618 109.391C135.577 110.225 135.486 110.908 135.345 111.441C135.203 111.97 134.973 112.362 134.654 112.617C134.34 112.872 133.9 113 133.335 113H132.938ZM144.43 113.164C143.764 113.164 143.179 113.005 142.673 112.686C142.172 112.362 141.78 111.918 141.497 111.353C141.219 110.787 141.08 110.138 141.08 109.404C141.08 108.666 141.219 108.012 141.497 107.442C141.78 106.873 142.172 106.426 142.673 106.103C143.179 105.779 143.764 105.617 144.43 105.617C144.977 105.617 145.466 105.727 145.899 105.945C146.332 106.16 146.686 106.456 146.959 106.834C147.237 107.212 147.408 107.645 147.472 108.133H146.296C146.209 107.709 146.009 107.36 145.694 107.087C145.384 106.809 144.963 106.67 144.43 106.67C143.751 106.67 143.217 106.918 142.83 107.415C142.447 107.912 142.256 108.575 142.256 109.404C142.256 110.225 142.447 110.881 142.83 111.373C143.213 111.865 143.746 112.111 144.43 112.111C144.972 112.111 145.387 111.979 145.674 111.715C145.961 111.446 146.161 111.09 146.275 110.648H147.472C147.408 111.122 147.237 111.551 146.959 111.934C146.686 112.312 146.33 112.613 145.893 112.836C145.46 113.055 144.972 113.164 144.43 113.164ZM154.369 113H153.207V110.286H151.225C151.202 110.286 151.177 110.286 151.149 110.286L149.413 113H148.073L149.96 110.122C148.93 109.808 148.415 109.119 148.415 108.058C148.415 107.324 148.654 106.761 149.133 106.369C149.611 105.977 150.293 105.781 151.177 105.781H154.369V113ZM153.207 109.302V106.807H151.272C150.68 106.807 150.245 106.907 149.967 107.107C149.693 107.308 149.557 107.625 149.557 108.058C149.557 108.491 149.698 108.807 149.98 109.008C150.263 109.204 150.71 109.302 151.32 109.302H153.207ZM158.888 115.188V111.906H159.517C159.726 111.688 159.899 111.453 160.036 111.202C160.173 110.951 160.285 110.623 160.371 110.218C160.462 109.812 160.537 109.272 160.597 108.598L160.856 105.781H165.71V111.906H166.872V115.188H165.71V113H160.05V115.188H158.888ZM160.856 111.906H164.548V106.875H161.916L161.745 108.598C161.672 109.34 161.572 109.99 161.444 110.546C161.321 111.102 161.125 111.555 160.856 111.906ZM170.871 113.164C170.206 113.164 169.62 113.005 169.114 112.686C168.613 112.362 168.221 111.918 167.938 111.353C167.66 110.787 167.521 110.138 167.521 109.404C167.521 108.666 167.66 108.012 167.938 107.442C168.221 106.873 168.613 106.426 169.114 106.103C169.62 105.779 170.206 105.617 170.871 105.617C171.541 105.617 172.127 105.779 172.628 106.103C173.129 106.426 173.519 106.873 173.797 107.442C174.079 108.012 174.221 108.666 174.221 109.404C174.221 110.138 174.079 110.787 173.797 111.353C173.519 111.918 173.129 112.362 172.628 112.686C172.127 113.005 171.541 113.164 170.871 113.164ZM170.871 112.111C171.555 112.111 172.088 111.865 172.471 111.373C172.854 110.876 173.045 110.22 173.045 109.404C173.045 108.579 172.851 107.919 172.464 107.422C172.081 106.921 171.55 106.67 170.871 106.67C170.192 106.67 169.659 106.918 169.271 107.415C168.889 107.912 168.697 108.575 168.697 109.404C168.697 110.225 168.889 110.881 169.271 111.373C169.654 111.865 170.188 112.111 170.871 112.111ZM178.568 110.539V109.527L183.442 102.814H184.946V109.445H186.505V110.539H184.946V113H183.771V110.539H178.568ZM183.771 109.445V104.195H183.757L179.963 109.432V109.445H183.771ZM187.927 113.116C187.69 113.116 187.487 113.034 187.318 112.87C187.154 112.701 187.072 112.499 187.072 112.262C187.072 112.02 187.154 111.817 187.318 111.653C187.487 111.489 187.69 111.407 187.927 111.407C188.168 111.407 188.371 111.489 188.535 111.653C188.699 111.817 188.781 112.02 188.781 112.262C188.781 112.499 188.699 112.701 188.535 112.87C188.371 113.034 188.168 113.116 187.927 113.116ZM192.158 102.814V113H190.969V104.086H190.962L188.426 105.768V104.51L190.969 102.814H192.158ZM197.627 102.336L194.346 114.531H193.266L196.547 102.336H197.627ZM201.776 113.137C201.125 113.137 200.539 113.002 200.02 112.733C199.5 112.46 199.085 112.091 198.775 111.626C198.465 111.161 198.297 110.635 198.27 110.047H199.5C199.555 110.626 199.792 111.104 200.211 111.482C200.635 111.856 201.157 112.043 201.776 112.043C202.218 112.043 202.604 111.94 202.932 111.735C203.264 111.53 203.524 111.25 203.711 110.895C203.898 110.535 203.991 110.124 203.991 109.664C203.991 109.204 203.902 108.796 203.725 108.44C203.547 108.085 203.299 107.807 202.979 107.606C202.66 107.401 202.289 107.299 201.865 107.299C201.305 107.299 200.824 107.413 200.423 107.641C200.022 107.864 199.742 108.192 199.582 108.625H198.399L198.741 102.814H204.62V103.908H199.855L199.609 107.21H199.623C200.257 106.531 201.054 106.191 202.016 106.191C202.64 106.191 203.189 106.34 203.663 106.636C204.142 106.932 204.513 107.34 204.777 107.859C205.046 108.379 205.181 108.976 205.181 109.65C205.181 110.334 205.037 110.938 204.75 111.462C204.467 111.986 204.071 112.396 203.561 112.692C203.05 112.989 202.455 113.137 201.776 113.137ZM205.803 114.921L206.404 111.578H207.648L206.65 114.921H205.803ZM215.059 113.109C214.343 113.109 213.744 112.925 213.261 112.556C212.782 112.187 212.543 111.642 212.543 110.922C212.543 110.507 212.623 110.17 212.782 109.91C212.946 109.65 213.163 109.448 213.432 109.302C213.705 109.151 214.013 109.037 214.354 108.96C214.701 108.882 215.054 108.821 215.414 108.775C215.874 108.712 216.237 108.664 216.501 108.632C216.765 108.6 216.952 108.548 217.062 108.475C217.175 108.402 217.232 108.274 217.232 108.092V108.023C217.232 107.632 217.091 107.308 216.809 107.053C216.531 106.798 216.139 106.67 215.633 106.67C215.132 106.67 214.719 106.793 214.396 107.039C214.076 107.281 213.903 107.581 213.876 107.941H212.693C212.716 107.499 212.853 107.107 213.104 106.766C213.354 106.419 213.696 106.146 214.129 105.945C214.562 105.745 215.063 105.645 215.633 105.645C216.476 105.645 217.144 105.863 217.636 106.301C218.132 106.734 218.381 107.308 218.381 108.023V113H217.232V111.975H217.205C217.118 112.148 216.991 112.323 216.822 112.501C216.654 112.674 216.426 112.82 216.139 112.938C215.856 113.052 215.496 113.109 215.059 113.109ZM215.223 112.07C215.697 112.07 216.082 111.986 216.378 111.817C216.674 111.644 216.891 111.421 217.027 111.147C217.164 110.874 217.232 110.58 217.232 110.266V109.363C217.146 109.445 216.916 109.521 216.542 109.589C216.168 109.653 215.774 109.714 215.359 109.773C215.081 109.81 214.817 109.874 214.566 109.965C214.32 110.051 214.12 110.177 213.965 110.341C213.81 110.5 213.732 110.717 213.732 110.99C213.732 111.327 213.865 111.592 214.129 111.783C214.398 111.975 214.762 112.07 215.223 112.07ZM224.984 102.814V113H223.754V102.814H224.984ZM228.02 108.775V113H226.857V105.781H227.992V106.841C228.243 106.431 228.548 106.13 228.908 105.938C229.273 105.743 229.683 105.645 230.139 105.645C230.626 105.645 231.071 105.752 231.472 105.966C231.873 106.175 232.192 106.492 232.429 106.916C232.67 107.34 232.791 107.873 232.791 108.516V113H231.629V108.598C231.629 107.973 231.479 107.504 231.178 107.189C230.882 106.87 230.462 106.711 229.92 106.711C229.396 106.711 228.947 106.873 228.573 107.196C228.204 107.52 228.02 108.046 228.02 108.775ZM237.665 105.781V106.779H236.202V111.25C236.202 111.528 236.259 111.724 236.373 111.838C236.492 111.947 236.699 112.002 236.995 112.002H237.665V113H236.886C235.655 113 235.04 112.458 235.04 111.373V106.779H233.755V105.781H235.04V103.812H236.202V105.781H237.665ZM241.719 113.164C241.012 113.164 240.409 113.002 239.907 112.679C239.41 112.355 239.03 111.911 238.766 111.346C238.501 110.776 238.369 110.129 238.369 109.404C238.369 108.671 238.508 108.019 238.786 107.449C239.064 106.88 239.449 106.433 239.941 106.109C240.434 105.781 240.999 105.617 241.637 105.617C242.307 105.617 242.888 105.777 243.38 106.096C243.872 106.415 244.25 106.859 244.515 107.429C244.784 107.998 244.918 108.657 244.918 109.404V109.726H239.518C239.545 110.432 239.748 111.006 240.126 111.448C240.504 111.89 241.035 112.111 241.719 112.111C242.234 112.111 242.653 111.993 242.977 111.756C243.305 111.519 243.523 111.214 243.633 110.84H244.795C244.704 111.3 244.515 111.706 244.228 112.057C243.94 112.403 243.58 112.674 243.147 112.87C242.719 113.066 242.243 113.164 241.719 113.164ZM239.531 108.728H243.756C243.692 108.094 243.471 107.59 243.093 107.217C242.715 106.843 242.229 106.656 241.637 106.656C241.044 106.656 240.561 106.843 240.188 107.217C239.814 107.59 239.595 108.094 239.531 108.728ZM247.406 108.775V113H246.244V105.781H247.379V106.841C247.63 106.431 247.935 106.13 248.295 105.938C248.66 105.743 249.07 105.645 249.525 105.645C250.013 105.645 250.457 105.752 250.858 105.966C251.259 106.175 251.578 106.492 251.815 106.916C252.057 107.34 252.178 107.873 252.178 108.516V113H251.016V108.598C251.016 107.973 250.865 107.504 250.564 107.189C250.268 106.87 249.849 106.711 249.307 106.711C248.783 106.711 248.334 106.873 247.96 107.196C247.591 107.52 247.406 108.046 247.406 108.775ZM257.052 105.781V106.779H255.589V111.25C255.589 111.528 255.646 111.724 255.76 111.838C255.878 111.947 256.086 112.002 256.382 112.002H257.052V113H256.272C255.042 113 254.427 112.458 254.427 111.373V106.779H253.142V105.781H254.427V103.812H255.589V105.781H257.052ZM25.0127 122.781V123.779H23.5498V128.25C23.5498 128.528 23.6068 128.724 23.7207 128.838C23.8392 128.947 24.0465 129.002 24.3428 129.002H25.0127V130H24.2334C23.0029 130 22.3877 129.458 22.3877 128.373V123.779H21.1025V122.781H22.3877V120.812H23.5498V122.781H25.0127ZM29.0664 130.164C28.401 130.164 27.8154 130.005 27.3096 129.686C26.8083 129.362 26.4163 128.918 26.1338 128.353C25.8558 127.787 25.7168 127.138 25.7168 126.404C25.7168 125.666 25.8558 125.012 26.1338 124.442C26.4163 123.873 26.8083 123.426 27.3096 123.103C27.8154 122.779 28.401 122.617 29.0664 122.617C29.7363 122.617 30.3219 122.779 30.8232 123.103C31.3245 123.426 31.7142 123.873 31.9922 124.442C32.2747 125.012 32.416 125.666 32.416 126.404C32.416 127.138 32.2747 127.787 31.9922 128.353C31.7142 128.918 31.3245 129.362 30.8232 129.686C30.3219 130.005 29.7363 130.164 29.0664 130.164ZM29.0664 129.111C29.75 129.111 30.2832 128.865 30.666 128.373C31.0488 127.876 31.2402 127.22 31.2402 126.404C31.2402 125.579 31.0465 124.919 30.6592 124.422C30.2764 123.921 29.7454 123.67 29.0664 123.67C28.3874 123.67 27.8542 123.918 27.4668 124.415C27.084 124.912 26.8926 125.575 26.8926 126.404C26.8926 127.225 27.084 127.881 27.4668 128.373C27.8496 128.865 28.3828 129.111 29.0664 129.111ZM41.3301 130.164C40.5326 130.164 39.8353 130.007 39.2383 129.692C38.6458 129.378 38.1855 128.95 37.8574 128.407C37.5293 127.86 37.3652 127.238 37.3652 126.541V119.814H38.5957V126.445C38.5957 126.942 38.7051 127.384 38.9238 127.771C39.1426 128.159 39.457 128.464 39.8672 128.688C40.2773 128.906 40.765 129.016 41.3301 129.016C41.8997 129.016 42.3874 128.906 42.793 128.688C43.2031 128.464 43.5176 128.159 43.7363 127.771C43.9551 127.384 44.0645 126.942 44.0645 126.445V119.814H45.2949V126.541C45.2949 127.238 45.1309 127.86 44.8027 128.407C44.4746 128.95 44.0143 129.378 43.4219 129.692C42.8294 130.007 42.1322 130.164 41.3301 130.164ZM49.6289 130.164C49.1139 130.164 48.6468 130.08 48.2275 129.911C47.8083 129.743 47.4688 129.487 47.209 129.146C46.9492 128.799 46.8034 128.364 46.7715 127.84H47.9199C48.002 128.724 48.5625 129.166 49.6016 129.166C50.1029 129.166 50.4971 129.061 50.7842 128.852C51.0758 128.642 51.2217 128.378 51.2217 128.059C51.2217 127.785 51.1214 127.566 50.9209 127.402C50.7204 127.238 50.4583 127.12 50.1348 127.047L48.9727 126.773C47.6146 126.454 46.9355 125.771 46.9355 124.723C46.9355 124.312 47.0449 123.95 47.2637 123.636C47.487 123.317 47.7946 123.068 48.1865 122.891C48.583 122.708 49.0387 122.617 49.5537 122.617C50.055 122.617 50.5039 122.713 50.9004 122.904C51.3014 123.091 51.6182 123.358 51.8506 123.704C52.0876 124.05 52.2129 124.463 52.2266 124.941H51.0918C51.0872 124.559 50.946 124.242 50.668 123.991C50.39 123.741 50.0186 123.615 49.5537 123.615C49.1117 123.615 48.7585 123.722 48.4941 123.937C48.2298 124.151 48.0977 124.413 48.0977 124.723C48.0977 124.996 48.1979 125.217 48.3984 125.386C48.599 125.55 48.8724 125.673 49.2188 125.755L50.3809 126.028C51.0736 126.192 51.5817 126.438 51.9053 126.767C52.2288 127.09 52.3906 127.512 52.3906 128.031C52.3906 128.478 52.2699 128.861 52.0283 129.18C51.7868 129.499 51.4564 129.743 51.0371 129.911C50.6224 130.08 50.153 130.164 49.6289 130.164ZM56.7383 130.164C56.0319 130.164 55.4281 130.002 54.9268 129.679C54.43 129.355 54.0495 128.911 53.7852 128.346C53.5208 127.776 53.3887 127.129 53.3887 126.404C53.3887 125.671 53.5277 125.019 53.8057 124.449C54.0837 123.88 54.4688 123.433 54.9609 123.109C55.4531 122.781 56.0182 122.617 56.6562 122.617C57.3262 122.617 57.9072 122.777 58.3994 123.096C58.8916 123.415 59.2699 123.859 59.5342 124.429C59.8031 124.998 59.9375 125.657 59.9375 126.404V126.726H54.5371C54.5645 127.432 54.7673 128.006 55.1455 128.448C55.5238 128.89 56.0547 129.111 56.7383 129.111C57.2533 129.111 57.6725 128.993 57.9961 128.756C58.3242 128.519 58.543 128.214 58.6523 127.84H59.8145C59.7233 128.3 59.5342 128.706 59.2471 129.057C58.96 129.403 58.5999 129.674 58.167 129.87C57.7386 130.066 57.2624 130.164 56.7383 130.164ZM54.5508 125.728H58.7754C58.7116 125.094 58.4906 124.59 58.1123 124.217C57.734 123.843 57.2487 123.656 56.6562 123.656C56.0638 123.656 55.5807 123.843 55.207 124.217C54.8333 124.59 54.6146 125.094 54.5508 125.728ZM77.9023 125.297V126.391H63.9023V125.297H77.9023ZM81.5596 132.188V128.906H82.1885C82.3981 128.688 82.5713 128.453 82.708 128.202C82.8447 127.951 82.9564 127.623 83.043 127.218C83.1341 126.812 83.2093 126.272 83.2686 125.598L83.5283 122.781H88.3818V128.906H89.5439V132.188H88.3818V130H82.7217V132.188H81.5596ZM83.5283 128.906H87.2197V123.875H84.5879L84.417 125.598C84.3441 126.34 84.2438 126.99 84.1162 127.546C83.9932 128.102 83.7972 128.555 83.5283 128.906ZM93.543 130.164C92.8776 130.164 92.292 130.005 91.7861 129.686C91.2848 129.362 90.8929 128.918 90.6104 128.353C90.3324 127.787 90.1934 127.138 90.1934 126.404C90.1934 125.666 90.3324 125.012 90.6104 124.442C90.8929 123.873 91.2848 123.426 91.7861 123.103C92.292 122.779 92.8776 122.617 93.543 122.617C94.2129 122.617 94.7985 122.779 95.2998 123.103C95.8011 123.426 96.1908 123.873 96.4688 124.442C96.7513 125.012 96.8926 125.666 96.8926 126.404C96.8926 127.138 96.7513 127.787 96.4688 128.353C96.1908 128.918 95.8011 129.362 95.2998 129.686C94.7985 130.005 94.2129 130.164 93.543 130.164ZM93.543 129.111C94.2266 129.111 94.7598 128.865 95.1426 128.373C95.5254 127.876 95.7168 127.22 95.7168 126.404C95.7168 125.579 95.5231 124.919 95.1357 124.422C94.7529 123.921 94.222 123.67 93.543 123.67C92.8639 123.67 92.3307 123.918 91.9434 124.415C91.5605 124.912 91.3691 125.575 91.3691 126.404C91.3691 127.225 91.5605 127.881 91.9434 128.373C92.3262 128.865 92.8594 129.111 93.543 129.111ZM101.24 127.539V126.527L106.114 119.814H107.618V126.445H109.177V127.539H107.618V130H106.442V127.539H101.24ZM106.442 126.445V121.195H106.429L102.635 126.432V126.445H106.442ZM110.599 130.116C110.362 130.116 110.159 130.034 109.99 129.87C109.826 129.701 109.744 129.499 109.744 129.262C109.744 129.02 109.826 128.817 109.99 128.653C110.159 128.489 110.362 128.407 110.599 128.407C110.84 128.407 111.043 128.489 111.207 128.653C111.371 128.817 111.453 129.02 111.453 129.262C111.453 129.499 111.371 129.701 111.207 129.87C111.043 130.034 110.84 130.116 110.599 130.116ZM115.985 130.137C115.334 130.137 114.748 130.002 114.229 129.733C113.709 129.46 113.294 129.091 112.984 128.626C112.674 128.161 112.506 127.635 112.479 127.047H113.709C113.764 127.626 114.001 128.104 114.42 128.482C114.844 128.856 115.366 129.043 115.985 129.043C116.427 129.043 116.812 128.94 117.141 128.735C117.473 128.53 117.733 128.25 117.92 127.895C118.107 127.535 118.2 127.124 118.2 126.664C118.2 126.204 118.111 125.796 117.934 125.44C117.756 125.085 117.507 124.807 117.188 124.606C116.869 124.401 116.498 124.299 116.074 124.299C115.514 124.299 115.033 124.413 114.632 124.641C114.231 124.864 113.951 125.192 113.791 125.625H112.608L112.95 119.814H118.829V120.908H114.064L113.818 124.21H113.832C114.465 123.531 115.263 123.191 116.225 123.191C116.849 123.191 117.398 123.34 117.872 123.636C118.351 123.932 118.722 124.34 118.986 124.859C119.255 125.379 119.39 125.976 119.39 126.65C119.39 127.334 119.246 127.938 118.959 128.462C118.676 128.986 118.28 129.396 117.77 129.692C117.259 129.989 116.664 130.137 115.985 130.137ZM124.469 119.336L121.188 131.531H120.107L123.389 119.336H124.469ZM128.618 130.137C127.966 130.137 127.381 130.002 126.861 129.733C126.342 129.46 125.927 129.091 125.617 128.626C125.307 128.161 125.139 127.635 125.111 127.047H126.342C126.396 127.626 126.633 128.104 127.053 128.482C127.477 128.856 127.998 129.043 128.618 129.043C129.06 129.043 129.445 128.94 129.773 128.735C130.106 128.53 130.366 128.25 130.553 127.895C130.74 127.535 130.833 127.124 130.833 126.664C130.833 126.204 130.744 125.796 130.566 125.44C130.389 125.085 130.14 124.807 129.821 124.606C129.502 124.401 129.131 124.299 128.707 124.299C128.146 124.299 127.666 124.413 127.265 124.641C126.864 124.864 126.583 125.192 126.424 125.625H125.241L125.583 119.814H131.462V120.908H126.697L126.451 124.21H126.465C127.098 123.531 127.896 123.191 128.857 123.191C129.482 123.191 130.031 123.34 130.505 123.636C130.983 123.932 131.355 124.34 131.619 124.859C131.888 125.379 132.022 125.976 132.022 126.65C132.022 127.334 131.879 127.938 131.592 128.462C131.309 128.986 130.913 129.396 130.402 129.692C129.892 129.989 129.297 130.137 128.618 130.137ZM133.8 130.116C133.563 130.116 133.36 130.034 133.191 129.87C133.027 129.701 132.945 129.499 132.945 129.262C132.945 129.02 133.027 128.817 133.191 128.653C133.36 128.489 133.563 128.407 133.8 128.407C134.041 128.407 134.244 128.489 134.408 128.653C134.572 128.817 134.654 129.02 134.654 129.262C134.654 129.499 134.572 129.701 134.408 129.87C134.244 130.034 134.041 130.116 133.8 130.116ZM147.738 119.814V130H146.508V120.908H141.08V130H139.85V119.814H147.738ZM152.592 130.164C151.926 130.164 151.341 130.005 150.835 129.686C150.334 129.362 149.942 128.918 149.659 128.353C149.381 127.787 149.242 127.138 149.242 126.404C149.242 125.666 149.381 125.012 149.659 124.442C149.942 123.873 150.334 123.426 150.835 123.103C151.341 122.779 151.926 122.617 152.592 122.617C153.262 122.617 153.847 122.779 154.349 123.103C154.85 123.426 155.24 123.873 155.518 124.442C155.8 125.012 155.941 125.666 155.941 126.404C155.941 127.138 155.8 127.787 155.518 128.353C155.24 128.918 154.85 129.362 154.349 129.686C153.847 130.005 153.262 130.164 152.592 130.164ZM152.592 129.111C153.275 129.111 153.809 128.865 154.191 128.373C154.574 127.876 154.766 127.22 154.766 126.404C154.766 125.579 154.572 124.919 154.185 124.422C153.802 123.921 153.271 123.67 152.592 123.67C151.913 123.67 151.38 123.918 150.992 124.415C150.609 124.912 150.418 125.575 150.418 126.404C150.418 127.225 150.609 127.881 150.992 128.373C151.375 128.865 151.908 129.111 152.592 129.111ZM156.536 130V128.906H156.81C157.042 128.906 157.233 128.872 157.384 128.804C157.539 128.731 157.662 128.594 157.753 128.394C157.849 128.188 157.922 127.892 157.972 127.505C158.026 127.113 158.067 126.596 158.095 125.953L158.231 122.781H163.317V130H162.155V123.875H159.339L159.216 126.391C159.175 127.225 159.084 127.908 158.942 128.441C158.801 128.97 158.571 129.362 158.252 129.617C157.938 129.872 157.498 130 156.933 130H156.536ZM166.209 125.242H168.301C168.834 125.242 169.303 125.342 169.709 125.543C170.115 125.743 170.431 126.021 170.659 126.377C170.892 126.728 171.008 127.133 171.008 127.594C171.008 128.063 170.892 128.48 170.659 128.845C170.431 129.205 170.115 129.487 169.709 129.692C169.303 129.897 168.834 130 168.301 130H165.047V122.781H166.209V125.242ZM166.209 126.336V128.906H168.26C168.747 128.906 169.132 128.788 169.415 128.551C169.702 128.314 169.846 127.995 169.846 127.594C169.846 127.206 169.702 126.901 169.415 126.678C169.132 126.45 168.747 126.336 168.26 126.336H166.209ZM174.781 130.109C174.225 130.109 173.738 130.014 173.318 129.822C172.904 129.626 172.58 129.362 172.348 129.029C172.12 128.697 172.001 128.321 171.992 127.901H173.147C173.161 128.284 173.316 128.585 173.612 128.804C173.909 129.022 174.291 129.132 174.761 129.132C175.248 129.132 175.643 129.025 175.943 128.811C176.249 128.592 176.401 128.309 176.401 127.963C176.401 127.603 176.244 127.311 175.93 127.088C175.615 126.86 175.185 126.746 174.638 126.746H174.091V125.823H174.638C175.093 125.823 175.463 125.721 175.745 125.516C176.028 125.306 176.169 125.03 176.169 124.688C176.169 124.356 176.041 124.089 175.786 123.889C175.531 123.684 175.191 123.581 174.768 123.581C174.348 123.581 173.995 123.684 173.708 123.889C173.425 124.094 173.28 124.379 173.271 124.743H172.156C172.165 124.328 172.284 123.962 172.512 123.643C172.74 123.324 173.049 123.075 173.441 122.897C173.838 122.715 174.282 122.624 174.774 122.624C175.276 122.624 175.713 122.713 176.087 122.891C176.465 123.068 176.759 123.308 176.969 123.608C177.183 123.909 177.29 124.242 177.29 124.606C177.29 125.007 177.167 125.354 176.921 125.646C176.675 125.937 176.335 126.135 175.902 126.24V126.254C176.417 126.327 176.821 126.525 177.112 126.849C177.409 127.168 177.557 127.553 177.557 128.004C177.557 128.405 177.436 128.765 177.194 129.084C176.957 129.403 176.629 129.654 176.21 129.836C175.791 130.018 175.314 130.109 174.781 130.109ZM181.863 130.164C181.198 130.164 180.612 130.005 180.106 129.686C179.605 129.362 179.213 128.918 178.931 128.353C178.653 127.787 178.514 127.138 178.514 126.404C178.514 125.666 178.653 125.012 178.931 124.442C179.213 123.873 179.605 123.426 180.106 123.103C180.612 122.779 181.198 122.617 181.863 122.617C182.533 122.617 183.119 122.779 183.62 123.103C184.121 123.426 184.511 123.873 184.789 124.442C185.072 125.012 185.213 125.666 185.213 126.404C185.213 127.138 185.072 127.787 184.789 128.353C184.511 128.918 184.121 129.362 183.62 129.686C183.119 130.005 182.533 130.164 181.863 130.164ZM181.863 129.111C182.547 129.111 183.08 128.865 183.463 128.373C183.846 127.876 184.037 127.22 184.037 126.404C184.037 125.579 183.843 124.919 183.456 124.422C183.073 123.921 182.542 123.67 181.863 123.67C181.184 123.67 180.651 123.918 180.264 124.415C179.881 124.912 179.689 125.575 179.689 126.404C179.689 127.225 179.881 127.881 180.264 128.373C180.646 128.865 181.18 129.111 181.863 129.111ZM186.566 130V122.781H189.574C190.395 122.781 191.046 122.948 191.529 123.28C192.012 123.613 192.254 124.087 192.254 124.702C192.254 125.131 192.135 125.468 191.898 125.714C191.661 125.955 191.347 126.119 190.955 126.206C191.224 126.247 191.479 126.336 191.721 126.473C191.962 126.605 192.158 126.794 192.309 127.04C192.464 127.282 192.541 127.587 192.541 127.956C192.541 128.562 192.32 129.054 191.878 129.433C191.436 129.811 190.827 130 190.053 130H186.566ZM187.674 128.92H190.053C190.467 128.92 190.784 128.833 191.003 128.66C191.226 128.482 191.338 128.234 191.338 127.915C191.338 127.555 191.226 127.279 191.003 127.088C190.784 126.892 190.467 126.794 190.053 126.794H187.674V128.92ZM187.674 125.796H189.629C190.094 125.796 190.451 125.709 190.702 125.536C190.953 125.358 191.078 125.108 191.078 124.784C191.078 124.488 190.948 124.26 190.688 124.101C190.429 123.941 190.057 123.861 189.574 123.861H187.674V125.796ZM196.109 130.109C195.394 130.109 194.795 129.925 194.312 129.556C193.833 129.187 193.594 128.642 193.594 127.922C193.594 127.507 193.674 127.17 193.833 126.91C193.997 126.65 194.214 126.448 194.482 126.302C194.756 126.151 195.063 126.037 195.405 125.96C195.752 125.882 196.105 125.821 196.465 125.775C196.925 125.712 197.287 125.664 197.552 125.632C197.816 125.6 198.003 125.548 198.112 125.475C198.226 125.402 198.283 125.274 198.283 125.092V125.023C198.283 124.632 198.142 124.308 197.859 124.053C197.581 123.798 197.189 123.67 196.684 123.67C196.182 123.67 195.77 123.793 195.446 124.039C195.127 124.281 194.954 124.581 194.927 124.941H193.744C193.767 124.499 193.904 124.107 194.154 123.766C194.405 123.419 194.747 123.146 195.18 122.945C195.613 122.745 196.114 122.645 196.684 122.645C197.527 122.645 198.194 122.863 198.687 123.301C199.183 123.734 199.432 124.308 199.432 125.023V130H198.283V128.975H198.256C198.169 129.148 198.042 129.323 197.873 129.501C197.704 129.674 197.477 129.82 197.189 129.938C196.907 130.052 196.547 130.109 196.109 130.109ZM196.273 129.07C196.747 129.07 197.132 128.986 197.429 128.817C197.725 128.644 197.941 128.421 198.078 128.147C198.215 127.874 198.283 127.58 198.283 127.266V126.363C198.197 126.445 197.966 126.521 197.593 126.589C197.219 126.653 196.825 126.714 196.41 126.773C196.132 126.81 195.868 126.874 195.617 126.965C195.371 127.051 195.171 127.177 195.016 127.341C194.861 127.5 194.783 127.717 194.783 127.99C194.783 128.327 194.915 128.592 195.18 128.783C195.449 128.975 195.813 129.07 196.273 129.07ZM202.918 130V123.834H200.396V122.781H206.589V123.834H204.08V130H202.918ZM210.396 130.164C209.69 130.164 209.086 130.002 208.585 129.679C208.088 129.355 207.708 128.911 207.443 128.346C207.179 127.776 207.047 127.129 207.047 126.404C207.047 125.671 207.186 125.019 207.464 124.449C207.742 123.88 208.127 123.433 208.619 123.109C209.111 122.781 209.676 122.617 210.314 122.617C210.984 122.617 211.565 122.777 212.058 123.096C212.55 123.415 212.928 123.859 213.192 124.429C213.461 124.998 213.596 125.657 213.596 126.404V126.726H208.195C208.223 127.432 208.425 128.006 208.804 128.448C209.182 128.89 209.713 129.111 210.396 129.111C210.911 129.111 211.331 128.993 211.654 128.756C211.982 128.519 212.201 128.214 212.311 127.84H213.473C213.382 128.3 213.192 128.706 212.905 129.057C212.618 129.403 212.258 129.674 211.825 129.87C211.397 130.066 210.921 130.164 210.396 130.164ZM208.209 125.728H212.434C212.37 125.094 212.149 124.59 211.771 124.217C211.392 123.843 210.907 123.656 210.314 123.656C209.722 123.656 209.239 123.843 208.865 124.217C208.492 124.59 208.273 125.094 208.209 125.728ZM214.163 130V128.906H214.437C214.669 128.906 214.86 128.872 215.011 128.804C215.166 128.731 215.289 128.594 215.38 128.394C215.476 128.188 215.549 127.892 215.599 127.505C215.653 127.113 215.694 126.596 215.722 125.953L215.858 122.781H220.944V130H219.782V123.875H216.966L216.843 126.391C216.802 127.225 216.711 127.908 216.569 128.441C216.428 128.97 216.198 129.362 215.879 129.617C215.564 129.872 215.125 130 214.56 130H214.163ZM228.717 130H227.555V124.62H227.534L223.836 130H222.674V122.781H223.836V128.168H223.856L227.555 122.781H228.717V130ZM238.643 122.781V123.875H235.102V130H233.939V122.781H238.643ZM242.689 130.164C242.024 130.164 241.438 130.005 240.933 129.686C240.431 129.362 240.039 128.918 239.757 128.353C239.479 127.787 239.34 127.138 239.34 126.404C239.34 125.666 239.479 125.012 239.757 124.442C240.039 123.873 240.431 123.426 240.933 123.103C241.438 122.779 242.024 122.617 242.689 122.617C243.359 122.617 243.945 122.779 244.446 123.103C244.948 123.426 245.337 123.873 245.615 124.442C245.898 125.012 246.039 125.666 246.039 126.404C246.039 127.138 245.898 127.787 245.615 128.353C245.337 128.918 244.948 129.362 244.446 129.686C243.945 130.005 243.359 130.164 242.689 130.164ZM242.689 129.111C243.373 129.111 243.906 128.865 244.289 128.373C244.672 127.876 244.863 127.22 244.863 126.404C244.863 125.579 244.67 124.919 244.282 124.422C243.899 123.921 243.368 123.67 242.689 123.67C242.01 123.67 241.477 123.918 241.09 124.415C240.707 124.912 240.516 125.575 240.516 126.404C240.516 127.225 240.707 127.881 241.09 128.373C241.473 128.865 242.006 129.111 242.689 129.111ZM249.156 130V123.834H246.634V122.781H252.827V123.834H250.318V130H249.156ZM256.635 130.164C255.969 130.164 255.384 130.005 254.878 129.686C254.377 129.362 253.985 128.918 253.702 128.353C253.424 127.787 253.285 127.138 253.285 126.404C253.285 125.666 253.424 125.012 253.702 124.442C253.985 123.873 254.377 123.426 254.878 123.103C255.384 122.779 255.969 122.617 256.635 122.617C257.305 122.617 257.89 122.779 258.392 123.103C258.893 123.426 259.283 123.873 259.561 124.442C259.843 125.012 259.984 125.666 259.984 126.404C259.984 127.138 259.843 127.787 259.561 128.353C259.283 128.918 258.893 129.362 258.392 129.686C257.89 130.005 257.305 130.164 256.635 130.164ZM256.635 129.111C257.318 129.111 257.852 128.865 258.234 128.373C258.617 127.876 258.809 127.22 258.809 126.404C258.809 125.579 258.615 124.919 258.228 124.422C257.845 123.921 257.314 123.67 256.635 123.67C255.956 123.67 255.423 123.918 255.035 124.415C254.652 124.912 254.461 125.575 254.461 126.404C254.461 127.225 254.652 127.881 255.035 128.373C255.418 128.865 255.951 129.111 256.635 129.111ZM261.338 130V122.781H264.346C265.166 122.781 265.818 122.948 266.301 123.28C266.784 123.613 267.025 124.087 267.025 124.702C267.025 125.131 266.907 125.468 266.67 125.714C266.433 125.955 266.118 126.119 265.727 126.206C265.995 126.247 266.251 126.336 266.492 126.473C266.734 126.605 266.93 126.794 267.08 127.04C267.235 127.282 267.312 127.587 267.312 127.956C267.312 128.562 267.091 129.054 266.649 129.433C266.207 129.811 265.599 130 264.824 130H261.338ZM262.445 128.92H264.824C265.239 128.92 265.556 128.833 265.774 128.66C265.998 128.482 266.109 128.234 266.109 127.915C266.109 127.555 265.998 127.279 265.774 127.088C265.556 126.892 265.239 126.794 264.824 126.794H262.445V128.92ZM262.445 125.796H264.4C264.865 125.796 265.223 125.709 265.474 125.536C265.724 125.358 265.85 125.108 265.85 124.784C265.85 124.488 265.72 124.26 265.46 124.101C265.2 123.941 264.829 123.861 264.346 123.861H262.445V125.796ZM269.842 125.242H271.934C272.467 125.242 272.936 125.342 273.342 125.543C273.747 125.743 274.064 126.021 274.292 126.377C274.524 126.728 274.641 127.133 274.641 127.594C274.641 128.063 274.524 128.48 274.292 128.845C274.064 129.205 273.747 129.487 273.342 129.692C272.936 129.897 272.467 130 271.934 130H268.68V122.781H269.842V125.242ZM269.842 126.336V128.906H271.893C272.38 128.906 272.765 128.788 273.048 128.551C273.335 128.314 273.479 127.995 273.479 127.594C273.479 127.206 273.335 126.901 273.048 126.678C272.765 126.45 272.38 126.336 271.893 126.336H269.842ZM275.338 130V122.781H276.5V130H275.338ZM21.1572 149.188V145.906H21.7861C21.9958 145.688 22.1689 145.453 22.3057 145.202C22.4424 144.951 22.554 144.623 22.6406 144.218C22.7318 143.812 22.807 143.272 22.8662 142.598L23.126 139.781H27.9795V145.906H29.1416V149.188H27.9795V147H22.3193V149.188H21.1572ZM23.126 145.906H26.8174V140.875H24.1855L24.0146 142.598C23.9417 143.34 23.8415 143.99 23.7139 144.546C23.5908 145.102 23.3949 145.555 23.126 145.906ZM33.1406 147.164C32.4753 147.164 31.8896 147.005 31.3838 146.686C30.8825 146.362 30.4906 145.918 30.208 145.353C29.93 144.787 29.791 144.138 29.791 143.404C29.791 142.666 29.93 142.012 30.208 141.442C30.4906 140.873 30.8825 140.426 31.3838 140.103C31.8896 139.779 32.4753 139.617 33.1406 139.617C33.8105 139.617 34.3962 139.779 34.8975 140.103C35.3988 140.426 35.7884 140.873 36.0664 141.442C36.349 142.012 36.4902 142.666 36.4902 143.404C36.4902 144.138 36.349 144.787 36.0664 145.353C35.7884 145.918 35.3988 146.362 34.8975 146.686C34.3962 147.005 33.8105 147.164 33.1406 147.164ZM33.1406 146.111C33.8242 146.111 34.3574 145.865 34.7402 145.373C35.123 144.876 35.3145 144.22 35.3145 143.404C35.3145 142.579 35.1208 141.919 34.7334 141.422C34.3506 140.921 33.8197 140.67 33.1406 140.67C32.4616 140.67 31.9284 140.918 31.541 141.415C31.1582 141.912 30.9668 142.575 30.9668 143.404C30.9668 144.225 31.1582 144.881 31.541 145.373C31.9238 145.865 32.457 146.111 33.1406 146.111ZM37.8438 147V139.781H40.8516C41.6719 139.781 42.3236 139.948 42.8066 140.28C43.2897 140.613 43.5312 141.087 43.5312 141.702C43.5312 142.131 43.4128 142.468 43.1758 142.714C42.9388 142.955 42.6243 143.119 42.2324 143.206C42.5013 143.247 42.7565 143.336 42.998 143.473C43.2396 143.605 43.4355 143.794 43.5859 144.04C43.7409 144.282 43.8184 144.587 43.8184 144.956C43.8184 145.562 43.5973 146.054 43.1553 146.433C42.7132 146.811 42.1048 147 41.3301 147H37.8438ZM38.9512 145.92H41.3301C41.7448 145.92 42.0615 145.833 42.2803 145.66C42.5036 145.482 42.6152 145.234 42.6152 144.915C42.6152 144.555 42.5036 144.279 42.2803 144.088C42.0615 143.892 41.7448 143.794 41.3301 143.794H38.9512V145.92ZM38.9512 142.796H40.9062C41.3711 142.796 41.7288 142.709 41.9795 142.536C42.2301 142.358 42.3555 142.108 42.3555 141.784C42.3555 141.488 42.2256 141.26 41.9658 141.101C41.7061 140.941 41.3346 140.861 40.8516 140.861H38.9512V142.796ZM48.166 147.164C47.4596 147.164 46.8558 147.002 46.3545 146.679C45.8577 146.355 45.4772 145.911 45.2129 145.346C44.9486 144.776 44.8164 144.129 44.8164 143.404C44.8164 142.671 44.9554 142.019 45.2334 141.449C45.5114 140.88 45.8965 140.433 46.3887 140.109C46.8809 139.781 47.446 139.617 48.084 139.617C48.7539 139.617 49.335 139.777 49.8271 140.096C50.3193 140.415 50.6976 140.859 50.9619 141.429C51.2308 141.998 51.3652 142.657 51.3652 143.404V143.726H45.9648C45.9922 144.432 46.195 145.006 46.5732 145.448C46.9515 145.89 47.4824 146.111 48.166 146.111C48.681 146.111 49.1003 145.993 49.4238 145.756C49.752 145.519 49.9707 145.214 50.0801 144.84H51.2422C51.151 145.3 50.9619 145.706 50.6748 146.057C50.3877 146.403 50.0277 146.674 49.5947 146.87C49.1663 147.066 48.6901 147.164 48.166 147.164ZM45.9785 142.728H50.2031C50.1393 142.094 49.9183 141.59 49.54 141.217C49.1618 140.843 48.6764 140.656 48.084 140.656C47.4915 140.656 47.0085 140.843 46.6348 141.217C46.2611 141.59 46.0423 142.094 45.9785 142.728ZM52.6914 149.857V139.781H53.8262V140.848H53.8398C54.0723 140.442 54.3936 140.141 54.8037 139.945C55.2139 139.745 55.6536 139.645 56.123 139.645C56.752 139.645 57.3011 139.802 57.7705 140.116C58.2399 140.431 58.6045 140.87 58.8643 141.436C59.124 141.996 59.2539 142.648 59.2539 143.391C59.2539 144.129 59.124 144.781 58.8643 145.346C58.6045 145.906 58.2399 146.346 57.7705 146.665C57.3011 146.979 56.752 147.137 56.123 147.137C55.6536 147.137 55.2253 147.036 54.8379 146.836C54.4505 146.631 54.127 146.321 53.8672 145.906H53.8535V149.857H52.6914ZM55.9453 146.091C56.5697 146.091 57.0801 145.863 57.4766 145.407C57.8776 144.947 58.0781 144.275 58.0781 143.391C58.0781 142.507 57.8776 141.834 57.4766 141.374C57.0801 140.914 56.5697 140.684 55.9453 140.684C55.2754 140.684 54.7422 140.932 54.3457 141.429C53.9538 141.921 53.7578 142.575 53.7578 143.391C53.7578 144.206 53.9538 144.86 54.3457 145.353C54.7422 145.845 55.2754 146.091 55.9453 146.091ZM66.6504 147H65.4883V141.62H65.4678L61.7695 147H60.6074V139.781H61.7695V145.168H61.79L65.4883 139.781H66.6504V147ZM70.1367 147V140.834H67.6143V139.781H73.8076V140.834H71.2988V147H70.1367ZM75.9336 142.242H78.0254C78.5586 142.242 79.028 142.342 79.4336 142.543C79.8392 142.743 80.1559 143.021 80.3838 143.377C80.6162 143.728 80.7324 144.133 80.7324 144.594C80.7324 145.063 80.6162 145.48 80.3838 145.845C80.1559 146.205 79.8392 146.487 79.4336 146.692C79.028 146.897 78.5586 147 78.0254 147H74.7715V139.781H75.9336V142.242ZM75.9336 143.336V145.906H77.9844C78.472 145.906 78.8571 145.788 79.1396 145.551C79.4268 145.314 79.5703 144.995 79.5703 144.594C79.5703 144.206 79.4268 143.901 79.1396 143.678C78.8571 143.45 78.472 143.336 77.9844 143.336H75.9336ZM91.5879 139.781V147H90.4258V140.875H86.748V147H85.5859V139.781H91.5879ZM93.3105 149.857V139.781H94.4453V140.848H94.459C94.6914 140.442 95.0127 140.141 95.4229 139.945C95.833 139.745 96.2728 139.645 96.7422 139.645C97.3711 139.645 97.9202 139.802 98.3896 140.116C98.859 140.431 99.2236 140.87 99.4834 141.436C99.7432 141.996 99.873 142.648 99.873 143.391C99.873 144.129 99.7432 144.781 99.4834 145.346C99.2236 145.906 98.859 146.346 98.3896 146.665C97.9202 146.979 97.3711 147.137 96.7422 147.137C96.2728 147.137 95.8444 147.036 95.457 146.836C95.0697 146.631 94.7461 146.321 94.4863 145.906H94.4727V149.857H93.3105ZM96.5645 146.091C97.1888 146.091 97.6992 145.863 98.0957 145.407C98.4967 144.947 98.6973 144.275 98.6973 143.391C98.6973 142.507 98.4967 141.834 98.0957 141.374C97.6992 140.914 97.1888 140.684 96.5645 140.684C95.8945 140.684 95.3613 140.932 94.9648 141.429C94.5729 141.921 94.377 142.575 94.377 143.391C94.377 144.206 94.5729 144.86 94.9648 145.353C95.3613 145.845 95.8945 146.091 96.5645 146.091ZM107.27 147H106.107V141.62H106.087L102.389 147H101.227V139.781H102.389V145.168H102.409L106.107 139.781H107.27V147ZM108.233 147V145.906H108.507C108.739 145.906 108.931 145.872 109.081 145.804C109.236 145.731 109.359 145.594 109.45 145.394C109.546 145.188 109.619 144.892 109.669 144.505C109.724 144.113 109.765 143.596 109.792 142.953L109.929 139.781H115.015V147H113.853V140.875H111.036L110.913 143.391C110.872 144.225 110.781 144.908 110.64 145.441C110.498 145.97 110.268 146.362 109.949 146.617C109.635 146.872 109.195 147 108.63 147H108.233ZM119.725 147.164C119.059 147.164 118.474 147.005 117.968 146.686C117.466 146.362 117.075 145.918 116.792 145.353C116.514 144.787 116.375 144.138 116.375 143.404C116.375 142.666 116.514 142.012 116.792 141.442C117.075 140.873 117.466 140.426 117.968 140.103C118.474 139.779 119.059 139.617 119.725 139.617C120.395 139.617 120.98 139.779 121.481 140.103C121.983 140.426 122.372 140.873 122.65 141.442C122.933 142.012 123.074 142.666 123.074 143.404C123.074 144.138 122.933 144.787 122.65 145.353C122.372 145.918 121.983 146.362 121.481 146.686C120.98 147.005 120.395 147.164 119.725 147.164ZM119.725 146.111C120.408 146.111 120.941 145.865 121.324 145.373C121.707 144.876 121.898 144.22 121.898 143.404C121.898 142.579 121.705 141.919 121.317 141.422C120.935 140.921 120.404 140.67 119.725 140.67C119.046 140.67 118.512 140.918 118.125 141.415C117.742 141.912 117.551 142.575 117.551 143.404C117.551 144.225 117.742 144.881 118.125 145.373C118.508 145.865 119.041 146.111 119.725 146.111ZM123.457 147L126.561 143.336L123.498 139.781H124.879L127.436 142.844H128.064V139.781H129.227V142.844H129.842L132.385 139.781H133.779L130.73 143.336L133.82 147H132.412L129.828 143.938H129.227V147H128.064V143.938H127.463L124.865 147H123.457ZM137.553 147.164C136.846 147.164 136.243 147.002 135.741 146.679C135.244 146.355 134.864 145.911 134.6 145.346C134.335 144.776 134.203 144.129 134.203 143.404C134.203 142.671 134.342 142.019 134.62 141.449C134.898 140.88 135.283 140.433 135.775 140.109C136.268 139.781 136.833 139.617 137.471 139.617C138.141 139.617 138.722 139.777 139.214 140.096C139.706 140.415 140.084 140.859 140.349 141.429C140.618 141.998 140.752 142.657 140.752 143.404V143.726H135.352C135.379 144.432 135.582 145.006 135.96 145.448C136.338 145.89 136.869 146.111 137.553 146.111C138.068 146.111 138.487 145.993 138.811 145.756C139.139 145.519 139.357 145.214 139.467 144.84H140.629C140.538 145.3 140.349 145.706 140.062 146.057C139.774 146.403 139.414 146.674 138.981 146.87C138.553 147.066 138.077 147.164 137.553 147.164ZM135.365 142.728H139.59C139.526 142.094 139.305 141.59 138.927 141.217C138.549 140.843 138.063 140.656 137.471 140.656C136.878 140.656 136.395 140.843 136.021 141.217C135.648 141.59 135.429 142.094 135.365 142.728ZM143.24 139.781V142.844H146.959V139.781H148.121V147H146.959V143.938H143.24V147H142.078V139.781H143.24ZM155.887 147H154.725V141.62H154.704L151.006 147H149.844V139.781H151.006V145.168H151.026L154.725 139.781H155.887V147ZM157.609 147V139.781H158.771V142.844H160.562C160.635 142.206 160.818 141.645 161.109 141.162C161.401 140.674 161.784 140.296 162.258 140.027C162.732 139.754 163.274 139.617 163.885 139.617C164.555 139.617 165.14 139.779 165.642 140.103C166.143 140.426 166.533 140.873 166.811 141.442C167.093 142.012 167.234 142.666 167.234 143.404C167.234 144.138 167.093 144.787 166.811 145.353C166.533 145.918 166.143 146.362 165.642 146.686C165.14 147.005 164.555 147.164 163.885 147.164C163.274 147.164 162.729 147.03 162.251 146.761C161.777 146.487 161.394 146.109 161.103 145.626C160.811 145.138 160.631 144.576 160.562 143.938H158.771V147H157.609ZM163.885 146.111C164.568 146.111 165.102 145.865 165.484 145.373C165.867 144.876 166.059 144.22 166.059 143.404C166.059 142.579 165.865 141.919 165.478 141.422C165.095 140.921 164.564 140.67 163.885 140.67C163.206 140.67 162.673 140.918 162.285 141.415C161.902 141.912 161.711 142.575 161.711 143.404C161.711 144.225 161.902 144.881 162.285 145.373C162.668 145.865 163.201 146.111 163.885 146.111ZM178.09 139.781V147H176.928V140.875H173.25V147H172.088V139.781H178.09ZM182.793 147.164C182.128 147.164 181.542 147.005 181.036 146.686C180.535 146.362 180.143 145.918 179.86 145.353C179.582 144.787 179.443 144.138 179.443 143.404C179.443 142.666 179.582 142.012 179.86 141.442C180.143 140.873 180.535 140.426 181.036 140.103C181.542 139.779 182.128 139.617 182.793 139.617C183.463 139.617 184.049 139.779 184.55 140.103C185.051 140.426 185.441 140.873 185.719 141.442C186.001 142.012 186.143 142.666 186.143 143.404C186.143 144.138 186.001 144.787 185.719 145.353C185.441 145.918 185.051 146.362 184.55 146.686C184.049 147.005 183.463 147.164 182.793 147.164ZM182.793 146.111C183.477 146.111 184.01 145.865 184.393 145.373C184.775 144.876 184.967 144.22 184.967 143.404C184.967 142.579 184.773 141.919 184.386 141.422C184.003 140.921 183.472 140.67 182.793 140.67C182.114 140.67 181.581 140.918 181.193 141.415C180.811 141.912 180.619 142.575 180.619 143.404C180.619 144.225 180.811 144.881 181.193 145.373C181.576 145.865 182.109 146.111 182.793 146.111ZM186.792 149.188V145.906H187.421C187.631 145.688 187.804 145.453 187.94 145.202C188.077 144.951 188.189 144.623 188.275 144.218C188.367 143.812 188.442 143.272 188.501 142.598L188.761 139.781H193.614V145.906H194.776V149.188H193.614V147H187.954V149.188H186.792ZM188.761 145.906H192.452V140.875H189.82L189.649 142.598C189.576 143.34 189.476 143.99 189.349 144.546C189.226 145.102 189.03 145.555 188.761 145.906ZM201.455 136.5L202.057 137.211C201.824 137.439 201.555 137.598 201.25 137.689C200.945 137.776 200.598 137.831 200.211 137.854C199.828 137.872 199.4 137.89 198.926 137.908C198.133 137.94 197.54 138.216 197.148 138.735C196.761 139.255 196.529 140.009 196.451 140.998H196.547C196.802 140.52 197.158 140.169 197.613 139.945C198.074 139.717 198.566 139.604 199.09 139.604C199.687 139.604 200.222 139.743 200.696 140.021C201.175 140.299 201.553 140.711 201.831 141.258C202.109 141.805 202.248 142.479 202.248 143.281C202.248 144.079 202.107 144.769 201.824 145.353C201.542 145.931 201.145 146.378 200.635 146.692C200.129 147.007 199.536 147.164 198.857 147.164C197.827 147.164 196.998 146.799 196.369 146.07C195.74 145.341 195.426 144.27 195.426 142.857V142.051C195.435 138.619 196.597 136.874 198.912 136.814C199.058 136.81 199.199 136.808 199.336 136.808C199.473 136.808 199.603 136.808 199.726 136.808C200.118 136.812 200.455 136.803 200.737 136.78C201.024 136.753 201.264 136.66 201.455 136.5ZM198.857 146.111C199.546 146.107 200.086 145.849 200.478 145.339C200.874 144.828 201.072 144.143 201.072 143.281C201.072 142.447 200.874 141.802 200.478 141.347C200.081 140.886 199.532 140.656 198.83 140.656C198.151 140.656 197.613 140.886 197.217 141.347C196.82 141.802 196.615 142.447 196.602 143.281C196.602 144.133 196.802 144.817 197.203 145.332C197.604 145.847 198.156 146.107 198.857 146.111ZM206.582 147.164C205.917 147.164 205.331 147.005 204.825 146.686C204.324 146.362 203.932 145.918 203.649 145.353C203.371 144.787 203.232 144.138 203.232 143.404C203.232 142.666 203.371 142.012 203.649 141.442C203.932 140.873 204.324 140.426 204.825 140.103C205.331 139.779 205.917 139.617 206.582 139.617C207.252 139.617 207.838 139.779 208.339 140.103C208.84 140.426 209.23 140.873 209.508 141.442C209.79 142.012 209.932 142.666 209.932 143.404C209.932 144.138 209.79 144.787 209.508 145.353C209.23 145.918 208.84 146.362 208.339 146.686C207.838 147.005 207.252 147.164 206.582 147.164ZM206.582 146.111C207.266 146.111 207.799 145.865 208.182 145.373C208.564 144.876 208.756 144.22 208.756 143.404C208.756 142.579 208.562 141.919 208.175 141.422C207.792 140.921 207.261 140.67 206.582 140.67C205.903 140.67 205.37 140.918 204.982 141.415C204.6 141.912 204.408 142.575 204.408 143.404C204.408 144.225 204.6 144.881 204.982 145.373C205.365 145.865 205.898 146.111 206.582 146.111ZM211.285 149.857V139.781H212.42V140.848H212.434C212.666 140.442 212.987 140.141 213.397 139.945C213.808 139.745 214.247 139.645 214.717 139.645C215.346 139.645 215.895 139.802 216.364 140.116C216.834 140.431 217.198 140.87 217.458 141.436C217.718 141.996 217.848 142.648 217.848 143.391C217.848 144.129 217.718 144.781 217.458 145.346C217.198 145.906 216.834 146.346 216.364 146.665C215.895 146.979 215.346 147.137 214.717 147.137C214.247 147.137 213.819 147.036 213.432 146.836C213.044 146.631 212.721 146.321 212.461 145.906H212.447V149.857H211.285ZM214.539 146.091C215.163 146.091 215.674 145.863 216.07 145.407C216.471 144.947 216.672 144.275 216.672 143.391C216.672 142.507 216.471 141.834 216.07 141.374C215.674 140.914 215.163 140.684 214.539 140.684C213.869 140.684 213.336 140.932 212.939 141.429C212.548 141.921 212.352 142.575 212.352 143.391C212.352 144.206 212.548 144.86 212.939 145.353C213.336 145.845 213.869 146.091 214.539 146.091ZM21.8613 164V156.781H23.0234V159.898H23.8027L26.5713 156.781H28.0547L24.9785 160.268L28.0957 164H26.6191L24.1035 160.992H23.0234V164H21.8613ZM31.5957 164.164C30.9303 164.164 30.3447 164.005 29.8389 163.686C29.3376 163.362 28.9456 162.918 28.6631 162.353C28.3851 161.787 28.2461 161.138 28.2461 160.404C28.2461 159.666 28.3851 159.012 28.6631 158.442C28.9456 157.873 29.3376 157.426 29.8389 157.103C30.3447 156.779 30.9303 156.617 31.5957 156.617C32.2656 156.617 32.8512 156.779 33.3525 157.103C33.8538 157.426 34.2435 157.873 34.5215 158.442C34.804 159.012 34.9453 159.666 34.9453 160.404C34.9453 161.138 34.804 161.787 34.5215 162.353C34.2435 162.918 33.8538 163.362 33.3525 163.686C32.8512 164.005 32.2656 164.164 31.5957 164.164ZM31.5957 163.111C32.2793 163.111 32.8125 162.865 33.1953 162.373C33.5781 161.876 33.7695 161.22 33.7695 160.404C33.7695 159.579 33.5758 158.919 33.1885 158.422C32.8057 157.921 32.2747 157.67 31.5957 157.67C30.9167 157.67 30.3835 157.918 29.9961 158.415C29.6133 158.912 29.4219 159.575 29.4219 160.404C29.4219 161.225 29.6133 161.881 29.9961 162.373C30.3789 162.865 30.9121 163.111 31.5957 163.111ZM37.4609 156.781V159.844H41.1797V156.781H42.3418V164H41.1797V160.938H37.4609V164H36.2988V156.781H37.4609ZM45.8281 164V157.834H43.3057V156.781H49.499V157.834H46.9902V164H45.8281ZM53.3066 164.164C52.6003 164.164 51.9964 164.002 51.4951 163.679C50.9984 163.355 50.6178 162.911 50.3535 162.346C50.0892 161.776 49.957 161.129 49.957 160.404C49.957 159.671 50.096 159.019 50.374 158.449C50.652 157.88 51.0371 157.433 51.5293 157.109C52.0215 156.781 52.5866 156.617 53.2246 156.617C53.8945 156.617 54.4756 156.777 54.9678 157.096C55.46 157.415 55.8382 157.859 56.1025 158.429C56.3714 158.998 56.5059 159.657 56.5059 160.404V160.726H51.1055C51.1328 161.432 51.3356 162.006 51.7139 162.448C52.0921 162.89 52.623 163.111 53.3066 163.111C53.8216 163.111 54.2409 162.993 54.5645 162.756C54.8926 162.519 55.1113 162.214 55.2207 161.84H56.3828C56.2917 162.3 56.1025 162.706 55.8154 163.057C55.5283 163.403 55.1683 163.674 54.7354 163.87C54.307 164.066 53.8307 164.164 53.3066 164.164ZM51.1191 159.728H55.3438C55.2799 159.094 55.0589 158.59 54.6807 158.217C54.3024 157.843 53.8171 157.656 53.2246 157.656C52.6322 157.656 52.1491 157.843 51.7754 158.217C51.4017 158.59 51.1829 159.094 51.1191 159.728ZM58.9941 156.781V159.844H62.7129V156.781H63.875V164H62.7129V160.938H58.9941V164H57.832V156.781H58.9941ZM67.3613 164V157.834H64.8389V156.781H71.0322V157.834H68.5234V164H67.3613ZM73.9785 164.109C73.263 164.109 72.6637 163.925 72.1807 163.556C71.7021 163.187 71.4629 162.642 71.4629 161.922C71.4629 161.507 71.5426 161.17 71.7021 160.91C71.8662 160.65 72.0827 160.448 72.3516 160.302C72.625 160.151 72.9326 160.037 73.2744 159.96C73.6208 159.882 73.974 159.821 74.334 159.775C74.7943 159.712 75.1566 159.664 75.4209 159.632C75.6852 159.6 75.8721 159.548 75.9814 159.475C76.0954 159.402 76.1523 159.274 76.1523 159.092V159.023C76.1523 158.632 76.0111 158.308 75.7285 158.053C75.4505 157.798 75.0586 157.67 74.5527 157.67C74.0514 157.67 73.639 157.793 73.3154 158.039C72.9964 158.281 72.8232 158.581 72.7959 158.941H71.6133C71.6361 158.499 71.7728 158.107 72.0234 157.766C72.2741 157.419 72.6159 157.146 73.0488 156.945C73.4818 156.745 73.9831 156.645 74.5527 156.645C75.3958 156.645 76.0635 156.863 76.5557 157.301C77.0524 157.734 77.3008 158.308 77.3008 159.023V164H76.1523V162.975H76.125C76.0384 163.148 75.9108 163.323 75.7422 163.501C75.5736 163.674 75.3457 163.82 75.0586 163.938C74.776 164.052 74.416 164.109 73.9785 164.109ZM74.1426 163.07C74.6165 163.07 75.0016 162.986 75.2979 162.817C75.5941 162.644 75.8105 162.421 75.9473 162.147C76.084 161.874 76.1523 161.58 76.1523 161.266V160.363C76.0658 160.445 75.8356 160.521 75.4619 160.589C75.0882 160.653 74.694 160.714 74.2793 160.773C74.0013 160.81 73.737 160.874 73.4863 160.965C73.2402 161.051 73.0397 161.177 72.8848 161.341C72.7298 161.5 72.6523 161.717 72.6523 161.99C72.6523 162.327 72.7845 162.592 73.0488 162.783C73.3177 162.975 73.6823 163.07 74.1426 163.07ZM78.5449 165.921L79.1465 162.578H80.3906L79.3926 165.921H78.5449ZM88.457 161.812C87.5911 161.812 86.8984 161.58 86.3789 161.115C85.8594 160.646 85.5996 159.944 85.5996 159.01V156.781H86.7617V159.01C86.7617 159.593 86.9235 160.024 87.2471 160.302C87.5752 160.58 87.9785 160.719 88.457 160.719C88.8034 160.719 89.127 160.696 89.4277 160.65C89.7285 160.605 90.0202 160.541 90.3027 160.459V156.781H91.4648V164H90.3027V161.56C90.0247 161.637 89.7376 161.699 89.4414 161.744C89.1452 161.79 88.8171 161.812 88.457 161.812ZM94.9512 164V157.834H92.4287V156.781H98.6221V157.834H96.1133V164H94.9512ZM102.43 164.164C101.764 164.164 101.179 164.005 100.673 163.686C100.172 163.362 99.7796 162.918 99.4971 162.353C99.2191 161.787 99.0801 161.138 99.0801 160.404C99.0801 159.666 99.2191 159.012 99.4971 158.442C99.7796 157.873 100.172 157.426 100.673 157.103C101.179 156.779 101.764 156.617 102.43 156.617C103.1 156.617 103.685 156.779 104.187 157.103C104.688 157.426 105.077 157.873 105.355 158.442C105.638 159.012 105.779 159.666 105.779 160.404C105.779 161.138 105.638 161.787 105.355 162.353C105.077 162.918 104.688 163.362 104.187 163.686C103.685 164.005 103.1 164.164 102.43 164.164ZM102.43 163.111C103.113 163.111 103.646 162.865 104.029 162.373C104.412 161.876 104.604 161.22 104.604 160.404C104.604 159.579 104.41 158.919 104.022 158.422C103.64 157.921 103.109 157.67 102.43 157.67C101.751 157.67 101.217 157.918 100.83 158.415C100.447 158.912 100.256 159.575 100.256 160.404C100.256 161.225 100.447 161.881 100.83 162.373C101.213 162.865 101.746 163.111 102.43 163.111ZM116.635 156.781V164H115.473V157.875H111.795V164H110.633V156.781H116.635ZM118.357 166.857V156.781H119.492V157.848H119.506C119.738 157.442 120.06 157.141 120.47 156.945C120.88 156.745 121.32 156.645 121.789 156.645C122.418 156.645 122.967 156.802 123.437 157.116C123.906 157.431 124.271 157.87 124.53 158.436C124.79 158.996 124.92 159.648 124.92 160.391C124.92 161.129 124.79 161.781 124.53 162.346C124.271 162.906 123.906 163.346 123.437 163.665C122.967 163.979 122.418 164.137 121.789 164.137C121.32 164.137 120.891 164.036 120.504 163.836C120.117 163.631 119.793 163.321 119.533 162.906H119.52V166.857H118.357ZM121.611 163.091C122.236 163.091 122.746 162.863 123.143 162.407C123.544 161.947 123.744 161.275 123.744 160.391C123.744 159.507 123.544 158.834 123.143 158.374C122.746 157.914 122.236 157.684 121.611 157.684C120.941 157.684 120.408 157.932 120.012 158.429C119.62 158.921 119.424 159.575 119.424 160.391C119.424 161.206 119.62 161.86 120.012 162.353C120.408 162.845 120.941 163.091 121.611 163.091ZM132.316 164H131.154V158.62H131.134L127.436 164H126.273V156.781H127.436V162.168H127.456L131.154 156.781H132.316V164ZM134.039 164V156.781H137.047C137.867 156.781 138.519 156.948 139.002 157.28C139.485 157.613 139.727 158.087 139.727 158.702C139.727 159.131 139.608 159.468 139.371 159.714C139.134 159.955 138.82 160.119 138.428 160.206C138.697 160.247 138.952 160.336 139.193 160.473C139.435 160.605 139.631 160.794 139.781 161.04C139.936 161.282 140.014 161.587 140.014 161.956C140.014 162.562 139.793 163.054 139.351 163.433C138.909 163.811 138.3 164 137.525 164H134.039ZM135.146 162.92H137.525C137.94 162.92 138.257 162.833 138.476 162.66C138.699 162.482 138.811 162.234 138.811 161.915C138.811 161.555 138.699 161.279 138.476 161.088C138.257 160.892 137.94 160.794 137.525 160.794H135.146V162.92ZM135.146 159.796H137.102C137.566 159.796 137.924 159.709 138.175 159.536C138.425 159.358 138.551 159.108 138.551 158.784C138.551 158.488 138.421 158.26 138.161 158.101C137.901 157.941 137.53 157.861 137.047 157.861H135.146V159.796ZM144.361 164.164C143.655 164.164 143.051 164.002 142.55 163.679C142.053 163.355 141.673 162.911 141.408 162.346C141.144 161.776 141.012 161.129 141.012 160.404C141.012 159.671 141.151 159.019 141.429 158.449C141.707 157.88 142.092 157.433 142.584 157.109C143.076 156.781 143.641 156.617 144.279 156.617C144.949 156.617 145.53 156.777 146.022 157.096C146.515 157.415 146.893 157.859 147.157 158.429C147.426 158.998 147.561 159.657 147.561 160.404V160.726H142.16C142.188 161.432 142.39 162.006 142.769 162.448C143.147 162.89 143.678 163.111 144.361 163.111C144.876 163.111 145.296 162.993 145.619 162.756C145.947 162.519 146.166 162.214 146.275 161.84H147.438C147.346 162.3 147.157 162.706 146.87 163.057C146.583 163.403 146.223 163.674 145.79 163.87C145.362 164.066 144.885 164.164 144.361 164.164ZM142.174 159.728H146.398C146.335 159.094 146.114 158.59 145.735 158.217C145.357 157.843 144.872 157.656 144.279 157.656C143.687 157.656 143.204 157.843 142.83 158.217C142.456 158.59 142.238 159.094 142.174 159.728ZM148.183 166.188V162.906H148.812C149.021 162.688 149.194 162.453 149.331 162.202C149.468 161.951 149.579 161.623 149.666 161.218C149.757 160.812 149.832 160.272 149.892 159.598L150.151 156.781H155.005V162.906H156.167V166.188H155.005V164H149.345V166.188H148.183ZM150.151 162.906H153.843V157.875H151.211L151.04 159.598C150.967 160.34 150.867 160.99 150.739 161.546C150.616 162.102 150.42 162.555 150.151 162.906ZM160.166 164.164C159.46 164.164 158.856 164.002 158.354 163.679C157.858 163.355 157.477 162.911 157.213 162.346C156.949 161.776 156.816 161.129 156.816 160.404C156.816 159.671 156.955 159.019 157.233 158.449C157.511 157.88 157.896 157.433 158.389 157.109C158.881 156.781 159.446 156.617 160.084 156.617C160.754 156.617 161.335 156.777 161.827 157.096C162.319 157.415 162.698 157.859 162.962 158.429C163.231 158.998 163.365 159.657 163.365 160.404V160.726H157.965C157.992 161.432 158.195 162.006 158.573 162.448C158.951 162.89 159.482 163.111 160.166 163.111C160.681 163.111 161.1 162.993 161.424 162.756C161.752 162.519 161.971 162.214 162.08 161.84H163.242C163.151 162.3 162.962 162.706 162.675 163.057C162.388 163.403 162.028 163.674 161.595 163.87C161.166 164.066 160.69 164.164 160.166 164.164ZM157.979 159.728H162.203C162.139 159.094 161.918 158.59 161.54 158.217C161.162 157.843 160.676 157.656 160.084 157.656C159.492 157.656 159.008 157.843 158.635 158.217C158.261 158.59 158.042 159.094 157.979 159.728ZM158.655 155.373C158.437 155.373 158.25 155.296 158.095 155.141C157.94 154.986 157.862 154.799 157.862 154.58C157.862 154.361 157.94 154.174 158.095 154.02C158.25 153.865 158.437 153.787 158.655 153.787C158.874 153.787 159.061 153.865 159.216 154.02C159.371 154.174 159.448 154.361 159.448 154.58C159.448 154.799 159.371 154.986 159.216 155.141C159.061 155.296 158.874 155.373 158.655 155.373ZM161.513 155.373C161.294 155.373 161.107 155.296 160.952 155.141C160.797 154.986 160.72 154.799 160.72 154.58C160.72 154.361 160.797 154.174 160.952 154.02C161.107 153.865 161.294 153.787 161.513 153.787C161.731 153.787 161.918 153.865 162.073 154.02C162.228 154.174 162.306 154.361 162.306 154.58C162.306 154.799 162.228 154.986 162.073 155.141C161.918 155.296 161.731 155.373 161.513 155.373ZM166.455 164V157.834H163.933V156.781H170.126V157.834H167.617V164H166.455ZM174.59 164V156.781H175.752V159.898H176.531L179.3 156.781H180.783L177.707 160.268L180.824 164H179.348L176.832 160.992H175.752V164H174.59ZM185.158 166.857V156.781H186.293V157.848H186.307C186.539 157.442 186.86 157.141 187.271 156.945C187.681 156.745 188.12 156.645 188.59 156.645C189.219 156.645 189.768 156.802 190.237 157.116C190.707 157.431 191.071 157.87 191.331 158.436C191.591 158.996 191.721 159.648 191.721 160.391C191.721 161.129 191.591 161.781 191.331 162.346C191.071 162.906 190.707 163.346 190.237 163.665C189.768 163.979 189.219 164.137 188.59 164.137C188.12 164.137 187.692 164.036 187.305 163.836C186.917 163.631 186.594 163.321 186.334 162.906H186.32V166.857H185.158ZM188.412 163.091C189.036 163.091 189.547 162.863 189.943 162.407C190.344 161.947 190.545 161.275 190.545 160.391C190.545 159.507 190.344 158.834 189.943 158.374C189.547 157.914 189.036 157.684 188.412 157.684C187.742 157.684 187.209 157.932 186.812 158.429C186.421 158.921 186.225 159.575 186.225 160.391C186.225 161.206 186.421 161.86 186.812 162.353C187.209 162.845 187.742 163.091 188.412 163.091ZM196.055 164.164C195.389 164.164 194.804 164.005 194.298 163.686C193.797 163.362 193.405 162.918 193.122 162.353C192.844 161.787 192.705 161.138 192.705 160.404C192.705 159.666 192.844 159.012 193.122 158.442C193.405 157.873 193.797 157.426 194.298 157.103C194.804 156.779 195.389 156.617 196.055 156.617C196.725 156.617 197.31 156.779 197.812 157.103C198.313 157.426 198.702 157.873 198.98 158.442C199.263 159.012 199.404 159.666 199.404 160.404C199.404 161.138 199.263 161.787 198.98 162.353C198.702 162.918 198.313 163.362 197.812 163.686C197.31 164.005 196.725 164.164 196.055 164.164ZM196.055 163.111C196.738 163.111 197.271 162.865 197.654 162.373C198.037 161.876 198.229 161.22 198.229 160.404C198.229 159.579 198.035 158.919 197.647 158.422C197.265 157.921 196.734 157.67 196.055 157.67C195.376 157.67 194.842 157.918 194.455 158.415C194.072 158.912 193.881 159.575 193.881 160.404C193.881 161.225 194.072 161.881 194.455 162.373C194.838 162.865 195.371 163.111 196.055 163.111ZM203.738 164.164C203.073 164.164 202.487 164.005 201.981 163.686C201.48 163.362 201.088 162.918 200.806 162.353C200.528 161.787 200.389 161.138 200.389 160.404C200.389 159.666 200.528 159.012 200.806 158.442C201.088 157.873 201.48 157.426 201.981 157.103C202.487 156.779 203.073 156.617 203.738 156.617C204.285 156.617 204.775 156.727 205.208 156.945C205.641 157.16 205.994 157.456 206.268 157.834C206.546 158.212 206.716 158.645 206.78 159.133H205.604C205.518 158.709 205.317 158.36 205.003 158.087C204.693 157.809 204.271 157.67 203.738 157.67C203.059 157.67 202.526 157.918 202.139 158.415C201.756 158.912 201.564 159.575 201.564 160.404C201.564 161.225 201.756 161.881 202.139 162.373C202.521 162.865 203.055 163.111 203.738 163.111C204.281 163.111 204.695 162.979 204.982 162.715C205.27 162.446 205.47 162.09 205.584 161.648H206.78C206.716 162.122 206.546 162.551 206.268 162.934C205.994 163.312 205.639 163.613 205.201 163.836C204.768 164.055 204.281 164.164 203.738 164.164ZM209.85 164V157.834H207.327V156.781H213.521V157.834H211.012V164H209.85ZM214.662 166.857V165.832H215.373C215.801 165.832 216.127 165.543 216.351 164.964L216.747 163.938L213.951 156.781H215.209L216.768 160.938C216.868 161.206 216.966 161.478 217.062 161.751C217.162 162.02 217.257 162.289 217.349 162.558C217.444 162.289 217.54 162.02 217.636 161.751C217.736 161.478 217.836 161.206 217.937 160.938L219.468 156.781H220.705L217.376 165.34C217.189 165.823 216.923 166.197 216.576 166.461C216.23 166.725 215.829 166.857 215.373 166.857H214.662ZM228.252 164.164C227.587 164.164 227.001 164.005 226.495 163.686C225.994 163.362 225.602 162.918 225.319 162.353C225.041 161.787 224.902 161.138 224.902 160.404C224.902 159.666 225.041 159.012 225.319 158.442C225.602 157.873 225.994 157.426 226.495 157.103C227.001 156.779 227.587 156.617 228.252 156.617C228.799 156.617 229.289 156.727 229.722 156.945C230.155 157.16 230.508 157.456 230.781 157.834C231.059 158.212 231.23 158.645 231.294 159.133H230.118C230.032 158.709 229.831 158.36 229.517 158.087C229.207 157.809 228.785 157.67 228.252 157.67C227.573 157.67 227.04 157.918 226.652 158.415C226.27 158.912 226.078 159.575 226.078 160.404C226.078 161.225 226.27 161.881 226.652 162.373C227.035 162.865 227.568 163.111 228.252 163.111C228.794 163.111 229.209 162.979 229.496 162.715C229.783 162.446 229.984 162.09 230.098 161.648H231.294C231.23 162.122 231.059 162.551 230.781 162.934C230.508 163.312 230.152 163.613 229.715 163.836C229.282 164.055 228.794 164.164 228.252 164.164ZM232.6 166.857V156.781H233.734V157.848H233.748C233.98 157.442 234.302 157.141 234.712 156.945C235.122 156.745 235.562 156.645 236.031 156.645C236.66 156.645 237.209 156.802 237.679 157.116C238.148 157.431 238.513 157.87 238.772 158.436C239.032 158.996 239.162 159.648 239.162 160.391C239.162 161.129 239.032 161.781 238.772 162.346C238.513 162.906 238.148 163.346 237.679 163.665C237.209 163.979 236.66 164.137 236.031 164.137C235.562 164.137 235.133 164.036 234.746 163.836C234.359 163.631 234.035 163.321 233.775 162.906H233.762V166.857H232.6ZM235.854 163.091C236.478 163.091 236.988 162.863 237.385 162.407C237.786 161.947 237.986 161.275 237.986 160.391C237.986 159.507 237.786 158.834 237.385 158.374C236.988 157.914 236.478 157.684 235.854 157.684C235.184 157.684 234.65 157.932 234.254 158.429C233.862 158.921 233.666 159.575 233.666 160.391C233.666 161.206 233.862 161.86 234.254 162.353C234.65 162.845 235.184 163.091 235.854 163.091ZM243.496 164.164C242.79 164.164 242.186 164.002 241.685 163.679C241.188 163.355 240.807 162.911 240.543 162.346C240.279 161.776 240.146 161.129 240.146 160.404C240.146 159.671 240.285 159.019 240.563 158.449C240.841 157.88 241.227 157.433 241.719 157.109C242.211 156.781 242.776 156.617 243.414 156.617C244.084 156.617 244.665 156.777 245.157 157.096C245.649 157.415 246.028 157.859 246.292 158.429C246.561 158.998 246.695 159.657 246.695 160.404V160.726H241.295C241.322 161.432 241.525 162.006 241.903 162.448C242.282 162.89 242.812 163.111 243.496 163.111C244.011 163.111 244.43 162.993 244.754 162.756C245.082 162.519 245.301 162.214 245.41 161.84H246.572C246.481 162.3 246.292 162.706 246.005 163.057C245.718 163.403 245.358 163.674 244.925 163.87C244.496 164.066 244.02 164.164 243.496 164.164ZM241.309 159.728H245.533C245.469 159.094 245.248 158.59 244.87 158.217C244.492 157.843 244.007 157.656 243.414 157.656C242.822 157.656 242.339 157.843 241.965 158.217C241.591 158.59 241.372 159.094 241.309 159.728ZM247.317 166.188V162.906H247.946C248.156 162.688 248.329 162.453 248.466 162.202C248.603 161.951 248.714 161.623 248.801 161.218C248.892 160.812 248.967 160.272 249.026 159.598L249.286 156.781H254.14V162.906H255.302V166.188H254.14V164H248.479V166.188H247.317ZM249.286 162.906H252.978V157.875H250.346L250.175 159.598C250.102 160.34 250.002 160.99 249.874 161.546C249.751 162.102 249.555 162.555 249.286 162.906ZM257.482 156.781V159.844H261.201V156.781H262.363V164H261.201V160.938H257.482V164H256.32V156.781H257.482ZM270.129 164H268.967V158.62H268.946L265.248 164H264.086V156.781H265.248V162.168H265.269L268.967 156.781H270.129V164ZM271.195 164L273.889 160.322L271.353 156.781H272.72L273.697 158.203C273.843 158.417 273.987 158.629 274.128 158.839C274.269 159.049 274.41 159.258 274.552 159.468C274.698 159.258 274.841 159.049 274.982 158.839C275.124 158.629 275.27 158.417 275.42 158.203L276.411 156.781H277.758L275.222 160.315L277.881 164H276.521L275.372 162.359C275.231 162.159 275.092 161.958 274.955 161.758C274.818 161.557 274.682 161.357 274.545 161.156C274.408 161.357 274.269 161.557 274.128 161.758C273.991 161.958 273.852 162.159 273.711 162.359L272.549 164H271.195ZM24.7188 178.812C23.8529 178.812 23.1602 178.58 22.6406 178.115C22.1211 177.646 21.8613 176.944 21.8613 176.01V173.781H23.0234V176.01C23.0234 176.593 23.1852 177.024 23.5088 177.302C23.8369 177.58 24.2402 177.719 24.7188 177.719C25.0651 177.719 25.3887 177.696 25.6895 177.65C25.9902 177.605 26.2819 177.541 26.5645 177.459V173.781H27.7266V181H26.5645V178.56C26.2865 178.637 25.9993 178.699 25.7031 178.744C25.4069 178.79 25.0788 178.812 24.7188 178.812ZM31.6504 181.109C30.9349 181.109 30.3356 180.925 29.8525 180.556C29.374 180.187 29.1348 179.642 29.1348 178.922C29.1348 178.507 29.2145 178.17 29.374 177.91C29.5381 177.65 29.7546 177.448 30.0234 177.302C30.2969 177.151 30.6045 177.037 30.9463 176.96C31.2926 176.882 31.6458 176.821 32.0059 176.775C32.4661 176.712 32.8285 176.664 33.0928 176.632C33.3571 176.6 33.5439 176.548 33.6533 176.475C33.7673 176.402 33.8242 176.274 33.8242 176.092V176.023C33.8242 175.632 33.6829 175.308 33.4004 175.053C33.1224 174.798 32.7305 174.67 32.2246 174.67C31.7233 174.67 31.3109 174.793 30.9873 175.039C30.6683 175.281 30.4951 175.581 30.4678 175.941H29.2852C29.3079 175.499 29.4447 175.107 29.6953 174.766C29.946 174.419 30.2878 174.146 30.7207 173.945C31.1536 173.745 31.6549 173.645 32.2246 173.645C33.0677 173.645 33.7354 173.863 34.2275 174.301C34.7243 174.734 34.9727 175.308 34.9727 176.023V181H33.8242V179.975H33.7969C33.7103 180.148 33.5827 180.323 33.4141 180.501C33.2454 180.674 33.0176 180.82 32.7305 180.938C32.4479 181.052 32.0879 181.109 31.6504 181.109ZM31.8145 180.07C32.2884 180.07 32.6735 179.986 32.9697 179.817C33.266 179.644 33.4824 179.421 33.6191 179.147C33.7559 178.874 33.8242 178.58 33.8242 178.266V177.363C33.7376 177.445 33.5075 177.521 33.1338 177.589C32.7601 177.653 32.3659 177.714 31.9512 177.773C31.6732 177.81 31.4089 177.874 31.1582 177.965C30.9121 178.051 30.7116 178.177 30.5566 178.341C30.4017 178.5 30.3242 178.717 30.3242 178.99C30.3242 179.327 30.4564 179.592 30.7207 179.783C30.9896 179.975 31.3542 180.07 31.8145 180.07ZM39.6758 181.164C39.0104 181.164 38.4248 181.005 37.9189 180.686C37.4176 180.362 37.0257 179.918 36.7432 179.353C36.4652 178.787 36.3262 178.138 36.3262 177.404C36.3262 176.666 36.4652 176.012 36.7432 175.442C37.0257 174.873 37.4176 174.426 37.9189 174.103C38.4248 173.779 39.0104 173.617 39.6758 173.617C40.2227 173.617 40.7126 173.727 41.1455 173.945C41.5785 174.16 41.9316 174.456 42.2051 174.834C42.4831 175.212 42.654 175.645 42.7178 176.133H41.542C41.4554 175.709 41.2549 175.36 40.9404 175.087C40.6305 174.809 40.209 174.67 39.6758 174.67C38.9967 174.67 38.4635 174.918 38.0762 175.415C37.6934 175.912 37.502 176.575 37.502 177.404C37.502 178.225 37.6934 178.881 38.0762 179.373C38.459 179.865 38.9922 180.111 39.6758 180.111C40.2181 180.111 40.6328 179.979 40.9199 179.715C41.207 179.446 41.4076 179.09 41.5215 178.648H42.7178C42.654 179.122 42.4831 179.551 42.2051 179.934C41.9316 180.312 41.5762 180.613 41.1387 180.836C40.7057 181.055 40.2181 181.164 39.6758 181.164ZM47.0039 181.164C46.3385 181.164 45.7529 181.005 45.2471 180.686C44.7458 180.362 44.3538 179.918 44.0713 179.353C43.7933 178.787 43.6543 178.138 43.6543 177.404C43.6543 176.666 43.7933 176.012 44.0713 175.442C44.3538 174.873 44.7458 174.426 45.2471 174.103C45.7529 173.779 46.3385 173.617 47.0039 173.617C47.6738 173.617 48.2594 173.779 48.7607 174.103C49.262 174.426 49.6517 174.873 49.9297 175.442C50.2122 176.012 50.3535 176.666 50.3535 177.404C50.3535 178.138 50.2122 178.787 49.9297 179.353C49.6517 179.918 49.262 180.362 48.7607 180.686C48.2594 181.005 47.6738 181.164 47.0039 181.164ZM47.0039 180.111C47.6875 180.111 48.2207 179.865 48.6035 179.373C48.9863 178.876 49.1777 178.22 49.1777 177.404C49.1777 176.579 48.984 175.919 48.5967 175.422C48.2139 174.921 47.6829 174.67 47.0039 174.67C46.3249 174.67 45.7917 174.918 45.4043 175.415C45.0215 175.912 44.8301 176.575 44.8301 177.404C44.8301 178.225 45.0215 178.881 45.4043 179.373C45.7871 179.865 46.3203 180.111 47.0039 180.111ZM51.707 181V173.781H54.7148C55.5352 173.781 56.1868 173.948 56.6699 174.28C57.153 174.613 57.3945 175.087 57.3945 175.702C57.3945 176.131 57.276 176.468 57.0391 176.714C56.8021 176.955 56.4876 177.119 56.0957 177.206C56.3646 177.247 56.6198 177.336 56.8613 177.473C57.1029 177.605 57.2988 177.794 57.4492 178.04C57.6042 178.282 57.6816 178.587 57.6816 178.956C57.6816 179.562 57.4606 180.054 57.0186 180.433C56.5765 180.811 55.9681 181 55.1934 181H51.707ZM52.8145 179.92H55.1934C55.6081 179.92 55.9248 179.833 56.1436 179.66C56.3669 179.482 56.4785 179.234 56.4785 178.915C56.4785 178.555 56.3669 178.279 56.1436 178.088C55.9248 177.892 55.6081 177.794 55.1934 177.794H52.8145V179.92ZM52.8145 176.796H54.7695C55.2344 176.796 55.5921 176.709 55.8428 176.536C56.0934 176.358 56.2188 176.108 56.2188 175.784C56.2188 175.488 56.0889 175.26 55.8291 175.101C55.5693 174.941 55.1979 174.861 54.7148 174.861H52.8145V176.796ZM68.5508 173.781V181H67.3887V174.875H63.7109V181H62.5488V173.781H68.5508ZM70.2734 183.857V173.781H71.4082V174.848H71.4219C71.6543 174.442 71.9756 174.141 72.3857 173.945C72.7959 173.745 73.2357 173.645 73.7051 173.645C74.334 173.645 74.8831 173.802 75.3525 174.116C75.8219 174.431 76.1865 174.87 76.4463 175.436C76.7061 175.996 76.8359 176.648 76.8359 177.391C76.8359 178.129 76.7061 178.781 76.4463 179.346C76.1865 179.906 75.8219 180.346 75.3525 180.665C74.8831 180.979 74.334 181.137 73.7051 181.137C73.2357 181.137 72.8073 181.036 72.4199 180.836C72.0326 180.631 71.709 180.321 71.4492 179.906H71.4355V183.857H70.2734ZM73.5273 180.091C74.1517 180.091 74.6621 179.863 75.0586 179.407C75.4596 178.947 75.6602 178.275 75.6602 177.391C75.6602 176.507 75.4596 175.834 75.0586 175.374C74.6621 174.914 74.1517 174.684 73.5273 174.684C72.8574 174.684 72.3242 174.932 71.9277 175.429C71.5358 175.921 71.3398 176.575 71.3398 177.391C71.3398 178.206 71.5358 178.86 71.9277 179.353C72.3242 179.845 72.8574 180.091 73.5273 180.091ZM81.1699 181.164C80.5046 181.164 79.9189 181.005 79.4131 180.686C78.9118 180.362 78.5199 179.918 78.2373 179.353C77.9593 178.787 77.8203 178.138 77.8203 177.404C77.8203 176.666 77.9593 176.012 78.2373 175.442C78.5199 174.873 78.9118 174.426 79.4131 174.103C79.9189 173.779 80.5046 173.617 81.1699 173.617C81.8398 173.617 82.4255 173.779 82.9268 174.103C83.4281 174.426 83.8177 174.873 84.0957 175.442C84.3783 176.012 84.5195 176.666 84.5195 177.404C84.5195 178.138 84.3783 178.787 84.0957 179.353C83.8177 179.918 83.4281 180.362 82.9268 180.686C82.4255 181.005 81.8398 181.164 81.1699 181.164ZM81.1699 180.111C81.8535 180.111 82.3867 179.865 82.7695 179.373C83.1523 178.876 83.3438 178.22 83.3438 177.404C83.3438 176.579 83.1501 175.919 82.7627 175.422C82.3799 174.921 81.849 174.67 81.1699 174.67C80.4909 174.67 79.9577 174.918 79.5703 175.415C79.1875 175.912 78.9961 176.575 78.9961 177.404C78.9961 178.225 79.1875 178.881 79.5703 179.373C79.9531 179.865 80.4863 180.111 81.1699 180.111ZM88.8535 181.164C88.1882 181.164 87.6025 181.005 87.0967 180.686C86.5954 180.362 86.2035 179.918 85.9209 179.353C85.6429 178.787 85.5039 178.138 85.5039 177.404C85.5039 176.666 85.6429 176.012 85.9209 175.442C86.2035 174.873 86.5954 174.426 87.0967 174.103C87.6025 173.779 88.1882 173.617 88.8535 173.617C89.4004 173.617 89.8903 173.727 90.3232 173.945C90.7562 174.16 91.1094 174.456 91.3828 174.834C91.6608 175.212 91.8317 175.645 91.8955 176.133H90.7197C90.6331 175.709 90.4326 175.36 90.1182 175.087C89.8083 174.809 89.3867 174.67 88.8535 174.67C88.1745 174.67 87.6413 174.918 87.2539 175.415C86.8711 175.912 86.6797 176.575 86.6797 177.404C86.6797 178.225 86.8711 178.881 87.2539 179.373C87.6367 179.865 88.1699 180.111 88.8535 180.111C89.3958 180.111 89.8105 179.979 90.0977 179.715C90.3848 179.446 90.5853 179.09 90.6992 178.648H91.8955C91.8317 179.122 91.6608 179.551 91.3828 179.934C91.1094 180.312 90.7539 180.613 90.3164 180.836C89.8835 181.055 89.3958 181.164 88.8535 181.164ZM93.2012 181V173.781H94.9443L96.8174 178.047C96.9404 178.329 97.0521 178.596 97.1523 178.847C97.2526 179.093 97.3506 179.339 97.4463 179.585C97.5465 179.339 97.6445 179.093 97.7402 178.847C97.8405 178.596 97.9521 178.329 98.0752 178.047L99.9346 173.781H101.678V181H100.516V177.35C100.516 176.835 100.518 176.409 100.522 176.071C100.527 175.734 100.532 175.397 100.536 175.06C100.39 175.41 100.242 175.768 100.092 176.133C99.946 176.493 99.7751 176.894 99.5791 177.336L97.9521 181H96.9268L95.2861 177.336C95.0947 176.912 94.9261 176.525 94.7803 176.174C94.6344 175.818 94.4886 175.472 94.3428 175.135C94.3473 175.458 94.3519 175.784 94.3564 176.112C94.361 176.44 94.3633 176.853 94.3633 177.35V181H93.2012ZM106.381 181.164C105.715 181.164 105.13 181.005 104.624 180.686C104.123 180.362 103.731 179.918 103.448 179.353C103.17 178.787 103.031 178.138 103.031 177.404C103.031 176.666 103.17 176.012 103.448 175.442C103.731 174.873 104.123 174.426 104.624 174.103C105.13 173.779 105.715 173.617 106.381 173.617C107.051 173.617 107.636 173.779 108.138 174.103C108.639 174.426 109.029 174.873 109.307 175.442C109.589 176.012 109.73 176.666 109.73 177.404C109.73 178.138 109.589 178.787 109.307 179.353C109.029 179.918 108.639 180.362 108.138 180.686C107.636 181.005 107.051 181.164 106.381 181.164ZM106.381 180.111C107.064 180.111 107.598 179.865 107.98 179.373C108.363 178.876 108.555 178.22 108.555 177.404C108.555 176.579 108.361 175.919 107.974 175.422C107.591 174.921 107.06 174.67 106.381 174.67C105.702 174.67 105.169 174.918 104.781 175.415C104.398 175.912 104.207 176.575 104.207 177.404C104.207 178.225 104.398 178.881 104.781 179.373C105.164 179.865 105.697 180.111 106.381 180.111ZM112.848 181V174.834H110.325V173.781H116.519V174.834H114.01V181H112.848ZM117.482 183.857V173.781H118.617V174.848H118.631C118.863 174.442 119.185 174.141 119.595 173.945C120.005 173.745 120.445 173.645 120.914 173.645C121.543 173.645 122.092 173.802 122.562 174.116C123.031 174.431 123.396 174.87 123.655 175.436C123.915 175.996 124.045 176.648 124.045 177.391C124.045 178.129 123.915 178.781 123.655 179.346C123.396 179.906 123.031 180.346 122.562 180.665C122.092 180.979 121.543 181.137 120.914 181.137C120.445 181.137 120.016 181.036 119.629 180.836C119.242 180.631 118.918 180.321 118.658 179.906H118.645V183.857H117.482ZM120.736 180.091C121.361 180.091 121.871 179.863 122.268 179.407C122.669 178.947 122.869 178.275 122.869 177.391C122.869 176.507 122.669 175.834 122.268 175.374C121.871 174.914 121.361 174.684 120.736 174.684C120.066 174.684 119.533 174.932 119.137 175.429C118.745 175.921 118.549 176.575 118.549 177.391C118.549 178.206 118.745 178.86 119.137 179.353C119.533 179.845 120.066 180.091 120.736 180.091ZM127.668 181.109C126.952 181.109 126.353 180.925 125.87 180.556C125.392 180.187 125.152 179.642 125.152 178.922C125.152 178.507 125.232 178.17 125.392 177.91C125.556 177.65 125.772 177.448 126.041 177.302C126.314 177.151 126.622 177.037 126.964 176.96C127.31 176.882 127.663 176.821 128.023 176.775C128.484 176.712 128.846 176.664 129.11 176.632C129.375 176.6 129.562 176.548 129.671 176.475C129.785 176.402 129.842 176.274 129.842 176.092V176.023C129.842 175.632 129.701 175.308 129.418 175.053C129.14 174.798 128.748 174.67 128.242 174.67C127.741 174.67 127.328 174.793 127.005 175.039C126.686 175.281 126.513 175.581 126.485 175.941H125.303C125.326 175.499 125.462 175.107 125.713 174.766C125.964 174.419 126.305 174.146 126.738 173.945C127.171 173.745 127.673 173.645 128.242 173.645C129.085 173.645 129.753 173.863 130.245 174.301C130.742 174.734 130.99 175.308 130.99 176.023V181H129.842V179.975H129.814C129.728 180.148 129.6 180.323 129.432 180.501C129.263 180.674 129.035 180.82 128.748 180.938C128.465 181.052 128.105 181.109 127.668 181.109ZM127.832 180.07C128.306 180.07 128.691 179.986 128.987 179.817C129.284 179.644 129.5 179.421 129.637 179.147C129.773 178.874 129.842 178.58 129.842 178.266V177.363C129.755 177.445 129.525 177.521 129.151 177.589C128.778 177.653 128.383 177.714 127.969 177.773C127.691 177.81 127.426 177.874 127.176 177.965C126.93 178.051 126.729 178.177 126.574 178.341C126.419 178.5 126.342 178.717 126.342 178.99C126.342 179.327 126.474 179.592 126.738 179.783C127.007 179.975 127.372 180.07 127.832 180.07Z" fill="#2A2A2E"/>
<path d="M280.056 204.447V262.264C280.056 263.443 279.587 264.574 278.753 265.408C277.919 266.242 276.788 266.711 275.608 266.711C274.429 266.711 273.297 266.242 272.463 265.408C271.629 264.574 271.161 263.443 271.161 262.264V215.182L207.596 278.752C206.762 279.587 205.63 280.056 204.45 280.056C203.27 280.056 202.138 279.587 201.303 278.752C200.469 277.918 200 276.786 200 275.606C200 274.426 200.469 273.294 201.303 272.459L264.873 208.895H217.792C216.613 208.895 215.481 208.426 214.647 207.592C213.813 206.758 213.345 205.627 213.345 204.447C213.345 203.268 213.813 202.137 214.647 201.303C215.481 200.469 216.613 200 217.792 200H275.608C276.788 200 277.919 200.469 278.753 201.303C279.587 202.137 280.056 203.268 280.056 204.447Z" fill="#2A2A2E"/>
</svg>
