<svg width="100" height="100" viewBox="0 0 100 100" fill="none" xmlns="http://www.w3.org/2000/svg">
<rect width="100" height="100" rx="50" fill="#FF36C9"/>
<path d="M27.5888 65.0677C26.3059 65.0677 25.2204 64.6323 24.3322 63.7613C23.4441 62.871 23 61.8065 23 60.5677C23 59.3097 23.4441 58.2452 24.3322 57.3742C25.2204 56.5032 26.3059 56.0677 27.5888 56.0677C28.8717 56.0677 29.9572 56.5032 30.8454 57.3742C31.7336 58.2452 32.1776 59.3097 32.1776 60.5677C32.1776 61.8065 31.7336 62.871 30.8454 63.7613C29.9572 64.6323 28.8717 65.0677 27.5888 65.0677ZM27.5888 43.9613C26.3059 43.9613 25.2204 43.5258 24.3322 42.6548C23.4441 41.7645 23 40.7 23 39.4613C23 38.2032 23.4441 37.1387 24.3322 36.2677C25.2204 35.3968 26.3059 34.9613 27.5888 34.9613C28.8717 34.9613 29.9572 35.3968 30.8454 36.2677C31.7336 37.1387 32.1776 38.2032 32.1776 39.4613C32.1776 40.7 31.7336 41.7645 30.8454 42.6548C29.9572 43.5258 28.8717 43.9613 27.5888 43.9613Z" fill="white"/>
<path d="M57.9638 46.9226V53.0774H38.1875V46.9226H57.9638Z" fill="white"/>
<path d="M62.7895 77C65.0197 72.1613 66.6875 67.7 67.7928 63.6161C68.898 59.5129 69.4507 55.4 69.4507 51.2774C69.4507 48.2 69.1645 45.0065 68.5921 41.6968C68.0395 38.3871 67.2599 35.1355 66.2533 31.9419C65.2664 28.7484 64.1118 25.7677 62.7895 23H70.0132C71.3947 25.2258 72.6086 27.9065 73.6546 31.0419C74.7007 34.1581 75.5197 37.4774 76.1118 41C76.7039 44.5032 77 47.929 77 51.2774C77 60.6452 74.6711 69.2194 70.0132 77H62.7895Z" fill="white"/>
</svg>
